<svg xmlns="http://www.w3.org/2000/svg" width="96" height="96" viewBox="0 0 96 96"><defs><style>.cls-1{fill:#231f20;}</style></defs><title>scribble final version</title><g id="Layer_1" data-name="Layer 1"><path class="cls-1" d="M45.27,54.05c1.06-.45,2.13-.9,3.15-1.42.38-.18.67-.49,1-.67l2-.94c.68-.31,1.39-.58,2-.93a7.09,7.09,0,0,0,1.55-1.15,4.12,4.12,0,0,1,2-1.25c.27,0,.86.38,1.33,1.07a2.93,2.93,0,0,1,.58,2.3c-.12.25-.24.47-.36.69l-.18.34-.25.26a11.48,11.48,0,0,1-1,.94,8.73,8.73,0,0,1-2.37,1.37A13.7,13.7,0,0,0,52,56.39c-1,.61-2.12,1.16-3.19,1.71l-2,1c-1,.53-2,1-2.94,1.6A21,21,0,0,0,42,62.56a3.25,3.25,0,0,1-.47.36,1,1,0,0,1-.44.12,1.05,1.05,0,0,1-.46-.23,3.87,3.87,0,0,1-.89-1c-.14-.22-.29-.43-.41-.63A3,3,0,0,1,38.93,60a3.75,3.75,0,0,1,0-1.25,9.88,9.88,0,0,1,.6-1.17,5.57,5.57,0,0,1,.8-.81,11.69,11.69,0,0,1,1.86-1.26c1-.57,2-1,3-1.58Z"/><path class="cls-1" d="M53.23,48.79c-.75-.62-1.52-1.24-2.31-1.82-.29-.21-.63-.32-.92-.55-1-.79-2-1.62-3-2.4-.46-.33-.92-.68-1.4-1a4.24,4.24,0,0,1-1.7-1.4c-.13-.22.22-.67.72-1.08s1.13-.81,1.51-.7a16,16,0,0,1,2,.66A6.05,6.05,0,0,1,49.8,41.8a9.23,9.23,0,0,0,2.31,1.26c.85.46,1.69,1,2.54,1.48l1.57,1a27.56,27.56,0,0,0,2.42,1.39c.66.32,1.5.33,2.22.6a3.65,3.65,0,0,1,.5.15c.55.32.52.72-.18,1.84-.16.25-.31.51-.48.75A3,3,0,0,1,59,51.63a4.82,4.82,0,0,1-3.47-1.1c-.77-.49-1.51-1.1-2.31-1.64Z"/><path class="cls-1" d="M42.14,85.81a35.13,35.13,0,0,1-15.92-5.93A32.92,32.92,0,0,1,20,74.07,34.8,34.8,0,0,1,15.33,67a41.49,41.49,0,0,1-3.71-11.49,39.52,39.52,0,0,1,2-21,36,36,0,0,1,13-16.46A36.83,36.83,0,0,1,44.07,11.6a31.26,31.26,0,0,1,11.91,1,29.62,29.62,0,0,1,2.85.92l1.35.64c.45.22.87.48,1.31.72l1.28.74c.42.26.82.55,1.22.82l1.21.83c.39.29.77.6,1.15.9,1.87,1.55,1.25,1.81-.9,1.6-1-.14-2.56-.24-4.25-.4-.86,0-1.78-.07-2.71-.15-.48,0-.94-.06-1.44,0s-.92-.23-1.4-.31a32.06,32.06,0,0,0-5-.73l-1.25-.07c-.42,0-.84,0-1.26,0a23.15,23.15,0,0,0-2.5,0,29.23,29.23,0,0,0-9.75,2,31.13,31.13,0,0,0-4.54,2.2,31.55,31.55,0,0,0-4.12,3,30.3,30.3,0,0,0-6.64,7.89,29,29,0,0,0-3.8,12.21A41.42,41.42,0,0,0,18,58.51a33,33,0,0,0,2.51,6.76,26.2,26.2,0,0,0,4,5.93,26.91,26.91,0,0,0,12,7.52,35.29,35.29,0,0,0,17.83.42A45.35,45.35,0,0,0,67.19,74a32,32,0,0,0,5.47-4,18.33,18.33,0,0,0,2.22-2.45l1-1.31c.29-.46.54-1,.82-1.43a21.13,21.13,0,0,0,2.57-9.64,28.74,28.74,0,0,0-1.53-9.82c-.5-1.38-1-2.71-1.64-4-1.09-2.5-2-4-2.32-5.33a7.27,7.27,0,0,1-.22-1.75,5.31,5.31,0,0,1,.35-1.65,12.2,12.2,0,0,1,.57-1.55c.42-.74,1.25-.83,2.45-.26a11.12,11.12,0,0,1,4.17,3.85,33.49,33.49,0,0,1,4.81,10.16,32.55,32.55,0,0,1,.9,11.73A29.34,29.34,0,0,1,79.2,73.19L77,75.32a9.26,9.26,0,0,1-1.2,1l-1.23.9a35,35,0,0,1-3.66,2.34c-1.25.66-2.48,1.36-3.77,2a50.88,50.88,0,0,1-8,3,45,45,0,0,1-17,1.5Z"/><path class="cls-1" d="M60.68,56.7c-.87.5-1.76,1-2.64,1.42l-.48.25-.37.17-.73.35-2.92,1.34q-2.91,1.31-5.87,2.52c-.72.3-1.43.63-2.14,1l-1.27.55c-.6.26-1.24.5-1.85.71a14.79,14.79,0,0,1-3.14.88,3.41,3.41,0,0,1-2.42-.5c-.47-.17-.56-.59-.78-1l-.52-1.23A16.16,16.16,0,0,1,35.21,60c-.06-2.44,0-3.35,0-4.8l.19-4.05c.09-2.38,0-4.77-.1-7.11-.08-1.51-.23-3-.33-4.5a18.18,18.18,0,0,1-.06-2.21l.2-2.18c.09-.78.77-1.07,1.92-.45a8,8,0,0,1,1.85,1.49,5.76,5.76,0,0,1,.85,1.1,4.25,4.25,0,0,1,.4,1.28A92.82,92.82,0,0,1,41,48a64.54,64.54,0,0,1-.14,9.33c-.09.78-.16.83-.19,1.21a2.06,2.06,0,0,0,.09.93,2.56,2.56,0,0,0,.89-.24l1.07-.41c3.78-1.58,7.59-3.32,11.29-5.18l.85-.44.42-.19.87-.42A9.25,9.25,0,0,0,58,51.47c.11-.08.25-.27.08-.35l-.3-.27a6.62,6.62,0,0,1-.63-.54l-.93-.65-.48-.34-.26-.18L55,48.85c-1.19-.76-2.38-1.51-3.59-2.23s-2.7-1.44-4-2.24a44.54,44.54,0,0,1-3.94-2.54c-.57-.42-1.15-.83-1.7-1.31a6.87,6.87,0,0,1-1.14-1.35,4.09,4.09,0,0,1-.5-1.22,2.64,2.64,0,0,1,.51-2,4.87,4.87,0,0,1,.59-.77,1.9,1.9,0,0,1,1.48-.37,5.67,5.67,0,0,1,2,.48c2.18,1,4.52,2.14,7,3.25a15.08,15.08,0,0,1,1.76,1l1.75,1.06,3.54,2.23,1.26.8c.6.39,1.16.8,1.69,1.22l1.62,1.25,1.4,1.27a3,3,0,0,1,1,1.23l.38.63a4.63,4.63,0,0,1,.17.61l.15.59a2.92,2.92,0,0,1,0,.72c-.13.42-.12.79-.26,1.19a8.12,8.12,0,0,1-.65,1.19,9.41,9.41,0,0,1-1.17,1.21c-.3.18-.56.37-.88.53a8.84,8.84,0,0,0-.92.51c-.55.37-1.12.72-1.71,1.06Z"/></g></svg>