<svg xmlns="http://www.w3.org/2000/svg" width="96" height="96" viewBox="0 0 96 96"><defs><style>.cls-1{fill:#231f20;}</style></defs><title>scribble final version</title><g id="Layer_1" data-name="Layer 1"><path class="cls-1" d="M55.16,74.34s2.31,12.71,3.38,13c2.16.48,8.29-1.83,9.16-2.91C68.8,83,65.61,71.07,65.88,71c2.31-1,8-4.82,9-7.08,1.24-2.78-21-30.5-26.54-31-3.58-.31-7.14,38.35-5.94,41.9C43.1,76.84,55.37,74.12,55.16,74.34Z"/><path class="cls-1" d="M21.23,24.46c-.31.09-.33-.38-.21-1.15a2.86,2.86,0,0,1,.44-1,4.35,4.35,0,0,1,.63-.34c.12-.05,1.66.13,2.22.17a4.62,4.62,0,0,1,1.48.39,19.27,19.27,0,0,1,2.8,1.32,1.92,1.92,0,0,1,.51.48,5.77,5.77,0,0,0,1.78,1.56c.12.06.2.17.4.13s2,1.35,2.1,1.65c.29.77.54,1.42.8,2.12,0,.1.14.15.06.33-.18.42,0,.54.1.73a3.17,3.17,0,0,1,.26.89,2.06,2.06,0,0,1-.12.6c0,.18-.47.4-.54.4s-.33.2-.49.32a1,1,0,0,1-.17.13,13.79,13.79,0,0,1-2-.49l-.29-.2-.65-.42c-.5-.27-1-.57-1.1-.63s-.13-.21-.18-.34-1.47-.89-1.52-.93c-.24-.24-.6-.33-.65-.83,0-.1-.08-.13-.14-.16A9.43,9.43,0,0,1,25.36,28c-.24-.19-.5-.35-.75-.53a.54.54,0,0,1-.1-.16.55.55,0,0,0-.14-.19A11.44,11.44,0,0,0,22.5,26c-.16-.05-.71-.8-.92-.85S21.36,24.43,21.23,24.46Z"/><path class="cls-1" d="M42.3,9.72c-.28-.11.06-.44.7-.94a3.18,3.18,0,0,1,1-.48,3.37,3.37,0,0,1,.73.15c.13.05,1.15,1.16,1.54,1.53A2.94,2.94,0,0,1,47,11.17c.32.87.67,1.71.95,2.58a1.25,1.25,0,0,1,.05.61,4,4,0,0,0,.32,2.06c0,.11,0,.23.23.3A4.24,4.24,0,0,1,49.24,19c-.22.67-.5,1.33-.73,2,0,.1,0,.18-.16.28-.43.23-.35.41-.4.61a4.76,4.76,0,0,1-.46.81A3.24,3.24,0,0,1,47,23a.88.88,0,0,1-.62,0c-.14-.11-.36,0-.54,0a1.2,1.2,0,0,1-.19,0c-.06,0-.39-.34-.82-.66a2.78,2.78,0,0,1-.84-.72,2.63,2.63,0,0,0-.14-.31l-.31-.66a7.44,7.44,0,0,1-.35-.68,2.54,2.54,0,0,0-.15-.41c-.06-.11,0-.24.09-.36s-.55-1.54-.56-1.6c0-.33-.2-.62.12-1a.18.18,0,0,0,0-.2,6.9,6.9,0,0,1-.14-1.71,6,6,0,0,0-.19-.84s0-.12,0-.18a.4.4,0,0,0,0-.21,11.82,11.82,0,0,0-.49-2c0-.14.16-1,.06-1.14S42.41,9.77,42.3,9.72Z"/><path class="cls-1" d="M58.58,24.22c.15.33-.39.38-1.31.33a3.45,3.45,0,0,1-1.21-.38,4.13,4.13,0,0,1-.49-.68c-.08-.15,0-1.9-.08-2.51a4.72,4.72,0,0,1,.25-1.65,21.18,21.18,0,0,1,1.11-3.1,1.76,1.76,0,0,1,.43-.59,5.34,5.34,0,0,0,1.34-2.13c.05-.13.14-.24,0-.44a5.8,5.8,0,0,1,1.22-2.55c.68-.47,1.25-1,1.9-1.46.09-.07.09-.2.33-.16a.63.63,0,0,0,.77-.3A2.63,2.63,0,0,1,63.71,8a1.8,1.8,0,0,1,.76,0c.25,0,.77.59.8.68.1.26.44.41.68.61l.26.21a4.91,4.91,0,0,1,.11,1.14,4.15,4.15,0,0,1,0,1.13l-.17.35-.35.75c-.24.58-.49,1.18-.52,1.32s-.2.21-.33.29-.67,1.86-.71,1.93c-.23.32-.27.74-.83.9-.11,0-.12.11-.15.18a9.22,9.22,0,0,1-1.11,1.75,6.75,6.75,0,0,0-.45.94c0,.06-.11.09-.17.14s-.15.11-.18.18a12.14,12.14,0,0,0-1.15,2.2c-.06.18-.86.84-.89,1.06S58.52,24.09,58.58,24.22Z"/></g></svg>