<svg xmlns="http://www.w3.org/2000/svg" width="96" height="96" viewBox="0 0 96 96"><defs><style>.cls-1{fill:#231f20;}</style></defs><title>scribble final version</title><g id="Layer_1" data-name="Layer 1"><path class="cls-1" d="M79.61,37.05c.63-.2,1.24-.41,1.85-.63l.23-.08c.08,0,.06,0,.09,0h.11l.2,0a.62.62,0,0,0,.55-.63.59.59,0,0,0-.17-.32l-.14-.16a2.32,2.32,0,0,1-.22-.3,3.08,3.08,0,0,0-.22-.33l-.37-.45a10.78,10.78,0,0,0-.77-.9c-.55-.58-1.08-1.23-1.69-1.82a37.55,37.55,0,0,0-4-3.38,42.19,42.19,0,0,0-4-2.53,24.71,24.71,0,0,1-4.88-3.84c-.44-.49-.13-.77.61-.91a7,7,0,0,1,3.07.06l3,.93A29.63,29.63,0,0,1,75.69,23a28.5,28.5,0,0,1,5.48,3.39c1,.85,2.19,1.57,3.27,2.49.55.43,1.09.92,1.62,1.41l.2.19.24.25.47.51a9.86,9.86,0,0,1,.92,1.11,7.19,7.19,0,0,1,1.36,3,5.3,5.3,0,0,1-.42,3.14,6.84,6.84,0,0,1-2.08,2.43,11,11,0,0,1-1.38.87l-.68.36-.51.22a49.74,49.74,0,0,1-5,2c-2.51.89-5,1.61-7.41,2.63a52.42,52.42,0,0,0-5.25,2.62c-.37.2-.72.43-1.1.6a3.87,3.87,0,0,1-.5.21,2.91,2.91,0,0,1-.49,0,3.21,3.21,0,0,1-.79-.06,2.46,2.46,0,0,1-1.24-.69,6.11,6.11,0,0,1-.53-.47c-.47-.52-.24-1.46.54-2.69a5,5,0,0,1,1-1.12l1.11-1c.76-.62,1.55-1.22,2.36-1.77s1.62-1.1,2.47-1.57,1.74-.79,2.6-1.16c2.59-1.07,5.11-2,7.54-3Z"/><path class="cls-1" d="M11.25,66.79c-.55-.5-1.1-1-1.64-1.53L8.43,64.11a11.53,11.53,0,0,1-1.2-1.45A6.42,6.42,0,0,1,6.67,56a11.09,11.09,0,0,1,1.48-2.1c.33-.29.67-.62,1-.87s.62-.44.93-.65.6-.41.81-.5l.68-.36c.45-.24.91-.44,1.37-.64a8.91,8.91,0,0,1,1.38-.53c.47-.16.93-.31,1.39-.43,1.85-.54,3.67-.95,5.45-1.36,1.58-.37,3.11-.82,4.6-1.3,1.95-.52,3.86-1,5.86-1.39.63-.1.74.3.46,1a5.78,5.78,0,0,1-1.94,2.51c-.91.6-1.84,1.17-2.76,1.7a31,31,0,0,1-2.85,1.26c-1.9.76-3.78,1.42-5.65,2a11.91,11.91,0,0,0-1.62.65c-.51.27-1,.55-1.51.84s-1,.61-1.41.93l-.17.12-.1.08-.22.16-.38.26a1.44,1.44,0,0,0-.83,1.24,1.64,1.64,0,0,0,.32.76,2.74,2.74,0,0,0,.27.35l.2.2.38.32c1.27,1,2.57,2.1,3.92,3.12,2.06,1.52,4.17,3.08,6.42,4.42,1.7,1.1,3.54,2,5.26,3.1.38.26.78.46,1.14.75.16.14.31.26.44.39a3.59,3.59,0,0,1,.28.44,3,3,0,0,1,.31.78,2.45,2.45,0,0,1-.14,1.43,7.05,7.05,0,0,1-.25.66c-.32.63-1.28.73-2.63.59a4.32,4.32,0,0,1-1.35-.34l-1.28-.44c-.86-.3-1.71-.61-2.56-.93s-1.72-.66-2.56-1-1.62-.9-2.43-1.38c-1.21-.71-2.42-1.47-3.63-2.27a41,41,0,0,1-3.59-2.58Z"/><path class="cls-1" d="M34,55.85,43.56,57c1.16.13,2.33.1,3.49.26l6.12.82c2,.28,4.09.54,6.12.91,1.81.31,3.64.47,5.44.68,1.16.11,2.34.23,3.5.41A13.74,13.74,0,0,1,70,60.4l.87.25a9.25,9.25,0,0,1,.94.38c.79.37.31.93-.47,1.47a5.36,5.36,0,0,1-3.14,1.15c-2.31,0-4.65,0-7-.12-1.18,0-2.34-.12-3.52-.2a32.47,32.47,0,0,1-3.52-.52,73.43,73.43,0,0,0-8.69-.62l-9.58-.71L30,61.09c-3-.2-6-.46-8.93-.45-2.3,0-4.57.35-6.84.57-.5,0-1,.12-1.49.12-1.86,0-2.45-.37-2.86-1.78a8.55,8.55,0,0,1-.26-1c-.19-1.07.58-2,2-2.35a29,29,0,0,1,6.3-1c2.14-.14,4.31-.14,6.47-.09,3.22.05,6.45.26,9.66.55Z"/><path class="cls-1" d="M59.7,36c-3.11-.66-6.23-1.31-9.36-1.88-1.14-.22-2.3-.27-3.44-.49l-6-1.16c-2-.39-4-.7-6-1.12a52.5,52.5,0,0,0-5.37-.67c-1.15-.11-2.29-.14-3.43-.23l-1.68-.14-.84-.11-.74-.07c-.6-.08-.79-.73-.26-1.52a4.64,4.64,0,0,1,3.22-1.78A70.1,70.1,0,0,1,33,26.7c1.19.05,2.39.12,3.58.26a28.94,28.94,0,0,1,3.54.65c2.81.65,5.8.72,8.7,1.11,3.19.44,6.36.94,9.54,1.45l5.86.95c3,.49,5.91,1.07,8.87,1.41,2.29.27,4.59.21,6.89.32.51,0,1,0,1.52.09,1.87.27,2.4.75,2.57,2.2a8.56,8.56,0,0,1,.11,1c0,1.09-.9,1.86-2.31,2a27.45,27.45,0,0,1-3.14.22c-1,0-2.1,0-3.16-.1-2.12-.14-4.24-.39-6.38-.66-3.16-.41-6.33-.94-9.48-1.52Z"/></g></svg>