<svg xmlns="http://www.w3.org/2000/svg" width="96" height="96" viewBox="0 0 96 96"><defs><style>.cls-1{fill:#231f20;}</style></defs><title>scribble final version</title><g id="Layer_1" data-name="Layer 1"><path class="cls-1" d="M80.81,56c.16-.34.32-.68.45-1,.06-.17.14-.34.19-.5l.09-.25c0-.08,0-.18,0-.15a.8.8,0,0,0,.2-.57c0-.15-.2-.14-.31-.18l-.08,0c-.06,0-.11-.1-.18-.12s-.45-.15-.69-.22c-.5-.15-1-.27-1.56-.39-1.07-.24-2.19-.43-3.31-.59a25.28,25.28,0,0,0-3-.18c-1.29,0-2.69.15-4-.7-.41-.26-.1-1,.4-1.73a7.28,7.28,0,0,1,.84-1.08,1.36,1.36,0,0,1,1-.55,34.67,34.67,0,0,1,7.7.59,15.89,15.89,0,0,0,2.34.32l.61,0,.74.09a11.16,11.16,0,0,1,1.84.41l.46.25A2.77,2.77,0,0,1,86,50.87a4.75,4.75,0,0,1,.43,2,10,10,0,0,1-.26,2.1c-.13.5-.29,1-.45,1.44a30.51,30.51,0,0,1-1.45,3.22c-.81,1.55-1.79,3-2.73,4.44-.72,1.13-1.29,2.37-2.12,3.51a4,4,0,0,1-.58.72c-.86.79-1.4.76-2.27,0a6.21,6.21,0,0,1-.59-.54,2,2,0,0,1-.46-2.15,15.14,15.14,0,0,1,.64-1.47c.25-.45.5-.89.77-1.33l1.64-2.67A30.46,30.46,0,0,0,80.7,56Z"/><path class="cls-1" d="M30.91,39.4a7.29,7.29,0,0,1,.93-.22l.2,0h.06l.12,0a.29.29,0,0,0,.22-.39v0a.86.86,0,0,0-.11-.21c-.12-.24-.24-.48-.34-.73a27.66,27.66,0,0,0-2.92-5.39,20.89,20.89,0,0,0-1.73-2.13c-.8-.85-1.66-1.66-2.39-2.56-.21-.26,0-.55.5-.68a2.5,2.5,0,0,1,1.89.31,23.13,23.13,0,0,1,3,2.39,15,15,0,0,1,2.34,3c.78,1.33,1.83,2.55,2.61,3.94l.35.64.4.76a6,6,0,0,1,.34,1.45,3.73,3.73,0,0,1-.13.73,5.16,5.16,0,0,1-.32.67,4.24,4.24,0,0,1-1,1.14,4.43,4.43,0,0,0-.59.48l-.51.32a13.14,13.14,0,0,1-3.14,1.22c-1.57.46-3.16.71-4.71,1.07-1.2.27-2.35.76-3.58,1.08a4.54,4.54,0,0,1-.81.19c-1,.05-1.39-.28-1.61-1.42-.05-.26-.11-.51-.14-.77a2,2,0,0,1,.93-2,10.84,10.84,0,0,1,2.88-1.11c1-.26,2-.47,3-.7a30.3,30.3,0,0,0,4.21-1.15Z"/><path class="cls-1" d="M30.24,55.22c0,1.89-.31,3.8-.44,5.7-.05.69.08,1.37,0,2.07-.25,2.44-.54,4.89-.72,7.33a23.68,23.68,0,0,0-.17,3.25,12.42,12.42,0,0,1-.39,4.17c-.14.43-.81.37-1.55,0A3.42,3.42,0,0,1,25.13,76c-.7-2.72-1.52-5.45-.86-8.3a26.87,26.87,0,0,0-.2-5.14C24,60.67,24,58.77,24,56.87c0-1.17.07-2.34.06-3.5a49.23,49.23,0,0,0-.16-5.3,12.85,12.85,0,0,0-.46-2l-.31-1c-.08-.34-.13-.67-.18-1s-.12-.58-.13-.88c0-.14,0-.27,0-.39a2.52,2.52,0,0,1,.15-.33,2,2,0,0,1,.41-.5,3.08,3.08,0,0,1,1.31-.62c.26-.07.51-.16.76-.21a2.8,2.8,0,0,1,2.43,1c2,2.27,2.1,4.82,2.33,7.36.14,1.89.11,3.81.16,5.71Z"/><path class="cls-1" d="M34.44,40.54a.48.48,0,0,0,.05-.24,1.37,1.37,0,0,0,0-.19,2.74,2.74,0,0,0-.18-.4L34,39.14a39.36,39.36,0,0,0-2.59-4.38c-.68-1-1.53-1.9-2.26-2.83a19.47,19.47,0,0,0-1.66-1.87c-.11-.12-.33-.3-.34-.32a1.21,1.21,0,0,0-.16-.16,1,1,0,0,0-.44-.23,1.3,1.3,0,0,0-.69.12l-.16.08c-.11.06-.22.15-.34.22s-.45.33-.68.5A31.69,31.69,0,0,0,22,32.79,44.83,44.83,0,0,0,18,37.31c-.8,1-1.55,2.07-2.38,3.07l-.64.75-.74.67q-.77.66-1.59,1.26c-.72.49-1.08,0-1.22-1a10.6,10.6,0,0,1-.08-1.86,8.4,8.4,0,0,1,.12-1.1c0-.19.09-.36.12-.55a4.45,4.45,0,0,1,.26-.48c1.41-2.21,2.84-4.45,4.49-6.62a22.42,22.42,0,0,1,2.74-3.14,21.24,21.24,0,0,1,3.62-2.82,7.4,7.4,0,0,1,3.86-1.32c2,.05,4,1.63,4.83,2.4a24.53,24.53,0,0,1,2.79,2.92,52.29,52.29,0,0,1,3.24,4.59c.49.79,1,1.56,1.48,2.36l.88,1.46c.36.61.69,1.22,1,1.84a13.68,13.68,0,0,1,.93,2.22,6.16,6.16,0,0,1,.25,2,3.12,3.12,0,0,1-.08.91,3.07,3.07,0,0,1-.65.78,5,5,0,0,1-1.79.84,17.42,17.42,0,0,1-3.45.47c-.61,0-1.22,0-1.82,0h-1.3c-1.68,0-3.34,0-5,.1a36.32,36.32,0,0,0-7.29,1.39c-.5.14-1,.35-1.45.48l-.62.15a4.79,4.79,0,0,1-.52,0,2.17,2.17,0,0,1-.84-.16,2.27,2.27,0,0,1-.69-.48c-.25-.28-.5-.63-.74-.94s-.47-.52-.63-.74c-.27-.37-.29-.78-.16-1.63.05-.19.06-.52.17-.63a3.43,3.43,0,0,1,.35-.45,4.38,4.38,0,0,1,1-.83,9.1,9.1,0,0,1,1.81-.87c.62-.23,1.24-.44,1.86-.61A29.07,29.07,0,0,1,23.93,41a60.1,60.1,0,0,1,7.39-.5l2.63,0,0,.06c0,.05.27.1.24,0Z"/><path class="cls-1" d="M27.88,21.51c-2-.1-4-.23-6-.37-.73-.05-1.45,0-2.18-.05-1.28-.1-2.56-.42-3.83-.64s-2.54-.48-3.8-.77L8.74,19a9.22,9.22,0,0,1-4.11-1.8c-.37-.31-.1-.54.43-.68a5.27,5.27,0,0,1,2-.17c2.6.47,5.41.35,8.22.67a16.11,16.11,0,0,0,2.6,0,23.27,23.27,0,0,1,2.63-.13c1.93,0,3.87,0,5.81,0,1.19,0,2.39-.05,3.58-.13a48.94,48.94,0,0,0,5.42-.49,26.43,26.43,0,0,0,4-1.28c.29-.1.57-.26.86-.34,1.12-.22,1.53.11,2,1.54.1.32.23.64.31,1a2.27,2.27,0,0,1-.84,2.59c-2.36,1.38-5,1.64-7.72,1.83-2,.12-4,.09-6,.09Z"/><path class="cls-1" d="M69.58,38c.13-1.75.45-3.51.63-5.28.06-.64,0-1.28,0-1.93.28-2.28.58-4.57.76-6.86a19.47,19.47,0,0,0,.15-3,11.57,11.57,0,0,1,.3-3.91c.13-.41.8-.38,1.56-.08a3.33,3.33,0,0,1,1.89,1.6c.76,2.58,1.59,5.17.93,7.88-.29,1.61.1,3.25.13,4.88,0,1.8,0,3.6-.1,5.41L75.66,40c-.08,1.68-.27,3.37-.22,5.06a15.16,15.16,0,0,0,.25,2l.2,1c0,.33,0,.67,0,1a6.46,6.46,0,0,1,0,.88,1.59,1.59,0,0,1-.08.39,2.32,2.32,0,0,1-.22.3,2.2,2.2,0,0,1-.5.43,2.93,2.93,0,0,1-1.4.31c-.27,0-.54,0-.79,0A3.23,3.23,0,0,1,70.72,50c-1.57-2.23-1.44-4.43-1.47-6.76,0-1.72.14-3.47.18-5.23Z"/><path class="cls-1" d="M90.88,51.73a17.25,17.25,0,0,1-2,4.44c-.43.78-.61,1-.88,1.45l-.78,1.16c-1.07,1.53-2.1,3.06-3.24,4.53a40.22,40.22,0,0,1-2.54,3.25,22.18,22.18,0,0,1-2.38,2.22,8.39,8.39,0,0,1-.72.53,10,10,0,0,1-.87.54,5.89,5.89,0,0,1-2.29.65,5.34,5.34,0,0,1-1.58-.31,6.8,6.8,0,0,1-1.35-.7,14.72,14.72,0,0,1-1.77-1.44,36.2,36.2,0,0,1-2.83-3c-1.31-1.63-2.63-3.2-3.92-4.76-.84-1-1.69-2-2.5-3l-.61-.75-.52-.81-1-1.65c-.41-.69,0-1,1-.92a7.51,7.51,0,0,1,1.74.35,8.47,8.47,0,0,1,1,.4l.51.27a4.64,4.64,0,0,1,.42.37c1.89,1.9,3.69,3.83,5.45,5.72.87.95,1.77,1.86,2.56,2.82a28.86,28.86,0,0,0,2.41,2.56,2.79,2.79,0,0,0,.34.28l.15.14a.62.62,0,0,0,.34.15.8.8,0,0,0,.58-.19,7.52,7.52,0,0,0,1.11-1,29.49,29.49,0,0,0,2.22-2.53C80,61.23,81,59.83,81.94,58.39c.48-.73.93-1.47,1.38-2.22l1.13-2a8.31,8.31,0,0,0,.87-1.74c.09-.26-.15-.42-.34-.47a2.9,2.9,0,0,0-.65-.14c-.41-.06-.84-.09-1.29-.12l-1.17,0H80.63c-1.67,0-3.34,0-5,.07-2.6.08-5.18.44-7.89.42-.6,0-1.2,0-1.82,0a4,4,0,0,1-2.35-.9,1.79,1.79,0,0,1-.48-.72,4.78,4.78,0,0,1-.1-1.05,8.08,8.08,0,0,1,0-.82c0-.38.32-.63.84-1.1a1.58,1.58,0,0,1,.81-.48,4.83,4.83,0,0,1,.94-.21c4.1-.27,8.7-.46,13.51-.56l2.31,0c.87,0,1.24,0,3.08,0a13.81,13.81,0,0,1,4,.78c.14.06.3.11.43.18l.35.23a4.09,4.09,0,0,1,.66.5l.48.69.13.19,0,0,.06,0h0l0,.05,0,.09a2,2,0,0,1,.16.37A5.59,5.59,0,0,1,91,51.68Z"/><path class="cls-1" d="M77.65,78.94c-1.75-.25-3.52-.42-5.29-.5-.65,0-1.29.1-1.94.07-1.14,0-2.3-.17-3.46-.21s-2.32,0-3.46.06a20.23,20.23,0,0,0-3,.49c-1.25.31-2.48.69-3.77.93-.4.07-.5-.25-.32-.73a3.15,3.15,0,0,1,1.33-1.57,21.8,21.8,0,0,1,8-2.44c1.67-.11,3.35-.69,5.06-.76,1.87-.13,3.74-.13,5.61-.09,1.16,0,2.31.09,3.46.15,1.74.1,3.48.31,5.23.41.68,0,1.36,0,2.06,0a21.15,21.15,0,0,1,2.12-.07c.32,0,.65,0,1,0,1.18.26,1.46.78,1.19,2.24-.06.33-.1.66-.19,1a2.68,2.68,0,0,1-1.74,2,20.79,20.79,0,0,1-6.66-.19c-1.7-.22-3.45-.48-5.21-.62Z"/></g></svg>