<svg xmlns="http://www.w3.org/2000/svg" width="96" height="96" viewBox="0 0 96 96"><defs><style>.cls-1{fill:#231f20;}</style></defs><title>scribble final version</title><g id="Layer_1" data-name="Layer 1"><path class="cls-1" d="M45.42,65.59a29.45,29.45,0,0,0,10.44-3.4,21.91,21.91,0,0,0,8-7,11.25,11.25,0,0,0,1.68-4.55,9.89,9.89,0,0,0,0-2.37A10.21,10.21,0,0,0,65,45.94a4.56,4.56,0,0,0-2.44-2.83,6,6,0,0,0-4.12.07,13.48,13.48,0,0,0-6,4.3,27,27,0,0,0-4.12,6.88,25.58,25.58,0,0,0-1.19,3.38,26.1,26.1,0,0,0-.66,3.48,24.13,24.13,0,0,0,.25,7.11,14,14,0,0,0,1,3.25A12.2,12.2,0,0,0,48.49,73a9.49,9.49,0,0,0,1,1.2,7.57,7.57,0,0,0,1.14,1c.48.26,1,.57,1.44.81s1,.46,1.57.61a16,16,0,0,0,1.66.4c4.59.8,9.67-.43,14.12-2.59a25.6,25.6,0,0,0,11-9.77,32.68,32.68,0,0,0,4.76-12.52,22.78,22.78,0,0,0-1.44-13,15.84,15.84,0,0,0-5.31-6.29,21,21,0,0,0-7.77-3.29,30.41,30.41,0,0,0-17,1.4c-1.68.67-2.42,1-2.47.77s.62-.85,2-1.73a24.16,24.16,0,0,1,6.14-2.7,26.59,26.59,0,0,1,9.7-.93,26.21,26.21,0,0,1,9.43,2.69,19.71,19.71,0,0,1,7.5,6.79,22.12,22.12,0,0,1,3.16,9.6,32.41,32.41,0,0,1-.62,9.84,35.39,35.39,0,0,1-9.06,17.24,29.85,29.85,0,0,1-8.1,5.79,30.93,30.93,0,0,1-9.45,3,23.71,23.71,0,0,1-6.14.17,17.45,17.45,0,0,1-6.14-1.79c-.48-.26-1-.51-1.44-.8s-1-.68-1.39-1.06a13.6,13.6,0,0,1-2.22-2.6,18.41,18.41,0,0,1-2.42-6,29.21,29.21,0,0,1,0-12.28,30.2,30.2,0,0,1,5-11.13A23,23,0,0,1,51.89,41a16.77,16.77,0,0,1,6.5-3,11.82,11.82,0,0,1,3.86-.14,9,9,0,0,1,3.83,1.46,9.48,9.48,0,0,1,2.73,3,12.9,12.9,0,0,1,1.4,3.46,15.42,15.42,0,0,1,0,7.15,18,18,0,0,1-3,6.3,28.77,28.77,0,0,1-10.3,8.3,35.06,35.06,0,0,1-7.57,2.78,25.34,25.34,0,0,1-8.19.74,24.41,24.41,0,0,1-8-2.13A22.65,22.65,0,0,1,26.49,64a24.32,24.32,0,0,1-5.87-10.89,26.54,26.54,0,0,1,2-18.1l.74-1.36.81-1.31a19.37,19.37,0,0,1,2-2.46,20.6,20.6,0,0,1,4.85-4,7.48,7.48,0,0,1,1.67-.69,4.56,4.56,0,0,1,2.23-.09A3.78,3.78,0,0,1,37,26.49a4.54,4.54,0,0,1,.57.91c.06.15.13.29.2.46s.12.39.16.59a6.11,6.11,0,0,1-.25,3,14.85,14.85,0,0,1-1,2.32,23.76,23.76,0,0,1-2.62,4A20.3,20.3,0,0,1,26.65,44a10.87,10.87,0,0,1-2.58.77,10.72,10.72,0,0,1-1.39.13c-.44,0-.81,0-1.22,0a19.84,19.84,0,0,1-4.89-.7,13.36,13.36,0,0,1-8.32-6.32,15.43,15.43,0,0,1-1.83-9,17.36,17.36,0,0,1,2-6.8,13.66,13.66,0,0,1,3-3.86,7.7,7.7,0,0,1,2.85-1.65,5.17,5.17,0,0,1,2.37-.05,5.43,5.43,0,0,1,1.67.5c.29.21.27.47,0,.83a4.82,4.82,0,0,1-.46.59c-.18.25-.41.49-.65.8-.44.65-1.05,1.31-1.68,2.19a17.37,17.37,0,0,0-1.84,3.34,14.57,14.57,0,0,0-1.16,6.22,8.25,8.25,0,0,0,1.91,5.17,8.5,8.5,0,0,0,4.91,2.57,16,16,0,0,0,1.61.23c.54,0,1.17.06,1.66.08A5.36,5.36,0,0,0,25,38.35a16.71,16.71,0,0,0,5-4.29,19.66,19.66,0,0,0,1.92-2.81,8.9,8.9,0,0,0,.62-1.32,2.38,2.38,0,0,0,.08-.26.82.82,0,0,0,.06-.2c.12-.14-.3-.13.66-.12a3.78,3.78,0,0,0,.47-.06c.14,0,.19,0,.3-.05l.14,0,.07,0h0l-1.55.59h0v0h0l.1-.05a2.61,2.61,0,0,0,.43-.24l.2-.15.15-.1a2.91,2.91,0,0,0,.27-.24c.24-.21.28-.4.23-.24a2.85,2.85,0,0,0,0,1.24c0,.12,0,.37.09.53h0l-.12.06a4.34,4.34,0,0,0-.43.24,10.37,10.37,0,0,0-1.16.89,23,23,0,0,0-2.42,2.5,15.31,15.31,0,0,0-.94,1.22c-.28.51-.62,1-.87,1.52a21.54,21.54,0,0,0-2.62,9.94,19.79,19.79,0,0,0,2.47,10,17.17,17.17,0,0,0,7.23,7,17.9,17.9,0,0,0,4.91,1.6l1.3.18c.42,0,.81.08,1.24.08a19.37,19.37,0,0,0,2.61-.14Z"/></g></svg>