<svg xmlns="http://www.w3.org/2000/svg" width="96" height="96" viewBox="0 0 96 96"><defs><style>.cls-1{fill:#231f20;}</style></defs><title>scribble final version</title><g id="Layer_1" data-name="Layer 1"><path class="cls-1" d="M27.51,39.37c0,4.59-8.87,5.32-8.87-.23,0-2.93,2.95-4.12,5.6-4C26.37,35.22,27.51,37.45,27.51,39.37Z"/><path class="cls-1" d="M65.9,50.59c0,3.4-6.58,3.94-6.58-.18,0-2.17,2.19-3,4.15-3C65.06,47.51,65.9,49.16,65.9,50.59Z"/><path class="cls-1" d="M60.18,37.89c0,2.58-5,3-5-.14,0-1.64,1.66-2.32,3.15-2.25A2.22,2.22,0,0,1,60.18,37.89Z"/><path class="cls-1" d="M23.08,67.33C23.08,71,16,71.6,16,67.14c0-2.35,2.37-3.31,4.5-3.22C22.16,64,23.08,65.79,23.08,67.33Z"/><path class="cls-1" d="M79,56.6c0,2.33-4.5,2.7-4.51-.12,0-1.49,1.5-2.09,2.85-2A2,2,0,0,1,79,56.6Z"/><path class="cls-1" d="M41.83,37.89c0,2.68-5.18,3.1-5.18-.13,0-1.71,1.72-2.41,3.27-2.34A2.29,2.29,0,0,1,41.83,37.89Z"/><path class="cls-1" d="M12,26.78c0,2.59-5,3-5-.14,0-1.65,1.67-2.32,3.17-2.26A2.23,2.23,0,0,1,12,26.78Z"/><path class="cls-1" d="M51.41,15.21c0,2.63-5.08,3-5.08-.13,0-1.68,1.69-2.36,3.2-2.29A2.25,2.25,0,0,1,51.41,15.21Z"/><path class="cls-1" d="M48.87,80.94c0,2.83-5.48,3.28-5.48-.15,0-1.81,1.82-2.54,3.46-2.47C48.16,78.37,48.87,79.75,48.87,80.94Z"/><path class="cls-1" d="M85.62,63c0,4.43-8.58,5.14-8.58-.23,0-2.83,2.85-4,5.41-3.87C84.51,59,85.62,61.17,85.62,63Z"/><path class="cls-1" d="M69.09,21.47c0,3.3-6.37,3.82-6.37-.17,0-2.1,2.11-3,4-2.88C68.27,18.49,69.09,20.09,69.09,21.47Z"/><path class="cls-1" d="M15.19,48.86c0,4.28-8.28,5-8.28-.22,0-2.74,2.75-3.85,5.23-3.75C14.13,45,15.19,47.06,15.19,48.86Z"/><path class="cls-1" d="M50.89,27.63c0,4.92-9.52,5.71-9.53-.26,0-3.14,3.17-4.42,6-4.3C49.67,23.17,50.89,25.57,50.89,27.63Z"/><path class="cls-1" d="M40.81,51.54c0,4.06-7.86,4.71-7.86-.21,0-2.6,2.61-3.65,5-3.55C39.8,47.86,40.81,49.83,40.81,51.54Z"/><path class="cls-1" d="M89.09,48.89c0,4.89-9.45,5.67-9.45-.25,0-3.12,3.14-4.38,6-4.26C87.88,44.47,89.09,46.85,89.09,48.89Z"/><path class="cls-1" d="M48.87,64.69c0,4.93-9.54,5.72-9.55-.25,0-3.15,3.17-4.43,6-4.31C47.64,60.22,48.87,62.63,48.87,64.69Z"/><path class="cls-1" d="M75.21,34.42c0,4.68-9.06,5.43-9.06-.24,0-3,3-4.2,5.72-4.09C74,30.18,75.21,32.46,75.21,34.42Z"/><path class="cls-1" d="M27.63,19.41c0,4.56-8.82,5.29-8.82-.23,0-2.91,2.93-4.1,5.57-4C26.5,15.28,27.63,17.5,27.63,19.41Z"/><path class="cls-1" d="M63.19,67.34c0,3.74-7.24,4.34-7.24-.2,0-2.39,2.41-3.36,4.57-3.27C62.26,64,63.19,65.77,63.19,67.34Z"/><path class="cls-1" d="M76.73,75.32c0,3.93-7.6,4.56-7.61-.2,0-2.51,2.53-3.53,4.8-3.44C75.75,71.76,76.73,73.67,76.73,75.32Z"/></g></svg>