<svg xmlns="http://www.w3.org/2000/svg" width="96" height="96" viewBox="0 0 96 96"><defs><style>.cls-1{fill:#231f20;}</style></defs><title>scribble final version</title><g id="Layer_1" data-name="Layer 1"><path class="cls-1" d="M33.83,50.64a28.72,28.72,0,0,0-1.54,4.45,11.54,11.54,0,0,0-.33,2l0,.53a.84.84,0,0,0,.05.31.43.43,0,0,0,.18.22.84.84,0,0,0,.3.11l.16,0a1,1,0,0,0,.25,0A23.16,23.16,0,0,0,38.94,58a62.57,62.57,0,0,0,6.49-1.48A43.54,43.54,0,0,0,51,54.39a38.5,38.5,0,0,1,7.06-2.72c.67-.16,1.19.63,1.06,1.87A5.22,5.22,0,0,1,57,57.23c-.59.36-1.17.71-1.77,1.05s-1.23.57-1.84.85c-1.25.52-2.51,1-3.79,1.45a46.88,46.88,0,0,1-8,2c-1.65.26-3.3.63-5,.94a25.44,25.44,0,0,1-2.73.34c-.48,0-.95,0-1.52,0a9.41,9.41,0,0,1-2-.36,8.13,8.13,0,0,1-1.75-.86,5.83,5.83,0,0,1-2-3.19,6.15,6.15,0,0,1-.19-1l-.06-.47a2.77,2.77,0,0,1,0-.39,11.82,11.82,0,0,1,0-1.47,23.43,23.43,0,0,1,1.07-5.17A47.82,47.82,0,0,1,30,44.67c1.47-3.1,3.22-6,4.89-9,1.3-2.27,2.4-4.63,3.8-6.87a10,10,0,0,1,1-1.4C41.16,25.81,42,25.57,43.15,26a5.13,5.13,0,0,1,.8.32c.8.45.82,1.59.26,3L43.58,31l-.31.8c-.11.26-.25.5-.38.75l-1.58,3c-1.07,2-2.17,4-3.21,6A74.67,74.67,0,0,0,34,50.68Z"/><path class="cls-1" d="M33,47.93a67.38,67.38,0,0,0-3.66,7.31A30.63,30.63,0,0,0,28,58.88c-.16.56-.28,1.3-.29,1.26a1.24,1.24,0,0,0,0,.51.39.39,0,0,0,.18.31.83.83,0,0,0,.35.1c.14,0,.26,0,.39,0a.27.27,0,0,1,.09,0H29l.69,0a44.4,44.4,0,0,0,10.16-2.2c3.44-1.09,6.85-2.43,10.24-3.83,3-1.26,5.94-2.74,8.8-4.27,1.85-1,3.62-2.08,5.53-2.95s3.8-1.75,5.8-2.49c1.28-.46,1.46.33.92,1.63a11.86,11.86,0,0,1-3.75,4.71c-.9.61-1.75,1.29-2.69,1.83l-2.82,1.6c-1.89,1-3.81,2.06-5.76,3A81.69,81.69,0,0,1,44,63c-2.53.8-5.08,1.71-7.75,2.5a40.39,40.39,0,0,1-4.14,1,21.56,21.56,0,0,1-2.2.32l-.57,0-.68,0A8.2,8.2,0,0,1,27,66.89a12.7,12.7,0,0,1-1.38-.18,10.18,10.18,0,0,1-1.49-.56,3.93,3.93,0,0,1-1.22-1,5.8,5.8,0,0,1-1.17-3,8.33,8.33,0,0,1-.08-1.66c0-.28,0-.55.05-.84l.05-.42,0-.3a22,22,0,0,1,.48-2.29,52.22,52.22,0,0,1,3-8.18c1.53-3.35,3.28-6.56,5.1-9.71C33.16,34,36.31,29.47,39.49,25c2.52-3.44,4.83-7,7.7-10.24.63-.72,1.22-1.47,1.93-2.14a7.71,7.71,0,0,1,3.24-2.14,3.51,3.51,0,0,1,2.55.64,10.16,10.16,0,0,1,1.08.73,2,2,0,0,1,.48,1.93,5.34,5.34,0,0,1-1.24,2.69C53,19.16,50.87,22,48.7,24.91l-6.56,9a132.51,132.51,0,0,0-9,14.13Z"/><path class="cls-1" d="M54.69,63.18c.14-2.79.26-5.59.3-8.4,0-1-.18-2-.11-3.06.22-3.63.46-7.28.5-10.91,0-1.62,0-3.24-.13-4.83a20.67,20.67,0,0,1,.11-6.27c.17-.68,1.06-.56,2-.05a6.89,6.89,0,0,1,1.45,1,3.25,3.25,0,0,1,1,1.5c.49,2,1,4.07,1.3,6.13a17.34,17.34,0,0,1,.23,3.14c0,1.05,0,2.11-.1,3.18-.2,2.55.41,5.14.58,7.73.12,2.85.11,5.71.11,8.58l0,5.29c0,2.67-.13,5.36,0,8,0,1,.09,2.08.21,3.12l.16,1.56c0,.53.06,1.06.07,1.59a13.29,13.29,0,0,1,0,1.41c-.4,1.79-1,2.28-2.63,2.36a9.57,9.57,0,0,1-1.06,0,3.06,3.06,0,0,1-2.55-2.08,13.19,13.19,0,0,1-.8-2.6c-.18-.86-.37-1.75-.53-2.65s-.28-1.78-.38-2.7,0-1.83,0-2.75c0-1.38,0-2.76.05-4.15l0-4.2Z"/></g></svg>