<svg xmlns="http://www.w3.org/2000/svg" width="96" height="96" viewBox="0 0 96 96"><defs><style>.cls-1{fill:#231f20;}</style></defs><title>scribble final version</title><g id="Layer_1" data-name="Layer 1"><path class="cls-1" d="M28.75,27.43C21.23,30.33,15.12,65,21.64,71.58c8.45,8.54,49.72,1.28,49.72,1.28s3.55,4.69-2.47,5.83-52.7,3.77-55.09-3.38-.55-35.1,3.13-42.8S28.75,27.43,28.75,27.43Z"/><path class="cls-1" d="M30.55,81.61c-2.5-.16-5-.35-7.5-.6-1.26-.12-2.52-.29-3.82-.44-.64-.08-1.3-.18-2-.31l-.54-.11a8,8,0,0,1-.81-.2,5.47,5.47,0,0,1-1.51-.7l-.84-.81c-.24-.3-.45-.64-.67-1a3.73,3.73,0,0,1-.5-.93,8.61,8.61,0,0,1-.32-.82,19.8,19.8,0,0,1-.7-3,42.7,42.7,0,0,1-.47-5.54c-.1-3.19-.12-6.33.09-9.45.36-5.05,1-10,1.76-15,.4-2.49.85-5,1.39-7.45.27-1.24.56-2.48.91-3.74.17-.63.38-1.26.59-1.91a10.9,10.9,0,0,1,.5-1.21,8.37,8.37,0,0,1,.73-1.22,4.75,4.75,0,0,1,1.69-1.08,7.2,7.2,0,0,1,1-.32c.25-.08.49-.14.72-.19a69.37,69.37,0,0,1,7.41-1.13c2.44-.26,4.86-.46,7.28-.6,3.1-.19,6.23-.34,9.38-.24a24,24,0,0,1,9.61,1.95,2.46,2.46,0,0,1,1,.91.57.57,0,0,1,0,.71,6,6,0,0,1-2,.89,32.92,32.92,0,0,1-3.34,1,18.12,18.12,0,0,1-2.14.4,18.61,18.61,0,0,1-2.38,0,129.17,129.17,0,0,0-13.19.09c-2.21.13-4.42.29-6.57.53-1.08.12-2.15.27-3.14.45l-.71.14-.33.07-.13,0s0,0,0,0a.42.42,0,0,0-.19,0,.52.52,0,0,0-.1.11s0,0,0,.07l-.1.22-.19.52c-.25.7-.48,1.47-.71,2.25-.44,1.56-.85,3.18-1.23,4.81a127.92,127.92,0,0,0-2.64,22.57c-.11,2.63-.14,5.26,0,7.82a26.74,26.74,0,0,0,.45,3.7,6.31,6.31,0,0,0,.2.83,5.11,5.11,0,0,0,.24.75,2.06,2.06,0,0,0,.21.46,1.92,1.92,0,0,0,.26.32,1.61,1.61,0,0,0,.43.17l.4.09.52.1c.71.13,1.45.23,2.2.33,1.5.16,3,.28,4.56.38,5.16.34,10.36.51,15.55.55a205.92,205.92,0,0,0,23.5-.82,38.94,38.94,0,0,0,4-.66l.48-.11.31-.09.51-.17a3,3,0,0,0,.47-.24.49.49,0,0,0,.28-.42,6.78,6.78,0,0,0,0-1.26c0-.76-.14-1.55-.21-2.33l-.57-4.77c-.17-1.31-.39-2.59-.53-3.92a20.14,20.14,0,0,1-.11-5.31,3.76,3.76,0,0,1,1.5-2.47,5.93,5.93,0,0,1,1.06-.73c.6-.22,1.15.16,1.64,1a11.68,11.68,0,0,1,1.26,4c.45,2.7.86,5.45,1.2,8.27.16,1.41.31,2.83.41,4.3l.08,1.11,0,.58v.29a3.18,3.18,0,0,1,0,.45l-.08,2a17.86,17.86,0,0,1-.48,1.88l-.23.4c-.13.09-.18.25-.29.36s-.17.26-.27.38l-.34.31a6,6,0,0,1-1.63,1,6.86,6.86,0,0,1-.93.35c-.32.11-.65.2-1,.28s-.71.18-.93.22l-.59.11c-1.53.29-3,.47-4.44.62-2.9.29-5.75.44-8.61.54-8.6.27-17.17,0-25.76-.37Z"/><path class="cls-1" d="M71.58,32.17c-1.85,1.68-3.7,3.38-5.51,5.11-.33.32-.63.67-.93,1a12.65,12.65,0,0,1-1,1c-2.49,2.1-5,4.19-7.41,6.36-1.07,1-2.05,2-3,3.07a25.35,25.35,0,0,1-4.14,3.65c-.49.31-.86-.14-1-.94A4.38,4.38,0,0,1,49,48.47l1.55-2.36c.54-.76,1.17-1.44,1.77-2.14a44.84,44.84,0,0,1,4-4,51.21,51.21,0,0,0,4.54-5.16c1.74-1.82,3.57-3.59,5.37-5.37l3.35-3.29c1.66-1.69,3.44-3.28,5-5A21.94,21.94,0,0,0,76.27,19c.56-.72,1.13-1.44,1.71-2.13a3.44,3.44,0,0,1,.83-.87c1.25-.85,1.9-.85,2.9-.26a6.76,6.76,0,0,1,.66.39c.65.49.73,1.45.35,2.6C81.62,22.19,79.26,24.5,77,27c-1.69,1.82-3.56,3.5-5.32,5.29Z"/><path class="cls-1" d="M80.42,19.46v-.35c0-.05,0-.07,0-.11s0-.07,0-.12a1.92,1.92,0,0,0,0-.29c0-.22-.26-.21-.48-.25H80l-.23.07-.47.16a9.67,9.67,0,0,1-1,.33c-2.33.47-4.79.9-7.17,1.54a27.07,27.07,0,0,0-3.1,1.09,12.24,12.24,0,0,1-3.91,1.37c-.43,0-.85-.93-.93-2s.18-2.37.94-2.75a31.06,31.06,0,0,1,4.08-1.74,23.61,23.61,0,0,1,4.4-.84A15.39,15.39,0,0,0,75.29,15l1.33-.38c.46-.09.92-.16,1.39-.22l.78-.08.42,0a2.32,2.32,0,0,0,.59,0,4.94,4.94,0,0,1,1.15,0,6.18,6.18,0,0,1,1.07.09,3.59,3.59,0,0,1,1,.31.89.89,0,0,1,.39.33,3.69,3.69,0,0,1,.29.4,5.74,5.74,0,0,1,.6,2c.07.47.13.91.16,1.33l0,.93.07,1.85c.06,1.85,0,3.7.07,5.54.06,1.42.37,2.83.52,4.28a2.34,2.34,0,0,1,0,1,2.14,2.14,0,0,1-.56,1.23,2.42,2.42,0,0,1-1.2.42,5.47,5.47,0,0,1-.65.08,1.46,1.46,0,0,1-1-.36,2.27,2.27,0,0,1-.81-1l-.4-.93a4.28,4.28,0,0,1-.18-.92c-.08-.61-.13-1.23-.16-1.85-.06-1.25,0-2.52,0-3.8,0-1.89.13-3.81.08-5.65Z"/></g></svg>