<svg xmlns="http://www.w3.org/2000/svg" width="96" height="96" viewBox="0 0 96 96"><defs><style>.cls-1{fill:#231f20;}</style></defs><title>scribble final version</title><g id="Layer_1" data-name="Layer 1"><path class="cls-1" d="M37.05,29.78a51.32,51.32,0,0,1,6.42-2.26,18.38,18.38,0,0,1,1.83-.39l.59-.09c.24,0,.48-.06.72-.07A8.43,8.43,0,0,1,48,27a6,6,0,0,1,2.56.77,4.81,4.81,0,0,1,1,.83,4.93,4.93,0,0,1,.74,1.08,5.2,5.2,0,0,1,.49,2.19c0,.39,0,.79-.06,1.19l-.06.69v.12a.79.79,0,0,0,.33.54,3.59,3.59,0,0,0,1.16.36,13.69,13.69,0,0,0,4.19-.14,41.7,41.7,0,0,0,4.62-1c3.09-.87,6.17-2,9.23-3.19C75,29.31,77.61,28,80.19,26.69c1.66-.85,3.27-1.81,5-2.63s3.41-1.57,5.18-2.24c1.13-.41,1.3.27.8,1.42a10.41,10.41,0,0,1-3.42,4.15c-.41.27-.8.55-1.22.81l-1.26.72-2.55,1.39c-1.71.92-3.45,1.79-5.21,2.63a69.91,69.91,0,0,1-11,4.23c-2.31.64-4.64,1.37-7.13,1.9a23.29,23.29,0,0,1-3.94.51,11,11,0,0,1-2.19-.12,7.47,7.47,0,0,1-2.44-.82A5.37,5.37,0,0,1,48.91,37,6,6,0,0,1,48,34.75a5.7,5.7,0,0,1-.08-1.27v-.23l0-.15a1.56,1.56,0,0,0,0-.61.8.8,0,0,0-.64-.56,2.91,2.91,0,0,0-1,0,23.6,23.6,0,0,0-4.13,1.22c-1.45.55-2.85,1.17-4.37,1.83s-3,1.17-4.4,1.84a106.69,106.69,0,0,0-12.69,6.7c-3.14,2-6.05,4.26-8.91,6.47-.64.48-1.23,1-1.88,1.46-2.38,1.74-3.3,2-4.69,1.35a6.31,6.31,0,0,1-.94-.46c-.91-.62-.53-2.15,1.09-3.86a49.76,49.76,0,0,1,3.82-3.57c1.37-1.08,2.79-2.1,4.23-3.07,2.88-2,5.93-3.79,9.07-5.52q3.5-1.92,7.17-3.59c1.23-.56,2.46-1.1,3.71-1.6l1.88-.75c.48-.18,1.08-.45,1.69-.71Z"/><path class="cls-1" d="M45.67,52.05l-.11.18,0,0,0,0-.07.06a.43.43,0,0,0-.12.17.35.35,0,0,0,.16.38.41.41,0,0,0,.11.07.45.45,0,0,0,.22.08,2,2,0,0,0,.41.11l.58.09a17,17,0,0,0,2.6.07c1.33-.07,2.68-.37,4.06-.58A88.88,88.88,0,0,0,68.08,49c2.13-.75,4.24-1.61,6.29-2.5l7.84-3.61c.8-.37,1,.09.62,1A7.57,7.57,0,0,1,80.08,47a79,79,0,0,1-7.92,4.45,65.72,65.72,0,0,1-8.57,3.08c-3.52,1-7.09,2.31-10.88,3a25.94,25.94,0,0,1-6.55.45,14.7,14.7,0,0,1-1.93-.31l-1.13-.38a6.41,6.41,0,0,1-1.05-.52,4.81,4.81,0,0,1-1.59-1.55,3.56,3.56,0,0,1-.5-2.13,6.18,6.18,0,0,1,.9-2.6l.61-1,.15-.25v0h0l.27.07a2.28,2.28,0,0,0,.41.11l.32,0c.38,0,.38-.13.23.07a1,1,0,0,0-.13.2l0,.06v0h0c-.05.1.37-.91.19-.48h0a1.42,1.42,0,0,0-.08.18,5.8,5.8,0,0,0-.07.92v.22h0s0,0,0,0h-.12l-.32.07a14.49,14.49,0,0,0-1.58.52,70.32,70.32,0,0,0-9.89,4.88c-2.47,1.47-4.65,3.28-6.93,4.94-.5.37-1,.76-1.48,1.11-1.88,1.32-2.72,1.36-3.81.75a7.68,7.68,0,0,1-.75-.42c-.71-.54-.41-1.77.79-3.16.93-1,1.9-1.91,2.92-2.81a35.46,35.46,0,0,1,3.26-2.44,79.5,79.5,0,0,1,7.09-4.24c1.83-1,3.69-1.89,5.67-2.73A27.35,27.35,0,0,1,40.86,46l.55-.14c.18,0,.46-.08.68-.11s.36,0,.53,0h.44l.29,0a4.51,4.51,0,0,1,1.11.33,4.21,4.21,0,0,1,1,.68,3.72,3.72,0,0,1,.9,1.33,4,4,0,0,1,.2.73c0,.12,0,.24,0,.36v.27a4.89,4.89,0,0,1,0,.54l-.07.36a3.87,3.87,0,0,1-.17.58,9.08,9.08,0,0,1-.56,1.18Z"/><path class="cls-1" d="M42.15,70.61c.07,0,0,.11.52.14s1,0,1.58,0a24.28,24.28,0,0,0,3.52-.33c.88-.14,1.72-.43,2.61-.62a77.34,77.34,0,0,0,9.35-2.58c1.35-.5,2.69-1.06,4-1.64,1.66-.78,3.3-1.61,5-2.29.53-.21.71.17.54.84a4.36,4.36,0,0,1-1.58,2.29,50,50,0,0,1-5,3.08,38.46,38.46,0,0,1-5.45,2.07c-2.24.66-4.47,1.65-6.8,2.31a38.82,38.82,0,0,1-3.94.87,16.41,16.41,0,0,1-4.24.23c-2.13-.18-4.92-1.3-5-3.67A4.7,4.7,0,0,1,38.07,69l.34-.57.09-.15,0,0h0l.07,0,.13,0a1.67,1.67,0,0,0,.8.11c-.05,0,0,0-.1.12l-.06.11,0,.06v0h0c-.15.35.19-.48.16-.39h0v0a1.22,1.22,0,0,0-.08.83v.15h-.05a.24.24,0,0,0-.13,0,1.73,1.73,0,0,0-.33.08c-.24.07-.5.16-.76.26a16.47,16.47,0,0,0-1.56.69A44.65,44.65,0,0,0,32,73.36c-.33.21-.64.45-1,.65-1.27.75-1.89.63-2.67-.05-.18-.17-.38-.31-.54-.48-.51-.57-.32-1.47.46-2.36a24.7,24.7,0,0,1,1.91-1.77,17.23,17.23,0,0,1,2.16-1.49c.76-.46,1.54-.89,2.36-1.29a20.64,20.64,0,0,1,2.72-1.14,5.61,5.61,0,0,1,.67-.19l.39-.09a5,5,0,0,1,.61-.08h.16a1.46,1.46,0,0,1,.22,0,4.06,4.06,0,0,1,.77.1,3.51,3.51,0,0,1,.73.26,3.42,3.42,0,0,1,.72.48,4.78,4.78,0,0,1,.39.39,4.05,4.05,0,0,1,.35.53A3.24,3.24,0,0,1,42.79,68a3.31,3.31,0,0,1,0,.89,4.46,4.46,0,0,1-.11.55c0,.13-.09.26-.13.38l-.12.27-.16.31s0,0,0,0h0a.08.08,0,0,0,0,.14Z"/></g></svg>