<svg xmlns="http://www.w3.org/2000/svg" width="96" height="96" viewBox="0 0 96 96"><defs><style>.cls-1{fill:#231f20;}</style></defs><title>scribble final version</title><g id="Layer_1" data-name="Layer 1"><path class="cls-1" d="M55.72,73.91l9-1.19s12.61-21.27,13.41-22c1.45-1.3-11.68,24.16-11.68,24.16L53.17,76.2Z"/><polygon class="cls-1" points="28.2 66.04 32.34 72.24 65.56 18.23 58.32 18.23 28.2 66.04"/><path class="cls-1" d="M43.63,76.26l10.66-1L76.35,37.67c-.18.3-4.68-8.29-4.68-8.29Z"/><path class="cls-1" d="M65,24.34l-1.45-2.57-.36-.61L63,20.87a.36.36,0,0,1,0-.07.73.73,0,0,0-.11-.26.77.77,0,0,0-.18-.1l-.1,0s-.08,0-.16,0l-.26,0c-.7-.06-1.42-.11-2.16-.14-1.26-.06-2.53.08-3.81,0-4.51-.11-9.08-.36-13.63-.37a58,58,0,0,0-6,.35c-1.28.12-2.56.32-3.84.43a19.07,19.07,0,0,1-3.9-.28c-.82-.16-.79-1.14-.2-2.27a5.76,5.76,0,0,1,3.22-2.89,79.73,79.73,0,0,1,15.92-.59c3.21.21,6.53-.13,9.83-.09q1.77,0,3.57.12l.91.07,1,.08a6.12,6.12,0,0,1,1.38.21,8.37,8.37,0,0,1,1.29.4,7.64,7.64,0,0,1,1.92,2.19c.37.58.69,1.12,1,1.68,1.14,1.94,2.19,3.89,3.28,5.81,1.65,2.91,3.21,5.88,5,8.68,1.37,2.18,3,4.14,4.52,6.16.34.44.72.84,1,1.31a4.52,4.52,0,0,1,.63,1.13,2,2,0,0,1,.17.94A3.88,3.88,0,0,1,82.47,45c-.18.24-.31.5-.48.68a1.35,1.35,0,0,1-1.27.32,7,7,0,0,1-1-.21,2.38,2.38,0,0,1-1-.61,35.1,35.1,0,0,1-4.57-5.46c-1.38-2-2.65-4-3.89-6.05-1.84-3.06-3.56-6.2-5.36-9.23Z"/><path class="cls-1" d="M24.25,34.19c-.78,1.23-1.57,2.47-2.33,3.73-.27.46-.42,1-.71,1.43-1,1.59-2.23,3.12-3.26,4.73a17.68,17.68,0,0,0-1.19,2.23,8.15,8.15,0,0,1-2,2.65c-.3.22-.78-.14-1.21-.73a3.15,3.15,0,0,1-.78-2l.36-1.58a9.44,9.44,0,0,1,.65-1.45,18.61,18.61,0,0,1,1.72-2.76,29.29,29.29,0,0,0,1.79-3.59c.71-1.29,1.46-2.57,2.2-3.86.45-.79.92-1.58,1.36-2.38.64-1.23,1.46-2.38,2.12-3.6.5-1,.81-2,1.31-3a5.8,5.8,0,0,1,.33-.66,1.27,1.27,0,0,1,1.84-.43c.18.09.36.17.53.27a1.76,1.76,0,0,1,.74,1.6,22.86,22.86,0,0,1-1.38,5.56,9.56,9.56,0,0,1-.39,1l-.53.95-1.07,1.91Z"/><path class="cls-1" d="M25,58.7c.83,1.48,1.66,3,2.53,4.41.31.53.74,1,1,1.5,1.09,1.88,2.14,3.79,3.32,5.6a25.61,25.61,0,0,0,1.76,2.22l1.16,1.34c.19.23.36.46.52.68s.15.23.23.36.11.2.16.31c.11.28-.21,1-.95,1.38a2.69,2.69,0,0,1-2.59.09c-.56-.41-1.09-.84-1.58-1.27a9.33,9.33,0,0,1-.72-.67l-.6-.77a20.43,20.43,0,0,1-2-3.29,30.16,30.16,0,0,0-2.74-3.77c-1-1.39-1.92-2.81-2.86-4.23L19.92,60A46.7,46.7,0,0,0,17.29,56a33.17,33.17,0,0,0-2.56-2.61,4.22,4.22,0,0,1-.53-.59c-.56-.82-.49-1.27.23-2.08a6.28,6.28,0,0,1,.49-.54A1.75,1.75,0,0,1,17,49.92a10.25,10.25,0,0,1,1.51.91c.45.36.88.73,1.3,1.13a30.66,30.66,0,0,1,2.31,2.52c.54.65,1.06,1.33,1.57,2s.92,1.43,1.4,2.13Z"/><path class="cls-1" d="M72.84,69.34l-2.21,3.81-.58,1-.29.49-.16.25-.26.38a9.39,9.39,0,0,1-1.1,1.45,3.35,3.35,0,0,1-1.65.82,5.12,5.12,0,0,1-.68.14l-.64.11-.84.13a15.37,15.37,0,0,1-1.63.19c-3.82.18-7.55.24-11.3.34-1.67,0-3.33.16-5,.33a30.22,30.22,0,0,1-3.15.29,28.71,28.71,0,0,1-3.2-.12c-.67-.08-.66-.61-.2-1.33a5.72,5.72,0,0,1,2.57-2.17,13.35,13.35,0,0,1,1.59-.51l1.62-.3c1.07-.2,2.15-.36,3.23-.5a32.17,32.17,0,0,1,3.25-.3c1.09,0,2.19,0,3.29.08a57.71,57.71,0,0,0,7.89-.58l1-.11.48,0c.31,0,.41-.3.65-.58.73-1.16,1.5-2.44,2.23-3.69.9-1.56,1.81-3.12,2.69-4.7,1.34-2.39,2.74-4.77,4-7.19,1-1.89,1.71-3.86,2.65-5.79.21-.43.4-.87.64-1.29a5.41,5.41,0,0,1,.67-1,2.49,2.49,0,0,1,.74-.45,1.89,1.89,0,0,1,1.46,0,3.85,3.85,0,0,1,.61.27,1.29,1.29,0,0,1,.49.94,4.74,4.74,0,0,1,.07.67,3.32,3.32,0,0,1-.06.88c-.63,1.63-1.36,3.36-2.16,5.1s-1.67,3.48-2.56,5.22c-1.32,2.6-2.73,5.17-4.1,7.78Z"/><path class="cls-1" d="M41.82,31.34l-6.69,9.57c-.8,1.17-1.48,2.42-2.3,3.58Q28.5,50.63,24,56.69c-1.31,1.8-2.5,3.69-3.68,5.56-.76,1.2-1.45,2.43-2.25,3.62A21.57,21.57,0,0,1,15.2,69.1c-.68.62-1.22,0-1.51-1.08a8.61,8.61,0,0,1-.24-2,6,6,0,0,1,.44-2.33,126.78,126.78,0,0,1,9.6-14.39c2.21-2.72,4-5.9,5.93-8.86L36,30.69l4-6,3-4.57c1-1.51,2-3,3-4.56.75-1.2,1.44-2.42,2.11-3.64l1-1.84c.35-.6.74-1.19,1.11-1.77s.63-1,1-1.55a7.18,7.18,0,0,1,1.71-1.83,2.16,2.16,0,0,1,1.5-.3,3.87,3.87,0,0,1,.65.1c.32.12.43.45.44,1a4.74,4.74,0,0,1-.38,2,58,58,0,0,1-3,7.06C51,17,49.7,19.29,48.37,21.55c-2,3.35-4.29,6.56-6.44,9.85Z"/><path class="cls-1" d="M47.45,40.85l-6.64,9.84c-.8,1.2-1.47,2.48-2.29,3.68-2.88,4.19-5.79,8.38-8.76,12.52-1.29,1.85-2.49,3.78-3.65,5.7-.76,1.23-1.46,2.49-2.26,3.71a22.13,22.13,0,0,1-2.92,3.32c-.69.64-1.23.06-1.51-1.08a8.17,8.17,0,0,1-.24-2,6,6,0,0,1,.43-2.37,131,131,0,0,1,9.56-14.74c2.2-2.8,3.92-6.06,5.89-9.09l6.55-10,4-6.17,3-4.69c1-1.55,2-3.11,3-4.69C52.34,23.55,53,22.3,53.66,21l1-1.88c.34-.62.71-1.22,1.08-1.83s.62-1.07,1-1.59a7.24,7.24,0,0,1,1.65-1.9,2.34,2.34,0,0,1,1.47-.38,6.71,6.71,0,0,1,.67,0c.33.09.47.4.51.92a5,5,0,0,1-.34,2,55.41,55.41,0,0,1-2.94,7.28c-1.19,2.36-2.47,4.71-3.79,7-2,3.43-4.24,6.75-6.37,10.12Z"/><path class="cls-1" d="M53.92,43.71,46.68,55c-.87,1.38-1.61,2.83-2.49,4.21-3.12,4.83-6.26,9.66-9.46,14.46-1.4,2.14-2.7,4.36-4,6.55-.82,1.42-1.59,2.86-2.45,4.26a26.18,26.18,0,0,1-3.17,3.87c-.79.76-1.29.14-1.53-1.06A8.63,8.63,0,0,1,24,82.5a173.67,173.67,0,0,1,10.37-17c2.37-3.25,4.26-7,6.4-10.46L47.9,43.57c1.48-2.35,3-4.71,4.42-7.06l3.35-5.35c1.13-1.78,2.26-3.55,3.34-5.34.85-1.39,1.62-2.8,2.4-4.21a40.79,40.79,0,0,1,2.47-4.17c.39-.6.76-1.2,1.2-1.78a14.41,14.41,0,0,1,1.1-1.32,4.55,4.55,0,0,1,.93-.79,3,3,0,0,1,.85-.33,2.21,2.21,0,0,1,.81,0,3,3,0,0,1,.67.15c.3.15.35.52.29,1a6.68,6.68,0,0,1-.19.93,8.08,8.08,0,0,1-.45,1.17c-1.21,2.53-2.21,5.34-3.67,7.9s-2.85,5.24-4.33,7.87c-2.25,3.88-4.72,7.66-7.06,11.51Z"/><path class="cls-1" d="M63.34,49.68l-7,10.63c-.84,1.29-1.55,2.67-2.4,4q-4.53,6.8-9.19,13.54c-1.36,2-2.62,4.08-3.85,6.14-.8,1.32-1.54,2.68-2.38,4a24.7,24.7,0,0,1-3.07,3.6c-.73.7-1.26.11-1.52-1.07a9,9,0,0,1-.19-2.12,6.51,6.51,0,0,1,.5-2.49A155.33,155.33,0,0,1,44.32,70c2.3-3,4.13-6.53,6.2-9.81l6.89-10.78,4.22-6.64,3.18-5.06C65.87,36,67,34.32,68,32.62c.78-1.32,1.5-2.66,2.2-4l1.06-2c.37-.66.77-1.3,1.17-1.95s.65-1.15,1.05-1.71a8.52,8.52,0,0,1,1.79-2.05,2.23,2.23,0,0,1,1.56-.41,3.26,3.26,0,0,1,.66.07c.32.11.43.45.43,1a5.68,5.68,0,0,1-.43,2.09,70.84,70.84,0,0,1-3.23,7.71c-1.27,2.51-2.64,5-4,7.52-2.12,3.69-4.48,7.26-6.72,10.9Z"/><path class="cls-1" d="M70.64,53.87l-6,9.14c-.72,1.12-1.31,2.31-2,3.42q-3.9,5.86-7.93,11.64c-1.19,1.72-2.25,3.52-3.31,5.3-.69,1.14-1.3,2.32-2,3.45a18.2,18.2,0,0,1-2.72,3.07c-.65.58-1.19,0-1.51-1.09a7.69,7.69,0,0,1-.32-1.92,5.28,5.28,0,0,1,.32-2.21A116,116,0,0,1,53.7,71c2-2.59,3.53-5.63,5.3-8.45l5.9-9.29,3.61-5.73,2.72-4.36c.91-1.45,1.83-2.89,2.68-4.36.66-1.14,1.26-2.3,1.85-3.47l.88-1.76c.31-.57.65-1.13,1-1.69s.56-1,.91-1.48a6.39,6.39,0,0,1,1.59-1.75,2.1,2.1,0,0,1,1.47-.27,3.71,3.71,0,0,1,.63.12c.31.12.43.44.47.93a4.35,4.35,0,0,1-.27,1.85A53.49,53.49,0,0,1,79.85,38c-1.06,2.18-2.2,4.36-3.37,6.52-1.79,3.19-3.82,6.26-5.73,9.4Z"/></g></svg>