<svg xmlns="http://www.w3.org/2000/svg" width="96" height="96" viewBox="0 0 96 96"><defs><style>.cls-1{fill:#231f20;}</style></defs><title>scribble final version</title><g id="Layer_1" data-name="Layer 1"><path class="cls-1" d="M37.9,83.64c-1.76,0-3.53-.08-5.31-.16l-5.37-.23c-1.32-.07-2.66,0-4-.19a29.07,29.07,0,0,1-3.61-.87,13.19,13.19,0,0,1-3.76-1.84,6.76,6.76,0,0,1-.92-.81l-.43-.49a4,4,0,0,1-.29-.41,14.1,14.1,0,0,1-1-1.67,15.88,15.88,0,0,1-1.32-3.59A27.17,27.17,0,0,1,11.22,67a22.4,22.4,0,0,1,1.13-7.79c.29-.77,1.05-.5,1.76.3a5.73,5.73,0,0,1,1,1.53,4.26,4.26,0,0,1,.45,2,37.44,37.44,0,0,0,.53,7,27.22,27.22,0,0,0,.74,3.08,13,13,0,0,0,1.29,2.8c.18.51,1.35,1.15,2.69,1.41s2.86.38,4.36.62,3.36.39,5.08.47,3.46.08,5.21.09c2.15,0,4.31,0,6.47,0,3.27-.08,6.58-.07,9.85-.21,2.56-.11,5.07-.49,7.69-.57a12.61,12.61,0,0,1,1.74,0c2.18.2,2.86.78,3,2.26a5.62,5.62,0,0,1,.08,1c-.08,1.11-1,1.79-2.43,2-4.19.54-8.72.63-13.39.76-3.46.09-7,.1-10.53.15Z"/><path class="cls-1" d="M15.11,69.15c-.08,2.12-.11,4.25,0,6.29,0,1,.11,2,.23,2.92,0,.23.06.45.1.66s0,.22,0,.28v.07a1.47,1.47,0,0,0,.06.27c.05.22.26.25.45.31L16,80l.34,0,.72.07c.49,0,.95.13,1.48.14,2.05.09,4.18.07,6.35,0,3.16-.14,6.34-.58,9.56-.84,5.66-.45,11.37-1,17.14-1.33L56,77.8l4.37-.12c1.47,0,2.92,0,4.41.06l2.23.12c.37,0,.75.1,1.12.15l.27,0,.13,0,.26.06c0-.11,0,0,0,0,.28,0,.64.2.87,0a1.94,1.94,0,0,0,.45-.79c0-.14.09-.29.13-.44l.15-.61c.12-.56.23-1.15.31-1.74a51,51,0,0,0,.43-7.34A93.75,93.75,0,0,0,69,48.33c-.26-.92-.32-1.36-.11-1.45s.69.2,1.37.87a18.24,18.24,0,0,1,2.4,3.07,17.42,17.42,0,0,1,1.88,5,76.29,76.29,0,0,1,1.65,13.49,45.81,45.81,0,0,1-.27,7.06c0,.3-.09.62-.14.94a3.74,3.74,0,0,0-.08.54l-.19.78c-.07.26-.12.53-.19.78l-.27.75a6.87,6.87,0,0,1-.67,1.39,4.78,4.78,0,0,1-5,2.39l-1.56,0-.75-.06-1.56-.08-1.58-.1-1.62,0c-1.08,0-2.17,0-3.28,0s-2.2,0-3.32,0c-7.86.17-16,1.65-24.23,2.43a98.55,98.55,0,0,1-13.86.58l-1.83-.14-.46,0-.64-.15L13.41,86l-1.28-.31A3.12,3.12,0,0,1,11.06,85a6.53,6.53,0,0,1-1.43-2.15,13.07,13.07,0,0,1-.45-1.24c-.06-.22-.12-.43-.17-.64l-.11-.5c-.14-.64-.24-1.25-.32-1.86-.16-1.22-.26-2.4-.31-3.58a111.8,111.8,0,0,1,.85-16.93,98.27,98.27,0,0,1,2.24-12.66c.28-1,.59-2.11,1-3.2.54-1.38,1.14-2.87,2.57-3.44A10.75,10.75,0,0,1,17,38.11c.6-.14,1.12-.24,1.67-.34,1.09-.18,2.16-.33,3.22-.44a157.94,157.94,0,0,1,19.53-1.24c1.44,0,2.87,0,4.34.14.68.06,1.3.13,1.88.22s1.07.26,1.54.4a11.39,11.39,0,0,1,2.26.9A4.12,4.12,0,0,1,53.55,40,5,5,0,0,1,54,41.16c.07.6-.49,1-1.47,1.15a24.79,24.79,0,0,1-4.28.38c-1.37.09-2.73,0-4.12,0s-2.78,0-4.19,0c-2.81,0-5.67.12-8.53.27-1.43.08-2.87.16-4.3.28l-2.13.19-2.11.32a37.26,37.26,0,0,0-3.91.81l-.2.06c-.07,0,0,0,0,0h0s0,0,0,0l0,.08-.05.15-.2.64c-.14.45-.27.91-.39,1.4-.25,1-.47,2-.68,3-.4,2.07-.74,4.2-1,6.34a122.57,122.57,0,0,0-1,13Z"/><path class="cls-1" d="M48.1,43.52c.34-.38.7-.75,1-1.14,0-.06.06-.07.07-.07h0l.06,0,.13-.08c.14-.07.34-.17.38-.34a.7.7,0,0,0-.09-.48.59.59,0,0,0-.26-.23L49.31,41l-.24-.19a6.27,6.27,0,0,1-.48-.42,48.35,48.35,0,0,0-7.91-5.94,19.05,19.05,0,0,0-2-1.07l-1-.46-1-.53a28.88,28.88,0,0,1-5-2.89c-.49-.39-.19-1,.57-1.52a5,5,0,0,1,3.19-1c1,.16,2.05.33,3.06.54a15.09,15.09,0,0,1,1.51.36c.47.2.93.4,1.39.62a30.51,30.51,0,0,1,5.32,3.13c2,1.52,4.43,2.42,6.63,4.14l.46.39.47.46a8.93,8.93,0,0,1,.91.94,8.25,8.25,0,0,1,1.33,2.1l.21.56.12.59c0,.2,0,.4.06.61s0,.4-.07.59a5.15,5.15,0,0,1-.16.56l-.27.54a7.74,7.74,0,0,1-.57,1.05c-.53.67-1.06,1.36-1.59,2-1.16,1.31-2.39,2.53-3.62,3.73-1.89,1.81-3.94,3.42-5.9,5.07-1.54,1.27-2.87,2.79-4.47,4-.36.26-.69.55-1.07.78-.18.1-.34.2-.5.27a2.34,2.34,0,0,1-.48.11A2.14,2.14,0,0,1,36,59.31c-.2-.22-.42-.41-.59-.63-.54-.72-.38-1.76.25-2.85a21.42,21.42,0,0,1,3.4-3.78l3.67-3.36A63.17,63.17,0,0,0,48,43.42Z"/><path class="cls-1" d="M60.67,24.29c.09.31-.41.25-1.23,0a4.25,4.25,0,0,1-1-.63A4.86,4.86,0,0,1,58,23c0-.11.09-1.38.07-1.84A3,3,0,0,1,58.35,20c.28-.75.52-1.53.81-2.31a1.07,1.07,0,0,1,.32-.45,3.6,3.6,0,0,0,1-1.64c0-.1.12-.18,0-.35s.74-1.84,1-2c.6-.32,1.07-.71,1.7-1,.08,0,.09-.14.3-.09.49.13.54,0,.68-.16a2.51,2.51,0,0,1,.7-.4,2.29,2.29,0,0,1,.62,0,1.76,1.76,0,0,1,.67.51c.09.2.37.3.57.45a1.92,1.92,0,0,1,.21.16,4.08,4.08,0,0,1,.2,1,6,6,0,0,1,.14,1s-.1.5-.24,1a9.74,9.74,0,0,0-.33,1.07c0,.11-.16.15-.27.21S66,18.5,66,18.55c-.17.25-.19.58-.73.65-.11,0-.12.07-.15.13a6.2,6.2,0,0,1-1,1.29,4.83,4.83,0,0,0-.45.72s-.1.06-.15.09-.15.07-.18.13a11.44,11.44,0,0,0-1.07,1.74c-.06.15-.83.59-.88.77S60.63,24.17,60.67,24.29Z"/><path class="cls-1" d="M70.32,37.51c-.18.29-.52-.1-.94-.85a3.33,3.33,0,0,1-.33-1.16,5.26,5.26,0,0,1,.23-.73c.06-.12,1.27-1.08,1.66-1.47a4.3,4.3,0,0,1,1.27-.8l1.36-.62c.46-.18.94-.32,1.42-.46a1.46,1.46,0,0,1,.69,0A4.66,4.66,0,0,0,78,31.15c.13,0,.26,0,.36-.24s2.31-.68,2.61-.54l1.07.36,1,.44c.09,0,.2,0,.29.2.2.5.41.43.61.48a2.49,2.49,0,0,1,.84.4,2.23,2.23,0,0,1,.39.59,1.78,1.78,0,0,1,0,.9c-.13.2,0,.51,0,.78a2.44,2.44,0,0,1,0,.28,11,11,0,0,1-1.67,1.54l-.35.11c-.2.06-.47.14-.73.24-.54.15-1.1.29-1.21.35s-.24-.06-.37-.12-1.63.55-1.7.56c-.34,0-.65.22-1.07-.14-.08-.07-.15,0-.21,0a8.48,8.48,0,0,1-1.83.16,5.93,5.93,0,0,0-.93.2c-.06,0-.13,0-.19-.07s-.17-.07-.24,0a12.59,12.59,0,0,0-2.28.36c-.16.06-1.12-.2-1.31-.1S70.4,37.39,70.32,37.51Z"/></g></svg>