<svg xmlns="http://www.w3.org/2000/svg" width="96" height="96" viewBox="0 0 96 96"><defs><style>.cls-1{fill:#231f20;}</style></defs><title>scribble final version</title><g id="Layer_1" data-name="Layer 1"><path class="cls-1" d="M27.61,75.28c-.35-1-.7-1.91-1-2.92a14.82,14.82,0,0,1-.42-1.6c0-.14-.06-.33-.09-.5l0-.58a5,5,0,0,1,.14-1.12A6.25,6.25,0,0,1,27.42,66a14.65,14.65,0,0,1,3.21-2.72c1.11-.74,2.26-1.37,3.4-2s2-1.1,3-1.59a16.88,16.88,0,0,1,4-1.64c.45-.1.57.35.42.94a3.16,3.16,0,0,1-1.24,1.8c-1.23.74-2.41,1.54-3.63,2.24l-3.68,2a9.83,9.83,0,0,0-3.39,3.29,2.9,2.9,0,0,0-.41.89,1.86,1.86,0,0,0,0,.91,23.8,23.8,0,0,0,.8,2.69,35.37,35.37,0,0,0,1.36,3.31,29.66,29.66,0,0,0,2.6,4.73,11.53,11.53,0,0,0,2.82,2.73c.22.14.45.25.64.35.38.2.53.32.6.55a5.4,5.4,0,0,1,.17,1c0,.19.09.38.12.55a.8.8,0,0,1-.35.83,1.08,1.08,0,0,1-.66.29,2.16,2.16,0,0,1-.87,0,8.68,8.68,0,0,1-3.83-2.7,20.48,20.48,0,0,1-2.43-3.52,44.78,44.78,0,0,1-2.61-5.63Z"/><path class="cls-1" d="M59.26,43.16a12.21,12.21,0,0,0,3.16,5.21c.29.27.58.52.88.76s.66.42,1,.65c2,1.62,4.87,2.09,7.77,2a11.61,11.61,0,0,0,3.74-.88,15.33,15.33,0,0,0,2.13-1.11c.65-.42,1.35-.78,2-1.25.4-.26.89.09,1.06.88a2.75,2.75,0,0,1-.06,1.44A2.75,2.75,0,0,1,80,52.3,15.49,15.49,0,0,1,68.38,55a25.18,25.18,0,0,1-3.65-.95,11.61,11.61,0,0,1-1.8-.82c-.51-.33-1-.67-1.52-1a16.49,16.49,0,0,1-5-6.22,13.44,13.44,0,0,1-.83-2.33c-.11-.4-.15-.82-.23-1.22a7.25,7.25,0,0,1-.15-1.23,13.1,13.1,0,0,1,1.57-7.19,13.68,13.68,0,0,1,3.56-4.44c.34-.25.69-.48,1-.7,1.4-.71,2-.56,2.54-.06a3.85,3.85,0,0,1,.35.35.77.77,0,0,1,0,.79,2.68,2.68,0,0,1-.77,1c-.59.41-1,1.09-1.51,1.48-.24.24-.43.52-.66.76a4.48,4.48,0,0,0-.62.76c-.18.28-.36.54-.55.8s-.28.58-.44.86-.15.28-.22.43l-.15.45c-.08.31-.24.59-.29.91a9.89,9.89,0,0,0,.31,5.71Z"/><path class="cls-1" d="M34.79,26.76a18.41,18.41,0,0,0-1.33-2c-.55-.64-1.12-1.28-1.74-1.9-.43-.45-1-.79-1.43-1.24C28.68,20,27,18.45,25.23,16.94a25.7,25.7,0,0,0-2.42-1.88,17,17,0,0,1-3.1-2.42c-.28-.31,0-.7.61-1a3,3,0,0,1,2.18-.19c1.25.53,2.49,1.09,3.68,1.74a12.78,12.78,0,0,1,1.73,1.07c.53.44,1,.89,1.54,1.38,1.17,1.17,2.69,2,4,3a51.48,51.48,0,0,1,4.18,3.83c.41.46.81.9,1.21,1.39l.6.76c.2.25.38.59.57.88a5.88,5.88,0,0,1,.68,1.71c.09.47.16.94.21,1.45a7.83,7.83,0,0,1-.34,3.32,9.7,9.7,0,0,1-1.24,2.57,12.5,12.5,0,0,1-.81,1.07,7.87,7.87,0,0,1-.91.84,8.24,8.24,0,0,1-.82.64c-1.09.59-1.62.29-2.5-1.15-.2-.33-.42-.66-.59-1a3.23,3.23,0,0,1-.22-3,21.34,21.34,0,0,0,1.14-2.19.19.19,0,0,1,0-.08s0,0,0,0,.28.15.14.1l-.19-.07s0,0,0,0,0-.12.09-.21l.11-.31.1-.43.06-.5h0L36.45,28h-.2l-.23,0a3.63,3.63,0,0,0-.45.1l-.42.14c-.1,0-.06,0-.06,0h0c.11.05,0-.13,0-.22a1.2,1.2,0,0,0,0-.36,4.53,4.53,0,0,0-.42-.94Z"/><path class="cls-1" d="M35.63,26.4c-3.18-3-6.57-5.91-10.05-8.62-1.27-1-2.64-1.81-3.93-2.73-.57-.4-1.13-.81-1.71-1.18l-.43-.27-.21-.13-.07-.06L19,13.22a4,4,0,0,0-.65-.38.76.76,0,0,0-.39-.08c-.14,0-.14.17-.19.27s-.15.46-.23.73a1.8,1.8,0,0,0-.1.4c-.06.3-.12.68-.18,1-.23,1.4-.43,2.82-.62,4.25-.32,2.53-.47,5.1-.64,7.65-.11,1.65-.17,3.29-.36,5a19.86,19.86,0,0,1-.48,2.49c-.12.42-.23.83-.37,1.25s-.3.84-.52,1.29c-.67,1.19-1.21.42-1.77-.57a9.21,9.21,0,0,1-1.4-4.38c.16-3.21.29-6.53.51-9.86.12-1.68.26-3.35.46-5.05.09-.84.21-1.69.34-2.55l.24-1.48A16.84,16.84,0,0,1,13,11l.35-1.17.17-.59c.06-.2.19-.28.28-.42.42-.51.64-1.14,1.43-1.38a6.28,6.28,0,0,1,4.41.63c.39.16.78.36,1.17.55l1,.55L23.3,10c.94.53,1.85,1.08,2.73,1.66,3.86,2.55,7.51,5.32,11.08,8.2,1.1.88,2.19,1.79,3.27,2.72l.8.71c.15.12.25.23.42.36l.58.53a13.82,13.82,0,0,1,2.09,2.19c.14.21.26.41.38.62a2.4,2.4,0,0,1,.31.91,2.19,2.19,0,0,1-.05,1A5.85,5.85,0,0,1,44,30.76a12,12,0,0,1-1.38,1.65l-.78.76-.65.56a55.26,55.26,0,0,1-5.14,3.73,57.71,57.71,0,0,1-8.8,5.14c-.7.3-1.38.64-2.13.88a9.63,9.63,0,0,1-1.8.4A3.35,3.35,0,0,1,22,43.72a2.62,2.62,0,0,1-1.58-1.47,6.77,6.77,0,0,1-.49-1C19.63,40.08,20.53,39,22,38c2.33-1.18,4.66-2.54,7-4,1.15-.75,2.34-1.42,3.51-2.15s2.3-1.49,3.37-2.27c.44-.33.87-.67,1.27-1s.19-.14.21-.16h0a.12.12,0,0,0,.09,0,.19.19,0,0,0,0-.1h0l-.1-.1L37.12,28l-.52-.49-1.06-1Z"/><path class="cls-1" d="M67.67,57.4a18.13,18.13,0,0,1-12.8-7.95,15.65,15.65,0,0,1-2.41-5.08,13.93,13.93,0,0,1-.33-5,14.2,14.2,0,0,1,1.35-4.75,14.66,14.66,0,0,1,2.69-4,17.45,17.45,0,0,1,3.57-3,22.25,22.25,0,0,1,7.31-3.18,13.46,13.46,0,0,1,5.27-.27A7.33,7.33,0,0,1,77,26.9c.69.93,0,1.19-1.09,1.26a18.24,18.24,0,0,0-1.89.2,12.61,12.61,0,0,1-1.92.15,9.72,9.72,0,0,0-3.56.56c-1.22.41-2.41,1-3.64,1.55-.61.29-1.2.62-1.77.95a17.6,17.6,0,0,0-1.57,1.1,15.11,15.11,0,0,0-2.69,2.73,7.8,7.8,0,0,0-1.61,4.3,10.29,10.29,0,0,0,.79,4.59,13.28,13.28,0,0,0,1.26,2.38,11.79,11.79,0,0,0,1.75,2,12.74,12.74,0,0,0,4.75,2.78,14.1,14.1,0,0,0,3.42.67,14.44,14.44,0,0,0,3.53-.23,11.05,11.05,0,0,0,4.74-2,9.25,9.25,0,0,0,3-4.11A11.26,11.26,0,0,0,80.29,38c-.21-.51-.43-1-.65-1.45A6,6,0,0,1,79,34.68a4.6,4.6,0,0,1,.42-1.74c.13-.32.2-.68.33-1a1.27,1.27,0,0,1,1.4-.76,3.87,3.87,0,0,1,2.56,1.38,11.65,11.65,0,0,1,1.59,2.19,10.11,10.11,0,0,1,1,2.44A15.51,15.51,0,0,1,87,42.47a15.94,15.94,0,0,1-4.2,10.18A15.22,15.22,0,0,1,75.53,57a18.84,18.84,0,0,1-3.94.65,20.72,20.72,0,0,1-3.93-.07Z"/><path class="cls-1" d="M25,76.81c-.82-1.47-1.59-3-2.32-4.51l-.31-.67c-.15-.34-.31-.68-.45-1s-.26-.7-.38-1-.39-.69-.41-1a3,3,0,0,1,0-2,3.25,3.25,0,0,1,.49-.83,9.69,9.69,0,0,1,.72-.71c.41-.27.8-.56,1.23-.81l.63-.38.52-.3,1.53-.81c1.47-.75,2.86-1.58,4.33-2.24,2.61-1.16,5.25-2.23,8-3.19,1.36-.48,2.71-1,4.18-1.32l.56-.13a7.52,7.52,0,0,1,.77-.15,6.56,6.56,0,0,1,1.58-.15,3.08,3.08,0,0,1,.75.07,2.11,2.11,0,0,1,.73.25,3.81,3.81,0,0,1,1.14,1l.41.57.35.61.32.63.26.58c.27.61.51,1.22.74,1.82.46,1.2.89,2.38,1.31,3.54a71.56,71.56,0,0,1,2.91,8.74.75.75,0,0,1-.32.89,1.82,1.82,0,0,1-1.47.16,6,6,0,0,1-2.16-1,6.36,6.36,0,0,1-1-.93,5.1,5.1,0,0,1-.7-1.2c-1.24-3.07-2.25-6.15-3.34-8.93l-.41-1-.06-.11v0a0,0,0,0,0,0,0V61.1c0-.07,0-.22-.09-.27a.52.52,0,0,0-.15-.07l-.11,0-.51.13L42,61.4c-3.63,1-7.19,2.89-10.68,4.58-.91.45-1.82.9-2.71,1.37l-1.32.7-.58.31-.3.17c-.12.06-.08.21-.07.3a5.39,5.39,0,0,0,.18.66l.13.34.31.73c.22.5.45,1,.69,1.52.56,1.18,1.16,2.36,1.79,3.52S30.8,77.88,31.51,79a44.54,44.54,0,0,0,2.78,3.85,14.74,14.74,0,0,0,1.35,1.44c.32.3.8.63,1.25.35.11,0,.21-.08.32-.11l.16-.07.26-.12,1.06-.48c2.81-1.35,5.47-3,8.39-4.38.63-.31,1.27-.63,2-.9,2.55-1,3.73-.7,4.47.6A3.85,3.85,0,0,1,54,80a1.6,1.6,0,0,1-.33,1.45,4,4,0,0,1-.65.67,5.41,5.41,0,0,1-1,.6c-2,1-4.2,2.18-6.45,3.3-1.12.57-2.26,1.16-3.46,1.69l-1.83.81-1,.4c-.06,0-.26.06-.4.12l-.46.17-.92.33A4.68,4.68,0,0,1,34,89a7.33,7.33,0,0,1-1.31-.94c-.2-.19-.41-.36-.6-.56a4.63,4.63,0,0,1-.4-.42c-.46-.49-.86-1-1.24-1.45-.75-1-1.41-1.94-2-2.91s-1.21-2-1.78-2.94l-.84-1.48-.87-1.46Z"/></g></svg>