<svg xmlns="http://www.w3.org/2000/svg" width="96" height="96" viewBox="0 0 96 96"><defs><style>.cls-1{fill:#231f20;}</style></defs><title>scribble final version</title><g id="Layer_1" data-name="Layer 1"><path class="cls-1" d="M79.83,54.63A6.11,6.11,0,0,1,78,52.1a3.21,3.21,0,0,1-.3-1.19,4,4,0,0,1,1.83-3.11c.37-.24.67-.47,1-.69a2.4,2.4,0,0,1,1.18-.61c.15,0,.41.32.59.75s.3,1,.14,1.18a6.68,6.68,0,0,1-1.24,1.46c-.24.11,0,.38.07.45a1,1,0,0,0,.32.66,2.73,2.73,0,0,0,1.87.81A1.38,1.38,0,0,0,84,51.6c.15-.07.27-.18.38-.23s.08-.1.13-.1a4.11,4.11,0,0,1,.8,1.16l.29.46a1.71,1.71,0,0,1,.16,1.63,2,2,0,0,1-.71.92,4.66,4.66,0,0,1-.89.55,3.73,3.73,0,0,1-1.85,0,7.29,7.29,0,0,1-2.48-1.23Z"/><path class="cls-1" d="M10.75,30.84a9.74,9.74,0,0,1-.33-1.76c0-.3,0-.6,0-.9a3.28,3.28,0,0,1,.08-.88A5.45,5.45,0,0,1,10.72,26a7,7,0,0,1,2.71-3.34c.26-.17.48-.37.74-.53l.79-.4a4.61,4.61,0,0,1,2.1-.62c.24,0,.29.32.24.73A2,2,0,0,1,16.82,23l-.39.27-.33.32c-.21.22-.44.39-.64.59a5.6,5.6,0,0,1-.66.48c-.22.16-.4.35-.64.52a2.05,2.05,0,0,0-.55.81c-.1.33-.17.65-.27,1a5.25,5.25,0,0,0,0,2.27,3.07,3.07,0,0,0,.2.7l.12.35.18.32a4.37,4.37,0,0,0,1.46,1.7,3.41,3.41,0,0,0,.81.29,7,7,0,0,1,.82.15,2,2,0,0,0,.35,0c.43.08.56.29.66.89,0,.14.06.28.08.42a.88.88,0,0,1-.69,1,3.7,3.7,0,0,1-1.19.23,2.73,2.73,0,0,1-1.24-.13,8.45,8.45,0,0,1-1.16-.5c-.34-.23-.69-.48-1-.74a7.29,7.29,0,0,1-2-3.1Z"/><path class="cls-1" d="M21,34.16a10.61,10.61,0,0,1-8.69,1.24,8.19,8.19,0,0,1-3-1.43,7.42,7.42,0,0,1-2.8-5.12,7.92,7.92,0,0,1,1.41-5.29A7,7,0,0,1,11.73,21a8,8,0,0,1,5.32.28c.5.22.33.49-.16.77a10.73,10.73,0,0,1-2.09.89,5,5,0,0,0-3.11,1.95c-.23.44-.51.73-.71,1.18a4.68,4.68,0,0,0-.43,1.47,2.44,2.44,0,0,0,.07,1,2.73,2.73,0,0,0,.35.9,4.06,4.06,0,0,0,1.44,1.31,5.89,5.89,0,0,0,4.92.31,4.94,4.94,0,0,0,2.47-1.92A3.9,3.9,0,0,0,20.46,27a2.83,2.83,0,0,0-1-1.92,7.91,7.91,0,0,0-3.66-1.48l-.88-.09a2.21,2.21,0,0,1-1.14-.38,3.52,3.52,0,0,1-.63-1c-.08-.19-.19-.36-.25-.52a.86.86,0,0,1,.19-.87,2.91,2.91,0,0,1,.49-.54,1.64,1.64,0,0,1,.76-.33,10.13,10.13,0,0,1,5.54.27,7,7,0,0,1,2.71,1.63,8,8,0,0,1,2.06,3.1,7.09,7.09,0,0,1,.37,3,7.6,7.6,0,0,1-.72,2.63,9.25,9.25,0,0,1-3.22,3.81Z"/><path class="cls-1" d="M42.82,48.67a11.16,11.16,0,0,1-8.3-2.8,6.79,6.79,0,0,1-2.05-3,7.72,7.72,0,0,1,.66-5.67,11.13,11.13,0,0,1,1.42-2.09,10.49,10.49,0,0,1,1.85-1.56,10.89,10.89,0,0,1,3.84-1.75,5.3,5.3,0,0,1,5,1.46c.37.4.07.63-.51.84s-1.44.53-2,.67l-.41.09L41.9,35a2.21,2.21,0,0,0-.34.18,1.43,1.43,0,0,0-.34.14,6.16,6.16,0,0,0-1.24.79,30,30,0,0,0-2.21,2.28A2.51,2.51,0,0,0,37.13,40a2.58,2.58,0,0,0,.37,1.27,3,3,0,0,0,1.26,1.16,6.31,6.31,0,0,0,2.18.73,2.94,2.94,0,0,0,2.22-.42,2.17,2.17,0,0,0,.77-1.42,3.89,3.89,0,0,0-.23-2.14A3.8,3.8,0,0,0,41.45,37a.5.5,0,0,0-.28,0s0,0,0-.12a.12.12,0,0,0,0-.07v0a.56.56,0,0,0,0-.18,2.68,2.68,0,0,0-.23-.65c-.12-.26-.27-.57-.43-.86a6.73,6.73,0,0,0-.47-.71,1.7,1.7,0,0,1-.18-1.39,1.78,1.78,0,0,1,1.67-1.44,5.78,5.78,0,0,1,3.9.89,8.66,8.66,0,0,1,2.32,2.27,10.49,10.49,0,0,1,1.36,2.64,11.39,11.39,0,0,1,.4,1.53,9.11,9.11,0,0,1-1.57,7,7.36,7.36,0,0,1-2.42,2,8.41,8.41,0,0,1-2.67.84Z"/><path class="cls-1" d="M34.79,68.54a6,6,0,0,1-2.19,2.7,5,5,0,0,1-.73.43l-.37.17-.34.11a8.32,8.32,0,0,1-1.37.35l-1.13.16a6.65,6.65,0,0,1-1.26-.13,4.81,4.81,0,0,1-2-1.18,2.69,2.69,0,0,1-.63-.85,3.53,3.53,0,0,1-.38-.91,6.14,6.14,0,0,1,0-3.32,7.37,7.37,0,0,1,1.07-2.49,3.57,3.57,0,0,1,2.83-1.82c.36,0,.4.49.35,1.1a5.27,5.27,0,0,1-.26,1.54,4.91,4.91,0,0,0-.67,3.11.94.94,0,0,0,.11.39l.11.09s0,.08.08.08a.18.18,0,0,1,.07.05s.07,0,.09,0,.14,0,.21,0,.28,0,.43,0,.39-.13.6-.17a1.52,1.52,0,0,0,.77-.48,2,2,0,0,0,.44-1.3A2.64,2.64,0,0,0,29.77,64a.36.36,0,0,0-.5,0c-.08.13-.05.31-.11.43a.75.75,0,0,1-.12.21.64.64,0,0,1-.22.1,1.38,1.38,0,0,1-.39-.12,10.62,10.62,0,0,1-1.19-.65l-.59-.35a2,2,0,0,1-.71-.81,1.8,1.8,0,0,1-.24-1.37,4.18,4.18,0,0,1,1.42-1.79,4.67,4.67,0,0,1,3-.65A5.35,5.35,0,0,1,32.9,60.3a6.63,6.63,0,0,1,1.56,1.91,7.6,7.6,0,0,1,.89,3.09,7.69,7.69,0,0,1-.45,3.27Z"/><path class="cls-1" d="M63.15,59.48a5.62,5.62,0,0,1-1.5.44l-.77.09-.78-.1a4.2,4.2,0,0,1-1.48-.47l-.35-.15L58,59.06a7,7,0,0,1-.6-.48A4.82,4.82,0,0,1,56,56.81,4.49,4.49,0,0,1,55.69,55a7.08,7.08,0,0,1,.19-1.46A9.12,9.12,0,0,1,56.83,51a9.42,9.42,0,0,1,1.34-1.95,2.87,2.87,0,0,1,1.48-.92,2.08,2.08,0,0,1,1.81.43c.28.26-.06.59-.44,1a2.39,2.39,0,0,0-.49.63,1.06,1.06,0,0,0-.12.51c0,.15,0,.2-.16.36a5.32,5.32,0,0,0-.41.61,15.05,15.05,0,0,0-.79,1.7A1.76,1.76,0,0,0,59,54.44a2.91,2.91,0,0,0,.16.54,1.31,1.31,0,0,0,1.14.77,1.42,1.42,0,0,0,1-.38,1.47,1.47,0,0,0,.44-1.64c-.24-.45-.93-.49-1.31-.41a2.3,2.3,0,0,1-.25.08c-.32,0-.33-.29-.33-1.5l0-.84c0-.94.39-1.65,1.24-1.78a4.46,4.46,0,0,1,2,.17,2.87,2.87,0,0,1,1,.41,3.78,3.78,0,0,1,.87.61,4.85,4.85,0,0,1,1.62,3.86,2.69,2.69,0,0,1-.08.8,7.1,7.1,0,0,1-.17.8,6.76,6.76,0,0,1-.7,1.46,6.33,6.33,0,0,1-2.33,2.18Z"/><path class="cls-1" d="M63.56,19.29a.82.82,0,0,0,.86.58c.16,0,.13-.25.26-.3.48-.22.49-1-.16-1.62a.75.75,0,0,0-.24-.19,2.17,2.17,0,0,0-.42-.27,3.53,3.53,0,0,0-.93-.35,2.57,2.57,0,0,0-1,0,.78.78,0,0,1-.23,0,1,1,0,0,1-.21.1c-.18,0-.32.18-.52.28s-.76-.1-1.08-.7a2.07,2.07,0,0,1-.21-1.18,1.93,1.93,0,0,1,.83-1.26c.22-.12.45-.25.68-.36a5.6,5.6,0,0,1,.7-.2,4.52,4.52,0,0,1,1.4-.13,6.38,6.38,0,0,1,1.26.22,10.79,10.79,0,0,1,1.12.43l.54.3.36.22c.12.07.29.09.38.2.4.38.8.73,1.18,1.12a8.77,8.77,0,0,1,1,1.17,8.54,8.54,0,0,1,.51,1.26A13.41,13.41,0,0,1,70,20.12a6.23,6.23,0,0,1,.11,1.42,4.79,4.79,0,0,1-1,2.66,6.75,6.75,0,0,1-5.48,2.45,7.16,7.16,0,0,1-3.53-.94,5.48,5.48,0,0,1-2.79-4.38,9,9,0,0,1,0-2A6.33,6.33,0,0,1,58,17.14a5.52,5.52,0,0,1,.55-1,2.86,2.86,0,0,1,1.38-.92,1.74,1.74,0,0,1,1.33.55,7,7,0,0,1,.63.58,3.29,3.29,0,0,1,.67,1.09,4.77,4.77,0,0,1,.33.73c.14.46.4.58.56.61a.36.36,0,0,0,.24,0,.3.3,0,0,0-.06.32Z"/><path class="cls-1" d="M88.35,54.3a7.14,7.14,0,0,1-3,1.59,7.48,7.48,0,0,1-3.15.09,8.35,8.35,0,0,1-2.06-.55,9.64,9.64,0,0,1-1.51-1,6.13,6.13,0,0,1-1.37-1.37,4.48,4.48,0,0,1-.6-3.92,7.63,7.63,0,0,1,1.37-2.66,5,5,0,0,1,1.43-1.3,2.75,2.75,0,0,1,2-.35c.45.12.24.56,0,1s-.41,1.07-.62,1.31a4.71,4.71,0,0,0-1,1.89,4.31,4.31,0,0,0-.15.9,2.67,2.67,0,0,0,.05.58,1.63,1.63,0,0,0,.77.8,7.85,7.85,0,0,0,.71.34l.69.25a3.56,3.56,0,0,0,2.89-.16,3.06,3.06,0,0,0,.73-.58,2.41,2.41,0,0,0,.47-.6,1.47,1.47,0,0,0,.2-1.09,1.24,1.24,0,0,0-.77-.82,1.71,1.71,0,0,0-.46-.1,3.19,3.19,0,0,0-.62,0c-.41,0-.81.17-1.18.22-.17,0-.32.11-.48.13a.83.83,0,0,1-.7-.22,4.2,4.2,0,0,1-.68-.88l-.39-.57a1.44,1.44,0,0,1-.23-1,1.77,1.77,0,0,1,.65-1,3.45,3.45,0,0,1,.88-.56,6.66,6.66,0,0,1,1-.39,5.35,5.35,0,0,1,2.08-.15,7,7,0,0,1,1.09.2,12.13,12.13,0,0,1,1.3.56,5.89,5.89,0,0,1,1.19.83,4.93,4.93,0,0,1,.52.5l.43.57a4.8,4.8,0,0,1,.66,4.08,2.83,2.83,0,0,1-.13.52l-.23.5a8.09,8.09,0,0,1-.48,1c-.2.27-.42.62-.61.83s-.37.43-.59.63Z"/><path class="cls-1" d="M69.78,79.69a5.66,5.66,0,0,1-1.32-2.63,6.23,6.23,0,0,1-.18-1c0-.31.08-.61.14-.9a4,4,0,0,1,.35-.79A6.92,6.92,0,0,1,69.64,73a11.39,11.39,0,0,0,.77-1,2.91,2.91,0,0,1,1.14-1c.16-.06.42.25.63.64s.42.87.31,1.1a14.54,14.54,0,0,1-1.08,2,1.67,1.67,0,0,0-.08,1,2.27,2.27,0,0,0,.38,1.1,2.93,2.93,0,0,0,1.86,1.11,1.2,1.2,0,0,0,.8-.42s.06-.09.11-.1,0,0,.09,0a1,1,0,0,1,.2.15l.6.53.35.3a1.25,1.25,0,0,1,.41,1.37,2.87,2.87,0,0,1-1.75,1.37,4.28,4.28,0,0,1-2.1.06,5.38,5.38,0,0,1-2.55-1.54Z"/><path class="cls-1" d="M80,76.31A6.85,6.85,0,0,1,77.8,80a8.75,8.75,0,0,1-3.25,1.77,8.87,8.87,0,0,1-2.49.49,6.65,6.65,0,0,1-1.16-.1,5,5,0,0,1-1.17-.27,5.41,5.41,0,0,1-2.13-1.25,5.89,5.89,0,0,1-1.71-4.11,7.55,7.55,0,0,1,.7-3.52,5,5,0,0,1,1.56-1.77l.52-.31c.19-.07.38-.12.57-.17a2.83,2.83,0,0,1,1.15-.1c.48,0,.38.44.12.94-.12.26-.28.51-.41.78a4.8,4.8,0,0,1-.36.72c-.06.08-.11.16-.17.23s-.08.19-.12.28a2.83,2.83,0,0,0-.18.56c0,.18-.07.4-.13.58s0,.4,0,.61a4.8,4.8,0,0,0,.51,2.12c0,.08.12.14.18.22a.46.46,0,0,0,.23.16,2.26,2.26,0,0,0,.26.16l.32.07A4.76,4.76,0,0,0,72.17,78a4.16,4.16,0,0,0,2.92-1.79,2.11,2.11,0,0,0,.27-.87,2.69,2.69,0,0,0-.06-.91,1.73,1.73,0,0,0-.65-1.15,1.55,1.55,0,0,0-1.34-.16,4,4,0,0,0-1.27.73A13.84,13.84,0,0,0,70.85,75c-.17.17-.3.38-.48.54-.8.4-1.27.28-2.21-.39-.21-.16-.43-.29-.63-.45A2,2,0,0,1,67,72.35a3.42,3.42,0,0,1,.47-1,10.26,10.26,0,0,1,.69-.79,9.43,9.43,0,0,1,1.71-1.39,8.22,8.22,0,0,1,2.43-1l.86-.19c.29,0,.58,0,.88,0a6.27,6.27,0,0,1,1.72.24c3.51.82,5.06,5.33,4.37,8.15Z"/></g></svg>