<svg xmlns="http://www.w3.org/2000/svg" width="96" height="96" viewBox="0 0 96 96"><defs><style>.cls-1{fill:#231f20;}</style></defs><title>scribble final version</title><g id="Layer_1" data-name="Layer 1"><path class="cls-1" d="M19.69,59.65c-.8-.27-1.13-1-1.33-1.92-.06-.31.29-.92.56-.91.51,0,1.06.09,1.56.18.31.07,4.61,1.89,6.09,2.45a39,39,0,0,1,4.14,1.92l8,4.55a11.38,11.38,0,0,1,1.67,1.17,32,32,0,0,0,5.83,3.83,2.59,2.59,0,0,0,1.1.43c.71,0,6,3.42,6.63,4,1.47,1.44,3,2.74,4.57,4.11.22.19.53.28.6.66.18.86.75,1.12,1.25,1.51a22.91,22.91,0,0,1,2,1.73A5.31,5.31,0,0,1,63,84.63c.2.41-.42,1-.59,1-.47,0-.41.53-.56.85a1.23,1.23,0,0,1-.19.32,36.91,36.91,0,0,1-5.78-1.37s-.47-.22-1.1-.58L52.5,83.59c-1.72-1-3.51-1.94-3.89-2.12a4,4,0,0,1-1-.85c-.15-.16-5.34-2.91-5.49-3.1a10.18,10.18,0,0,1-2.77-2.4,1.68,1.68,0,0,0-.56-.47c-1.75-1.14-3.34-2.5-5-3.79C33,70.2,32.06,69.64,31.2,69a3.33,3.33,0,0,1-.42-.42,4.12,4.12,0,0,0-.54-.49c-2.11-1.37-4-3.06-6.13-4.41-.48-.32-2.49-2.29-3.07-2.61C20.73,60.9,20,59.75,19.69,59.65Z"/><path class="cls-1" d="M14.39,34.63a2.94,2.94,0,0,1-1.69-2.37c-.07-.35.36-1,.68-.91.61.13,1.22.25,1.82.42.35.12,5.55,2.66,7.36,3.44a56.48,56.48,0,0,1,5.09,2.58c3.32,2,6.61,4,9.91,5.93a18.94,18.94,0,0,1,2.1,1.48A53.11,53.11,0,0,0,47,50.06a3.88,3.88,0,0,0,1.34.61c.84.13,7.63,4.28,8.42,5,1.95,1.7,3.95,3.32,5.93,5,.29.23.66.37.8.77.33.92,1,1.26,1.69,1.73a26.68,26.68,0,0,1,2.58,2.08,6.25,6.25,0,0,1,1,1.47c.27.46-.43,1.08-.63,1.06-.56,0-.45.55-.62.88a1,1,0,0,1-.2.34,45.49,45.49,0,0,1-6.87-2.34l-9-5.18a6.07,6.07,0,0,1-1.28-1.05c-.2-.17-6.57-3.87-6.81-4a16.88,16.88,0,0,1-3.61-2.83,2.63,2.63,0,0,0-.73-.56c-2.22-1.39-4.3-3-6.42-4.55-1.08-.8-2.23-1.49-3.34-2.24a6.09,6.09,0,0,1-.55-.48,6.73,6.73,0,0,0-.71-.59c-2.69-1.68-5.13-3.76-7.81-5.44-.61-.4-3.22-2.79-3.95-3.22C15.74,36.15,14.79,34.78,14.39,34.63Z"/><path class="cls-1" d="M21.12,13.55a2.73,2.73,0,0,1-1.22-1.2,4.34,4.34,0,0,1-.52-1.77c0-.4.61-1,.94-.9l1,.19,1.06.22c.11,0,.54.21,1.21.48s1.48.73,2.36,1.17c1.78.87,3.77,1.84,4.8,2.3,2,.91,3.88,2,5.76,3l11.34,6.79a21.14,21.14,0,0,1,2.4,1.69,60.18,60.18,0,0,0,8.42,5.53,4.67,4.67,0,0,0,1.54.69c1,.13,8.68,5,9.59,5.74,2.25,1.92,4.57,3.74,6.86,5.62.33.26.75.43.93.86a4.58,4.58,0,0,0,2,1.93,33.46,33.46,0,0,1,3,2.33,8,8,0,0,1,1.17,1.6c.34.51-.4,1.13-.62,1.11-.63-.06-.47.56-.63.91a1,1,0,0,1-.2.34,60.38,60.38,0,0,1-7.85-2.67L63.89,43.81a7.57,7.57,0,0,1-1.5-1.15c-.24-.19-7.68-4.23-7.93-4.46-1.43-1-3-1.77-4.19-3.19a3.26,3.26,0,0,0-.85-.62c-2.57-1.57-5-3.38-7.43-5.14-1.25-.9-2.58-1.67-3.86-2.52a6.64,6.64,0,0,1-.64-.55,7.49,7.49,0,0,0-.82-.67c-3.09-1.92-5.93-4.24-9-6.13-.71-.45-3.71-3.2-4.55-3.7C22.62,15.38,21.55,13.78,21.12,13.55Z"/></g></svg>