<svg xmlns="http://www.w3.org/2000/svg" width="96" height="96" viewBox="0 0 96 96"><defs><style>.cls-1{fill:#231f20;}</style></defs><title>scribble final version</title><g id="Layer_1" data-name="Layer 1"><path class="cls-1" d="M54.06,63.21c-2.22,2.56-4.43,5.13-6.72,7.66l-1.7,1.9-.88.94-1.29,1.42c-2,2.27-4,4.09-6,6-.44.3-.93.69-1.33.91l-1,.21c-.55.12-1.1.26-1.65.4a.89.89,0,0,1-.44,0,1.89,1.89,0,0,1-.51-.28,3.77,3.77,0,0,1-.59-.62,6.69,6.69,0,0,1-1.25-4,42.78,42.78,0,0,1,.43-6l.42-3.11.05-.38,0-.23.08-.46.15-.91c.4-2.42.8-4.83,1.24-7.22s.89-4.78,1.28-7.16c.19-1.18.37-2.37.53-3.54l.16-1.33a6.11,6.11,0,0,0,0-.86c0-.25,0-.58-.3-.66a2.07,2.07,0,0,0-.75-.12,7,7,0,0,0-.79,0l-1.34.09c-2.14.18-4.35.38-6.57.45a39.05,39.05,0,0,1-8.67-.52,21.92,21.92,0,0,1-8.13-3.39c-1.5-1.1-.68-1.77,1-2a30.23,30.23,0,0,1,7.18,0,38.48,38.48,0,0,0,7.63.43c2.64-.08,5.25-.4,8.2-.66C33.31,40,34,40,34.69,40a12.81,12.81,0,0,1,2,.15,5.13,5.13,0,0,1,1.71.55,6,6,0,0,1,1.36,1.07,5.29,5.29,0,0,1,1.15,3.32,18.26,18.26,0,0,1,0,2l-.08,1c0,.29,0,.4,0,.61-.35,3-.88,5.77-1.44,8.58-.66,3.36-1.27,6.77-1.78,10.19l-.26,1.87-.1.84c-.06.56-.13,1.11-.17,1.75a2.82,2.82,0,0,0,0,.71c0,.14.14.23.22.14a1.92,1.92,0,0,0,.22-.18l.93-.77c.31-.32.66-.64,1-1,.16-.19.34-.34.52-.52l1.18-1.34c1.6-1.93,3.23-3.84,4.81-5.81q4.43-5.43,8.74-11l13.1-16.87c3.33-4.39,6.35-8.91,9.77-13.29a35,35,0,0,1,2.32-2.84c.84-.82,1.57-1.47,2.21-2A5.54,5.54,0,0,1,83.81,16a5.13,5.13,0,0,1,3,.06,6.49,6.49,0,0,1,1.08.36c.48.27.49.87.28,1.83A15.58,15.58,0,0,1,87.65,20a3.8,3.8,0,0,1-.18.47l-.26.43c-.18.31-.39.63-.61,1-.66,1-1.35,1.88-2,2.92s-1.41,1.93-2.14,2.89c-1.42,2-2.93,3.9-4.42,5.91-3,3.94-6.08,8-9.29,12C64,51.46,59.1,57.38,54.19,63.3Z"/></g></svg>