<svg xmlns="http://www.w3.org/2000/svg" width="96" height="96" viewBox="0 0 96 96"><defs><style>.cls-1{fill:#231f20;}</style></defs><title>scribble final version</title><g id="Layer_1" data-name="Layer 1"><path class="cls-1" d="M32.4,57.2a.83.83,0,0,1,.2.57,4.82,4.82,0,0,1-.06.69c0,.17-.27.44-.41.37a5.32,5.32,0,0,1-.84-.5,31.91,31.91,0,0,1-2.52-2.85,15.52,15.52,0,0,1-1.36-2.18L26.21,51c-.4-.76-.71-1.56-1-2.36a5.17,5.17,0,0,1-.33-1.1,18,18,0,0,0-1.2-3.73,1.26,1.26,0,0,0-.33-.58,8.32,8.32,0,0,1-.87-2,8.58,8.58,0,0,1-.53-2.19c0-1.2-.13-2.37-.16-3.57,0-.17-.08-.34,0-.52a1.82,1.82,0,0,0,.15-1.13A7.56,7.56,0,0,1,22,32.29a3.15,3.15,0,0,1,.3-.77c.1-.22.46-.09.5,0s.29,0,.44,0a.85.85,0,0,1,.16,0c.06,0,.27.64.63,1.28s.77,1.28.83,1.43.3,1,.72,1.93.87,2,1,2.17a1.65,1.65,0,0,1,.15.69c0,.12,1.24,3,1.29,3.16a5.28,5.28,0,0,1,.43,1.94.78.78,0,0,0,.1.39c.42,1,.71,2.15,1,3.24.17.56.45,1.07.62,1.63a3.31,3.31,0,0,1,0,.33,1.4,1.4,0,0,0,.07.4A39.53,39.53,0,0,0,31.72,54c.16.26.36,1.83.53,2.14S32.26,57.08,32.4,57.2Z"/><path class="cls-1" d="M14.85,50.75a.8.8,0,0,1-.6.1,4.16,4.16,0,0,1-.65-.2c-.16,0-.38-.34-.28-.47a5,5,0,0,1,.62-.72c.06-.06.66-.47,1.31-.9s1.38-.93,1.77-1.12a15.77,15.77,0,0,1,2.25-1l2.32-.93c.77-.32,1.57-.55,2.35-.81A5,5,0,0,1,25,44.42a14.58,14.58,0,0,0,3.64-1,1.16,1.16,0,0,0,.56-.31,14.09,14.09,0,0,1,3.92-1.35,29.73,29.73,0,0,0,3.3-.37c.15,0,.29-.12.47,0a1.35,1.35,0,0,0,1.05,0c.45-.11.91-.2,1.36-.3a3.75,3.75,0,0,1,.75,0c.23,0,.31.37.26.44s.1.27.19.39a.5.5,0,0,1,.08.14,22.17,22.17,0,0,1-2.44,2.29l-4.11,2.11a1.85,1.85,0,0,1-.7.17c-.12,0-3.09,1.25-3.21,1.27a5,5,0,0,1-2,.36.75.75,0,0,0-.39.07,28.37,28.37,0,0,1-3.3.81c-.57.11-1.1.35-1.67.46-.1,0-.22,0-.32,0a1.3,1.3,0,0,0-.4,0c-1.32.34-2.69.51-4,1-.28.13-1.86.1-2.19.22S15,50.64,14.85,50.75Z"/><path class="cls-1" d="M22.5,57.4a.65.65,0,0,1-.33.43,5.6,5.6,0,0,1-.58.27c-.15.06-.51,0-.54-.13a5.59,5.59,0,0,1-.09-.89c0-.07.12-.74.26-1.43s.28-1.49.4-1.87a14.21,14.21,0,0,1,.79-2.1l.92-2.06c.3-.69.68-1.33,1-2a4.55,4.55,0,0,1,.57-.81,11.58,11.58,0,0,0,1.77-2.88.94.94,0,0,0,.16-.55,11.07,11.07,0,0,1,1.66-3.31,22.3,22.3,0,0,0,1.91-2.27c.08-.11.1-.26.28-.32.43-.13.52-.41.66-.66s.45-.71.64-1a3.11,3.11,0,0,1,.48-.48.38.38,0,0,1,.5.08c.07.21.28.09.43.1a.33.33,0,0,1,.15,0,14.82,14.82,0,0,1,.11,3.12l-.18.61c-.1.36-.24.83-.39,1.3-.3,1-.62,1.93-.67,2.13a1.56,1.56,0,0,1-.35.56c-.06.09-1.2,2.77-1.27,2.86-.33.5-.51,1.09-1.08,1.45a.75.75,0,0,0-.21.29,21.78,21.78,0,0,1-1.66,2.58c-.31.43-.5.91-.81,1.34a1.34,1.34,0,0,1-.21.2,1.52,1.52,0,0,0-.25.26c-.66,1-1.46,2-2,3.07-.1.27-1.18,1.2-1.32,1.47S22.52,57.24,22.5,57.4Z"/><path class="cls-1" d="M38.68,51.64a.81.81,0,0,1,.43.44,1.49,1.49,0,0,1,.11.72.61.61,0,0,1-.44.36c-.25,0-.42,0-.69-.07-.08,0-.61-.2-1.3-.36s-1.45-.31-1.81-.44a15,15,0,0,1-2.1-.76l-2.1-.86c-.71-.28-1.37-.63-2.06-1a4.78,4.78,0,0,1-.86-.54,12.33,12.33,0,0,0-3-1.7,1,1,0,0,0-.57-.14,11.7,11.7,0,0,1-3.48-1.66c-.76-.74-1.58-1.38-2.38-2-.11-.09-.27-.13-.32-.32-.13-.43-.41-.55-.67-.74a10.33,10.33,0,0,1-1-.84,2.85,2.85,0,0,1-.42-.59c-.12-.19.14-.45.21-.46.23,0,.17-.24.22-.38a.46.46,0,0,1,.07-.14,12,12,0,0,1,1.39.11c.7.07,1.45.12,1.58.16l1.84.64c.93.31,1.91.62,2.12.67a1.45,1.45,0,0,1,.55.34c.08.07,2.81,1.13,2.91,1.2a4,4,0,0,1,1.51,1,.69.69,0,0,0,.31.2,26.07,26.07,0,0,1,2.7,1.58c.45.29,1,.48,1.4.77.08.06.15.15.22.21a1.62,1.62,0,0,0,.28.25c1.1.63,2.1,1.43,3.24,2,.28.11,1.25,1.23,1.53,1.43S38.52,51.57,38.68,51.64Z"/><path class="cls-1" d="M76.39,32.08a.52.52,0,0,1,.13.45c0,.15-.08.35-.14.59s-.28.43-.4.38a4.63,4.63,0,0,1-.74-.36c-.06,0-.52-.46-1-.91A14.34,14.34,0,0,1,73.07,31a10.37,10.37,0,0,1-1.13-1.69L71,27.5c-.32-.6-.57-1.23-.84-1.85a3.72,3.72,0,0,1-.23-.87,10.88,10.88,0,0,0-.92-3c-.07-.15-.1-.33-.28-.44A5.28,5.28,0,0,1,68,19.85a5.33,5.33,0,0,1-.39-1.73c0-1,0-1.9,0-2.86,0-.14-.06-.27,0-.42a1.25,1.25,0,0,0,.19-.91A5.45,5.45,0,0,1,68,12.68a2.51,2.51,0,0,1,.31-.61c.1-.18.46-.07.5,0s.29,0,.44,0h.16c.06,0,.27.48.61,1s.71,1,.76,1.08.26.73.62,1.48.74,1.51.83,1.66a1,1,0,0,1,.1.54c0,.09,1,2.35,1,2.44a3.13,3.13,0,0,1,.29,1.53.53.53,0,0,0,.07.3,24.78,24.78,0,0,1,.77,2.54c.12.44.35.84.47,1.28a1,1,0,0,1,0,.25,1.08,1.08,0,0,0,0,.32,25.83,25.83,0,0,0,1.06,3c.13.2.18,1.47.31,1.71S76.28,32,76.39,32.08Z"/><path class="cls-1" d="M62.59,27.26a.53.53,0,0,1-.48,0c-.14,0-.32-.15-.54-.26s-.37-.35-.29-.47a5.74,5.74,0,0,1,.47-.65c0-.05.51-.41,1-.78s1.05-.82,1.35-1a10.35,10.35,0,0,1,1.75-.9l1.8-.77c.6-.26,1.22-.44,1.83-.65a3,3,0,0,1,.85-.16A9,9,0,0,0,73.2,21c.15-.07.31-.1.42-.27a8.51,8.51,0,0,1,3.06-1.07,20.37,20.37,0,0,0,2.61-.13c.12,0,.23-.09.38,0a.91.91,0,0,0,.84.06c.36-.08.73-.13,1.08-.18a2.87,2.87,0,0,1,.62.07c.19,0,.29.37.25.44s.11.27.2.39a1,1,0,0,1,.08.14,18,18,0,0,1-1.84,2l-3.19,1.79a1.15,1.15,0,0,1-.56.12c-.09,0-2.4,1-2.5,1a3,3,0,0,1-1.55.23.52.52,0,0,0-.31,0,17.81,17.81,0,0,1-2.6.6c-.45.08-.86.28-1.31.35a1.15,1.15,0,0,1-.26,0,1.08,1.08,0,0,0-.31,0c-1,.25-2.12.34-3.12.69-.22.11-1.48,0-1.73.07S62.69,27.16,62.59,27.26Z"/><path class="cls-1" d="M68.66,32.38a.43.43,0,0,1-.28.32l-.55.16c-.15,0-.51,0-.55-.12a7.51,7.51,0,0,1-.14-.75c0-.06.06-.6.14-1.17a12.9,12.9,0,0,1,.22-1.52,9.28,9.28,0,0,1,.55-1.69L68.73,26c.22-.55.52-1.05.78-1.57a2.5,2.5,0,0,1,.46-.62,7.19,7.19,0,0,0,1.41-2.23.62.62,0,0,0,.1-.45,6.79,6.79,0,0,1,1.28-2.58,15.12,15.12,0,0,0,1.63-1.68c.07-.08.08-.2.25-.23.4-.08.46-.3.58-.49s.38-.53.56-.77a2.41,2.41,0,0,1,.44-.35c.14-.11.47,0,.5.08s.27.09.42.1a.65.65,0,0,1,.16,0,12.76,12.76,0,0,1,.3,2.56s-.78,2.9-.87,3.25a.83.83,0,0,1-.29.43c0,.07-.89,2.21-1,2.27-.27.39-.38.87-.89,1.12a.4.4,0,0,0-.17.22,14.85,14.85,0,0,1-1.34,2c-.25.33-.39.72-.64,1a.9.9,0,0,1-.18.15,1,1,0,0,0-.21.2,27.63,27.63,0,0,0-1.62,2.37c-.07.21-1,.88-1.12,1.09S68.66,32.25,68.66,32.38Z"/><path class="cls-1" d="M81.26,27.68a.54.54,0,0,1,.33.37,1.19,1.19,0,0,1,0,.65.74.74,0,0,1-.43.36c-.21,0-.35,0-.58,0-.07,0-.49-.12-1-.21s-1.18-.15-1.46-.23a10.27,10.27,0,0,1-1.68-.53l-1.66-.62c-.56-.21-1.08-.49-1.62-.73a2.62,2.62,0,0,1-.66-.44A7.6,7.6,0,0,0,70.13,25a.64.64,0,0,0-.46-.08A7,7,0,0,1,67,23.6c-.57-.64-1.19-1.18-1.79-1.74-.09-.08-.21-.1-.24-.27-.06-.41-.29-.5-.49-.66a7.34,7.34,0,0,1-.79-.7,2.51,2.51,0,0,1-.29-.54c-.08-.16.15-.44.22-.45s.16-.25.21-.38l.07-.15a10.91,10.91,0,0,1,1.14,0,10.8,10.8,0,0,1,1.29,0l1.47.44c.74.22,1.52.43,1.68.46a.87.87,0,0,1,.43.28c.06.05,2.23.84,2.3.89.4.26.89.36,1.16.85a.45.45,0,0,0,.24.17,15.64,15.64,0,0,1,2.1,1.27c.34.24.75.37,1.09.61.06,0,.11.13.16.18a.84.84,0,0,0,.21.21c.86.51,1.62,1.18,2.52,1.63.22.08.93,1.06,1.16,1.22S81.12,27.63,81.26,27.68Z"/><path class="cls-1" d="M68.67,83a.45.45,0,0,1,.11.4c0,.13-.09.31-.14.53s-.27.39-.38.35a5.89,5.89,0,0,1-.67-.3s-.46-.4-.86-.8a9.58,9.58,0,0,1-1.07-1.08,8.36,8.36,0,0,1-1-1.47l-.88-1.56c-.29-.52-.5-1.07-.74-1.61a2.91,2.91,0,0,1-.2-.77A9.19,9.19,0,0,0,62,74.09a.71.71,0,0,0-.26-.39,6.76,6.76,0,0,1-1-2.86c.06-.85,0-1.67.06-2.51,0-.12,0-.24,0-.37a1,1,0,0,0,.19-.8,4.75,4.75,0,0,1,.12-1.1,1.77,1.77,0,0,1,.29-.54c.09-.15.42-.06.46,0s.27,0,.41,0a.75.75,0,0,1,.15,0s.25.42.56.84.65.83.69.92.24.64.56,1.29.66,1.31.74,1.44a.85.85,0,0,1,.09.47c0,.08.9,2,.93,2.13A2.55,2.55,0,0,1,66.33,74a.51.51,0,0,0,.06.27,18.36,18.36,0,0,1,.67,2.22c.09.39.3.73.4,1.11a.87.87,0,0,1,0,.23,1.27,1.27,0,0,0,0,.28,21.78,21.78,0,0,0,.91,2.65c.12.17.14,1.29.25,1.5S68.57,82.91,68.67,83Z"/><path class="cls-1" d="M56.59,78.83a.44.44,0,0,1-.42,0c-.12,0-.28-.14-.48-.24s-.33-.33-.27-.44a4.68,4.68,0,0,1,.41-.59s.45-.37.88-.7a12.58,12.58,0,0,1,1.17-.9,8.85,8.85,0,0,1,1.52-.8L61,74.5c.52-.23,1.06-.38,1.59-.57a3.11,3.11,0,0,1,.75-.14,7.3,7.3,0,0,0,2.49-.62.59.59,0,0,0,.37-.24A6.91,6.91,0,0,1,68.85,72a17.35,17.35,0,0,0,2.29-.08c.11,0,.2-.08.34,0a.77.77,0,0,0,.74.07c.31-.06.63-.11.94-.14a2.28,2.28,0,0,1,.55.08c.17,0,.26.35.23.4s.11.25.19.37a.83.83,0,0,1,.07.13,16.21,16.21,0,0,1-1.58,1.82l-1.32.74c-.65.37-1.34.76-1.47.85a1,1,0,0,1-.49.1c-.08,0-2.1.91-2.18.93-.45.09-.85.34-1.36.18a.4.4,0,0,0-.27.05,14.74,14.74,0,0,1-2.28.51c-.39.06-.75.24-1.14.3a.91.91,0,0,1-.23,0,1.31,1.31,0,0,0-.28,0c-.9.22-1.85.29-2.72.59-.19.1-1.3,0-1.52,0S56.68,78.74,56.59,78.83Z"/><path class="cls-1" d="M61.92,83.28a.39.39,0,0,1-.25.28l-.51.13c-.13,0-.47,0-.5-.12a3.25,3.25,0,0,1-.14-.66s0-.54.1-1a10,10,0,0,1,.17-1.35,6.56,6.56,0,0,1,.47-1.48l.58-1.44c.18-.48.45-.92.67-1.37a2.14,2.14,0,0,1,.41-.54,6.1,6.1,0,0,0,1.24-2,.5.5,0,0,0,.08-.39,5.46,5.46,0,0,1,1.11-2.25,12.51,12.51,0,0,0,1.46-1.45c.06-.07.07-.17.22-.2a.63.63,0,0,0,.53-.41c.15-.22.34-.46.5-.67a2.3,2.3,0,0,1,.4-.29c.13-.1.44,0,.47.07s.25.08.39.1l.15,0a11.42,11.42,0,0,1,.31,2.27l-.73,2.86a.79.79,0,0,1-.26.37c0,.06-.77,1.94-.82,2-.23.34-.33.76-.79,1a.31.31,0,0,0-.15.19,11.93,11.93,0,0,1-1.18,1.75c-.22.28-.34.62-.56.9,0,.06-.11.09-.16.13a.79.79,0,0,0-.19.17A21.82,21.82,0,0,0,63.51,82c-.06.18-.9.75-1,.93S61.92,83.17,61.92,83.28Z"/><path class="cls-1" d="M72.85,79.09a.5.5,0,0,1,.31.34,1.15,1.15,0,0,1,0,.61.69.69,0,0,1-.4.34c-.19,0-.32,0-.54,0s-.47-.11-1-.2-1.12-.15-1.39-.23a9.22,9.22,0,0,1-1.59-.51l-1.58-.6c-.53-.19-1-.46-1.54-.69a3.14,3.14,0,0,1-.63-.42,7.43,7.43,0,0,0-2.23-1.29.61.61,0,0,0-.43-.09,6.71,6.71,0,0,1-2.59-1.23c-.54-.6-1.13-1.11-1.7-1.64-.09-.07-.2-.09-.23-.26-.07-.37-.28-.46-.47-.61a7.82,7.82,0,0,1-.75-.67,2,2,0,0,1-.28-.5c-.08-.15.14-.41.2-.42s.15-.23.2-.35a.46.46,0,0,1,.07-.14s.53,0,1.07,0,1.13,0,1.22,0L60,71c.71.21,1.45.42,1.61.44a.89.89,0,0,1,.4.27c.06,0,2.11.81,2.19.86.38.24.83.34,1.1.81a.37.37,0,0,0,.22.15,14.47,14.47,0,0,1,2,1.21c.33.23.72.35,1,.58.06,0,.1.12.16.17a1,1,0,0,0,.2.2c.81.48,1.54,1.11,2.39,1.54.21.08.89,1,1.11,1.14S72.72,79,72.85,79.09Z"/></g></svg>