<svg xmlns="http://www.w3.org/2000/svg" width="96" height="96" viewBox="0 0 96 96"><defs><style>.cls-1{fill:#231f20;}</style></defs><title>scribble final version</title><g id="Layer_1" data-name="Layer 1"><path class="cls-1" d="M50.15,54.4c-9.88,0-38.57-19.54-38.57-19.54s1.09-5.13,1.44-4.22c.24.63,36.32,17.9,36.32,17.9Z"/><path class="cls-1" d="M77.15,70.47C81,62.68,81,40.3,77.15,34l7.75-4.17-.18,34Z"/><path class="cls-1" d="M15.05,59.65,15,62.54V64a2.14,2.14,0,0,0-.06.27c-.06.2.13.31.25.46.69.48,1.53,1,2.34,1.51,1.2.74,2.5,1.31,3.72,2l6.51,4,3.26,2,3.24,2c1.92,1.2,3.92,2.28,5.89,3.35,1.27.7,2.56,1.35,3.8,2.1a25.53,25.53,0,0,1,3.44,2.72c.67.64.22,1.13-.84,1.43a8.39,8.39,0,0,1-4.36,0c-2.66-1.17-5.28-2.4-7.89-3.67a63.54,63.54,0,0,1-7.66-4.29c-2.95-2-6.38-3.32-9.59-5l-2.65-1.46-1.32-.77-1.52-.94a9.11,9.11,0,0,1-1.82-1.46c-.29-.26-.36-.67-.6-.95-.08-.37-.21-.73-.26-1.11L8.76,65l0-.57V64l0-1.53c0-2.49,0-5,0-7.43,0-3.73.25-7.48.29-11.19,0-2.89-.28-5.76-.27-8.72a14.36,14.36,0,0,1,.09-2,9.66,9.66,0,0,1,.36-1.53,2.81,2.81,0,0,1,.68-1A2.88,2.88,0,0,1,11.79,30a8,8,0,0,1,1.08,0c1.13.11,1.92,1.26,2.37,2.89l.21,1.81a11.51,11.51,0,0,1,.15,1.84c.06,1.24.05,2.48.06,3.76,0,2.52-.07,5.13-.16,7.73-.11,3.87-.29,7.8-.29,11.69Z"/><path class="cls-1" d="M52.74,62.36c-.19,1.67-.33,3.36-.39,5.07,0,.62.13,1.23.08,1.86C52.19,71.51,52,73.75,52,76A12.38,12.38,0,0,0,52,77.49l0,1.49a11.15,11.15,0,0,1-.22,3.92c-.13.42-.69.35-1.34,0a3.48,3.48,0,0,1-1.75-1.5c-.22-.59-.46-1.22-.67-1.83a9.33,9.33,0,0,1-.52-1.89,19.83,19.83,0,0,1,0-3.93c.16-1.6-.31-3.21-.36-4.83,0-1.79.07-3.59.16-5.38l.24-3.32c.1-1.67.42-3.34.58-5a14.36,14.36,0,0,0,.07-2c0-.65,0-1.33.13-2a3.24,3.24,0,0,1,.19-.86c.4-1.05.84-1.28,1.87-1.17a5.16,5.16,0,0,1,.7.08,2,2,0,0,1,1.47,1.54c.12.56.24,1.1.4,1.67s.09,1.07.11,1.6c.09,1.1.05,2.16.08,3.26.05,1.62-.26,3.28-.29,5Z"/><path class="cls-1" d="M88.89,55.43l-.44,4.16-.26,2.12L88,62.83c0,.16-.06.42-.12.74s-.13.59-.2.89l-.11.33-.06.17c-.11,0-.07.1-.12.15a4.65,4.65,0,0,1-.34.62,2,2,0,0,1-.45.55,6.14,6.14,0,0,1-.51.51l-.55.46-.27.22-.19.13c-.24.17-.49.36-.73.52-1.23.83-2.34,1.7-3.56,2.43C76.52,73.07,72.21,75.4,68,77.9c-.94.55-1.85,1.13-2.76,1.73l-2.72,1.74-3.43,2.3-3.4,2.19c-.62.43-1,0-.92-1a6.46,6.46,0,0,1,1.95-3.61,77.35,77.35,0,0,1,6.63-5.48c2.36-1.59,4.78-3.09,7.27-4.47a92.92,92.92,0,0,0,8.55-5.85c.77-.55,1.53-1.11,2.24-1.66l.51-.4.23-.16c.14-.12.31-.24.34-.43a2,2,0,0,0,.06-.28l.07-.61c0-.42.08-.88.1-1.34.07-.9.11-1.84.15-2.77.09-2.33.17-4.67.19-7,.1-3.56.31-7.15.22-10.69-.08-2.76-.47-5.46-.66-8.18-.05-.6-.14-1.19-.15-1.8a4.31,4.31,0,0,1,.38-2.39,2.32,2.32,0,0,1,1.37-1.07,8.56,8.56,0,0,1,.88-.32c1-.21,1.83.7,2.34,2.32a71.93,71.93,0,0,1,1.29,7.45c.28,2.53.41,5.11.52,7.69.07,1.92.11,3.85.12,5.78s-.22,3.88-.33,5.82Z"/><path class="cls-1" d="M61.59,14.26c1.46.79,3,1.58,4.48,2.33.56.27,1.17.41,1.73.69,2,1,3.91,2.09,5.86,3.19a24.29,24.29,0,0,0,2.67,1.29c.58.26,1.18.49,1.76.78a5.14,5.14,0,0,1,1.53,1.2c.27.33-.3,1.15-1.09,1.85s-1.78,1.31-2.38,1.06a26.15,26.15,0,0,1-6.48-3.27,21.89,21.89,0,0,0-4.22-1.86c-1.56-.68-3.12-1.41-4.69-2.15L57.88,18c-1.47-.69-2.9-1.51-4.39-2.17-1.14-.53-2.43-.79-3.64-1.31a4.75,4.75,0,0,1-.81-.33c-.93-.56-1-1.05-.36-2.28.15-.28.29-.57.45-.83a2.35,2.35,0,0,1,2.16-1.27,14.44,14.44,0,0,1,3.05.84,14.25,14.25,0,0,1,1.44.63c.49.22,1,.45,1.45.69,1.45.7,2.89,1.49,4.41,2.19Z"/><path class="cls-1" d="M20.8,31.17c5.5,3.06,11.12,6,16.76,8.88,2.06,1.05,4.19,2,6.25,3L51,46.67a.64.64,0,0,0,.64,0l.16-.06a3.21,3.21,0,0,0,.38-.16l.83-.4c1.13-.56,2.27-1.19,3.4-1.85,2.27-1.32,4.54-2.68,6.79-4.09,3-1.92,6-4,8.88-6.16,3.67-2.75,7.3-5.71,11-8.16.57-.39.88-.28,1.21,0a2,2,0,0,1,.39,1.78,9.39,9.39,0,0,1-3.45,5.68c-3.74,3-7.56,5.79-11.5,8.48a110.22,110.22,0,0,1-12.34,7.47c-1,.48-1.92,1-3,1.45l-.91.41a9.27,9.27,0,0,1-1.25.44,4,4,0,0,1-1.28.17,1.69,1.69,0,0,1-.63-.13l-.62-.2-5.47-2.52c-1.69-.78-3.39-1.58-5.06-2.4q-8.62-4.27-17.13-8.81c-1.75-.94-3.49-1.88-5.22-2.84l-1.3-.73-.91-.5-.93-.55L11.9,32a1.87,1.87,0,0,1-.65-.57l-.54-.58-.41-.44c-.13-.16-.3-.25-.31-.49a2.09,2.09,0,0,1,.43-1.15,7.28,7.28,0,0,1,2-1.92,30.6,30.6,0,0,1,2.78-1.68L17.28,24l8-4.07c4.1-2.11,8-4.37,12-6.6.86-.49,1.69-1,2.56-1.49,3.26-1.76,4.33-2.11,5.58-1.64a5.6,5.6,0,0,1,.85.31c.78.44-.15,2-2.43,3.65C37,19,29.35,23,21.9,27.1l-2,1.15L18,29.32s0,0-.11,0,0,.05,0,.09,0,0,0,0l.07,0,.26.14.52.29,2.09,1.13Z"/></g></svg>