<svg xmlns="http://www.w3.org/2000/svg" width="96" height="96" viewBox="0 0 96 96"><defs><style>.cls-1{fill:#231f20;}</style></defs><title>scribble final version</title><g id="Layer_1" data-name="Layer 1"><path class="cls-1" d="M58.48,73.16l.83-.52c.28-.18.52-.41.78-.61a11,11,0,0,0,1.48-1.33,5.21,5.21,0,0,0,.67-.74c.21-.26.44-.52.66-.77a9,9,0,0,0,.53-.78,6,6,0,0,0,.49-.81c.18-.43.36-.86.5-1.3a13.81,13.81,0,0,1,.33-1.38,12.83,12.83,0,0,0-.06-5.16,12.22,12.22,0,0,0-2.27-4.82,9.55,9.55,0,0,0-1.73-1.69,9.74,9.74,0,0,0-2.14-1.13l-.73-.28a6.6,6.6,0,0,0-.77-.17,8.91,8.91,0,0,0-1.56-.25c-.53,0-1.06-.07-1.6-.11l-1.65.07c-.69,0-.67-.21-.14-.61a6.09,6.09,0,0,1,3-1.32,12,12,0,0,1,7.56,1.73,11.69,11.69,0,0,1,4.94,6.17,18.15,18.15,0,0,1,.93,9.51,6.07,6.07,0,0,1-.36,1.31l-.45,1.28-.63,1.2a7.54,7.54,0,0,1-.7,1.14,14.85,14.85,0,0,1-1.62,2l-.88.94-1,.85a20.1,20.1,0,0,1-5.37,3.26,17.45,17.45,0,0,1-2.24.78c-.76.23-1.55.34-2.32.51s-1.57.19-2.36.21a23.43,23.43,0,0,1-2.37,0A21,21,0,0,1,41,78.82a7.4,7.4,0,0,1-1.5-.72A3.45,3.45,0,0,1,38,76.57a1.86,1.86,0,0,1,.17-1.6,5.94,5.94,0,0,1,.41-.84,2.19,2.19,0,0,1,2.78-.54,45.61,45.61,0,0,0,4.87,1.56,18.42,18.42,0,0,0,5,.34,15.15,15.15,0,0,0,7.24-2.42Z"/><path class="cls-1" d="M30.29,59.38a21.38,21.38,0,0,0,4.81,9.71,23.13,23.13,0,0,0,9.22,6.26,19.26,19.26,0,0,0,8,.9A10.22,10.22,0,0,0,54,76l.87-.13c.28-.07.56-.17.84-.25a17.3,17.3,0,0,0,3.38-1.25,23.7,23.7,0,0,0,3.14-1.88A21.67,21.67,0,0,0,65,70.17a13.68,13.68,0,0,0,2-2.79,10.13,10.13,0,0,0,1-3.16,10.62,10.62,0,0,0-1.33-6.63,11.29,11.29,0,0,0-4.57-4.27,14,14,0,0,0-6.36-1.51A16.66,16.66,0,0,0,47.44,54a27.58,27.58,0,0,0-3.6,2.54,22.28,22.28,0,0,0-3.28,3.17c-1.23,1.49-1.44,1.16-1.12-.66a19.21,19.21,0,0,1,1.17-3.67,12.77,12.77,0,0,1,1.31-2.32,9,9,0,0,1,1-1.09A10.3,10.3,0,0,1,44,51a20.81,20.81,0,0,1,10.42-4.33,19.32,19.32,0,0,1,11.59,2.18,15.18,15.18,0,0,1,4.8,4,16.43,16.43,0,0,1,2.87,5.67,18,18,0,0,1,.56,3.09l.07,1.59c0,.53-.06,1.07-.11,1.6a16,16,0,0,1-1.94,6,24.4,24.4,0,0,1-10.1,9.44,25.55,25.55,0,0,1-6.48,2.4L54,83c-.57.1-1.16.11-1.74.16s-1.15.1-1.73.08l-1.72-.09A27.58,27.58,0,0,1,35,78a28.82,28.82,0,0,1-9.41-11,15.87,15.87,0,0,1-.89-2.08A16.31,16.31,0,0,1,24,62.73l-.56-2.19c-.12-.75-.24-1.5-.34-2.25a27.37,27.37,0,0,1,.64-8.91,37.73,37.73,0,0,1,5.34-12,57.93,57.93,0,0,1,3.88-5.16c1.4-1.61,2.84-3.19,4.38-4.65a57.74,57.74,0,0,1,16-11.48,33,33,0,0,1,4.11-1.67,13.39,13.39,0,0,1,5.94-.71,5,5,0,0,1,1.64.51,3.6,3.6,0,0,1,1.08,1,5.17,5.17,0,0,1,.76,1c.46,1.21-1.55,2.11-4.74,3.39a54.12,54.12,0,0,0-13.65,7.77A59,59,0,0,0,36.91,38.61,36.12,36.12,0,0,0,31.3,48.73a19.66,19.66,0,0,0-.85,10.6Z"/></g></svg>