<svg xmlns="http://www.w3.org/2000/svg" width="96" height="96" viewBox="0 0 96 96"><defs><style>.cls-1{fill:#231f20;}</style></defs><title>scribble final version</title><g id="Layer_1" data-name="Layer 1"><path class="cls-1" d="M40.41,37.78C42.7,41,45,44.29,47.31,47.5c.85,1.17,1.84,2.23,2.68,3.41l4.41,6.26c1.46,2.1,2.86,4.25,4.34,6.33,1.3,1.85,2.73,3.61,4.15,5.35a50.29,50.29,0,0,1,5.22,6.89c.45.8-.29,1.26-1.46,1.25a5.93,5.93,0,0,1-4-1.64A111.28,111.28,0,0,1,51.23,61.92c-2-3-4.52-5.64-6.78-8.47C42,50.34,39.55,47.18,37.11,44l-4.48-5.84c-2.28-2.93-4.5-5.94-6.91-8.71-1.84-2.2-3.9-4.13-5.82-6.2-.43-.45-.87-.88-1.26-1.37a11.1,11.1,0,0,1-.85-1.21,3.17,3.17,0,0,1-.3-1.06,2.88,2.88,0,0,1,.36-1.78,6.46,6.46,0,0,1,.39-.79,1.25,1.25,0,0,1,1.26-.45,6,6,0,0,1,2.13.72,52.38,52.38,0,0,1,6,5.05c1,.92,1.91,1.85,2.83,2.82s1.74,2,2.59,3.07c2.54,3.07,5,6.26,7.45,9.4Z"/><path class="cls-1" d="M61.15,44.72c-2.84,3.24-5.7,6.48-8.5,9.75-1,1.19-1.9,2.5-2.94,3.68l-5.49,6.24c-1.84,2.08-3.74,4.1-5.56,6.19C37,72.43,35.52,74.38,34,76.31a59,59,0,0,1-6,7.25c-.71.68-1.32,0-1.53-1.15a6.66,6.66,0,0,1,.91-4.53A131.9,131.9,0,0,1,38.85,62.42c2.64-2.83,4.84-6.19,7.27-9.29,2.69-3.4,5.42-6.76,8.14-10.13l5.06-6.2c2.53-3.15,5.15-6.25,7.5-9.5,1.87-2.49,3.44-5.14,5.17-7.69.38-.56.73-1.13,1.15-1.67a12.73,12.73,0,0,1,1.06-1.2,3.77,3.77,0,0,1,1-.6,2.93,2.93,0,0,1,1.85-.1,6.41,6.41,0,0,1,.86.2c.42.17.62.57.67,1.19a6.67,6.67,0,0,1-.33,2.4,62.34,62.34,0,0,1-4,7.59c-.75,1.24-1.51,2.48-2.33,3.68s-1.72,2.34-2.6,3.5c-2.61,3.45-5.38,6.82-8.08,10.22Z"/><path class="cls-1" d="M11.52,23.05a22.65,22.65,0,0,1,.32-5c.08-.43.22-.91.34-1.37A8.73,8.73,0,0,1,12.87,15c.16-.27.29-.56.46-.82l.57-.74a5.27,5.27,0,0,1,1.41-1.17,7.07,7.07,0,0,1,1.23-.54c.42-.12.88-.17,1.32-.26a4.66,4.66,0,0,1,1.32-.15c.47,0,.73,0,1.1.06a20.84,20.84,0,0,1,5.95,2c1.77.87,3.4,1.83,5,2.81,1.42.87,2.9,1.62,4.28,2.47a26.87,26.87,0,0,1,5.15,3.4c.47.44,0,1.19-.89,1.76a4.23,4.23,0,0,1-3.48.54c-1-.4-2-.81-2.95-1.22a19.57,19.57,0,0,1-2.79-1.38c-1.77-1-3.49-2.11-5.2-3.16a11.88,11.88,0,0,0-1.59-.81,12.65,12.65,0,0,0-1.65-.53,9.78,9.78,0,0,0-1.61-.29,3.94,3.94,0,0,0-.74-.06,2.6,2.6,0,0,1-.5,0,1.36,1.36,0,0,0-.74.11,1.38,1.38,0,0,0-.55.57c0,.08,0,.07-.09.2a2.63,2.63,0,0,0-.1.36,5,5,0,0,0-.17.82c-.08.58-.17,1.22-.21,1.87a32.58,32.58,0,0,0,.13,5,56.12,56.12,0,0,0,1.21,7.78c.25,1,.55,2,.85,2.93s.66,1.94.89,2.94c.08.45.2.88.25,1.34.21,1.72-.15,2.41-1.05,2.89a4.19,4.19,0,0,1-.59.31,1.13,1.13,0,0,1-1-.23A3.52,3.52,0,0,1,17,42.71l-1.49-2.43c-.41-.85-.8-1.72-1.16-2.61a31.87,31.87,0,0,1-1.67-5.61,60.51,60.51,0,0,1-1.33-9Z"/><path class="cls-1" d="M77,19.43a15.7,15.7,0,0,0-.39-3c0-.15,0-.18-.05-.26a.67.67,0,0,0-.47-.46h0a.33.33,0,0,1-.12,0,2.86,2.86,0,0,0-.55.07l-.58.08a6.17,6.17,0,0,1-.62.11,24.71,24.71,0,0,0-4.77,1.27,43.36,43.36,0,0,0-4.84,2.09c-1.41.7-2.71,1.61-4,2.44a29.44,29.44,0,0,1-5.22,3.15c-.61.24-1.07-.5-1.19-1.57a4.21,4.21,0,0,1,1-3.36c.79-.74,1.59-1.47,2.42-2.16a15.9,15.9,0,0,1,2.63-1.91,33.06,33.06,0,0,1,6-2.81c1.27-.44,2.52-1,3.82-1.53.63-.28,1.33-.51,2-.76a15.37,15.37,0,0,1,2.2-.54c.44-.06.85-.14,1.31-.16h.84a5.39,5.39,0,0,1,.91,0,5.47,5.47,0,0,1,3.05,1.42,3.73,3.73,0,0,1,.58.61,3.72,3.72,0,0,1,.5.68c.14.25.32.48.43.72l.31.69a12,12,0,0,1,.61,2.53,31.1,31.1,0,0,1,.11,5.68c-.14,2.76-.58,5.44-.83,8.09-.18,2.07-.2,4.11-.43,6.13-.08.44-.13.88-.24,1.32a4.16,4.16,0,0,1-.74,1.67,2.13,2.13,0,0,1-1.18.61,6.22,6.22,0,0,1-.65.13,1,1,0,0,1-.9-.49,3.46,3.46,0,0,1-.63-1.51c-.18-.93-.37-1.89-.53-2.83s-.12-1.87-.15-2.81a48.26,48.26,0,0,1,.2-5.53,54.39,54.39,0,0,0,.17-7.8Z"/><path class="cls-1" d="M65.19,65q-1-1.35-2-2.67c-.26-.32-.55-.6-.8-.92l-2.6-3.48c-.39-.51-.81-1-1.22-1.49a7.88,7.88,0,0,1-1.42-2c-.21-.47,1.23-.64,1.82,0,1,1.19,2.16,2.38,3.14,3.71a23.89,23.89,0,0,0,2.08,2.2l2.29,2.45,1.4,1.53c.72.75,1.4,1.57,2.1,2.34.56.59,1.22,1.07,1.81,1.65.13.12.27.23.39.36.44.53.45.8,0,1.3-.09.11-.18.23-.28.33a1,1,0,0,1-1.24.11,20.48,20.48,0,0,1-3.38-2.77c-.76-.79-1.4-1.72-2.13-2.58Z"/></g></svg>