<svg xmlns="http://www.w3.org/2000/svg" width="96" height="96" viewBox="0 0 96 96"><defs><style>.cls-1{fill:#231f20;}</style></defs><title>scribble final version</title><g id="Layer_1" data-name="Layer 1"><path class="cls-1" d="M53.15,64.71a4,4,0,0,0,2.26-1.43A7.41,7.41,0,0,0,56.72,60a30.76,30.76,0,0,0-.16-9.3c-.34-2.39-1-4.76-1.46-7.19L53.74,37c-.23-1.11-.44-2.23-.62-3.4C53,33,53,32.41,52.88,31.8s-.09-1.28-.08-1.88a18.63,18.63,0,0,1,1.33-7.42,13.6,13.6,0,0,1,2.09-3.36,12.51,12.51,0,0,1,3-2.52,16.69,16.69,0,0,1,6.31-2.13,23.74,23.74,0,0,1,6.36,0A27,27,0,0,1,86.4,20.63c1.24,1.14.35,1.77-1.3,1.86a17.29,17.29,0,0,1-6.55-1,25.68,25.68,0,0,0-13.1-1.62,9.23,9.23,0,0,0-5,2.38,8.4,8.4,0,0,0-1.56,2.23,12.7,12.7,0,0,0-.87,2.93,14.46,14.46,0,0,0-.08,4,41.36,41.36,0,0,0,.89,4.4c.76,3,1.65,6.11,2.34,9.26a62.34,62.34,0,0,1,1.53,10.73,25.51,25.51,0,0,1-.36,5.74,12.92,12.92,0,0,1-2.52,5.79,10.68,10.68,0,0,1-7,3.71,18.71,18.71,0,0,1-7.19-.62c-3.37-.88-6.36-2.23-9.33-3.23A28,28,0,0,0,32,66a14.42,14.42,0,0,0-4.25,0,13,13,0,0,0-5.94,2.54,22.94,22.94,0,0,0-4.56,4.76l-.84,1.23c-.26.42-.52.85-.81,1.26-2,3.19-2.95,4.11-4.9,4a8.05,8.05,0,0,1-1.31,0C8,79.45,7.77,77.43,9.05,74.5a32.25,32.25,0,0,1,3.68-6.37,23.38,23.38,0,0,1,5.88-5.51,20.24,20.24,0,0,1,8.12-3c.73-.09,1.45-.14,2.18-.2s1.53,0,2.27.05a25.2,25.2,0,0,1,4.16.73c3.88,1,7.09,2.49,10.11,3.52s5.65,1.52,7.65.9Z"/></g></svg>