<svg xmlns="http://www.w3.org/2000/svg" width="96" height="96" viewBox="0 0 96 96"><defs><style>.cls-1{fill:#231f20;}</style></defs><title>scribble final version</title><g id="Layer_1" data-name="Layer 1"><path class="cls-1" d="M61.12,62.13a26.23,26.23,0,0,1-5.49-.25c-1.7-.24-3.32-.57-4.93-.9-3.21-.68-6.3-1.54-9.36-2.47L39.41,58,39,57.83l-.32-.1c-.1,0-.26-.13-.29,0a3.88,3.88,0,0,0-.27.67L38,58.6a1.72,1.72,0,0,0-.09.37l-.3,1.47-1.21,6a93.38,93.38,0,0,1-3.22,12c-.25.68-.51,1.36-.81,2-.15.34-.31.69-.48,1a13.31,13.31,0,0,1-.72,1.28,7.87,7.87,0,0,1-2,2.22,4.34,4.34,0,0,1-2.71.87,12.81,12.81,0,0,1-1.77-.61c-.58-.32-1.16-.66-1.73-1-2-1.21-4-2.31-5.9-3.5-1-.58-1.92-1.18-2.86-1.79a10.88,10.88,0,0,1-1.35-1l-1.33-1c-1.07-.85-.69-1.48.87-1.92a14.88,14.88,0,0,1,3.07-.44,9.25,9.25,0,0,1,3.69.85c1.58.74,3.14,1.51,4.67,2.27L26,78.78s0,0,0,0,.08.07.16.06,0,0,.06-.07.13-.23.2-.36.26-.52.39-.8c.26-.56.5-1.16.74-1.78.95-2.51,1.76-5.27,2.56-8.06a76.26,76.26,0,0,0,1.72-8.28l.4-2.44A25.92,25.92,0,0,1,33,53.6a6,6,0,0,1,.66-1.39,3.55,3.55,0,0,1,1-1,2.63,2.63,0,0,1,.61-.16A3,3,0,0,1,35.9,51a3.56,3.56,0,0,1,.73,0l.83.16.27.06,3.58,1.14,2.2.68q2.2.67,4.41,1.26A55.74,55.74,0,0,0,56.75,56a20.84,20.84,0,0,0,3.42.08,6.17,6.17,0,0,0,1.13-.15,2,2,0,0,0,.85-.4c.15-.09.18-.27.23-.42s.1-.32.14-.48.12-.5.18-.8l.2-1c1.13-5.73,2.39-11.57,3.69-17.32,1-4.48,1.82-9,3.27-13.44.33-1,.6-2,1-2.95a9,9,0,0,1,2.31-3.56A3.2,3.2,0,0,1,75.77,15a7.27,7.27,0,0,1,1.25.25,1.83,1.83,0,0,1,1,1.65,7.73,7.73,0,0,1,0,1.38,7.31,7.31,0,0,1-.39,1.64c-2.31,7-4,15-6,23.08-.55,2.46-1.11,4.93-1.66,7.4l-.84,3.78-.55,2.31A8.78,8.78,0,0,1,68,58.26a13.2,13.2,0,0,1-.92,1.53c-.42.37-.87.7-1.31,1a7.92,7.92,0,0,1-1.52.74,11.1,11.1,0,0,1-1.64.49,5.91,5.91,0,0,1-.84.15l-.65.08Z"/><path class="cls-1" d="M76.14,16.94c0-.12,0-.07,0-.1v-.3c0-.13,0-.38-.17-.36a1.13,1.13,0,0,0-.31,0l-.19.06a1,1,0,0,0-.34.21c-.73.54-1.36,1.25-2.08,1.88a80.06,80.06,0,0,0-7.76,7A28.06,28.06,0,0,0,62.39,29,28,28,0,0,1,59,33.54c-.3.26-1.38.06-2.16-1a3.85,3.85,0,0,1-.61-3.76A17,17,0,0,1,58,26c.65-.87,1.33-1.7,2-2.5a38.33,38.33,0,0,1,4.64-4.45,35.64,35.64,0,0,0,2.85-2.67L68.91,15c.5-.45,1-.88,1.56-1.28s.79-.59,1.2-.87l.64-.42c.24-.18.62-.37.92-.57a8.57,8.57,0,0,1,1.92-.95A6.83,6.83,0,0,1,77,10.47a4,4,0,0,1,.92.08h0s-.08.23,0,.13h0l0,0a.93.93,0,0,1,.1,0l.18.12.34.25a4.11,4.11,0,0,1,1.06,1.61,55.46,55.46,0,0,1,2,5.8c.77,2.52,1.4,5.08,2.2,7.56.62,1.93,1.51,3.76,2.24,5.67.16.42.36.82.49,1.25.46,1.63.14,2.27-1.15,2.87a8.7,8.7,0,0,1-.89.4,2.18,2.18,0,0,1-2.62-1.17,51.64,51.64,0,0,1-3.69-10.24c-.74-2.63-1.41-5.33-2.22-7.9Z"/></g></svg>