<svg xmlns="http://www.w3.org/2000/svg" width="96" height="96" viewBox="0 0 96 96"><defs><style>.cls-1{fill:#231f20;}</style></defs><title>scribble final version</title><g id="Layer_1" data-name="Layer 1"><path class="cls-1" d="M71.78,53.28A31.18,31.18,0,0,0,72,46.81a27.07,27.07,0,0,0-.42-3.13,20.87,20.87,0,0,0-.8-3.11q-.18-.55-.39-1.11c-.16-.35-.36-.69-.54-1l-.53-1c-.18-.34-.41-.65-.59-1a19,19,0,0,0-5.4-6.13,16.38,16.38,0,0,0-7.83-2.78,12.35,12.35,0,0,0-1.92-.09l-2,.13a4.46,4.46,0,0,0-1,.15l-1,.21c-.63.17-1.29.25-1.91.48l-2.39.88a8.63,8.63,0,0,0-1.17.51l-1.16.56c-1.6.66-3.08,1.58-4.68,2.33-1,.46-1.26-.12-.87-1.23a8.38,8.38,0,0,1,1.07-2,7.14,7.14,0,0,1,2.13-2.11l2.47-1.57,2.68-1.29a18.06,18.06,0,0,1,2.83-1.05L50.18,23c.49-.12,1-.19,1.52-.28A19.48,19.48,0,0,1,64,24.56a27.22,27.22,0,0,1,11.1,10.16l1,1.81.81,1.89.39.95.31,1,.59,2a32.47,32.47,0,0,1,.8,8A42.36,42.36,0,0,1,77.68,60a31.82,31.82,0,0,1-7,13,24.41,24.41,0,0,1-9.51,6.76c-.41.15-.82.27-1.24.38a6.68,6.68,0,0,1-1.27.28,7.55,7.55,0,0,1-3.41-.09,2.84,2.84,0,0,1-1.5-1.43,5.22,5.22,0,0,1-.42-.86c-.27-.92.9-1.87,2.7-2.64.68-.24,1.31-.6,1.95-.89l.91-.53c.3-.15.6-.3.89-.47A18,18,0,0,0,63,71.35a20,20,0,0,0,4.91-6,33.82,33.82,0,0,0,2.32-5.73,31.35,31.35,0,0,0,1.33-6.3Z"/><path class="cls-1" d="M73.26,57.79a38.7,38.7,0,0,0-.59-22.48c-.24-.66-.52-1.3-.79-1.94l-.42-1-.5-.91c-.34-.6-.64-1.23-1-1.82s-.75-1.15-1.1-1.74a12.29,12.29,0,0,0-1-1.48c-.37-.47-.72-1-1.11-1.43l-1.25-1.3-.62-.65-.7-.57-1.39-1.14c-.49-.33-1-.63-1.52-.95a22.93,22.93,0,0,0-3.28-1.67,12.22,12.22,0,0,0-1.75-.64l-1.79-.58-1.83-.37a11.77,11.77,0,0,0-1.86-.28l-1.89-.16a14.9,14.9,0,0,0-1.89,0,17.33,17.33,0,0,0-1.91.08l-1.9.25A30.06,30.06,0,0,0,30.5,22.28a48,48,0,0,0-6.67,5.84A55.53,55.53,0,0,0,18.09,35c-1.11,1.52-1.55,1.06-1.41-.74a14.06,14.06,0,0,1,.74-3.61,24.2,24.2,0,0,1,.88-2.3A24.55,24.55,0,0,1,19.69,26,25.82,25.82,0,0,1,23,22.13l1.85-1.76c.61-.6,1.32-1.08,2-1.63A41.82,41.82,0,0,1,31,15.81c.75-.42,1.52-.81,2.29-1.22.39-.19.76-.41,1.16-.58l1.21-.5A31.72,31.72,0,0,1,56.37,12c1,.32,2,.6,3,.94l3,1.2A31.46,31.46,0,0,1,68,17.41,32.39,32.39,0,0,1,76.66,27a44.45,44.45,0,0,1,5,12.92,48.09,48.09,0,0,1,1,13.7,42.85,42.85,0,0,1-1.5,8.43A29.37,29.37,0,0,1,68.3,79.37a33,33,0,0,1-5.87,3,34.74,34.74,0,0,1-6.32,1.71,36.78,36.78,0,0,1-10.1.36A37.55,37.55,0,0,1,36.18,82a29.75,29.75,0,0,1-4.07-1.85,12.11,12.11,0,0,1-4.48-3.76,3.89,3.89,0,0,1-.24-3.55A10.06,10.06,0,0,1,28,71.05a2.68,2.68,0,0,1,2.54-1.27A9.6,9.6,0,0,1,34.5,71a36.63,36.63,0,0,0,13.39,4.31,23.85,23.85,0,0,0,13-2.33,22.39,22.39,0,0,0,7.62-6.19,27,27,0,0,0,2.75-4.16,11.87,11.87,0,0,0,.54-1.14l.26-.57.22-.63A21.2,21.2,0,0,0,73,57.75Z"/></g></svg>