<svg xmlns="http://www.w3.org/2000/svg" width="96" height="96" viewBox="0 0 96 96"><defs><style>.cls-1{fill:#231f20;}</style></defs><title>scribble final version</title><g id="Layer_1" data-name="Layer 1"><path class="cls-1" d="M23.81,66.18c3.83-.29,7.92-1.91,12.19-3.61,1.56-.61,3.11-1.38,4.79-1.9.75-.23,1.49-.46,2.27-.64a20.21,20.21,0,0,1,2.34-.48,21.36,21.36,0,0,1,5-.2,9.72,9.72,0,0,1,2.69.61,6.47,6.47,0,0,1,2.53,1.73A6.94,6.94,0,0,1,56.43,63a7.49,7.49,0,0,1,.47,1.35,6.84,6.84,0,0,1,.23,1.3,8.9,8.9,0,0,1,.07,1.25,55.86,55.86,0,0,1-.84,8,42.85,42.85,0,0,1-1,5,14.53,14.53,0,0,1-2.24,4.81c-.74.91-1.23.25-1.44-.85a10.36,10.36,0,0,1,0-4.39,45.73,45.73,0,0,0,.83-4.71c.21-1.61.42-3.3.57-4.86A14.24,14.24,0,0,0,53,65.74a2.66,2.66,0,0,0-.51-1.12c-.16-.27-.54-.41-1-.63a10.09,10.09,0,0,0-5,.33,41.28,41.28,0,0,0-5.54,1.9c-4.11,1.62-8.32,3.76-13.09,5a24.2,24.2,0,0,1-9.23.58,11.87,11.87,0,0,1-6.79-3.19,10.07,10.07,0,0,1-2.13-3.28,14.28,14.28,0,0,1-.91-3.58,32.58,32.58,0,0,1,.47-10.57c.15-.75.26-1.49.47-2.22.82-2.7,1.58-3.36,3.31-3.3a9,9,0,0,1,1.17.05c1.27.24,1.82,1.63,1.56,3.52-.37,2.81-.79,5.6-.9,8.19s0,5,.72,6.23a3.47,3.47,0,0,0,1,1.17,6.17,6.17,0,0,0,1.82.88,14.65,14.65,0,0,0,5.35.34Z"/><path class="cls-1" d="M50.4,37.07c2.86-.89,5.9-2,9-2.92A84.46,84.46,0,0,1,69,31.64,27.73,27.73,0,0,1,76.77,31a14.81,14.81,0,0,1,3.81.9,11,11,0,0,1,1.9,1c.3.22.62.43.89.66l.75.71a12.74,12.74,0,0,1,3.36,6.83,24.64,24.64,0,0,1,.09,6.74,47.38,47.38,0,0,1-1.17,6.28,106.42,106.42,0,0,1-3.22,10.54,75.34,75.34,0,0,1-5.63,12.72c-.73,1.24-1.37.74-1.65-.7a13.5,13.5,0,0,1,.55-6.34c1.48-4.38,2.82-8.77,3.91-13.14a50.6,50.6,0,0,0,2.1-12.83c0-2.43-.78-4.69-2.23-5.9a3.66,3.66,0,0,0-1.11-.71,4.14,4.14,0,0,0-.65-.23c-.25,0-.48-.13-.75-.16a14.71,14.71,0,0,0-3.53-.05,49.08,49.08,0,0,0-8.69,1.76c-3,.85-5.92,1.87-8.92,2.93-1.86.64-3.7,1.31-5.72,1.89L48,44.7c-1,.27-2,.53-3,.73a12.36,12.36,0,0,1-5.42,0,6.81,6.81,0,0,1-2.82-1.53,8,8,0,0,1-1-1.21A8.94,8.94,0,0,1,35,41.32,11.48,11.48,0,0,1,34.23,36a25.66,25.66,0,0,1,.85-4.77,92.66,92.66,0,0,1,4.75-13.28c.41-.93.77-1.86,1.24-2.76,1.74-3.34,2.69-4.06,4.72-3.89a12,12,0,0,1,1.37.13c1.48.31,1.8,2.33.85,4.93-1.39,3.85-3,7.54-4.47,11.21A54,54,0,0,0,41.7,33a14.53,14.53,0,0,0-.66,4.6,3.48,3.48,0,0,0,.18,1s0,.12,0,.14,0,0,0,0,0,0,0,0h0s0,0,0,0,0,0,0,0a4.25,4.25,0,0,0,1,.08,18,18,0,0,0,3.7-.7l2.35-.65c.67-.18,1.31-.37,2-.61Z"/></g></svg>