<svg xmlns="http://www.w3.org/2000/svg" width="96" height="96" viewBox="0 0 96 96"><defs><style>.cls-1{fill:#231f20;}</style></defs><title>scribble final version</title><g id="Layer_1" data-name="Layer 1"><path class="cls-1" d="M81.4,13.42a15.67,15.67,0,0,1,3.49,5,14.41,14.41,0,0,1,.73,2.12,19.15,19.15,0,0,1,.12,7.5A22.23,22.23,0,0,1,85,31.24a11.79,11.79,0,0,1-1.85,3.7c-.26.35-.39.19-.4-.23A6.08,6.08,0,0,1,83,32.9a24.66,24.66,0,0,0,1.06-7.66,12.49,12.49,0,0,0-1-4.61,14.11,14.11,0,0,0-2.73-4.26,16.53,16.53,0,0,0-2.42-2.15,17.12,17.12,0,0,0-4.36-2.33,15.9,15.9,0,0,0-3.72-.62c-.27,0-.54,0-.82-.06-1-.19-1.32-.39-1.55-1a4,4,0,0,1-.15-.4c-.1-.44.35-.82,1.21-1.06a9.36,9.36,0,0,1,2-.28,11.31,11.31,0,0,1,2,.19A17.25,17.25,0,0,1,76.4,9.86a19.71,19.71,0,0,1,5,3.5Z"/><path class="cls-1" d="M37.29,68.78c-7.15-3.06-10.77-8.13-11-14.65s5-11.56,5.3-11.59h4.85l3.66,26.24Z"/><path class="cls-1" d="M69.58,42.3c-11.92,1.82-15.91-11.6-16-12,0,0,2.94-1.17,6.63,1.12s7,4.91,8.39,7.19S69.58,42.3,69.58,42.3Z"/><path class="cls-1" d="M61,63.38v6.13s6.81-4.52,8.66-7.59S61,63.38,61,63.38Z"/><path class="cls-1" d="M89.06,72.67c.13,1,.25,2,.35,3.06A22.89,22.89,0,0,1,89.52,79a3.78,3.78,0,0,1-.62,2.07l-.53.47-.58.35a24.1,24.1,0,0,1-3.91,1.25l-3.79.93c-1.11.26-2.2.63-3.29.93-1.41.39-2.81.78-4.25,1.07-.45.08-.46-.13-.19-.5A5,5,0,0,1,74,84.22a35.25,35.25,0,0,1,8.49-2.91A16.94,16.94,0,0,0,85,80.5c.42-.17.81-.35,1.18-.53a5.34,5.34,0,0,0,.49-.28.63.63,0,0,0,.18-.12h0a.42.42,0,0,0,.11-.22,2.58,2.58,0,0,0,0-.54,13.61,13.61,0,0,0-.07-1.39c-.09-1-.23-2-.38-2.93-.2-1.22-.4-2.44-.63-3.66-.35-1.85-.66-3.73-1-5.58-.32-1.43-.67-2.84-.89-4.33a4.71,4.71,0,0,1-.09-1c.05-1.28.36-1.74,1-1.9a2.51,2.51,0,0,1,.44-.1c.47,0,.77.48,1,1.24a44.72,44.72,0,0,1,1.82,7.5l1,6Z"/><path class="cls-1" d="M10.14,56.8c0,1.27.06,2.55.16,3.85,0,.47.21.92.23,1.4.06.84.08,1.69.06,2.56s0,1.73,0,2.58a16.68,16.68,0,0,0,.24,2.24A7.33,7.33,0,0,1,11,72.31c-.07.3-.66.33-1.31.16s-1.38-.53-1.55-1a20.6,20.6,0,0,1-1.22-5.49,6.82,6.82,0,0,0-.34-1.71c-.15-.57-.33-1.14-.44-1.72-.24-1.28-.44-2.58-.63-3.9l-.31-2.45c-.2-1.23-.12-2.51-.31-3.73A10.07,10.07,0,0,0,4.55,51c-.11-.47-.23-.94-.32-1.41A1.27,1.27,0,0,1,4.17,49c.17-.79.52-1.05,1.41-1.23.2,0,.4-.09.6-.11a2,2,0,0,1,1.72.74c1.36,1.55,1.58,3.12,2,4.73a21.15,21.15,0,0,1,.39,3.68Z"/><path class="cls-1" d="M69.16,56a19.72,19.72,0,0,0-1.09-12.68,20.9,20.9,0,0,0-2.48-4.11,19.74,19.74,0,0,0-22.13-7.3,15,15,0,0,0-4.18,2.3c-.32.24-.64.47-.94.74s-.72.4-1.08.63c-.71.45-1.51.86-2.24,1.38-1,.58-1.14.33-1.12-.88a16.8,16.8,0,0,1,.24-2.54A8.64,8.64,0,0,1,34.63,32c.11-.28.27-.51.39-.81a6.28,6.28,0,0,1,.64-.62,19.4,19.4,0,0,1,5.65-3.22,21,21,0,0,1,6.21-1.2,24.05,24.05,0,0,1,12,2.35A27,27,0,0,1,70.67,38.1a25.71,25.71,0,0,1,3.82,15.45A23.78,23.78,0,0,1,71.73,63,25.32,25.32,0,0,1,61,73l-.62.35-.68.33c-.46.2-.92.39-1.37.56-.91.34-1.82.62-2.73.88A23.63,23.63,0,0,1,50,76a18.05,18.05,0,0,1-2.55,0,6.88,6.88,0,0,1-3.37-1,2.81,2.81,0,0,1-.71-.88,3.26,3.26,0,0,1-.24-1.06,6.22,6.22,0,0,1-.08-.88c.05-.43.43-.67,1-1a4.43,4.43,0,0,1,2.27-.51,29.13,29.13,0,0,0,4.19-.45c.71-.13,1.42-.27,2.12-.44s1.41-.26,2.09-.44,1.36-.35,2-.54c.3-.11.61-.21.88-.32L58,68.4l.47-.24a21.07,21.07,0,0,0,1.87-1l.91-.55c.3-.19.57-.41.86-.61A17.49,17.49,0,0,0,69,56Z"/><path class="cls-1" d="M74,12.76a15.07,15.07,0,0,0-12.12.88,14.59,14.59,0,0,0-3.5,2.93C54.7,20.52,53,26.76,55.15,32.16a11.38,11.38,0,0,0,2,3.24A12.83,12.83,0,0,0,60,37.85c2.77,1.77,6.12,2.61,9.56,3.36,1.07.25.92.89-.1,1.54a6.94,6.94,0,0,1-2.15.87,10.35,10.35,0,0,1-1.47.22,9.22,9.22,0,0,1-1.64-.09,20.17,20.17,0,0,1-6-1.91,16.75,16.75,0,0,1-5-4.24,17.07,17.07,0,0,1-3.49-12.29,21.85,21.85,0,0,1,2-7.41,19.21,19.21,0,0,1,4.58-6.21A19.56,19.56,0,0,1,72.05,7.23a19,19,0,0,1,9.24,4,17.78,17.78,0,0,1,4.76,6A11.23,11.23,0,0,1,86.82,19c.21.6.46,1.19.62,1.79a27.34,27.34,0,0,1,.73,3.71A20.8,20.8,0,0,1,88,30.4a16.63,16.63,0,0,1-2.21,5.68A12.45,12.45,0,0,1,85,37.22a7.26,7.26,0,0,1-.85,1.07,9.24,9.24,0,0,1-.82.83c-.28.21-.55.4-.79.56a4.54,4.54,0,0,1-1.34.59,2.52,2.52,0,0,1-2.06-.45,5.29,5.29,0,0,1-.83-.58c-.72-.73-.17-2.14,1-3.63a15.4,15.4,0,0,0,3.49-6.79A13.64,13.64,0,0,0,83,25a10.7,10.7,0,0,0-.31-2l-.2-1L82.18,21A12.53,12.53,0,0,0,74,12.88Z"/><path class="cls-1" d="M28.54,55.12a15.42,15.42,0,0,0,1,4.37,8.8,8.8,0,0,0,.8,1.44,12.93,12.93,0,0,0,3.89,4.46,6,6,0,0,0,1.19.66,5.43,5.43,0,0,0,1.27.48c.57.14,1.14.29,1.71.4a6.48,6.48,0,0,1,1.73.44c.36.15.3.8-.08,1.43A2.38,2.38,0,0,1,38.06,70a11.61,11.61,0,0,1-7.85-3.6c-.29-.34-.6-.66-.92-1s-.56-.68-.86-1a12.28,12.28,0,0,1-1.57-2.16A8.77,8.77,0,0,1,26.23,61a13.1,13.1,0,0,1-.54-1.35,17,17,0,0,1-.65-2.8,21.37,21.37,0,0,1-.13-3.48c.1-.87.19-1.75.35-2.59l.31-1.26a8.39,8.39,0,0,1,.34-1.24c.22-.63.34-1.28.55-1.91s.48-1.23.74-1.85a4.41,4.41,0,0,1,.42-.77c.61-.91,1-1.08,1.68-.83a2.38,2.38,0,0,1,.47.17,1.25,1.25,0,0,1,.43,1.57,42.86,42.86,0,0,0-1.47,6,16.74,16.74,0,0,0-.1,4.47Z"/><path class="cls-1" d="M40,45.32c.24,4.28.45,8.52.83,12.73.13,1.53.42,3,.59,4.55l.27,2.12.16,1,.15.81c.06.31.12.61.2.91a3.76,3.76,0,0,1,.12,1.17,3.4,3.4,0,0,1-.07.49.91.91,0,0,1-.19.46,4.2,4.2,0,0,1-1.84,1.3c-.38.17-.77.31-1.16.45l-.58.21-.4.12-1.5.44c-2,.54-4,1-6,1.4-2.44.48-4.89,1-7.34,1.32a24.15,24.15,0,0,1-9.58-.08c-1-.25-.74-.91.13-1.56a9.09,9.09,0,0,1,4-1.67c.74-.08,1.49-.23,2.23-.3s1.5-.17,2.25-.28c1.5-.21,3-.46,4.51-.75,3-.57,6-1.26,9-2,.41-.11.85-.24,1.23-.36l.41-.09a1.5,1.5,0,0,0,.41-.18,1.38,1.38,0,0,0-.09-.42,2,2,0,0,0,0-.24l-.15-.67-.31-1.57c-.19-1-.35-2.09-.48-3.13-.54-4.33-.86-8.64-1.18-12.94l-.14-2-.07-.94,0-.5c0-.33,0-.67-.07-1,0-.12-.1-.09-.17-.08h-.25l-.5,0L29,44.53c-2,.17-4,.35-6,.59C20,45.51,17,46.1,14,46.54c-.67.1-1.32.24-2,.31-2.5.3-3.34,0-4-1.1A5.65,5.65,0,0,1,7.55,45c-.32-.83.63-1.68,2.43-2.23,2.67-.74,5.44-1.34,8.26-1.85s5.7-.72,8.58-1c2.16-.2,4.26-.37,6.48-.53,1-.08,2.13-.23,3.12-.24l1.18.37.59.18.29.1.07,0h.05l-.3.38h0l.11.07a11.32,11.32,0,0,1,1,.6,4,4,0,0,1,.39,1.39c.07.51.12,1,.17,1.56l.13,1.46Z"/><path class="cls-1" d="M85.31,70.19l-1.11-5-.57-2.56-.28-1.3L83.28,61l0-.17c0-.07,0,0,0,0v-.37s0-.09,0-.13-.07,0-.11-.05a2.67,2.67,0,0,0-.49,0H82.5l-.32.06-.65.12-1.3.26c-.87.18-1.75.37-2.63.52l-9.46,1.69c-1.58.27-3.17.54-4.77.77l-.6.09-.42,0-.53.06h-.14s0,.08,0,.12l-.06.26c0,.18,0,.36-.07.54s0,.29,0,.43v.51c0,.33,0,.67,0,1,0,.68.08,1.37.14,2.06.15,1.38.33,2.77.52,4.15.49,3.56,1.32,7.09,1.15,10.9-.12,1.26-.74,1-1.4.06a11.84,11.84,0,0,1-2-4.47L58.75,74a46.52,46.52,0,0,1-.81-5.63c0-.47-.07-1-.09-1.46s0-1,0-1.51v-.85l.16-1.3c.08-.87.28-1.71.43-2.54,0-.07.06-.06.11-.07l.16,0,.32-.05.65-.1,1.28-.19L62.71,60l2.72-.4c4.36-.65,8.79-2,13.29-3,.65-.13,1.3-.27,2-.39l1-.17L82.4,56l.79-.11a5.12,5.12,0,0,1,2.86.27,1,1,0,0,1,.48.43c.08.14.18.34.28.53s.16.46.24.68.07.55.11.82l.26,1.35.18.85L88,62.49,88.81,66c.7,3,1.39,6,1.94,9.14.21,1.17.39,2.36.5,3.58a19.11,19.11,0,0,1,.09,1.93A7.29,7.29,0,0,1,91,83.05c-.08.18-.18.35-.27.53s-.26.29-.44.39a4.48,4.48,0,0,1-1.09.49c-.4.12-.8.23-1.2.31L87,85c-1.18.21-2.33.39-3.48.58-3.57.61-7,1.25-10.51,1.89-.76.14-1.5.32-2.27.45-2.85.45-3.82.19-4.61-.49a4.2,4.2,0,0,1-.53-.47c-.21-.27-.05-.59.42-1a7.88,7.88,0,0,1,2.27-1.25,79.88,79.88,0,0,1,9.58-2.58c1.62-.39,3.27-.63,4.9-.89l2.42-.39,1.17-.21.51-.11a0,0,0,0,0,0,0v-.23c0-.12,0-.25,0-.39s0-.53-.06-.81c0-.55-.13-1.12-.21-1.7-.34-2.33-.86-4.75-1.41-7.15Z"/></g></svg>