<svg xmlns="http://www.w3.org/2000/svg" width="96" height="96" viewBox="0 0 96 96"><defs><style>.cls-1{fill:#231f20;}</style></defs><title>scribble final version</title><g id="Layer_1" data-name="Layer 1"><path class="cls-1" d="M61.79,45.35l-.69.47c-.21.17-.4.37-.61.56l-1.24,1.14-1.06,1.33-.54.68a8.12,8.12,0,0,0-.45.74c-.4.76-.77,1.51-1.11,2.3l-.92,2.12a6,6,0,0,0-.38,1.1l-.33,1.13a26.15,26.15,0,0,0-.94,4.69,30.86,30.86,0,0,0,0,4.3c-.08.92,0,1.84,0,2.78a20.87,20.87,0,0,1-.14,2.83c-.08.6-.55.61-1.18.2a5.23,5.23,0,0,1-1.94-2.32C48.51,65.56,49,61.26,50,57.23c.2-.6.35-1.21.49-1.83s.22-1.25.44-1.86l.54-1.86a9.35,9.35,0,0,1,.67-1.83,21.78,21.78,0,0,1,2.09-3.74c.42-.59.79-1.2,1.26-1.75L57,42.78l.45-.48c.16-.16.34-.29.5-.43l1-.84c.35-.27.67-.57,1-.81l1.12-.69a22.55,22.55,0,0,1,3.54-1.78c.59-.27,1.24-.42,1.85-.64a16,16,0,0,1,1.86-.58c1-.24,1.93-.61,2.91-.81l1.48-.37c.5-.12,1-.15,1.52-.23A12.13,12.13,0,0,1,75.6,35c1.69.1,2.19.55,2.34,1.93,0,.31.08.63.08.94A2.25,2.25,0,0,1,76.25,40a84.77,84.77,0,0,0-8.69,2.32,20.33,20.33,0,0,0-5.68,3.17Z"/><path class="cls-1" d="M75.67,42.7A19.42,19.42,0,0,0,77,40.49a5.44,5.44,0,0,1,.78-1.08c.13-.17.32-.39.4-.52a1.22,1.22,0,0,1,.15-.27l0-.15c0-.21-.23-.3-.33-.45L78,38l-.15-.15c-.12-.1-.22-.2-.35-.3s-.48-.39-.74-.59c-.53-.38-1.08-.76-1.65-1.12a39.1,39.1,0,0,0-3.59-2,24.07,24.07,0,0,0-3.42-1.31c-1.46-.48-2.93-1.14-4.29-1.71-.34-.15-.42-.51.07-1a4.26,4.26,0,0,1,2.47-.92A20.11,20.11,0,0,1,69,29.1c.81.22,1.61.48,2.4.77A25.8,25.8,0,0,1,75.94,32c.87.53,1.81,1,2.76,1.49.48.26,1,.51,1.45.83.14.08.21.14.4.24l.5.38a7.38,7.38,0,0,1,.9.86,4.3,4.3,0,0,1,.86,1.43,3.41,3.41,0,0,1,0,1.65l-.17.81-.08.4,0,.3c-.07.41-.12.82-.22,1.23a16.69,16.69,0,0,1-1,2.25,40.46,40.46,0,0,1-2.24,3.68c-1.19,1.78-2.53,3.39-3.65,5.11a16.79,16.79,0,0,0-1.12,2.09l-.49,1.09c-.18.35-.37.69-.56,1s-.3.61-.5.89c-.77,1-1.42,1.06-2.67.51-.29-.12-.58-.23-.85-.37a2.34,2.34,0,0,1-1.18-2.49,13.24,13.24,0,0,1,.57-2.23,7.87,7.87,0,0,1,.94-2A41.3,41.3,0,0,1,72,47.6c1.27-1.71,2.54-3.31,3.55-5Z"/><path class="cls-1" d="M36.31,44.62c.59.52,1.2,1,1.77,1.55l1.58,1.72c.26.29.54.56.78.86l.68.94,1.34,1.87c.56,1,1.21,1.86,1.73,2.84s.74,1.79,1.11,2.68l.51,1.35.37,1.38.71,2.74.44,2.77c.13.81.33,1.62.4,2.43s.28,1.62.3,2.43c0,.52.08,1,.1,1.56s0,1-.05,1.56a27.17,27.17,0,0,1-.36,3.11c-.13.64-.6.55-1.2,0a6,6,0,0,1-1.74-2.58c-.27-1-.48-2-.84-2.91l-.24-.71a6,6,0,0,1-.11-.72l-.16-1.46c-.11-1-.35-1.9-.47-2.87l-.2-1.46-.31-1.43A11.41,11.41,0,0,0,41.3,59l-.81-1.59c-.26-.54-.64-1-.93-1.51s-.65-1.12-1-1.64l-1.19-1.52c-.21-.25-.38-.52-.61-.75l-.68-.69c-.46-.45-.9-.93-1.38-1.36L32.78,48.4c-.65-.48-1.36-.86-2-1.3a14.14,14.14,0,0,0-1.63-.87c-.56-.25-1.1-.56-1.68-.78a21,21,0,0,0-3.55-1.07c-.47-.09-.95-.16-1.42-.22s-1,0-1.44,0H19.61l-1.42.1a10.43,10.43,0,0,1-1.24.07c-1.55,0-2-.33-2.42-1.69-.08-.32-.2-.62-.26-.93-.2-1,.46-1.93,1.74-2.29a21.53,21.53,0,0,1,12,.73,29.49,29.49,0,0,1,4.36,1.81c.7.38,1.37.81,2.05,1.22l1,.64.93.74Z"/><path class="cls-1" d="M12.11,49a29.35,29.35,0,0,1-1.24-2.86,4.66,4.66,0,0,1-.39-1.54l-.06-.89-.07-1.19-.11-.58c0-.09-.08-.19,0-.29v-.29a3.92,3.92,0,0,1,.29-1.13,6.45,6.45,0,0,1,1.23-1.65,9.13,9.13,0,0,1,1.77-1.29,32.16,32.16,0,0,1,4.33-1.83c1.43-.51,2.86-1,4.28-1.41,1.26-.4,2.49-.87,3.72-1.32a13.7,13.7,0,0,1,5.09-.8c.66.08.48.47.14,1a6.14,6.14,0,0,1-1.67,1.87c-.71.42-1.4.91-2.13,1.3L25,37c-1.53.58-3.08,1.14-4.65,1.64a13.39,13.39,0,0,0-2.69,1.23c-.42.25-.84.52-1.22.78l-.29.2a1.12,1.12,0,0,1-.21.14l-.21.13c-.28.16-.65.44-.6.83a1.34,1.34,0,0,1,.07.18.59.59,0,0,0,.11.26,4.64,4.64,0,0,1,.39.77c.21.54.41,1.08.67,1.61a23.05,23.05,0,0,0,1.95,3.38A37.23,37.23,0,0,0,22.23,53a18,18,0,0,0,1.88,1.59l1,.73c.32.26.62.53.93.81s.57.45.81.72c.87,1,.75,1.72-.1,2.84-.2.27-.38.54-.59.77a2.47,2.47,0,0,1-2.79.61c-3-1.14-5.05-3.38-7.12-5.81A41.69,41.69,0,0,1,12,49.07Z"/><path class="cls-1" d="M81.76,29.11c.11.18-.2.32-.68.45a1.57,1.57,0,0,1-.69,0,3.28,3.28,0,0,1-.39-.34c-.06-.06-.5-1.19-.67-1.62a2.39,2.39,0,0,1-.22-1.21,17,17,0,0,1,.47-2.4,1.31,1.31,0,0,1,.28-.48,5,5,0,0,0,.9-1.61.37.37,0,0,0,0-.33c-.12-.26.74-1.72,1-1.8.51-.28,1-.58,1.43-.83.07,0,.08-.13.25-.06a.52.52,0,0,0,.59-.06,2.29,2.29,0,0,1,.67-.22,2,2,0,0,1,.52.1,1.49,1.49,0,0,1,.48.5c0,.17.26.29.4.44a2.11,2.11,0,0,1,.15.15,5.73,5.73,0,0,1,.07.86c0,.41.08.87,0,.88a10.68,10.68,0,0,0-.83,1.42c0,.08-.15.1-.24.13a9.51,9.51,0,0,0-.48,1.09c-.16.17-.17.41-.55.47-.07,0-.08.06-.1.1a6,6,0,0,1-.64,1,2.45,2.45,0,0,0-.21.57s-.07.06-.1.09-.09.07-.1.12c0,.24-.16.46-.22.7a2.68,2.68,0,0,0-.25.72c0,.11-.49.64-.49.78S81.7,29,81.76,29.11Z"/><path class="cls-1" d="M84.69,44.91c-.19.06-.19-.27-.13-.76a1.82,1.82,0,0,1,.25-.64,4.73,4.73,0,0,1,.39-.28c.07,0,1.08-.15,1.44-.25a1.76,1.76,0,0,1,.93,0c.53.17,1.06.29,1.56.41a.67.67,0,0,1,.3.18,1.29,1.29,0,0,0,1,.42c.06,0,.12,0,.2-.08s1.07-.11,1.17,0a4.1,4.1,0,0,0,.85.6s.09,0,.13.13c.11.37.21.33.31.38a2.23,2.23,0,0,1,.45.27,1.93,1.93,0,0,1,.27.41,1.65,1.65,0,0,1,.11.68,1.47,1.47,0,0,0,.08.6l0,.21a3.71,3.71,0,0,1-.47.72c-.26.34-.57.68-.63.65s-1.71.19-1.91.2-.19-.09-.28-.16-1.38,0-1.42-.09c-.24-.12-.54-.07-.69-.46,0-.08-.08-.08-.13-.09a3.61,3.61,0,0,1-1.16-.62,4.29,4.29,0,0,0-.58-.26s0-.07-.08-.11-.06-.1-.1-.11a4.07,4.07,0,0,1-.65-.35,4.38,4.38,0,0,0-.59-.4c-.1,0-.41-.63-.52-.66S84.76,44.88,84.69,44.91Z"/><path class="cls-1" d="M14.7,29.56c.21,0,.16.33,0,.82a1.45,1.45,0,0,1-.37.57,3.51,3.51,0,0,1-.5.15,15.61,15.61,0,0,1-1.76-.35,2.38,2.38,0,0,1-1.13-.5,17.05,17.05,0,0,1-1.72-1.68A1.18,1.18,0,0,1,9,28.09a4.72,4.72,0,0,0-.88-1.6c-.07-.08-.1-.18-.27-.2s-1.08-1.56-1-1.81c0-.6,0-1.17.06-1.74,0-.08-.07-.15.08-.26a.58.58,0,0,0,.29-.55,1.87,1.87,0,0,1,.21-.71,1.59,1.59,0,0,1,.4-.36,1.33,1.33,0,0,1,.69-.07c.17.08.39,0,.6,0l.21,0a6.26,6.26,0,0,1,.72.45c.34.21.74.38.7.44A7.16,7.16,0,0,0,11.45,23c.06.07,0,.17,0,.27a10.72,10.72,0,0,0,.68,1c.06.23.28.36.13.73,0,.07,0,.1,0,.14a5.71,5.71,0,0,1,.54,1.11,2.82,2.82,0,0,0,.38.51s0,.09,0,.13a.28.28,0,0,0,0,.16c.17.17.3.39.47.58a2.57,2.57,0,0,0,.46.61c.07.09.25.77.38.83S14.6,29.57,14.7,29.56Z"/><path class="cls-1" d="M10.36,50.47c.17-.16.41.09.65.53a1.61,1.61,0,0,1,.13.67c-.07.17-.13.33-.2.46a8.72,8.72,0,0,0-1,1.14,2.11,2.11,0,0,1-.65.7A10.51,10.51,0,0,0,7.87,55a.89.89,0,0,1-.37.16,1.72,1.72,0,0,0-1.11.76.23.23,0,0,0-.07.25,2.92,2.92,0,0,1-.83,1.2A5.54,5.54,0,0,0,4.38,58c-.06,0,0,.11-.2.07-.37-.09-.41,0-.52.11a3.14,3.14,0,0,1-.51.31,2.32,2.32,0,0,1-.52.06A1.32,1.32,0,0,1,2,58.23c-.11-.14-.36-.17-.55-.25l-.2-.08A3.67,3.67,0,0,1,1,57a2.48,2.48,0,0,1-.14-1s.23-.48.48-1l.62-1c.05-.11.2-.14.31-.19s1-1.3,1-1.32c.27-.18.46-.47.9-.43.09,0,.13,0,.18-.08a5.23,5.23,0,0,1,1.44-.76c.26-.11.48-.27.73-.4,0,0,.11,0,.16,0a.58.58,0,0,0,.19,0,5.87,5.87,0,0,1,.9-.37c.31-.09.64-.14.94-.25.15-.05.94.11,1.1.06S10.3,50.54,10.36,50.47Z"/></g></svg>