<svg xmlns="http://www.w3.org/2000/svg" width="96" height="96" viewBox="0 0 96 96"><defs><style>.cls-1{fill:#231f20;}</style></defs><title>scribble final version</title><g id="Layer_1" data-name="Layer 1"><path class="cls-1" d="M36.73,67.71c-2.64-.18-5.3-.32-8-.39-1,0-1.94.11-2.91.07-3.43-.13-6.87-.21-10.32-.4-1.53-.06-3.06,0-4.58.07a22.77,22.77,0,0,1-5.88-.17c-.62-.12-.53-.69,0-1.33a4.71,4.71,0,0,1,2.49-1.64,59.45,59.45,0,0,1,11.8-1.13,66.8,66.8,0,0,0,7.31-.38c2.69-.12,5.39-.17,8.09-.2l5,0c2.52,0,5.06.05,7.57,0,1,0,2-.12,2.94-.23s2-.24,3-.29c.44,0,.88-.11,1.32-.11a3.34,3.34,0,0,1,.58.06,4.24,4.24,0,0,1,.47.17,1.46,1.46,0,0,1,.66.5A4.29,4.29,0,0,1,56.77,64c0,.29.09.57.09.82a2,2,0,0,1-.53,1.23c-.18.22-.39.47-.64.73a1.68,1.68,0,0,1-.78.48,26.35,26.35,0,0,1-5,.75c-1.7.07-3.46.2-5.21.1-2.62-.07-5.28-.24-7.95-.3Z"/><path class="cls-1" d="M51.08,39.15c-3.28-.19-6.58-.35-9.88-.43-1.21,0-2.4.13-3.61.09-4.26-.14-8.52-.22-12.8-.43-1.9-.06-3.79,0-5.67.1a28.76,28.76,0,0,1-7.29-.19c-.76-.14-.65-.81,0-1.56a5.83,5.83,0,0,1,3.09-1.95c2.4-.41,4.83-.75,7.26-1a47.71,47.71,0,0,1,7.38-.35c3,.18,6-.34,9.08-.48,3.33-.15,6.68-.22,10-.26l6.19,0c3.13,0,6.27.06,9.39,0,1.21,0,2.42-.13,3.64-.27l1.82-.21L71.54,32c.54,0,1.08-.13,1.63-.12a5.17,5.17,0,0,1,.72.07,4.37,4.37,0,0,1,.58.21,1.93,1.93,0,0,1,.82.59,5,5,0,0,1,.64,2.06c0,.35.12.68.12,1a2.22,2.22,0,0,1-.65,1.45,11.26,11.26,0,0,1-.78.87,1.16,1.16,0,0,1-.47.34,3.75,3.75,0,0,1-.5.21,33,33,0,0,1-6.23.86c-2.11.09-4.29.24-6.47.12-3.25-.07-6.55-.28-9.86-.33Z"/><path class="cls-1" d="M44.49,54.55c0,3.8,1.13,17.66,2.45,18.41S69.44,69.49,69.2,69C67.82,66.44,44.49,53.34,44.49,54.55Z"/><path class="cls-1" d="M60.71,23c0,4.71,1.4,21.9,3,22.83S91.65,41.57,91.35,41C89.64,37.78,60.71,21.53,60.71,23Z"/></g></svg>