<svg xmlns="http://www.w3.org/2000/svg" width="96" height="96" viewBox="0 0 96 96"><defs><style>.cls-1{fill:#231f20;}</style></defs><title>scribble final version</title><g id="Layer_1" data-name="Layer 1"><path class="cls-1" d="M48.81,26.92s3.49,6.37.59,12.6-10.55,9.26-11.72,9.64,7.06.48,7.06.48,7.74-2.87,9.22-7.12,1.31-8.69.21-10.6S48.81,26.92,48.81,26.92Z"/><path class="cls-1" d="M57,41.38A14.06,14.06,0,0,1,54.52,46,12.71,12.71,0,0,1,52.64,48a17,17,0,0,1-2,1.41,34.75,34.75,0,0,1-8,3.21c-1.84.54-3.43,1.22-5,1.83A28,28,0,0,0,30,59a19.11,19.11,0,0,0-5.29,7,13.39,13.39,0,0,0-.62,1.85c-.15.63-.24,1.28-.33,1.93s-.09,1.3,0,2l.08,1a7.93,7.93,0,0,0,.07,1,25.68,25.68,0,0,0,1.22,5c.53,1.69,1.15,3.43,1.75,5.21.36,1.12-.3,1.32-1.5.83A9.66,9.66,0,0,1,21,81.19a22.87,22.87,0,0,1-2.59-6,16,16,0,0,1-.29-6.87,19.29,19.29,0,0,1,2.19-6.54A22.68,22.68,0,0,1,22.15,59a23.74,23.74,0,0,1,2.25-2.44,38.56,38.56,0,0,1,12.93-8.45c2.62-.93,5.09-1.56,7.29-2.44a11.47,11.47,0,0,0,5.24-3.53,9.62,9.62,0,0,0,1.41-7.44,22.89,22.89,0,0,0-2.56-6.15,34.54,34.54,0,0,1-3.11-7A16.23,16.23,0,0,1,45,15.11,12.89,12.89,0,0,1,47.46,9a14.2,14.2,0,0,1,1.83-2.16A7.6,7.6,0,0,1,52.42,5a2.52,2.52,0,0,1,2,.4,6.44,6.44,0,0,1,.82.53c.72.65.12,2.1-1.19,3.66a26.23,26.23,0,0,0-2.34,3.43,7.87,7.87,0,0,0-.89,3.27,10.41,10.41,0,0,0,.51,3.51,19.31,19.31,0,0,0,1.78,3.81,41.48,41.48,0,0,1,3.72,7.63,17.91,17.91,0,0,1,.9,5,16.49,16.49,0,0,1-.65,5.15Z"/><path class="cls-1" d="M58.09,64.66c5.67-2.44,6.38-4.79,7.56-7.31,1.61-3.48.84-7.93.84-7.93a6.53,6.53,0,0,1,2.7,5.49c0,3.76-3.19,6.13-5.08,8.22S58.09,64.66,58.09,64.66Z"/><path class="cls-1" d="M65.21,66.83a24,24,0,0,1-6.29,2.27c-2,.47-4,.77-5.84,1.08-1.34.24-2.6.66-3.87.95A26.63,26.63,0,0,0,43,73.34a9.58,9.58,0,0,0-4.25,4.24c-.09.2-.2.4-.28.61l-.19.66A4.55,4.55,0,0,0,38,80.12a10.88,10.88,0,0,0,.25,2.69,12.06,12.06,0,0,0,1.37,3.32c.16.25.3.52.48.75a6.47,6.47,0,0,0,.45.77,8,8,0,0,0,1.12,1.42c.53.53.33,1.05-.72,1.34a4.75,4.75,0,0,1-2.14,0A5.63,5.63,0,0,1,37.49,90c-.23-.1-.42-.24-.66-.36a4.4,4.4,0,0,1-.54-.52,14.72,14.72,0,0,1-2.76-4.51A10.55,10.55,0,0,1,32.77,79a13.3,13.3,0,0,1,5.82-9A34.71,34.71,0,0,1,49.2,65.31c4-1,7.72-1.3,11-2.55A10.14,10.14,0,0,0,65,59.43a8.78,8.78,0,0,0,1.5-4.08,20.33,20.33,0,0,0-.42-5A14.46,14.46,0,0,1,66,45.53,11.09,11.09,0,0,1,68,40.88a11.69,11.69,0,0,1,1.42-1.63,7.22,7.22,0,0,1,1.38-1A3.15,3.15,0,0,1,72,38a2.32,2.32,0,0,1,1.71.65,5.05,5.05,0,0,1,.63.57,1.4,1.4,0,0,1,.13,1.3,8.1,8.1,0,0,1-.74,1.82c-1.25,1.59-2.08,3.55-1.94,4.7.06.67.07,1.47.22,2.56s.39,2.44.48,4.09a14,14,0,0,1-.31,3.9A13.78,13.78,0,0,1,65.3,67Z"/></g></svg>