<svg xmlns="http://www.w3.org/2000/svg" width="96" height="96" viewBox="0 0 96 96"><defs><style>.cls-1{fill:#231f20;}</style></defs><title>scribble final version</title><g id="Layer_1" data-name="Layer 1"><path class="cls-1" d="M46.38,71.78A45.55,45.55,0,0,1,42.78,76a48.59,48.59,0,0,1-4.12,3.74c-.55.41-1.06.85-1.58,1.28a18.86,18.86,0,0,1-1.63,1.19,37.87,37.87,0,0,1-6.33,3.18c-1.07.48-2.2.79-3.29,1.18s-2.21.67-3.34.9-2,.48-3,.65-2,.42-3,.55a24.91,24.91,0,0,1-7.65.45c-.8-.1-.72-.89-.11-1.76a5.52,5.52,0,0,1,3.07-2.15c2.41-.5,4.75-1.09,7-1.76s4.62-1.16,6.9-1.94a24.43,24.43,0,0,0,7.5-4.44,42.33,42.33,0,0,0,6.86-6.85,44.31,44.31,0,0,0,3.46-5,51.58,51.58,0,0,0,4.05-8.48,67.13,67.13,0,0,0,1.79-7.14c.13-.54.2-1.08.36-1.61.62-2,1.28-2.47,3-2.23A9.18,9.18,0,0,1,54,46a2.49,2.49,0,0,1,1.76,2.93,46.7,46.7,0,0,1-3.81,13.34,58.23,58.23,0,0,1-5.42,9.64Z"/><path class="cls-1" d="M66.86,48.47l.32,1.27c.12.57.2,1.14.26,1.67a19,19,0,0,1,.14,2.92,3.28,3.28,0,0,1-.69,1.94c-.09.12-.29.19-.4.37a1.46,1.46,0,0,1-.47.18,4.94,4.94,0,0,1-.86,0,4.58,4.58,0,0,1-1.57-.33,13.89,13.89,0,0,1-2.08-1.2c-.31-.21-.62-.42-.92-.6l-.8-.48c-.32-.19-.64-.37-1-.54a19.69,19.69,0,0,0-2-.93,22.08,22.08,0,0,0-4.37-1.22,20,20,0,0,0-4.09-.22c-1.75,0-3.49.28-5.29.18-.56,0-.59-.68-.2-1.39a3.43,3.43,0,0,1,2.27-1.74A27.8,27.8,0,0,1,48,48a26.11,26.11,0,0,1,2.93.07,21.75,21.75,0,0,1,5.81,1.27c1.12.42,2.26.83,3.39,1.3L61,51l.57.27a3.23,3.23,0,0,1,.49.3l.59.43a1.24,1.24,0,0,0,.36.19c.06,0,.15,0,.18,0a.25.25,0,0,0,.06-.14,5,5,0,0,0-.07-1.41l-.1-.55L62.77,49c-.19-.72-.41-1.44-.65-2.14a28,28,0,0,0-2.74-6.16,14,14,0,0,0-3.29-3.52c-.26-.19-.54-.32-.79-.47a3.17,3.17,0,0,1-.94-.66,4.72,4.72,0,0,1-.41-1c-.06-.18-.14-.35-.19-.52s0-.52.38-.78a2.12,2.12,0,0,1,1.68-.37,10.16,10.16,0,0,1,5.22,3,11.41,11.41,0,0,1,1.75,2.21A24.79,24.79,0,0,1,64.15,41,42.19,42.19,0,0,1,67,48.44Z"/><path class="cls-1" d="M64.48,54.42l0-.08v-.18l0-.39c0-.48.05-1,0-1.49a31.81,31.81,0,0,0-.21-3.18,40.75,40.75,0,0,0-1.31-6.45,31,31,0,0,0-1.76-4.31,13.22,13.22,0,0,0-.9-1.6c-.16-.22-.32-.42-.46-.58a1,1,0,0,0-.27-.24c-.22-.16-.28-.11-1.09-.11a12.23,12.23,0,0,0-2,.18,28,28,0,0,0-8,2.77A37.88,37.88,0,0,0,42.15,43c-1.28,1-2.54,2.13-3.72,3.26a45.56,45.56,0,0,0-3.33,3.35c-.47.58-1.33.42-1.63-.9a6.26,6.26,0,0,1,1.59-5,42.22,42.22,0,0,1,4-3.84,47,47,0,0,1,4.44-3.23,33.77,33.77,0,0,1,10.21-4.54c.56-.12,1.11-.28,1.69-.39l1.77-.29c.58-.11,1.22-.1,1.83-.16a4.83,4.83,0,0,1,2.57.37,6.57,6.57,0,0,1,2,1.46,12.31,12.31,0,0,1,1.26,1.56,19,19,0,0,1,1.75,3.15A40.92,40.92,0,0,1,68.92,45a40.15,40.15,0,0,1,1.1,7.4c0,.39,0,.79,0,1.19v.89l0,.41A8.47,8.47,0,0,1,69.44,58a3.71,3.71,0,0,1-.84,1.26,4.23,4.23,0,0,1-1.31.81,8,8,0,0,1-3.09.32,10,10,0,0,1-1.2-.19c-.38-.09-.66-.2-1-.3l-.48-.15-.41-.16-.81-.33L57.26,57.9a53.61,53.61,0,0,0-6-2.27A26,26,0,0,0,42,54.71c-.64,0-1.24.25-1.87.29s-1,.19-1.44.2a4.86,4.86,0,0,1-.56,0,1.78,1.78,0,0,1-.47-.07A3.5,3.5,0,0,1,36,53.74c-.26-.33-.56-.63-.77-1a1.66,1.66,0,0,1,0-1.82,4.36,4.36,0,0,1,.84-1,3.45,3.45,0,0,1,1.42-.8,21.27,21.27,0,0,1,10.63-.84,41.64,41.64,0,0,1,9.74,3.17c1.11.51,2.2,1,3.25,1.53l1.53.73c.45.2,1,.47,1.24.54l.22.1,0,0,0,0,.07,0a.1.1,0,0,0,.12-.09Z"/><path class="cls-1" d="M73.85,33.57c.05.32-.45.39-1.16.44a1.71,1.71,0,0,1-.89-.28,4.35,4.35,0,0,1-.37-.75,5.84,5.84,0,0,1,0-1.31c.08-.64.25-1.32.32-1.68a6.12,6.12,0,0,1,.77-1.9,12.26,12.26,0,0,1,1.15-1.69A17.57,17.57,0,0,1,75,24.86a2.17,2.17,0,0,1,.73-.54,12.57,12.57,0,0,0,2.53-1.79c.13-.11.3-.19.35-.42s.65-.7,1.36-1.11a6.34,6.34,0,0,1,1.7-.77c.5-.06,1-.08,1.51-.12a13,13,0,0,1,1.53.1c.15,0,.28-.07.43.1a1,1,0,0,0,.93.37,2.84,2.84,0,0,1,1.2.37,1.94,1.94,0,0,1,.51.55c.14.18,0,.72-.1.79s-.09.44-.11.68c0,.07,0,.18,0,.24s-.5.37-.89.71a5.92,5.92,0,0,1-.83.73,1.7,1.7,0,0,0-.34.16,5.59,5.59,0,0,0-.7.38c-.26.16-.54.28-.75.39l-.42.29c-.1.1-.27.05-.43,0a5.88,5.88,0,0,0-.81.59c-.39.31-.75.67-.79.67-.37.15-.57.55-1.14.47a.28.28,0,0,0-.23.1,16,16,0,0,1-1.72,1.28,5.68,5.68,0,0,0-.76.79c0,.05-.13.06-.19.1a.73.73,0,0,0-.23.13,9,9,0,0,1-.89,1,4.21,4.21,0,0,0-.75,1,2.89,2.89,0,0,1-.52.48,2,2,0,0,0-.47.54C74.57,33.27,73.81,33.42,73.85,33.57Z"/><path class="cls-1" d="M60.5,21.91c.11.31-.39.34-1.2.18a3.85,3.85,0,0,1-1.07-.46c-.17-.2-.33-.39-.45-.56s-.2-1.35-.35-1.79a2.92,2.92,0,0,1,0-1.14c.12-.76.17-1.53.23-2.32a1.08,1.08,0,0,1,.18-.5,2.83,2.83,0,0,0,.41-1.81c0-.1,0-.21-.13-.33a3.6,3.6,0,0,1,0-2.13,17.43,17.43,0,0,0,1.06-1.58c0-.07,0-.17.21-.21.49-.1.44-.29.51-.46a2.29,2.29,0,0,1,.4-.68,1.79,1.79,0,0,1,.6-.26,2.08,2.08,0,0,1,.92.16c.19.15.52.12.8.16l.29.05a7.15,7.15,0,0,1,1.11,1.69l0,.33.07.71c0,.54.12,1.1.14,1.22s-.11.22-.19.33,0,1.69,0,1.75c-.11.33,0,.69-.46,1-.09,0-.08.13-.09.19A6.43,6.43,0,0,1,63,17.15a6.91,6.91,0,0,0-.21.9c0,.05-.08.1-.12.15a.68.68,0,0,0-.13.18c-.14.73-.53,1.39-.61,2.15,0,.18-.76.82-.79,1S60.46,21.8,60.5,21.91Z"/><path class="cls-1" d="M40.35,30c.06.34-.31.53-.86.6a1.22,1.22,0,0,1-.7-.23,6,6,0,0,1-.31-.53,9.13,9.13,0,0,0-.5-2,9.55,9.55,0,0,1-.43-1.35,19.43,19.43,0,0,0-1-2.67,2.11,2.11,0,0,1-.08-.62,3.57,3.57,0,0,0-.6-2.06c-.07-.11-.1-.23-.29-.27a6.34,6.34,0,0,1-1.29-2c-.09-.63-.14-1.32-.28-2,0-.1-.11-.14,0-.32a.53.53,0,0,0,0-.7,4.64,4.64,0,0,1-.31-.79,2.56,2.56,0,0,1,.09-.66,1.49,1.49,0,0,1,.61-.63c.23-.05.36-.34.54-.54a1.84,1.84,0,0,1,.19-.2,3.85,3.85,0,0,1,1.23.24,5.6,5.6,0,0,1,1.24.53l.35.35c.2.21.49.48.75.77a10.27,10.27,0,0,1,1.06,1.4c.12.13.1.34.11.52s.3.55.6,1.07a11.05,11.05,0,0,1,.56,1.1,2.13,2.13,0,0,1,.16,1.44.33.33,0,0,0,0,.28,8.07,8.07,0,0,1,.31,2.4c0,.41.06.82.08,1.23a1,1,0,0,1-.06.23,1,1,0,0,0,0,.29c0,1-.15,1.94-.17,2.91,0,.23-.47,1.26-.51,1.51S40.33,29.89,40.35,30Z"/></g></svg>