<svg xmlns="http://www.w3.org/2000/svg" width="96" height="96" viewBox="0 0 96 96"><defs><style>.cls-1{fill:#231f20;}</style></defs><title>scribble final version</title><g id="Layer_1" data-name="Layer 1"><path class="cls-1" d="M34.66,75.84a42.57,42.57,0,0,0,24.1,1.74,36.55,36.55,0,0,0,5.84-1.82A34.49,34.49,0,0,0,70,73.05c3.38-2.08,6.12-4.92,7.17-8.35a11.67,11.67,0,0,0,.56-3.92,17.17,17.17,0,0,0-4.56-11.34,23.41,23.41,0,0,0-13.39-6.85,31.06,31.06,0,0,0-15.54,1.34,16.64,16.64,0,0,0-6.23,4A12.37,12.37,0,0,0,36,50.9a13.63,13.63,0,0,0-1.2,3.45,8.26,8.26,0,0,0,1.28,6.52,12.55,12.55,0,0,0,2.53,2.57,18.81,18.81,0,0,0,3.3,1.91A24.5,24.5,0,0,0,55.61,67a17.16,17.16,0,0,0,6.31-2.41,8.68,8.68,0,0,0,3.73-4.74,4.28,4.28,0,0,0-.45-3.29A7.51,7.51,0,0,0,62.4,54a14.79,14.79,0,0,0-8.12-1.84,9,9,0,0,0-3.78,1.1,6.84,6.84,0,0,0-2.58,2.62,6.73,6.73,0,0,0-.39.82c-.08.26-.14.53-.22.76a2.19,2.19,0,0,0,0,1.45,4.32,4.32,0,0,0,1,1.53A10.68,10.68,0,0,0,50,61.73c1.61,1,2.4,1.41,2.27,1.59s-1.11.13-2.85-.23a11.35,11.35,0,0,1-3.17-1.18c-.32-.15-.59-.42-1-.63a10.41,10.41,0,0,1-.89-1,5.82,5.82,0,0,1-1.21-2.86l0-.42c-.11-.15,0-.29,0-.43s.06-.54.1-.82a8.43,8.43,0,0,1,.41-1.57,12.68,12.68,0,0,1,.64-1.42c.28-.46.57-.94.89-1.4A11.07,11.07,0,0,1,51,47.56,16.53,16.53,0,0,1,57,47a20.58,20.58,0,0,1,5.67,1.35,16.26,16.26,0,0,1,5.21,3.28A10.91,10.91,0,0,1,70,54.51a9.53,9.53,0,0,1,1,3.62,10.66,10.66,0,0,1-2,6.67A16,16,0,0,1,64.37,69,20.06,20.06,0,0,1,59,71.37a26.4,26.4,0,0,1-5.51.95,30.21,30.21,0,0,1-10.89-1.26,21.47,21.47,0,0,1-9.76-6,13.55,13.55,0,0,1-3-5.55,13.36,13.36,0,0,1-.07-6.25,18.38,18.38,0,0,1,.87-2.84,27.4,27.4,0,0,1,1.3-2.6,17.9,17.9,0,0,1,3.78-4.41A22.34,22.34,0,0,1,41.51,40a32.78,32.78,0,0,1,6.25-1.8A37.22,37.22,0,0,1,60.61,38a30.28,30.28,0,0,1,12.21,4.64,25,25,0,0,1,5,4.52A20.15,20.15,0,0,1,81.22,53a22,22,0,0,1,1.49,7.22,17.45,17.45,0,0,1-1.29,7.46,18.86,18.86,0,0,1-4.24,6.18,28.21,28.21,0,0,1-5.77,4.3A43,43,0,0,1,58.32,83a48,48,0,0,1-13.84.62,44.79,44.79,0,0,1-16.34-4.76A33.08,33.08,0,0,1,15.35,67.39,28,28,0,0,1,11.12,55a34.93,34.93,0,0,1,1.19-12.92A36.89,36.89,0,0,1,18,30.47a42.11,42.11,0,0,1,9.06-9,48.21,48.21,0,0,1,17.81-8.13,41.17,41.17,0,0,1,9.79-1.09,36.11,36.11,0,0,1,9.88,1.35,17.15,17.15,0,0,1,2.11.65c.7.25,1.4.46,2.08.76a28.55,28.55,0,0,1,4,2c.6.37,1.2.67,1.71,1.06l1.47,1.1a21.87,21.87,0,0,1,2.41,2.11,12.79,12.79,0,0,1,1.74,2A20.55,20.55,0,0,1,81.3,25a18.69,18.69,0,0,1,1.38,2.81A7.66,7.66,0,0,1,83,30a8.8,8.8,0,0,1,0,1.7c-.16.65-1,.16-2.24-1.17a69.21,69.21,0,0,0-5.9-5.61l-1.5-1.24-1.6-1.1a16.38,16.38,0,0,0-1.67-1c-.57-.29-1.11-.66-1.71-.91A33.36,33.36,0,0,0,61,18.19a37.94,37.94,0,0,0-7.91-.62,44.27,44.27,0,0,0-8,1.09C34.66,21.19,24.9,28.07,20,37.55a30.21,30.21,0,0,0-3.34,11.24l-.13,3a25.37,25.37,0,0,0,.18,2.9,26.69,26.69,0,0,0,.47,2.84c.26.91.49,1.84.84,2.72a23.72,23.72,0,0,0,6.44,9.42,32.29,32.29,0,0,0,10.24,6.09Z"/></g></svg>