<svg xmlns="http://www.w3.org/2000/svg" width="96" height="96" viewBox="0 0 96 96"><defs><style>.cls-1{fill:#231f20;}</style></defs><title>scribble final version</title><g id="Layer_1" data-name="Layer 1"><path class="cls-1" d="M9.38,47.63c.18.27,6.79,7.67,6.79,7.67h3.58l-9.39-10Z"/><path class="cls-1" d="M12.62,45a20.75,20.75,0,0,1,2.05,1.72l.23.22.13.13.26.27.52.52,2.07,2.2a33,33,0,0,1,2.49,2.55,9.11,9.11,0,0,1,1.19,1.87,2.74,2.74,0,0,1,.17.79l.1.7c0,.07,0,.14,0,.23s-.1.2-.16.28a1.45,1.45,0,0,1-.35.38,3.75,3.75,0,0,1-.83.4,7.27,7.27,0,0,1-2.56.39l-1.38-.09c-.45,0-.92-.11-1.34-.1l-.63,0h-.51c-.24,0-.49,0-.72.07a9.15,9.15,0,0,0-3.18,1c-.28.16-.75-.09-1-.78a2.15,2.15,0,0,1,0-1.28,2.38,2.38,0,0,1,.93-1.27,7.44,7.44,0,0,1,2.48-1.07c.41-.09.81-.15,1.21-.2l.15,0h0l0,0a3.09,3.09,0,0,0,1.24.46.87.87,0,0,0,.35,0c.11,0,.16-.07.13-.11,0-.26-.51-.58-.72-.89L14.74,53l-1-1-1.83-1.85A5.81,5.81,0,0,0,10.57,49c-.15-.08-.16.09-.19.17l-.09.29a4.23,4.23,0,0,1-.2.57c.05.22,0,.27,0,.42l-.07.38a2.18,2.18,0,0,0-.07.41l-.14.68c-.28,1.36-.47,2.73-.83,4.14a6.39,6.39,0,0,1-.29.91A2.62,2.62,0,0,1,8,58.05a1.14,1.14,0,0,1-.82.17,3.79,3.79,0,0,1-.38-.06c-.36-.12-.49-.73-.33-1.45a16.49,16.49,0,0,0,.48-3.37c0-.62,0-1.23,0-1.85V51a3.61,3.61,0,0,1,0-.65l0-2.08,0-1.06V46.16s0,0,0,0l.1.11.38-1a1.86,1.86,0,0,1,.1-.25l.14-.12L8,44.61l.28-.23.26-.12.26-.12A1,1,0,0,1,9.14,44a3.16,3.16,0,0,1,1.67,0,3.82,3.82,0,0,1,.89.35,8,8,0,0,1,.94.45Z"/><path class="cls-1" d="M77.05,57.12c.13.14.31.36.37.44l.22.29.43.59L79.16,60a24.36,24.36,0,0,1,2.35,3.86,6.12,6.12,0,0,1,.74,2.38,2.85,2.85,0,0,1-.43,1.67,1.27,1.27,0,0,1-.69.37,3.08,3.08,0,0,1-.72.09,7.47,7.47,0,0,1-2-.12,17.82,17.82,0,0,1-2.84-1,20.5,20.5,0,0,0-2.32-.87,10.18,10.18,0,0,0-1.39-.25,7.84,7.84,0,0,0-3.05.16c-.26.08-.73-.2-.86-.91a2,2,0,0,1,.27-1.27,2.34,2.34,0,0,1,1.2-1,8.6,8.6,0,0,1,1.33-.33,4.55,4.55,0,0,1,1.26-.08,11.08,11.08,0,0,1,1.18.09l.56.08.28,0c.07,0,0,0,.06,0a3.2,3.2,0,0,0,.89.76c.4.25.77.47,1,.39,0-.25-.19-.51-.23-.71a7.13,7.13,0,0,0-.32-.77,4.33,4.33,0,0,0-.25-.47L75.19,62,75,61.73l-.4-.53-.49-.63-.26-.37a7.08,7.08,0,0,0-.57-.68,2.83,2.83,0,0,0-.4-.37.59.59,0,0,0-.23-.13c-.1,0-.11.1-.14.16a4.09,4.09,0,0,0-.33,1,4.51,4.51,0,0,0-.17.68,2.3,2.3,0,0,1-.06.28s0,.08,0,.15l-.07.25c-.09.33-.19.66-.31,1a10.2,10.2,0,0,1-.89,2,4.74,4.74,0,0,1-.53.79,2.5,2.5,0,0,1-1,.79,1.14,1.14,0,0,1-.81-.1,2.85,2.85,0,0,1-.35-.17.6.6,0,0,1-.2-.57,1.83,1.83,0,0,1,.29-.88,8,8,0,0,0,1.07-2.56c0-.23,0-.48,0-.72A7.67,7.67,0,0,1,69.34,60c.07-.59.09-1.22.17-1.88l.11-1L69.73,56a3.67,3.67,0,0,1,.49-.71,2.69,2.69,0,0,1,.33-.39l.33-.22a1.46,1.46,0,0,1,.62-.28,2.81,2.81,0,0,1,.31-.08c.14,0,.35,0,.5-.06a2.32,2.32,0,0,1,.93.14,4,4,0,0,1,1,.39c.32.21.64.41,1,.61a7.21,7.21,0,0,1,2,1.63Z"/><path class="cls-1" d="M56.68,33.53s-1.68,5.63-.79,8.2-4.44,1.48-4.44,1.48V30.12Z"/><path class="cls-1" d="M54.7,34.51l-.07.06c0,.06,0-.06-.08.3l-.2,1.57c-.12,1.05-.22,2.11-.29,3.17V40a.77.77,0,0,1,0,.3,2.5,2.5,0,0,0-.12.85c.22.16.49.06.83,0a12.31,12.31,0,0,0,1.71-.66c1.17-.5,2.31-1.09,3.5-1.62A10.55,10.55,0,0,1,62.4,38a5.62,5.62,0,0,1,2.76,0c.61.21.33.77-.1,1.38a6,6,0,0,1-1.53,1.8c-.29.15-.59.32-.89.5-.14.09-.3.18-.45.29l-.47.24-2,1.07c-.66.37-1.35.75-2.06,1.12l-.91.49a9.31,9.31,0,0,1-1,.61,9.69,9.69,0,0,1-2,.79,5.55,5.55,0,0,1-1.78.19l-.39,0-.35-.09a5.67,5.67,0,0,1-.79-.24,5.78,5.78,0,0,1-.57-.76,2.66,2.66,0,0,1-.44-.91A9.43,9.43,0,0,1,49.22,42V39.94l0-.48.1-1.68c.08-1.12.18-2.24.31-3.36a14.44,14.44,0,0,1,.46-3,6.24,6.24,0,0,1,1-2.27,1.34,1.34,0,0,1,.31-.32c.15-.12.26-.06.37-.05s.44.06.71.14a4.87,4.87,0,0,1,.82.23c.31.15.62.25.94.44l1,.8.93.72.44.36.4.29.61.44a18,18,0,0,0,4,2.16l.9.31a3.54,3.54,0,0,1,1.13.56,1.54,1.54,0,0,1,.4.78c0,.15.08.3.1.44s-.11.4-.4.55a2,2,0,0,1-1.25.17,18.94,18.94,0,0,1-4.43-1.36c-.73-.26-1.45-.54-2.15-.84l-.53-.22c-.13-.06-.44-.18-.35-.18v0s-.11-.21-.19-.08Z"/><path class="cls-1" d="M73.63,16.76c-.12.08,1.65,8.12-.66,10-.53.43,2.46,3,3.08,1.15s.1-12.45.1-12.45Z"/><path class="cls-1" d="M79.15,19.83v.64a4,4,0,0,1,0,.53l0,.7L79,23.11l-.06.69L78.88,25c0,.8-.11,1.57-.19,2.32-.1,1.08-.16,2.27-.71,2.75-.28.36-.49.66-.78,1a2.46,2.46,0,0,1-.85.16,2.36,2.36,0,0,1-.74-.06,5.63,5.63,0,0,1-1.74-.68,11.41,11.41,0,0,1-2-1.5c-.31-.27-.63-.52-.92-.8a5,5,0,0,0-.44-.38l-.29-.23a8.17,8.17,0,0,0-2.48-1.29c-1.12-.35-2.18-.57-3.36-.9-.37-.11-.43-.7-.12-1.39a2.69,2.69,0,0,1,2-1.59,10.26,10.26,0,0,1,1.24,0,4.42,4.42,0,0,1,1.21.17,12.69,12.69,0,0,1,2.25.77c.35.16.69.34,1,.52l.49.29c.12.07,0,.07.07.08a.06.06,0,0,0,0,0,2.3,2.3,0,0,0,.27.61,2,2,0,0,0,.42.51c.15.12.31.27.46.19s0-.42.1-.59.14-.53.21-.87A9,9,0,0,0,74.13,23l.07-1.33V21l0-.41a8.82,8.82,0,0,0,0-.9,3.75,3.75,0,0,0-.07-.73.29.29,0,0,0-.07-.16c0-.05-.1,0-.14,0a1.83,1.83,0,0,0-.28.14,7.17,7.17,0,0,0-1.15.79,5.14,5.14,0,0,0-.42.38c-.06.07-.13.1-.19.2l-.4.3a20.24,20.24,0,0,1-1.69,1.2,7.46,7.46,0,0,1-.84.45,2.39,2.39,0,0,1-1.25.25,1.25,1.25,0,0,1-.69-.55,3.48,3.48,0,0,1-.22-.36.73.73,0,0,1,.09-.66,2,2,0,0,1,.63-.67,11.82,11.82,0,0,0,1.23-.91A8,8,0,0,0,70,18.26c.1-.12.15-.2.31-.37s.41-.44.65-.68l.69-.75.78-1c1-1.17,2.36-1.83,3-1.68a2.31,2.31,0,0,1,.74.11,1.63,1.63,0,0,1,.55.24,2.67,2.67,0,0,1,.67.48,4.49,4.49,0,0,1,.58.71,18.22,18.22,0,0,1,.81,2c.13.35.24.76.36,1.15s.07.87.1,1.31Z"/><path class="cls-1" d="M83.08,78.66l-.42,1a1.1,1.1,0,0,0-.16.15,2.52,2.52,0,0,0-.37.54c-.09.17,0,.21-.11.41a1.69,1.69,0,0,0-.13.31.15.15,0,0,0,.08.14.45.45,0,0,0,.24,0c.2,0,.52-.13.94-.24l.91-.29a13.2,13.2,0,0,1,1.41-.35,4.92,4.92,0,0,1,3.71.55c.34.23.09.71-.34,1.2a4.6,4.6,0,0,1-1.44,1.24c-.82.27-1.54.48-2.36.81l-.15.07-.08,0-.19.09-.74.47-1.55,1a3.78,3.78,0,0,1-2.61.82l-.88-.16a5.71,5.71,0,0,1-.74-.12,2.73,2.73,0,0,1-.44-.16c-.08-.05-.22-.1-.26-.18a.6.6,0,0,1-.1-.23c-.09-.32-.17-.64-.24-1A3.21,3.21,0,0,1,77,83.4a17.17,17.17,0,0,1,.39-1.74c.33-1.16.71-2.4,1.07-3.4.19-.49.3-.79.61-1.54a8.09,8.09,0,0,1,.49-.88A4.38,4.38,0,0,1,80,75a6.94,6.94,0,0,1,.8-1,.88.88,0,0,1,.25-.18.47.47,0,0,1,.29-.12,2.84,2.84,0,0,1,.44.15A4.5,4.5,0,0,1,84,75.39c.29.35.58.66.86,1l.21.23a1,1,0,0,0,.19.21l.29.26a8.86,8.86,0,0,0,1.24.82l.57.28a1.71,1.71,0,0,1,.69.53,1.2,1.2,0,0,1,.12.72c0,.14,0,.27,0,.39a.57.57,0,0,1-.39.44,1.39,1.39,0,0,1-.9.07,10.82,10.82,0,0,1-3.06-1.4l-.36-.21s0,0,0,0a0,0,0,0,0,0,0,0,0,0,0,0,0,0s-.07-.12-.15-.06Z"/><path class="cls-1" d="M42,55.19s-.1,4.49,0,6.28-3.36,2-3.36,2l.06-11Z"/><path class="cls-1" d="M41.05,55.76q-.12,0-.24.24c-.11.88-.2,1.83-.27,2.75v.32a.67.67,0,0,0,0,.16.78.78,0,0,1,0,.26,5.14,5.14,0,0,0-.17,1c.07.15.2.09.29.08l.32-.12.86-.42a29.67,29.67,0,0,1,3.09-1.55,6.76,6.76,0,0,1,4.54-.41c.47.15.32.65-.07,1.18a4.5,4.5,0,0,1-1.53,1.45,29.82,29.82,0,0,0-3.12,1.61l-.79.5a6,6,0,0,0-.67.48,10.29,10.29,0,0,1-.82.66c-.28.2-.56.42-.84.64a7,7,0,0,1-.83.52,3.06,3.06,0,0,1-1.4.34,4.13,4.13,0,0,1-.88,0,2.88,2.88,0,0,1-.95-.31l-.45-.8a3.75,3.75,0,0,1-.44-.92,9.58,9.58,0,0,1-.19-1.28,10.43,10.43,0,0,1-.07-1.39V59l0-.37.1-1.47.13-1.58c.07-.75.13-1.5.24-2.2a6.36,6.36,0,0,1,.69-2.18,3.25,3.25,0,0,1,.61-.73c.18-.13.31,0,.44,0l.4.07.67.18.77.4a2,2,0,0,1,.2.11l.2.19.41.37c.27.25.53.49.77.73l1.37,1.31c.32.31.65.62,1,.91A16.21,16.21,0,0,0,47.65,57l.74.36c.91.41,1.09.65,1.21,1.22,0,.13.07.26.09.38s-.09.34-.35.45a1.88,1.88,0,0,1-.51.13,1.77,1.77,0,0,1-.63-.06,15.19,15.19,0,0,1-3.74-1.65q-.91-.47-1.77-1l-.85-.5c-.27-.16-.67-.39-.52-.36,0,.07,0,0,0,0a.35.35,0,0,0-.06-.09h-.06Z"/><path class="cls-1" d="M39.51,45.67c-4.78-2.1-9.73-10.61-9.82-10.54-3.46,3-5.57,15.17-5.38,15.11,1.13-.44,4.31-1.62,7.38-2.54C35.71,46.5,40,45.89,39.51,45.67Z"/><path class="cls-1" d="M85.82,41.26c-3.63-1.59-7.37-8-7.44-8-2.63,2.26-4.22,11.49-4.08,11.44a61.43,61.43,0,0,1,5.77-2.31C83.11,41.5,86.19,41.43,85.82,41.26Z"/><path class="cls-1" d="M38.34,21.19c4-2.15,7.64-9.85,7.73-9.79,3.2,2.33,5.87,12.69,5.71,12.65-1-.3-3.83-1.09-6.55-1.67C41.68,21.63,37.93,21.41,38.34,21.19Z"/><path class="cls-1" d="M66.52,78.33c-3.25-1.75-6.24-8-6.31-8-2.61,1.9-4.79,10.35-4.66,10.32.83-.24,3.13-.89,5.35-1.36C63.79,78.69,66.85,78.51,66.52,78.33Z"/><path class="cls-1" d="M23.92,74.09c3.63-2,7-9,7-8.92,2.92,2.13,5.36,11.57,5.21,11.53-.92-.27-3.49-1-6-1.52C27,74.5,23.55,74.29,23.92,74.09Z"/></g></svg>