<svg xmlns="http://www.w3.org/2000/svg" width="96" height="96" viewBox="0 0 96 96"><defs><style>.cls-1{fill:#231f20;}</style></defs><title>scribble final version</title><g id="Layer_1" data-name="Layer 1"><path class="cls-1" d="M22.1,42.4c2.54.59,5.32,1,8.19,1.5.52.09,1.05.13,1.58.18s1.08.14,1.61.26a38.59,38.59,0,0,1,5.61,1.74,12.84,12.84,0,0,1,5.09,4.08,19.2,19.2,0,0,1,2.72,4.61A15.65,15.65,0,0,1,47.84,58a9.49,9.49,0,0,1,0,3.32c-.13.69-.76.56-1.49.06a6.46,6.46,0,0,1-2.07-2.23,21,21,0,0,0-2.71-4.41,14,14,0,0,0-3.33-3.13c-.18-.12-.38-.19-.56-.3s-.53-.19-.79-.28a12,12,0,0,0-1.69-.45l-1.77-.29c-.61-.06-1.21-.14-1.82-.23-2.67-.39-5.47-.66-8.36-1.06-.88-.11-1.78-.26-2.68-.43s-1.8-.36-2.7-.56a29.81,29.81,0,0,1-7.93-3.3c-.95-.6-2-1.1-2.88-1.78-.46-.32-1-.63-1.41-1s-.86-.74-1.28-1.13a9.82,9.82,0,0,1-1.12-1c-1.11-1.48-1.07-2.23.24-3.43a11.42,11.42,0,0,1,.9-.8,2.81,2.81,0,0,1,3.31-.18,46,46,0,0,0,7.55,4.86,32,32,0,0,0,6.89,2Z"/><path class="cls-1" d="M76.1,48.91c-2.83.11-5.44.06-8,.29-.93.06-1.77.38-2.67.48s-1.55.27-2.34.4-1.52.39-2.29.58l-.5.13-.44.13a5.77,5.77,0,0,0-.87.42,7.62,7.62,0,0,0-1.68,1.32,11.76,11.76,0,0,0-2.12,3.51,20.17,20.17,0,0,0-.84,2.56c-.25.88-.49,1.75-.73,2.64-.17.55-.79.54-1.5,0a4,4,0,0,1-1.54-3,15.32,15.32,0,0,1,1.51-6.72,14.6,14.6,0,0,1,2.07-3,11.07,11.07,0,0,1,3.17-2.39c.37-.15.8-.38,1.12-.48s.64-.19.95-.3c.64-.21,1.26-.5,1.9-.69l1.91-.63a19.28,19.28,0,0,1,1.93-.46,73.1,73.1,0,0,1,8.31-.93c.81-.07,1.64-.11,2.42-.21l1.19-.13,1.14-.2a14.51,14.51,0,0,0,6.31-2.32A7.65,7.65,0,0,0,86.27,38c.24-.36.49-.69.7-1.06l.58-1.14.47-1c.63-1.26,1.24-1.4,2.94-.84.39.13.79.23,1.17.38A2.38,2.38,0,0,1,93.7,37.3a15.21,15.21,0,0,1-.43,1.46c-.21.47-.44.94-.69,1.4a14,14,0,0,1-.81,1.39c-.33.43-.68.86-1,1.29a16.9,16.9,0,0,1-5.46,4.08,25.66,25.66,0,0,1-9.14,2.15Z"/></g></svg>