<svg xmlns="http://www.w3.org/2000/svg" width="96" height="96" viewBox="0 0 96 96"><defs><style>.cls-1{fill:#231f20;}</style></defs><title>scribble final version</title><g id="Layer_1" data-name="Layer 1"><path class="cls-1" d="M28.37,56.47a11.87,11.87,0,0,1-2.89-1.89,9.43,9.43,0,0,1-2.22-2.9,10.21,10.21,0,0,1-1-3.37,10.66,10.66,0,0,1,.06-3.47,11.48,11.48,0,0,1,3.17-6,18.68,18.68,0,0,1,4.88-3.52A34.41,34.41,0,0,1,41,32.09c.91-.12,1.84-.22,2.79-.27s1.9,0,2.84,0a37.14,37.14,0,0,1,5.5.76,42.88,42.88,0,0,1,14.6,6.11,40,40,0,0,1,5.44,4.47c.41.43.84.83,1.23,1.28l1.17,1.36,1.1,1.54c.35.53.62,1.11.93,1.66a16.52,16.52,0,0,1,1.71,7.35,18,18,0,0,1-1.55,7.21,20.64,20.64,0,0,1-4,6A21.79,21.79,0,0,1,70,72c-.49.35-1,.7-1.48,1a14.82,14.82,0,0,1-1.67.87,16,16,0,0,1-7.2,1.45,7.86,7.86,0,0,1-3.94-1.23,6.11,6.11,0,0,1-2.49-3.62,7,7,0,0,1,.16-3.72,12.42,12.42,0,0,1,1.44-3.05A18,18,0,0,1,59.21,59a18.49,18.49,0,0,1,11.94-3.8A18.69,18.69,0,0,1,85.3,62.41a12.86,12.86,0,0,1,1.13,1.7,17.3,17.3,0,0,1,.95,1.81,13.94,13.94,0,0,1,1.12,3.92A21.86,21.86,0,0,1,88,77.61c-.34,1.54-.62,2.17-.76,2.1s-.2-.85-.34-2.17a28.14,28.14,0,0,0-1.05-5.22,18.69,18.69,0,0,0-1.26-3,17.23,17.23,0,0,0-1.85-2.93,9.15,9.15,0,0,0-1-1.21,4.25,4.25,0,0,0-.55-.57,1.89,1.89,0,0,0-.31-.25l-.28-.28a10.45,10.45,0,0,0-1.21-1,8.79,8.79,0,0,0-1.32-.86,15.72,15.72,0,0,0-5.9-1.93A13.9,13.9,0,0,0,60.7,63.79a14.56,14.56,0,0,0-2,2.37,7,7,0,0,0-1.09,2.34A2,2,0,0,0,57.81,70a2.13,2.13,0,0,0,1.47.83,11,11,0,0,0,5.89-.92c.25-.1.47-.22.71-.33a6.25,6.25,0,0,0,.65-.37c.45-.33.94-.61,1.37-1A17.07,17.07,0,0,0,70.31,66a16,16,0,0,0,2.22-3.36,14.5,14.5,0,0,0,1.2-3.82,12.62,12.62,0,0,0-.43-5.87c-.1-.31-.25-.6-.37-.91a5.2,5.2,0,0,0-.43-.89,21.77,21.77,0,0,0-5.69-6.19,42.9,42.9,0,0,0-7.53-4.61C53.42,37.53,46.91,36,40.65,37.2a27.78,27.78,0,0,0-9,3A11.77,11.77,0,0,0,28.26,43a6,6,0,0,0-1.33,3.65A5.7,5.7,0,0,0,28.66,51a9.14,9.14,0,0,0,4.84,2,26.6,26.6,0,0,0,11.74-1.17,28.33,28.33,0,0,0,7.88-4.39,18.59,18.59,0,0,0,5.61-6.73,9.91,9.91,0,0,0,.14-8.07,18.25,18.25,0,0,0-5.37-6.82,31.72,31.72,0,0,0-12.46-6,33.06,33.06,0,0,0-3.4-.7c-1.14-.19-2.3-.27-3.45-.4a44.26,44.26,0,0,0-6.91.15L25.77,19c-.49,0-1,.18-1.47.27l-1.48.28-1.47.38L20,20.26c-.41.12-.79.26-1.17.38-.74.24-1.45.38-2.06.62-1.21.46-2.25.72-3.06,1a9.49,9.49,0,0,1-3.86.59,11.77,11.77,0,0,1-1.45-.11c-.61-.17-.35-.86.67-2.11a9.2,9.2,0,0,1,.93-1c.39-.31.83-.65,1.32-1A21.78,21.78,0,0,1,15,16.53a37.6,37.6,0,0,1,13.78-3.44,43.51,43.51,0,0,1,14.52,1.48,36.11,36.11,0,0,1,13.45,6.89A26.74,26.74,0,0,1,62.1,27.4,19.77,19.77,0,0,1,64,31.25a16.36,16.36,0,0,1,.89,4.44,15.12,15.12,0,0,1-1.2,6.6,20.48,20.48,0,0,1-3.34,5.27,30.79,30.79,0,0,1-9.18,7c-.84.44-1.71.84-2.59,1.21a24.09,24.09,0,0,1-2.82,1,40.27,40.27,0,0,1-5.59,1.09,29.89,29.89,0,0,1-5.77.16,18.2,18.2,0,0,1-6.08-1.43Z"/></g></svg>