<svg xmlns="http://www.w3.org/2000/svg" width="96" height="96" viewBox="0 0 96 96"><defs><style>.cls-1{fill:#231f20;}</style></defs><title>scribble final version</title><g id="Layer_1" data-name="Layer 1"><path class="cls-1" d="M49,66.53c.25-1.13.52-2.29.86-3.49a17.4,17.4,0,0,1,1.52-3.77,8.77,8.77,0,0,1,1.5-2A6.28,6.28,0,0,1,54,56.41a6.78,6.78,0,0,1,1.11-.56,13.54,13.54,0,0,1,4.11-1,23.07,23.07,0,0,1,5.42.14c1.49.22,2.91.48,4.27.65.69.1,1.34.16,2,.19.81,0,1.63.09,2.34.17,1.46.15,2.85.3,4.2.32A7.92,7.92,0,0,0,81,55.8a1.2,1.2,0,0,0,.62-.67,1.62,1.62,0,0,0,.07-.53c0-.24,0-.48-.08-.73A6.2,6.2,0,0,0,80,51.11a25.7,25.7,0,0,0-3.56-3c-1.27-1-2.59-2-3.89-3-.8-.69-.51-.86.45-.77a15,15,0,0,1,4.54,1c.4.17.82.35,1.21.56s.77.48,1.15.73a17.52,17.52,0,0,1,2.23,1.72,12.33,12.33,0,0,1,2,2.35A8.17,8.17,0,0,1,85.36,54a5.13,5.13,0,0,1-.11,2.17A4.89,4.89,0,0,1,84,58.31,6.91,6.91,0,0,1,80.57,60a19.36,19.36,0,0,1-5.68.2c-1-.09-2.09-.18-3-.2h-.65l-.87,0c-.57,0-1.13,0-1.68,0-2.19-.08-4.25-.27-6.19-.34-2.11-.06-4.13-.08-5.65.64l-.15.06-.08,0a.65.65,0,0,0-.16.09,1.87,1.87,0,0,0-.35.3,4.18,4.18,0,0,0-.69,1,14.64,14.64,0,0,0-1.09,2.83c-.74,2.55-1.21,5.35-2,8.16a26.64,26.64,0,0,1-1.05,3.25,10,10,0,0,1-2,3.18A5.69,5.69,0,0,1,45.51,81a5.88,5.88,0,0,1-4-1.23,11.42,11.42,0,0,1-3.36-4.64,20.64,20.64,0,0,1-1.36-5.15c0-.38-.11-.76-.16-1.14s-.07-.76-.08-1.14a10.37,10.37,0,0,1,.11-1.8,3.92,3.92,0,0,1,.49-1.18,2.79,2.79,0,0,1,1.32-1.18,4.41,4.41,0,0,1,.68-.31c.69-.17,1.26,1,1.91,2.86.19,1.37.45,2.69.72,4A23.45,23.45,0,0,0,43,73.59a5.58,5.58,0,0,0,1.53,2.26.92.92,0,0,0,.49.24.1.1,0,0,1,.09,0s.08,0,.12,0,.16,0,.23,0a1.32,1.32,0,0,0,.34-.17,3,3,0,0,0,.54-.62,10,10,0,0,0,1.12-2.34,59.47,59.47,0,0,0,1.42-6.4Z"/><path class="cls-1" d="M58.32,61.52c-.11,0-.28,0-.59.4a6.39,6.39,0,0,0-.9,1.62,29.66,29.66,0,0,0-1.13,4.93c-.31,1.79-.6,3.68-1,5.63a20,20,0,0,1-.87,3,17.36,17.36,0,0,1-1.51,3.11,9.57,9.57,0,0,1-2.85,2.9,5,5,0,0,1-1,.52l-.61.26a5,5,0,0,1-.61.16,5.37,5.37,0,0,1-2.49,0,5.09,5.09,0,0,1-1.21-.35,3.3,3.3,0,0,1-.57-.26l-.46-.28a9.23,9.23,0,0,1-1.61-1.23,13.29,13.29,0,0,1-1.21-1.43,15.91,15.91,0,0,1-.92-1.5A28,28,0,0,1,36.2,67a56.63,56.63,0,0,1,.41-8.47,1.66,1.66,0,0,0,0-.71.49.49,0,0,0-.11-.2c0-.08-.11-.12-.17-.17a1.63,1.63,0,0,0-.63-.17,11.89,11.89,0,0,0-1.56-.08,54.17,54.17,0,0,0-6.78.81c-2.35.4-4.76.81-7.29,1A19.14,19.14,0,0,1,12,58.23,8.36,8.36,0,0,1,8.1,55.39a6.24,6.24,0,0,1-.65-1,5.24,5.24,0,0,1-.52-1.17,3.18,3.18,0,0,1-.19-.64,3.4,3.4,0,0,1-.17-.7,6,6,0,0,1-.05-1.48,7.5,7.5,0,0,1,.32-1.42,5.56,5.56,0,0,1,.61-1.22A9.23,9.23,0,0,1,9,45.9a17.07,17.07,0,0,1,3.42-2.34,43,43,0,0,1,7-2.91c2.33-.77,4.65-1.42,6.94-2.08l3.37-1c.55-.16,1.1-.32,1.6-.49a2.29,2.29,0,0,0,.58-.23,1.69,1.69,0,0,0,.38-.19,1.27,1.27,0,0,0,.43-1.35,2.63,2.63,0,0,0-.28-.7,8.17,8.17,0,0,0-.73-1.07,31.32,31.32,0,0,0-4.3-4.22c-1.59-1.37-3.25-2.71-4.86-4.2a22.53,22.53,0,0,1-2.34-2.5A8.39,8.39,0,0,1,19.1,21a5,5,0,0,1-.42-1.13,4.38,4.38,0,0,1-.16-1.19,4.46,4.46,0,0,1,1.16-2.79,6.62,6.62,0,0,1,2.16-1.6,11.56,11.56,0,0,1,4.65-1A22.31,22.31,0,0,1,35.1,15,30.63,30.63,0,0,1,39,16.85a29.74,29.74,0,0,1,3.47,2.51A25,25,0,0,1,48,25.77c.89,1.52,1,2.31.8,2.38s-.91-.51-2-1.42a41.37,41.37,0,0,0-4.8-3.22c-1-.59-2.11-1.16-3.29-1.72-.59-.28-1.19-.57-1.83-.81s-1.23-.6-1.87-.88A21,21,0,0,0,28,18.17a9.62,9.62,0,0,0-3.09.19,4.3,4.3,0,0,0-1.14.45,4.44,4.44,0,0,0-.42.27l-.12.07s0,0,0,0-.08-.14.17.36A13.49,13.49,0,0,0,25.8,22c1.94,1.7,4.16,3.35,6.36,5.25a27,27,0,0,1,3.29,3.3,11.69,11.69,0,0,1,.79,1.06l.19.29a2.38,2.38,0,0,1,.2.35l.45.89a7,7,0,0,1,.6,3.79,5.67,5.67,0,0,1-1.61,3.34,2.65,2.65,0,0,1-.34.33l-.39.28-.8.55-.79.41-.55.26c-.72.34-1.4.63-2.09.9l-2,.65c-2.69.83-5.31,1.58-7.84,2.44a43.51,43.51,0,0,0-7.11,2.77,10.94,10.94,0,0,0-1.61,1.05,8.47,8.47,0,0,0-.89.94,1,1,0,0,0-.27.73,1.61,1.61,0,0,1,.09.29l.18.33a3,3,0,0,0,.42.61,5.19,5.19,0,0,0,3.12,1.45,19.4,19.4,0,0,0,4.53.07c3.21-.3,6.53-1,10-1.56a29.69,29.69,0,0,1,5.52-.54,8.74,8.74,0,0,1,3.63.78,5,5,0,0,1,2.62,3.11c.08.37.15.76.2,1.14a7.93,7.93,0,0,1,0,1.09v.54l0,.36-.06.67-.27,2.7-.17,2.69c0,.89,0,1.77,0,2.66s.1,1.75.15,2.63.2,1.73.41,2.54a10.59,10.59,0,0,0,1.81,4.39c.2.31.47.51.68.79a5,5,0,0,0,.75.54,1.69,1.69,0,0,0,.59.28,1.14,1.14,0,0,0,.55,0,.67.67,0,0,0,.24-.08,1,1,0,0,0,.35-.19,3.34,3.34,0,0,0,.65-.56,6.33,6.33,0,0,0,1.09-1.8,14.93,14.93,0,0,0,.78-2.34c.24-.82.44-1.69.63-2.57l1.09-5.5a36.13,36.13,0,0,1,.89-3.55,13.06,13.06,0,0,1,1.66-3.7,6.85,6.85,0,0,1,.73-.9,5.68,5.68,0,0,1,.93-.82,6.14,6.14,0,0,1,1.12-.64,8.58,8.58,0,0,1,1.22-.37A7.29,7.29,0,0,1,58.61,56h.58l.51,0,1.71.17c4.55.41,9.11.76,13.61.81a39.91,39.91,0,0,0,5-.21,17.49,17.49,0,0,0,1.8-.15,6.64,6.64,0,0,0,1.37-.32,1.48,1.48,0,0,0,1-.93,1.79,1.79,0,0,0-.39-1.32A7.74,7.74,0,0,0,83,53a19,19,0,0,0-1.4-1.3,93.65,93.65,0,0,0-8.45-5.78,24.09,24.09,0,0,1-2.19-1.71,14.11,14.11,0,0,1-1.12-1,9.54,9.54,0,0,1-1.17-1.4,5,5,0,0,1-.89-3.47c.07-.3.12-.6.2-.89l.35-.85a9.32,9.32,0,0,1,1-1.48,7.37,7.37,0,0,1,.83-.9c.28-.29.57-.52.85-.77l.77-.65c.23-.19.45-.41.68-.61A27.94,27.94,0,0,0,75,29.44a34.37,34.37,0,0,0,4-6.32c.26-.55.5-1.1.71-1.65l.28-.79c.05-.18.12-.4.14-.53a2.68,2.68,0,0,0,0-1.73,1.25,1.25,0,0,0-.61-.57,2.19,2.19,0,0,0-.83-.16,3.43,3.43,0,0,0-.8.15c-.13,0-.25.1-.37.15l-.21.08-.38.19c-1.83.84-3.72,2.11-5.83,3.21A51.69,51.69,0,0,1,65.87,24a21.93,21.93,0,0,1-2.13.66c-.67.15-1.27.26-1.82.35a7.39,7.39,0,0,1-4.68-.6,7.46,7.46,0,0,1-1.34-.77c-.45-.45.23-.95,1.57-1.66s3.33-1.84,5.86-3.48c1.93-1.12,3.83-2.42,5.86-3.77,1-.69,2.09-1.32,3.27-2l.9-.48,1-.45.5-.23.79-.25c.53-.15,1.06-.37,1.6-.47l1.64-.23c.54,0,1.08,0,1.62.05a8.35,8.35,0,0,1,1.57.29,10.4,10.4,0,0,1,1.46.6,7,7,0,0,1,3.66,4.9,9,9,0,0,1,0,3.32,13,13,0,0,1-.36,1.71c-.13.59-.34,1-.5,1.55a26.58,26.58,0,0,1-1.92,4,42.57,42.57,0,0,1-4.87,6.69,35.47,35.47,0,0,1-3,3c-.29.25-.57.49-.87.73l-.79.62-.54.42-.42.39a.59.59,0,0,1-.17.18h0s0,0,0,0h0l.35.35a24.88,24.88,0,0,0,2.72,1.65L80.08,43a54.85,54.85,0,0,1,5.08,3.36l.64.51.32.25.38.33.77.68,1,1c.67.66,1.17,1.4,1.76,2.1l.67,1.12a3.91,3.91,0,0,1,.32.55l.2.56a6.4,6.4,0,0,1,.27,4.47,6.59,6.59,0,0,1-2.76,3.56,12.39,12.39,0,0,1-4.78,1.78c-.45.09-.89.18-1.32.23l-.65.08-.56.06a8.28,8.28,0,0,1-1.57.06c-1,0-2-.15-3-.19s-2-.09-3-.15c-1.94-.13-3.86-.32-5.76-.52s-3.8-.44-5.68-.69l-2.82-.38-.66-.09a1.17,1.17,0,0,1-.26,0h-.27Z"/><path class="cls-1" d="M59.79,37.92c.68,1,.45,2.33.45,3.44a6.56,6.56,0,0,1-1.55,2.94,5.64,5.64,0,0,1-1.27,1l-.57.24A9,9,0,0,1,52,45.43a12.83,12.83,0,0,1-3.88-1.73,6.43,6.43,0,0,1-2.59-2.57,3,3,0,0,1-.27-1.52,2.74,2.74,0,0,1,.57-1.42,3.53,3.53,0,0,1,2-1.24c.45-.12.6.42.61,1.09a17.22,17.22,0,0,1-.11,1.82s0,0,0,.08l0,0a1.73,1.73,0,0,0-.32-.11s0,0,0,0h0a.28.28,0,0,0,.13,0,.77.77,0,0,0,.27-.08l.11-.05h.06l.15.09c.14.05.2.22.37.35a9,9,0,0,0,1.15.9l.68.44.37.21c.09.07.07.09.12.13a1.06,1.06,0,0,0,.67.34,3.11,3.11,0,0,0,.75,0H53a1.5,1.5,0,0,0,1.41-1.52,1.64,1.64,0,0,0-.65-1.3,2.34,2.34,0,0,0-2.46-.18,9.65,9.65,0,0,0-2.11,2,3.44,3.44,0,0,1-.46.53,2.35,2.35,0,0,1-.48.29,1.05,1.05,0,0,1-.5,0,3.36,3.36,0,0,1-1.2-.56c-.23-.15-.46-.28-.67-.43a1.81,1.81,0,0,1-.71-1,2.33,2.33,0,0,1,0-1.36,7.56,7.56,0,0,1,2.65-3.23c.14-.11.3-.21.45-.31l.68-.41c.52-.22,1-.45,1.58-.64a13.4,13.4,0,0,1,3.15-.31c.36,0,.73.05,1.08.12l1,.26a20,20,0,0,1,1.81.86,6.28,6.28,0,0,1,2.3,2.92Z"/></g></svg>