<svg xmlns="http://www.w3.org/2000/svg" width="96" height="96" viewBox="0 0 96 96"><defs><style>.cls-1{fill:#231f20;}</style></defs><title>scribble final version</title><g id="Layer_1" data-name="Layer 1"><path class="cls-1" d="M32,35.92c-.37,2.28-5.13,4.3-5.13,0C26.91,32.62,32.52,33,32,35.92Z"/><path class="cls-1" d="M42.07,26.48c-.26,1.62-3.66,3.06-3.66,0C38.41,24.12,42.41,24.41,42.07,26.48Z"/><path class="cls-1" d="M16.58,65.3c-.28,1.69-3.82,3.19-3.82,0C12.76,62.84,16.93,63.14,16.58,65.3Z"/><path class="cls-1" d="M51.63,53.26c-.27,1.62-3.65,3.06-3.65,0C48,50.91,52,51.19,51.63,53.26Z"/><path class="cls-1" d="M46.83,32.64c-.37,2.28-5.14,4.3-5.14,0C41.69,29.34,47.31,29.74,46.83,32.64Z"/><path class="cls-1" d="M49.78,81.41C49.36,84,44,86.25,44,81.4,44,77.69,50.32,78.14,49.78,81.41Z"/><path class="cls-1" d="M38.62,46.09c-.39,2.35-5.3,4.44-5.3,0C33.32,42.68,39.11,43.1,38.62,46.09Z"/><path class="cls-1" d="M46.83,57.63c-.32,2-4.45,3.72-4.45,0C42.38,54.76,47.25,55.11,46.83,57.63Z"/><path class="cls-1" d="M26.92,56.39C26,57.92,22,58,23.23,54.89,24.19,52.53,28.1,54.44,26.92,56.39Z"/><path class="cls-1" d="M21.28,15.1c.11-2.66,5.29-5.62,5.88-.69C27.61,18.18,21.13,18.48,21.28,15.1Z"/><path class="cls-1" d="M78.14,29.54c.11-2.46,4.9-5.2,5.44-.64C84,32.39,78,32.67,78.14,29.54Z"/><path class="cls-1" d="M12.4,81.15c.09-2.06,4.1-4.35,4.55-.53C17.3,83.54,12.28,83.77,12.4,81.15Z"/><path class="cls-1" d="M66.16,51.11c.11-2.51,5-5.3,5.55-.65C72.14,54,66,54.3,66.16,51.11Z"/><path class="cls-1" d="M38.83,75.93c.09-2.17,4.31-4.58,4.79-.56C44,78.44,38.71,78.69,38.83,75.93Z"/><path class="cls-1" d="M15.92,36.25a7.86,7.86,0,0,1-2.26,2.6c-.27.2-.6,0-.46-.4.28-.7.55-1.42.9-2.11a38.55,38.55,0,0,1,2.35-3.79,52.64,52.64,0,0,1,3.72-4.78,34.19,34.19,0,0,1,5.48-5.19,28.63,28.63,0,0,1,14.63-5.82A14.41,14.41,0,0,1,44,17a15,15,0,0,1,6.21,2.63,16.47,16.47,0,0,1,4.45,4.88c.38.62.69,1.29,1.1,1.86a11.3,11.3,0,0,1,1,2.26c.21.58.41,1.25.6,1.94s.36,1.46.51,2.05a13.6,13.6,0,0,0,1,3,5.81,5.81,0,0,0,.73,1,3.86,3.86,0,0,0,2.68,1.27c1.63.27,3.29.56,4.95.95a3.56,3.56,0,0,1,1.4.42,8.82,8.82,0,0,0,3,1.13,15.89,15.89,0,0,1,4.07,2A7.25,7.25,0,0,1,77.36,44c.44.54-.28.91-.5.86-.64-.15-.4.41-.53.68a.81.81,0,0,1-.16.27A24.74,24.74,0,0,0,72.36,45c-.48-.07-1-.08-1.47-.15l-1.34-.17c-.81-.11-1.44-.17-1.64-.22,0,0-.76-.17-1.84-.35s-2.54-.39-4.06-.58l-.58-.07-.72-.11A13.68,13.68,0,0,1,59.23,43a10.74,10.74,0,0,1-2.73-1.3A10,10,0,0,1,53.91,39a8.29,8.29,0,0,1-1-2.51c0-.09-.29-.82-.55-1.83-.13-.49-.27-1.07-.4-1.64s-.25-1.08-.4-1.61a18.53,18.53,0,0,0-1.57-4,17.71,17.71,0,0,0-2.71-3.69,2.39,2.39,0,0,0-.71-.55c-2.12-1.28-5.1-1.62-8.14-1.37a23.48,23.48,0,0,0-4.64.89c-.27.09-.56.14-.84.21a6.22,6.22,0,0,0-1,.31,30,30,0,0,0-9.69,6.21c-.32.32-1.3,1.18-2.22,2.15a27.41,27.41,0,0,0-2.12,2.4C17.55,34.39,16.17,35.78,15.92,36.25Z"/><path class="cls-1" d="M80.23,52.87a1.15,1.15,0,0,1,.56-.82c.09-.07.3,0,.32.1s0,.47.08.65S81.06,55,81,55.72a11.82,11.82,0,0,1-.35,2.06,24.68,24.68,0,0,1-1.32,4.09,3.74,3.74,0,0,1-.55.77,19.07,19.07,0,0,0-1.91,2.6.93.93,0,0,0-.23.49,6.2,6.2,0,0,1-.94,1.48,10.57,10.57,0,0,1-1.19,1.35l-2.24,1.67c-.11.07-.17.2-.35.19-.43,0-.58.2-.79.39a6.63,6.63,0,0,1-1,.68,2,2,0,0,1-.67.11c-.22,0-.51-.41-.5-.49,0-.23-.26-.3-.41-.44a.8.8,0,0,1-.16-.16,11.74,11.74,0,0,1,1-2.38c.07,0,2-2.45,2.2-2.75a1.25,1.25,0,0,1,.43-.35c.09,0,1.44-2.08,1.48-2.16.35-.37.54-.84,1-1.09a.5.5,0,0,0,.2-.23c.23-.36.47-.72.73-1.06a12.66,12.66,0,0,1,.78-1c.3-.34.5-.73.76-1.09,0-.06.13-.11.18-.18a1.43,1.43,0,0,0,.2-.23A17.68,17.68,0,0,0,79,55.16a15.94,15.94,0,0,0,.81-1.54A4.79,4.79,0,0,0,80.23,52.87Z"/><path class="cls-1" d="M52.69,67.37a1.5,1.5,0,0,1,.41,2c-.1.26-.72.58-.9.49-.36-.17-.7-.33-1-.5a12.07,12.07,0,0,0-1.51-1,8,8,0,0,0-2.33-.71c-1-.17-2.07-.26-3.16-.35a48.81,48.81,0,0,0-7.06.31,11.31,11.31,0,0,1-1.65,0c-1.9,0-3.81.12-5.82.23a2.9,2.9,0,0,0-1,.13,11,11,0,0,1-3.51-.12,9.49,9.49,0,0,1-1.26-.28,11.31,11.31,0,0,1-1.16-.36,6.48,6.48,0,0,1-1.43-.71,9.73,9.73,0,0,1-3.79-5.34c-.07-.28-.27-.56-.16-.87.32-.69,0-1.22.06-1.81a10,10,0,0,1,.26-2.34,4.77,4.77,0,0,1,.53-1.09c.17-.32.73-.12.8,0,.19.32.46.07.7,0a.7.7,0,0,1,.25,0c.09,0,.39,1,.89,1.92a8.85,8.85,0,0,0,.76,1.21,2.71,2.71,0,0,1,.3.64,5.86,5.86,0,0,0,.95,1.89,4.29,4.29,0,0,0,1.8,1.31,6.67,6.67,0,0,1,.66.43,8.87,8.87,0,0,0,2,.36c1,.1,2.18.08,2.27.08a13.39,13.39,0,0,1,2.77.27,1.83,1.83,0,0,0,.57,0c1.64-.09,3.33-.08,5-.1l2.65-.1a3.93,3.93,0,0,1,.48.06c.21,0,.41.06.61.06a27.17,27.17,0,0,1,6.57.82,4.78,4.78,0,0,1,.67.25l1,.53a9.41,9.41,0,0,1,1,.64,6.12,6.12,0,0,1,.64.45,3.46,3.46,0,0,1,.6.74A3.44,3.44,0,0,0,52.69,67.37Z"/></g></svg>