<svg xmlns="http://www.w3.org/2000/svg" width="96" height="96" viewBox="0 0 96 96"><defs><style>.cls-1{fill:#231f20;}</style></defs><title>scribble final version</title><g id="Layer_1" data-name="Layer 1"><path class="cls-1" d="M68.13,50.36a5,5,0,0,0,.48-.23.69.69,0,0,0,.23-.19c0-.1,0-.1-.07-.15s-.31-.15-.54-.24l-.36-.13-.1,0-.41-.09L66.16,49l-9.62-2.13c-3.27-.73-6.57-1.32-9.84-2.16L41,43.23a46.49,46.49,0,0,1-6.9-2.17l-.83-.49a3,3,0,0,1-.72-.5,4.9,4.9,0,0,1-.93-1,8.75,8.75,0,0,1-.62-.92.52.52,0,0,1-.13-.27.84.84,0,0,1,.07-.41,2.65,2.65,0,0,1,.3-.55,8.33,8.33,0,0,1,2.08-2A20,20,0,0,1,37.54,33c1.63-.59,3.3-1.14,5-1.68l2-.63L46,30.22l6.27-1.93c5-1.52,9.9-3.29,14.76-5,3.11-1.11,6.2-2.31,9.29-3.47Q78.66,19,81,18.15l2.34-.79c.79-.25,1.62-.38,2.43-.57,2-.42,2.19.56,1.07,2.46A12.28,12.28,0,0,1,84.2,22.5a15.89,15.89,0,0,1-4.54,2.79c-3.18,1.29-6.38,2.5-9.59,3.66-1.6.58-3.21,1.15-4.82,1.69l-4.88,1.54q-4.87,1.5-9.78,2.9l-4.9,1.39c-.09,0-.25.08-.26.07h-.19l-.29,0-.72.09a9.17,9.17,0,0,0-2,.56c-.08,0-.18.08-.21.16s.1.08.15.12l.4.17c.28.11.58.21.87.31l1,.27,1.2.28,6,1.23c4.17.84,8.39,1.61,12.61,2.39l7.38,1.36a46.13,46.13,0,0,1,4.87,1.07,14.9,14.9,0,0,1,3.06,1.7,6.51,6.51,0,0,1,.54.51,1.21,1.21,0,0,1,.41.77,3.78,3.78,0,0,1-.64,2.1,9.79,9.79,0,0,1-1.47,1.91,26.69,26.69,0,0,1-4.79,3.63c-.44.29-.91.56-1.36.84s-1,.57-1.24.71l-1.91,1c-1.28.68-2.57,1.33-3.87,2a206.57,206.57,0,0,1-24.18,9.57c-6.34,2.14-12.54,4.35-19,6.08-1.41.38-2.79.81-4.24,1.12a17.51,17.51,0,0,1-5.79.59,4.73,4.73,0,0,1-1.65-.62,5.69,5.69,0,0,1-1.21-1.14,10.27,10.27,0,0,1-.92-1.09c-.34-.59,0-1.21.86-2.08a9,9,0,0,1,4.12-2.13c11-3.2,22.6-6.38,33.89-10.56,4.19-1.55,8.34-3.22,12.4-5,2-.92,4-1.88,6-2.9L67,50.78l.71-.4.07,0,.18-.06Z"/><path class="cls-1" d="M64.25,14.07a27.65,27.65,0,0,0,3.18-.66c.38-.1.73-.31,1.12-.41,1.36-.4,2.81-.67,4.2-1.12a16.41,16.41,0,0,0,1.8-.71,6.76,6.76,0,0,1,2.39-.76c.27,0,.38.44.35,1a1.85,1.85,0,0,1-.6,1.37,20.14,20.14,0,0,1-4.43,2.13c-1,.3-1.85.91-2.83,1.29s-2.18.8-3.3,1.14c-.69.19-1.38.38-2.09.55-1.05.27-2.14.44-3.2.7-.81.23-1.6.61-2.43.93-.19.06-.37.15-.56.19-.7.14-.94-.13-1.12-1.27,0-.26-.09-.52-.11-.79a2,2,0,0,1,.58-1.9,10.45,10.45,0,0,1,3.94-1.19c1-.16,2-.29,3.08-.53Z"/><path class="cls-1" d="M38.94,82.21c-.8.22-1.63.37-2.47.53L34,83.23c-.6.13-1.17.38-1.78.49-2.15.38-4.32.7-6.47,1-.95.15-1.88.41-2.8.65-.6.11-1.19.27-1.8.36a8.25,8.25,0,0,1-1.86,0c-.39,0-.45-.61-.26-1.28a2.9,2.9,0,0,1,1.22-1.81L21.89,82c.55-.21,1.13-.37,1.7-.53a27,27,0,0,1,3.53-.76,21.33,21.33,0,0,0,4.2-1.45L36,77.61c1-.3,2-.58,2.94-.9,1.47-.49,3-.91,4.41-1.53A28.14,28.14,0,0,0,46.5,73.3c.24-.14.45-.33.69-.44.92-.41,1.34-.16,2,1.19.15.31.31.61.44.93a2.4,2.4,0,0,1-.2,2.62,15.89,15.89,0,0,1-5.7,3.18c-1.54.57-3.14,1-4.73,1.55Z"/></g></svg>