<svg xmlns="http://www.w3.org/2000/svg" width="96" height="96" viewBox="0 0 96 96"><defs><style>.cls-1{fill:#231f20;}</style></defs><title>scribble final version</title><g id="Layer_1" data-name="Layer 1"><path class="cls-1" d="M38.25,37.57c-1.9,3.09-3.78,6.2-5.6,9.36-.67,1.15-1.21,2.36-1.88,3.5l-3.54,6c-1.12,2-2.2,4.06-3.27,6.15-.94,1.86-1.77,3.79-2.68,5.68a28.07,28.07,0,0,1-1.89,3.6,23.09,23.09,0,0,1-2.51,3.23c-.59.61-.93.23-1-.68a9,9,0,0,1,.46-3.75c.25-.6.43-1.24.71-1.83l.8-1.79,1.57-3.65A61.88,61.88,0,0,1,23,56c.84-1.46,1.66-3,2.4-4.44s1.49-3,2.28-4.49c1.74-3.24,3.53-6.45,5.35-9.66l3.4-5.9c1.75-3,3.59-5.88,5.28-8.84.66-1.15,1.26-2.32,1.85-3.5s1.17-2.35,1.86-3.47c.3-.49.55-1,.87-1.49a6.09,6.09,0,0,1,1.52-1.75,2,2,0,0,1,1.44-.28,5,5,0,0,1,.7.09c.35.1.53.42.58.92a4.2,4.2,0,0,1-.31,1.91,51.79,51.79,0,0,1-2.86,6.6C46.21,23.88,45,26,43.81,28.14c-1.79,3.16-3.59,6.34-5.46,9.48Z"/><path class="cls-1" d="M49.16,46.27l-5.31,8.79c-.64,1.07-1.17,2.2-1.82,3.27-2.27,3.86-4.66,7.6-7,11.36-1,1.66-1.94,3.42-2.91,5.1a45.91,45.91,0,0,1-3.91,6.39c-.49.62-1.11.17-1.48-.79a5,5,0,0,1,.07-3.76c.53-1.16,1.08-2.31,1.64-3.46.29-.57.57-1.15.87-1.71l1-1.65q1.95-3.28,4.12-6.47a39.8,39.8,0,0,0,2.34-4l1-2.09c.36-.7.73-1.4,1.12-2.09,1.7-3,3.41-6,5.16-9l3.21-5.54c1.6-2.81,3.19-5.63,4.73-8.45.59-1.1,1.12-2.22,1.66-3.35a37.4,37.4,0,0,1,1.72-3.33c.28-.47.52-.95.82-1.41,1.13-1.7,1.76-2.06,2.88-1.83a4.44,4.44,0,0,1,.76.16c.78.28.9,1.35.37,2.76a55,55,0,0,1-2.67,6.14c-1,2-2.14,4-3.24,6-1.62,3-3.36,6-5,9Z"/><path class="cls-1" d="M64.54,49l-4.7,8.35c-.58,1-1,2.1-1.64,3.1-2.1,3.58-4.5,6.88-6.63,10.37-1,1.54-1.79,3.15-2.59,4.74a44,44,0,0,1-3.45,6c-.43.59-1,.24-1.32-.61a5.16,5.16,0,0,1-.17-3.5c.4-1.13.79-2.26,1.25-3.36s1-2.15,1.57-3.2a66.36,66.36,0,0,1,3.59-6.16c1.56-2.41,2.78-5.08,4.15-7.61q2.28-4.17,4.51-8.41l2.74-5.24,4.17-8c1.06-2.06,1.89-4.21,2.91-6.28.23-.46.45-.9.71-1.34,1-1.59,1.66-1.92,2.83-1.66a6.34,6.34,0,0,1,.78.18c.82.3,1,1.34.66,2.68a38.9,38.9,0,0,1-2.12,5.85c-.83,1.92-1.68,3.84-2.69,5.7L64.66,49Z"/><path class="cls-1" d="M67.42,63.83,64,68.77c-.42.6-.73,1.26-1.15,1.85-1.47,2.12-3,4.23-4.3,6.42a33.54,33.54,0,0,0-1.61,3,20.71,20.71,0,0,1-2,3.86c-.28.36-.84,0-1.26-.6A2.67,2.67,0,0,1,53.25,81,43.45,43.45,0,0,1,57.53,73c1-1.49,1.8-3.23,2.72-4.83,1-1.76,2.12-3.46,3.23-5.16l2-3.14c1-1.59,2.09-3.15,3-4.79.71-1.27,1.22-2.63,1.83-3.93.14-.29.24-.6.39-.88.57-1,1-1.22,2-.89a5.58,5.58,0,0,1,.69.23,1.53,1.53,0,0,1,.81,1.94,22.31,22.31,0,0,1-1.45,3.73c-.61,1.19-1.31,2.35-2,3.5-1.06,1.72-2.2,3.38-3.29,5.08Z"/><path class="cls-1" d="M47.17,29.35l10.09,5.17c1.22.62,2.5,1.13,3.71,1.77l6.42,3.42c1,.57,2.17,1.16,3.22,1.77l3.15,1.89q2.77,1.7,5.6,3.09c1.2.6,2.45,1.08,3.64,1.69L86.63,50c.75.39.51.83-.36,1.17a7.17,7.17,0,0,1-4,.25,18.77,18.77,0,0,1-2.1-.62c-.68-.26-1.34-.55-2-.84-1.32-.58-2.6-1.22-3.85-1.87-2.49-1.32-4.89-2.61-7.26-4-2.89-1.7-6.18-3-9.27-4.47L47.53,34.63q-3.15-1.5-6.32-2.94c-3.2-1.47-6.4-3-9.67-4.2C30.27,27,29,26.61,27.7,26.22l-1.93-.55-1.9-.62c-.56-.19-1.12-.34-1.68-.56a6.65,6.65,0,0,1-2.09-1.08,2.13,2.13,0,0,1-.63-1.35,4.75,4.75,0,0,1-.09-.71c0-.37.28-.61.76-.77a4.23,4.23,0,0,1,2-.12A42.18,42.18,0,0,1,29.51,22c2.41.76,4.82,1.65,7.21,2.6,3.54,1.42,7.06,2.94,10.49,4.61Z"/><path class="cls-1" d="M37.51,38.49l10.27,5.07c1.25.62,2.55,1.12,3.8,1.74l13.09,6.63c1.93,1,3.94,1.82,5.88,2.73A56.94,56.94,0,0,1,78,58.35c.73.48.34,1.09-.62,1.47a5.85,5.85,0,0,1-4,0l-4-1.54c-.66-.26-1.32-.52-2-.81l-1.92-.91c-2.56-1.22-5.09-2.54-7.58-3.92-3-1.63-6.3-2.87-9.45-4.31-3.46-1.6-6.92-3.21-10.37-4.86L34.92,42c-1.06-.47-2.13-.93-3.21-1.37-3.28-1.34-6.6-2.68-9.95-3.78-1.3-.42-2.62-.77-3.93-1.09s-2.63-.61-3.93-1c-.57-.15-1.14-.27-1.71-.43-2.1-.63-2.68-1.06-2.92-2.15a5.11,5.11,0,0,1-.15-.74c-.06-.78,1-1.24,2.72-1.09,5.09.33,10,2,14.9,3.71,3.63,1.32,7.24,2.75,10.81,4.36Z"/><path class="cls-1" d="M36,55.78c2.91,1.58,5.8,3.16,8.72,4.68,1.07.56,2.19,1,3.25,1.54l5.6,2.89c1.88.94,3.8,1.84,5.74,2.72,1.72.77,3.5,1.45,5.25,2.15A30.82,30.82,0,0,1,71.09,73c.63.45.28.9-.56,1.17a6.11,6.11,0,0,1-3.47,0L63.6,73.15l-3.42-1.27c-2.28-.87-4.56-1.8-6.81-2.9-1.35-.67-2.77-1.22-4.19-1.85S46.36,65.92,45,65.26c-3-1.46-6-3-8.93-4.52-1.83-.93-3.64-1.88-5.47-2.78C27.82,56.59,25,55.2,22.21,54c-2.19-.92-4.45-1.55-6.68-2.26-.5-.15-1-.3-1.46-.49-1.79-.73-2.26-1.22-2.31-2.31a4.64,4.64,0,0,1,0-.74c.07-.77,1-1.11,2.51-.93a30.18,30.18,0,0,1,3.27.56c1.07.27,2.15.57,3.21.91a50,50,0,0,1,6.32,2.44c3.06,1.39,6,2.95,9,4.46Z"/><path class="cls-1" d="M39.41,68.43c1.88.91,3.78,1.79,5.65,2.75.68.34,1.4.59,2.08.95L54.26,76c1.06.56,2.14,1.06,3.23,1.53a19,19,0,0,1,4,2.09c.38.3,0,.85-.61,1.26a2.72,2.72,0,0,1-2.39.36,72.72,72.72,0,0,1-8.32-4A44.94,44.94,0,0,0,45,75c-1.92-.8-3.81-1.68-5.72-2.53-1.18-.52-2.35-1-3.54-1.54-1.8-.75-3.59-1.55-5.42-2.17C28.9,68.27,27.42,68,26,67.64c-.32-.08-.64-.13-1-.23-1.17-.37-1.44-.76-1.32-1.82a5.66,5.66,0,0,1,.08-.72,1.55,1.55,0,0,1,1.8-1.16,24.74,24.74,0,0,1,4.07.77c1.34.4,2.66.88,4,1.39,2,.77,3.88,1.63,5.82,2.47Z"/><path class="cls-1" d="M19.9,43.78c1.2-1.92,2.39-3.84,3.54-5.78.42-.71.75-1.47,1.17-2.17,1.47-2.5,3-5,4.4-7.51a34.49,34.49,0,0,0,1.62-3.49,25.63,25.63,0,0,1,2-4.48c.57-.88,2.59,1.31,1.95,3.15a47.75,47.75,0,0,1-4.51,9.19c-1.09,1.74-2,3.68-3,5.51-1.13,2-2.31,4-3.49,5.92l-2.17,3.62c-1.08,1.84-2.21,3.65-3.19,5.52-.76,1.45-1.33,3-2,4.47-.14.33-.25.66-.41,1-.58,1.2-1,1.46-1.93,1.28a6,6,0,0,1-.64-.14c-.69-.22-.95-1-.67-1.94a42.17,42.17,0,0,1,3.76-8.26c1.11-2,2.3-3.95,3.45-5.92Z"/></g></svg>