<svg xmlns="http://www.w3.org/2000/svg" width="96" height="96" viewBox="0 0 96 96"><defs><style>.cls-1{fill:#231f20;}</style></defs><title>scribble final version</title><g id="Layer_1" data-name="Layer 1"><path class="cls-1" d="M63.32,64.71A10.62,10.62,0,0,0,65,58.86a7.19,7.19,0,0,0-.28-2,7.08,7.08,0,0,0-1.87-3.3,16.44,16.44,0,0,0-3.59-2.79,17.36,17.36,0,0,0-4-1.54c-.89-.24-1.81-.37-2.71-.64s-1.78-.69-2.69-1.07c-.56-.26-.46-.57.11-1a10.81,10.81,0,0,1,1.16-.75,5.08,5.08,0,0,1,1.66-.61c.27,0,.54-.09.8-.1a6.85,6.85,0,0,1,.78.07l1.55.19a26.28,26.28,0,0,1,3.11.7A15.73,15.73,0,0,1,64.94,49a26.72,26.72,0,0,1,3,3.06,10.46,10.46,0,0,1,2.13,4.12,10.87,10.87,0,0,1,.21,1.25l.08,1.12c0,.38.06.75.07,1.12l-.06,1.14c0,.38,0,.76-.07,1.14l-.2,1.14c-.08.38-.12.76-.23,1.13l-.36,1.11-.22.68-.3.65c-.21.43-.41.87-.64,1.29a16.68,16.68,0,0,1-1.66,2.33,18.09,18.09,0,0,1-6.95,4.62c-1,.37-1.95.83-3,1.14a18.73,18.73,0,0,1-3.08.65c-.46,0-.91.12-1.37.11a2.65,2.65,0,0,1-1.8-.51,2.84,2.84,0,0,1-.65-1.45c0-.26-.12-.52-.14-.75A1.63,1.63,0,0,1,50.23,73a2.55,2.55,0,0,1,1.26-1A37.68,37.68,0,0,0,55.7,70.1a18.6,18.6,0,0,0,3.62-1.7,12.89,12.89,0,0,0,2.15-1.68c.25-.36.66-.6.92-1a6.67,6.67,0,0,0,.79-1.1Z"/><path class="cls-1" d="M65,51.49c-2.91-1.77-7-2.52-11.09-2.67l-1.56,0H51.16l-1.52.07a48.67,48.67,0,0,0-6.27.7c-1.12.19-2.43.52-3.55.69L39,50.4l-.7,0c-.22,0-.5,0-.66,0l-.52-.06-.26,0-.2,0-.38-.11c-.25-.07-.51-.12-.73-.19a4.43,4.43,0,0,1-1-.45,10.36,10.36,0,0,0-.95-.57,4.3,4.3,0,0,1-.48-.22l-.21-.14a.62.62,0,0,1-.24-.29.69.69,0,0,1,0-.34l0-.23c0-.16.06-.3.11-.47l.21-.59a5.71,5.71,0,0,1,.41-.72l.9-1.44a1.94,1.94,0,0,1,.41-.44l.51-.48.5-.47.26-.24.33-.26,2.86-2,1.41-1,1.47-.95c1-.64,1.91-1.26,2.84-1.89l2.53-1.73a56.65,56.65,0,0,0,5.69-4.47,23.37,23.37,0,0,0,2.35-2.45,8,8,0,0,0,1.44-2.43,1.67,1.67,0,0,0-.23-1.64c-.07-.15-.26-.28-.38-.43s-.35-.28-.53-.43a15.52,15.52,0,0,0-1.38-.8,17.61,17.61,0,0,0-6.65-1.6,25.13,25.13,0,0,0-7.11.62,37.43,37.43,0,0,0-8.71,3.21c-1.41.68-2.75,1.5-4.12,2.29l-2,1.3c-.69.4-1.26.95-2,1.35-1.77,1-1.85.55-1.09-1.21a12.48,12.48,0,0,1,2.08-3.21,14.29,14.29,0,0,1,1.76-1.83,16.14,16.14,0,0,1,2.25-1.74,38.64,38.64,0,0,1,9.64-4.57,30.23,30.23,0,0,1,11-1.41,20.47,20.47,0,0,1,5.73,1.15,19.07,19.07,0,0,1,2.8,1.3,10.42,10.42,0,0,1,2.87,2.24,7.19,7.19,0,0,1,1.8,4.22,8.42,8.42,0,0,1-.74,4,17,17,0,0,1-3.55,5,74.86,74.86,0,0,1-6.58,5.8l-.84.67-.27.2-.55.39c-.36.27-.75.53-1.06.78-.76.5-1.38.95-2.26,1.48l-.27.17s-.11.1,0,.12.08,0,.11,0a3.88,3.88,0,0,0,.48,0l1-.11c.69-.08,1.45-.15,2.28-.18q.61,0,1.29,0h1.42l1.77,0a37.41,37.41,0,0,1,7.15.9,20.7,20.7,0,0,1,8.39,3.91,15.37,15.37,0,0,1,5.15,8A14.53,14.53,0,0,1,76,59.34,13.63,13.63,0,0,1,75.44,63a15.75,15.75,0,0,1-3.52,6.2,28.31,28.31,0,0,1-11.29,7.23,58.66,58.66,0,0,1-19.76,3.43,34,34,0,0,1-4.39-.14C31,79,29.46,78,28.69,76.11a7.36,7.36,0,0,1-.49-1.29c-.1-.68.43-1.18,1.45-1.5A9.5,9.5,0,0,1,31.52,73,21.45,21.45,0,0,1,34,72.89c1.38,0,2.77,0,4.15-.07l4.13,0a73.79,73.79,0,0,0,8.16-.68,43.34,43.34,0,0,0,7.79-1.83A25.51,25.51,0,0,0,65,66.83a13.53,13.53,0,0,0,3.41-3.63,7.74,7.74,0,0,0,1.19-4.1A7.57,7.57,0,0,0,69.26,57a9.64,9.64,0,0,0-.94-2.1A9.23,9.23,0,0,0,65,51.63Z"/></g></svg>