<svg xmlns="http://www.w3.org/2000/svg" width="96" height="96" viewBox="0 0 96 96"><defs><style>.cls-1{fill:#231f20;}</style></defs><title>scribble final version</title><g id="Layer_1" data-name="Layer 1"><path class="cls-1" d="M64.18,66.1c-2.49.3-5,.78-7.43,1.33-.9.2-1.77.51-2.67.72-3.15.8-6.29,1.72-9.37,2.82-1.37.48-2.71,1-4,1.64-1.71.71-3.36,1.57-5.14,2.12-.56.18-.67-.24-.41-.84A4.14,4.14,0,0,1,37,72a51.48,51.48,0,0,1,10.75-4.16c1.11-.32,2.24-.66,3.37-1s2.27-.72,3.41-1c2.51-.69,5.07-1.2,7.63-1.66,1.59-.22,3.17-.49,4.78-.61a61.19,61.19,0,0,1,7.29-.27c.94.06,1.88,0,2.82.11a27.2,27.2,0,0,1,2.83.31c.41.08.82.13,1.24.22a3.19,3.19,0,0,1,1.54.71,1.24,1.24,0,0,1,.45.83,2.27,2.27,0,0,1,0,.43c0,.42-.76.58-1.81.47a46.54,46.54,0,0,0-9.65-.78,61.33,61.33,0,0,0-7.49.62Z"/><path class="cls-1" d="M66.83,51.89a6.9,6.9,0,0,1-1.11,1c-.23.16-.47.32-.7.46a4.91,4.91,0,0,1-.75.33,4.23,4.23,0,0,1-1.9.28,5,5,0,0,1-1.7-.48,13.85,13.85,0,0,1-2.09-1.27l-1.74-1.28c-.82-.61-1.72-1.16-2.46-1.69a44.83,44.83,0,0,0-9.24-4.78,32.91,32.91,0,0,0-4.52-1.33,50,50,0,0,1-5.86-1.43c-.59-.21-.43-.8.2-1.35a4,4,0,0,1,3-1,32.08,32.08,0,0,1,6.28,1.34,37.33,37.33,0,0,1,6,2.41,51.89,51.89,0,0,1,7,3.86c1.14.83,2.27,1.68,3.38,2.45a9.69,9.69,0,0,0,1.54.93,1.07,1.07,0,0,0,1,0,1.66,1.66,0,0,0,.37-.23,1.5,1.5,0,0,0,.35-.26,5.24,5.24,0,0,0,.72-.81,14.73,14.73,0,0,0,1.32-2c1.23-2.23,2.39-4.64,3.59-7a45.07,45.07,0,0,1,3-5.52,4.35,4.35,0,0,1,.89-1.12c1.38-1.18,2-1.33,2.78-.94a2.94,2.94,0,0,1,.5.27c.47.39.24,1.19-.35,2.11a18.08,18.08,0,0,1-1.18,2.23c-.43.72-.86,1.44-1.27,2.22-.83,1.52-1.64,3.14-2.45,4.82-.61,1.25-1.22,2.51-1.91,3.82a22,22,0,0,1-2.61,4Z"/><path class="cls-1" d="M10.94,28.51a97.09,97.09,0,0,1,9.18-3.68q4.57-1.62,9.19-3c2.25-.68,4.45-1.5,6.71-2.1a213.53,213.53,0,0,1,24.3-5c3.65-.49,7.31-1,11-1.35a65.29,65.29,0,0,1,7.16-.33,29.84,29.84,0,0,1,3.64.33,15.35,15.35,0,0,1,3.56,1.13c1.44.69.84,1.64-.6,2.55a20.69,20.69,0,0,1-2.67,1.46,8.46,8.46,0,0,1-3.37.62A99,99,0,0,0,65.64,20c-4.53.59-9.13,1.13-13.78,1.81-5.56.79-11.15,2.59-16.67,4.19-6.06,1.78-12.11,3.7-17.92,6-1.39.57-2.77,1.17-4.08,1.81l-1,.49-.34.19-.26.14c-.3.2-.74.42-.72.84a3.42,3.42,0,0,0,0,.64c0,.11,0,.22,0,.33s.05.37.09.56c.51,2.73,1.35,5.63,2.14,8.48l2.48,8.61c1.27,4.48,2.75,8.85,3.45,13.62a29.81,29.81,0,0,1,.36,3.2,15.51,15.51,0,0,1-.13,2.6,6.18,6.18,0,0,1-.65,1.75,3,3,0,0,1-2,1.53,4.33,4.33,0,0,1-1,.23c-.54,0-.9-.44-1.17-1.13a14.39,14.39,0,0,1-.71-2.87,66.31,66.31,0,0,0-2.06-11.33c-1-3.92-2.17-7.94-3.4-12-.67-2.23-1.35-4.49-2-6.83-.31-1.18-.63-2.36-.9-3.63l-.2-1-.09-.51-.1-.68a12,12,0,0,1,0-3.39l.17-.56c0-.08,0-.2.14-.26l.1-.27a4,4,0,0,1,.62-1,9,9,0,0,1,1.83-1.57c.33-.24.66-.44,1-.64L9.61,29c.42-.23.84-.45,1.25-.65Z"/><path class="cls-1" d="M59.39,70c-1.63.26-3.26.63-4.89,1l-4.89,1.2c-1.2.32-2.34.77-3.54,1.08-2.1.55-4.21,1.14-6.31,1.73s-4.2,1.26-6.28,1.94c-1.85.63-3.65,1.38-5.42,2.14a30.85,30.85,0,0,1-7,2.52c-.77.14-1-.65-.74-1.71a5.22,5.22,0,0,1,2.26-3.16,43.85,43.85,0,0,1,7-3.13,70.65,70.65,0,0,1,7.35-2.35c1.49-.41,3-.91,4.48-1.46s3-1.15,4.48-1.61,3.33-1,5-1.45l2.55-.65L56,65.51c1.05-.25,2.11-.44,3.18-.63s2.13-.4,3.21-.54a75.48,75.48,0,0,1,9.86-.8c2.55-.11,5.09-.23,7.65-.13.56,0,1.11,0,1.67.09,2,.46,2.59,1,2.76,2.34a6.79,6.79,0,0,1,.12.84c0,.86-1,1.62-2.47,1.78a15.74,15.74,0,0,1-1.64.17c-.54,0-1.08,0-1.62,0-1.06,0-2.13,0-3.19,0H74l-1.6,0c-1.07,0-2.14.09-3.21.15a74.68,74.68,0,0,0-9.71,1.33Z"/><path class="cls-1" d="M68.3,49.91c-.24.4-.51.76-.76,1.14a9.86,9.86,0,0,1-.85,1l-.45.39-.52.25-.52.25a.92.92,0,0,0-.28.14l-.29,0a5.65,5.65,0,0,1-2.35-.33c-.81-.3-1.63-.74-2.35-1.09l-2.66-1.38c-.85-.43-1.69-.85-2.55-1.25-1.24-.58-2.55-1-3.82-1.51a70.87,70.87,0,0,0-13.79-4.59,36.81,36.81,0,0,0-6.44-.72c-1.38-.06-2.76,0-4.13,0a39.26,39.26,0,0,1-4.16-.33c-.87-.14-.84-1.07-.15-2.11A5.72,5.72,0,0,1,26,37.27a28.57,28.57,0,0,1,4.53-.11c1.51.07,3,.19,4.51.38a44.76,44.76,0,0,1,8.83,2.06c3.41,1.18,7.08,2,10.46,3.44,1.85.78,3.68,1.64,5.46,2.54l1.32.69.66.34.25.13.16.1.58.32.3.16c.1,0,.22.11.32,0a2.16,2.16,0,0,0,.53-.59l.24-.34.12-.18.21-.35,1.8-3.13c1.82-3.2,3.83-6.36,5.94-9.43a55.54,55.54,0,0,1,5.32-7.06A16.35,16.35,0,0,1,79,24.85a8,8,0,0,1,1.36-.91,3.23,3.23,0,0,1,1.13-.3,2.16,2.16,0,0,1,1.71.79,5.33,5.33,0,0,1,.69.75c.61.93.17,2.08-.79,3.18A58.52,58.52,0,0,0,74.5,39.43c-1,1.58-1.93,3.2-2.88,4.87L70.2,46.83l-.73,1.3L68.41,50Z"/><path class="cls-1" d="M80,43.27l1.28-4c.16-.49.19-1,.36-1.47.65-1.68,1.27-3.37,2.09-5,.36-.72.59-1.48.93-2.22a8.81,8.81,0,0,1,.66-1.44,4.2,4.2,0,0,1,.46-.67,6,6,0,0,1,.66-.58c.3-.22.66.23,1,.81a7.89,7.89,0,0,1,.42.89,1.31,1.31,0,0,1,.13.78,31.36,31.36,0,0,1-1.54,5.25,13.79,13.79,0,0,0-.78,3.47L84.79,43c-.16.8-.31,1.61-.44,2.42a23.08,23.08,0,0,0-.5,3.68A9.75,9.75,0,0,0,84,50.54c.05.48.12,1,.16,1.42a1.78,1.78,0,0,1,0,.61c-.14.75-.49,1-1.51,1.15l-.69.11A1.9,1.9,0,0,1,80.17,53a7.84,7.84,0,0,1-1.1-2.78,12,12,0,0,1,0-2.81,27.46,27.46,0,0,1,.74-4.11Z"/></g></svg>