<svg xmlns="http://www.w3.org/2000/svg" width="96" height="96" viewBox="0 0 96 96"><defs><style>.cls-1{fill:#231f20;}</style></defs><title>scribble final version</title><g id="Layer_1" data-name="Layer 1"><path class="cls-1" d="M67,10.05a24.91,24.91,0,0,1,5.71-1.49l1.16-.15a7.77,7.77,0,0,1,1.27,0l.89.19a6.77,6.77,0,0,1,1,.38,4.64,4.64,0,0,1,1.68,1.55,6.38,6.38,0,0,1,.76,1.75,17.77,17.77,0,0,1,.53,3l.36,3.1a10.72,10.72,0,0,1,.15,2,10.3,10.3,0,0,1-.51,2c-.17.41-.54.34-1.06,0a5.43,5.43,0,0,1-1.73-1.58,45.49,45.49,0,0,1-1.15-7c-.2-.82-.23-.93-.53-1.13-.09,0-.25-.06-.47,0a5,5,0,0,0-.69,0,14.38,14.38,0,0,0-4.53.92A27.33,27.33,0,0,0,67,14.65a28,28,0,0,0-4.13,2.42c-1,.77-1.84,1.66-2.74,2.5-.2.18-.37.38-.58.56a1.3,1.3,0,0,1-2,0c-.18-.14-.37-.26-.54-.41a1.48,1.48,0,0,1-.19-2A17.3,17.3,0,0,1,59,14.87,15.62,15.62,0,0,1,62,12.59,35.11,35.11,0,0,1,67,10Z"/><path class="cls-1" d="M59.12,51.86a48.51,48.51,0,0,1-9.5,8.47,38.54,38.54,0,0,1-3.93,2.52,38.14,38.14,0,0,1-15.77,3.48c-1.18,0-2.35,0-3.52-.08-.59,0-1.17-.08-1.75-.12s-1.15-.19-1.72-.28a33,33,0,0,1-8.4-2.62c-.83-.38-.65-.53.18-.66a27.42,27.42,0,0,1,3.95-.32c1.44.07,2.88,0,4.28,0L25,62.09c.68,0,1.36,0,2,0a46.73,46.73,0,0,0,8.08-.76,18.29,18.29,0,0,0,4.73-1.58c.77-.34,1.48-.82,2.22-1.21s1.44-.86,2.16-1.29a39.1,39.1,0,0,0,8.61-7.11l1.18-1.31,1.1-1.37c.76-.9,1.41-1.89,2.09-2.86a56.27,56.27,0,0,0,5.24-9.46c1.13-2.57,1.59-5.36,2.53-8,.18-.58.31-1.17.53-1.75.1-.27.2-.51.3-.73s.26-.39.38-.56a4.41,4.41,0,0,1,.74-.79,2.73,2.73,0,0,1,1.66-.59,6.67,6.67,0,0,1,.86-.06c.87.05,1.34,1.21,1.48,3.09a8,8,0,0,1-.11,2c-.08.66-.17,1.33-.28,2s-.25,1.33-.38,2a14.51,14.51,0,0,1-.6,1.94,55.52,55.52,0,0,1-3.33,7.62,62.69,62.69,0,0,1-7,10.56Z"/><path class="cls-1" d="M63.23,10.31A40,40,0,0,1,67.3,7.7a24.46,24.46,0,0,1,2.35-1.14c.21-.09.45-.16.67-.24a6,6,0,0,1,.74-.23A7.47,7.47,0,0,1,73,5.78a7.05,7.05,0,0,1,2.37.34,6.23,6.23,0,0,1,1.33.81A6.67,6.67,0,0,1,77.78,8.1a8.67,8.67,0,0,1,.61,1,7.84,7.84,0,0,1,.39.76c.24.51.44,1,.62,1.5.37,1,.67,2,.94,2.91.51,1.94,1,3.84,1.29,5.77.26,1.71.63,3.39,1,5.07A13.78,13.78,0,0,1,83,28.38a18.41,18.41,0,0,1-.38,3.37c-.16.71-.5.61-1.08.09a12.16,12.16,0,0,1-2.22-2.53l-.39-.74a2.91,2.91,0,0,1-.33-.75l-.43-1.53-.85-3.06c-.27-1-.59-2-.78-3.07L76,17a13.66,13.66,0,0,0-1.13-3.59,13.63,13.63,0,0,0-.82-1.53c-.16-.27-.16-.26-.24-.38a2.75,2.75,0,0,0-.22-.26.48.48,0,0,0-.16-.12,1.11,1.11,0,0,0-.7-.1l-.18,0c-.11,0-.24.08-.37.12a6.9,6.9,0,0,0-.78.3,22.77,22.77,0,0,0-3.3,1.89,47.35,47.35,0,0,0-4.23,3.23,63.29,63.29,0,0,0-6,5.62c-1.44,1.56-2.53,3.38-3.81,5-.28.37-.52.75-.83,1.1-1.14,1.29-1.77,1.47-3,.94-.27-.12-.56-.22-.81-.36-.84-.49-1-1.56-.47-2.8.42-.91.87-1.81,1.36-2.69a21,21,0,0,1,1.7-2.49,43.75,43.75,0,0,1,4.05-4.59,73,73,0,0,1,7-6.14Z"/><path class="cls-1" d="M41.18,86.49c.15.26-.11.57-.49.89a.92.92,0,0,1-.62.13c-.18-.13-.37-.25-.53-.39s-1.12-1.53-1.55-2a6.19,6.19,0,0,1-.62-1.57c-.31-1.09-.6-2.21-.84-3.32a2.15,2.15,0,0,1,0-.76,8,8,0,0,0,0-2.54c0-.14,0-.29-.17-.41A7,7,0,0,1,36,73.75c.25-.72.39-1.44.57-2.16,0-.1,0-.2.14-.3a.69.69,0,0,0,.4-.68,4.31,4.31,0,0,1,.27-.94,3.61,3.61,0,0,1,.48-.48,1,1,0,0,1,.71-.07c.17.12.41,0,.61,0l.23,0A10,10,0,0,1,41,71s.13.68.25,1.37.26,1.41.31,1.56,0,.31-.09.46.41,2.11.41,2.18c0,.43.16.83-.18,1.26a.26.26,0,0,0,0,.25,10.31,10.31,0,0,1-.14,2.14,7.81,7.81,0,0,0,.05,1.08c0,.06-.05.13-.06.2a.57.57,0,0,0-.06.25,14.61,14.61,0,0,0,.25,2.56c0,.19-.34,1.24-.28,1.47S41.1,86.39,41.18,86.49Z"/><path class="cls-1" d="M60.27,77.09c.16.26-.1.57-.49.89a.9.9,0,0,1-.62.13c-.17-.13-.36-.25-.52-.39s-1.12-1.53-1.55-2a5.87,5.87,0,0,1-.63-1.57c-.3-1.09-.6-2.21-.83-3.32a2.15,2.15,0,0,1,0-.76,8.38,8.38,0,0,0,0-2.55c0-.13,0-.28-.17-.4a6.83,6.83,0,0,1-.29-2.74c.25-.72.39-1.44.57-2.16,0-.1,0-.2.14-.31a.7.7,0,0,0,.4-.67,4.31,4.31,0,0,1,.27-.94,3.1,3.1,0,0,1,.48-.48.91.91,0,0,1,.71-.07c.17.12.41,0,.61,0l.22,0a10.39,10.39,0,0,1,1.59,1.9s.12.68.25,1.37.26,1.41.31,1.56,0,.31-.09.46.41,2.11.41,2.18c0,.43.15.83-.19,1.26a.28.28,0,0,0,0,.25,10.31,10.31,0,0,1-.14,2.14,9.48,9.48,0,0,0,0,1.07c0,.07,0,.14-.06.21a.74.74,0,0,0-.05.25,15.63,15.63,0,0,0,.24,2.56c0,.19-.33,1.24-.28,1.47S60.2,77,60.27,77.09Z"/><path class="cls-1" d="M74.78,58.29c.16.26-.11.57-.49.89a.91.91,0,0,1-.62.13c-.17-.13-.36-.25-.53-.39s-1.12-1.52-1.55-2A6.19,6.19,0,0,1,71,55.32c-.3-1.09-.6-2.2-.83-3.32a2.15,2.15,0,0,1,0-.76,8.3,8.3,0,0,0,0-2.54c0-.14,0-.29-.16-.41a7,7,0,0,1-.3-2.74c.26-.72.39-1.43.58-2.15,0-.11,0-.21.13-.31a.7.7,0,0,0,.41-.68,4.27,4.27,0,0,1,.26-.94A3.2,3.2,0,0,1,71.5,41a.94.94,0,0,1,.7-.07c.18.12.41,0,.62,0l.22,0a10.39,10.39,0,0,1,1.59,1.9l.25,1.37c.13.7.26,1.41.31,1.56a.71.71,0,0,1-.1.46c0,.08.42,2.11.42,2.18,0,.43.15.83-.19,1.26-.07.09,0,.17,0,.26A9.57,9.57,0,0,1,75.16,52a9.75,9.75,0,0,0,0,1.08.89.89,0,0,1-.06.2.74.74,0,0,0,0,.25,14.6,14.6,0,0,0,.24,2.56c0,.19-.34,1.24-.28,1.47S74.71,58.19,74.78,58.29Z"/></g></svg>