<svg xmlns="http://www.w3.org/2000/svg" width="96" height="96" viewBox="0 0 96 96"><defs><style>.cls-1{fill:#231f20;}</style></defs><title>scribble final version</title><g id="Layer_1" data-name="Layer 1"><path class="cls-1" d="M50.71,48.53l-3.5-12.77-.43-1.5L46.72,34l-.15-.65-.1-.36c0-.11-.11-.32-.15-.15l-.31.55c-.12.21-.18.31-.4.75l-.32.65L44.71,36l-1.15,2.46-1.18,2.45-.6,1.23-.87,1.7L40,45.65l-1,1.7-.24.42-.25.31-.51.61a6.57,6.57,0,0,1-1,1,5,5,0,0,1-.79.46l-.39.11a1.79,1.79,0,0,1-.23,0h-.09c0,.07.05-.6,0-.32h0l-.12,0c-.24-.11-.43-.23-.66-.36A2.51,2.51,0,0,1,34,49.1a7.39,7.39,0,0,1-1.23-2.61c-.35-1.1-.66-2.24-1-3.37l-.7-2.61-.52-2-1-4.06-2-8.1-.74-2.8a19.88,19.88,0,0,0-.59-1.92c0-.08-.07-.16-.12-.24s-.13,0-.16.09l-.24.42c-.14.29-.29.59-.43.9s-.27.62-.4.94l-.48,1.22c-1,2.61-2,5.24-3,7.86Q20,36.44,18.68,40.1c-.45,1.22-.91,2.43-1.39,3.65l-.75,1.82c-.33.63-.48,1.08-1.08,2.09l-.34.44,0,0h0L15,48.05h0l-.05,0-.11,0-.23.1a2.18,2.18,0,0,1-.53.16c-.21,0-.41,0-.61,0l-1.73-.16-3-.34c-1.92-.26-2-.56-.73-.92.61-.18,1.54-.39,2.7-.64l1.91-.39c.45-.07.45-.11.5-.16a.13.13,0,0,0,0-.15l0-.06s0,0,0-.2l.19-.79a16.59,16.59,0,0,1,.52-1.66l3.48-10.42c.59-1.75,1.18-3.5,1.8-5.24l1-2.61.51-1.3c.1-.25.48-1.36.83-2.13l1-2.49c.36-.78.76-1.43,1.13-2.14.19-.33.38-.74.57-1l.58-.34.57-.34a.45.45,0,0,1,.26-.1l.23,0,.48-.08a2.15,2.15,0,0,1,.61.11,3.69,3.69,0,0,1,1,.62c.71.53,1.34,2,1.87,3.61.26.8.52,1.61.77,2.43l.37,1.23.19.61.09.35.73,2.7,1.38,5.39c.73,2.9,1.46,5.89,2.25,8.77.12.46.25,1,.39,1.42a7.19,7.19,0,0,0,.24.7c0,.2.18,0,.23-.09l.19-.32c.24-.41.45-.83.67-1.25l1.65-3.32,2.15-4.41,3.16-6.61.92-1.12.45-.54.36-.23.72-.49c0-.06.22,0,.27,0a1.37,1.37,0,0,1,.2.13,2.64,2.64,0,0,1,.37.31A6.18,6.18,0,0,1,49,26.77c.46,1.07.86,2.39,1.25,3.64.91,3,1.21,4.08,1.7,5.78L53.34,41c1.66,5.91,3.26,11.84,5,17.69L59,61l.4,1.31A10.11,10.11,0,0,0,60,63.61s0,.11.11.13a.64.64,0,0,0,.13-.1,2.83,2.83,0,0,0,.24-.25c.15-.16.29-.34.43-.52l.74-.95.95-1.31L65.07,57c1-1.42,2-2.83,2.93-4.25a9.94,9.94,0,0,1,1.8-2.15,6.28,6.28,0,0,1,.83-.63l.2-.13c.06-.06.21,0,.28,0a2.83,2.83,0,0,1,.44.3,7.63,7.63,0,0,1,1.81,2.53c.27.56.53,1.15.79,1.73l.69,1.64L76.91,61c1.34,3.29,2.68,6.56,4,9.84.58,1.45,1.19,2.85,1.76,4.32.16.4.3.78.43,1.11a2,2,0,0,0,.09.26.67.67,0,0,0,.23.1l.43.1s.5.09.8.15.61.12.88.19a6.23,6.23,0,0,1,2.35,1,5.86,5.86,0,0,1,.85.63c.28.35-.15.68-1.2,1.07a18.1,18.1,0,0,1-2,.58c-.42.09-.88.17-1.39.24-.18,0-.71.08-1.11.08a10.19,10.19,0,0,1-1.34,0,3.7,3.7,0,0,1-1.48-.53,1.9,1.9,0,0,1-.55-.58,3.53,3.53,0,0,1-.43-.71c-.67-1.55-1.35-3.11-2-4.69-.59-1.41-1.18-2.82-1.77-4.25L72,61.27l-.88-2.16L70.65,58l-.23-.53,0-.06s-.05,0-.06,0a.08.08,0,0,0,0,0l0,.05-.67,1-1.36,2L66,63.7,65.1,65,64,66.52,62.78,68c-.39.46-.8.79-1.19,1.2a2.76,2.76,0,0,1-.81.4l-.39.17a2.33,2.33,0,0,1-.36,0,2.36,2.36,0,0,1-.7,0,3.24,3.24,0,0,1-.4-.06l-.34-.1a3.17,3.17,0,0,1-1.29-.84,5.83,5.83,0,0,1-1.15-1.93c-.33-.81-.63-1.67-.91-2.54L54.48,62l-.81-2.69L50.6,48.57Z"/></g></svg>