<svg xmlns="http://www.w3.org/2000/svg" width="96" height="96" viewBox="0 0 96 96"><defs><style>.cls-1{fill:#231f20;}</style></defs><title>scribble final version</title><g id="Layer_1" data-name="Layer 1"><path class="cls-1" d="M26.42,70.93a.41.41,0,0,1,0,.11v.08a.4.4,0,1,0,0,0s0,.1.11.12.07,0,.13,0a1.05,1.05,0,0,0,.7,0c.08-.05.12-.11.1-.18s-.17-.16,0-.28a4,4,0,0,1,1-.23c.48,0,1,.05,1.06.29a1.56,1.56,0,0,1-.16,1.19,1.64,1.64,0,0,1-.77.77c-.38.16-.6.47-1,.62a2.5,2.5,0,0,1-1.31.17,3.6,3.6,0,0,1-.72-.19c-.33-.12-.58-.31-.88-.4a3.77,3.77,0,0,0-.83,0c-.06,0-.15,0-.19,0s-.1-.32.39-1l.3-.42a5.68,5.68,0,0,1,.94-1c.58-.37.71-.21.87-.11a.7.7,0,0,1,.19.31Z"/><path class="cls-1" d="M19.57,80.09a3.53,3.53,0,0,0,.54.08c.06,0,.1,0,.17,0a1.5,1.5,0,0,0,.63-.07.29.29,0,0,0,.16-.2c.05-.11,0-.24.19-.28a2.93,2.93,0,0,1,.77.31c.33.18.63.44.57.57a1.48,1.48,0,0,1-1.12.91,7.79,7.79,0,0,0-.74.27,3.59,3.59,0,0,1-.79.08l-.45,0a3.53,3.53,0,0,0-.65,0c-.16,0-.32.17-.48.18l-.1,0c-.12,0-.16-.14-.19-.52l0-.25a1.21,1.21,0,0,1,.13-.66c.15-.16.29-.38.42-.41A1.51,1.51,0,0,1,19,80c.19,0,.38,0,.56,0Z"/><path class="cls-1" d="M30.08,74.58a2.93,2.93,0,0,1-.77.59l-.43.23-.48.14-.47.13-.42,0a4.63,4.63,0,0,1-.83,0,4.51,4.51,0,0,1-1.21-.11,3.67,3.67,0,0,1-1.74-1.22,3.81,3.81,0,0,1-.88-1.94,2.93,2.93,0,0,1,.38-2,2,2,0,0,1,2-1.1c.23,0,.3.66.33,1.31s.05,1.29,0,1.37,0,.06,0,.07L25.41,72l-.09-.1-.11-.06a0,0,0,0,0,0,0c-.06,0,.06,0,.09,0s.45-.09.32,0a.65.65,0,0,0,0,.3.46.46,0,0,0,.31.36c.15.08.32.14.49.21a1.77,1.77,0,0,0,.63.15,1.2,1.2,0,0,0,.54,0,.65.65,0,0,0,.47-.45,1,1,0,0,0-.38-1,4.43,4.43,0,0,0-1.07-.5,1.34,1.34,0,0,1-.27-.07c-.32-.13-.41-.26-.47-.71,0-.1,0-.2,0-.3,0-.32.18-.58.59-.7a4,4,0,0,1,2,0,2.42,2.42,0,0,1,.53.19l.58.36a3.6,3.6,0,0,1,.51.52,2.46,2.46,0,0,1,.42.61,3.13,3.13,0,0,1-.27,3.81Z"/><path class="cls-1" d="M23.21,82.82a3.8,3.8,0,0,1-2.81,1.06c-.2,0-.38,0-.58,0a3.85,3.85,0,0,1-.58-.08,3,3,0,0,1-1.66-1.13,3.48,3.48,0,0,1-.73-1.7,2.62,2.62,0,0,1,.34-1.79,1.68,1.68,0,0,1,1.71-.95c.2,0,.27.67.33,1.3a12.69,12.69,0,0,0,.16,1.33c0,.08-.07-.09-.14-.19a.64.64,0,0,0-.14-.15.46.46,0,0,0-.07-.07L19,80.42h0c-.05,0,.05,0,.07,0a.51.51,0,0,0,.21,0h0l.42-.08h0l0,0a.5.5,0,0,0-.14.23c-.07.26.18.28.34.35a1.17,1.17,0,0,0,.77.11A.52.52,0,0,0,21,80.7a.74.74,0,0,0-.29-.79,1.14,1.14,0,0,0-.72-.15.88.88,0,0,1-.17,0c-.21-.08-.3-.24-.33-.68l0-.29a.68.68,0,0,1,.5-.71,5.73,5.73,0,0,1,1-.21,8.24,8.24,0,0,1,1.21.37,2,2,0,0,1,.61.29l.43.44a3.46,3.46,0,0,1,.59,1,2.44,2.44,0,0,1,.17,1.54,2.46,2.46,0,0,1-.65,1.39Z"/><path class="cls-1" d="M60.76,35.75q-3.51,3.49-6.91,7.12c-.87.85-1.56,1.84-2.43,2.69-3.05,3-6.08,6-9,9.2C41.11,56.12,39.9,57.59,38.7,59a49.49,49.49,0,0,1-4.8,5.46c-.56.52-.92.14-1-.73a6.6,6.6,0,0,1,.61-3.55c2.37-4.41,4.73-8.85,8.36-12.37,2.1-2.16,3.73-4.83,5.65-7.22,1-1.33,2.15-2.59,3.28-3.84l3.41-3.74,4.25-4.57c2.13-2.31,4.38-4.54,6.46-6.9.81-.92,1.53-1.89,2.33-2.82s1.51-1.92,2.39-2.82A5.85,5.85,0,0,1,70.8,14.8c1.77-1.12,2.68-1.09,3.78-.31a8.64,8.64,0,0,1,.73.54c.7.65.59,1.86,0,3.19-.23.47-.45,1-.67,1.53a8.3,8.3,0,0,1-.84,1.35C73.2,22,72.6,22.89,72,23.74a47,47,0,0,1-4.26,4.93c-2.24,2.38-4.57,4.75-6.82,7.19Z"/><path class="cls-1" d="M74.06,21.15a6.58,6.58,0,0,0-.42-2.75,4.24,4.24,0,0,0-.61-1c0-.09-.19-.3-.6-.44a8.53,8.53,0,0,0-2.35-.2,26.12,26.12,0,0,0-5.23.47c-1.81.34-3.64.78-5.47,1.25a33.91,33.91,0,0,0-4.73,1.75,39,39,0,0,1-6,2.44c-.67.17-1-.58-.82-1.58a4.34,4.34,0,0,1,1.76-3,54.51,54.51,0,0,1,6-3.31,24.94,24.94,0,0,1,6.61-2.19c1.4-.24,2.79-.61,4.25-.94A19.47,19.47,0,0,1,71.07,11a11.34,11.34,0,0,1,2.9.38,7.92,7.92,0,0,1,1.57.61A6.79,6.79,0,0,1,77,13a10.25,10.25,0,0,1,1.86,2.35A11.53,11.53,0,0,1,80,18.05a18.05,18.05,0,0,1,.34,6.37,67.46,67.46,0,0,1-1.79,8.67c-.54,2.15-.56,4.42-1.17,6.49-.12.46-.17.93-.33,1.37-.58,1.66-1.21,2-2.92,1.88-.39,0-.78,0-1.16-.11a2.63,2.63,0,0,1-2.15-2.64q-.08-1.56,0-3.09l.06-1.52A11,11,0,0,1,71.1,34c.44-1.89,1-3.71,1.5-5.49a26.72,26.72,0,0,0,1.3-7.38Z"/></g></svg>