<svg xmlns="http://www.w3.org/2000/svg" width="96" height="96" viewBox="0 0 96 96"><defs><style>.cls-1{fill:#231f20;}</style></defs><title>scribble final version</title><g id="Layer_1" data-name="Layer 1"><path class="cls-1" d="M64.41,48.64c.85-2.06,1.73-4.11,2.62-6.16l1.34-3,.43-1c.06-.12,0-.22-.07-.38a6.45,6.45,0,0,0-1.13-1.57c-.47-.53-1-1-1.55-1.58a75.62,75.62,0,0,0-6.39-5.35c-2.25-1.72-4.54-3.41-6.83-5.11L46.69,20a60,60,0,0,1-7.52-6.17c-.71-.72-.26-1,.75-.94A9.56,9.56,0,0,1,44,14.48c2.67,1.88,5.39,3.65,8.08,5.52s5.34,3.81,8,5.85c1.57,1.23,3.24,2.4,4.91,3.62a37.77,37.77,0,0,1,4.9,4.07A17.1,17.1,0,0,1,71.12,35c.2.25.38.53.57.8l.25.45a3.13,3.13,0,0,1,.29.58l.26.63.19.65c0,.11.1.22.06.33l-.1.32-.18.64c-.07.2-.15.44-.21.6l-.16.4-.32.79c-.84,2.07-1.66,4.12-2.45,6.19-1,2.55-1.94,5.12-2.84,7.7-1.39,3.9-2.74,7.84-3.88,11.8-.88,3.08-1.46,6.19-2.17,9.28-.15.68-.25,1.37-.43,2-.66,2.52-1.23,3.21-2.74,3.33a6.08,6.08,0,0,1-1,.07c-1.12-.08-1.67-1.35-1.4-3.27a71.16,71.16,0,0,1,1.82-8.57c.82-2.85,1.82-5.68,2.85-8.52,1.57-4.19,3.16-8.4,4.81-12.6Z"/><path class="cls-1" d="M64.2,25.36q2.73,2.19,5.43,4.47l2.69,2.32,1.33,1.2.34.3.52.49,1.08,1,.87,1.25a3.47,3.47,0,0,1,.32,1.49A12.71,12.71,0,0,1,76.29,41c-.32,1.27-.69,2.45-1.06,3.63-.75,2.34-1.54,4.64-2.36,6.92-1.19,3.26-2.27,6.55-3.54,9.77q-2.23,5.58-4.58,11.09l-2.38,5.51-3,6.83a3.53,3.53,0,0,1-.58.88l-.31.39-.15.2-.15.12-.6.49a.58.58,0,0,1-.42.15,2.14,2.14,0,0,1-.45,0A5.17,5.17,0,0,1,55,86.21a11.55,11.55,0,0,1-1.71-1.5c-.56-.58-1.12-1.2-1.63-1.79L51,82.19l-.51-.6c-.68-.81-1.35-1.6-2-2.42-3.39-4.2-6.85-8.32-10.4-12.26-2.32-2.5-4.55-5.07-6.88-7.52-1.16-1.23-2.36-2.42-3.58-3.56a16.61,16.61,0,0,0-3.9-2.93c-.88-.42-1.27-.45-1.25-.63S23,51.89,24,52a12.92,12.92,0,0,1,3.88,1.11,21.7,21.7,0,0,1,4.85,2.84q2,1.59,4,3.26l1.93,1.69c.64.56,1.21,1.19,1.8,1.79,2.36,2.43,4.64,4.92,6.87,7.43s4.45,5,6.57,7.56l.79,1,.4.46a1.17,1.17,0,0,1,.08.13c.06.11.12.22.21.36s.19.32.35.39.16-.18.27-.3l.24-.34a10.39,10.39,0,0,0,.51-1l.64-1.45,1.25-2.94q1.23-3,2.37-6c1.54-4,3-8.11,4.46-12.14Q67.24,50.9,68.89,46c.54-1.62,1.07-3.25,1.54-4.85L70.76,40l.19-.71a3.08,3.08,0,0,0,.08-.53.22.22,0,0,0-.11-.22l-.19-.19c-.26-.29-1.46-1.35-2.35-2.14s-1.92-1.65-2.91-2.46C61,30.05,56.39,26.48,51.75,23l-5.68-4.32-2.83-2.17L41.33,15l-.68-.55-.34-.29c-.1-.06-.23-.28-.35-.13a6.44,6.44,0,0,0-.64,1.61l-.24.84-.28,1L38,20.4C36.34,27,35,33.64,32.84,40.25c-.49,1.45-1,2.9-1.61,4.35A14.06,14.06,0,0,1,27.55,50a3.69,3.69,0,0,1-3.5.76,2.6,2.6,0,0,1-1.1-.6c-.32-.44,0-.93.28-1.68a24.58,24.58,0,0,1,1.52-3.45,58.24,58.24,0,0,0,2.95-8c.86-2.85,1.65-5.79,2.43-8.78s1.54-6.06,2.32-9.11l.6-2.33.3-1.17L34,13.49a19.51,19.51,0,0,1,1.58-4.22A4.63,4.63,0,0,1,36.69,8a3.91,3.91,0,0,1,1.36-.71,14.68,14.68,0,0,1,1.74,0c.49-.18,1.34.44,2.09.83l2.52,2,2,1.57L49,13.55l5.09,3.86q5.11,3.87,10.22,7.83Z"/></g></svg>