<svg xmlns="http://www.w3.org/2000/svg" width="96" height="96" viewBox="0 0 96 96"><defs><style>.cls-1{fill:#231f20;}</style></defs><title>scribble final version</title><g id="Layer_1" data-name="Layer 1"><path class="cls-1" d="M64.18,16.92a1.9,1.9,0,0,1,1.62.49,4.23,4.23,0,0,1,1.1,1.64c.18.44-.14,1.58-.49,1.69-.67.22-1.33.44-2,.58-.09,0-.54.05-1.17.08l-1.08.06-1.25.15c-.87.08-1.77.31-2.57.46s-1.49.42-1.95.55c-1.79.62-3.51,1.19-5.28,1.7-.9.23-1.76.61-2.64.92S46.78,26,46,26.42a37.7,37.7,0,0,0-4.82,2.92c-.67.5-1.4.91-2.13,1.35a20.6,20.6,0,0,0-6.36,5.9,2.69,2.69,0,0,0-.72,1.26c-.06.42-1.29,2.17-2.3,4.06s-1.91,3.88-2.16,4.32a23.84,23.84,0,0,0-2.71,7.1c-.1.36,0,.75-.28,1.07A2.44,2.44,0,0,0,24,55.57c0,.4,0,.81-.07,1.21-.13,1.14-.05,2.26-.21,3.45a15.49,15.49,0,0,1-.36,1.8.5.5,0,0,1-.84.26c-.31-.49-.51,0-.75.12a.68.68,0,0,1-.27.07,8.64,8.64,0,0,1-.61-1.07,16.13,16.13,0,0,1-1.13-2.5,28.44,28.44,0,0,1-.89-2.78,8.17,8.17,0,0,1-.25-1.67c0-.05-.07-.79,0-1.89,0-.55.05-1.19.08-1.89s.16-1.42.24-2.16a44.15,44.15,0,0,1,1.47-6.63,5.82,5.82,0,0,1,.91-1.79c0-.07.26-.65.59-1.49s.8-1.9,1.36-2.92L24,34.15l.78-1.31a14.11,14.11,0,0,1,.87-1.38c.59-.72,1.1-1.51,1.76-2.18a7.48,7.48,0,0,1,2.18-1.76,3.49,3.49,0,0,0,.84-.74,33.69,33.69,0,0,1,7.63-5.63l2.09-1.21c.69-.42,1.41-.79,2.14-1.14a5.88,5.88,0,0,1,.84-.27,9.32,9.32,0,0,0,1.06-.33,39.47,39.47,0,0,1,11.1-2.87,20.72,20.72,0,0,1,3,.17l1.83.23a11.41,11.41,0,0,0,1.25.15,5.41,5.41,0,0,1,1.43.52A3.63,3.63,0,0,0,64.18,16.92Z"/><path class="cls-1" d="M71.83,39.32c.79-.43,1.59,0,2.31,1a2,2,0,0,1,.11,1.57,11.69,11.69,0,0,1-1.17,1c-.12.1-1.21.39-2.37.88a32.71,32.71,0,0,0-3,1.45c-1.12.75-2.33,1.22-3.41,1.93a32.72,32.72,0,0,0-3.25,2.16,17.85,17.85,0,0,0-1.47,1.27A11.16,11.16,0,0,0,58.21,52a8.57,8.57,0,0,1-1.29,1.18,15.51,15.51,0,0,0-2,2.24,19.41,19.41,0,0,0-1.48,2.68,2.26,2.26,0,0,0-.27,1,4.21,4.21,0,0,1-.34,1.14c-.17.58-.4,1.32-.65,2s-.42,1.49-.61,2.09a10.7,10.7,0,0,1-.4,1.24c-.33.85-.61,1.73-1,2.6s-.52,1.8-.78,2.71c-.09.27,0,.55-.24.79a2.58,2.58,0,0,0-.51,1.73c-.11.81-.24,1.64-.4,2.47a9.06,9.06,0,0,1-.45,1.26c-.15.39-.64.23-.71.11-.19-.37-.41,0-.62,0a.58.58,0,0,1-.22,0c-.06,0-.49-1.23-1-2.56a9.28,9.28,0,0,1-.57-1.92,8.93,8.93,0,0,1-.22-1.14c0-.07-.07-2-.08-4.06a34.83,34.83,0,0,1,.5-4.62,5.73,5.73,0,0,1,.48-1.31s.08-.47.25-1.07l.61-2.16a18.28,18.28,0,0,1,.73-2.14c.23-.59.39-1,.42-1.06a19.44,19.44,0,0,1,.92-1.75A6.36,6.36,0,0,1,49.48,52a3.26,3.26,0,0,0,.49-.62A20.75,20.75,0,0,1,52,48.68c.81-.8,1.57-1.64,2.44-2.36s1.68-1.58,2.62-2.25a5,5,0,0,1,.57-.28,5.16,5.16,0,0,0,.7-.37,17.3,17.3,0,0,1,3.53-2l.9-.45.94-.36c.62-.25,1.24-.51,1.85-.79a4.12,4.12,0,0,1,.8-.23l1.26-.17a14.43,14.43,0,0,0,2.12-.35C70.13,38.92,71.53,39.51,71.83,39.32Z"/></g></svg>