<svg xmlns="http://www.w3.org/2000/svg" width="96" height="96" viewBox="0 0 96 96"><defs><style>.cls-1{fill:#231f20;}</style></defs><title>scribble final version</title><g id="Layer_1" data-name="Layer 1"><path class="cls-1" d="M18.72,31.15a22.53,22.53,0,0,0,.52,9.2,20.82,20.82,0,0,0,1.66,4.33,21.09,21.09,0,0,0,2.63,3.82,19.63,19.63,0,0,0,5.37,4.08l1.35.67c.45.22.93.37,1.4.58a13.41,13.41,0,0,0,1.43.5,12.85,12.85,0,0,0,1.47.41,22.39,22.39,0,0,0,18-3.56,21.08,21.08,0,0,0,7.08-8.79,19.07,19.07,0,0,0,1.53-7l0-1.79a15.45,15.45,0,0,1-.18-1.8,19.94,19.94,0,0,0-.7-3.62c-.4-1.5,0-1.55,1.13-.52.28.26.61.59,1,1a17.2,17.2,0,0,1,1,1.46,7.19,7.19,0,0,1,1,1.92c.11.36.22.74.31,1.13a11.77,11.77,0,0,1,.14,1.21,22.83,22.83,0,0,1-5.6,16.35,26.15,26.15,0,0,1-6.7,5.65,25.38,25.38,0,0,1-8.22,3,30.57,30.57,0,0,1-10.59.23,22.56,22.56,0,0,1-10-4,29.79,29.79,0,0,1-2.33-1.87c-.36-.34-.7-.7-1-1a11.54,11.54,0,0,1-1-1.1A23.77,23.77,0,0,1,16,46.67,26.06,26.06,0,0,1,13.24,35.4a24.89,24.89,0,0,1,3.67-13.63,27.12,27.12,0,0,1,7.41-7.57,27.6,27.6,0,0,1,9.59-4.31,25.08,25.08,0,0,1,16.17,1.39q.86.36,1.65.78a13,13,0,0,1,1.59.9c.48.32.93.59,1.29.89s.67.61,1,.89a9.4,9.4,0,0,1,1.22,1.52,3.28,3.28,0,0,1,.55,2.39,5.47,5.47,0,0,1-.18,1c-.41.93-2.11.18-4.61-1.21-.47-.25-.95-.48-1.39-.76L49.8,16.9l-1.39-.68L47,15.63a21.49,21.49,0,0,0-5.88-1.37,21,21,0,0,0-11.83,2.53,22.63,22.63,0,0,0-3.88,2.63,22.22,22.22,0,0,0-3.16,3.42A17.12,17.12,0,0,0,20,26.76a18.43,18.43,0,0,0-1.19,4.41Z"/><path class="cls-1" d="M14,67.47c-.38.66-.72,1.34-1,2s-.63,1.39-.91,2.1c-.21.52-.3,1.06-.48,1.59a51.66,51.66,0,0,0-1.7,5.68,16.47,16.47,0,0,0-.25,2.61l0,1.67a13.55,13.55,0,0,1,0,1.69c0,.36-.32.38-.7.15a2.84,2.84,0,0,1-1.15-1.42,17.25,17.25,0,0,1-.68-3.69,11.7,11.7,0,0,1,0-1.87,7.19,7.19,0,0,1,.28-1.84A13.74,13.74,0,0,0,7.84,74c.14-.73.25-1.48.42-2.22s.45-1.58.69-2.37l.83-2.32c.39-.93.75-1.87,1.17-2.79.3-.7.62-1.39,1-2.08s.67-1.38,1-2.06c.55-1.06.93-2.2,1.59-3.3a3.68,3.68,0,0,1,.47-.74,3,3,0,0,1,.51-.5,1.19,1.19,0,0,1,.55-.2,1.33,1.33,0,0,1,1.07.5,4.1,4.1,0,0,1,.51.51,2.67,2.67,0,0,1,.54,1.85c-.21.86-.48,1.71-.78,2.63l-.49,1.36c-.17.46-.48.84-.69,1.29-.71,1.29-1.49,2.59-2.13,4Z"/><path class="cls-1" d="M12.82,56.52l1.26-1a9.9,9.9,0,0,1,1.66-1.07A3.58,3.58,0,0,1,17.38,54a2.42,2.42,0,0,1,1.53.64,9.46,9.46,0,0,1,.92.88,7.16,7.16,0,0,1,.78,1.14,7.06,7.06,0,0,1,.53,1c.09.24.17.49.25.73.16.48.3,1,.45,1.44l.81,2.83a19.76,19.76,0,0,0,.91,2.4,10.35,10.35,0,0,1,.61,3.25c0,.37-.45.48-1.05.4A3.21,3.21,0,0,1,21.23,68c-.36-.45-.72-.89-1.06-1.34a8.52,8.52,0,0,1-.63-1.5A23.59,23.59,0,0,1,18.63,62a6.71,6.71,0,0,0-.69-1.81l-.23-.43-.12-.2c0-.08,0-.06-.05-.1s-.1-.2-.14-.31-.11-.26-.19-.39a.79.79,0,0,0-.14-.18c-.06-.06-.13,0-.2,0a2.7,2.7,0,0,0-.79.38L16,59l-.24.19-.52.42c-.35.28-.69.57-1,.88a32.18,32.18,0,0,0-2.93,2.91,23.58,23.58,0,0,0-1.75,2.67c-.13.2-.22.41-.36.6-.52.69-.89.74-1.76.27-.19-.11-.4-.21-.59-.33a1.43,1.43,0,0,1-.64-1.73,16.83,16.83,0,0,1,3.31-5.1,42.91,42.91,0,0,1,3.3-3.31Z"/><path class="cls-1" d="M79.08,27.59a27.42,27.42,0,0,0-3.66-1.53c-.46-.17-1-.18-1.41-.33-.82-.28-1.66-.46-2.51-.68l-1.27-.25a9.68,9.68,0,0,0-1.3-.27,11.23,11.23,0,0,0-2.31-.12,27,27,0,0,1-3,.05c-.32,0-.34-.32-.14-.7a2.52,2.52,0,0,1,1.21-1.12,14.17,14.17,0,0,1,1.57-.47,12.92,12.92,0,0,1,1.62-.33,8.57,8.57,0,0,1,3.27,0c1.28.29,2.65.23,4,.47a32.66,32.66,0,0,1,4.25,1.08c.85.29,1.7.58,2.53.92,1.28.48,2.5,1.1,3.75,1.65.95.47,2,.79,3,1.34a7.31,7.31,0,0,1,.66.41,1.29,1.29,0,0,1,.6.91,1.62,1.62,0,0,1-.49,1,6.19,6.19,0,0,1-.47.55,2.27,2.27,0,0,1-1.79.69c-.41-.08-.79-.17-1.17-.26s-.77-.2-1.18-.31S84,30.1,83.62,30a9.61,9.61,0,0,1-1.11-.56c-1.11-.58-2.24-1.23-3.46-1.73Z"/><path class="cls-1" d="M88.84,25.63l.54.61c.21.23.41.48.61.72a7.57,7.57,0,0,1,1,1.49,3.36,3.36,0,0,1,.34,1.48,2.29,2.29,0,0,1-.54,1.41c-.21.3-.5.58-.75.87A5.47,5.47,0,0,1,89,33a10.41,10.41,0,0,1-1,.52l-.47.23-.34.12-1.32.43-2.6.8a17.5,17.5,0,0,0-2.18.9,9,9,0,0,1-3,.62c-.34,0-.47-.45-.43-1.05a3.2,3.2,0,0,1,.65-1.86c.4-.36.79-.72,1.19-1A7,7,0,0,1,80.91,32a21.09,21.09,0,0,1,2.86-.89,5.69,5.69,0,0,0,1.65-.68l.48-.27a2,2,0,0,1,.29-.15,3,3,0,0,0,.36-.18c.13-.07.25-.19.2-.32a2.29,2.29,0,0,0-.34-.71l-.17-.24-.37-.45c-.27-.31-.54-.62-.83-.91a27.22,27.22,0,0,0-2.75-2.62,20,20,0,0,0-2.52-1.51,6.12,6.12,0,0,1-.56-.31c-.66-.45-.7-.8-.24-1.67.1-.2.2-.4.32-.59a1.44,1.44,0,0,1,1.65-.74,14.49,14.49,0,0,1,4.83,2.84c1.09.9,2.1,1.9,3.14,2.95Z"/><path class="cls-1" d="M40.58,27.7c-.08-.26-.26-.21-.41-.09a1.65,1.65,0,0,0-.26.3l-.08.12-.31.54-.59,1c-.56,1-1,2.1-1.56,3.15l-1.49,2.8L34.35,38.3a30.9,30.9,0,0,1-1.68,2.87l-.25.35a4.16,4.16,0,0,1-.36.45l-.39.46-.43.41a2.8,2.8,0,0,1-2,.72,3.56,3.56,0,0,1-.9-.33,2.63,2.63,0,0,1-.66-.67,4.06,4.06,0,0,1-.7-1.91l-.08-.53a.57.57,0,0,1,0-.13c0-.05,0-.08,0-.12v-.19c0-.25,0-.5,0-.74,0-.49,0-1,0-1.45a23.25,23.25,0,0,1,1.43-7.14c.36-.74.59-.46.72.21a11.09,11.09,0,0,1,.22,3.19c-.1,1.17-.15,2.34-.14,3.49,0,.57,0,1.13.1,1.67,0,.25.11.59.14.73l0,0c0,.06,0,.27.19.23l.11,0a.21.21,0,0,0,.08-.07c.08-.1.15-.19.23-.31.29-.42.59-.91.88-1.4s.63-1.22,1-2,.63-1.32.92-2c.6-1.36,1.15-2.76,1.77-4.13.35-.75.7-1.51,1.07-2.26l.57-1.13.13-.25.2-.45.43-.9a13,13,0,0,1,1.91-3.08,6.13,6.13,0,0,1,2.2-1.66,3,3,0,0,1,1.66-.19,2.11,2.11,0,0,1,.8.42,4.19,4.19,0,0,1,.51.62,6.07,6.07,0,0,1,.65,1.55A10.49,10.49,0,0,1,45,24.59a29,29,0,0,1,.1,3.25L45,30.31c0,1.52-.05,3,0,4.53a35.07,35.07,0,0,0,1.2,6.56c.11.44.3.81.42,1.17.05.16.11.29.14.42a1.08,1.08,0,0,1,.08.26s0,.16,0,.22a.78.78,0,0,0-.12.19,1.39,1.39,0,0,0-.23,1.17,3.66,3.66,0,0,0,.25.7c.14.36.06.75-.63,1.06a2.54,2.54,0,0,1-1.42,0,3.76,3.76,0,0,1-1.53-.91,11.7,11.7,0,0,1-2-3.68c-.21-.59-.39-1.18-.55-1.76a13.23,13.23,0,0,1-.27-1.75,46.45,46.45,0,0,1-.14-6.86c.2-4.77.29-3,.29-3.68Z"/></g></svg>