<svg xmlns="http://www.w3.org/2000/svg" width="96" height="96" viewBox="0 0 96 96"><defs><style>.cls-1{fill:#231f20;}</style></defs><title>scribble final version</title><g id="Layer_1" data-name="Layer 1"><path class="cls-1" d="M74.83,26.17c-.92.12-3-.14-2.13-5.85.24-1.54,1.16-4.93.18-6.39-2-2.94-6.67,5.22-7.43,6.47-1.91,3.11-4.28,6.42-8.36,6.16A5.79,5.79,0,0,1,53,23.9c-.77-1.23-.93-2.71-2.66-3-4.76-.8-4.09,8-.88,9.38,4.14,1.84,7.65,2.6,8.16,7.9.45,4.74-1.7,9.65,0,14.28,1.86,5,6,3.25,8.61-.15,6-7.84,3.65-10.18,11.94-6.9s12.92.84,6.93-4.89-8.45-4.94-5.74-9.65S80.41,25.51,74.83,26.17Z"/><path class="cls-1" d="M19.8,62.44c.11-1.36-1.11-2.42-2.07-3.41-2.37-2.46-3.6-6.21-2.45-9.43s5-5.42,8.2-4.18c2.85,1.11,4.58,4.46,7.6,5,2.05.33,4.06-.79,5.57-2.22s2.67-3.17,4.23-4.53,3.68-2.35,5.67-1.8c2.26.63,3.63,3.11,3.62,5.46a12.36,12.36,0,0,1-2.41,6.51A45,45,0,0,0,44,59.74a8.07,8.07,0,0,0-.31,6.8c1.11,2.25,3.58,3.55,4.79,5.75a6.87,6.87,0,0,1-1,7.58,8.72,8.72,0,0,1-7.32,2.8A12,12,0,0,1,33,79.18c-1-.92-1.78-2-2.8-2.81a5,5,0,0,0-3.64-1.32c-1.64.19-2.89,1.48-4.17,2.52a12.07,12.07,0,0,1-5.91,2.72,7.94,7.94,0,0,1-6.17-1.67c-5.46-4.68.68-11.23,5.52-13.06a15.13,15.13,0,0,0,2.46-1A2.88,2.88,0,0,0,19.8,62.44Z"/></g></svg>