<svg xmlns="http://www.w3.org/2000/svg" width="96" height="96" viewBox="0 0 96 96"><defs><style>.cls-1{fill:#231f20;}</style></defs><title>scribble final version</title><g id="Layer_1" data-name="Layer 1"><path class="cls-1" d="M55.38,79a117.32,117.32,0,0,0,1.53-16.37,41.43,41.43,0,0,0-1.53-9.53c-1-4.41-4-7.06-8.6-6.82s-9.15,6.19-9.19,6.25c1.33-1.76,4.36-2.31,6.44-2.2,6.68.36,9,7.77,9.75,13.33a61.88,61.88,0,0,1,.43,15Z"/><path class="cls-1" d="M69.51,46.3s2.41-9.79,2.34-17.51c0-3.08-1.59-8.52-1.86-9.77-1-4.42-4.22-6.83-8.87-6.58S52,18.62,51.93,18.69c1.33-1.76,4.36-2.32,6.44-2.2,6.68.36,9,7.77,9.75,13.33a64.93,64.93,0,0,1,.3,15.32Z"/><path class="cls-1" d="M52.1,56.26a21.83,21.83,0,0,0-1.2-4.9,10.15,10.15,0,0,0-1-1.92,4,4,0,0,0-1.16-1.14l-.22-.13-.3-.09a3.31,3.31,0,0,0-.6-.11A5.64,5.64,0,0,0,46.4,48c-1.58.24-3.55,1.59-5.3,3.2a71.2,71.2,0,0,0-5.16,5.36C34.45,58.27,33,60,31.57,61.76A33.42,33.42,0,0,1,25.43,68c-.76.53-1.22-.15-1.27-1.28a6.31,6.31,0,0,1,1.26-4c1.78-2.21,3.49-4.5,5.26-6.79a74.43,74.43,0,0,1,5.93-6.69c1.33-1.27,2.66-2.66,4.27-4a14,14,0,0,1,2.79-1.75,9,9,0,0,1,3.54-.86,8.67,8.67,0,0,1,2,.21,9.6,9.6,0,0,1,1,.27c.33.13.67.26,1,.41a9.46,9.46,0,0,1,3,2.54,18.27,18.27,0,0,1,3,6.08,42.84,42.84,0,0,1,1.48,7.6,89.06,89.06,0,0,1,.08,11.43c-.13,2.93-.05,5.85-.42,8.82-.07.65-.13,1.31-.26,2-.54,2.43-1.29,3.09-3,3A7.36,7.36,0,0,1,54,84.89c-1.26-.28-1.88-1.46-1.8-3,.2-4.73.55-9.66.51-14.65,0-1.84-.08-3.69-.22-5.51A46.88,46.88,0,0,0,52,56.3Z"/><path class="cls-1" d="M66.87,22.11a21.83,21.83,0,0,0-1.2-4.9,10.43,10.43,0,0,0-1-1.92,4.13,4.13,0,0,0-1.16-1.14L63.29,14,63,13.93a3.41,3.41,0,0,0-.61-.11,6.33,6.33,0,0,0-1.22,0c-1.56.22-3.53,1.59-5.27,3.2s-3.47,3.5-5.15,5.38c-1.49,1.69-2.92,3.46-4.38,5.18a34,34,0,0,1-6.15,6.19c-.76.53-1.22-.15-1.27-1.28a6.27,6.27,0,0,1,1.27-4c1.79-2.21,3.5-4.49,5.27-6.78a78.79,78.79,0,0,1,5.91-6.68c1.33-1.28,2.64-2.68,4.26-4a13.57,13.57,0,0,1,2.79-1.77A8.56,8.56,0,0,1,64,8.73c.32.08.63.15,1,.26s.67.27,1,.42A9.46,9.46,0,0,1,69,12a18.11,18.11,0,0,1,3,6.08,41.6,41.6,0,0,1,1.47,7.6,87.29,87.29,0,0,1,.09,11.43c-.13,2.93,0,5.85-.42,8.82-.07.65-.13,1.31-.26,2-.55,2.44-1.29,3.09-3,3a7.36,7.36,0,0,1-1.16-.09c-1.26-.27-1.88-1.46-1.8-3,.2-4.74.55-9.67.51-14.66,0-1.84-.08-3.69-.22-5.51a49.41,49.41,0,0,0-.55-5.39Z"/></g></svg>