<svg xmlns="http://www.w3.org/2000/svg" width="96" height="96" viewBox="0 0 96 96"><defs><style>.cls-1{fill:#231f20;}</style></defs><title>scribble final version</title><g id="Layer_1" data-name="Layer 1"><path class="cls-1" d="M38.3,42.26a16.32,16.32,0,0,0,5.62-2.38,10.27,10.27,0,0,0,3.72-4.18c.13-.31.26-.62.37-1l.18-1a4.57,4.57,0,0,0,.09-1,9,9,0,0,0,0-1,8.23,8.23,0,0,0-.25-1.84,9.19,9.19,0,0,0-.6-1.84,14.79,14.79,0,0,0-2.24-3.5,23.94,23.94,0,0,0-7.13-5.53,30.87,30.87,0,0,0-7.83-2.75,36.49,36.49,0,0,0-5.24-.8,14.05,14.05,0,0,0-5,.37c-.88.38-1.11.13-.49-.85a5.91,5.91,0,0,1,1.81-1.48,7.57,7.57,0,0,1,3.08-.81,30.77,30.77,0,0,1,5.94.3,38.67,38.67,0,0,1,5.77,1.19,30.66,30.66,0,0,1,5.57,2.22,25.33,25.33,0,0,1,5.08,3.4,23.32,23.32,0,0,1,5.08,5.85,14.19,14.19,0,0,1,1.94,8c-.07.75-.21,1.5-.33,2.24S53,37.3,52.78,38a19.86,19.86,0,0,1-1,2.06A16.37,16.37,0,0,1,50.41,42a18.12,18.12,0,0,1-7,5,25.3,25.3,0,0,1-10,1.89,20.3,20.3,0,0,1-7.63-1.6l-.92-.39-.87-.52-.87-.52c-.28-.18-.57-.41-.84-.62A12.08,12.08,0,0,1,19.52,42a10,10,0,0,1-1.17-3.2,7.63,7.63,0,0,1,.24-3.66,8,8,0,0,1,1.92-3.17,8.15,8.15,0,0,1,3.22-2,9.59,9.59,0,0,1,3.15-.55,6.41,6.41,0,0,1,3.63.91,2.52,2.52,0,0,1,1,2,6.54,6.54,0,0,1,.06,1.16c-.09,1.26-1.64,1.82-3.46,1.82a5,5,0,0,0-2.9.69,2.48,2.48,0,0,0-.92,1.44A3,3,0,0,0,24.73,39a5.17,5.17,0,0,0,.84,1.08,4.69,4.69,0,0,0,.53.47l.28.2.38.21c2.87,1.74,7.48,2.2,11.5,1.13Z"/><path class="cls-1" d="M74.88,65.05A19.46,19.46,0,0,1,66.44,64a16.77,16.77,0,0,1-7.09-4.88,17,17,0,0,1-1.9-2.7,12.15,12.15,0,0,1-1.08-3.08,14.45,14.45,0,0,1-.3-2.74,20.47,20.47,0,0,1,.19-2.63,24.22,24.22,0,0,1,1.21-4.83,43.29,43.29,0,0,1,4.26-8.4c.74-1.15,1.51-2.3,2.34-3.42s1.67-2.17,2.57-3.2a23.46,23.46,0,0,1,3.93-3.76,10.83,10.83,0,0,1,1.24-.77,8,8,0,0,1,1.48-.51,4.83,4.83,0,0,1,3.42.32c.67.37.73.79.54,1s-.67.4-1.16.7a3.39,3.39,0,0,0-1.18,1.28l-.49.82c-.08.14-.19.28-.27.43l-.4.34a32.9,32.9,0,0,0-5.93,6.82c-.83,1.28-1.74,2.65-2.54,4S63.71,41.57,63,43c-1.64,3.41-1.9,7.48-.62,10.25a7,7,0,0,0,1.4,2.12A11.07,11.07,0,0,0,66,57.11a11.88,11.88,0,0,0,5.48,1.69,15.16,15.16,0,0,0,7.28-1.27,14,14,0,0,0,4.58-3.26,8.16,8.16,0,0,0,2.24-4.71,4.92,4.92,0,0,0-1-3.44,4.34,4.34,0,0,0-2.65-1.6,7.48,7.48,0,0,0-1.34-.05l-.6,0a1.1,1.1,0,0,1-.26-.06h-.26a2.24,2.24,0,0,1-.92-.28,4.89,4.89,0,0,1-1.57-1.36c-.24-.29-.52-.55-.72-.82a1.46,1.46,0,0,1,0-1.66,5.9,5.9,0,0,1,.83-1.11,4.45,4.45,0,0,1,1.55-.89,4.73,4.73,0,0,1,1.5-.38,7.07,7.07,0,0,1,1.6-.09,9.57,9.57,0,0,1,1.68.17c.55.14,1.12.28,1.68.47a10.5,10.5,0,0,1,5.38,4.7,11.89,11.89,0,0,1,1.46,6.94,14.25,14.25,0,0,1-.73,3.38,15.9,15.9,0,0,1-1.49,2.94,18.66,18.66,0,0,1-6.6,6.11A21.81,21.81,0,0,1,74.9,65.2Z"/><path class="cls-1" d="M55.26,71.19a3.43,3.43,0,0,0-.14-2,6.91,6.91,0,0,0-1.41-2.29A20.69,20.69,0,0,0,48,62.72c-1.63-.88-3.45-1.42-5.19-2.19a28.41,28.41,0,0,0-9.46-2.3,24.64,24.64,0,0,0-9.78,1.36A24.5,24.5,0,0,0,16,64.21c-2.79,2.62-5.52,5.36-6.65,9-.31,1.12-.73,1-1.16-.16a7.42,7.42,0,0,1-.32-2.52A9,9,0,0,1,8.68,67a21.77,21.77,0,0,1,1.75-3,20.23,20.23,0,0,1,2.24-2.56,31,31,0,0,1,2.49-2.23l1.35-1,1.42-1A27.13,27.13,0,0,1,30.87,53.1a46.58,46.58,0,0,1,8.25.26,37,37,0,0,1,8,1.93,38.84,38.84,0,0,1,8,4.18,21.73,21.73,0,0,1,3.64,3.13A14.32,14.32,0,0,1,61.55,67c.16.55.32,1.09.47,1.64s.13,1.13.18,1.7a12.19,12.19,0,0,1-.42,3.34,12.53,12.53,0,0,1-3.41,5.38,16.8,16.8,0,0,1-7.94,4.18,26.51,26.51,0,0,1-8.55.47,14.18,14.18,0,0,1-6.79-2.52,11.9,11.9,0,0,1-1.47-1.31c-.25-.29-.49-.59-.73-.89s-.4-.66-.59-1a7.14,7.14,0,0,1-.66-4.58,9.51,9.51,0,0,1,1.48-3.66,9.72,9.72,0,0,1,1.7-1.92A4.34,4.34,0,0,1,36.24,67a2.82,2.82,0,0,1,2.49.41,9.52,9.52,0,0,1,1.19.74c1.2,1,.79,2.77-.28,4.47a10.41,10.41,0,0,0-.85,1.72.73.73,0,0,0,.09.68.64.64,0,0,0,.32.26l.08,0a.36.36,0,0,1,.14.07,3.88,3.88,0,0,0,.52.37,7.25,7.25,0,0,0,2.87.89,16.47,16.47,0,0,0,4.18-.1c.55-.08,1.1-.17,1.65-.29l.7-.17.64-.18a11.1,11.1,0,0,0,2.51-1.25,7.75,7.75,0,0,0,1.85-1.73,3.3,3.3,0,0,0,.74-1.73Z"/></g></svg>