<svg xmlns="http://www.w3.org/2000/svg" width="96" height="96" viewBox="0 0 96 96"><defs><style>.cls-1{fill:#231f20;}</style></defs><title>scribble final version</title><g id="Layer_1" data-name="Layer 1"><path class="cls-1" d="M38.39,20.84c-.57.34-1.22.8-2,1.29-.38.24-.79.49-1.24.73l-.7.36c-.26.13-.48.21-.84.36a5.61,5.61,0,0,1-2.13.38,7.9,7.9,0,0,1-1.09-.12l-.75-.16c-.89-.22-1.68-.47-2.47-.7-1.15-.31-2.29-.48-3.38-.77-2.48-.57-2.32-.74-3.35-.81a.81.81,0,0,0-.61.18.68.68,0,0,0-.2.55,2.11,2.11,0,0,0,.46,1.18,2.39,2.39,0,0,0,.43.48l.13.11.21.19.45.36a15.83,15.83,0,0,0,2.13,1.32c1.94,1,4.06,1.8,6,2.7.47.23.54,1-.28,1.76a4.51,4.51,0,0,1-3.75,1A19.24,19.24,0,0,1,21.68,30c-.61-.27-1.21-.57-1.81-.9S18.73,28.44,18,28A5,5,0,0,1,17,27.1c-.41-.42-.84-.81-1.2-1.24S15,25,14.7,24.55l-.63-1.4a12.39,12.39,0,0,1-.3-1.39,5,5,0,0,1,0-.67,2.68,2.68,0,0,1,.05-.64,3.94,3.94,0,0,1,1.07-2.35,5.11,5.11,0,0,1,2.74-1.37,12.26,12.26,0,0,1,3.49-.06c1.35.18,2.17.36,2.9.51s1.49.35,2.21.55l2.32.67c.77.19,1.53.38,2.21.51l.34.07a1,1,0,0,0,.24,0,1,1,0,0,0,.52-.12,9.49,9.49,0,0,0,1.73-1.07c.78-.54,1.61-1.18,2.6-1.77a11.82,11.82,0,0,1,1.67-.82,14.84,14.84,0,0,1,2.07-.7C42,14,44,14,45.47,15.21a3.52,3.52,0,0,1,1.1,2.53,7.11,7.11,0,0,1-.51,2.78,17.64,17.64,0,0,1-1,2.16l-.65,1.07-.56.84a21,21,0,0,1-2.45,3,14.94,14.94,0,0,1-1.23,1.16c-1.68,1.31-2.59,1.11-3.6.07a6.78,6.78,0,0,1-.68-.75A2.48,2.48,0,0,1,36.25,25a42.1,42.1,0,0,0,3.44-4.11,2.29,2.29,0,0,0,.25-.4l0,0-.05,0a.07.07,0,0,0,0,0s0,0,0-.08a.1.1,0,0,0-.07,0,6.07,6.07,0,0,0-1.3.68Z"/><path class="cls-1" d="M50.74,66.86a10.92,10.92,0,0,1,1.88.55,11.89,11.89,0,0,1,1.24.59c.77.41,1.42.82,2,1.2a2,2,0,0,1,.29.23.49.49,0,0,0,.2.11.56.56,0,0,0,.45-.06,1.93,1.93,0,0,0,.38-.29l.63-.52a14.19,14.19,0,0,1,1.32-1,22.68,22.68,0,0,1,3.93-2.18,8.12,8.12,0,0,1,3.51-.7,4.72,4.72,0,0,1,1.52.3,3.25,3.25,0,0,1,1.35,1,6.29,6.29,0,0,1,.43.75,4.57,4.57,0,0,1,.21.78,6,6,0,0,1-.15,1.4,9,9,0,0,1-1.19,2.81c-.31.51-.72,1-1.08,1.55s-.77,1-1.2,1.49-.41.51-.58.73l-.47.61c-.32.41-.65.81-1,1.21a20,20,0,0,1-2.33,2.08c-.5.38-.88,0-1.05-.81a5.78,5.78,0,0,1,.28-3.25c.51-.92,1.07-1.79,1.59-2.67.06-.07.06,0,.17-.08a1.94,1.94,0,0,0,.48-.4,1.12,1.12,0,0,0,.25-1c-.1-.33-.51-.2-.86,0a5.8,5.8,0,0,0-.52.34l-1.13.81c-.6.42-.87.68-2,1.46a4.73,4.73,0,0,1-3.21.86,5.75,5.75,0,0,1-1.62-.45c-.51-.24-1-.52-1.25-.67-.61-.34-1.18-.66-1.72-.91a6,6,0,0,0-1.46-.53,3.66,3.66,0,0,0-1.36,0,2.32,2.32,0,0,0-1.16.5.91.91,0,0,0-.13,1.15,3.88,3.88,0,0,0,1.27,1.35,6.35,6.35,0,0,0,.78.43c.41.22.86.39,1.29.57.89.32,1.79.58,2.7.81a8.07,8.07,0,0,1,1.2.29c1.43.53,1.83.94,1.92,2.16,0,.27.07.53.07.78,0,.8-.86,1.49-2.24,1.49a9.54,9.54,0,0,1-3-.34,16.84,16.84,0,0,1-3-1.06c-.48-.24-1-.47-1.44-.76-.74-.42-1.54-1-2.29-1.55l-1-.93c-.33-.31-.6-.64-.91-1a6.31,6.31,0,0,1-1.13-2l-.24-.76a5.64,5.64,0,0,1,.45-3,6.48,6.48,0,0,1,.85-1.3,7.16,7.16,0,0,1,1.2-1A9.88,9.88,0,0,1,47,66.86a9.69,9.69,0,0,1,3.73-.14Z"/><path class="cls-1" d="M75.48,42.14l-1.33,1-.87.65a6.53,6.53,0,0,1-1.32.73,7.26,7.26,0,0,1-2.41.36,9.74,9.74,0,0,1-1.93-.27,20.92,20.92,0,0,1-2.89-1,25.6,25.6,0,0,0-2.7-.8c-.4-.13-.8-.23-1.19-.33l-.5-.11-.22-.07a2,2,0,0,0-1-.09.73.73,0,0,0-.48.27.8.8,0,0,0-.13.5,2.2,2.2,0,0,0,.36,1.11,4.68,4.68,0,0,0,1.12,1,10.93,10.93,0,0,0,1.94,1,29,29,0,0,1,5.79,2.44c.59.4.33.7-.35,1a8.69,8.69,0,0,1-3,.8,14.06,14.06,0,0,1-7.1-1.51l-.47-.27-.61-.41-.59-.41-.53-.58-.51-.58-.39-.66-.39-.64-.23-.69a5.18,5.18,0,0,1,.42-5c1.28-1.63,3.38-2.11,5.6-2,.55,0,1.14.09,1.53.15l1.12.16a20.44,20.44,0,0,1,2.09.47c.63.19,1.24.38,1.89.62s1.09.42,1.58.58a8.53,8.53,0,0,0,1.37.34,2.93,2.93,0,0,0,.43,0,1.29,1.29,0,0,0,.39,0,1,1,0,0,0,.28-.12l.14-.1.24-.18c1.31-1,2.68-2.29,4.29-3.42a7.78,7.78,0,0,1,2.35-1.17l.46-.08a3.46,3.46,0,0,1,.56,0,2.73,2.73,0,0,1,.67.13,2.35,2.35,0,0,1,.67.34,2.92,2.92,0,0,1,1.12,1.89c0,.24.07.53.09.69l0,.52a5.31,5.31,0,0,1-.07,1.41,7.23,7.23,0,0,1-1,2.43c-.63,1-1.25,2-1.88,2.84s-1.32,1.7-2,2.5c-.31.35-.58.71-.92,1-1.25,1.2-1.93,1.25-3.1.49a8.88,8.88,0,0,1-.78-.53,2.13,2.13,0,0,1-.23-2.86c1-1.61,2-3.15,3-4.58.54-.65,1-1.3,1.38-1.81a4.38,4.38,0,0,0,.3-.51l.2.05.27.07h-.06l-.29,0c-.14,0-.1,0-.1,0v0a.68.68,0,0,0,0-.15v-.24l0-.24h0c.11,0,.34,0,.5-.09a3.78,3.78,0,0,0,2.17-.8c0-.08,0,0,0,0a.66.66,0,0,0,0,.3,1.55,1.55,0,0,0,0,.56,3.1,3.1,0,0,0,.18.76,5.77,5.77,0,0,0,.32.91c0,.12,0,.11,0,.11h0l-.2.09a9.3,9.3,0,0,0-1.35.89c-.51.38-1,.81-1.58,1.26Z"/></g></svg>