<svg xmlns="http://www.w3.org/2000/svg" width="96" height="96" viewBox="0 0 96 96"><defs><style>.cls-1{fill:#231f20;}</style></defs><title>scribble final version</title><g id="Layer_1" data-name="Layer 1"><path class="cls-1" d="M47.55,90.11c.27.21-.2.47-1.1.62a5,5,0,0,1-1.29,0c-.24-.1-.48-.19-.65-.28s-.59-1.11-.81-1.48a2.66,2.66,0,0,1-.32-1.1c-.09-.76-.23-1.53-.33-2.3a1.18,1.18,0,0,1,.06-.52,3.15,3.15,0,0,0,0-1.8c0-.09,0-.2-.16-.28s-.36-1.75-.27-2,.2-.55.29-.82l.3-.83c0-.08,0-.16.14-.24.35-.19.27-.35.34-.52a4.4,4.4,0,0,1,.3-.72,1.59,1.59,0,0,1,.37-.36c.12-.11.48,0,.53,0s.3,0,.46,0h.16s.3.28.64.59l.49.42a1.42,1.42,0,0,1,.2.25l.11.3c.07.17.16.4.26.63.17.48.33,1,.38,1.07s0,.23,0,.34.53,1.48.51,1.55c0,.31.18.6-.13.94a.19.19,0,0,0,0,.19,5.71,5.71,0,0,1,0,1.6,5.43,5.43,0,0,0,.1.81s0,.11-.06.16a.45.45,0,0,0-.05.19,12.94,12.94,0,0,0,.22,2c.06.14-.29.91-.21,1.08S47.45,90,47.55,90.11Z"/><path class="cls-1" d="M20.25,77.32A30.25,30.25,0,0,0,31,85.5a31.79,31.79,0,0,0,4.74,1.59,28.15,28.15,0,0,0,8.8.83,31.68,31.68,0,0,0,8.81-1.7,27.82,27.82,0,0,0,7.07-3.68,40.59,40.59,0,0,0,7.42-7.05c.71-.8.93-.49.68.48a9.78,9.78,0,0,1-.72,1.89,13,13,0,0,1-1.61,2.32A31.77,31.77,0,0,1,62.14,84a30.12,30.12,0,0,1-4.73,3,32.08,32.08,0,0,1-10.7,3.12,44.69,44.69,0,0,1-6.77.26,28.44,28.44,0,0,1-6.81-1.13,33.3,33.3,0,0,1-13-7.42,32.08,32.08,0,0,1-5.84-7.14,31,31,0,0,1-4.18-13.23,29.88,29.88,0,0,1,.93-10.62c.24-.74.44-1.48.7-2.23,1.09-2.73,1.8-3.42,2.58-3.71a3.1,3.1,0,0,1,.54-.18c.51,0,.37,1.18-.21,3.1a33.63,33.63,0,0,0-1.39,8.85,28.16,28.16,0,0,0,7,20.63Z"/><path class="cls-1" d="M40,25.6c-.22-.13.14-.29.84-.52a3.8,3.8,0,0,1,1-.13,3.13,3.13,0,0,1,.55.26,13.12,13.12,0,0,1,.66,1.44,2.55,2.55,0,0,1,.2,1l.07,2a1,1,0,0,1-.1.43,2.62,2.62,0,0,0-.19,1.48c0,.08,0,.16.1.24a2.88,2.88,0,0,1,.08,1.62,9.66,9.66,0,0,0-.62,1.25c0,.06,0,.12-.12.17-.31.14-.26.26-.28.39a1.92,1.92,0,0,1-.17.53,1.49,1.49,0,0,1-.34.27,1,1,0,0,1-.59.06c-.14-.07-.34,0-.52,0l-.19,0a5.07,5.07,0,0,1-1-1.22s-.1-.42-.19-.85-.21-.86-.24-1,0-.19.09-.28-.22-1.3-.21-1.35c0-.25-.07-.51.22-.76.06-.05,0-.1,0-.15a4.9,4.9,0,0,1,.16-1.31,4.85,4.85,0,0,0,0-.66s0-.08.06-.12a.47.47,0,0,0,.06-.15,7.92,7.92,0,0,0,0-1.54c0-.1.28-.67.22-.79S40.08,25.66,40,25.6Z"/><path class="cls-1" d="M11.25,61.8c-.33.21-.53-.42-.23-1.35a10,10,0,0,1,.61-1.26,2.26,2.26,0,0,0,.32-.61s.19-.17.35-.28l.64-.34a1.58,1.58,0,0,1,.85-.21c.6,0,1.24-.1,1.88-.16a.91.91,0,0,1,.45.09,2.17,2.17,0,0,0,1.54.08c.09,0,.18,0,.24-.15s1.51-.39,1.72-.3a6.39,6.39,0,0,0,.73.27c.25.09.49.21.75.32.07,0,.14,0,.21.14.19.36.32.3.48.33a2.5,2.5,0,0,1,.65.22,1.47,1.47,0,0,1,.33.39,1.2,1.2,0,0,1,0,.65c-.08.15,0,.37,0,.57a1.33,1.33,0,0,1,0,.2,9.79,9.79,0,0,1-1.06,1.23l-.8.41c-.41.14-.85.31-.94.36s-.19,0-.3-.07-1.31.51-1.37.51c-.28,0-.54.18-.86-.12-.06-.06-.11,0-.17,0a4.46,4.46,0,0,1-1.46,0,4.9,4.9,0,0,0-.75.08c-.05,0-.1,0-.14-.06a.35.35,0,0,0-.18-.06,18,18,0,0,0-1.89.1c-.14.06-.9-.43-1.1-.39S11.36,61.71,11.25,61.8Z"/><path class="cls-1" d="M16.39,80.67a34.76,34.76,0,0,1-6.52-12.9,35.65,35.65,0,0,1-.74-14.31,38.3,38.3,0,0,1,2.78-10A36.54,36.54,0,0,1,31.06,24.76a38,38,0,0,1,4.28-1.49l2.19-.53,2.28-.35a33.27,33.27,0,0,1,15.78,2.13,29,29,0,0,1,8.8,5.3A21.25,21.25,0,0,1,70,38.42c.67,2-.32,2-1.91.91-.75-.57-1.83-1.28-2.88-2.15a19.24,19.24,0,0,1-1.75-1.33,22.15,22.15,0,0,1-1.85-1.45A27.06,27.06,0,0,0,46,27.61a17.54,17.54,0,0,0-2.17-.12H42.75l-1.08.07c-.35,0-.72,0-1.07.08l-1.06.17c-.7.08-1.42.26-2.15.42A32.16,32.16,0,0,0,29,31.43a27.24,27.24,0,0,0-8.35,7.29,33.87,33.87,0,0,0-5.22,10A32.54,32.54,0,0,0,13.88,61a29.76,29.76,0,0,0,3.44,11.89,33.73,33.73,0,0,0,2,3.29l1.2,1.51.61.76.67.7a30.2,30.2,0,0,0,6,4.93,31.93,31.93,0,0,0,11,4.26,25.63,25.63,0,0,0,11.62-.62,26.62,26.62,0,0,0,8-4,29.78,29.78,0,0,0,6.36-6.17c.84-1,1.48-2.09,2.27-3.13.62-1,1.18-1.87,1.63-2.59a11.41,11.41,0,0,1,1.16-1.76,5,5,0,0,1,2.1-1.71A7.6,7.6,0,0,1,73,68c.52-.1.77.4.8,1.47a11.87,11.87,0,0,1-.14,2,20.12,20.12,0,0,1-.8,2.61c-.27.72-.63,1.39-1,2.1l-.5,1-.59,1c-.41.66-.79,1.36-1.24,2s-1,1.24-1.45,1.87a33.89,33.89,0,0,1-7.17,6.42,33.19,33.19,0,0,1-9,4.17,22.76,22.76,0,0,1-2.44.58l-1.24.26c-.41.08-.83.1-1.25.15-.84.08-1.67.2-2.52.23H42a14.71,14.71,0,0,1-1.87-.14l-1.86-.23c-1.24-.18-2.44-.53-3.66-.8s-2.33-.78-3.5-1.17-2.25-1-3.36-1.53A36.51,36.51,0,0,1,16.3,80.76Z"/><path class="cls-1" d="M43.91,59.93a1.18,1.18,0,0,0-.1.25.37.37,0,0,0,.15.11,1.32,1.32,0,0,0,.28.09h.23l.35,0a4.37,4.37,0,0,0,.72-.06c.7-.06,1.39-.28,2.12-.39,2.56-.38,5.23-1,8-1.37a30.62,30.62,0,0,1,3.73-.43,9,9,0,0,1,4.8.71c.47.22.22.78-.32,1.32a3.73,3.73,0,0,1-2,1.14,27.53,27.53,0,0,0-4.06.57l-4.38.65c-1.83.24-3.65,1-5.6,1.47-.53.12-1.09.21-1.63.31-.27,0-.56.08-.84.12l-1,.13c-.84.07-1.66.06-2.47.09l-1.15-.11-.56,0c-.17,0-.46,0-.39-.23l-.17-2.93c0-.46-.08-1-.07-1.39l0-1c-.05-2,.12-4,.1-5.94a18.78,18.78,0,0,0-.18-2.26l-.15-1.12c0-.37,0-.74-.06-1.11s-.06-.65,0-1c.18-1.22.54-1.6,1.49-1.86a5.53,5.53,0,0,1,.64-.17c.69-.12,1.32.39,1.75,1.3,1.31,2.71,1.17,5.57,1.21,8.3,0,1,0,2-.09,3l-.06,1.52v.16l0,0,0,0Z"/><path class="cls-1" d="M61.15,18c.23.15,0,.42-.63.78a2.69,2.69,0,0,1-.91.27,3.63,3.63,0,0,1-.56-.23,14.75,14.75,0,0,1-1-1.57,3.77,3.77,0,0,1-.46-1.19c-.2-.83-.41-1.67-.55-2.52A1.68,1.68,0,0,1,57,13a5.78,5.78,0,0,0,0-2c0-.11,0-.22-.12-.33s-.16-2,0-2.27c.29-.58.5-1.16.8-1.73,0-.08,0-.18.16-.23.36-.1.39-.28.48-.45a1.55,1.55,0,0,1,.51-.64,2.67,2.67,0,0,1,.48-.21c.14-.06.39.11.42.16s.24.12.37.16l.13,0c0,.08.7,1.49.71,1.59A10.06,10.06,0,0,0,61,9c0,.1,0,.2-.1.3s.24,1.44.23,1.5c0,.29.1.58-.17.89-.05.06,0,.12,0,.18a10,10,0,0,1,0,1.55,5.33,5.33,0,0,0,.1.79s0,.1,0,.15a.63.63,0,0,0,0,.19,10.54,10.54,0,0,0,.36,1.86c.06.14-.08.89,0,1.05S61.05,18,61.15,18Z"/><path class="cls-1" d="M76.1,28.82c.07.26-.33.11-1-.24a4,4,0,0,1-.89-.66,3.11,3.11,0,0,1-.23-.61,7.46,7.46,0,0,1,.6-1.66,2.67,2.67,0,0,1,.73-1,14.82,14.82,0,0,1,1.91-1.52,1.25,1.25,0,0,1,.52-.19,4.56,4.56,0,0,0,1.72-.63c.09-.05.19-.06.24-.22s1.67-.82,1.92-.71.57.11.85.21l.83.29c.07,0,.15,0,.23.13a.48.48,0,0,0,.48.31,1.17,1.17,0,0,1,1,.6.77.77,0,0,1,0,.52c-.09.13,0,.31,0,.46a1.09,1.09,0,0,1,0,.17c0,.07-1,1.1-1.08,1.15l-.22.12-.46.3c-.33.23-.68.36-.74.44s-.16,0-.26,0a8.45,8.45,0,0,0-1,.59c-.23,0-.36.24-.7,0-.07,0-.1,0-.14,0a5.23,5.23,0,0,1-1.09.41,2.17,2.17,0,0,0-.49.32s-.09,0-.13,0-.11,0-.15,0c-.35.31-.84.48-1.07.91-.06.09-.68.23-.73.36S76.08,28.7,76.1,28.82Z"/></g></svg>