<svg xmlns="http://www.w3.org/2000/svg" width="96" height="96" viewBox="0 0 96 96"><defs><style>.cls-1{fill:#231f20;}</style></defs><title>scribble final version</title><g id="Layer_1" data-name="Layer 1"><path class="cls-1" d="M51.6,10.11A25.54,25.54,0,0,1,74.3,9a25.23,25.23,0,0,1,9.23,6.89,17.3,17.3,0,0,1,1.74,2.27l.81,1.18c.27.39.46.83.69,1.24.42.84.91,1.66,1.26,2.52l1,2.63a28.54,28.54,0,0,1,1.44,8.08,26.58,26.58,0,0,1-1,8.05,33.51,33.51,0,0,1-1.19,3.36,31.28,31.28,0,0,1-1.61,3.16,32,32,0,0,1-1.95,3A30.86,30.86,0,0,1,82.31,54a27.66,27.66,0,0,1-2.62,2.35,29.62,29.62,0,0,1-2.91,2A29.32,29.32,0,0,1,70.5,61a24.79,24.79,0,0,1-13.63.46,28.25,28.25,0,0,1-6.29-2.42A41,41,0,0,1,45,55.61l-1.57-1.19-1.24-1a4.49,4.49,0,0,0-.76-.53.34.34,0,0,0-.22,0c-.07,0-.11.1-.17.15l-.33.32C39.16,54.94,37.6,56.53,36,58.1l-5,5.24c-3.24,3.42-6.42,6.91-9.61,10.39l-4.8,5.21c-1.59,1.74-3.31,3.36-5,5-2.09,2.07-2.47,1.25-1.59-1.28a34.65,34.65,0,0,1,2.24-4.92,36.78,36.78,0,0,1,4.37-6Q21.73,66,27,60.41c1.74-1.86,3.51-3.71,5.28-5.55l2.68-2.74,1.34-1.37,2.21-2.2c.41-.29.84-.57,1.26-.82a4,4,0,0,1,.62-.2,2.8,2.8,0,0,1,.72-.06,5.07,5.07,0,0,1,2.76,1.06c.45.3.89.65,1.33,1l.81.64,1.3,1a37,37,0,0,0,5.32,3.44,21.32,21.32,0,0,0,11.7,2.32,20.41,20.41,0,0,0,7.41-2.28,20.92,20.92,0,0,0,6.19-4.79,22.63,22.63,0,0,0,5.54-14.36A21.32,21.32,0,0,0,82,27.18a24.29,24.29,0,0,0-1.86-3.84l-1.24-1.72a4.43,4.43,0,0,0-.68-.81L77.48,20a18.86,18.86,0,0,0-15.3-5.7,19.47,19.47,0,0,0-9.76,3.82,14.22,14.22,0,0,0-2.07,1.75c-.32.31-.68.61-1,.93s-.56.64-.82,1a12.08,12.08,0,0,0-2.2,4.51A12.81,12.81,0,0,0,46.87,34a16,16,0,0,0,4.71,6.45,14.19,14.19,0,0,0,7.14,3.27,9.21,9.21,0,0,0,7-1.93,11.49,11.49,0,0,0,1-1,5.92,5.92,0,0,0,.73-1.09,9.35,9.35,0,0,0,.32-8,4.42,4.42,0,0,0-3.23-2.52A6.15,6.15,0,0,0,60.1,30a3.44,3.44,0,0,0-1.17,1.13,2.16,2.16,0,0,0-.29,1,3.33,3.33,0,0,0,.09.57c0,.11.05.21.09.32l.08.16a.16.16,0,0,1,0,.1,3,3,0,0,0,.39.49c.25.23.5.43.7.59s.34.24.37.32,0,0,0,.22a2,2,0,0,0,0,.42c0,.17,0,.19,0,.29s.07.2.06.2a.41.41,0,0,0,0,.08s0,0,0,0l0,0h0c-.42-.43.58.59.47.49h0l0,0a1.41,1.41,0,0,0-.23-.18,2.38,2.38,0,0,0-.48-.24l-.16,0h.06a1.94,1.94,0,0,0,.46-.06l.13,0a1,1,0,0,0,.23-.08,1.27,1.27,0,0,0,.33-.16.63.63,0,0,0,.15-.16c0,.05,0,0,0-.1a.34.34,0,0,0,0-.17,1.73,1.73,0,0,0-.56-.55.67.67,0,0,1-.14-1.1,1.74,1.74,0,0,1,.55-.34,2,2,0,0,1,1.16,0,2.67,2.67,0,0,1,1.29.82,3.9,3.9,0,0,1,.41.59,5.05,5.05,0,0,1,.26.59,4.12,4.12,0,0,1,0,2.63,3.87,3.87,0,0,1-.39.84,5.07,5.07,0,0,1-.35.46,2.89,2.89,0,0,1-.35.35,4.25,4.25,0,0,1-1.77,1,3.81,3.81,0,0,1-1,.17,3.59,3.59,0,0,1-.47,0l-.42,0a5.18,5.18,0,0,1-.82-.08,7.15,7.15,0,0,1-.76-.17A9.5,9.5,0,0,1,55.39,39,7.77,7.77,0,0,1,53,36.54a5.33,5.33,0,0,1-.32-.56l-.26-.5c-.15-.36-.3-.73-.43-1.11a9.44,9.44,0,0,1-.41-2.54,9.06,9.06,0,0,1,1.5-5.07,11.55,11.55,0,0,1,3.45-3.35,13.42,13.42,0,0,1,4.18-1.75,13.62,13.62,0,0,1,4.66-.26,11.26,11.26,0,0,1,8.48,5.38,13.9,13.9,0,0,1,1.78,4.49A17.33,17.33,0,0,1,75.15,40a15.53,15.53,0,0,1-2,4.14c-.24.33-.48.66-.74,1s-.56.65-.85.94a20.41,20.41,0,0,1-1.72,1.49,16.12,16.12,0,0,1-8.46,3.12A19.59,19.59,0,0,1,53,49.25a22.34,22.34,0,0,1-5.41-3.13,25,25,0,0,1-4.28-4.38,22.08,22.08,0,0,1-3-5.47A19.85,19.85,0,0,1,39,30a19.38,19.38,0,0,1,3.6-12.28,15.25,15.25,0,0,1,1-1.26l.51-.61.51-.52,2.1-2c.73-.64,1.55-1.2,2.33-1.79A15.84,15.84,0,0,1,51.5,10Z"/></g></svg>