<svg xmlns="http://www.w3.org/2000/svg" width="96" height="96" viewBox="0 0 96 96"><defs><style>.cls-1{fill:#231f20;}</style></defs><title>scribble final version</title><g id="Layer_1" data-name="Layer 1"><path class="cls-1" d="M67.5,58.93l2.79-.72,1.37-.37a.84.84,0,0,1,.29-.07h.11a2.48,2.48,0,0,0,.55-.1.35.35,0,0,0,.13-.08s0-.07,0-.1l-.09-.24-.31-.46-.18-.26L72,56.37l-.29-.32c-.59-.67-1.19-1.33-1.83-2s-1.3-1.27-1.92-1.93c-4.51-4.6-9.39-9-14.39-13.27-2.22-1.89-4.55-3.68-6.86-5.45-2.86-2.4-5.9-4.68-8.19-7.81-.73-1-.16-1.29,1.09-1.18a14.32,14.32,0,0,1,2.31.43,11,11,0,0,1,1.37.46,9.44,9.44,0,0,1,1.34.75l4.69,3.18c1.54,1.1,3,2.35,4.45,3.55,2.93,2.43,5.84,4.94,8.63,7.64C65.76,43.68,69.6,46.61,73,50c.88.84,1.68,1.79,2.52,2.69.11.12.19.2.32.36l.42.53.82,1.05c.55.73,1.11,1.34,1.62,2.15.23.82.53,1.63.71,2.44a2.41,2.41,0,0,1-.7,1.07,5.24,5.24,0,0,1-1.09.81,16.18,16.18,0,0,1-2.93,1.21l-.79.25-.66.2-1,.29c-3.11.85-6.21,1.59-9.29,2.37-4.67,1.18-9.38,2.26-13.94,3.62a108.52,108.52,0,0,0-10.25,3.79l-2.14.95c-2.72,1-3.4,1.08-4.61.31-.28-.18-.6-.29-.88-.44a.82.82,0,0,1-.43-.58,1.52,1.52,0,0,1,.21-1A5.88,5.88,0,0,1,33,70.05a32.23,32.23,0,0,1,4.67-2.4c1.59-.69,3.21-1.3,4.84-1.88,3.28-1.14,6.63-2.11,10-3,5-1.39,10-2.59,15-3.93Z"/><path class="cls-1" d="M66.79,61.81l5.48-.9L75,60.46l.67-.12.34-.05.11,0,.31,0a5.51,5.51,0,0,0,1.18-.15c.15,0,0-.14,0-.2l-.12-.23a4,4,0,0,0-.32-.48,2.63,2.63,0,0,0-.3-.38l-1.2-1.22L72.9,54.75C66.45,48,59.64,41.31,52.67,34.88c-3.1-2.85-6.35-5.57-9.57-8.24C39,23.21,34.6,20.05,30.91,16c-.67-.74-.69-1.35-.23-1.7a4.89,4.89,0,0,1,2.25-.66,10.83,10.83,0,0,1,7.36,2.31c4.3,3.43,8.57,6.9,12.7,10.57S61.11,34,65,38.05c4.62,4.83,10,9.26,14.75,14.25l2,2.16c1,1.12,1.92,2.31,2.88,3.44l1.4,1.71c.16.5.28,1,.42,1.49l.42,1.47c0,.12.1.24.08.37a1.17,1.17,0,0,1-.19.37,3.7,3.7,0,0,1-.49.55,7.93,7.93,0,0,1-3,1.7c-1.34.42-2.77.77-4.2,1.1l-1.88.41-1.38.28-2.75.55c-4.5.9-9,1.74-13.46,2.74l-5,1.29L49.49,73c-3.36.77-6.7,1.61-10,2.59a114.58,114.58,0,0,0-14.58,5.78c-1,.47-2,1-3,1.48s-1.76.77-2.45,1a6.58,6.58,0,0,1-1.88.2A4.41,4.41,0,0,1,14.8,83a9.86,9.86,0,0,1-1.15-.92,1.88,1.88,0,0,1-.09-2.25,9.38,9.38,0,0,1,2.72-3.12c8.51-5.34,18.38-8.41,28.22-11,1.84-.46,3.67-.91,5.51-1.33.93-.19,1.84-.44,2.78-.58l2.82-.33c.94-.12,1.89-.21,2.82-.34l2.78-.51,5.53-1Z"/><path class="cls-1" d="M16.76,54.67c1.22-2.43,2.43-4.86,3.59-7.31.42-.9.69-1.85,1.12-2.74,1.51-3.15,3.08-6.28,4.43-9.47a39.25,39.25,0,0,0,1.5-4.35A27.93,27.93,0,0,1,29,25.37c.26-.5,1.43-.36,2.5.33a4.48,4.48,0,0,1,1.41,1.46,2.6,2.6,0,0,1,.4,1.81,41.44,41.44,0,0,1-1.68,6.08,40.67,40.67,0,0,1-2.69,5.61A67.69,67.69,0,0,0,26,47.6c-1.09,2.53-2.25,5-3.41,7.53l-2.15,4.61c-1.06,2.33-2.26,4.62-3.21,7-.75,1.83-1.18,3.76-1.83,5.61-.16.4-.27.82-.46,1.21-.72,1.45-1.27,1.76-2.49,1.59a7,7,0,0,1-.82-.13c-.88-.23-1.31-1.15-1.2-2.37.1-.91.2-1.82.34-2.73s.45-1.74.72-2.61c.54-1.73,1.17-3.45,1.84-5.16q.75-1.91,1.56-3.78l1.72-3.73Z"/></g></svg>