<svg xmlns="http://www.w3.org/2000/svg" width="96" height="96" viewBox="0 0 96 96"><defs><style>.cls-1{fill:#231f20;}</style></defs><title>scribble final version</title><g id="Layer_1" data-name="Layer 1"><path class="cls-1" d="M82,21.71c0-.05.15-.06.25-.12s.25-.14.21-.21-.12-.27-.31-.4a.73.73,0,0,0-.26-.09h-.07l-.13,0a4.72,4.72,0,0,1-.53-.18,57.43,57.43,0,0,0-7.68-2.35,24.87,24.87,0,0,0-3.54-.47,22.89,22.89,0,0,1-4.5-.56c-.46-.15-.43-.92,0-1.73a3.13,3.13,0,0,1,2.17-1.79A21.74,21.74,0,0,1,77.31,15a21.61,21.61,0,0,0,2.9.74l1.49.32.74.17c.28.07.41.12.87.23a20.24,20.24,0,0,1,2.49.87,8.28,8.28,0,0,1,2,1.12,4.64,4.64,0,0,1,1.2,1.44,1.52,1.52,0,0,1,.14,1c-.1.28-.26.53-.38.79a3.58,3.58,0,0,1-.51.72l-.29.37a1.19,1.19,0,0,1-.35.36c-.45.47-.92.9-1.35,1.37s-.89,1-1.14,1.21A53.78,53.78,0,0,0,81,30a40.18,40.18,0,0,0-2.54,3.82,9,9,0,0,1-.59.79c-.83.92-1.39.95-2.49.39-.25-.12-.51-.23-.74-.37a2,2,0,0,1-.78-2.37,22.44,22.44,0,0,1,.76-2.13c.35-.63.74-1.24,1.15-1.84a37.13,37.13,0,0,1,2.76-3.39c.73-.81,1.5-1.59,2.27-2.36l.59-.58.15-.13.08-.07h0a.58.58,0,0,1,.17,0Z"/><path class="cls-1" d="M36.31,59.85a22.26,22.26,0,0,0-.56,4.79A7.21,7.21,0,0,0,36,66.58a3.37,3.37,0,0,1,.1.34,1,1,0,0,1,.09.21c.08.16.29.37.42.58a4.25,4.25,0,0,0,3.13,1.11,11.09,11.09,0,0,0,4.44-1.15,10.49,10.49,0,0,0,2.86-2,9.09,9.09,0,0,0,1-1.17,9.44,9.44,0,0,0,.84-1.4,5.63,5.63,0,0,0,.68-2.41,3.37,3.37,0,0,0-.63-2,6.32,6.32,0,0,0-2-1.77,8.85,8.85,0,0,0-2.83-1,15.89,15.89,0,0,0-6.61.33,31.09,31.09,0,0,0-6.65,2.52,44.37,44.37,0,0,0-10.48,7.52,51.84,51.84,0,0,0-5.62,6A40.27,40.27,0,0,0,9.93,79c-.77,1.5-1.16,1.22-1.24-.45a16.26,16.26,0,0,1,2.08-7.87,45.26,45.26,0,0,1,5.71-7.21,48.58,48.58,0,0,1,7.07-5.86,42.36,42.36,0,0,1,8.16-4.47A26.72,26.72,0,0,1,41.14,51c4-.09,8.59,1,11.69,4.69a8.3,8.3,0,0,1,1.62,3.38,9.13,9.13,0,0,1,0,3.68,13.2,13.2,0,0,1-1.93,4.57,12.88,12.88,0,0,1-1,1.34,17.36,17.36,0,0,1-5.55,4,15.84,15.84,0,0,1-6.76,1.51,10.91,10.91,0,0,1-3.71-.7,8.94,8.94,0,0,1-1.75-.94l-.8-.6c-.25-.22-.47-.47-.7-.71a6.14,6.14,0,0,1-.65-.77c-.2-.31-.4-.62-.57-.92a9.44,9.44,0,0,1-.68-1.82,14.18,14.18,0,0,1-.5-3.46A25.83,25.83,0,0,1,31,56.45a40.13,40.13,0,0,1,2.89-7.11,49.37,49.37,0,0,1,15-17,77.06,77.06,0,0,1,7.38-4.68,57.85,57.85,0,0,1,8-3.58c1.2-.48,2.4-.85,3.64-1.23a12.36,12.36,0,0,1,5-.62,4.68,4.68,0,0,1,1.42.41,5,5,0,0,1,1,.83c.27.27.6.5.77.72.52.64-1.14,2.31-4.2,3.41a80.17,80.17,0,0,0-13.38,5.56A60.86,60.86,0,0,0,52.44,37a51.41,51.41,0,0,0-5.52,4.69,43.15,43.15,0,0,0-6.57,8.43,32.21,32.21,0,0,0-3.89,9.73Z"/></g></svg>