<svg xmlns="http://www.w3.org/2000/svg" width="96" height="96" viewBox="0 0 96 96"><defs><style>.cls-1{fill:#231f20;}</style></defs><title>scribble final version</title><g id="Layer_1" data-name="Layer 1"><path class="cls-1" d="M50.19,55.14c.39-1.22.78-2.44,1.11-3.65l.51-1.8L52,48.8l.05-.14a2.18,2.18,0,0,0,.13-.57.19.19,0,0,0-.15-.22.48.48,0,0,0-.29,0,1.52,1.52,0,0,0-.55.33l-.11.12-.29.31c-.18.21-.38.42-.56.65-.37.44-.73.91-1.08,1.39a64.77,64.77,0,0,0-4,6.23c-1.81,3.18-3.36,6.55-5,9.87L39,69.11c-.34.81-.64,1.64-1,2.42L36.79,73.9,34.9,77.66c-1.35,2.65-2.89,5-4.2,5.94a6.57,6.57,0,0,1-1.92,1.09,2.34,2.34,0,0,1-1.25.11,3.22,3.22,0,0,1-1.27-.75,5.59,5.59,0,0,1-1.24-2,9.48,9.48,0,0,1-.54-2.41,15.83,15.83,0,0,1,0-3c.1-1.11.33-2.31.56-3.5.13-.59.27-1.19.42-1.78l.41-1.54.65-2.26.65-2.24.5-1.7c.21-.68.42-1.39.57-2.11a5.71,5.71,0,0,0,.14-1.08.78.78,0,0,0-.13-.52c-.13-.13-.35-.09-.52-.1A2.83,2.83,0,0,0,26,60.94a13.71,13.71,0,0,0-1.15,1.66l-1.24,2L22.19,67c-1,1.62-1.93,3.25-3,4.85a25.9,25.9,0,0,1-3.95,4.4c-.39.33-.79.65-1.21.94a14,14,0,0,1-1.35.79,9.51,9.51,0,0,1-3,1,3.6,3.6,0,0,1-1.43,0c-.3-.06-.42-.15-.41-.25s.17-.24.43-.4l.46-.26.55-.38a9.1,9.1,0,0,0,2.5-2.91c.82-1.29,1.64-2.89,2.63-4.63,1.77-2.74,3.45-5.74,5.26-8.85l.7-1.18c.47-.74.94-1.49,1.44-2.19a18.49,18.49,0,0,1,3.13-3.67A7.66,7.66,0,0,1,28,52.55a7.57,7.57,0,0,1,1.5-.24,11.63,11.63,0,0,1,1.59.15,9.58,9.58,0,0,1,.93.34,3.63,3.63,0,0,1,.79.55,4.14,4.14,0,0,1,.86,1.18,6.54,6.54,0,0,1,.4,3.87A41,41,0,0,1,32.75,64l-.4,1.39-.23.77-.46,1.47q-.45,1.45-.84,2.91l-.19.73c0,.16-.05.16-.06.17l0,.06-.12.25A6.4,6.4,0,0,0,30,73.33a2.12,2.12,0,0,0,0,1c.06.16.15.36.3.37a.56.56,0,0,0,.33-.17,3.79,3.79,0,0,0,.52-.68c.33-.53.62-1.1.95-1.76l1.34-2.7c.44-1,1-1.86,1.49-2.82.92-1.92,1.85-3.83,2.82-5.73a94.47,94.47,0,0,1,8.1-13.64,21.56,21.56,0,0,1,3.27-3.53,7.63,7.63,0,0,1,4.89-2,4.19,4.19,0,0,1,2.35.69,3.36,3.36,0,0,1,1,2.06,15.66,15.66,0,0,1-.63,5.58c-.82,3.17-1.75,6.2-2.59,9.25A83.4,83.4,0,0,0,52,68.26a16.92,16.92,0,0,0-.27,3.24,3.76,3.76,0,0,0,.2,1.17.64.64,0,0,0,.06.12,0,0,0,0,1,0,0h0l-.84.7h0l0,0a.6.6,0,0,0-.08.08l-.07.11s0,0,0,0,0,0,0-.12c-.07-.23-.18-.27-.4-.57-.67-.61-.39-.36-.4-.48a10.38,10.38,0,0,0,.67-1.31c.23-.52.45-1.05.67-1.6.43-1.1.84-2.22,1.25-3.35S53.5,64.1,53.9,63l1.2-3.41c.81-2.28,1.63-4.55,2.49-6.8,2.7-7,5.42-13.92,9.63-20.39a30.78,30.78,0,0,1,3.13-4c.54-.59,1.07-1.11,1.58-1.57a18.25,18.25,0,0,1,1.48-1.15,13.12,13.12,0,0,1,2.46-1.41,5.86,5.86,0,0,1,3.28-.45,6.26,6.26,0,0,1,1.1.22c.43.21.15.72-.54,1.6s-1.71,2.18-3,3.75c-.92,1.23-1.88,2.4-2.75,3.68-.44.64-.86,1.3-1.26,2l-1.29,2a89,89,0,0,0-4.69,8.46,196.59,196.59,0,0,0-7.78,18.69c-.51,1.18-.7,2.47-1.16,3.69s-.83,2.47-1.3,3.74c-.23.63-.48,1.28-.77,2-.14.34-.29.69-.49,1.08A7.24,7.24,0,0,1,54.32,76l-.19.24-.33.35-.19.16a2.42,2.42,0,0,1-.24.2,5.4,5.4,0,0,1-.77.46l-.22.1-.36.12a4.89,4.89,0,0,1-.78.15,3.85,3.85,0,0,1-1.64-.21,3.6,3.6,0,0,1-.76-.34l-.45-.32L48,76.52l-.19-.2,0-.07a5.87,5.87,0,0,1-1.07-2.1,9.7,9.7,0,0,1-.36-3,25.47,25.47,0,0,1,.56-4.48c.28-1.38.61-2.7,1-4,.7-2.59,1.48-5.09,2.24-7.56Z"/><path class="cls-1" d="M76.41,11.4c1.51-.33,3-.61,4.65-.81.81-.1,1.62-.18,2.49-.21h.68c.33,0,.65,0,1,0a6.28,6.28,0,0,1,1.85.28,5.61,5.61,0,0,1,1.2.53,2.37,2.37,0,0,1,1,.81c.24.35.48.71.7,1.09a11.45,11.45,0,0,1,.36,1.34l.14.6a1.73,1.73,0,0,1,.07.61c0,.42,0,.84,0,1.25,0,.61-.08,1.09-.11,1.6-.05,1-.21,2-.34,3-.3,1.93-.7,3.77-1.08,5.62-.37,1.62-.54,3.28-.88,4.88L87.53,35c-.21,1-.42,1.95-.63,2.95-.11.54-.59.63-1.19.07a4.74,4.74,0,0,1-1.3-3q0-1.67,0-3.3c0-.54,0-1.08.06-1.62l.22-1.58c.3-2.1.66-4.17,1-6.22A14.79,14.79,0,0,0,86,18.62c0-.58-.24-1.32-.17-1.37s-.07-.42-.15-.63-.06-.27-.17-.34a1.17,1.17,0,0,0-.35-.14,2.87,2.87,0,0,0-1.14,0,29.13,29.13,0,0,0-3.94.69,47.18,47.18,0,0,0-4.94,1.47,46.63,46.63,0,0,0-7.27,3.11A44.78,44.78,0,0,0,63,25c-.35.27-.66.58-1,.83-1.35.94-2.05.83-3.25-.3-.27-.26-.56-.49-.8-.76a2.45,2.45,0,0,1,0-3.26,23.85,23.85,0,0,1,2.05-2.22,16.48,16.48,0,0,1,2.34-1.92,37.74,37.74,0,0,1,5.35-3c1.39-.65,2.81-1.23,4.27-1.76s3-.93,4.47-1.33Z"/></g></svg>