<svg xmlns="http://www.w3.org/2000/svg" width="96" height="96" viewBox="0 0 96 96"><defs><style>.cls-1{fill:#231f20;}</style></defs><title>scribble final version</title><g id="Layer_1" data-name="Layer 1"><path class="cls-1" d="M50.35,62.07a7.71,7.71,0,0,1-1.13-1.23,12.59,12.59,0,0,1-.79-1.36c-.17-.47-.36-.91-.49-1.4a9.34,9.34,0,0,1-.25-1.48,7.51,7.51,0,0,1,0-2.17,5.42,5.42,0,0,1,.74-1.7,5.27,5.27,0,0,1,.49-.74,7.12,7.12,0,0,1,.55-.66,14.38,14.38,0,0,1,2.4-2.13,16.77,16.77,0,0,1,2.34-1.39,5.37,5.37,0,0,1,3.41-.67c.37.07.29.58,0,1.12a4.28,4.28,0,0,1-.45.78,1.36,1.36,0,0,1-.59.52,12,12,0,0,0-4.23,3,3.17,3.17,0,0,0-.61,1.38,3.59,3.59,0,0,0,0,.72,1.86,1.86,0,0,1-.06.34,1.83,1.83,0,0,1,0,.33,4.35,4.35,0,0,0,.12,1.47l.28.76a4.66,4.66,0,0,0,.39.65,3.05,3.05,0,0,0,1.49,1.12,6.33,6.33,0,0,0,3.42.28,14,14,0,0,0,2.75-1.11c.21-.09.39-.21.61-.28.79-.24,1.14,0,1.61,1,.11.24.23.48.32.72A1.81,1.81,0,0,1,62.29,62a9,9,0,0,1-6.14,2,10.86,10.86,0,0,1-2.91-.39,8.5,8.5,0,0,1-3-1.53Z"/><path class="cls-1" d="M26.94,30.73A7.19,7.19,0,0,0,27,27a2.57,2.57,0,0,0-.28-.66c-.11-.22-.22-.43-.31-.65a7.48,7.48,0,0,0-3.16-4A3.85,3.85,0,0,0,21,21.28a20,20,0,0,1-3.13.17c-.38,0-.71-.76-.74-1.69s.25-2.21,1.12-2.64a6.83,6.83,0,0,1,1.17-.52l.63-.21a4.62,4.62,0,0,1,.65-.06c.44,0,.89,0,1.33,0s.88.13,1.31.21a8.79,8.79,0,0,1,4.38,2.58,22.48,22.48,0,0,1,3.63,4.4,14,14,0,0,1,1.6,5.89,10.14,10.14,0,0,1-.49,3.84,9.27,9.27,0,0,1-3.59,4.85,18.74,18.74,0,0,1-2,1.26c-.18.09-.35.19-.53.27l-.53.17a7.32,7.32,0,0,1-1.09.29,7.66,7.66,0,0,1-1,.14,1.49,1.49,0,0,1-1.23-.58,2.5,2.5,0,0,1-.46-1.23,5.58,5.58,0,0,1-.1-.68,2,2,0,0,1,.27-1.06,4.84,4.84,0,0,1,.76-1c.23-.15.44-.4.63-.54l.57-.44c.32-.31.61-.65.83-.83a4.86,4.86,0,0,0,1-1,5.8,5.8,0,0,0,.45-.84,7.22,7.22,0,0,0,.32-1.33Z"/><path class="cls-1" d="M35.24,23.73A13.58,13.58,0,0,1,35,30.42,15.63,15.63,0,0,1,32.1,36a21.36,21.36,0,0,1-1.48,1.66c-.27.26-.53.53-.81.76s-.6.45-.9.65a13.85,13.85,0,0,1-7.33,2.28,11.87,11.87,0,0,1-7.23-2.14A10.42,10.42,0,0,1,12,36.64a8.82,8.82,0,0,1-.8-1.52,10.67,10.67,0,0,1-.42-1.64,9.72,9.72,0,0,1,.3-4.17A9,9,0,0,1,12,27.48c.18-.28.36-.56.55-.82l.66-.73c.57-.58,1-.1,1.22.79a13.07,13.07,0,0,1,.47,3.2,5.29,5.29,0,0,0,.35,2.48,1.64,1.64,0,0,0,.23.5,3.3,3.3,0,0,0,.26.45c.08.14.13.3.22.44a2.9,2.9,0,0,1,.27.41,5.33,5.33,0,0,0,1.57,1.29,8.14,8.14,0,0,0,2.34.77,6.28,6.28,0,0,0,3.28-.5,10.58,10.58,0,0,0,2.8-2,9.08,9.08,0,0,0,3.06-6.65,7.27,7.27,0,0,0-1.51-4.32c-1.48-2.17-3.53-3.6-5.69-3.18a6.3,6.3,0,0,0-2.41,1.09,15.55,15.55,0,0,0-2.09,2c-.3.3-.51.71-.84,1a3.19,3.19,0,0,1-1.56,1,3.83,3.83,0,0,1-1.85-.37c-.33-.13-.67-.23-1-.37a1.86,1.86,0,0,1-1-1.25,3,3,0,0,1,.13-2.14,11.39,11.39,0,0,1,1.95-3.28,14.59,14.59,0,0,1,3.13-2.83,13.74,13.74,0,0,1,2.09-1.1c.39-.15.77-.31,1.18-.43s.86-.16,1.29-.23a7.48,7.48,0,0,1,1.35-.08,10.46,10.46,0,0,1,1.37.05,11.49,11.49,0,0,1,2.69.65,13.61,13.61,0,0,1,5.81,4.36c.33.43.61.87.91,1.3l.44.65.42.78a14.8,14.8,0,0,1,1.29,3.29Z"/><path class="cls-1" d="M54.38,65.88a13,13,0,0,1-5.64-1.6,10.31,10.31,0,0,1-4.25-4.35,6.64,6.64,0,0,1-.46-1c-.13-.35-.27-.7-.38-1s-.17-.7-.24-1-.08-.72-.09-1.08a10.19,10.19,0,0,1,2.29-7,13,13,0,0,1,5.54-3.95,15.43,15.43,0,0,1,6-.89A8.29,8.29,0,0,1,61,45.21a5.23,5.23,0,0,1,.83.64,2.35,2.35,0,0,1,.68.79,5.06,5.06,0,0,1,.45.94,4.9,4.9,0,0,1,.29,1c.16.84-.57,1.05-1.72,1.22a13.88,13.88,0,0,0-2,.42c-.33.09-.69.26-.94.33a1.33,1.33,0,0,1-.57,0,5.6,5.6,0,0,0-1.53,0,6.46,6.46,0,0,0-1.7,0,15.62,15.62,0,0,0-4.19,1.08,3.77,3.77,0,0,0-1.81,1.93,3.94,3.94,0,0,0-.22,2.56A4.45,4.45,0,0,0,50,58.56,6.07,6.07,0,0,0,52.82,60a7.49,7.49,0,0,0,4.17-.2,5.64,5.64,0,0,0,2.53-1.66,5,5,0,0,0,.86-2.84,5.54,5.54,0,0,0-1.77-4.21l-.3-.16a.52.52,0,0,1-.24-.08c-.28-.06-.37-.28-.47-.66,0-.18-.13-.37-.19-.64s-.14-.61-.23-1-.2-.62-.27-.89a1.52,1.52,0,0,1,.37-1.44,2,2,0,0,1,.9-.68,7.1,7.1,0,0,1,1.45-.19,6.14,6.14,0,0,1,2.28.88l.53.35.44.4a7.29,7.29,0,0,1,.83.84,10.29,10.29,0,0,1,2,3.75,12.63,12.63,0,0,1,.49,4,11.44,11.44,0,0,1-.92,4.25,8.8,8.8,0,0,1-1,1.71,16.57,16.57,0,0,1-1.16,1.32c-.41.39-.87.72-1.31,1.07s-.94.57-1.42.84a12.64,12.64,0,0,1-6,1.31Z"/><path class="cls-1" d="M83.57,81.12a8.87,8.87,0,0,1-3.62.75A8.71,8.71,0,0,1,76.16,81a5.93,5.93,0,0,1-2.26-1.73,3.65,3.65,0,0,1-.59-1.12A5.45,5.45,0,0,1,73,77c0-.41-.14-.85-.15-1.21l0-1a9.78,9.78,0,0,1,1-3.77l.45-.8a8.29,8.29,0,0,1,.55-.77,5.48,5.48,0,0,1,1.55-1.22,4.37,4.37,0,0,1,2.48-.53,3.16,3.16,0,0,1,1.13.32,2.78,2.78,0,0,1,.9.64c.33.33-.18,1-.79,1.7-.31.36-.64.7-.89,1s-.44.57-.51.68a.26.26,0,0,0-.11.19c0,.15,0-.13,0,0l0,.07a.74.74,0,0,0,.12.16c.07.09.06.06.07.13a3.45,3.45,0,0,0-.73,1.26A2.43,2.43,0,0,0,78,75a1.78,1.78,0,0,0,1,1.09,2.89,2.89,0,0,0,1.28.09,2.49,2.49,0,0,0,1.36-.59,1,1,0,0,0,.3-.74A1.12,1.12,0,0,0,81.5,74a1.52,1.52,0,0,0-1.73.06c-.09.07-.17.18-.22.22l-.06,0a.36.36,0,0,1-.06-.11l-.17-.37c-.15-.33-.37-.82-.75-1.57-.17-.35-.37-.67-.55-1a2.86,2.86,0,0,1-.42-1.66,2.06,2.06,0,0,1,.92-1.51,5.61,5.61,0,0,1,5.51.07A7.4,7.4,0,0,1,87.75,73a7.68,7.68,0,0,1,.09,2.58A7,7,0,0,1,87,78.12a7.57,7.57,0,0,1-3.31,3.13Z"/></g></svg>