<svg xmlns="http://www.w3.org/2000/svg" width="96" height="96" viewBox="0 0 96 96"><defs><style>.cls-1{fill:#231f20;}</style></defs><title>scribble final version</title><g id="Layer_1" data-name="Layer 1"><path class="cls-1" d="M31.16,79.89a37.32,37.32,0,0,1-5.65-2.34,36.51,36.51,0,0,1-5.09-3.28,33,33,0,0,1-4.49-4,34.44,34.44,0,0,1-3.74-4.7A39.85,39.85,0,0,1,10,61.76a26.56,26.56,0,0,1-1.75-4A32.85,32.85,0,0,1,6.91,42.5a30.29,30.29,0,0,1,5.92-14c.35-.44.66-.91,1-1.34L15,25.94a20.75,20.75,0,0,1,2.4-2.38,36.41,36.41,0,0,1,5.44-3.89,25.68,25.68,0,0,1,8.1-3.22,15.19,15.19,0,0,1,2.25-.26,12.78,12.78,0,0,1,2.31.07,8.87,8.87,0,0,1,2.26.54l1.07.48a5.88,5.88,0,0,1,1,.56c1.62,1.1.76,1.69-.9,2.19-.4.1-.88.28-1.37.46l-.75.26L36,21.1a18.72,18.72,0,0,1-3.28.89c-4.27.77-8.73,3.45-12.2,6.65-.46.37-.85.82-1.28,1.23s-.87.83-1.24,1.29A27.69,27.69,0,0,0,15.87,34a25.82,25.82,0,0,0-3.17,6.58,22.33,22.33,0,0,0-.58,2.17c-.12.74-.23,1.5-.35,2.25s0,1.53-.07,2.3.09,1.54.13,2.31a31.08,31.08,0,0,0,2.43,9A28.64,28.64,0,0,0,28.38,73.12,27.93,27.93,0,0,0,40.81,75.8a28.31,28.31,0,0,0,17.92-6.74,28.76,28.76,0,0,0,5.05-5.58c.74-1,1.37-2.1,2-3.16S67,58.13,67.54,57c.25-.49.49-1,.72-1.48s.43-1,.67-1.51c.46-.92.8-1.71,1.14-2.34a9.94,9.94,0,0,1,1-1.53,4.16,4.16,0,0,1,1.08-.86,6.13,6.13,0,0,1,1.26-.4c.38-.09.75-.26,1-.3.47,0,.71.38,1,1.36a4.35,4.35,0,0,1,.24,1.75,7.62,7.62,0,0,1-.4,2.21c-.17.6-.34,1.2-.53,1.8s-.43,1.19-.64,1.79c-.41,1.21-1,2.37-1.5,3.56a41,41,0,0,1-4.29,6.66A37,37,0,0,1,55.58,78.09a33.36,33.36,0,0,1-12.07,3.28A34.19,34.19,0,0,1,31.13,80Z"/><path class="cls-1" d="M79.75,41.24a5.89,5.89,0,0,0-1.31-1.73,3,3,0,0,0-2.7-.55c-.33.11-.66.16-1,.26a21.68,21.68,0,0,0-4,1.34,32.72,32.72,0,0,0-4,2,33.23,33.23,0,0,0-3.33,2.34,22.86,22.86,0,0,1-4.47,2.86c-.53.23-.85-.32-.92-1.16a4.15,4.15,0,0,1,.71-2.83,24,24,0,0,1,8.73-6.84l3.19-1.58A16.39,16.39,0,0,1,74.21,34,9.62,9.62,0,0,1,79,34,8.58,8.58,0,0,1,83,36.55,14.8,14.8,0,0,1,85.69,41a36.07,36.07,0,0,1,1.83,7c.37,1.77,1,3.47,1.3,5.23,0,.39.13.77.14,1.16,0,1.47-.32,1.95-1.45,2.33a7.58,7.58,0,0,1-.76.26,2,2,0,0,1-2.13-1.33c-.35-.73-.72-1.46-1.05-2.19s-.48-1.47-.69-2.2c-.43-1.47-.81-2.94-1.24-4.33-.35-1-.56-2.06-.89-3a12.2,12.2,0,0,0-1.11-2.54Z"/></g></svg>