<svg xmlns="http://www.w3.org/2000/svg" width="96" height="96" viewBox="0 0 96 96"><defs><style>.cls-1{fill:#231f20;}</style></defs><title>scribble final version</title><g id="Layer_1" data-name="Layer 1"><path class="cls-1" d="M20.21,53l-.63-.82a9,9,0,0,1-.7-1,12,12,0,0,1-1-2.13,5.69,5.69,0,0,1,1-4.41,14.37,14.37,0,0,1,1.57-1.85c.27-.27.41-.39.61-.58l.57-.49c.76-.64,1.51-1.21,2.27-1.76,3-2.16,6-4,9-5.88,2.17-1.36,4.23-2.84,6.32-4.2,1.85-1.21,3.67-2.44,5.31-3.74.41-.32.8-.65,1.17-1l.54-.5.36-.35a1.73,1.73,0,0,0,.59-1c0-.45-.4-.7-.77-.89l-.15-.08-.21-.1-.7-.31c-.45-.21-1-.41-1.46-.61-2-.79-4.11-1.49-6.24-2.1a73.61,73.61,0,0,0-11.54-2.28c-2.48-.3-5-.59-7.46-.77l-3.75-.26a13.35,13.35,0,0,1-1.87-.2c-.63-.08-1.26-.13-1.89-.2-1.58-.19-1.43-.59-.13-1.38a24,24,0,0,1,2.77-1.44,12.75,12.75,0,0,1,4.1-.83A68.06,68.06,0,0,1,26,12a79.15,79.15,0,0,1,8,1.25,77.35,77.35,0,0,1,7.82,2c1.29.41,2.58.85,3.86,1.36l1,.38,1,.44a29.52,29.52,0,0,1,2.67,1.38,5,5,0,0,1,2.26,2.89,5.23,5.23,0,0,1-.48,3.67A10.65,10.65,0,0,1,51,27c-.2.26-.43.53-.64.77l-.49.52c-.64.66-1.29,1.25-1.94,1.81A81.15,81.15,0,0,1,40,36L31.1,41.79c-1.45,1-2.88,1.94-4.21,3-.67.51-1.31,1-1.89,1.56l-.4.36-.21.2a4.22,4.22,0,0,0-.38.46,1,1,0,0,0-.22.7,2.76,2.76,0,0,0,.34.66l.21.29.17.23.23.27c.34.35.64.72,1,1.06a31,31,0,0,0,4.82,3.73A82.92,82.92,0,0,0,48,62.42a120.05,120.05,0,0,0,14.46,3.66c1.07.22,2.14.37,3.21.61a14.56,14.56,0,0,1,4,1.75,4.39,4.39,0,0,1,1.47,2.13,8.59,8.59,0,0,1,.35,1.05c.07.55-.34.92-1.2,1.24a8.89,8.89,0,0,1-3.7.5l-1.75-.08-.87,0-.86-.14c-1.14-.2-2.28-.42-3.43-.67-2.28-.49-4.57-1.08-6.86-1.75a114.38,114.38,0,0,1-13.66-5,83.2,83.2,0,0,1-9.88-5.08,49.64,49.64,0,0,1-4.75-3.27,29.74,29.74,0,0,1-4.46-4.21Z"/><path class="cls-1" d="M78,75.3q1.23-.43,2.43-1l.31-.13.15-.07h.06l.14,0a1.51,1.51,0,0,0,.33-.07,1.67,1.67,0,0,0,.34-.11.31.31,0,0,0,.15-.08s0-.1,0-.14a.83.83,0,0,1-.15-.25,2.92,2.92,0,0,0-.2-.51s-.05-.11-.08-.16l-.12-.16-.17-.22-.68-.85-2.81-3.45c-.84-1-1.79-1.93-2.73-2.86a10.4,10.4,0,0,1-1.73-1.89A17.14,17.14,0,0,1,71.91,61c-.21-.56.24-.72,1-.73a8.55,8.55,0,0,1,1.26.09,4.86,4.86,0,0,1,1.45.34,6.08,6.08,0,0,1,1.13.6l1,.78c.64.52,1.29,1.06,1.92,1.62a27.8,27.8,0,0,1,3.59,3.68,15.09,15.09,0,0,0,1,1.22l.56.57.9.87A20.48,20.48,0,0,1,87.47,72a5.28,5.28,0,0,1,1,2,3.34,3.34,0,0,1,0,.9,1.41,1.41,0,0,1-.42.81l-.54.71c-.24.22-.55.43-.82.65-.94.59-2,1.11-2.9,1.63l-.58.27-.49.23c-.32.15-.66.29-1,.43-1.37.6-2.78,1.09-4.18,1.58A52.91,52.91,0,0,1,71,82.87a42.58,42.58,0,0,1-5.35,1,10.44,10.44,0,0,1-1.25,0,2.12,2.12,0,0,1-1.58-.59,2.09,2.09,0,0,1-.32-1.56,8.08,8.08,0,0,1,.09-1,2.4,2.4,0,0,1,1.8-2c1.29-.3,2.49-.46,3.76-.74s2.56-.5,3.88-.85a42.84,42.84,0,0,0,5.94-1.94Z"/></g></svg>