<svg xmlns="http://www.w3.org/2000/svg" width="96" height="96" viewBox="0 0 96 96"><defs><style>.cls-1{fill:#231f20;}</style></defs><title>scribble final version</title><g id="Layer_1" data-name="Layer 1"><path class="cls-1" d="M53.18,51.81l-8.86-.38c-1.08,0-2.15.08-3.23,0q-5.7-.29-11.41-.68c-1.69-.12-3.38-.08-5.06-.06-1.08,0-2.16.08-3.25,0a13.47,13.47,0,0,1-1.66-.11c-.28,0-.56-.08-.83-.14l-.44-.09-.54-.17c-.91-.32-.25-1.13.42-2l.47-.64a5.34,5.34,0,0,1,.67-.59,2.93,2.93,0,0,1,1.61-.64,81.11,81.11,0,0,1,13,0,68,68,0,0,0,8.08,0l8.91.11c1.83,0,3.66.06,5.49.06,2.77,0,5.55.07,8.3-.09,2.13-.12,4.22-.53,6.34-.8.46-.06.92-.17,1.39-.2,1.76-.09,2.32.28,2.69,1.73a9,9,0,0,1,.25,1,2.17,2.17,0,0,1-1.79,2.41A44.31,44.31,0,0,1,62.1,52c-3,0-5.94,0-8.92-.07Z"/><path class="cls-1" d="M10.09,54.47l-.49-.41c0-.05-.25-.19-.39-.3l-.45-.36L7.1,52,4.29,49.27l1.38-1.56c.41-.44.81-.89,1.19-1.34s1-.84,1.53-1.24.9-.59,1.34-.88c.2-.13.47-.32.61-.39l.44-.25,1.78-1,3.53-1.9c1-.56,2-1.22,3-1.86A14.78,14.78,0,0,1,23,36.65c.46-.15.81.55.9,1.43a2.89,2.89,0,0,1-.75,2.48,45.72,45.72,0,0,1-7.58,4.91A13.59,13.59,0,0,0,13.26,47l-.74.6a3.59,3.59,0,0,1-.44.32,4,4,0,0,0-.84.62c-.06,0-.05.05,0,.07l0,.06a.48.48,0,0,0,.09.11l.21.24c.16.16.33.33.53.51a14.09,14.09,0,0,0,1.24.91c.51.35,1,.69,1.55,1a37.85,37.85,0,0,0,4.9,2.79,15.71,15.71,0,0,0,4.16,1c.3,0,.62,0,.89.09a1.07,1.07,0,0,1,.61.26.89.89,0,0,1,.3.47,6.66,6.66,0,0,1,.05,1.79c0,.35,0,.69-.07,1a2.53,2.53,0,0,1-.61,1.42,2.27,2.27,0,0,1-1.47.89,7.81,7.81,0,0,1-2.34-.18,13.91,13.91,0,0,1-2.14-.64,24.9,24.9,0,0,1-3.88-2c-1.84-1.13-3.54-2.44-5.26-3.72Z"/><path class="cls-1" d="M82.38,48.9l.54-.25c.13-.06.1,0,.12,0h0a.92.92,0,0,0,.23,0,1.45,1.45,0,0,0,.56-.2.19.19,0,0,0,0-.19c-.07-.14-.3-.22-.38-.36l-.25-.32a1.9,1.9,0,0,0-.18-.2L82.7,47c-.46-.45-.94-.9-1.42-1.34-1-.88-1.94-1.75-3-2.57a25.5,25.5,0,0,0-2.85-2,16.55,16.55,0,0,1-3.62-2.57c-.32-.35.14-1,.89-1.44a2.84,2.84,0,0,1,2.58-.38,33.45,33.45,0,0,1,7.62,5.19,20.4,20.4,0,0,0,2.25,1.74l.64.45.88.64c.57.4,1.19,1,1.77,1.45a4.69,4.69,0,0,1,.69.73l.61.73,1.15,1.53A45.09,45.09,0,0,1,86.6,52.4c-.94.62-1.35.82-1.94,1.17l-1.68,1c-1.7,1-3.46,1.81-5.14,2.82-1.3.78-2.45,1.84-3.8,2.74a5.69,5.69,0,0,1-.9.61,1.79,1.79,0,0,1-.83.24,1.2,1.2,0,0,1-.69-.17,3.59,3.59,0,0,1-1.05-1.49c-.14-.32-.29-.62-.39-.92a3.58,3.58,0,0,1-.13-1.56A7.85,7.85,0,0,1,70.2,56a1.39,1.39,0,0,1,.31-.62,12.41,12.41,0,0,1,2.95-2.22c1.09-.64,2.27-1.2,3.46-1.78,1.77-.85,3.62-1.65,5.39-2.57Z"/></g></svg>