<svg xmlns="http://www.w3.org/2000/svg" width="96" height="96" viewBox="0 0 96 96"><defs><style>.cls-1{fill:#231f20;}</style></defs><title>scribble final version</title><g id="Layer_1" data-name="Layer 1"><path class="cls-1" d="M60.72,58.94s7.82-6.76,8.8-4.81c1.57,3.15-4.28,16.2-5.31,16.85s-8.85-4-10.11-6.74c-.78-1.67-.21-5.6,3.23-6A5.32,5.32,0,0,1,60.72,58.94Z"/><path class="cls-1" d="M57.94,18.84A16.36,16.36,0,0,0,55.1,20a12.41,12.41,0,0,0-2.38,1.66,10.94,10.94,0,0,0-3.21,4.54,2.91,2.91,0,0,0,1.19,3.49,2.83,2.83,0,0,0,1.64.51,5.54,5.54,0,0,0,2.31-.41,12.39,12.39,0,0,0,6-5.57,5.3,5.3,0,0,0,.49-1.39l0-.16v-.22l0-.45a5.35,5.35,0,0,0,0-.9,7.65,7.65,0,0,0-1-3.34,10.88,10.88,0,0,0-5.85-4.54,18.13,18.13,0,0,0-3.94-.95,14,14,0,0,0-4,.11,32.1,32.1,0,0,0-8.08,2.8c-2.38,1.13-4.73,2.45-7.17,3.73a33.43,33.43,0,0,1-7.89,3.19,12.42,12.42,0,0,1-5.91,0,11.26,11.26,0,0,1-1.42-.48,9.3,9.3,0,0,1-1.33-.61,8.84,8.84,0,0,1-2.5-1.87,6.91,6.91,0,0,1-1.69-6.09A13.55,13.55,0,0,1,12.7,8c1.34-1.83,1.64-1.19,1.41.72a31.6,31.6,0,0,0-.2,3.69,9.18,9.18,0,0,0,.22,2,4.14,4.14,0,0,0,.66,1.4,3.66,3.66,0,0,0,1.13,1,6.42,6.42,0,0,0,.83.4,7.69,7.69,0,0,0,1,.34,5.58,5.58,0,0,0,1.81.3,8.25,8.25,0,0,0,1.9-.09c2.69-.46,5.68-2,8.69-3.64a86.19,86.19,0,0,1,9.76-4.88A26.34,26.34,0,0,1,45.58,7.6a18.27,18.27,0,0,1,6.17.14,22.3,22.3,0,0,1,6.84,2.42,17.3,17.3,0,0,1,3.09,2.21,14.34,14.34,0,0,1,2.48,3A13.7,13.7,0,0,1,66,23a10,10,0,0,1-1.22,4.07,15.26,15.26,0,0,1-2.2,3.11,16.69,16.69,0,0,1-6.84,4.64,9.66,9.66,0,0,1-4.62.44,8,8,0,0,1-2.36-.89,7.36,7.36,0,0,1-1.87-1.55,7.44,7.44,0,0,1-2-4.3,8.26,8.26,0,0,1,.1-2.34,5.48,5.48,0,0,1,.25-1.08,6.1,6.1,0,0,1,.34-1,13.66,13.66,0,0,1,2.09-3.52,17.6,17.6,0,0,1,2.78-2.81,16.12,16.12,0,0,1,2-1.42c.71-.38,1.41-.77,2.13-1.08A25.6,25.6,0,0,1,59,13.69a27.6,27.6,0,0,1,9.29-.83,18.11,18.11,0,0,1,7,2,13.34,13.34,0,0,1,5.28,5.33,13.61,13.61,0,0,1,1.53,7.28,16.8,16.8,0,0,1-.59,3.61,19.86,19.86,0,0,1-1.26,3.38,30,30,0,0,1-6.6,8.6c-2.5,2.45-5.12,4.56-7.3,6.86a22.66,22.66,0,0,0-2.47,3.12,19.89,19.89,0,0,0-2.15,4.34,6.89,6.89,0,0,1-1.41,2.32,7.51,7.51,0,0,1-.76.87c-.43.34-.91,0-1.42-1.11A8.68,8.68,0,0,1,57.87,54a16.27,16.27,0,0,1,2.21-5,29.44,29.44,0,0,1,3.23-4c1.15-1.21,2.33-2.34,3.49-3.42l3.41-3.07a22.63,22.63,0,0,0,5.12-6.27,12.53,12.53,0,0,0,1.45-7.06,7.82,7.82,0,0,0-2.06-4.37,9.34,9.34,0,0,0-4.51-2.58,21.58,21.58,0,0,0-12.22.7Z"/><path class="cls-1" d="M63.74,66.94a46.34,46.34,0,0,0,3.16-7.42,14.21,14.21,0,0,0,.36-1.39l.07-.34V57.7c0-.06,0-.12,0-.19a1.42,1.42,0,0,0,.07-.83c-.19-.25-.49-.1-.76,0l-.45.2-.07,0L66,57l-.28.16-.56.35L62.88,58.9l-1.07.65-.6.34-.41.18a3.48,3.48,0,0,1-.44.1,3.55,3.55,0,0,1-.92,0c-.29,0-.46-.08-.69-.11l-1.21-.27L54.6,59.1a16.09,16.09,0,0,0-2.83-.56c-.57,0-.62-.34-.12-.83a4.94,4.94,0,0,1,3-1.12c.29,0,.57,0,.86,0l.82.11,1.58.24c.51.09,1,.17,1.45.22l.32,0c.13,0,0,0,0,0s0,0,0,0l0,0,.12-.07.25-.17.58-.42,1.25-.91c.43-.3.86-.62,1.32-.9l1.68-1a10.64,10.64,0,0,1,2.8-1.19,2.86,2.86,0,0,1,2.43.43,3.63,3.63,0,0,1,1,2.38A12.35,12.35,0,0,1,71,58.49a45.82,45.82,0,0,1-2.78,8.36c-.35.82-.73,1.64-1.15,2.46l-.42.78a7.61,7.61,0,0,1-.5.83,3.7,3.7,0,0,1-1.26,1.26l-.18.1a4.49,4.49,0,0,1-1.32,0l-.66-.18c-.22-.08-.43-.18-.65-.27a10.6,10.6,0,0,1-1.15-.55c-.31-.17-.6-.35-.89-.52-1.17-.72-2.28-1.48-3.36-2.3a35.59,35.59,0,0,1-5-4.13c-.33-.37-.69-.7-1-1.1-1.09-1.53-1-2.31-.05-3.12a5.85,5.85,0,0,1,.68-.55,2,2,0,0,1,2.52.53,48.69,48.69,0,0,0,7.5,6.49c.3.21.61.41.91.6s.67.39.86.5c0,0,0,0,0,.07s0,0,.06,0h0s0,.07.06-.1l.37-.71Z"/><path class="cls-1" d="M56.76,76.88c-.22-.23.27-.31,1.19-.33a5,5,0,0,1,1.26.21,3.67,3.67,0,0,1,.58.46A12.83,12.83,0,0,1,60.18,79a2.73,2.73,0,0,1,0,1.21c-.16.78-.31,1.57-.51,2.34a1.14,1.14,0,0,1-.26.48,3.33,3.33,0,0,0-.75,1.67c0,.1-.08.19,0,.33a3.83,3.83,0,0,1-.59,2c-.46.39-.83.82-1.27,1.2-.07,0,0,.15-.24.14-.44,0-.45.14-.55.27a1.71,1.71,0,0,1-.54.49,1.52,1.52,0,0,1-.57.07,1.79,1.79,0,0,1-.73-.39c-.12-.18-.41-.24-.63-.36a1.24,1.24,0,0,1-.23-.12,7.07,7.07,0,0,1-.49-1.71l.07-.28c0-.16.07-.38.13-.6a9.29,9.29,0,0,0,.19-1c0-.11.13-.17.22-.24s.22-1.41.24-1.46c.14-.25.09-.56.51-.71.09,0,.09-.09.1-.15a5.58,5.58,0,0,1,.6-1.35,4.41,4.41,0,0,0,.2-.71s.08-.08.11-.11.11-.09.12-.15a7.31,7.31,0,0,0,.41-1.72c0-.14.54-.69.51-.85S56.85,77,56.76,76.88Z"/><path class="cls-1" d="M73.45,72.13c-.27.07-.16-.37.13-1.11a4,4,0,0,1,.62-.93,3.41,3.41,0,0,1,.62-.29c.12,0,1.33.25,1.77.31a2.93,2.93,0,0,1,1.08.41c.66.37,1.33.71,2,1.07a.91.91,0,0,1,.35.35,2.46,2.46,0,0,0,1.3,1,.31.31,0,0,0,.33,0c.28-.13,1.58.55,1.66.74a7.16,7.16,0,0,0,.37.68c.13.21.25.45.37.67s.12,0,.07.26c-.14.49,0,.48.12.59a1.92,1.92,0,0,1,.3.59,2.69,2.69,0,0,1,0,.64,2.5,2.5,0,0,1-.35.85,2,2,0,0,0-.33.72c0,.09-.08.2-.11.27a5.77,5.77,0,0,1-2.12.67l-.32-.12c-.19-.07-.44-.15-.68-.25-.48-.21-1-.45-1.06-.48s-.15-.19-.19-.32-1.39-.69-1.42-.74c-.21-.24-.53-.31-.53-.82,0-.1-.06-.12-.11-.15a5.61,5.61,0,0,1-1.06-1.16,4,4,0,0,0-.58-.51s0-.11-.06-.16,0-.14-.09-.17a10.23,10.23,0,0,0-1.38-1.19c-.12-.06-.41-.79-.56-.84S73.57,72.1,73.45,72.13Z"/></g></svg>