<svg xmlns="http://www.w3.org/2000/svg" width="96" height="96" viewBox="0 0 96 96"><defs><style>.cls-1{fill:#231f20;}</style></defs><title>scribble final version</title><g id="Layer_1" data-name="Layer 1"><path class="cls-1" d="M35.48,62.91a19.86,19.86,0,0,0,7.43,1.31,37.57,37.57,0,0,0,8.25-1c2-.47,4-1.19,6-1.85,3.44-1.1,7.26-2.69,11.42-3.53a23.49,23.49,0,0,1,6.52-.48,15.47,15.47,0,0,1,6.39,2A14.49,14.49,0,0,1,86,63.3a13,13,0,0,1,2.39,5.34A15,15,0,0,1,84.52,82c-1,1.05-1.3.46-1.15-.85.1-.64.19-1.52.35-2.46,0-.49.13-1,.2-1.5s.17-1,.24-1.59a14.7,14.7,0,0,0,0-5.5,8.33,8.33,0,0,0-2.34-4.27,8.86,8.86,0,0,0-4.34-2.21,10.21,10.21,0,0,0-1.25-.23c-.43,0-.85-.09-1.3-.13a16,16,0,0,0-2.78,0,23.7,23.7,0,0,0-7.28,2c-1.23.51-2.51,1.07-3.88,1.6s-2.7,1-4.09,1.44a57.38,57.38,0,0,1-9.38,2.06,33.43,33.43,0,0,1-9.88-.11,20,20,0,0,1-11.14-5.62,22.75,22.75,0,0,1-6.17-17.11,49.07,49.07,0,0,1,.82-6.9A44.89,44.89,0,0,1,23,34a17.11,17.11,0,0,1,1.2-2.74c1.89-3.23,3-3.95,4.4-4a5.06,5.06,0,0,1,.95,0c.95.19.82,1.82.15,4.3-.27.91-.49,1.84-.72,2.76s-.55,1.78-.76,2.68A52,52,0,0,0,27,42.31a33.63,33.63,0,0,0-.43,5.23,25.18,25.18,0,0,0,.59,4.91c.09.59.34,1.13.48,1.71s.45,1.08.65,1.64.57,1,.84,1.57.67.93,1,1.42a12.16,12.16,0,0,0,5.4,4Z"/><path class="cls-1" d="M21.71,15.39c2.52-2,6.07-4.71,10.84-4.44a9.65,9.65,0,0,1,4.66,1.52A16.22,16.22,0,0,1,42,18,39.59,39.59,0,0,1,44.66,24c.68,1.75,1.44,3.45,2.2,5.09,1,2.09,1.89,4.2,2.68,6.26.24.64-.35,1-1.37,1a4.88,4.88,0,0,1-3.37-1.82q-.57-.78-1.08-1.56l-.52-.78-.43-.81c-.56-1.07-1.09-2.14-1.6-3.2-1-2.13-2-4.21-2.84-6.26a9.87,9.87,0,0,0-4.7-5.21,4.4,4.4,0,0,0-3.12-.18,12.52,12.52,0,0,0-3.63,1.83,37.87,37.87,0,0,0-4.44,3.63,47.87,47.87,0,0,0-5.92,6.56,45.47,45.47,0,0,0-3.38,5.89c-.24.44-.43.89-.69,1.32a7.2,7.2,0,0,1-.65,1,2.57,2.57,0,0,1-.68.52,2.32,2.32,0,0,1-1.56.12,7.1,7.1,0,0,1-.85-.17c-.86-.27-1.19-1.35-.88-2.84A30.28,30.28,0,0,1,9,31.19a33.27,33.27,0,0,1,1.55-3,45.21,45.21,0,0,1,3.89-5.56,55.2,55.2,0,0,1,7.21-7.39Z"/></g></svg>