<svg xmlns="http://www.w3.org/2000/svg" width="96" height="96" viewBox="0 0 96 96"><defs><style>.cls-1{fill:#231f20;}</style></defs><title>scribble final version</title><g id="Layer_1" data-name="Layer 1"><path class="cls-1" d="M40,30.19c-.18,8.41-2.88,7.11-6.28,9.5s-10.53-.23-12.27-4.21,1.58-7.37,1.58-7.37c-.67,4.66,3.95,6.13,6.4,6.32,6.72.52,8.24-5.59,8.26-11.24Z"/><path class="cls-1" d="M26.66,36.57a7.48,7.48,0,0,0,7.88.47,7.42,7.42,0,0,0,2.11-2.24c2.2-2.83,1.06-7.81-1-12.09a46.15,46.15,0,0,0-3.25-5.59L30,13.67c-.4-.59-.78-1.18-1.15-1.79a14.19,14.19,0,0,1-.92-2c-.32-.86.16-1,1.12-.77a12.2,12.2,0,0,1,1.78.61,5.74,5.74,0,0,1,1.81,1.39,73.17,73.17,0,0,1,5.4,7,27.85,27.85,0,0,1,3.7,8.54,18.76,18.76,0,0,1,.55,6.17,11.08,11.08,0,0,1-.87,3.26,11.54,11.54,0,0,1-1.74,2.77,11.26,11.26,0,0,1-6.08,3.69,12.83,12.83,0,0,1-6.88-.38,11.58,11.58,0,0,1-6.47-5.31,10.08,10.08,0,0,1-1.05-6.34,19,19,0,0,1,2.09-5.59c1.34-2.58,2.62-5.1,3.56-7.47.17-.51.35-1,.47-1.5.06-.22.14-.42.2-.59a2.54,2.54,0,0,1,.13-.44,2.16,2.16,0,0,1,.35-.58,4.21,4.21,0,0,1,1.4-.81c.32-.14.63-.35.94-.49a1.21,1.21,0,0,1,1.54.33,2.38,2.38,0,0,1,.58,1.09A4.13,4.13,0,0,1,30.61,16a13.85,13.85,0,0,1-1.15,4.41,34.22,34.22,0,0,1-1.77,3.64,42.82,42.82,0,0,0-3.09,6.2,5.08,5.08,0,0,0,2.13,6.17Z"/><path class="cls-1" d="M72.76,48.9c-.46,5.34-3.57,8.13-8.33,7.36a6.71,6.71,0,0,1-5.52-8.39s-3.48,11,3.44,14.33S72.58,62.08,74.7,57A6.92,6.92,0,0,0,72.76,48.9Z"/><path class="cls-1" d="M73.41,63.05a11.69,11.69,0,0,1-6,1.66,9.4,9.4,0,0,1-3-.14,10.89,10.89,0,0,1-2.94-1,10.48,10.48,0,0,1-3.57-2.89,8.8,8.8,0,0,1-1.67-3.54,16.73,16.73,0,0,1-.48-3.67,22.38,22.38,0,0,1,1.19-6.85,46.54,46.54,0,0,1,2.27-5.47,16.24,16.24,0,0,1,4.35-6c.61-.51,1.22.17,1.56,1.26A5.06,5.06,0,0,1,65,40.1a43,43,0,0,0-3,5.87,30.12,30.12,0,0,0-1.65,6.08,6.76,6.76,0,0,0,0,1.85c0,.31.07.62.12.92l.27.85c.12.61.54,1,.69,1.6a8.9,8.9,0,0,0,.92,1.4,5.87,5.87,0,0,0,3.08,2.11,6.45,6.45,0,0,0,2,.37,7.27,7.27,0,0,0,2-.52,6.26,6.26,0,0,0,3.43-3.33,6.62,6.62,0,0,0,.46-1.76,8.7,8.7,0,0,0-.09-1.84,5.73,5.73,0,0,0-1.73-3.23,28.14,28.14,0,0,0-2.69-2.18A13.31,13.31,0,0,1,66,45.42a8.76,8.76,0,0,1-1-1.58,5.26,5.26,0,0,1-.39-1.4,2.37,2.37,0,0,1,.2-1,2.56,2.56,0,0,1,1-1.2,3.26,3.26,0,0,1,.54-.37c.57-.29,1.35.44,2.5,1.28A14.66,14.66,0,0,0,70.58,43c.57.57,1.3,1,2,1.66A31.68,31.68,0,0,1,75.16,47a11.38,11.38,0,0,1,2.49,3.9l.3.87.18.87a8.74,8.74,0,0,1,.18,1.75,12.79,12.79,0,0,1-.17,1.76,9.9,9.9,0,0,1-.46,1.72,10.65,10.65,0,0,1-4.2,5.3Z"/><path class="cls-1" d="M42.31,77.24C39.62,80.14,37.86,81,36,80.91c-6.59-.43-6.52-10-4.53-10.2,0,0-4.09.63-5.26,6.09s3.41,10.37,6.88,10.3,6.27,0,8.66-5.57Z"/><path class="cls-1" d="M38.42,89a11.9,11.9,0,0,1-10.2-1.43,9.8,9.8,0,0,1-1.4-1.16c-.21-.22-.44-.44-.62-.66l-.5-.64a10.58,10.58,0,0,1-2.15-4.51,9.64,9.64,0,0,1,.34-4.49,13.58,13.58,0,0,1,1.82-3.61,32.72,32.72,0,0,1,4.91-5.32c1.53-1.38,3-2.78,4.37-4.18.89-.9,1.71-1.84,2.5-2.73l.58-.65.62-.58,1.16-1.09c.4-.38,1.47-.14,2.19,1.05a4.51,4.51,0,0,1-.15,4.68,61,61,0,0,1-5.84,5.56c-1.93,1.66-3.8,3.23-5.44,4.88a8.39,8.39,0,0,0-2,3.27,5,5,0,0,0,.1,3.21,4.29,4.29,0,0,0,.4.88,5.48,5.48,0,0,0,.55.87,5.35,5.35,0,0,0,.61.74,5.17,5.17,0,0,0,.71.59,6,6,0,0,0,3.84.79,7,7,0,0,0,2.46-.69,5.64,5.64,0,0,0,2-1.49c.2-.23.32-.5.5-.74S40,81,40,80.68s.2-.62.24-.94.11-.64.11-1a12.31,12.31,0,0,0-.68-4.17c-.36-1.13-.91-2.29-1.43-3.53A17.05,17.05,0,0,1,37,67a9.72,9.72,0,0,1-.14-2,3.48,3.48,0,0,1,1-2.59,2.18,2.18,0,0,1,.87-.47,4.28,4.28,0,0,1,1.1-.11,7.6,7.6,0,0,1,1,0c.88.12,1.89,1.35,2.35,2.52a14.64,14.64,0,0,0,.9,2.43c.3.82.58,1.66,1,2.64s.76,2,1.14,3.33a17.17,17.17,0,0,1,.81,4.39,14.3,14.3,0,0,1-.51,3.8,18.82,18.82,0,0,1-.67,1.82,12.42,12.42,0,0,1-1,1.83,12.72,12.72,0,0,1-1.35,1.55,10.67,10.67,0,0,1-1.5,1.29,11.73,11.73,0,0,1-3.33,1.68Z"/></g></svg>