<svg xmlns="http://www.w3.org/2000/svg" width="96" height="96" viewBox="0 0 96 96"><defs><style>.cls-1{fill:#231f20;}</style></defs><title>scribble final version</title><g id="Layer_1" data-name="Layer 1"><path class="cls-1" d="M39.33,68a45.19,45.19,0,0,0,5.77-3.63C47,63,48.75,61.49,50.47,59.91c.63-.59,1.23-1.2,1.83-1.81s1.17-1.25,1.77-1.86A106.81,106.81,0,0,0,65.61,42.11a60,60,0,0,0,4.07-7c.76-1.54,1.46-3.12,2.08-4.71s1.34-3.13,1.86-4.75c.35-1,.73-.83,1,.19a8.21,8.21,0,0,1,.31,2.1,8.11,8.11,0,0,1,0,1.38l-.08.75a6.91,6.91,0,0,1-.22.74,58.42,58.42,0,0,1-4.56,10,67.32,67.32,0,0,1-6.13,9.06c-2.74,3.4-5.47,7-8.55,10.3a67.18,67.18,0,0,1-11.26,9.65A33.54,33.54,0,0,1,35.77,74a16.48,16.48,0,0,1-7.28.75,10.35,10.35,0,0,1-3.69-1.19,6.93,6.93,0,0,1-2.86-3,10.19,10.19,0,0,1-.72-6,17.06,17.06,0,0,1,1.7-5.36,19.16,19.16,0,0,1,1.19-2.12c1.73-2.49,2.71-2.94,3.81-2.78a3.36,3.36,0,0,1,.74.13c.69.28.35,1.52-.52,3.27a24.67,24.67,0,0,0-1.61,4,18.5,18.5,0,0,0-.89,3.89A5.32,5.32,0,0,0,26,68.54,2.71,2.71,0,0,0,27.75,70a10.26,10.26,0,0,0,5.5.24,22.12,22.12,0,0,0,6-2.32Z"/><path class="cls-1" d="M52.62,75.84a30.73,30.73,0,0,0,4-2c.48-.28.88-.66,1.35-.94a37,37,0,0,0,4.84-3.36,17.87,17.87,0,0,0,1.86-1.83c.39-.4.7-.87,1.11-1.25s.8-.77,1.22-1.14c.25-.24.46-.05.55.38a3.05,3.05,0,0,1-.22,1.77c-.06.14-.11.3-.18.43l-.27.37-.55.7c-.38.47-.77.92-1.18,1.35a19.41,19.41,0,0,1-2.66,2.38c-1.16.84-2.18,1.93-3.37,2.79A36.38,36.38,0,0,1,54.91,78c-.89.45-1.8.87-2.73,1.24a23,23,0,0,1-4.42,1.26,14.53,14.53,0,0,1-3.63.32,4.56,4.56,0,0,1-.82-.08c-1-.34-1.21-.74-1.19-1.31a2.6,2.6,0,0,1,0-.4c.08-.4.57-.63,1.2-.71a11.35,11.35,0,0,1,1.34-.19c.43-.07.86-.12,1.29-.23.86-.17,1.71-.44,2.61-.65a22.16,22.16,0,0,0,4-1.43Z"/><path class="cls-1" d="M34.72,77.55a16,16,0,0,1-4.12.88A10,10,0,0,1,26,77.67a9.15,9.15,0,0,1-3.71-3l-.63-.93-.51-1a9.07,9.07,0,0,1-.76-2.31,16.42,16.42,0,0,1,1-8.18,46,46,0,0,1,3.11-6.78,58.58,58.58,0,0,1,8.65-11.79,60.66,60.66,0,0,1,11.18-9.44A45.88,45.88,0,0,1,54,29.37,28.1,28.1,0,0,1,65,27.72a25.07,25.07,0,0,1,9.68,2.59,18.08,18.08,0,0,1,4.34,2.92,12.86,12.86,0,0,1,3.16,4.55,13.64,13.64,0,0,1,1,5.31,20.71,20.71,0,0,1-.7,5A35.54,35.54,0,0,1,78.69,57a52.15,52.15,0,0,1-5.46,7.63,72.54,72.54,0,0,1-6.52,6.6A58.48,58.48,0,0,1,51.2,81.29a39.78,39.78,0,0,1-3.91,1.47c-.67.2-1.35.39-2,.56a10.66,10.66,0,0,1-2.74.25,7.59,7.59,0,0,1-2.73-.63A3.17,3.17,0,0,1,38,81c-.48-1.77.65-3.57,1.92-5,.15-.17.33-.38.46-.51l.37-.37c.25-.25.5-.5.75-.73.5-.49,1-.94,1.54-1.4,1-.91,2.11-1.76,3.2-2.59a66,66,0,0,1,6.81-4.53,44.56,44.56,0,0,1,9.75-4.32,22.28,22.28,0,0,1,5.53-.91,13.5,13.5,0,0,1,5.91,1.09,10.75,10.75,0,0,1,4.61,4.13l.74,1.32a10.33,10.33,0,0,1,.57,1.51,12.23,12.23,0,0,1,.47,3,17.19,17.19,0,0,1-.73,5.58,21.73,21.73,0,0,1-2.16,5.06c-1.24,2-2.26,2.51-2.44,2.23s.17-1.39.5-3.15a24.07,24.07,0,0,0,.33-7,13.91,13.91,0,0,0-.83-3.9,8.73,8.73,0,0,0-2.2-2.87,6.64,6.64,0,0,0-3-1.32,12.39,12.39,0,0,0-4,.05,31.68,31.68,0,0,0-8.84,3.07A59.18,59.18,0,0,0,48.9,74.6c-1.34,1-2.64,2-3.84,3.05-.3.27-.61.54-.88.81l-.54.52c-.11.1-.08.06-.12.11s0,.15.12.16h.17l.42-.09.56-.14c.75-.2,1.51-.44,2.26-.71a47.25,47.25,0,0,0,8.79-4.41A65.55,65.55,0,0,0,70.76,60.54a41,41,0,0,0,6.16-10.25c1.47-3.62,2.17-7.66.82-10.69a8.43,8.43,0,0,0-3.29-3.74A19.61,19.61,0,0,0,72,34.53c-.45-.17-.89-.37-1.34-.54l-1.37-.43a23,23,0,0,0-11.5,0A38.32,38.32,0,0,0,45.64,39a58.11,58.11,0,0,0-10.35,8.85,53.09,53.09,0,0,0-8,11.06,32.11,32.11,0,0,0-2.51,6.2c-.57,2.09-.72,4.22.06,5.77a6.4,6.4,0,0,0,2.2,2.63,5.15,5.15,0,0,0,1.51.61,6.23,6.23,0,0,0,1.74.11,17.27,17.27,0,0,0,7.38-2.8c4.75-2.91,9-6.88,13.05-10.89a97.44,97.44,0,0,0,16-20.33,49.73,49.73,0,0,0,4.91-11.72L72,27l.27-1.54a19.07,19.07,0,0,0,.36-3,9.11,9.11,0,0,0-1.23-5.27,6.61,6.61,0,0,0-3.08-2.43,13.93,13.93,0,0,0-4.31-.84A32,32,0,0,0,54.7,15a59.27,59.27,0,0,0-9.08,3.11,60.65,60.65,0,0,0-8.39,4.66c-2.37,1.57-4.58,3.3-6.83,5.12-2.09,1.69-3.79,3.15-5.22,4.38s-2.63,2.18-3.64,2.95a14,14,0,0,1-4.68,2.64,10.65,10.65,0,0,1-1.73.49c-.72,0-.44-.89.68-2.61a54.19,54.19,0,0,1,5.93-7.22A86.61,86.61,0,0,1,36.11,16.33c1.35-.89,2.74-1.74,4.18-2.53a45.5,45.5,0,0,1,4.49-2.2,55.38,55.38,0,0,1,9.54-3,37.12,37.12,0,0,1,10.52-.89,17.78,17.78,0,0,1,5.84,1.44A12.52,12.52,0,0,1,76,13.51a13.2,13.2,0,0,1,2.19,6.31,21.59,21.59,0,0,1-.28,5.76A45.26,45.26,0,0,1,75,35.52a68.73,68.73,0,0,1-7.37,13,104.64,104.64,0,0,1-9.37,11.25,134.3,134.3,0,0,1-10.58,9.94,61.69,61.69,0,0,1-6,4.45,32.1,32.1,0,0,1-6.92,3.51Z"/></g></svg>