<svg xmlns="http://www.w3.org/2000/svg" width="96" height="96" viewBox="0 0 96 96"><defs><style>.cls-1{fill:#231f20;}</style></defs><title>scribble final version</title><g id="Layer_1" data-name="Layer 1"><path class="cls-1" d="M32,83.78l-.14-.08s0-.06-.11,0l-.06-.07a1.33,1.33,0,0,1-.1-.28l-.17-.6c-.06-.2-.12-.45-.18-.69s0-.29,0-.45l.08-.49c.15-.68.32-1.36.45-2l.15-.74.09-.5a29.28,29.28,0,0,0,.46-4.08c.05-1-.06-2-.08-3a42.32,42.32,0,0,0-1.69-10.65A31.68,31.68,0,0,0,29,55.58a58,58,0,0,1-2.53-5.68c-.21-.62.33-.84,1.14-.65a4.45,4.45,0,0,1,2.62,1.81c.3.46.6.93.87,1.42l.43.72c.12.25.23.5.34.76.46,1,.86,2,1.24,3.1a36.12,36.12,0,0,1,1.61,6.52,77.72,77.72,0,0,1,1,8.16,36.26,36.26,0,0,1-.16,4.54c-.07.75-.18,1.51-.3,2.25l-.09.56-.06.24-.13.49-.17.64a.44.44,0,0,0,0,.16s.09,0,.13,0,.2,0,.3,0l1.43-.24A41.14,41.14,0,0,1,45,79.84a46.7,46.7,0,0,1,6.45.5c.47.08.94.13,1.41.25,1.74.45,2.18.93,2.19,1.93a5.3,5.3,0,0,1,0,.69c-.12.73-1,1-2.16.87a58.61,58.61,0,0,0-10.72-.86,37.25,37.25,0,0,0-4.06.34l-1,.16c-.62.11-1.34.26-2,.43a7.38,7.38,0,0,1-1,.23l-.49.06c-.15,0-.27,0-.41,0a.65.65,0,0,1-.34-.12l-.29-.15L32,83.84Z"/><path class="cls-1" d="M32.15,53.18a52.21,52.21,0,0,1,3,16.4c.06,2,.19,4,.12,5.9-.06,1.7-.16,3.4-.17,4.93V81a3.17,3.17,0,0,0,0,.43.69.69,0,0,0,.48.67,4.69,4.69,0,0,0,.92,0L39,81.84c1.69-.21,3.4-.4,5.12-.54a73.35,73.35,0,0,1,9.29-.36,23,23,0,0,1,6.12,1,13.48,13.48,0,0,1,2.89,1.45,8.44,8.44,0,0,1,2.27,2.38c.73,1.18,0,1.4-1.3,1.44a18.25,18.25,0,0,0-2.47.26,8,8,0,0,1-1.29,0,7,7,0,0,1-1.28-.15c-.37-.1-.76-.15-1.15-.23s-.78-.17-1.17-.26a24.52,24.52,0,0,0-2.49-.32,44.08,44.08,0,0,0-5.29-.09c-1.82.07-3.66.21-5.54.39l-6.15.58a9.48,9.48,0,0,1-2.92,0,5.17,5.17,0,0,1-.64-.19l-.16-.07h0c0-.06,0,0,0,0l-.08,0-.31-.15a2.31,2.31,0,0,1-.58-.4,2.9,2.9,0,0,1-.48-.51,5.47,5.47,0,0,1-1.16-2.56,8.67,8.67,0,0,1-.22-1.47,6.37,6.37,0,0,1-.07-.74l0-.54c-.08-2.59,0-4.93,0-7.28a52.43,52.43,0,0,0-1.82-15,39.89,39.89,0,0,0-3.57-8.54c-.23-.4-.45-.81-.71-1.2l-.37-.6c-.2-.31-.39-.61-.6-.9C21.91,46,21,44.79,20.1,43.65l-1.25-2.27-.63-1.53c0-.14-.18-.22-.07-.43a1.48,1.48,0,0,1,.44-.36,5.26,5.26,0,0,1,1-.42,9.16,9.16,0,0,1,2.29-.41,14.92,14.92,0,0,1,3.57.26,35.32,35.32,0,0,1,3.86.88l1,.32.25.09.18.06.36.14c.49.17,1,.38,1.44.59a21.7,21.7,0,0,1,2.74,1.53,15.9,15.9,0,0,1,2.23,1.71,10.31,10.31,0,0,1,1.47,1.67,4.25,4.25,0,0,1,.58,1.42,2.58,2.58,0,0,1,0,1.14,4.46,4.46,0,0,1-.52,1,9,9,0,0,1-.5.78c-.47.56-2.28.14-3.75-1.09a20.52,20.52,0,0,0-3.4-2.57,16.08,16.08,0,0,0-1.88-1c-.32-.16-.65-.3-1-.44l-.13-.05h-.12c-.18.11,0,.21,0,.2h0s0,0,0,0h0s0-.06.06.11l.44.7c.3.45.55.95.82,1.42a45.55,45.55,0,0,1,2.8,6Z"/><path class="cls-1" d="M57,47.55c-.13-.51-.25-1-.35-1.54l-.16-.77-.11-.63-.25-1.72c-.15-1.14-.27-2.28-.38-3.42s-.18-2.27-.25-3.39l-.06-.85c0-.18,0-.18,0-.21v-.1l0-.4c0-.46-.1-.7-.08-1.21,0-.27,0-.57,0-.9a4.38,4.38,0,0,0,0-.5c0-.08-.07-.18-.11-.15s-.06,0-.09.06a4.64,4.64,0,0,0-.71.91c-.21.3-.44.67-.69,1.1l-.39.69-.84,1.62L49,43a42.14,42.14,0,0,1-2.48,4.35,19.28,19.28,0,0,1-1.59,2,10.61,10.61,0,0,1-2.07,1.74c-1,.64-1.45-.45-1.57-1.83a9.14,9.14,0,0,1,0-1,7.16,7.16,0,0,1,.08-1.13A5,5,0,0,1,42.2,45a89.59,89.59,0,0,0,4.63-8.08Q48,34.71,49.1,32.54c.69-1.4,1.34-2.78,2-4.07s1.32-2.57,2-3.6l.48-.81.26-.35a1.34,1.34,0,0,1,.26-.23l.49-.44.49-.46c.14-.1.28-.16.41-.26a8.12,8.12,0,0,1,.79-.47l.37-.19a.67.67,0,0,1,.56-.08,1.91,1.91,0,0,1,.77.66,9.7,9.7,0,0,1,.57.82,7.49,7.49,0,0,1,1,2.9c.25,1.64.34,3.58.49,5.39l.37,4.57c.18,2.18.42,4.34.76,6.47l.36,2.17c.09.51.21,1,.35,1.59.09.33.19.67.31,1s.2.55.31.83a.09.09,0,0,0,.15.06l.12-.14c.07-.11.14-.21.2-.32l.8-1.39c.27-.48.57-1,.88-1.48l.74-1.18.9-1.34A32.33,32.33,0,0,1,73,34.55a15.51,15.51,0,0,1,1.91-1.34,6.11,6.11,0,0,1,3-1,2.12,2.12,0,0,1,1.68,1,6.42,6.42,0,0,1,.6.83c.48,1-.29,2.05-1.66,3a29.42,29.42,0,0,0-5.55,5,36.06,36.06,0,0,0-2.4,3.11c-.38.55-.75,1.12-1.11,1.69l-.31.5-.57,1c-.38.65-.74,1.32-1.1,2A25.57,25.57,0,0,1,65,54.5a3.82,3.82,0,0,1-1.2.93,3.07,3.07,0,0,1-1,.33,4.83,4.83,0,0,1-1,0,4.59,4.59,0,0,1-.56-.1,2.58,2.58,0,0,1-.48-.18,3.81,3.81,0,0,1-2-2,37.9,37.9,0,0,1-2-5.86Z"/><path class="cls-1" d="M68.67,64.78c.44-1.23.92-2.44,1.39-3.64s1-2.4,1.44-3.6c.34-.87.55-1.78.94-2.64,1.3-3,2.73-6,4.06-9,.6-1.32,1.1-2.69,1.58-4a17.3,17.3,0,0,1,2.45-5c.36-.47.88-.19,1.33.51a4.57,4.57,0,0,1,.74,2.9l-.26,1.41A12.8,12.8,0,0,1,81.92,43c-.3.88-.63,1.75-1,2.62-.67,1.74-1.39,3.46-2.23,5.16A22.57,22.57,0,0,0,77.53,54c-.32,1.1-.62,2.22-1,3.31l-1.16,3.59-1.11,3.6c-.41,1.49-.86,3-1.25,4.46a46.41,46.41,0,0,0-1.41,6.82,21.48,21.48,0,0,0,0,2.66c.06.88.14,1.73.18,2.59,0,.38.07.75.1,1.11.11,1.36-.38,1.82-1.61,2.25-.29.09-.57.22-.86.29-.94.24-1.81-.3-2.31-1.47-.15-.44-.3-.88-.43-1.33s-.19-.88-.28-1.33-.15-.9-.21-1.36a7.08,7.08,0,0,1-.1-1.37,33.36,33.36,0,0,1,.54-5.37,39,39,0,0,1,.84-3.89c.3-1.29.66-2.55,1.08-3.8Z"/><path class="cls-1" d="M21.67,23.16a4.64,4.64,0,0,1,.16,1.53,3.94,3.94,0,0,1-.29,1.51,8.08,8.08,0,0,1-.67,1.35,7.71,7.71,0,0,1-1,1.14c-.25.26-.54.49-.8.75a8.84,8.84,0,0,1-.93.62,6.92,6.92,0,0,1-7.75-1.33L9.74,28a7.48,7.48,0,0,1-.56-.79,5.17,5.17,0,0,1-.56-1.8,4.31,4.31,0,0,1,0-1.24A4.24,4.24,0,0,1,9.05,23a5.58,5.58,0,0,1,.71-.88,4,4,0,0,1,.9-.54c.41-.17.79.55,1.11,1.36.17.41.33.82.45,1.16s.31.58.26.67.06.13,0,.17.07,0,.09,0,0,0,.05,0a.07.07,0,0,1,0,.06c-.06.09-.11.35.18.8a.77.77,0,0,0,.67.36,3.06,3.06,0,0,0,.66-.17,2,2,0,0,0,1.5-1.23,1.28,1.28,0,0,0-.31-1.18,2.17,2.17,0,0,0-2-.77A1.9,1.9,0,0,0,12.05,24a2,2,0,0,1-.11.29.54.54,0,0,1-.26.19,1.45,1.45,0,0,1-.42,0,4,4,0,0,1-1.14-.32c-.23-.09-.45-.15-.66-.24a1.55,1.55,0,0,1-.79-.7A2,2,0,0,1,8.43,22l.15-.51c.08-.18.2-.37.3-.56a3.78,3.78,0,0,1,.84-1.05,7.73,7.73,0,0,1,1.1-.86,9.88,9.88,0,0,1,1.27-.61A7.07,7.07,0,0,1,14.83,18a8.27,8.27,0,0,1,2.52.55,6.73,6.73,0,0,1,1.57.84,8.34,8.34,0,0,0,.65.53,2.8,2.8,0,0,1,.63.55,7,7,0,0,1,1.58,2.72Z"/><path class="cls-1" d="M59.62,12.43a6.07,6.07,0,0,1-.4,1.46,5.86,5.86,0,0,1-.85,1.23,8.34,8.34,0,0,1-2.31,1.79,5,5,0,0,1-2.07.57c-2.69.12-4.81-2.9-4.85-4.82a8,8,0,0,1,0-1.47,3.47,3.47,0,0,1,.44-1.48A3.21,3.21,0,0,1,50.92,8.2a2.73,2.73,0,0,1,1.76-.31c.36.06.34.67.24,1.35s-.2,1.47-.24,1.65a.21.21,0,0,0,.1.3.37.37,0,0,1,.19.18,4.64,4.64,0,0,1,.18.45c0,.1,0,.22,0,.33s-.06.16-.07.27a.44.44,0,0,0,.24.49,1.53,1.53,0,0,0,.54.13,1.51,1.51,0,0,0,1.31-.63,1.06,1.06,0,0,0,.07-1.05,1.8,1.8,0,0,0-1.55-1.15c-.28,0-.55.12-.58.29,0,0,0,0,0,.06s0,0,0,0a.93.93,0,0,1-.07-.13s0,0,.15.11.17.11.27.14l.13.05,0,0a2.64,2.64,0,0,1-.49.18c-.4.09-.82.17-1.32.25l-.63.13a1.84,1.84,0,0,1-1-.14,3.62,3.62,0,0,1-.65-.33c-.27-.15-.3-.36-.41-.59a2.82,2.82,0,0,1-.17-1.19,4.08,4.08,0,0,1,.46-1.44,4.12,4.12,0,0,1,2.73-1.93,5.33,5.33,0,0,1,2.61.1,6.17,6.17,0,0,1,1,.39,4.47,4.47,0,0,1,.93.59c2,1.38,3.3,3.56,3,5.66Z"/><path class="cls-1" d="M87.71,23.27A5.39,5.39,0,0,1,85,24.56l-.41.05a1.5,1.5,0,0,1-.3,0c-.18,0-.34,0-.56,0a5.67,5.67,0,0,1-1.37-.31c-.18-.07-.38-.15-.6-.26a3.38,3.38,0,0,1-.63-.39A3.05,3.05,0,0,1,80,20.4a4.43,4.43,0,0,1,.5-1.23,10.84,10.84,0,0,1,1.23-1.66c.37-.42.66-.86,1-1.3a2.73,2.73,0,0,1,1.73-1.41c.33-.07.57.62.87,1.3s.72,1.35.65,1.57a7.27,7.27,0,0,1-1.34,2.41c-.19.18-.22.41-.17.46s0,0,0,0h-.31a2.21,2.21,0,0,0-.5.1.81.81,0,0,0-.33.14,1.4,1.4,0,0,0,.27-.61,3.09,3.09,0,0,0,.07-.44l.08,0,.15,0h0c-.05-.37.07.51.06.42h0V20.2s0-.05,0-.08a1.88,1.88,0,0,1-.09-.19l0,0a1,1,0,0,0,.56-.41,1.67,1.67,0,0,0,.37-1.29c0-.08-.08-.09-.13-.11s-.05,0-.08,0a.64.64,0,0,0,.12-.07c.21-.14.15-.18.08,0v0l0,.13a1.22,1.22,0,0,0-.06.26c0,.77-.1-.36-.35-1.42l-.19-.75a2.69,2.69,0,0,1-.05-1.2,2.6,2.6,0,0,1,.2-.66.85.85,0,0,1,.41-.44,2.74,2.74,0,0,1,.94-.27,3.29,3.29,0,0,1,.54-.05,4.92,4.92,0,0,1,.64.09,2.82,2.82,0,0,1,1.22.56,3.94,3.94,0,0,1,1,.95A5.35,5.35,0,0,1,90,19.24a7.25,7.25,0,0,1-2.14,4.12Z"/></g></svg>