<svg xmlns="http://www.w3.org/2000/svg" width="96" height="96" viewBox="0 0 96 96"><defs><style>.cls-1{fill:#231f20;}</style></defs><title>scribble final version</title><g id="Layer_1" data-name="Layer 1"><path class="cls-1" d="M25.74,28.27a3.75,3.75,0,0,1-.38,0l-.1,0c-.07,0-.19,0-.22.06s0,0-.07,0a.7.7,0,0,0-.15.27,4,4,0,0,0-.41,1.31,4.43,4.43,0,0,1-.09.72,24.86,24.86,0,0,0-.16,5.62,16.87,16.87,0,0,0,.38,2.55,32,32,0,0,1,.7,3.2c0,.34-.31.46-.8.33A2.38,2.38,0,0,1,23,41.19a22.23,22.23,0,0,1-1.33-3.33,14.7,14.7,0,0,1-.42-1.74,12.39,12.39,0,0,1-.07-1.83c0-1.46-.22-3,0-4.56a10.78,10.78,0,0,1,.32-1.62l.27-.83.21-.42c.08-.18.19-.35.26-.54a3.16,3.16,0,0,1,1-.95A3.9,3.9,0,0,1,24.5,25a7.11,7.11,0,0,1,1.85.07c.52.09,1,.2,1.52.31,1.49.33,2.87.84,4.28,1.21,1.08.3,2.21.39,3.29.59.24.06.47.09.7.17a2.84,2.84,0,0,1,.52.24,1.17,1.17,0,0,1,.28.39,1.88,1.88,0,0,1,.16.91,3.68,3.68,0,0,1,0,.47c0,.45-.54.84-1.34,1.11-.53,0-1.07,0-1.6,0a14.91,14.91,0,0,1-1.51-.29c-1-.24-2-.54-2.92-.84-.71-.22-1.4-.44-2.08-.63-.34-.1-.67-.18-1-.26s-.63-.07-.91-.08Z"/><path class="cls-1" d="M70.24,69.25a1.82,1.82,0,0,0,1.35-1.2,3.86,3.86,0,0,0,.11-.78,10.21,10.21,0,0,0-.06-1.71,11.17,11.17,0,0,0-.51-1.92,7,7,0,0,0-.36-.85l-.34-.88a5,5,0,0,1-.52-2.5c0-.29.23-.23.5-.06a5,5,0,0,1,1,.71,22.31,22.31,0,0,1,1.51,1.83,10.3,10.3,0,0,1,1,2.4c.12.53.31,1.07.44,1.65a6.43,6.43,0,0,1,.13.91,4.25,4.25,0,0,1,0,.94,5.25,5.25,0,0,1-.67,2,4.4,4.4,0,0,1-1.54,1.55,6.77,6.77,0,0,1-2.25.8,22,22,0,0,1-3.3.21,17.48,17.48,0,0,1-2.5.1c-.18,0-.36,0-.54,0-.66-.16-.82-.42-.8-1.15,0-.17,0-.33,0-.5a1.25,1.25,0,0,1,.91-1.07c.36-.09.71-.19,1.06-.26l.51-.12a2.78,2.78,0,0,1,.5,0l1.92.14a5.3,5.3,0,0,0,2.49-.27Z"/><path class="cls-1" d="M17,31.22l0-1,0-1.4a20.08,20.08,0,0,1,.21-3.15,8.12,8.12,0,0,1,.89-2.65,5.07,5.07,0,0,1,1.74-1.89A5.54,5.54,0,0,1,22,20.51a5.89,5.89,0,0,1,1.5.08c.64.19,1.25.33,1.87.57s1.23.52,1.82.79l.88.41.53.29,1,.56c1.33.76,2.68,1.43,4,2.18a21.39,21.39,0,0,0,3.63,1.5,22.76,22.76,0,0,1,4.64,1.61c.45.27.25,1.27-.39,2.22a3.49,3.49,0,0,1-2.84,1.76,29.48,29.48,0,0,1-5.42-1.2,23.76,23.76,0,0,1-2.52-1A25.4,25.4,0,0,1,28.35,29a11.1,11.1,0,0,0-1.4-.75l-.72-.31-.18-.07-.06,0-.12,0a8.19,8.19,0,0,1-1-.38c-.19,0-.45-.17-.66-.07a.84.84,0,0,0-.37.46,4.85,4.85,0,0,0-.3,1.38c0,.08,0,.56,0,.86l0,1c0,.69.09,1.39.18,2.08a34.72,34.72,0,0,0,1.17,6.31,14.26,14.26,0,0,0,1,2.27l1,2.22c.14.32.33.62.45,1,.43,1.23.2,1.76-1,2.59-.28.2-.55.41-.83.57a2.24,2.24,0,0,1-2.87-.44,20.85,20.85,0,0,1-3-4.1A29.23,29.23,0,0,1,18,38.76a52,52,0,0,1-1.16-7.51Z"/><path class="cls-1" d="M69.28,68.69c.51,0,1,0,1.48,0h.18c.07,0,0,0,0,0s.05,0,.07,0l.18,0a1,1,0,0,0,.86-.14c.1-.19-.13-.42-.1-.61v-.3a.62.62,0,0,0,0-.18L71.82,67c-.22-.71-.46-1.45-.71-2.18-.49-1.48-1.08-2.93-1.56-4.45-.45-1.34-1-2.63-1.6-3.93-.72-1.67-1.6-3.4-1.39-5.52.08-.68,1.11-.63,2.22-.37s2.35.64,2.76,1.41l2.37,4.41q.6,1.16,1.14,2.37c.32.83.59,1.7.85,2.6a17,17,0,0,0,1.29,3.12c.14.29.2.44.46.92a12.05,12.05,0,0,1,.58,1.28c.18.44.33.87.48,1.31A7.7,7.7,0,0,1,79,69.28a4.66,4.66,0,0,1-.38,2.61,5.1,5.1,0,0,1-1.91,1.89,9.31,9.31,0,0,1-2.64,1c-.46.13-1,.18-1.41.27l-.7.08a4.73,4.73,0,0,1-.52,0A28.88,28.88,0,0,1,66.48,75a43.24,43.24,0,0,1-7.16-1.54c-.91-.26-1.83-.47-2.77-.72a18.2,18.2,0,0,1-2.69-1.08,9,9,0,0,1-1.14-.61c-1.32-1-1.43-1.67-.73-3a8.2,8.2,0,0,1,.5-.87,2.6,2.6,0,0,1,2.63-1.07c1.45.28,2.84.46,4.19.66s2.57.7,3.91,1a27.57,27.57,0,0,0,6,.73Z"/><path class="cls-1" d="M58.07,42.48c-3.59,3.45-7.17,6.91-10.7,10.43-1.28,1.29-2.4,2.72-3.7,4l-3.43,3.36-3.51,3.29c-2.34,2.21-4.65,4.43-6.91,6.7-2,2-3.89,4.16-5.7,6.31C23,78,21.85,79.39,20.67,80.76a45.65,45.65,0,0,1-4,3.68c-.87.7-1.57.06-1.85-1.37a8.94,8.94,0,0,1,.84-5.62A124.63,124.63,0,0,1,30.45,60.63a63,63,0,0,0,4.65-5c1.53-1.71,3-3.46,4.61-5.12,3.47-3.64,7-7.22,10.55-10.81l6.53-6.61c3.27-3.36,6.66-6.64,9.78-10.1,2.45-2.67,4.5-5.63,6.79-8.44.5-.62,1-1.25,1.53-1.83,2.12-2.1,3.19-2.37,5-1.34a10.91,10.91,0,0,1,1.25.71c1.26.93,1.29,2.7.16,4.56l-1.31,2a23.27,23.27,0,0,1-1.4,2c-1,1.28-2,2.54-3.1,3.81-2.15,2.49-4.44,4.93-6.77,7.36-3.45,3.6-7,7.11-10.54,10.7Z"/></g></svg>