<svg xmlns="http://www.w3.org/2000/svg" width="96" height="96" viewBox="0 0 96 96"><defs><style>.cls-1{fill:#231f20;}</style></defs><title>scribble final version</title><g id="Layer_1" data-name="Layer 1"><path class="cls-1" d="M38.85,61.25a8.36,8.36,0,0,0-.64,4,9.74,9.74,0,0,0,1.49,4.09A16.78,16.78,0,0,0,42,72a34.22,34.22,0,0,0,11,7.51,38.59,38.59,0,0,0,5.75,2c1.25.34,2.54.53,3.79.82s2.52.68,3.8,1c.8.18.72.5,0,1a8.33,8.33,0,0,1-1.53.76,7.29,7.29,0,0,1-2.24.54c-.36,0-.73,0-1.09,0l-1.07-.12c-.71-.07-1.41-.21-2.12-.32a39.35,39.35,0,0,1-4.16-1,35.91,35.91,0,0,1-7.74-3.69c-2.87-1.88-6.05-3.66-8.53-6.44a17.65,17.65,0,0,1-3.3-5.24,12.21,12.21,0,0,1-.7-6.36l.17-1,.29-.93A12.13,12.13,0,0,1,35,58.69a10,10,0,0,1,2.43-3.19,12.24,12.24,0,0,1,5.17-2.63,15.38,15.38,0,0,1,5.6-.35,21.34,21.34,0,0,1,8.14,2.42,10.85,10.85,0,0,1,1.62.94c1.89,1.38,2,2.36,1.71,3.35a5.29,5.29,0,0,1-.21.67c-.17.31-.51.43-1,.42a3.84,3.84,0,0,1-1.83-.48c-.49-.25-1.05-.4-1.51-.67a12.76,12.76,0,0,0-1.45-.68,13.11,13.11,0,0,0-1.46-.59c-.5-.15-1-.38-1.47-.48A13.73,13.73,0,0,0,44.87,57a9,9,0,0,0-3.72,1.43c-.13.1-.28.18-.39.28l-.34.31a4,4,0,0,0-.59.65,5.27,5.27,0,0,0-.46.7c-.14.27-.26.64-.4.95Z"/><path class="cls-1" d="M37.3,52.26A11.56,11.56,0,0,1,41,50.6a12.92,12.92,0,0,1,3.87-.34,20.3,20.3,0,0,1,6.69,1.67,39.14,39.14,0,0,1,5.6,3l1.23.8.28.21.57.46a4,4,0,0,0,.43.32c.14.08.29.25.42.19,0-.37-.1-.69-.13-1s-.09-.57-.14-.91c0,0-.2-.85-.31-1.46s-.27-1.32-.36-2S59,50.08,59,49.37c0-.38,0-.76,0-1.14a6.7,6.7,0,0,1,.09-1.16,9.61,9.61,0,0,1,1.76-4.61c.26-.33.52-.68.8-1l.92-.82a6.11,6.11,0,0,1,1-.71c.35-.2.68-.42,1-.61a9.06,9.06,0,0,1,5-.82,10.22,10.22,0,0,1,4.4,1.77,14,14,0,0,1,3.15,3,21,21,0,0,1,3.57,6.5,27.38,27.38,0,0,1,1.21,7.09A44,44,0,0,1,78.08,74c-.69,1.65-1.29,1.21-1.63-.45a28.74,28.74,0,0,1-.19-7.69,38.24,38.24,0,0,0,.19-8c-.07-.64-.13-1.27-.17-1.9s-.13-1.25-.24-1.86l-.17-.91-.23-.89a6.25,6.25,0,0,0-.24-.82,4.93,4.93,0,0,0-.29-.78,14.82,14.82,0,0,0-3.92-5.5,5.42,5.42,0,0,0-2.31-1.29,3.46,3.46,0,0,0-2.32.33,4.08,4.08,0,0,0-2.21,2.37,8.69,8.69,0,0,0-.15,4.15c.11.79.3,1.61.5,2.44l1,4.07c.14.69.34,1.43.44,2.09s.21,1.31.24,1.89a15.42,15.42,0,0,1-.06,1.56A8.62,8.62,0,0,1,66,63.91l-.29.5c-.06.09-.06.17-.17.26a.79.79,0,0,1-.33.11,4.38,4.38,0,0,1-1.08,0A7,7,0,0,1,61,63.56c-1.34-.9-2.69-1.94-4-2.81l-1-.64-.69-.44-1.2-.74a32,32,0,0,0-5-2.43,13.74,13.74,0,0,0-5-1,6.9,6.9,0,0,0-2.74.59,6.13,6.13,0,0,0-1.21.7l-1.24,1A9.24,9.24,0,0,0,35.87,63c-.58,2.92.52,6.22,2.57,8.88a24.07,24.07,0,0,0,7.85,6.56C51.05,81,56.4,82,61.76,82.58c1.18.12,2.35.15,3.55.24,4.45.31,5.88.69,6.85,2a6.41,6.41,0,0,1,.65.91c.44,1-1.45,1.89-4.94,2.15a49.87,49.87,0,0,1-16-1.64A35.71,35.71,0,0,1,36.63,78a23.73,23.73,0,0,1-4.32-5.49,16.76,16.76,0,0,1-2.17-7.24,13.67,13.67,0,0,1,2-7.7,15.83,15.83,0,0,1,2.33-3l.64-.66.69-.58c.49-.38.86-.74,1.44-1.14Z"/><path class="cls-1" d="M42.33,30.76c.35,0,.22.45-.09,1.31a3.1,3.1,0,0,1-.71,1,3.63,3.63,0,0,1-.82.2,17.65,17.65,0,0,1-2.45-1,5.17,5.17,0,0,1-1.39-.95c-.82-.73-1.63-1.4-2.41-2a1.52,1.52,0,0,1-.4-.53,3.47,3.47,0,0,0-1.57-1.53.38.38,0,0,0-.39-.06,5.3,5.3,0,0,1-2-1c-.31-.61-.8-.86-1.16-1.52-.06-.08-.16-.05-.15-.3,0-.56-.19-.57-.35-.69a3.49,3.49,0,0,1-.68-.57,3.12,3.12,0,0,1-.26-.66,1.73,1.73,0,0,1,.18-.92c.18-.17.15-.51.19-.79,0-.09,0-.21.06-.28a4.45,4.45,0,0,1,1.18-.56,4.92,4.92,0,0,1,1.4-.37l.53.05a3.69,3.69,0,0,1,.53.07,4.23,4.23,0,0,1,.57.19c.8.25,1.55.64,1.73.69s.27.25.37.42.58.33,1.13.63a12.74,12.74,0,0,1,1.08.68c.33.36.79.57.85,1.21,0,.12.09.17.16.23a9,9,0,0,1,1.47,1.85,8.93,8.93,0,0,0,.76.87c0,.05,0,.14.07.21a.82.82,0,0,0,.1.25,15.31,15.31,0,0,0,1.7,1.93c.15.11.47,1.07.66,1.15S42.19,30.78,42.33,30.76Z"/><path class="cls-1" d="M34.57,44.19c.38,0,.33.54,0,1.31a2.58,2.58,0,0,1-.74.86,6.48,6.48,0,0,1-.77.15c-.13,0-1.73-.59-2.29-.68a6.71,6.71,0,0,1-1.49-.52,20.49,20.49,0,0,0-2.89-1,1.51,1.51,0,0,1-.61-.3,3.8,3.8,0,0,0-2.21-.71c-.13,0-.26,0-.42.11a3.14,3.14,0,0,1-1.31.1,3.63,3.63,0,0,1-1.31-.25,12.53,12.53,0,0,0-2-1c-.1,0-.21,0-.29-.2-.2-.5-.43-.43-.66-.47a3.24,3.24,0,0,1-.94-.31c-.16-.08-.31-.36-.47-.58a1.8,1.8,0,0,1,0-1c.14-.23,0-.57,0-.87,0-.1,0-.23,0-.31a7.53,7.53,0,0,1,2.23-1.42l.5,0c.29,0,.68-.06,1.08-.09.8-.08,1.65-.1,1.83-.13s.35.1.52.19l1.31.11c.64.07,1.28.16,1.33.17.47.2,1,.21,1.39.76.07.12.17.13.27.16a9.15,9.15,0,0,1,2.35,1.2c.38.25.81.38,1.19.61.07,0,.11.13.17.19a1.19,1.19,0,0,0,.23.22c.93.48,1.7,1.21,2.6,1.69.22.12.88,1.12,1.1,1.25S34.41,44.18,34.57,44.19Z"/><path class="cls-1" d="M62.41,30.11c.29.23,0,.62-.57,1.14a1.78,1.78,0,0,1-.94.38,3.72,3.72,0,0,1-.74-.39,13.71,13.71,0,0,1-1.64-2.74,6.86,6.86,0,0,1-.65-2.17,24.28,24.28,0,0,1-.21-4.5,2.26,2.26,0,0,1,.23-1,17.58,17.58,0,0,0,1-3.13.7.7,0,0,0,0-.57c-.24-.4.85-3.14,1.15-3.41.69-.71,1.4-1.38,2.1-2,.1-.09.11-.25.36-.24a1.16,1.16,0,0,0,.93-.43,6.85,6.85,0,0,1,1-.71,2.67,2.67,0,0,1,.74-.19c.23-.05.6.29.63.37.05.23.34.25.52.35a1,1,0,0,1,.2.12c.05,0,.08.67.19,1.37s.35,1.45.24,1.52-.84,2.86-.89,3.16-.2.28-.34.4-.51,2.28-.53,2.35c-.22.41-.15.89-.71,1.19a.31.31,0,0,0-.14.25A3.44,3.44,0,0,1,64,22.33c-.18.35-.33.71-.5,1.07a6.77,6.77,0,0,0-.28,1.14c0,.07-.09.14-.13.21A.58.58,0,0,0,63,25a8.56,8.56,0,0,0-.19,2.75,3.86,3.86,0,0,1-.11.75,2.62,2.62,0,0,0,0,.78,1.29,1.29,0,0,1-.16.43C62.41,29.89,62.35,30.06,62.41,30.11Z"/></g></svg>