<svg xmlns="http://www.w3.org/2000/svg" width="96" height="96" viewBox="0 0 96 96"><defs><style>.cls-1{fill:#231f20;}</style></defs><title>scribble final version</title><g id="Layer_1" data-name="Layer 1"><path class="cls-1" d="M40.44,49.13s5.18,1.58,5.86,4.46c.64,2.69-4.2,3.93-4.2,3.93s8.4.92,8.51-2.34-2.94-6.49-5.14-6.33S40.44,49.13,40.44,49.13Z"/><path class="cls-1" d="M41.32,50.93a13.37,13.37,0,0,0-5.27.18,10.24,10.24,0,0,0-4.42,2.24l-.3.3-.13.15s0,.05,0,.08a2.58,2.58,0,0,0-.2.43,12.11,12.11,0,0,0-.34,1.54,30.15,30.15,0,0,0-.16,7.35A61.48,61.48,0,0,0,31.68,71a48.73,48.73,0,0,0,2,6.76c.52,1.4,1.14,2.77,1.73,4.12l.44,1L36.2,84c.21.71.43,1.41.67,2.1.28.85-.3,1.21-1.49,1a7.21,7.21,0,0,1-2.1-.83,7.29,7.29,0,0,1-1.13-.77c-.19-.15-.34-.32-.53-.47a6,6,0,0,1-.37-.6,55.57,55.57,0,0,1-3.67-9.07,47,47,0,0,1-1.8-9.63c-.16-2-.4-4-.52-6.05a28.54,28.54,0,0,1,0-3.21A13.63,13.63,0,0,1,26,53a8,8,0,0,1,1.12-2l.41-.49.36-.34a7.26,7.26,0,0,1,.74-.63,13.64,13.64,0,0,1,3.24-1.89,19.75,19.75,0,0,1,6.94-1.4A17.82,17.82,0,0,1,47.18,48a8.9,8.9,0,0,1,5,6,5.49,5.49,0,0,1,.09.9c0,.3-.06.6-.08.9s-.23.56-.36.83l-.52.73-.66.62a5.66,5.66,0,0,1-.74.5,9.62,9.62,0,0,1-1.34.64,18.08,18.08,0,0,1-4.85,1c-.8.1-1.58.07-2.38.1s-1.59,0-2.37-.11-1.37-.08-2-.21-1.16-.23-1.59-.35a4.42,4.42,0,0,1-1-.49,2.13,2.13,0,0,1-.92-1.23,3.86,3.86,0,0,1-.2-.64c-.08-.64,1.07-1,2.85-1a44.43,44.43,0,0,0,7.74,0,12.47,12.47,0,0,0,3.33-.75c.22-.1.4-.21.6-.3s.13-.09.14-.1h0c-.09,0,0,.07,0,0a1.62,1.62,0,0,0-.1-.18,3.53,3.53,0,0,0-.21-.32c-.18-.2-.3-.44-.48-.65a5.66,5.66,0,0,0-1.43-1.23A10.82,10.82,0,0,0,41.31,51Z"/><path class="cls-1" d="M38.5,17.52c.12-.53.24-1.05.38-1.58l.14-.55a5.47,5.47,0,0,1,.16-.7l.41-1.39c.24-.94.64-1.77.94-2.64l.61-1.09.3-.54.33-.43a6.4,6.4,0,0,1,2.78-2.34,4.88,4.88,0,0,1,1.7-.43,2.83,2.83,0,0,1,1,.12,4.05,4.05,0,0,1,.81.38A6.12,6.12,0,0,1,49.74,8a8.68,8.68,0,0,1,1.16,2.85,23.86,23.86,0,0,1,.49,3.29c0,.57.08,1.14.1,1.71s0,1.21,0,1.46c0,1.36,0,2.71-.11,4.06-.14,2.68-.34,5.34-.71,8-.27,2.35-.55,4.71-.82,7a26.38,26.38,0,0,1-2.25,8.84c-.45.87-1,.52-1.42-.41a9.55,9.55,0,0,1-.92-4.12c.05-.73,0-1.47.1-2.2l.17-2.19.28-4.42c.09-1.47.18-3,.26-4.43s.29-3,.43-4.44a31.4,31.4,0,0,0,.05-5.4L46.54,17l0-.45-.12-.94A3,3,0,0,0,46,14.45a.44.44,0,0,0-.5-.19,1,1,0,0,0-.42.28A6,6,0,0,0,44,16.61a4.11,4.11,0,0,0-.15.42l-.27.86c-.17.59-.35,1.17-.5,1.77-.33,1.19-.59,2.41-.81,3.63A75.62,75.62,0,0,0,41,34.51a55.38,55.38,0,0,0,.59,8.58c.08.62.22,1.21.29,1.83a8.45,8.45,0,0,1-.15,2.47,2.88,2.88,0,0,1-.86,1.28,5.16,5.16,0,0,1-.51.46c-.29.19-.61.07-1-.31A5.12,5.12,0,0,1,38,46.91,16,16,0,0,1,37,42.85c-.2-1.38-.36-2.79-.44-4.19a67,67,0,0,1,.08-8.5q.23-3.16.69-6.32c.16-1.06.34-2.11.53-3.16s.35-2.12.56-3.18Z"/><path class="cls-1" d="M64.2,23.08c.25-.84.47-1.69.66-2.52s.41-1.63.54-2.42l0-.29,0-.18a.74.74,0,0,0,0-.14,1.39,1.39,0,0,0,0-.3,1.2,1.2,0,0,0-.17-.67.35.35,0,0,0-.43-.18,3,3,0,0,0-.38.3,2.16,2.16,0,0,0-.31.3,1.37,1.37,0,0,0-.18.21l-.06.07-.1.18-.22.37c-.57,1-1.08,2-1.66,3.07-1.12,2.08-2.15,4.25-3.09,6.46-.83,2-1.46,4-2.14,6-.41,1.29-.76,2.6-1.14,3.89l-.58,1.92c-.17.62-.53,1.23-.72,1.79-.13.34-.32.37-.58.44s-.63-.07-1-.51a7.17,7.17,0,0,1-1.08-1.8,4.78,4.78,0,0,1-.25-2.38c.22-1.46.5-2.89.82-4.3a26,26,0,0,1,1.2-4.16,57.93,57.93,0,0,1,3.62-7.91c.43-.76.84-1.55,1.24-2.34l1.34-2.38L60,15c.18-.29.35-.58.56-.88.4-.6.82-1.16,1.24-1.7a6.76,6.76,0,0,1,2.85-2.17,2.73,2.73,0,0,1,1.85,0c.29.15.58.29.87.45l.78.55A7.11,7.11,0,0,1,70,14.8a10.44,10.44,0,0,1,.24,2.2,6,6,0,0,1,0,1c0,.27,0,.55-.06.8a19.68,19.68,0,0,1-.53,3,56.11,56.11,0,0,1-2.35,6.91c-1.35,3.38-3,6.61-4.56,9.81-1.23,2.49-2.31,5-3.6,7.46-.29.54-.55,1.09-.88,1.62a5.52,5.52,0,0,1-1.59,1.89,2.34,2.34,0,0,1-1.57.17,4.42,4.42,0,0,1-.69-.14c-.33-.13-.47-.46-.5-1a3.48,3.48,0,0,1,.38-1.92l3.08-6.54c1-2.24,2-4.52,3-6.81a81.41,81.41,0,0,0,3.68-10.3Z"/><path class="cls-1" d="M59.12,69a60.06,60.06,0,0,1-6.55,7.08,23.84,23.84,0,0,1-2.7,2.37,15.05,15.05,0,0,1-2.93,1.68,8,8,0,0,1-1.81.54,4.72,4.72,0,0,1-2.22-.12l-.57-.2c-.17-.09-.34-.2-.5-.3a3.63,3.63,0,0,1-.88-.78,4.51,4.51,0,0,1-.61-1,6.89,6.89,0,0,1-.3-1,7.08,7.08,0,0,1,.39-3.55A20.16,20.16,0,0,1,43,68.79a18,18,0,0,1,4.79-4.89c.6-.4.9.09.89.93a5.51,5.51,0,0,1-1,3c-.34.42-.62.87-.93,1.3-.16.22-.3.44-.43.66l-.46.63A21.34,21.34,0,0,0,44.37,73a8.86,8.86,0,0,0-.92,2.51,4,4,0,0,0-.08,1c.05.22.05.41.14.51s.05.07.09.11a.16.16,0,0,0,.12.08s.06.06.13.06a.65.65,0,0,1,.2,0,3.31,3.31,0,0,0,1.3-.44,15.58,15.58,0,0,0,2.91-2.23A41.8,41.8,0,0,0,54,68a47.43,47.43,0,0,0,2.94-4.62c.66-1.2,1.32-2.41,1.85-3.65.14-.31.25-.63.37-.94.06-.15.12-.31.17-.47l.12-.37a5.42,5.42,0,0,0,.26-1.18,1.31,1.31,0,0,0-.61-1.46c-.5-.27-1.14.11-1.5.39-.18.14-.33.33-.46.43a.65.65,0,0,1-.34.16s-.26,0-.38,0a2.16,2.16,0,0,1-.44,0,1.89,1.89,0,0,1-.79-.26,4,4,0,0,1-.73-.7,4.24,4.24,0,0,1-.52-.71,2.86,2.86,0,0,1-.18-1.39,2,2,0,0,1,.16-.8,2.81,2.81,0,0,1,.2-.38l.12-.19.07-.1c0-.09,0-.09,0-.1l0,0,.08-.08A22.24,22.24,0,0,1,56.52,50a6.62,6.62,0,0,1,2.33-.93A6.44,6.44,0,0,1,60,49h.58l.55.12a6,6,0,0,1,2.12,1l.85,1a4.93,4.93,0,0,1,.67,1.07c.17.39.27.82.42,1.24s.12.92.18,1.38,0,1-.05,1.49A9.47,9.47,0,0,1,65,57.81a11.2,11.2,0,0,1-.43,1.55l-.2.6c-.05.15-.1.3-.16.44a36.41,36.41,0,0,1-5,8.66Z"/><path class="cls-1" d="M64.2,72.46a51.68,51.68,0,0,1-4.63,5.26c-.63.58-1.18,1.22-1.86,1.75A28.74,28.74,0,0,1,53.9,82a16.32,16.32,0,0,1-2.16,1,8,8,0,0,1-2.47.56A4.72,4.72,0,0,1,46.86,83a3.13,3.13,0,0,1-1.7-2.1,3.28,3.28,0,0,1,.21-1.8,4.11,4.11,0,0,1,.83-1.28,7.59,7.59,0,0,1,2-1.61c.47-.24.7.14.74.81a6.14,6.14,0,0,1-.32,2.36,3.77,3.77,0,0,0-.26.8c0,.1,0,0,0,.06l0,0s-.06,0,.16.12a1.55,1.55,0,0,0,1.09.16,3.37,3.37,0,0,0,.87-.22c.3-.16.61-.27.92-.46a15.22,15.22,0,0,0,4-3.8c1.33-1.61,2.77-3.17,4-4.92a33.39,33.39,0,0,0,2.11-3.29,16.78,16.78,0,0,0,2.11-5.27,2.83,2.83,0,0,0-.19-1.73.41.41,0,0,0-.16-.21.12.12,0,0,0-.15,0s0,0,0,0l0,0,.22-.18,0,0,.12-.09c.07,0,.16-.16.2-.19a.76.76,0,0,0,.11-.14c.1-.14,0-.11,0,.18a2.85,2.85,0,0,0,0,.59c0,.13,0,.26,0,.39v.07h0l-.22.05a2.5,2.5,0,0,1-1.28,0,2.55,2.55,0,0,1-1.06-.94c-.16-.22-.33-.42-.46-.63a1.71,1.71,0,0,1-.19-1.18,2.38,2.38,0,0,1,.63-1.32,5.24,5.24,0,0,1,1.11-1,3.26,3.26,0,0,1,2.87-.34,4.32,4.32,0,0,1,1.76,1q.17.15.3.3c.09.1.15.18.22.27l.39.56a5.29,5.29,0,0,1,.52,1.12,4.77,4.77,0,0,1,.28,1,9.05,9.05,0,0,1-.06,3.36,15.14,15.14,0,0,1-.75,2.64,30.46,30.46,0,0,1-3.62,6.39Z"/></g></svg>