<svg xmlns="http://www.w3.org/2000/svg" width="96" height="96" viewBox="0 0 96 96"><defs><style>.cls-1{fill:#231f20;}</style></defs><title>scribble final version</title><g id="Layer_1" data-name="Layer 1"><path class="cls-1" d="M18.09,27a1.79,1.79,0,0,0-.25.84,1,1,0,0,0,.22.8,5.29,5.29,0,0,0,3,1.76,6.36,6.36,0,0,0,2.68-.12A5.88,5.88,0,0,0,26,29.34a6.11,6.11,0,0,0,2.56-4.47,6.32,6.32,0,0,0-.43-2.76,8.77,8.77,0,0,0-3.61-4,16.19,16.19,0,0,0-3.34-1.47c-.65-.23-1.21-.46-1.76-.62a3.75,3.75,0,0,0-1.38-.2.58.58,0,0,1-.55-.21.87.87,0,0,1,0-1,2.75,2.75,0,0,1,1.74-1.08,5.3,5.3,0,0,1,2.41,0c.59.14,1.37.33,2.07.57a15.9,15.9,0,0,1,2.11.87,13.34,13.34,0,0,1,3.81,2.8,10.81,10.81,0,0,1,2.53,4.37,9.22,9.22,0,0,1,0,5.18,11.58,11.58,0,0,1-3.19,5.24,9.75,9.75,0,0,1-5.64,2.68c-.28,0-.57.06-.86.07l-.86,0a8.59,8.59,0,0,1-1.69-.22,11.16,11.16,0,0,1-3.13-1.21,8.61,8.61,0,0,1-2.7-2.34,6.21,6.21,0,0,1-1.24-3.72,6.65,6.65,0,0,1,1.67-4.24,6.9,6.9,0,0,1,3.78-2.21,6.07,6.07,0,0,1,3.35.27,6.42,6.42,0,0,1,2.65,1.93,10.52,10.52,0,0,1,2.12,5.45,12,12,0,0,1-.27,4.53,8.26,8.26,0,0,1-2.47,4.09A6.32,6.32,0,0,1,22,38.89a5.32,5.32,0,0,1-2.46.68,1.93,1.93,0,0,1-.75-.16,3.69,3.69,0,0,1-.63-.47,5.82,5.82,0,0,1-.48-.41c-.35-.33.14-1.58,1.22-2.52a9.69,9.69,0,0,0,1-1.17c.29-.39.59-.7.79-1a4.72,4.72,0,0,0,.48-1,10,10,0,0,0,.33-1,7.71,7.71,0,0,0,.18-1.12,6.72,6.72,0,0,0,0-1.18,6.94,6.94,0,0,0-.58-2.3,3,3,0,0,0-.69-1,1.05,1.05,0,0,0-.72-.21,1.81,1.81,0,0,0-1.49,1Z"/><path class="cls-1" d="M36.78,67.49a4.69,4.69,0,0,0-1.6,3.06,1.19,1.19,0,0,0,.45,1l.12.13.18.11.37.25c.31.1.66.31.93.38a2.27,2.27,0,0,0,2-.34A5.14,5.14,0,0,0,40.9,70a7.61,7.61,0,0,0,.74-3,10.79,10.79,0,0,0-1.81-6.44,14,14,0,0,0-4.68-4.25,15.41,15.41,0,0,0-7.91-2.22c-.86,0-.85-.22-.12-.68a6.84,6.84,0,0,1,4.12-.85,18.3,18.3,0,0,1,9,3.62A13.29,13.29,0,0,1,43.68,60a13.66,13.66,0,0,1,1.8,4.92,13.08,13.08,0,0,1-.64,6.51,11.06,11.06,0,0,1-1.67,3A7,7,0,0,1,40,76.74a6.72,6.72,0,0,1-4.28-.06,8.54,8.54,0,0,1-3.41-2.05,5.94,5.94,0,0,1-1.67-4,7.43,7.43,0,0,1,1-3.79,10.78,10.78,0,0,1,2.91-3.3,10.37,10.37,0,0,1,4-1.84,10.22,10.22,0,0,1,6.4.71,11.93,11.93,0,0,1,4.85,4,15.23,15.23,0,0,1,2.94,9.09,9,9,0,0,1-.12,2.08c-.54,2.51-1.14,3.15-2.33,3.35a4.76,4.76,0,0,1-.77.13c-.78,0-1.27-1.14-1.28-2.79,0-.61,0-1.22-.1-1.81s0-1.15-.07-1.71a13.84,13.84,0,0,0-.51-3.12,8.89,8.89,0,0,0-3.31-4.73A6.55,6.55,0,0,0,42.36,66a5.87,5.87,0,0,0-2-.15,5.57,5.57,0,0,0-3.51,1.74Z"/><path class="cls-1" d="M64.57,38.8a5.33,5.33,0,0,1,3.91-3.11,6.56,6.56,0,0,1,2.54,0,8.31,8.31,0,0,1,1.9.63,12.3,12.3,0,0,1,2.94,1.94,12.69,12.69,0,0,1,2.29,2.59,9.28,9.28,0,0,1,1.77,5.06,7.2,7.2,0,0,1-1.7,4.71,10.48,10.48,0,0,1-3.5,2.67,15,15,0,0,1-8,1.6A14,14,0,0,1,60,52.62a14.14,14.14,0,0,1-5.54-6.75c-.35-.84.3-1,1.26-.72a8.53,8.53,0,0,1,3.2,2,12.14,12.14,0,0,0,5.88,3.53,10.79,10.79,0,0,0,3.32.36,12.2,12.2,0,0,0,3.44-.6A7.07,7.07,0,0,0,75,48.16,3.38,3.38,0,0,0,75.53,45,7.51,7.51,0,0,0,73,41.34,7.93,7.93,0,0,0,71,40.11a5,5,0,0,0-.92-.27,1.49,1.49,0,0,0-.63,0,1.22,1.22,0,0,0-1,1.16,1.8,1.8,0,0,0,.89,1.61c2.13,1.6,5.91.84,8.1-1.2a5.63,5.63,0,0,0,1.65-5.89c-.13-.44-.36-.83-.49-1.28a7.31,7.31,0,0,1-.55-1.88,4.65,4.65,0,0,1,.46-1.52c.12-.22.2-.47.31-.65s.55-.38,1.11-.25a3.25,3.25,0,0,1,2,1.22,8.76,8.76,0,0,1,.67.9,9.8,9.8,0,0,1,.6,1A8.75,8.75,0,0,1,84,35.39a9.6,9.6,0,0,1-.49,5.14,11.82,11.82,0,0,1-7.27,6.75,12,12,0,0,1-3.76.68,9.6,9.6,0,0,1-4-.8A8.53,8.53,0,0,1,66.57,46a6.52,6.52,0,0,1-1.7-2,6.19,6.19,0,0,1-.4-5.3Z"/></g></svg>