<svg xmlns="http://www.w3.org/2000/svg" width="96" height="96" viewBox="0 0 96 96"><defs><style>.cls-1{fill:#231f20;}</style></defs><title>scribble final version</title><g id="Layer_1" data-name="Layer 1"><path class="cls-1" d="M27,69.86c0-.29,1.91,9,5.2,2.83,1-1.86-2.29,8-2.29,8S26.67,75.57,27,69.86Z"/><path class="cls-1" d="M70.86,35.51,65.8,40.19c-.61.57-1.18,1.18-1.8,1.74l-6.61,5.89c-1,.86-1.93,1.78-2.89,2.66a25,25,0,0,1-1.88,1.68c-.34.25-.69.48-1,.71s-.76.42-1.13.63-.5,0-.3-.42a12.34,12.34,0,0,1,1.14-2c1.1-1.25,2.39-2.34,3.59-3.53s2.46-2.32,3.75-3.44c1.53-1.35,2.94-2.95,4.4-4.44l4.83-4.92c1-1,2-2,2.94-3,1.46-1.56,3-3.1,4.32-4.73a41.38,41.38,0,0,0,2.81-4c.19-.3.36-.61.56-.9.34-.52.6-.84.94-1a7.5,7.5,0,0,1,1.09.1c.21,0,.43,0,.61,0s.51.2.65.62a2.13,2.13,0,0,1,.06.79,1.79,1.79,0,0,1-.23.73,32.76,32.76,0,0,1-5.72,7.33c-1.62,1.66-3.31,3.26-5,4.88Z"/><path class="cls-1" d="M54.07,64.23c1.27.27,2.51.62,3.74,1,.45.13.91.23,1.36.39a32.17,32.17,0,0,1,4.49,2.1c.64.37,1.3.69,1.94,1a7.72,7.72,0,0,1,1.21.77,5.19,5.19,0,0,1,.88,1.18c.15.27-.09.44-.52.55a3.78,3.78,0,0,1-1.55.1,1.48,1.48,0,0,1-.57-.26l-.52-.34-1.11-.65-2.28-1.3a14,14,0,0,0-3.09-1.09c-1.16-.35-2.34-.64-3.53-.9-.74-.14-1.48-.28-2.23-.38l-1.7-.19c-.57,0-1.14-.07-1.71-.07a17.46,17.46,0,0,0-2.61.38c-.19,0-.38.1-.57.13-.71,0-1-.16-1.15-.86,0-.15-.1-.29-.13-.42a1.1,1.1,0,0,1,.7-1.21,7.32,7.32,0,0,1,2.49-.55,17.36,17.36,0,0,1,2.6,0,33.59,33.59,0,0,1,3.87.51Z"/><path class="cls-1" d="M61.16,46.8,48,57.12c-1.6,1.26-3.12,2.59-4.73,3.84a24.19,24.19,0,0,0-4,3.51,9.45,9.45,0,0,1-1,.91c-.11.1-.13.11-.16.12a.47.47,0,0,0-.09.1c-.1.13-.22.27-.32.42-.43.6-.76,1.34-1.18,2a37.08,37.08,0,0,0-2.15,4.68l-.24.61-.28.78L33.12,76c-.44,1.23-.84,2.46-1.27,3.39a8.21,8.21,0,0,1-1.12,1.79,1.37,1.37,0,0,1-.68.51h-.16c0,.13,0,0,0,.07h0l0,0-.08,0a2.33,2.33,0,0,1-.28-.11,2.2,2.2,0,0,1-.5-.34c-.16-.13-.29-.26-.43-.38a5.9,5.9,0,0,1-.37-.47,7.85,7.85,0,0,1-.63-1A10,10,0,0,1,27,78.29q-.22-.67-.48-1.35c-.2-.61-.32-1.34-.52-2l-.26-1.1c-.1-.34-.17-.83-.22-1l-.29-1.52A8.34,8.34,0,0,1,25,69.8l-.22-2.92a10.68,10.68,0,0,1-.05-1.38,7.63,7.63,0,0,0-.1-1.17c0-.21,0-.31,0-.44a.64.64,0,0,1,.15-.4,1.15,1.15,0,0,1,1.44-.14,7.19,7.19,0,0,1,2.33,2A7.65,7.65,0,0,1,30,68.55c.09.52.21,1,.25,1.56v2.31c0,.18,0,.13,0,.13h0a.4.4,0,0,0,0,.31c.06.13.1.13.23,0l.11-.15s0,0,0,0,0,0,.05-.12l.06-.19.24-.76c.34-1,.7-2,1.12-3,.25-.61.51-1.22.79-1.83.15-.31.29-.62.45-.93s.36-.6.55-.9a15.69,15.69,0,0,1,1.37-1.81,6,6,0,0,1,.58-.5l.37-.29a7.35,7.35,0,0,1,.78-.56c.54-.35,1.11-.67,1.62-1L40,59.41l2.85-2.55L55.39,45.78l3.87-3.42c1.3-1.12,2.6-2.24,3.89-3.38,3.91-3.44,7.83-6.9,11.54-10.5,1.43-1.41,2.79-2.86,4.12-4.33s2.61-3,3.91-4.45c.56-.67,1.16-1.27,1.78-1.88a13.26,13.26,0,0,1,2.7-2.16,3.05,3.05,0,0,1,1-.36,5.08,5.08,0,0,1,1,0c.27,0,.56,0,.75,0,.53.05.49,1.79-.85,3.89-.48.8-1,1.54-1.52,2.31l-.79,1.15c-.27.38-.58.72-.87,1.08Q84,25.88,82.08,27.91c-1.3,1.34-2.64,2.66-4,4L74,35.77q-6.24,5.67-12.71,11.11Z"/><path class="cls-1" d="M66.41,33.56q-5,3-10,6c-1.21.74-2.35,1.58-3.56,2.31L40.06,49.6c-1.91,1.13-3.76,2.37-5.58,3.6a66.55,66.55,0,0,1-7.29,4.32c-.79.39-.9.06-.56-.74a11.09,11.09,0,0,1,2.26-3.31L30.48,52l.8-.75.86-.66q1.72-1.32,3.48-2.58c1.18-.84,2.35-1.69,3.59-2.45S41.7,44,43,43.33c3.05-1.7,5.94-3.89,8.92-5.83,3.28-2.13,6.6-4.21,9.9-6.3l6.12-3.85c3.07-2,6.2-3.86,9.2-5.9,2.33-1.58,4.54-3.26,6.84-4.85.51-.35,1-.72,1.52-1,2-1.21,3-1.12,3.8-.56a4.69,4.69,0,0,1,.57.39c.26.25.24.61,0,1.08a5,5,0,0,1-1.18,1.64c-.89.91-1.88,1.65-2.85,2.49s-2,1.61-3,2.41a66,66,0,0,1-6.43,4.44c-3.28,2.1-6.64,4.12-10,6.2Z"/><path class="cls-1" d="M59.54,67.81a30.69,30.69,0,0,0-3.84-1.08c-.48-.12-1-.07-1.46-.17-.85-.19-1.71-.26-2.59-.39A23,23,0,0,0,49,66a9.59,9.59,0,0,0-2.32.3,9.14,9.14,0,0,1-2.94.52c-.33,0-.5-.85-.43-1.7s.41-1.73,1-1.89A16,16,0,0,1,51,63c1.33.23,2.72.12,4.07.31a27.91,27.91,0,0,1,4.37,1c.88.29,1.75.57,2.6.9,1.3.47,2.53,1.11,3.79,1.66a24,24,0,0,1,2.93,1.33c.19.14.4.26.58.42.65.63.72,1,.44,1.6a3.34,3.34,0,0,1-.17.38,1.28,1.28,0,0,1-1.39.39c-.45-.1-.94-.15-1.39-.23a5,5,0,0,1-1.23-.43l-2.4-1a32.88,32.88,0,0,0-3.72-1.35Z"/><path class="cls-1" d="M81.93,37.29c-.52,1.17-1,2.36-1.51,3.55s-1,2.37-1.48,3.58c-.35.87-.58,1.79-.92,2.67-1.2,3.1-2.34,6.24-3.26,9.43C74.38,58,74,59.38,73.7,60.81c-.18.91-.34,1.83-.48,2.74a25.42,25.42,0,0,0-.48,2.66c0,.44-.24.61-.74.14a5.19,5.19,0,0,1-1.17-2.69,37.53,37.53,0,0,1,.34-6,36.64,36.64,0,0,1,1.59-5.71c.81-2.24,1.27-4.65,2-7,.81-2.53,1.66-5,2.68-7.51.61-1.51,1.26-3,1.9-4.52,1-2.28,2.08-4.52,3.11-6.76.42-.87.77-1.76,1.15-2.65a19.08,19.08,0,0,1,1.24-2.63c.22-.37.39-.76.65-1.12.94-1.33,1.56-1.56,2.51-1.19a4.64,4.64,0,0,1,.65.26c.66.39.75,1.26.36,2.25-.59,1.49-1,3.09-1.79,4.56l-2.12,4.6c-1,2.32-2.11,4.67-3.06,7.07Z"/><path class="cls-1" d="M49.45,37.21l-15.6,6.4c-1.9.78-3.73,1.69-5.63,2.47l-10,4.12L17,50.72l-.62.28-.49.22-1.09.42c-.75.31-1.59.66-2.47,1.07-.2.09-.39.18-.57.28a1,1,0,0,0-.26.18c.06,0,.17,0,.26,0l1.15.08c.8.05,1.62.1,2.36.18.24,0,.48.05.71.09.07,0,.08,0,.21,0l.4.09.79.18a21.5,21.5,0,0,1,3.13,1,13.15,13.15,0,0,1,3,1.68,6.66,6.66,0,0,1,2.14,2.93c.27.72.15,1.1-.07,1.17s-.64-.13-1.24-.34A7.13,7.13,0,0,0,22,59.92a13.42,13.42,0,0,1-2.63-.52,20.48,20.48,0,0,0-2.62-.63c-.46-.08-.92-.16-1.39-.22L15,58.49l-.78-.11c-.54,0-1.11-.06-1.67-.09l-1.65-.2-1.71-.17-1.77-.14-.89-.06a4,4,0,0,1-.8-.11,5,5,0,0,1-1.94-.84,1.56,1.56,0,0,1-.7-.88A2.42,2.42,0,0,1,3,55.16a1.83,1.83,0,0,0,0-.42,1.39,1.39,0,0,1,0-.41,3.45,3.45,0,0,1,1-2,6.36,6.36,0,0,1,1.88-1.38l.32-.17.54-.14c.34-.09.74-.18,1-.27l1.46-.62,2.81-1.16,1.36-.5.63-.26.29-.11.18-.07c4.7-1.86,9.34-4.3,14-6.42L44.06,34.3,53.59,30c4.78-2.2,9.67-4.22,14.36-6.54,1.82-.89,3.59-1.85,5.34-2.83l5.29-2.78c.78-.41,1.52-.84,2.31-1.24s1.33-.66,1.84-.89a8.8,8.8,0,0,1,1.36-.4,3.89,3.89,0,0,1,1.76,0,6.75,6.75,0,0,0,.68.09c.34.05.32.5-.06,1.13a10.78,10.78,0,0,1-2,2.28c-3,2.25-6.08,4.33-9.3,6.33-3.3,1.83-6.7,3.54-10.13,5.22C62.49,31.6,60,32.85,57.34,34l-7.83,3.34Z"/></g></svg>