<svg xmlns="http://www.w3.org/2000/svg" width="96" height="96" viewBox="0 0 96 96"><defs><style>.cls-1{fill:#231f20;}</style></defs><title>scribble final version</title><g id="Layer_1" data-name="Layer 1"><path class="cls-1" d="M30.72,55.35s3,9.31-2.14,11.53,4.12,6.8,8,2.77,2.68-13.36,0-14.3A11.06,11.06,0,0,0,30.72,55.35Z"/><path class="cls-1" d="M27.94,66.91a9,9,0,0,0,2.82.93,4.08,4.08,0,0,0,2.08-.13,3.39,3.39,0,0,0,.86-.54,7.14,7.14,0,0,0,1-1.1A12.36,12.36,0,0,0,36.23,63a23.69,23.69,0,0,0,1-5.5,35.46,35.46,0,0,0-.62-10.43,46.34,46.34,0,0,0-3.44-10.21,37.64,37.64,0,0,0-5.3-8.11c-.65-.81-1.37-1.55-2.08-2.31l-2.12-2.29c-.73-.74-1.43-1.52-2.18-2.26S20,20.36,19.25,19.6c-.9-1-.31-1.54,1.17-1.59a10.39,10.39,0,0,1,6.09,1.89c1,.67,1.86,1.41,2.77,2.15a13.35,13.35,0,0,1,1.28,1.21c.41.42.83.83,1.22,1.27a48.9,48.9,0,0,1,4.38,5.54,44.43,44.43,0,0,1,3.48,6.21,39.67,39.67,0,0,1,2.2,6.8c1.23,5.53,2.44,11.41,1.6,17.41a21.71,21.71,0,0,1-3.58,9.61,13.49,13.49,0,0,1-1.92,2.15,9.73,9.73,0,0,1-2.65,1.64,9.52,9.52,0,0,1-3,.7,10.15,10.15,0,0,1-2.88-.15A16.62,16.62,0,0,1,23.5,72a23.64,23.64,0,0,1-4.65-4,19,19,0,0,1-2.7-3.81,12.31,12.31,0,0,1-1.47-4.74,12.06,12.06,0,0,1,.6-4.89,8.26,8.26,0,0,1,3.25-4.1A10.82,10.82,0,0,1,22.17,49a15.54,15.54,0,0,1,3.7-.33A17.93,17.93,0,0,1,33,50.44a13.92,13.92,0,0,1,2.88,1.71,11.15,11.15,0,0,1,1.11,1,11.72,11.72,0,0,1,.76,1A4.65,4.65,0,0,1,38.45,56a3.13,3.13,0,0,1-.85,2.5,4.84,4.84,0,0,1-.76.75c-.44.29-1,.13-1.63-.17l-1.13-.5a1.82,1.82,0,0,1-.57-.31c-.19-.12-.37-.25-.55-.39-.59-.38-1.13-.81-1.74-1.18a16.92,16.92,0,0,0-1.95-1,14.12,14.12,0,0,0-4.25-1,8.69,8.69,0,0,0-1.94.08,3.7,3.7,0,0,0-1.35.58,2,2,0,0,0-.62.78,3.78,3.78,0,0,0-.31,1.25c0,.19,0,.43,0,.64s0,.49,0,.73a2.33,2.33,0,0,0,.09.52,3.42,3.42,0,0,0,.17.55,9.85,9.85,0,0,0,1.56,2.63A15.44,15.44,0,0,0,28,66.76Z"/><path class="cls-1" d="M72.37,60.11C75.09,71.25,65.77,73,65.77,73s5.63,5,9,1.42,3.79-8.84,2.53-11.37S72.37,60.11,72.37,60.11Z"/><path class="cls-1" d="M66.78,72.94a9.15,9.15,0,0,0,2.81.93,4.13,4.13,0,0,0,2.09-.13,3.53,3.53,0,0,0,.85-.54,7.74,7.74,0,0,0,1-1.1A12.52,12.52,0,0,0,75.06,69a23.79,23.79,0,0,0,1-5.5,35.44,35.44,0,0,0-.62-10.43A47,47,0,0,0,72,42.87a38.14,38.14,0,0,0-5.3-8.11c-.65-.8-1.37-1.55-2.08-2.3l-2.12-2.29c-.73-.74-1.43-1.53-2.17-2.26s-1.46-1.52-2.21-2.28c-.9-1-.3-1.54,1.17-1.59a10.39,10.39,0,0,1,6.09,1.89c1,.67,1.86,1.41,2.78,2.15a13.18,13.18,0,0,1,1.27,1.21c.41.42.84.83,1.22,1.27A48.11,48.11,0,0,1,75,36.1a45.47,45.47,0,0,1,3.48,6.21,40.23,40.23,0,0,1,2.19,6.8c1.24,5.53,2.45,11.41,1.61,17.41a21.9,21.9,0,0,1-3.59,9.61,12.5,12.5,0,0,1-1.91,2.14,9.52,9.52,0,0,1-5.63,2.35,10.15,10.15,0,0,1-2.88-.15A16.8,16.8,0,0,1,62.33,78a23.3,23.3,0,0,1-4.64-4A18.21,18.21,0,0,1,55,70.23a11.73,11.73,0,0,1-.88-9.63,8.31,8.31,0,0,1,3.25-4.1A10.82,10.82,0,0,1,61,55.06a15.58,15.58,0,0,1,3.71-.33,18.08,18.08,0,0,1,7.1,1.73,14.79,14.79,0,0,1,2.89,1.72,11,11,0,0,1,1.1,1c.3.35.54.71.76,1A4.77,4.77,0,0,1,77.28,62a3.14,3.14,0,0,1-.85,2.51,4.45,4.45,0,0,1-.76.75c-.44.29-1,.12-1.63-.17l-1.13-.5a1.94,1.94,0,0,1-.57-.31c-.19-.12-.36-.25-.55-.39-.59-.39-1.13-.81-1.74-1.18a15.44,15.44,0,0,0-2-1,14.12,14.12,0,0,0-4.25-1,8.62,8.62,0,0,0-1.93.08,3.68,3.68,0,0,0-1.36.58,2.25,2.25,0,0,0-.62.78,3.51,3.51,0,0,0-.3,1.25c0,.19,0,.43,0,.64s0,.49,0,.73a2.33,2.33,0,0,0,.09.52,5.57,5.57,0,0,0,.17.55,10.12,10.12,0,0,0,1.56,2.63,15.74,15.74,0,0,0,5.36,4.3Z"/></g></svg>