<svg xmlns="http://www.w3.org/2000/svg" width="96" height="96" viewBox="0 0 96 96"><defs><style>.cls-1{fill:#231f20;}</style></defs><title>scribble final version</title><g id="Layer_1" data-name="Layer 1"><path class="cls-1" d="M35.63,36.19a10.1,10.1,0,0,0,1.57-.82c.18-.12.24-.32.42-.45a12.85,12.85,0,0,0,2-1.57,3.12,3.12,0,0,0,.59-1c.19-.46.23-1,.8-1.27.17-.08.9.29,1.58.77s1.31,1.06,1.23,1.36A5.2,5.2,0,0,1,42,36c-.59.44-.82,1.15-1.38,1.67a11.52,11.52,0,0,1-1.92,1.47c-.41.26-.82.48-1.21.72-.6.34-1.19.66-1.72,1a6.34,6.34,0,0,0-1,1.09c-.08.06-.14.16-.23.21-.31.2-.65,0-1.2-.55l-.38-.37a1.91,1.91,0,0,1-.59-1.42,8.82,8.82,0,0,1,.22-.92,5.11,5.11,0,0,1,.37-.74,5.32,5.32,0,0,1,.45-.65l.23-.29.29-.2c.56-.38,1.15-.66,1.66-1Z"/><path class="cls-1" d="M29.67,32.47A55.56,55.56,0,0,0,26,28.29c-.48-.48-1.05-.85-1.52-1.34-1.7-1.7-3.49-3.32-5.36-4.89a22.71,22.71,0,0,0-2.65-1.83A17.57,17.57,0,0,1,13,18c-.31-.32.05-.88.7-1.31a2.78,2.78,0,0,1,2.38-.44A32.37,32.37,0,0,1,20,18.14a16.47,16.47,0,0,1,3.51,2.62c1.27,1.24,2.88,2.13,4.25,3.29a59,59,0,0,1,4.34,4c.84.89,1.68,1.76,2.49,2.67,1.26,1.34,2.37,2.81,3.62,4.14.47.53,1,1,1.53,1.49s1,1,1.47,1.54a5.86,5.86,0,0,1,.62.7,3.53,3.53,0,0,1,.21.34,2.61,2.61,0,0,1,.08.36,1.55,1.55,0,0,1,0,.61,2.33,2.33,0,0,1-.69,1.1,6.29,6.29,0,0,1-.51.52,2.31,2.31,0,0,1-2.36.19,18.43,18.43,0,0,1-3.14-2.14,9.65,9.65,0,0,1-1.22-1.34c-.4-.47-.78-.94-1.15-1.43-1.15-1.4-2.24-2.89-3.48-4.26Z"/><path class="cls-1" d="M32.44,39.07a29.71,29.71,0,0,0,3.2.54,12.59,12.59,0,0,0,1.47.09c.21,0,.45,0,.64,0l.27,0h.13c.24,0,.38-.2.52-.35a1.14,1.14,0,0,0,.2-.23.52.52,0,0,0,.1-.2l.15-.4a11.79,11.79,0,0,0,.44-2,27.16,27.16,0,0,0,.25-4.46A32.56,32.56,0,0,0,39.45,28a24.18,24.18,0,0,1-.59-5.27c0-.57.78-.67,1.67-.39a3.89,3.89,0,0,1,2.41,1.9,38.08,38.08,0,0,1,1.74,5.39A12.36,12.36,0,0,1,45,32.49a19.92,19.92,0,0,1-.13,3c-.13,1.2-.17,2.44-.32,3.8,0,.35-.11.67-.14,1.13A12.42,12.42,0,0,1,44,41.74a5.93,5.93,0,0,1-1.5,2.31,6.46,6.46,0,0,1-2.73,1.3,11.42,11.42,0,0,1-2.39.24,24.05,24.05,0,0,1-4.09-.39c-1.6-.27-3.14-.65-4.66-1-2.31-.59-4.53-1.38-6.78-2-1.74-.51-3.55-.76-5.34-1.3-.4-.11-.81-.2-1.2-.35a2.68,2.68,0,0,1-1.22-1.26,2.9,2.9,0,0,1,.08-1.59,6.35,6.35,0,0,1,.21-.73,1.76,1.76,0,0,1,.87-.85,3.13,3.13,0,0,1,1.5-.48,5.89,5.89,0,0,1,1.19,0l1.1.19c.75.14,1.49.3,2.23.47,1.5.35,3,.76,4.5,1.15,2.23.57,4.48,1.19,6.69,1.55Z"/><path class="cls-1" d="M57.05,58c.93-.52,1.88-1,2.82-1.4a7.71,7.71,0,0,1,1-.57c.63-.24,1.28-.41,1.91-.59l2-.31a8.28,8.28,0,0,0,1.6-.5,2.76,2.76,0,0,1,2.11-.37c.25.08.44,1,.52,1.92s.08,2-.2,2.18a6.7,6.7,0,0,1-3.27,1.42,4.8,4.8,0,0,0-2,.94c-.74.37-1.5.74-2.23,1.17a11.32,11.32,0,0,0-1.3.87,12.59,12.59,0,0,0-1.78,1.56,3.15,3.15,0,0,0-.39.83c-.05.15-.08.31-.12.46a2.38,2.38,0,0,1-.2.39,3.65,3.65,0,0,1-.18.34c-.32.36-.7.31-1.72-.15l-.68-.31a2.3,2.3,0,0,1-1.36-1.5,4.67,4.67,0,0,1,0-2.44,8.3,8.3,0,0,1,1-2A12.12,12.12,0,0,1,57,57.92Z"/><path class="cls-1" d="M70.23,62.9l3.92,4c.47.48,1,.85,1.49,1.35,1.63,1.75,3.23,3.51,4.78,5.32.69.8,1.44,1.54,2.19,2.26a12.61,12.61,0,0,1,2.66,3c.2.38-.32.8-1.06,1a2.75,2.75,0,0,1-2.32-.15c-1-.81-2.1-1.63-3.1-2.5A19.1,19.1,0,0,1,76,74.33a26.88,26.88,0,0,0-3.69-3.26l-4.1-3.57c-.85-.73-1.7-1.46-2.57-2.15a43.78,43.78,0,0,0-4.06-3c-1.15-.64-2.37-1.12-3.5-1.74-.25-.13-.52-.23-.75-.38L57,60a2.2,2.2,0,0,1-.18-.28,1.67,1.67,0,0,1-.19-.54,2.68,2.68,0,0,1,.23-1.28c.09-.24.16-.47.26-.68a2.22,2.22,0,0,1,2.06-1.12,3.2,3.2,0,0,1,1,.11l.93.23a18.5,18.5,0,0,1,1.82.61,17.53,17.53,0,0,1,3.12,2.09c1.47,1.15,2.85,2.44,4.24,3.69Z"/><path class="cls-1" d="M64.61,57.49a31,31,0,0,0-3.22-.35c-.52,0-1,0-1.47,0-.21,0-.45,0-.64.06l-.27,0h-.13c-.24,0-.36.22-.49.38a1.26,1.26,0,0,0-.19.25.47.47,0,0,0-.09.19l-.13.41a12.74,12.74,0,0,0-.32,2,26.59,26.59,0,0,0,0,4.46,32.51,32.51,0,0,0,.59,4,24.36,24.36,0,0,1,.9,5.22c0,.58-.74.72-1.64.49A3.86,3.86,0,0,1,55,72.91a37,37,0,0,1-2-5.28,12.17,12.17,0,0,1-.5-2.83,19.68,19.68,0,0,1,0-3c.06-1.2,0-2.45.1-3.81,0-.35.07-.67.07-1.14a13,13,0,0,1,.34-1.37,5.94,5.94,0,0,1,1.37-2.39,6.54,6.54,0,0,1,2.64-1.46,11.56,11.56,0,0,1,2.38-.37,23.09,23.09,0,0,1,4.11.15c1.61.17,3.17.46,4.71.76,2.33.46,4.6,1.12,6.88,1.64,1.77.41,3.59.56,5.41,1a10.14,10.14,0,0,1,1.21.29,2.63,2.63,0,0,1,1.3,1.18,2.92,2.92,0,0,1,0,1.58,6.44,6.44,0,0,1-.17.75,1.74,1.74,0,0,1-.81.9,3.11,3.11,0,0,1-1.48.56,6,6,0,0,1-1.18.06L78.18,60c-.75-.1-1.5-.21-2.25-.34-1.51-.26-3-.58-4.55-.89-2.27-.44-4.55-.92-6.77-1.15Z"/><path class="cls-1" d="M35.46,61A11,11,0,0,0,33.86,59c-.24-.24-.56-.37-.8-.61A16.21,16.21,0,0,0,30.37,56,3.06,3.06,0,0,0,29,55.49a4.75,4.75,0,0,0-.77,0,1.08,1.08,0,0,1-.66-.19,3.86,3.86,0,0,1-.72-1.93c-.15-1,.28-2.14,1-2.26a6.9,6.9,0,0,1,3.26.23,5.38,5.38,0,0,1,2.34,1.47A19.57,19.57,0,0,0,36,54.55a19.59,19.59,0,0,1,2.48,2.28c.48.53.93,1.1,1.36,1.68a24.14,24.14,0,0,1,1.66,2.86c.4.74,1.07,1.38,1.49,2.14a4,4,0,0,1,.18.52.9.9,0,0,1,0,.44,1.12,1.12,0,0,1-.36.36,4,4,0,0,1-1.2.53l-.68.21a3.51,3.51,0,0,1-1.12.07,5.73,5.73,0,0,1-1.18-.23c-.36-.22-.73-.4-1-.6a4.7,4.7,0,0,1-.51-.63A9.24,9.24,0,0,1,36.4,63a10.78,10.78,0,0,0-1-1.84Z"/><path class="cls-1" d="M29.14,64.78c-1.55.91-3.07,1.94-4.56,3-.54.4-1,.91-1.53,1.31-1.92,1.41-3.8,2.91-5.66,4.45a21.85,21.85,0,0,0-2.28,2.23,15.64,15.64,0,0,1-2.95,2.85c-.37.23-.83-.25-1.1-1a2.78,2.78,0,0,1,.06-2.39,40,40,0,0,1,2.6-3.35A17.23,17.23,0,0,1,16.84,69a51.22,51.22,0,0,0,3.8-3.6c1.43-1.29,2.95-2.5,4.49-3.68,1-.7,1.93-1.41,2.93-2.08,1.48-1,3.09-1.94,4.63-2.93a29.53,29.53,0,0,1,3.63-2.33c.29-.14.56-.33.86-.44a1.26,1.26,0,0,1,.77-.1,1.57,1.57,0,0,1,.6.19,2.21,2.21,0,0,1,.85,1c.12.22.25.43.34.64a2.45,2.45,0,0,1-.46,2.3,3.49,3.49,0,0,1-.62.69c-.22.21-.43.41-.65.6-.43.37-.85.8-1.29,1.15a33.87,33.87,0,0,1-2.94,1.73c-1.5.86-3.06,1.71-4.56,2.73Z"/><path class="cls-1" d="M32,50.08a35.68,35.68,0,0,1,4.1.15,21.79,21.79,0,0,1,2.17.31c.39.09.76.17,1.16.29L40,51a4.83,4.83,0,0,1,.74.28,5.62,5.62,0,0,1,3.36,3,9.27,9.27,0,0,1,.35,1c.09.34.16.67.22,1l.09.5a2.51,2.51,0,0,0,0,.47V58a20.37,20.37,0,0,1-.31,2.71c-.32,1.71-.75,3.31-1.19,4.88-.39,1.39-.81,2.76-1.17,4.12a18.21,18.21,0,0,1-1.89,5.08c-.31.49-1,.21-1.65-.46a4.06,4.06,0,0,1-1.23-2.78c.16-1.79.33-3.57.54-5.29a15.36,15.36,0,0,1,.53-2.53l.66-2.45a7.56,7.56,0,0,0,.23-2.84l-.08-.54-.06-.27a1.86,1.86,0,0,0-.22-.5,1.29,1.29,0,0,0-.49-.4,5.59,5.59,0,0,0-1.22-.4A17.43,17.43,0,0,0,34,56a33.06,33.06,0,0,0-4.33.09A35.69,35.69,0,0,0,23,57.14a24.51,24.51,0,0,0-4.62,2.11c-.32.17-.61.4-.93.55a2.27,2.27,0,0,1-1.49.06,4.1,4.1,0,0,1-1.2-1,6.73,6.73,0,0,1-.53-.56A1.47,1.47,0,0,1,14,57.15a2.75,2.75,0,0,1,.68-1.61,7.06,7.06,0,0,1,2.11-1.7,20.71,20.71,0,0,1,2.35-1.19,30.86,30.86,0,0,1,5-1.6A49.19,49.19,0,0,1,32,49.93Z"/><path class="cls-1" d="M63.4,44.83a24.33,24.33,0,0,1-3-1.31A8.29,8.29,0,0,1,59.25,43a8,8,0,0,1-1.71-1.59,8.54,8.54,0,0,1-1-2c-.2-.59-.4-1.13-.56-1.66a6.69,6.69,0,0,1-.42-2.07c0-.22.2-.28.53-.21a2.21,2.21,0,0,1,1.1.53c.49.54,1,1.06,1.37,1.49a12,12,0,0,1,1.07,1.18c.2.2.36.48.64.61s.58.27.89.43a11.9,11.9,0,0,0,2.28.86,16,16,0,0,0,1.62.37,20.31,20.31,0,0,0,2.59.45c.69,0,1.39-.13,2.07-.08a2.33,2.33,0,0,1,.46,0c.52.31.65.68.65,1.43,0,.17,0,.34,0,.5a2,2,0,0,1-.79,1.38,3,3,0,0,1-1,.59c-.31.14-.63.26-.95.37a6.89,6.89,0,0,1-1.87,0,10.19,10.19,0,0,1-1.42-.22l-1.47-.39Z"/><path class="cls-1" d="M62.13,30.44C63.54,29,65,27.59,66.47,26.19c.54-.51,1-1.11,1.52-1.6a69.53,69.53,0,0,1,6.22-4.79c1-.62,1.86-1.36,2.78-2,.59-.43,1.15-.9,1.77-1.31a8.77,8.77,0,0,1,2-.93c.45-.13.78.54.87,1.41a3,3,0,0,1-.58,2.44L78,22.17l-1.56,1.35c-.52.45-1.15.8-1.72,1.22a20.69,20.69,0,0,0-3.62,3.68c-1.31,1.39-2.58,2.83-3.84,4.3-.77.92-1.55,1.82-2.27,2.77a50,50,0,0,0-3.23,4.42c-.38.59-.63,1.28-.95,1.9s-.64,1.28-1,1.89a6.66,6.66,0,0,1-.45.83,2.81,2.81,0,0,1-.25.31c-.11.08-.22.13-.32.19a2.05,2.05,0,0,1-.62.17,2.87,2.87,0,0,1-1.4-.36c-.25-.12-.51-.21-.73-.34a2.65,2.65,0,0,1-1.16-2.33A3.47,3.47,0,0,1,55,41.12c.07-.33.16-.65.25-1,.18-.64.39-1.27.63-1.9A19.32,19.32,0,0,1,58.1,35c1.22-1.57,2.57-3.08,3.92-4.6Z"/><path class="cls-1" d="M57.28,40.94a.37.37,0,0,0,0,.23s0,.07.07.13a1.08,1.08,0,0,1,.21.11,8.73,8.73,0,0,0,2.43.22c.69,0,1.41-.18,2.16-.21a41.93,41.93,0,0,0,8.17-1,25.31,25.31,0,0,0,3.54-1.06,28,28,0,0,1,4.42-1.58c.49-.09.83.57.86,1.48a3.47,3.47,0,0,1-1.08,2.77,28.44,28.44,0,0,1-4.5,2.71,10.7,10.7,0,0,1-2.47.82,20.14,20.14,0,0,1-2.58.44c-2.09.22-4.1,1.06-6.3,1.37a12.26,12.26,0,0,1-1.84.13h-.95l-1-.06a8.16,8.16,0,0,1-1-.12,7.22,7.22,0,0,1-1.1-.23A6.89,6.89,0,0,1,54,46a5.94,5.94,0,0,1-1.12-1.12,5.4,5.4,0,0,1-.78-1.3,6,6,0,0,1-.48-1.25,8.45,8.45,0,0,1-.3-1.23,25.63,25.63,0,0,1,0-6.84c.13-1.7.08-3.39.29-5.09a8.54,8.54,0,0,1,.13-1.12,2.18,2.18,0,0,1,1-1.24,3.31,3.31,0,0,1,1.53-.15c.27,0,.53,0,.76.08a1.86,1.86,0,0,1,1,.65,2.83,2.83,0,0,1,.76,1.34,6.13,6.13,0,0,1,.23,2.12c0,.68,0,1.36-.05,2,0,1.33-.13,2.64-.14,3.88A22.57,22.57,0,0,0,57,39.33a7.9,7.9,0,0,0,.41,1.52Z"/></g></svg>