<svg xmlns="http://www.w3.org/2000/svg" width="96" height="96" viewBox="0 0 96 96"><defs><style>.cls-1{fill:#231f20;}</style></defs><title>scribble final version</title><g id="Layer_1" data-name="Layer 1"><path class="cls-1" d="M46,15.16c-1.71.08-3.42.17-5.13.31-.62,0-1.22.26-1.85.3-1.1.08-2.21.13-3.33.14s-2.23.08-3.34.16a18.91,18.91,0,0,0-2.9.5,8.2,8.2,0,0,1-1.85.37,7.48,7.48,0,0,1-2-.19c-.43-.11-.46-.75-.27-1.54A4.16,4.16,0,0,1,26.64,13a4.67,4.67,0,0,1,.88-.47l.92-.24c.62-.15,1.24-.29,1.87-.4a20.53,20.53,0,0,1,3.86-.35,11,11,0,0,0,2.34-.31c.77-.15,1.55-.33,2.34-.43,1.73-.23,3.47-.4,5.21-.57,1.06-.11,2.14-.19,3.21-.31,1.62-.18,3.26-.27,4.86-.56.62-.09,1.23-.33,1.85-.44a17.07,17.07,0,0,1,1.88-.29,8,8,0,0,1,.84-.08,2.65,2.65,0,0,1,.69.1,1.4,1.4,0,0,1,.47.36,2.26,2.26,0,0,1,.5,1c0,.19.12.38.15.55a1.33,1.33,0,0,1-.21.9,3.94,3.94,0,0,1-.78,1L56,13.31l-1.55.84a2.22,2.22,0,0,1-.81.24l-.82.15c-.55.09-1.11.17-1.67.23-1.67.22-3.38.33-5.09.52Z"/><path class="cls-1" d="M49.52,22.7c-2.85.31-5.71.63-8.55,1-1,.13-2,.4-3.09.52-3.67.43-7.34.83-11,1.33-1.62.2-3.23.54-4.81.89a27.35,27.35,0,0,1-6.17,1.1c-.66,0-.77-1-.43-2A3.77,3.77,0,0,1,17.77,23a58.6,58.6,0,0,1,12.67-2.23c2.59-.15,5.19-.86,7.79-1.27,2.86-.44,5.74-.83,8.61-1.23l5.29-.74c2.67-.4,5.36-.72,8-1.25,2-.42,4-1.11,6-1.69.44-.13.86-.3,1.31-.4,1.65-.38,2.24-.14,2.82,1.15a7.61,7.61,0,0,1,.39.88,2,2,0,0,1-1.37,2.49,48.06,48.06,0,0,1-11.11,2.84c-2.84.46-5.72.81-8.58,1.23Z"/><path class="cls-1" d="M54.19,36.61c-3.73.53-7.47,1.07-11.19,1.65-1.36.21-2.69.57-4,.77-4.8.7-9.61,1.37-14.41,2.12-2.13.32-4.24.77-6.32,1.25a42.57,42.57,0,0,1-8.09,1.5c-.87,0-1-1-.48-2.15a5,5,0,0,1,3.11-2.86,96.8,96.8,0,0,1,16.56-3.13c3.39-.31,6.78-1.25,10.19-1.86C43.25,33.23,47,32.61,50.75,32l6.93-1.16c3.49-.61,7-1.14,10.45-1.88,2.67-.58,5.24-1.45,7.86-2.19.58-.16,1.13-.37,1.72-.51,2.18-.49,3-.24,3.67,1.14a8.45,8.45,0,0,1,.48.95c.4,1.1-.34,2.18-1.87,2.78a82.38,82.38,0,0,1-14.54,3.72c-3.72.69-7.49,1.26-11.23,1.91Z"/><path class="cls-1" d="M55.9,30.2c-3.08.38-6.16.75-9.23,1.18-1.13.15-2.22.45-3.34.59-4,.5-7.92,1-11.87,1.51-1.76.23-3.5.59-5.21,1a30,30,0,0,1-6.66,1.18c-.72,0-.83-1-.45-2.07a4.05,4.05,0,0,1,2.51-2.63A67.31,67.31,0,0,1,35.31,28.5c2.79-.18,5.59-.95,8.39-1.41,3.09-.51,6.18-1,9.28-1.43l5.71-.87c2.87-.46,5.78-.85,8.61-1.45,2.2-.46,4.3-1.21,6.45-1.84.47-.14.93-.33,1.41-.44,1.79-.41,2.42-.16,3,1.18.14.3.31.6.42.91a2.13,2.13,0,0,1-1.49,2.62,55.45,55.45,0,0,1-12,3.11c-3.07.54-6.17,1-9.26,1.44Z"/><path class="cls-1" d="M47.25,54.29c-3,.44-6.09.88-9.12,1.37-1.11.17-2.19.48-3.3.65L23.08,58c-1.73.26-3.46.63-5.15,1a30.8,30.8,0,0,1-6.61,1.21c-.71,0-.8-.88-.41-1.89a4,4,0,0,1,2.51-2.46A75.15,75.15,0,0,1,26.9,53.36c2.76-.25,5.52-1,8.29-1.55,3.05-.57,6.1-1.08,9.16-1.61l5.64-1c2.84-.51,5.71-1,8.51-1.58,2.18-.49,4.26-1.23,6.4-1.85.47-.14.92-.32,1.4-.43,1.78-.41,2.41-.19,3,1a7.15,7.15,0,0,1,.4.84c.34,1-.24,1.91-1.49,2.42A62.88,62.88,0,0,1,56.41,52.8c-3,.58-6.09,1.06-9.14,1.6Z"/><path class="cls-1" d="M57.23,46.57c-4,.59-8,1.19-12,1.83-1.47.24-2.9.62-4.36.84C35.7,50,30.53,50.78,25.38,51.6c-2.28.35-4.56.84-6.79,1.35a51.32,51.32,0,0,1-8.7,1.63c-.93.05-1-.93-.46-2.06a5.53,5.53,0,0,1,3.39-2.83,115.79,115.79,0,0,1,17.8-3.4c3.64-.37,7.29-1.35,11-2l12.08-2.09,7.44-1.27c3.75-.67,7.53-1.27,11.23-2,2.88-.62,5.64-1.52,8.46-2.28.63-.17,1.22-.38,1.86-.53,2.34-.52,3.16-.3,3.9,1A7.4,7.4,0,0,1,87,38c.41,1.05-.4,2.11-2.06,2.71a98.66,98.66,0,0,1-15.65,3.9c-4,.75-8,1.39-12.07,2.1Z"/><path class="cls-1" d="M58.67,57.64c-3.81.57-7.63,1.14-11.43,1.75-1.39.22-2.75.58-4.14.79L28.4,62.43c-2.17.33-4.33.8-6.45,1.28a49.43,49.43,0,0,1-8.27,1.56c-.89,0-1-.9-.44-2a5.25,5.25,0,0,1,3.22-2.71,110.35,110.35,0,0,1,16.92-3.23c3.45-.35,6.92-1.29,10.4-1.92l11.48-2,7.07-1.2C65.89,51.59,69.49,51,73,50.29c2.73-.59,5.36-1.44,8-2.16.59-.16,1.16-.37,1.76-.51,2.23-.49,3-.28,3.71,1a9.26,9.26,0,0,1,.48.86c.39,1-.38,2-2,2.6a94,94,0,0,1-14.87,3.71c-3.81.71-7.65,1.31-11.48,2Z"/><path class="cls-1" d="M60.25,70c-3.24.51-6.49,1-9.72,1.58-1.18.2-2.33.55-3.51.74l-12.53,2c-1.86.29-3.69.71-5.5,1.15a31.8,31.8,0,0,1-7.06,1.34c-.76,0-.86-1-.46-2.06A4.33,4.33,0,0,1,24.12,72a82.27,82.27,0,0,1,14.36-2.88c3-.29,5.88-1.19,8.83-1.78,3.25-.64,6.51-1.23,9.77-1.84l6-1.1c3-.59,6.1-1.08,9.09-1.77,2.33-.53,4.55-1.35,6.83-2,.5-.15,1-.35,1.5-.47,1.9-.44,2.57-.2,3.22,1.14a8.44,8.44,0,0,1,.44.91c.36,1.06-.26,2.09-1.59,2.64A67.62,67.62,0,0,1,70,68.27c-3.22.65-6.49,1.18-9.73,1.8Z"/><path class="cls-1" d="M53.84,65.79l-9.09,1.56c-1.1.2-2.18.51-3.29.7L29.76,70c-1.74.29-3.46.68-5.15,1.08A33.47,33.47,0,0,1,18,72.34c-.7,0-.78-.79-.38-1.72a4.1,4.1,0,0,1,2.53-2.3A86.14,86.14,0,0,1,33.59,65.6c2.75-.3,5.5-1.12,8.26-1.67L51,62.16l5.62-1.08c2.83-.56,5.69-1.06,8.47-1.74,2.17-.52,4.24-1.27,6.36-1.92.47-.14.92-.32,1.39-.44,1.77-.45,2.4-.27,3,.82a7.83,7.83,0,0,1,.41.75c.34.87-.23,1.75-1.48,2.27A68.5,68.5,0,0,1,63,64.12c-3,.64-6.07,1.18-9.11,1.77Z"/><path class="cls-1" d="M60.29,78.31c-2.33.43-4.68.89-7,1.39-.86.18-1.68.49-2.54.65-3,.6-6.1,1.13-9.15,1.67-1.36.22-2.69.57-4,.9a18.48,18.48,0,0,1-5.16,1c-.57,0-.68-.92-.42-1.89a3.23,3.23,0,0,1,1.83-2.35,52.92,52.92,0,0,1,10.36-2.22,48.52,48.52,0,0,0,6.36-1.52c2.33-.57,4.69-1.11,7.06-1.64l4.38-1c2.21-.49,4.45-.89,6.63-1.43,1.69-.43,3.3-1.09,5-1.64.37-.12.72-.28,1.09-.37,1.39-.35,1.89-.11,2.41,1.13a8.93,8.93,0,0,1,.35.85,1.91,1.91,0,0,1-1.08,2.35,41.92,41.92,0,0,1-9,2.73c-2.31.5-4.65,1-7,1.47Z"/><path class="cls-1" d="M60.56,84c-1.31.19-2.63.37-3.94.59-.48.08-.92.28-1.4.34-1.7.25-3.41.46-5.14.6a16.94,16.94,0,0,0-2.23.45,7.19,7.19,0,0,1-2.89.45c-.32,0-.41-.67-.3-1.37s.39-1.48.89-1.7a19.28,19.28,0,0,1,5.63-1.55,17.35,17.35,0,0,0,3.54-.77c1.31-.27,2.62-.52,3.93-.77l2.43-.47c1.24-.21,2.49-.37,3.69-.67.47-.11.91-.32,1.38-.43a13,13,0,0,1,1.4-.34,6.37,6.37,0,0,1,.63-.11c.81-.05,1.11.11,1.36.69a2.6,2.6,0,0,1,.16.35,1.2,1.2,0,0,1-.6,1.21c-.73.52-1.47,1.06-2.24,1.57a16.79,16.79,0,0,1-2.45,1c-.62.22-1.25.41-1.88.6a18.3,18.3,0,0,1-2,.43Z"/></g></svg>