<svg xmlns="http://www.w3.org/2000/svg" width="96" height="96" viewBox="0 0 96 96"><defs><style>.cls-1{fill:#231f20;}</style></defs><title>scribble final version</title><g id="Layer_1" data-name="Layer 1"><path class="cls-1" d="M72.18,45.52a136.5,136.5,0,0,0-4.63-17.7,26.14,26.14,0,0,0-1.23-2.92L66,24.33l-.11-.18a.55.55,0,0,0-.3-.26l-.18-.07-.66-.21c-.43-.14-.9-.24-1.36-.37-.91-.25-1.85-.45-2.79-.64-1.89-.39-3.82-.7-5.76-.94C51,21.15,47,21,43.06,20.82a72.15,72.15,0,0,0-10.51.56c-4.45.54-8.8,1.5-13.19,2.17-1.37.2-1.55-.87-.69-2.25a9.09,9.09,0,0,1,5.48-3.75,84.34,84.34,0,0,1,14.24-2.08c1.2-.08,2.39-.14,3.59-.15s2.4,0,3.6,0,2.4.11,3.59.23,2.4.22,3.6.39c2.86.37,5.78.7,8.74,1.15,1.48.21,3,.52,4.47.84l1.2.32.88.24c.28.09.54.22.82.33a5.94,5.94,0,0,1,2.29,2.63,39.41,39.41,0,0,1,2,4.71c.56,1.54,1.06,3.07,1.54,4.6,1,3.07,1.78,6.16,2.55,9.27.94,3.82,1.71,7.68,2.31,11.61a44.88,44.88,0,0,1,.6,9.23,10.27,10.27,0,0,1-.51,2.65,6.4,6.4,0,0,1-.35.77c-.07.13-.17.27-.26.41l-.07.1,0,.07L79,65a3.75,3.75,0,0,1-.19.62,1.88,1.88,0,0,1-.21.31l-.3.24a5.38,5.38,0,0,1-1.36.67,10.08,10.08,0,0,1-1.4.4l-.67.17-.56.11-1.11.22c-4.55.79-8.93,1.64-13.38,2.32-1,.16-1.94.28-2.93.37-3.69.27-4.91,0-5.82-1a4.57,4.57,0,0,1-.6-.68c-.44-.78,1-1.68,3.6-2.45L57,65.45c1-.29,2-.56,3-.76l6-1.32c2-.42,4-.86,6-1.3.48-.12.94-.24,1.42-.33l.17,0,.07,0,.15,0,.15,0,.07,0h0s.06-.15.1-.23l0-.08,0,0h0c3.45,2.6,1,.71,1.72,1.29h0l-.17-.13a2.43,2.43,0,0,0-.35-.2c-.16-.1-.31-.18-.47-.26l-.81-.33-.11,0h0s0,0,0,0,0-.09,0-.18a5.1,5.1,0,0,0,.08-.68,16.48,16.48,0,0,0,0-1.87c-.06-1.36-.22-2.82-.43-4.29-.41-2.94-1-6-1.71-8.94Z"/><path class="cls-1" d="M77.37,43.79c-.8-4.14-1.72-8.28-2.8-12.35-.55-2-1.13-4.05-1.79-6-.33-1-.69-1.91-1.06-2.74l-.16-.36-.08-.15a.28.28,0,0,0-.26-.18s-.06,0-.08,0L71,22l-.74-.16c-.49-.12-1-.17-1.55-.26q-1.55-.26-3.15-.42c-3.8-.42-7.69-.48-11.56-.57a159.18,159.18,0,0,0-20.49.75c-1.7.19-3.4.36-5.07.65-.84.14-1.68.25-2.51.41l-2.49.51c-.83.15-1.63.38-2.44.6s-1.64.39-2.41.69L16.23,25c-.55.22-.91.41-1.39.63a1.22,1.22,0,0,0-.28.14.61.61,0,0,0,0,.27,5,5,0,0,0,.07.54l.1.61.23,1.11c.31,1.48.67,3,1,4.47l2.27,8.94c2,7.63,4.09,15.29,4.89,23.24.21,2.5-.81,2.26-2.09.38a32.14,32.14,0,0,1-4.1-9.71C15,47.87,12.81,40.2,10.84,32.34l-.71-3-.37-1.75a11.65,11.65,0,0,1-.32-2.83,3.81,3.81,0,0,1,.28-1.24A1.41,1.41,0,0,1,10,23l.53-.33,2.11-1.33a12.3,12.3,0,0,1,3.46-1.64c.51-.19,1-.37,1.54-.53l1.55-.41c1-.26,2.06-.56,3.09-.73s2.06-.41,3.09-.59L28.5,17a190.77,190.77,0,0,1,30.1-1.61c1.18,0,2.35.1,3.53.19s2.36.15,3.55.29,2.36.24,3.56.43c.59.09,1.18.15,1.79.27l2.21.43c.28.11.57.2.86.3a2.83,2.83,0,0,1,.75.53A6.4,6.4,0,0,1,76,19.31c.15.26.32.58.42.79l.28.6c.18.39.34.78.5,1.17.61,1.54,1.12,3.07,1.6,4.6.94,3.05,1.75,6.11,2.5,9.19a156.64,156.64,0,0,1,3.57,20.05,48.05,48.05,0,0,1,.27,7.91c0,.35-.06.69-.1,1.05s-.14.87-.23,1.3a5.92,5.92,0,0,1-1.1,2.43,4.28,4.28,0,0,1-2.41,1c-.22,0-.45.08-.68.1l-.62.07-1,.09c-5.15.36-10.16.58-15.15,1.07A134.74,134.74,0,0,0,41.26,74.8c-1.62.45-3.19.89-4.79,1.38-3,.87-4.93,1.51-6.34,1.86a7.18,7.18,0,0,1-3.14.23,7.33,7.33,0,0,1-1.11-.21c-.44-.21-.15-.73.79-1.52a22.76,22.76,0,0,1,4.7-2.83l2.45-1.11,2.5-1a53.84,53.84,0,0,1,5.15-1.76c3.49-1,7.07-1.87,10.68-2.57s7.29-1.23,11-1.68,7.38-.69,11-1l4-.3.95-.09.41,0h0l0-.22q0-.39.06-.81a32.05,32.05,0,0,0,0-3.65,120.12,120.12,0,0,0-2.35-15.65Z"/></g></svg>