<svg xmlns="http://www.w3.org/2000/svg" width="96" height="96" viewBox="0 0 96 96"><defs><style>.cls-1{fill:#231f20;}</style></defs><title>scribble final version</title><g id="Layer_1" data-name="Layer 1"><path class="cls-1" d="M25.39,29.25a89.21,89.21,0,0,0,11,5.6l5.9,2.58,5.9,2.62c2.88,1.26,5.83,2.38,8.7,3.75A127.48,127.48,0,0,1,71.73,52a47.89,47.89,0,0,1,6.93,5.35,23.12,23.12,0,0,1,5.51,7.27l.43,1c.13.33.22.69.33,1s.22.69.3,1l.17,1.1A11.12,11.12,0,0,1,85.49,71a15.08,15.08,0,0,1-.35,2.22c-.21.71-.51,1.39-.78,2.07l-1.09,1.84L82,78.77a14.1,14.1,0,0,1-1.53,1.46,13.48,13.48,0,0,1-4.77,2.46,18.73,18.73,0,0,1-5.09.69A32.32,32.32,0,0,1,61,81.71c-1.89-.6-1.5-1.08.25-1.46.87-.21,2.09-.39,3.51-.6s3-.41,4.63-.52a12.52,12.52,0,0,0,7.17-2.47c.2-.2.41-.37.61-.57s.35-.42.54-.63c.32-.49.7-1,1-1.5a7,7,0,0,0,.6-1.48l.1-.35a.91.91,0,0,0,.09-.35q0-.34.09-.69a6.83,6.83,0,0,0-.51-2.89,16,16,0,0,0-1.84-3.15,31.78,31.78,0,0,0-6-6.09,58.52,58.52,0,0,0-9.61-5.91c-3.44-1.73-7-3.29-10.58-4.88L39.23,43c-3.94-1.72-8-3.39-12-5.4-4.86-2.46-9.73-5.41-13.65-9.64-.19-.2-.37-.38-.57-.61s-.4-.47-.57-.72a11.63,11.63,0,0,1-1-1.59,9,9,0,0,1-1-3.78,6.45,6.45,0,0,1,1.25-4.09,9.38,9.38,0,0,1,.72-.82,9.3,9.3,0,0,1,.8-.66,16.88,16.88,0,0,1,1.5-.93,19.61,19.61,0,0,1,6.38-2,37.93,37.93,0,0,1,6.35-.33,104.19,104.19,0,0,1,18.77,2.44c1.34.29,2.66.53,4,.88a19.6,19.6,0,0,1,5,1.85,4.91,4.91,0,0,1,1.88,2.15,8,8,0,0,1,.49,1c.13.54-.36.89-1.39,1.12a11.68,11.68,0,0,1-4.44,0c-5.46-.86-10.88-2-16.33-2.71a69.41,69.41,0,0,0-8-.64,25.94,25.94,0,0,0-7.31.8,11.64,11.64,0,0,0-2.14.84,6.34,6.34,0,0,0-.89.53c-.27.18-.17.14-.21.14h0s0,0,0,.14a2.87,2.87,0,0,0,.38,1.21,4.66,4.66,0,0,0,.48.71l.15.18.23.25.47.5c.3.34.65.65,1,1s.68.64,1.05.93a34.25,34.25,0,0,0,4.78,3.36Z"/><path class="cls-1" d="M62.76,60.79a13.65,13.65,0,0,1,2.75,2.63,5.69,5.69,0,0,1,1,4.7c0,.15-.06.29-.11.43l-.18.41-.36.81a8.83,8.83,0,0,1-1,1.44l-1.28.94c-.24.12-.49.2-.72.31s-.39.15-.59.23a11.05,11.05,0,0,1-2.16.44,19.54,19.54,0,0,1-4,0C55,73,53.93,73,52.84,72.86a16.53,16.53,0,0,1-4.09-.7c-.41-.14-.33-.57.07-1A3.28,3.28,0,0,1,50.72,70a59.07,59.07,0,0,1,7.86-.63,5.2,5.2,0,0,0,1.05-.13,5.87,5.87,0,0,0,.92-.36c.3-.2.35-.17.47-.29a2.79,2.79,0,0,0,.32-.28,1.09,1.09,0,0,0,.32-1,.65.65,0,0,0-.08-.27,1,1,0,0,0-.17-.31,5.07,5.07,0,0,0-.68-.77,13.36,13.36,0,0,0-2.54-1.8,28.62,28.62,0,0,0-4.62-2.14c-1.26-.44-2.63-.45-3.92-.8-.28-.07-.58-.11-.86-.21a1.49,1.49,0,0,1-1.21-1.91,5.92,5.92,0,0,1,.09-.75A1.86,1.86,0,0,1,49.32,57a13.84,13.84,0,0,1,3.91,0,24.84,24.84,0,0,1,3.88.93A16.29,16.29,0,0,1,60,59a28,28,0,0,1,2.85,1.64Z"/></g></svg>