<svg xmlns="http://www.w3.org/2000/svg" width="96" height="96" viewBox="0 0 96 96"><defs><style>.cls-1{fill:#231f20;}</style></defs><title>scribble final version</title><g id="Layer_1" data-name="Layer 1"><path class="cls-1" d="M78.73,21.07a1.22,1.22,0,0,0,.34-.29c.17-.19,0-.27-.09-.38a1.7,1.7,0,0,0-.19-.19l-.13-.08-.57-.26a8.9,8.9,0,0,0-1.31-.47L75.43,19a15.55,15.55,0,0,0-2-.36c-.69-.13-1.39-.15-2.09-.25a43.32,43.32,0,0,0-15.38.7,37.55,37.55,0,0,0-6.66,2.25c-2.76,1.2-5.3,2.79-8.18,3.75-.9.28-1.5-.94-1.45-2.51a5.17,5.17,0,0,1,2.46-4.41,52.53,52.53,0,0,1,9.2-3.83,42.91,42.91,0,0,1,9.91-1.76c4-.2,8.23-.78,12.44-.15a31,31,0,0,1,6.78,1.8l1,.42a10.16,10.16,0,0,1,1.16.51,14.93,14.93,0,0,1,1.93,1.26,13.33,13.33,0,0,1,1.69,1.39,3.1,3.1,0,0,1,.14,2.12,9.08,9.08,0,0,1-1.09,2.61c-.25.43-.52.85-.8,1.27s-.6.89-.76,1.11C82.91,26,82.1,27,81.3,28.1c-2.42,3.2-5,6.26-7.14,9.52a77,77,0,0,0-4.47,7.79c-.31.57-.56,1.16-.88,1.73-1.19,2.12-1.86,2.62-3.21,2.58a6.7,6.7,0,0,1-.91,0c-.94-.16-1.26-1.46-.78-3.35A48.7,48.7,0,0,1,67,38.18c.64-1.32,1.32-2.62,2-3.91s1.58-2.48,2.39-3.69c1.22-1.79,2.5-3.54,3.81-5.22l1.92-2.51.92-1.24.42-.57,0,0Z"/><path class="cls-1" d="M25.49,52.34c1.46-1.51,2.88-3.05,4.38-4.51s3-2.94,4.58-4.31c1.16-1,2.11-2.21,3.33-3.15a84.63,84.63,0,0,1,13.45-9c1.06-.56,2.06-1.21,3.11-1.77s2.1-1.15,3.13-1.73c.65-.4,1.36-.7,2-1a19.74,19.74,0,0,1,2.09-1,21,21,0,0,1,4.52-1c1-.11,1.1.85.7,2.12a7,7,0,0,1-2.62,3.77c-.3.2-.59.42-.9.6l-.94.49-1.89,1c-1.23.73-2.47,1.42-3.73,2.1s-2.45,1.5-3.71,2.2-2.47,1.53-3.76,2.25a21.43,21.43,0,0,0-2.19,1.52c-.72.53-1.44,1.08-2.13,1.65L40.9,46.18C38,48.86,35,51.6,32.31,54.57c-1.72,1.78-3.31,3.68-4.9,5.58L24,64.61c-1.08,1.54-2.18,3.06-3.13,4.67-.73,1.25-1.37,2.55-2,3.85S17.7,75.76,17,77c-.32.54-.56,1.11-.88,1.65-1.2,2-2,2.47-3.44,2.31a6.38,6.38,0,0,1-1-.11c-1-.24-1.38-1.51-1.05-3.36.27-1.35.52-2.75.92-4.1s1-2.62,1.55-3.9,1.35-2.46,2.07-3.69,1.53-2.38,2.32-3.57a117.57,117.57,0,0,1,7.82-10Z"/></g></svg>