<svg xmlns="http://www.w3.org/2000/svg" width="96" height="96" viewBox="0 0 96 96"><defs><style>.cls-1{fill:#231f20;}</style></defs><title>scribble final version</title><g id="Layer_1" data-name="Layer 1"><path class="cls-1" d="M63.37,65.33a47.6,47.6,0,0,1-12,9.69c-.83.44-1.64.92-2.45,1.38a23.92,23.92,0,0,1-2.55,1.23,47.64,47.64,0,0,1-9.44,2.48,48.07,48.07,0,0,1-9.57.62A63.62,63.62,0,0,1,18.94,80a29,29,0,0,1-5.26-1.25,23.53,23.53,0,0,1-4.81-2.48c-.93-.63-.59-.92.48-1.07a16.16,16.16,0,0,1,2.07-.14,12.29,12.29,0,0,1,2.7,0c.43,0,.85.06,1.26.12s.81.17,1.23.22c.83.09,1.64.22,2.47.3s1.65.13,2.48.17,1.66.06,2.49,0c1.66,0,3.32-.07,5-.19s3.35-.13,5-.29a26.89,26.89,0,0,0,6-1.31,47.33,47.33,0,0,0,5.64-2.41,40.32,40.32,0,0,0,10.82-8.08,41.77,41.77,0,0,0,2.76-3.19c.43-.56.89-1.1,1.29-1.68L61.77,57A40.51,40.51,0,0,0,67,45.34a36.18,36.18,0,0,0,.89-9.68c.06-.7-.09-1.39-.07-2.1s.06-1.2.1-1.65a3.66,3.66,0,0,1,.4-1.17,3.53,3.53,0,0,1,1.41-1.43,9.52,9.52,0,0,1,.82-.5c.45-.2.89,0,1.38.44a7.67,7.67,0,0,1,1.55,2.36c.22.81.37,1.63.55,2.47l.24,1.27.13,1.28a18.64,18.64,0,0,1,.12,2.59c0,.86-.09,1.73-.16,2.61s-.23,1.73-.35,2.61A25.8,25.8,0,0,1,73.46,47c-.2.86-.49,1.7-.74,2.55s-.64,1.65-1,2.48A50,50,0,0,1,63.5,65.42Z"/><path class="cls-1" d="M73.46,21.72a6.2,6.2,0,0,0-2.25-1.35,2.72,2.72,0,0,0-2,.18A7.38,7.38,0,0,0,67.57,22a17.11,17.11,0,0,0-2.94,3.75c-.94,1.49-1.82,3.06-2.64,4.65a31.54,31.54,0,0,0-1.76,4.42l-.91,2.86a26.18,26.18,0,0,1-1,2.62c-.19.31-1.09.58-2-.12a4,4,0,0,1-1.49-3.39,30.51,30.51,0,0,1,.68-3.27q.48-1.57,1.08-3.09a34.91,34.91,0,0,1,2.94-5.86c.7-1.12,1.32-2.32,2-3.57a20,20,0,0,1,1.19-2,9.6,9.6,0,0,1,.74-.92,6.82,6.82,0,0,1,.85-.85,9.79,9.79,0,0,1,5.11-2.5,9,9,0,0,1,5.53,1.11,17.75,17.75,0,0,1,4.61,3.79,54.63,54.63,0,0,1,4.93,6.76c1.16,1.77,2.52,3.39,3.67,5.19a8.24,8.24,0,0,1,.69,1.23c.68,1.62.48,2.34-.71,3.17a8.26,8.26,0,0,1-.81.55,2.37,2.37,0,0,1-2.87-.68,20,20,0,0,1-1.8-2c-.53-.71-1-1.44-1.54-2.17-1-1.46-1.95-3-2.95-4.38a25.27,25.27,0,0,0-4.74-5.41Z"/></g></svg>