<svg xmlns="http://www.w3.org/2000/svg" width="96" height="96" viewBox="0 0 96 96"><defs><style>.cls-1{fill:#231f20;}</style></defs><title>scribble final version</title><g id="Layer_1" data-name="Layer 1"><path class="cls-1" d="M30.35,58.74c.91,2.44,1.77,4.91,2.59,7.39.29.91.73,1.77,1,2.7.47,1.62.87,3.27,1.24,4.92s.61,3.35.84,5c.22,1.48.49,3,.73,4.44a15.71,15.71,0,0,1,0,5.76c-.13.6-.83.5-1.6,0a4.31,4.31,0,0,1-1.9-2.3c-.18-.88-.45-1.75-.64-2.63l-.53-2.64c-.35-1.77-.72-3.55-1-5.38a32.68,32.68,0,0,0-2-6.51c-.83-2.37-1.72-4.75-2.68-7.11-.59-1.46-1.19-2.92-1.83-4.36-1-2.19-1.9-4.42-3-6.58-.41-.85-.94-1.64-1.37-2.49A25.25,25.25,0,0,1,19,46.33,5.2,5.2,0,0,1,18.59,45c0-.23,0-.44-.05-.63s0-.4,0-.57a2,2,0,0,1,.28-.87,1.81,1.81,0,0,1,1.28-.76,2.46,2.46,0,0,1,.64-.06,1.91,1.91,0,0,1,.88.49l.52.38a1.92,1.92,0,0,1,.44.46c.85,1,1.68,2.33,2.61,3.65s1.46,2.92,2.19,4.46c1,2.31,2,4.73,3,7.14Z"/><path class="cls-1" d="M24.19,41.21c-.17.21-.43-.11-.69-.71a3,3,0,0,1-.15-.9,4.19,4.19,0,0,1,.19-.54c0-.06.85-.76,1.1-1.07a3,3,0,0,1,.82-.63c.59-.34,1.16-.74,1.75-1.11a.81.81,0,0,1,.44-.13,2.18,2.18,0,0,0,1.44-.61c.07-.06.16-.08.17-.27s1.21-1.12,1.42-1.1c.53.07,1,0,1.52,0,.08,0,.11-.08.26.09.35.42.44.28.58.25a1.55,1.55,0,0,1,.67,0,2.26,2.26,0,0,1,.53.42,3.45,3.45,0,0,1,.49,1,2.5,2.5,0,0,0,.41.84l.15.3a5.91,5.91,0,0,1-.54,2c0,.09-1.52,1-1.67,1.1s-.23,0-.36,0-1.26.73-1.33.72c-.3,0-.52.25-.95,0-.08-.06-.13,0-.18,0a5.49,5.49,0,0,1-1.53.22,6.8,6.8,0,0,0-.75.18.5.5,0,0,1-.16,0c-.07,0-.14,0-.19,0a13.91,13.91,0,0,0-1.81.4c-.14.05-.9-.14-1.06-.07S24.25,41.12,24.19,41.21Z"/><path class="cls-1" d="M21.08,36.88c.08.24-.33.29-1,.19a2.35,2.35,0,0,1-.81-.36,5.46,5.46,0,0,1-.34-.48c0-.08-.1-1.28-.19-1.72a3.47,3.47,0,0,1,0-1.16,16.25,16.25,0,0,1,.34-2.25.89.89,0,0,1,.25-.44A2.72,2.72,0,0,0,20,29.08a.3.3,0,0,0-.07-.32,3.17,3.17,0,0,1,.33-1.87,12.62,12.62,0,0,0,1.26-1.13c.06-.05,0-.14.23-.14.47,0,.44-.17.53-.3a1.79,1.79,0,0,1,.56-.47,3.79,3.79,0,0,1,.57-.13,1.56,1.56,0,0,1,.74.16c.14.14.41.12.63.16l.24.06a8.37,8.37,0,0,1,.59.89,2.62,2.62,0,0,1,.32.62.9.9,0,0,1,.1.32s-.12,1.89-.14,2.15-.14.18-.24.26-.26,1.5-.3,1.55c-.16.26-.13.59-.6.74a.15.15,0,0,0-.11.15,5.46,5.46,0,0,1-.77,1.37c-.14.23-.2.49-.34.72,0,0-.1.06-.14.1a.53.53,0,0,0-.16.13,14.19,14.19,0,0,0-.9,1.67c-.05.13-.69.63-.72.8S21.05,36.77,21.08,36.88Z"/><path class="cls-1" d="M15.24,35.63c.24,0,0,.4-.47.92a3,3,0,0,1-.78.58,3.77,3.77,0,0,1-.65,0c-.12,0-1.22-.61-1.66-.78a1.85,1.85,0,0,1-.9-.7L9.4,34.05a.9.9,0,0,1-.18-.45,2.12,2.12,0,0,0-.75-1.4c-.07-.06-.1-.15-.29-.13s-1.06-1.16-1-1.37,0-.52,0-.8l0-.81c0-.07-.08-.1.05-.26.3-.37.16-.44.15-.59a1.2,1.2,0,0,1,0-.68A4.62,4.62,0,0,1,7.62,27a1.13,1.13,0,0,1,.48-.42c.17,0,.29-.23.42-.36l.15-.13a1.35,1.35,0,0,1,.36,0,3.57,3.57,0,0,1,.73,0,3.64,3.64,0,0,1,1,.19l.84.59c.43.29.73.67.84.72s.06.22.06.34,1.09,1,1.07,1.08c.09.29.35.45.14.91a.14.14,0,0,0,0,.18,4.67,4.67,0,0,1,.48,1.39,3.7,3.7,0,0,0,.33.66s0,.11,0,.16a.41.41,0,0,0,0,.19,5,5,0,0,1,.36.78,5.39,5.39,0,0,0,.38.76c.06.1,0,.9.07,1S15.13,35.62,15.24,35.63Z"/><path class="cls-1" d="M14,40.74c.21-.19.43.22.53.94a3.83,3.83,0,0,1-.07,1l-.26.55c0,.06-.93.64-1.23.92a2.67,2.67,0,0,1-.91.51c-.65.13-1.3.31-2,.46a.81.81,0,0,1-.46,0,2.25,2.25,0,0,0-1.56.1c-.09,0-.18,0-.23.19s-1.47.59-1.68.52c-.5-.2-1-.25-1.47-.42-.07,0-.13,0-.22-.13-.22-.39-.35-.3-.49-.31a1.68,1.68,0,0,1-.64-.14c-.11-.05-.25-.27-.38-.44a2.14,2.14,0,0,1-.17-.86,1.94,1.94,0,0,0-.14-.75c0-.09,0-.2,0-.27a5.57,5.57,0,0,1,1-1.5s1.61-.64,1.78-.74.21,0,.32.07,1.32-.52,1.38-.52c.28,0,.54-.18.87.14.07.06.12,0,.18,0a4.46,4.46,0,0,1,1.46,0,6.23,6.23,0,0,0,.74-.09s.1,0,.15.06.12.06.17.05c.58-.14,1.21,0,1.8-.07.14,0,.86.38,1,.33S13.93,40.83,14,40.74Z"/><path class="cls-1" d="M15.21,46.2c-.11-.26.33-.17,1.09.11a4.63,4.63,0,0,1,1,.57,5.86,5.86,0,0,1,.37.54c.05.1,0,1.16,0,1.54a2.16,2.16,0,0,1-.2,1c-.24.6-.44,1.22-.67,1.82a.69.69,0,0,1-.29.32,2,2,0,0,0-.82,1.21.26.26,0,0,0,0,.29c.16.24-.38,1.44-.56,1.54-.43.24-.82.51-1.23.76-.06,0,0,.12-.23.08-.44-.1-.44,0-.53.15a1.54,1.54,0,0,1-.49.35,1.9,1.9,0,0,1-.57,0,2.51,2.51,0,0,1-.77-.43,2.45,2.45,0,0,0-.66-.39l-.25-.14a5.84,5.84,0,0,1-.57-1.66s.1-.4.2-.82.24-.82.24-.91.14-.13.24-.18.36-1.24.39-1.28.16-.49.61-.52c.09,0,.1-.06.12-.11a3.62,3.62,0,0,1,.81-1,3.36,3.36,0,0,0,.35-.57.52.52,0,0,1,.13-.06c.06,0,.13,0,.15-.09a7.68,7.68,0,0,0,.83-1.34c0-.12.67-.42.7-.56S15.25,46.31,15.21,46.2Z"/><path class="cls-1" d="M49.48,45.68c-.68,3.06-1.16,6.18-1.67,9.31-.18,1.14-.2,2.3-.37,3.45q-.42,3-.77,6.1l-.59,6.15c-.16,1.83-.19,3.66-.2,5.48,0,1.17.07,2.33,0,3.51s-.31,2.35-.55,3.53c-.17.73-.49.62-1,0a9.87,9.87,0,0,1-1.59-3.08c-.07-.29-.16-.59-.21-.89l-.07-.9-.14-1.79c-.08-1.2-.14-2.41-.17-3.61a41.12,41.12,0,0,1,.34-7.26c.39-2.89.3-5.93.57-8.9.14-1.63.33-3.27.55-4.89s.51-3.25.81-4.87c.36-2,.8-4,1.25-6,.7-3,1.6-6,2.53-8.89a68.53,68.53,0,0,1,2.3-6.83,11.45,11.45,0,0,1,.65-1.48,8.4,8.4,0,0,1,.69-1.09,2.55,2.55,0,0,1,.73-.56,2,2,0,0,1,1.55,0,5.94,5.94,0,0,1,.78.26c.8.39,1,1.48.61,2.74-1.33,3.63-2.67,7.38-3.8,11.39-.82,3-1.58,6-2.14,9.12Z"/><path class="cls-1" d="M57.45,25.76c-.23-.07-.09-.39.27-.82a2.27,2.27,0,0,1,.63-.44l.5,0c.07,0,1,.46,1.3.56a3.3,3.3,0,0,1,.85.46c.51.37,1.07.71,1.62,1.06a.9.9,0,0,1,.29.32,2.27,2.27,0,0,0,1.1,1,.28.28,0,0,0,.28,0c.26-.1,1.41.6,1.48.78.18.45.44.82.63,1.26,0,.06.12.06,0,.24-.17.42,0,.45.06.56a1.57,1.57,0,0,1,.27.55,2.28,2.28,0,0,1-.11.58,2.39,2.39,0,0,1-.55.72c-.19.11-.33.4-.49.62a2.11,2.11,0,0,1-.17.22,5.07,5.07,0,0,1-1.79.25c-.06,0-1.41-.9-1.58-1s-.1-.19-.13-.3-1.11-.78-1.13-.83c-.16-.24-.43-.35-.39-.79a.17.17,0,0,0-.09-.15,5.28,5.28,0,0,1-.82-1.18,6,6,0,0,0-.47-.55s0-.1,0-.14,0-.13-.06-.17a15.57,15.57,0,0,0-1.08-1.35c-.09-.1-.27-.79-.39-.9S57.54,25.78,57.45,25.76Z"/><path class="cls-1" d="M60.37,21.8c-.2.13-.39-.14-.53-.63a1.77,1.77,0,0,1,0-.7c.1-.15.19-.28.28-.39s1-.48,1.32-.68a3.5,3.5,0,0,1,.94-.4c.65-.2,1.3-.45,1.95-.68a1,1,0,0,1,.45-.06,2.82,2.82,0,0,0,1.53-.34c.08,0,.17-.05.23-.2A3.5,3.5,0,0,1,68.18,17c.49.1,1,.09,1.45.17.07,0,.12-.06.23.09.23.35.35.25.5.24a1.58,1.58,0,0,1,.63.08,1.7,1.7,0,0,1,.4.38,1.91,1.91,0,0,1,.24.79,2,2,0,0,0,.19.69c0,.07.06.18.08.24a5.34,5.34,0,0,1-1,1.5c0,.07-1.66.61-1.84.7s-.22,0-.33-.06-1.36.44-1.42.43c-.3,0-.56.14-.91-.11a.15.15,0,0,0-.17,0,6.83,6.83,0,0,1-1.5,0c-.26,0-.51.05-.76.07a.83.83,0,0,1-.15,0,.39.39,0,0,0-.18,0c-.59.07-1.22,0-1.81.11-.14,0-.84-.2-1-.17S60.45,21.74,60.37,21.8Z"/><path class="cls-1" d="M53.07,16.87c.27.11,0,.48-.61.88a3.68,3.68,0,0,1-1,.38h-.6c-.07,0-1-.56-1.37-.71a2.87,2.87,0,0,1-.85-.6c-.4-.53-.84-1-1.27-1.57a.87.87,0,0,1-.17-.43,2.33,2.33,0,0,0-.77-1.37c-.07-.06-.1-.14-.27-.12S45,12.26,45,12c0-.54-.19-1-.25-1.52,0-.07-.1-.09,0-.25.26-.37.12-.44.07-.58a1.67,1.67,0,0,1-.15-.63,2,2,0,0,1,.24-.54,2.08,2.08,0,0,1,.7-.52,1.88,1.88,0,0,0,.61-.45l.23-.16a5.56,5.56,0,0,1,1.78.26s1.28,1.18,1.44,1.29.07.2.08.32,1,1,1.06,1c.12.26.4.41.26.85,0,.09,0,.12.06.16a5.37,5.37,0,0,1,.66,1.31,3.73,3.73,0,0,0,.4.63s0,.11,0,.16,0,.14,0,.18c.37.46.47,1.11.83,1.6.09.11,0,.93.15,1.06S53,16.84,53.07,16.87Z"/><path class="cls-1" d="M57.58,16.79c0,.27-.42.19-1-.14A2.93,2.93,0,0,1,56,16c-.07-.19-.14-.37-.18-.51s.17-1.08.17-1.47a3.13,3.13,0,0,1,.24-1c.33-.56.62-1.17.93-1.76a.89.89,0,0,1,.31-.33,2.48,2.48,0,0,0,.9-1.25c0-.08.1-.15,0-.28s.53-1.47.7-1.58c.45-.26.78-.59,1.2-.87.06,0,0-.13.22-.1.39.07.41-.08.51-.19a1.48,1.48,0,0,1,.49-.39,1.38,1.38,0,0,1,.52,0,1.63,1.63,0,0,1,.67.37c.11.16.37.23.57.34l.22.12a5.4,5.4,0,0,1,.35,1.64s-.58,1.59-.62,1.78-.15.15-.25.2-.48,1.31-.51,1.35c-.19.21-.22.51-.64.58-.08,0-.09.07-.12.12a5,5,0,0,1-.89,1.12,5,5,0,0,0-.4.62s-.09,0-.13.07a.56.56,0,0,0-.15.1c-.27.52-.79.88-1.08,1.39-.07.12-.78.43-.86.58S57.57,16.69,57.58,16.79Z"/><path class="cls-1" d="M49.87,20.45c.2-.19.35.2.43.92a3.41,3.41,0,0,1-.08,1,3.66,3.66,0,0,1-.3.5c-.05.08-1,.46-1.32.64a2.33,2.33,0,0,1-.94.26c-.65.06-1.29.18-1.94.25a.77.77,0,0,1-.44-.08,2.35,2.35,0,0,0-1.5-.11c-.08,0-.17,0-.25.14s-1.49.32-1.67.22c-.44-.23-.89-.42-1.34-.65-.06,0-.13,0-.19-.14-.13-.39-.27-.33-.41-.36a1.78,1.78,0,0,1-.59-.26,1.54,1.54,0,0,1-.26-.47,1.78,1.78,0,0,1,0-.78,1.67,1.67,0,0,0,.06-.68v-.25a5.29,5.29,0,0,1,1.16-1.11l1.72-.38c.09,0,.19.05.28.11S43.62,19,43.67,19c.26.05.52-.08.78.25,0,.06.1.05.16,0a4.18,4.18,0,0,1,1.34.19,4,4,0,0,0,.69,0s.08.05.12.07.11.08.16.08a10,10,0,0,0,1.64.08c.13,0,.74.36.89.32S49.79,20.52,49.87,20.45Z"/><path class="cls-1" d="M71.2,55.24c-1.16,1.91-2.27,3.88-3.3,5.89-.38.73-.62,1.52-1,2.26l-1,2-1,1.93c-.69,1.3-1.35,2.61-2,4-.54,1.18-.92,2.43-1.35,3.64C61,76.41,60.48,78,59.82,79.47c-.21.47-.57.37-.94-.15a4.4,4.4,0,0,1-.77-2.51,24.11,24.11,0,0,1,2.72-10.07A29.07,29.07,0,0,0,62,63.8c.39-1,.76-2,1.2-3,1-2.13,2.05-4.22,3.16-6.29.67-1.27,1.41-2.53,2.11-3.78,1.09-1.91,2.3-3.76,3.52-5.59a35.65,35.65,0,0,1,2.88-4.32,8.39,8.39,0,0,1,.83-.86c1.15-1,1.92-.87,2.59-.36a4.32,4.32,0,0,1,.46.36c.4.46.26,1.19-.09,2.08-1.1,2.5-2.58,4.85-4,7.48-1.13,1.87-2.33,3.76-3.41,5.74Z"/><path class="cls-1" d="M80.82,45.41c-.17-.08,0-.32.33-.62a1.71,1.71,0,0,1,.57-.27,2.42,2.42,0,0,1,.41,0c.06,0,.71.53,1,.66a2.22,2.22,0,0,1,.6.49c.37.36.76.71,1.16,1.05a1,1,0,0,1,.19.29,1.7,1.7,0,0,0,.76.91c.06,0,.1.1.23.07s1.07.65,1.11.8c.09.39.26.72.37,1.1,0,.06.09.06,0,.2-.19.33-.07.37,0,.47a1.05,1.05,0,0,1,.16.48,1.35,1.35,0,0,1-.15.46,2.33,2.33,0,0,1-.53.52c-.18.06-.32.28-.48.43a1.25,1.25,0,0,1-.17.16,4.21,4.21,0,0,1-1.46,0c-.06,0-1-.89-1.18-1s-.06-.16-.07-.26-.82-.77-.84-.82c-.1-.21-.3-.33-.23-.69,0-.07,0-.1,0-.13A4.72,4.72,0,0,1,82,48.7c-.08-.18-.21-.34-.31-.52s0-.08,0-.12a.21.21,0,0,0,0-.14A14,14,0,0,0,81,46.65c-.07-.09-.11-.68-.19-.78S80.89,45.44,80.82,45.41Z"/><path class="cls-1" d="M83.46,41.12c-.18.1-.29-.17-.34-.63a1.6,1.6,0,0,1,.11-.62,4.23,4.23,0,0,1,.3-.3c.06,0,.91-.26,1.19-.4a2.83,2.83,0,0,1,.82-.21c.56-.08,1.12-.2,1.68-.32a.82.82,0,0,1,.38,0,2.11,2.11,0,0,0,1.29-.09.25.25,0,0,0,.21-.15A2.76,2.76,0,0,1,90.51,38c.4.15.79.2,1.2.34.05,0,.11,0,.17.11.16.35.27.27.4.29a1.18,1.18,0,0,1,.52.15,1.51,1.51,0,0,1,.29.39,1.92,1.92,0,0,1,.11.74,1.48,1.48,0,0,0,.07.64l0,.23a4.65,4.65,0,0,1-1,1.19c0,.06-1.44.32-1.6.38s-.18-.05-.27-.1-1.2.22-1.25.2c-.24,0-.48,0-.74-.22,0-.06-.1,0-.15,0a5.09,5.09,0,0,1-1.26-.2c-.22,0-.43,0-.65-.05,0,0-.07,0-.11-.06a.47.47,0,0,0-.15-.06c-.51,0-1-.19-1.53-.18-.12,0-.67-.31-.8-.31S83.53,41.09,83.46,41.12Z"/><path class="cls-1" d="M76.71,35.13c.21.14-.09.41-.66.68a2.69,2.69,0,0,1-.87.19,4.12,4.12,0,0,1-.53-.13c-.07,0-.78-.75-1.09-1a3,3,0,0,1-.65-.73c-.26-.56-.57-1.1-.85-1.66a.71.71,0,0,1-.09-.41,2.06,2.06,0,0,0-.48-1.35c0-.07-.06-.15-.22-.16s-.88-1.11-.87-1.29c0-.48-.06-.89-.07-1.33,0-.07-.08-.09,0-.22.26-.3.14-.37.1-.48a1.78,1.78,0,0,1-.09-.53,2.42,2.42,0,0,1,.21-.46,2,2,0,0,1,.58-.5c.19,0,.35-.26.52-.41l.19-.16a4.42,4.42,0,0,1,1.7.48l.2.22a4.05,4.05,0,0,1,.41.47c.29.36.58.73.65.8s0,.2,0,.32.84,1.1.85,1.15c.07.27.3.46.12.84,0,.08,0,.12,0,.17a4.63,4.63,0,0,1,.4,1.34,5.18,5.18,0,0,0,.26.65s0,.1,0,.15a.25.25,0,0,0,0,.17c.25.5.23,1.11.47,1.63.06.12-.12.84,0,1S76.62,35.08,76.71,35.13Z"/><path class="cls-1" d="M81.48,35.6c0,.27-.46.13-1-.27a2.61,2.61,0,0,1-.53-.71c0-.2-.07-.39-.09-.55s.39-1.08.47-1.49a3.35,3.35,0,0,1,.43-1c.44-.55.85-1.13,1.28-1.7a1,1,0,0,1,.37-.3,2.84,2.84,0,0,0,1.16-1.17c0-.08.12-.14.07-.29s.81-1.44,1-1.53c.5-.22.89-.52,1.37-.75.07,0,.08-.12.24-.07.39.12.43,0,.55-.13a1.88,1.88,0,0,1,.57-.34,1.47,1.47,0,0,1,.53,0,1.61,1.61,0,0,1,.61.47c.07.18.33.29.51.42l.19.15a5.34,5.34,0,0,1,0,1.74s-.88,1.57-1,1.76-.17.13-.28.18-.73,1.28-.78,1.31c-.22.2-.31.5-.75.52-.08,0-.11.06-.14.11a5.51,5.51,0,0,1-1.12,1,7.17,7.17,0,0,0-.52.58s-.09,0-.14.06-.13,0-.17.09c-.37.49-1,.79-1.35,1.28-.1.11-.88.34-1,.48S81.49,35.49,81.48,35.6Z"/><path class="cls-1" d="M73.08,38.22c.2-.15.24.24.19,1a4.26,4.26,0,0,1-.23,1,3.71,3.71,0,0,1-.37.45c-.07.07-1,.29-1.31.41a1.88,1.88,0,0,1-.87.08L68.77,41a.65.65,0,0,1-.35-.16,1.73,1.73,0,0,0-1.24-.39.23.23,0,0,0-.24.09c-.16.2-1.33,0-1.45-.09-.32-.3-.65-.56-1-.85,0,0-.12,0-.13-.17,0-.4-.15-.36-.26-.42a1.24,1.24,0,0,1-.42-.32,1.88,1.88,0,0,1-.13-.49,2.2,2.2,0,0,1,.17-.77,2.06,2.06,0,0,0,.16-.66l0-.25a5.26,5.26,0,0,1,1.28-.91l.74,0c.38,0,.76,0,.84,0s.15.09.21.16,1.15,0,1.19,0c.21.09.46,0,.6.38,0,.08.08.07.12.07a3.4,3.4,0,0,1,1.09.43,2.31,2.31,0,0,0,.57.16s.06.07.09.1.07.09.11.1a6.41,6.41,0,0,0,1.35.36c.11,0,.53.47.66.46S73,38.29,73.08,38.22Z"/></g></svg>