<svg xmlns="http://www.w3.org/2000/svg" width="96" height="96" viewBox="0 0 96 96"><defs><style>.cls-1{fill:#231f20;}</style></defs><title>scribble final version</title><g id="Layer_1" data-name="Layer 1"><path class="cls-1" d="M20.46,54.18a30.16,30.16,0,0,0,5,13.13,28.21,28.21,0,0,0,3.39,3.94,27,27,0,0,0,7.24,5.61,29.18,29.18,0,0,0,8.92,3,37.18,37.18,0,0,0,8.57.38c1.83-.11,3.67-.35,5.51-.6s3.73-.33,5.62-.51c1.17-.08,1.12.34.27,1.1A14.32,14.32,0,0,1,60.38,83a48.55,48.55,0,0,1-12,1.63,28.79,28.79,0,0,1-6.18-.66,27.21,27.21,0,0,1-3-.8l-1.5-.5c-.49-.19-1-.42-1.45-.63-4.6-2-9.24-4.77-12.56-8.7A35.26,35.26,0,0,1,16.1,58.53l-.17-.61-.1-.63L15.62,56a21.53,21.53,0,0,1-.36-2.52,38.89,38.89,0,0,1-.15-5.06,41.53,41.53,0,0,1,3.31-14.78L19,32.31,19.63,31l.65-1.31L20.6,29l.38-.62c.52-.83,1-1.68,1.56-2.49s1.26-1.51,1.9-2.26a15.06,15.06,0,0,1,1.83-1.83,16.48,16.48,0,0,1,1.6-1.28A7.9,7.9,0,0,1,29.2,20,2.93,2.93,0,0,1,31,19.92a3.08,3.08,0,0,1,.64.18c.27.14.21.5-.07,1a11.93,11.93,0,0,1-1.43,2.14A46.83,46.83,0,0,0,21.44,40a33.67,33.67,0,0,0-.85,14.12Z"/><path class="cls-1" d="M42.46,37.53a18.61,18.61,0,0,0,2.46,10.66,17.6,17.6,0,0,0,2.57,3.16,22.59,22.59,0,0,0,5.85,4.47,24.27,24.27,0,0,0,7.25,2.46,23.2,23.2,0,0,0,6.91.06c3-.36,5.82-1.08,8.79-1.73.94-.19,1.12.5.64,1.54a6.6,6.6,0,0,1-3.45,3.2c-.8.31-1.61.6-2.44.83a19.57,19.57,0,0,1-2.51.62c-.85.14-1.72.2-2.58.28s-1.74.08-2.61,0a26.22,26.22,0,0,1-10.18-2.29,46.59,46.59,0,0,1-5.65-3,21.77,21.77,0,0,1-4.89-4.3,22.79,22.79,0,0,1-5.15-13,29.07,29.07,0,0,1,.7-8.45A22.18,22.18,0,0,1,40.43,26a27.54,27.54,0,0,1,3.81-5.16c.53-.64,1.14-1.18,1.71-1.79s1.18-1.14,1.82-1.64a28.73,28.73,0,0,1,4-2.9,11.72,11.72,0,0,1,2-.93,9.26,9.26,0,0,1,1.66-.46,4.35,4.35,0,0,1,1.22,0,2.61,2.61,0,0,1,1.53.86,5.12,5.12,0,0,1,.51.57c.41.65-.43,1.57-1.8,2.79-.55.33-1.07.75-1.59,1.12-.26.19-.51.4-.76.6s-.54.32-.79.51c-1.05.69-2.07,1.41-3,2.19a22.59,22.59,0,0,0-5,5.33,17.51,17.51,0,0,0-2.19,4.85,25.74,25.74,0,0,0-.88,5.59Z"/><path class="cls-1" d="M19.29,45.42a34.16,34.16,0,0,0-.58,5.23A32.47,32.47,0,0,0,19,55.87a29.11,29.11,0,0,0,3.49,9.85,10.15,10.15,0,0,0,1,1.62l1.16,1.55c.89.93,1.69,2,2.66,2.81a29.85,29.85,0,0,0,5.47,4.22,33.86,33.86,0,0,0,6.43,2.89,36.68,36.68,0,0,0,14.24,1.71,26.9,26.9,0,0,0,3.22-.37,25.67,25.67,0,0,0,3.16-.66,31.83,31.83,0,0,0,6-2.27c4.93-2.43,9.16-6.17,13.59-9.74,1.39-1.12,1.74-.42,1.2,1.2a16.67,16.67,0,0,1-4.51,6.55,44.89,44.89,0,0,1-7.48,5.49,32.66,32.66,0,0,1-8.81,3.51l-1.16.27-1.16.21c-.77.12-1.54.28-2.32.38a43.26,43.26,0,0,1-4.69.3,41.22,41.22,0,0,1-4.71-.19c-.78-.08-1.56-.22-2.34-.33l-1.16-.19-1.15-.27a48.13,48.13,0,0,1-10.84-3.82A33,33,0,0,1,21,73.53a33.43,33.43,0,0,1-6.67-11,32.3,32.3,0,0,1-1.56-6.25,34.89,34.89,0,0,1-.39-6.37A42.67,42.67,0,0,1,15.7,34.86,39.66,39.66,0,0,1,30.06,16.78a38.89,38.89,0,0,1,8.11-4.11A39.42,39.42,0,0,1,47,10.75c1.33-.16,2.62-.2,4-.24,4.94.17,6.4,1,7.12,2.88a6.67,6.67,0,0,1,.45,1.27c.1.69-.37,1.24-1.26,1.62a6.34,6.34,0,0,1-1.62.42c-.64.09-1.36.13-2.17.2A44.41,44.41,0,0,0,39.8,19.32a33,33,0,0,0-6,3,27.69,27.69,0,0,0-5.16,4.36,35.15,35.15,0,0,0-5.86,8.67,35,35,0,0,0-2,5,34.16,34.16,0,0,0-1.29,5.16Z"/></g></svg>