<svg xmlns="http://www.w3.org/2000/svg" width="96" height="96" viewBox="0 0 96 96"><defs><style>.cls-1{fill:#231f20;}</style></defs><title>scribble final version</title><g id="Layer_1" data-name="Layer 1"><path class="cls-1" d="M16.54,65a40.84,40.84,0,0,0,10.07-4.6L36.93,54.1c2.48-1.53,5-3.25,7.37-4.71,1-.65,2.18-1.44,3.34-2.16a35,35,0,0,1,3.73-2q1-.47,2.07-.87a13.28,13.28,0,0,1,2.85-.73,7.16,7.16,0,0,1,3,.17L60,44a2,2,0,0,1,.65.34,4.89,4.89,0,0,1,1,1,3.49,3.49,0,0,1,.67,1.18,6.51,6.51,0,0,1,.15,1.32,8.42,8.42,0,0,1-.7,2.78c-.2.46-.39.94-.61,1.37l-.31.61-.23.44-.93,1.7-.62,1.11a5.56,5.56,0,0,0-.37.78,1.25,1.25,0,0,0-.1.87.77.77,0,0,0,.74.34,4.38,4.38,0,0,0,.8-.1l.4-.1.57-.18.58-.18.76-.27c.52-.19,1-.38,1.55-.6,2.07-.85,4.11-1.86,6.14-2.88a84.2,84.2,0,0,1,8.07-3.82,26.18,26.18,0,0,1,8.94-2c2,0,1.63.7.2,1.59l-1.25.75c-.48.27-1,.55-1.57.89-1.13.61-2.41,1.37-3.86,2l-1.93,1c-.64.34-1.27.67-1.93,1-1.3.66-2.59,1.35-3.92,2.06a83.78,83.78,0,0,1-8.34,4l-1.12.44c-.15.06-.51.17-.76.25L61.9,62l-.83.26-.41.13-.52.1a8.71,8.71,0,0,1-2,.29,5.37,5.37,0,0,1-1.78-.17,5.17,5.17,0,0,1-1.42-.73,6.76,6.76,0,0,1-.63-.58,4.63,4.63,0,0,1-.45-.73,3.72,3.72,0,0,1-.4-1.56,7.74,7.74,0,0,1,.83-3.61c.26-.61.64-1.3.91-1.81l.66-1.13L57,50.54a5.88,5.88,0,0,0,.35-.51,1,1,0,0,0,.16-.82A1.27,1.27,0,0,0,56.14,49l-.22.07a4.32,4.32,0,0,0-.45.19c-.31.13-.62.28-.94.44-.62.33-1.26.7-1.89,1.1-1.25.81-2.53,1.66-3.83,2.6l-1,.71-1.07.7-2,1.3L34.32,62.57l-5.2,3.22c-1.79,1.06-3.63,2.1-5.57,3a30,30,0,0,1-7.68,2.55,18.11,18.11,0,0,1-4.29.26A8.6,8.6,0,0,1,9,71a5.93,5.93,0,0,1-2.21-1.62,5.79,5.79,0,0,1-1-1.81,7.88,7.88,0,0,1-.4-2,12.57,12.57,0,0,1,.29-3.36,29.6,29.6,0,0,1,2-5.76,61.13,61.13,0,0,1,5.8-10.17c1.74-2.46,3.59-4.79,5.51-7,1-1.11,1.94-2.22,2.94-3.29s2-2.09,3.1-3.11,1.81-1.79,2.77-2.64c3.55-3.19,4.93-3.88,6.51-3.69a5.34,5.34,0,0,1,1.05.14c.48.17.49.73.11,1.59a14.47,14.47,0,0,1-2.31,3.37L22.91,43.42A59,59,0,0,0,14.49,56a42.18,42.18,0,0,0-2.1,5.09,16.14,16.14,0,0,0-.61,2.36,7.78,7.78,0,0,0-.15,1.72c0,.06,0,0,0,.09s0,0,0,0l.06,0s0,0,.06,0l.19,0a9,9,0,0,0,2.1-.06,16.75,16.75,0,0,0,2.42-.49Z"/></g></svg>