<svg xmlns="http://www.w3.org/2000/svg" width="96" height="96" viewBox="0 0 96 96"><defs><style>.cls-1{fill:#231f20;}</style></defs><title>scribble final version</title><g id="Layer_1" data-name="Layer 1"><path class="cls-1" d="M82.52,31.27c-.88,1.71-1.81,2.89-3.16,2.54-.78-.22-1.59.21-2.39.3L68.89,35l-4,.44-4.06.21c-2.33.13-4.65.44-7,.65-3.92.36-7.85.76-11.79,1-2,.14-4-.06-6.06.07l-3,.21-3,.16c-2,.11-4.05.2-6.08.24s-4.16-.28-6.23-.39a22.55,22.55,0,0,0-2.31.22,1.08,1.08,0,0,1-.94-.3c-.82-.89-1.08-3.56-.6-6,.38-1.88.86-3.16,1.56-3.18,1.64,0,3.28-.06,4.93-.13l4.94-.12c1.34,0,2.67-.4,4-.44,2.09-.05,4.2.08,6.3.16,3.09.08,6.18.2,9.27.13,3.54-.07,7.07-.32,10.61-.48,1.12-.05,2.24-.08,3.35-.1l5.26-.1c1.75,0,3.51.15,5.27.21,3.66.15,7.31.29,11,.53a3.87,3.87,0,0,1,.82.12C82.12,28.44,82.28,28.78,82.52,31.27Z"/><path class="cls-1" d="M71.77,65.24c-.64,1.44-1.47,2.48-2.6,2.18a5.74,5.74,0,0,0-2,.26c-4.5.44-9,.73-13.45,1-1,.08-1.92.18-2.89.3s-1.92.13-2.88.16c-3.25.13-6.49.28-9.74.31-1.66,0-3.32-.27-5-.26s-3.32.05-5,.09l-2.5,0a17.26,17.26,0,0,1-2.49,0c-1.7-.2-3.38-.65-5.08-.9-.62-.09-1.25,0-1.88,0a.93.93,0,0,1-.76-.31c-.64-.77-.8-2.87-.34-4.8.35-1.48.78-2.52,1.37-2.54,2.72-.07,5.45-.28,8.17-.35,1.1,0,2.21-.23,3.31-.18,1.73.06,3.45.3,5.18.42,2.53.18,5.06.39,7.6.44,2.91.06,5.81-.05,8.72-.08.46,0,.92,0,1.38,0l1.37.11,8.6.76c3,.23,6,.43,8.9.61a2.37,2.37,0,0,1,.65.09C71.31,62.88,71.45,63.16,71.77,65.24Z"/></g></svg>