<svg xmlns="http://www.w3.org/2000/svg" width="96" height="96" viewBox="0 0 96 96"><defs><style>.cls-1{fill:#231f20;}</style></defs><title>scribble final version</title><g id="Layer_1" data-name="Layer 1"><path class="cls-1" d="M18.94,69.84a4.24,4.24,0,0,0,.45-.85l0,0h0a.35.35,0,0,1,.12,0,2.32,2.32,0,0,0,.35-.14c.19-.16-.11.11-.16.28,0,0-.11-.06-.29-.08l-.11,0h0s0,0-.11,0a5.07,5.07,0,0,0-.94.3,37.51,37.51,0,0,1-3.93,1.48,6.3,6.3,0,0,1-3.1.1,4.13,4.13,0,0,1-.86-.37,2.39,2.39,0,0,1-.91-1,4.2,4.2,0,0,1,.06-3,5.36,5.36,0,0,1,.67-1.12c.3-.33.61-.65,1-1a14,14,0,0,1,3.4-2.21,9.79,9.79,0,0,0,.89-.48c.23-.14.54-.31.53-.36a.6.6,0,0,0,.16-.24.41.41,0,0,1,.07-.11l.05-.19.06-.26h0l.18,0a1.58,1.58,0,0,0,.24-.09,1.67,1.67,0,0,0-.18.32c0,.05-.06,0-.17,0a8.34,8.34,0,0,0-2.51.47c-.93.27-1.88.56-2.88.81-.63.15-.78-.36-.54-1.13a4.5,4.5,0,0,1,2-2.48,17,17,0,0,1,1.6-.75,7.57,7.57,0,0,1,2-.53,4.23,4.23,0,0,1,1.57.1,3.45,3.45,0,0,1,1.1.51,3.19,3.19,0,0,1,1,1.08,4.07,4.07,0,0,1,.5,2.15,5.2,5.2,0,0,1-.09.73,3.89,3.89,0,0,1-.19.67c-.09.25-.19.5-.3.74a6.89,6.89,0,0,1-.4.64l-.22.3C19,64,19,64,19,64l-.15.12-.26,0a7.44,7.44,0,0,0-1.12.3c-.66.21-1,.72-.91,1.14.08.21.36.19.55.15l.55-.16a6,6,0,0,1,1.31-.32c.08,0,.09,0,.45,0s.5.06.75.1a4.32,4.32,0,0,1,.77.22,3.21,3.21,0,0,1,.8.38,3.81,3.81,0,0,1,.74.61,3.64,3.64,0,0,1,.85,2.48,6.73,6.73,0,0,1-.94,3.22,6.86,6.86,0,0,1-1,1.35c-.12.11-.19.21-.34.33s-.3.24-.42.32a7.35,7.35,0,0,1-.7.39c-.73.32-1.37.51-2.11.84a5.7,5.7,0,0,0-1,.54c-.3.19-.65.52-.47.89s.57.29.9.27.7-.08,1-.12A6.17,6.17,0,0,1,19.86,77h.2l.21.09a4.17,4.17,0,0,1,.83.44,3.16,3.16,0,0,1,1.45,1.94,1.67,1.67,0,0,1-.63,1.35,4.34,4.34,0,0,1-.57.5,1.54,1.54,0,0,1-1.14.14A2.78,2.78,0,0,1,19.06,81a2.06,2.06,0,0,0-.62-.35l-.17-.07-.09,0-.3-.09a1.37,1.37,0,0,0-.7-.1c-.28,0-.53,0-.88.06a19.07,19.07,0,0,1-2,.15,6.73,6.73,0,0,1-.83-.06c-.22,0-.48-.08-.65-.13a4.51,4.51,0,0,1-.89-.34,3,3,0,0,1-.55-.3,2.92,2.92,0,0,1-.63-.53,2.51,2.51,0,0,1-.54-1.06,3.1,3.1,0,0,1-.12-1l.1-.77a2.52,2.52,0,0,1,.47-1.31,1.91,1.91,0,0,1,.37-.49c.16-.16.29-.32.47-.48l.55-.51c.23-.16.5-.31.74-.47s.53-.32.8-.48a7.87,7.87,0,0,1,.87-.46l1.87-.89.94-.46.61-.32a1.64,1.64,0,0,1,.23-.07s0,0,0,0l.25.36a7,7,0,0,0,.56.66l.15.16,0,0,0,0h0l-1.09-1.18h0l0,0a2.46,2.46,0,0,0,.72-.79Z"/><path class="cls-1" d="M23.42,66.67l.33,2.27c.07.77.16,1.53.21,2.29,0,.56.18,1.09.19,1.65a30.07,30.07,0,0,1-.59,5.85c-.13.86-.26,1.71-.38,2.56A6.87,6.87,0,0,1,22,84.43c-.23.29-.75,0-1.25-.47a2.71,2.71,0,0,1-1-1.66,40,40,0,0,1,.66-5.84,16.06,16.06,0,0,0-.14-3.72c-.06-.69-.11-1.38-.21-2.06s-.18-1.38-.31-2.07c-.13-.85-.35-1.68-.55-2.52A22,22,0,0,0,18,62.39a17.76,17.76,0,0,0-1.76-2.46c-.13-.18-.29-.33-.41-.52-.42-.7-.3-1.06.51-1.75.19-.15.36-.32.56-.46a1.55,1.55,0,0,1,1.94-.08,11.47,11.47,0,0,1,1.16,1,8.33,8.33,0,0,1,.9,1.24,17,17,0,0,1,1.36,2.78,34,34,0,0,1,1.3,4.46Z"/><path class="cls-1" d="M46.62,41.46a44.76,44.76,0,0,1-13.2,12.12c-.93.56-1.87,1.11-2.81,1.65a31.45,31.45,0,0,1-2.91,1.44,56,56,0,0,1-7.94,2.72c-1.35.33-2.69.69-4.06.93-.68.13-1.35.27-2,.39l-1,.14-.43,0a4.44,4.44,0,0,0-.62.1.71.71,0,0,0-.15.57,4.48,4.48,0,0,0,.06.62l0,.17.07.31.16.68c.36,1.54.84,3.11,1.28,4.71s.68,3.26.92,4.92a25.51,25.51,0,0,1,.2,6.61,13,13,0,0,1-2.55,6.36c-1,1.13-1.55.29-1.84-1.1-.16-.7-.31-1.55-.43-2.42a12.07,12.07,0,0,1-.16-2.78,32.56,32.56,0,0,0-.11-4.81,49.74,49.74,0,0,0-.86-5.07C8,68,7.81,66.19,7.47,64.3l-.29-1.84A9.49,9.49,0,0,1,7,61.18a6.17,6.17,0,0,1,0-1.22,3.67,3.67,0,0,1,.91-2A4.48,4.48,0,0,1,10,57l1.34-.21L12,56.7l.36-.05c.49,0,1-.11,1.44-.19a46.06,46.06,0,0,0,14.12-4.78,40.91,40.91,0,0,0,12.83-10,46.53,46.53,0,0,0,5.68-8.44c.8-1.33,1.55-2.71,2.34-4.11.4-.71.82-1.4,1.28-2.16a3.41,3.41,0,0,1,2.56-1.86l.61,0a3.77,3.77,0,0,1,.47,0,6.35,6.35,0,0,1,1,.14,5.65,5.65,0,0,1,1.87.75,6,6,0,0,1,2.34,3.15,14.3,14.3,0,0,1,.27,6.73,24,24,0,0,1-.76,3.17,21.42,21.42,0,0,1-1.27,3,21.34,21.34,0,0,1-1.43,2.49A10.3,10.3,0,0,1,53,47.34a2.37,2.37,0,0,1-1.93.38,2.94,2.94,0,0,1-.79-.21c-.71-.4-.07-1.67,1.13-3.54A29.29,29.29,0,0,0,55,34.74a9.86,9.86,0,0,0,.08-4.31,2.27,2.27,0,0,0-.61-1.12,1.9,1.9,0,0,0-1.14-.46,1,1,0,0,0-.25,0s0,0,.05,0,0,0,0,0a1.84,1.84,0,0,0-.19.28l-.22.33c-.13.29-.23.55-.35.85L51,34.06A17.62,17.62,0,0,1,50.13,36c-.34.63-.7,1.25-1.06,1.87-.74,1.23-1.51,2.45-2.35,3.63Z"/><path class="cls-1" d="M54.85,89.51c-2.56-.19-5-.56-7.53-.88-.91-.14-1.82-.15-2.72-.3-3.17-.56-6.32-1.22-9.45-1.93-1.39-.33-2.79-.58-4.19-.85-.89-.17-1.8-.34-2.7-.56l-.68-.2L27,84.42a9.88,9.88,0,0,1-1.21-.86c-.48-.4-.22-.7.43-1,.32-.18.75-.4,1.19-.62.24-.11.5-.23.76-.33l.39-.14a1.45,1.45,0,0,1,.35,0c3.38.66,7,1.05,10.5,2.09a44.09,44.09,0,0,0,6.62.88q3.66.43,7.31.71l2.25.12,2.23,0A26,26,0,0,0,61,85a3.64,3.64,0,0,0,.7-.16,4.42,4.42,0,0,0,.64-.22,5.42,5.42,0,0,0,.64-.34,4.25,4.25,0,0,0,.48-.33,1.73,1.73,0,0,0,.69-1.14,1,1,0,0,0-.63-1,2.5,2.5,0,0,0-.47-.12.69.69,0,0,1-.27-.16,1.52,1.52,0,0,1-.18-.41,4,4,0,0,1-.14-1.52c0-.28,0-.55,0-.8a1.52,1.52,0,0,1,.65-1.09,4.89,4.89,0,0,1,.77-.47c.16-.06.3-.2.5-.18l.65.12a5.72,5.72,0,0,1,3.5,2.22,6.37,6.37,0,0,1,.89,1.92,6.18,6.18,0,0,1-.11,2.14c-.2,1.45-1.49,2.64-2.68,3.69a11.17,11.17,0,0,1-1.74,1.18l-.73.36a7.14,7.14,0,0,1-.89.31,10.28,10.28,0,0,1-2.41.49,6.91,6.91,0,0,1-1.07.09l-1,0c-.69,0-1.33,0-2,0s-1.32,0-2-.06Z"/><path class="cls-1" d="M73.49,69.37c.15.2.27.41.41.62l.19.31a1.59,1.59,0,0,1,.07.4c0,.55.13,1.09.13,1.63l0,.79a2.92,2.92,0,0,1,0,.78l-.15.76a2.78,2.78,0,0,1-.27.63c-.14.3-.26.59-.39.83a3.51,3.51,0,0,1-.43.73,6.75,6.75,0,0,1-2.09,1.79,8.23,8.23,0,0,1-2.37.93,8.81,8.81,0,0,1-2.17.31,3.54,3.54,0,0,1-2.68-.81c-.23-.2.07-.57.48-.92a2.83,2.83,0,0,1,1.19-.72,6.3,6.3,0,0,0,1.72-.27,12,12,0,0,0,1.75-.59,2.72,2.72,0,0,0,1.38-1.65c.14-.35.17-.63.25-.82a3,3,0,0,0,.08-.77.91.91,0,0,0-.5-.88,2.67,2.67,0,0,0-.4-.13,1.89,1.89,0,0,0-.31,0l-.38,0c-.56,0-1.15-.1-1.78-.18a16.15,16.15,0,0,1-3.07-.42,5.91,5.91,0,0,1-.69-.19,1.34,1.34,0,0,1-.37-.39,1.36,1.36,0,0,1,0-.57,3.72,3.72,0,0,1,.58-1.26c.14-.22.27-.44.42-.64a3.73,3.73,0,0,1,.86-.82A9,9,0,0,1,66,67.13a5.32,5.32,0,0,1,.93-.16,5.52,5.52,0,0,1,.66,0,7,7,0,0,1,1.25,0c.42,0,.92.36,2.16.58l1.49.58.59.53.49.61Z"/><path class="cls-1" d="M65.5,55.51c1.73.69,3.55,1.36,5.44,2.25a10.29,10.29,0,0,1,2.14,1.09,7.94,7.94,0,0,1,3,3.9A9.71,9.71,0,0,1,76.37,65a6.31,6.31,0,0,1-.1,1.21,5.11,5.11,0,0,1-.42,1.23,4.62,4.62,0,0,1-1.5,1.71,6.28,6.28,0,0,1-1.84.8A6,6,0,0,1,68,69.71c-.43-.22-.23-.7.22-1.21A4.25,4.25,0,0,1,70,67.17a4.36,4.36,0,0,0,2.44-.85.86.86,0,0,0,.24-.42,3.84,3.84,0,0,0,0-1.19,2.79,2.79,0,0,0-.08-.45,1.19,1.19,0,0,0-.12-.29,1.67,1.67,0,0,0-.49-.55,9.22,9.22,0,0,0-1.68-1,33.72,33.72,0,0,0-4.92-2.06L62,59.2A39.26,39.26,0,0,1,57,56.92,17.6,17.6,0,0,1,53,54.49a6.14,6.14,0,0,1-.77-.76c-.8-1.12-.57-1.76.27-2.41a6.13,6.13,0,0,1,.6-.44,2.25,2.25,0,0,1,2.15,0c.89.51,1.63,1,2.5,1.39s1.78.85,2.81,1.25c1.52.59,3.15,1.29,4.93,1.86Z"/><path class="cls-1" d="M65.86,23.73c.14.27-.25.41-.94.48A2.41,2.41,0,0,1,64,24a4.48,4.48,0,0,1-.43-.47c-.06-.09-.25-1.43-.38-1.88a4.27,4.27,0,0,1-.1-1.27c0-.85,0-1.69-.06-2.51a1.45,1.45,0,0,1,.08-.54,3.43,3.43,0,0,0,.16-1.87c0-.11,0-.21-.13-.31a5,5,0,0,1-.31-2c.19-.57.23-1.13.44-1.73,0-.08,0-.16.12-.26a.52.52,0,0,0,.27-.57c0-.12,0-.25,0-.38a2,2,0,0,1,.15-.4,3.76,3.76,0,0,1,.34-.44.71.71,0,0,1,.53-.12c.15.08.32-.05.47-.09a.53.53,0,0,1,.17,0,8.41,8.41,0,0,1,.83.62,4.74,4.74,0,0,1,.7.78l.15.35a4.77,4.77,0,0,1,.3.77c.16.58.31,1.2.36,1.32s0,.27-.07.41.4,1.85.37,1.93c0,.37.11.75-.21,1.12a.28.28,0,0,0,0,.23,6.22,6.22,0,0,1-.29,1.9c-.07.31-.07.64-.12.95,0,.06-.06.12-.08.17a.67.67,0,0,0-.1.21c-.07.75-.35,1.48-.36,2.22,0,.18-.47.93-.46,1.13S65.8,23.62,65.86,23.73Z"/><path class="cls-1" d="M74.48,38.09c-.1.22-.4.12-.81-.12a1.13,1.13,0,0,1-.38-.5,3.64,3.64,0,0,1,.08-.51c0-.09.81-1.15,1.08-1.54a4.85,4.85,0,0,1,.9-1,12.26,12.26,0,0,1,2.15-1.58,1.61,1.61,0,0,1,.57-.2A6.24,6.24,0,0,0,80,32c.1,0,.22-.07.29-.22a4.79,4.79,0,0,1,2.17-.8c.33.06.64.05,1,.13l.94.22c.09,0,.18,0,.27.12.21.32.38.26.56.29a1.93,1.93,0,0,1,.75.21,1.42,1.42,0,0,1,.36.37c.11.12,0,.54,0,.59s0,.33,0,.51v.18A10.36,10.36,0,0,1,85,34.73l-.28.11-.6.26c-.43.2-.89.29-1,.37s-.21,0-.32,0-1.32.57-1.37.58c-.29,0-.52.25-.89.07a.18.18,0,0,0-.18,0,11.27,11.27,0,0,1-1.46.45c-.25.08-.48.21-.73.29,0,0-.11,0-.16,0a.44.44,0,0,0-.2,0,9.06,9.06,0,0,0-1.73.8c-.12.08-.88.23-1,.35S74.52,38,74.48,38.09Z"/></g></svg>