<svg xmlns="http://www.w3.org/2000/svg" width="96" height="96" viewBox="0 0 96 96"><defs><style>.cls-1{fill:#231f20;}</style></defs><title>scribble final version</title><g id="Layer_1" data-name="Layer 1"><path class="cls-1" d="M52.82,42.23A115,115,0,0,0,63.73,28.9a17.44,17.44,0,0,0,1.35-2.49c.2-.39.38-.8.51-1.1l.14-.4a.77.77,0,0,0,0-.72l-.27-.29s-.08-.13-.13-.13l-.07,0,0,0-.11-.09a25.11,25.11,0,0,0-4.55-2.44A49.53,49.53,0,0,0,50,18.11,54.12,54.12,0,0,0,40,17.39c-1.06,0-2.12.1-3.18.15s-2.11.22-3.18.24c-2.12.14-4.26.27-6.41.48-1.34.1-1.29-.38-.31-1.24a16.4,16.4,0,0,1,2.13-1.54A15.71,15.71,0,0,1,32.37,14a40.53,40.53,0,0,1,6.82-1.17c1.15-.13,2.31-.17,3.47-.25s2.31,0,3.48,0A47.7,47.7,0,0,1,60,14.67a54.66,54.66,0,0,1,8.34,3.18l.72.41c.26.15.54.29.77.45a8.54,8.54,0,0,1,1.33,1.05l.63.56a2.09,2.09,0,0,1,.55.6,4.79,4.79,0,0,1,.7,1.5,7.54,7.54,0,0,1,.18,3.31,13.31,13.31,0,0,1-.38,1.66,4.73,4.73,0,0,1-.2.7c-.07.2-.14.39-.22.58a28,28,0,0,1-2.34,4.47c-.85,1.37-1.74,2.67-2.65,3.93C65.6,39.6,63.68,42,61.75,44.35c-2.39,2.89-4.86,5.7-7.29,8.51-3.7,4.25-7.55,8.39-11.1,12.67-1.38,1.66-2.65,3.39-3.89,5.14s-2.38,3.55-3.73,5.18c-.58.74-1.09,1.5-1.7,2.21-2.28,2.62-3.39,3.08-5.44,2.43a9.68,9.68,0,0,1-1.38-.44c-1.41-.65-1.56-2.62-.39-5.07.87-1.81,1.81-3.58,2.8-5.34a22.13,22.13,0,0,1,1.63-2.52c.57-.81,1.16-1.62,1.77-2.42,2.41-3.2,5-6.32,7.67-9.3,4-4.47,8.09-8.82,12-13.29Z"/></g></svg>