<svg xmlns="http://www.w3.org/2000/svg" width="96" height="96" viewBox="0 0 96 96"><defs><style>.cls-1{fill:#231f20;}</style></defs><title>scribble final version</title><g id="Layer_1" data-name="Layer 1"><path class="cls-1" d="M68.17,53.34c-4.91-.72-10-1.11-15.12-1.64-2.57-.26-5.16-.57-7.76-1-1.33-.19-2.55-.44-4-.69l-2.65-.54a10.18,10.18,0,0,1-1.43-.4l-1.51-.48a9,9,0,0,1-2-.78,7.41,7.41,0,0,1-1.36-1,5,5,0,0,1-.89-1.31,3.11,3.11,0,0,1-.22-1.77A4.64,4.64,0,0,1,33,40.9a5,5,0,0,1,.72-.62l.94-.55c.32-.18.61-.38.95-.54l1.1-.45,1-.4c.32-.12.65-.19,1-.29l1-.29.48-.14.33-.07c.88-.19,1.75-.34,2.61-.47,1.72-.25,3.4-.41,5.05-.56a54.54,54.54,0,0,0,9.26-1.36,7.72,7.72,0,0,0,1-.31,2.63,2.63,0,0,0,.49-.22.94.94,0,0,0,.45-.79,1.87,1.87,0,0,0-.33-1,6,6,0,0,0-1.24-1.46A19.56,19.56,0,0,0,54,28.88c-1.43-.76-2.83-1.45-4.31-2.06A64.77,64.77,0,0,0,33,22.94a96.09,96.09,0,0,0-11-.67c-1.83,0-3.67,0-5.51.1s-3.71.17-5.45.4c-1.09.13-1.57.17-1.62,0s.4-.63,1.33-1.14a16.73,16.73,0,0,1,4-1.42,30.56,30.56,0,0,1,5.87-.91,87.11,87.11,0,0,1,11.65.12A92.31,92.31,0,0,1,43.86,21,49.28,49.28,0,0,1,55.19,24.8a24.45,24.45,0,0,1,5.42,3.31,10.38,10.38,0,0,1,1.29,1.28,7.73,7.73,0,0,1,.6.76l.28.42c.09.15.19.35.28.52a6.19,6.19,0,0,1,.5,4.81,5,5,0,0,1-1.78,2.27,7.07,7.07,0,0,1-1.26.73,10.82,10.82,0,0,1-1,.43c-.61.22-1.22.4-1.83.6s-1.23.34-1.84.47c-2.45.51-4.86.76-7.19,1A58,58,0,0,0,42,42.49c-.66.15-.75.19-1,.26l-.57.19a6.39,6.39,0,0,0-1,.52c-.17.12-.38.29-.37.52s.22.36.39.46a6,6,0,0,0,1.23.43l.17,0,.08,0L41,45l.62.14c.42.1.77.2,1.47.31,1.23.23,2.47.43,3.72.61,5,.7,10.12,1.06,15.28,1.55,3.18.3,6.38.66,9.57,1.19l2.4.43,2.38.51,1.11.23,1.33.26c1.16.24,2.29.52,3.36.85a12.42,12.42,0,0,1,3,1.33,6.13,6.13,0,0,1,2,1.86,2.94,2.94,0,0,1,.41,1.6,2.38,2.38,0,0,1-.65,1.49A6.82,6.82,0,0,1,84.25,59a23.94,23.94,0,0,1-3.9,1l-2.07.4-1.47.25c-2,.34-3.89.65-5.79,1A56.08,56.08,0,0,0,65.41,63l-.55.18-.4.14c-.26.1-.52.2-.77.32a3.34,3.34,0,0,0-1.25.92.87.87,0,0,0,0,1,2,2,0,0,0,.83.66,8.11,8.11,0,0,0,1.94.62c2.51.64,5.07,1.32,7.64,1.91l4.67,1.05c5.85,1.4,7.63,2.31,8.48,4.1a6.44,6.44,0,0,1,.56,1.21c.24,1.28-2.36,1.57-6.71.8-3.93-.72-7.94-1.54-12-2.57l-3-.81-.73-.19-.39-.11L63.07,72c-.41-.12-.91-.3-1.37-.46s-.92-.35-1.37-.54a9.09,9.09,0,0,1-4-3.12,5.6,5.6,0,0,1-.75-2.17l-.05-.61.08-.61,0-.15c-.06,0,0-.1,0-.15l.07-.28c0-.19.08-.39.13-.56l.7-1.27a2.55,2.55,0,0,1,.46-.59,4.71,4.71,0,0,1,.53-.57,11.92,11.92,0,0,1,3-1.86,17.36,17.36,0,0,1,1.83-.71l1-.33.61-.17c.72-.21,1.42-.38,2.12-.55,1.4-.33,2.82-.59,4.13-.83s2.73-.48,4.07-.7l3.11-.52v0s.09,0,.11,0a.06.06,0,0,0,0-.05l0,0,0,0L76.55,55l-2.19-.47c-.68-.14-1.35-.29-2-.41-1.37-.26-2.76-.47-4.15-.66Z"/></g></svg>