<svg xmlns="http://www.w3.org/2000/svg" width="96" height="96" viewBox="0 0 96 96"><defs><style>.cls-1{fill:#231f20;}</style></defs><title>scribble final version</title><g id="Layer_1" data-name="Layer 1"><path class="cls-1" d="M41.44,90.54a6.45,6.45,0,0,1-1.8-.21l-.81-.22c-.25-.1-.47-.22-.7-.33l-.66-.35c-.2-.13-.38-.28-.56-.42a5.86,5.86,0,0,1-1.08-1c-.26-.3-.56-.56-.83-.85a10.82,10.82,0,0,1-.65-1,5.3,5.3,0,0,1-.39-2,3.63,3.63,0,0,1,.2-1,6.69,6.69,0,0,1,.44-.89,5.31,5.31,0,0,1,3.25-2.1,13,13,0,0,1,1.42-.28,11.73,11.73,0,0,1,1.33-.08A4,4,0,0,1,43.83,81c.27.29-.24.86-.84,1.4s-1.17,1.12-1.49,1.13a7.49,7.49,0,0,0-1.76.16l-.21,0c-.07,0-.17,0-.16,0a.4.4,0,0,0-.13-.07,1,1,0,0,0-.48-.08.42.42,0,0,0-.43.39,1.15,1.15,0,0,0,.2.53,2.58,2.58,0,0,0,.22.31s.11.11.21.18l.27.2a2.19,2.19,0,0,0,.54.32,1.6,1.6,0,0,0,.51.19,1.34,1.34,0,0,0,1-.16.88.88,0,0,0,.24-1.27A2.17,2.17,0,0,0,40,83.75a1.82,1.82,0,0,1-.41,0c-.48-.23-.48-.71-.21-2.11l.18-1a2.33,2.33,0,0,1,1.67-2,2.62,2.62,0,0,1,1-.09,8.88,8.88,0,0,1,1,.21,6.32,6.32,0,0,1,2,1,8.83,8.83,0,0,1,.9.93,3.45,3.45,0,0,1,.72,1.19c.1.23.19.45.27.68s.11.5.16.76a5.71,5.71,0,0,1,.08,1.55A6.09,6.09,0,0,1,45.28,89a6.27,6.27,0,0,1-3.82,1.67Z"/><path class="cls-1" d="M61.2,18.62a28.43,28.43,0,0,1,.52,6,36.85,36.85,0,0,1-.49,5.78c-.24,1.38-.38,2.76-.71,4.11a92.77,92.77,0,0,1-4.65,13.73c-.85,1.95-1.66,3.93-2.53,5.85-1.11,2.46-2.16,5-4,7.08-.56.65-1,.24-1.27-.72a8,8,0,0,1-.23-1.78,5.42,5.42,0,0,1,0-1.06,5.17,5.17,0,0,1,.32-1c2.11-4.87,3.77-9.87,5.87-14.82a46.34,46.34,0,0,0,2.31-9.51,51.81,51.81,0,0,0,1-10.54,20,20,0,0,0-.38-3.13,11,11,0,0,0-1-2.8,5,5,0,0,0-3.19-2.49,4.08,4.08,0,0,0-2,.08,5.93,5.93,0,0,0-1.88,1c-1.83,1.5-3,3.8-4,6.09-.21.52-.4,1-.6,1.55A5.5,5.5,0,0,1,43.15,24a2,2,0,0,1-.6.41,3.5,3.5,0,0,1-.73.15c-.24,0-.47.08-.65.08-.56,0-1.06-1.12-.74-2.77a24.27,24.27,0,0,1,3.1-7.08,15.28,15.28,0,0,1,2.91-3.28,8.9,8.9,0,0,1,4.72-2.06,8.64,8.64,0,0,1,7.2,3,14,14,0,0,1,2.94,6.2Z"/><path class="cls-1" d="M41,14a22.12,22.12,0,0,1,3.11-5.38A11.3,11.3,0,0,1,47,6.08,8.46,8.46,0,0,1,51.31,4.8a9.21,9.21,0,0,1,4.12,1,13,13,0,0,1,3,2.12A7.91,7.91,0,0,1,59.64,9.2a11.18,11.18,0,0,1,1,1.43l.76,1.5c.23.5.38,1,.56,1.5a26.49,26.49,0,0,1,1.35,8.51A60,60,0,0,1,61.22,36,112.74,112.74,0,0,1,57,48.88c-1.49,3.72-3,7.43-4.72,11a67.51,67.51,0,0,1-3.61,6.82,20.7,20.7,0,0,1-5.22,6c-1.51,1-1.71.05-1.44-1.49.11-.8.29-1.78.54-2.91A16.47,16.47,0,0,1,43,66.57a12.62,12.62,0,0,1,.82-1.76,109.24,109.24,0,0,0,6-13.43c1.71-4.65,3.48-9.3,5-14.06a45.07,45.07,0,0,0,1.9-17.6c-.32-3.06-1.3-5.84-3-7.44a6.12,6.12,0,0,0-.7-.53,3.32,3.32,0,0,0-.72-.44A2.51,2.51,0,0,0,51.15,11a2.38,2.38,0,0,0-1.24.47,6.6,6.6,0,0,0-1.37,1.34,21,21,0,0,0-2.72,5.06A49.06,49.06,0,0,0,44,23.79,95.78,95.78,0,0,0,41.3,42.67a112.79,112.79,0,0,0,.52,14.62c.12,1.06.23,2.09.35,3.16s.15,1.8.17,2.49a8.9,8.9,0,0,1-.17,1.72,3.81,3.81,0,0,1-.43,1.17,4.68,4.68,0,0,1-.77.88c-.26.23-.49.53-.71.69-.65.52-2.2-1-2.94-4-1.78-9-1.76-18.49-.86-28,.36-3.54.87-7.08,1.49-10.66A57,57,0,0,1,40.9,13.94Z"/></g></svg>