<svg xmlns="http://www.w3.org/2000/svg" width="96" height="96" viewBox="0 0 96 96"><defs><style>.cls-1{fill:#231f20;}</style></defs><title>scribble final version</title><g id="Layer_1" data-name="Layer 1"><path class="cls-1" d="M69.27,61.49c1.49-3.19,2.93-6.45,4.29-9.73.49-1.2.84-2.45,1.33-3.65,1.76-4.23,3.52-8.46,5.08-12.77.72-1.9,1.19-3.89,1.78-5.8.33-1.24.67-2.49,1-3.73.17-.62.36-1.23.56-1.84a13.56,13.56,0,0,1,.87-1.75c.41-.71,1-.53,1.69.31A9.89,9.89,0,0,1,87,24.25a4.08,4.08,0,0,1,.28,2.22c-.21,1.35-.46,2.68-.74,4-.14.67-.28,1.32-.45,2l-.63,1.92a74.38,74.38,0,0,1-3,7.52c-1.35,2.94-2.18,6.19-3.34,9.28-1.27,3.39-2.63,6.75-4,10.09-.87,2.06-1.78,4.11-2.71,6.16-.53,1.18-1.09,2.35-1.71,3.53q-.45.87-1,1.77c-.19.3-.35.59-.6.92a6,6,0,0,1-.9,1A19.31,19.31,0,0,1,66,76.2,22,22,0,0,1,57.91,80a7.14,7.14,0,0,1-1,.17,5.09,5.09,0,0,1-1,.06,3.78,3.78,0,0,1-2.61-.78,2.67,2.67,0,0,1-.55-2.22,10.71,10.71,0,0,1,.13-1.4,3.32,3.32,0,0,1,2.67-2.69c.85-.1,1.64-.36,2.4-.44s1.53-.15,2.3-.29a17.83,17.83,0,0,0,2.37-.59,3.62,3.62,0,0,0,1.12-.58l.53-.36.25-.2.13-.1s0,0,.06,0-.05.06.06-.11a18.67,18.67,0,0,0,1.09-1.89c.39-.72.77-1.49,1.15-2.27.75-1.56,1.49-3.17,2.19-4.8Z"/><path class="cls-1" d="M16.19,49.45c1.51-3.4,3.07-6.77,4.73-10.1.59-1.22,1.1-2.49,1.74-3.69,1.1-2.13,2.3-4.23,3.58-6.31.33-.51.68-1,1-1.54l.52-.77.59-.76a13.37,13.37,0,0,1,1.29-1.52l.75-.76c.31-.24.65-.48,1-.7a14.64,14.64,0,0,1,7.1-1.53,11.88,11.88,0,0,1,8.25,2.63c.79.78.12,1.11-.81,1.48a14.31,14.31,0,0,1-3.71,1.2l-.91.07a2.45,2.45,0,0,1-.89,0c-.58-.06-1.16-.12-1.73-.13a14.6,14.6,0,0,0-3.17.17,3.78,3.78,0,0,0-.64.14c-.2.06-.4.09-.54.15l-.24.07-.17.07c-.1,0-.29.19-.47.33s-.37.28-.57.47l-.61.66A16.21,16.21,0,0,0,31,30.53a14.32,14.32,0,0,0-1.4,1.92c-.43.69-.86,1.38-1.23,2.12C27.61,36,26.88,37.51,26.16,39c-1.59,3.27-3.17,6.58-4.61,10C20.64,51,19.77,53.11,19,55.22c-1.23,3.19-2.49,6.4-3.43,9.66A73.16,73.16,0,0,0,14,72.56c-.1.56-.16,1.12-.28,1.68a9.34,9.34,0,0,1-.33,1.3,2.87,2.87,0,0,1-.55.81,2.41,2.41,0,0,1-1.51.68,7.09,7.09,0,0,1-.86.12c-.9,0-1.49-1-1.62-2.73a57.14,57.14,0,0,1,3.26-14.51c1.2-3.54,2.59-7,4-10.5Z"/><path class="cls-1" d="M12.06,58.17c2-5.36,4.15-10.65,6.11-16,.71-1.94,1.2-3.94,1.9-5.88.8-2.21,1.58-4.43,2.3-6.64.36-1.1.7-2.21.95-3.32l.37-1.64,0-.21c0-.06,0-.13.05-.28a5.93,5.93,0,0,1,.1-.72,5.82,5.82,0,0,0,.09-.73V22a8.08,8.08,0,0,1,.75-2.76,6.33,6.33,0,0,1,.55-1,2.33,2.33,0,0,1,1.08-.74,6.49,6.49,0,0,1,2.59-.31c.45,0,.95.1,1.43.15s1,.33,1.48.53c1.22.54,2.47.87,3.11,1.11l2.32.75c1.54.47,3.07.89,4.58,1.25,1.95.48,3.91.67,5.8,1a25.76,25.76,0,0,0,5.58.34c1.09-.1,1.45.73.67,2.13a6.76,6.76,0,0,1-2.14,2.14A8.37,8.37,0,0,1,48.07,28a23.58,23.58,0,0,1-3.45.11c-1.12-.1-2.23-.23-3.3-.4-2.17-.33-4.25-.8-6.26-1.31L33.57,26l-.74-.19-.36-.1-.28-.08-.12-.08L32,25.48a.78.78,0,0,0-.16-.15,1,1,0,0,0-.54-.27,1.08,1.08,0,0,0-.34.34.79.79,0,0,0-.17.19l0,.05s0,0-.05.11l-.17.5-.33,1c-.21.64-.43,1.29-.65,1.94-.36,1.29-.73,2.58-1.1,3.88-.72,2.58-1.45,5.15-2.31,7.64-1.89,5.49-3.95,10.88-6,16.26-1.24,3.32-2.49,6.62-3.64,9.94-.86,2.51-1.73,5-2.44,7.53l-.21.76-.15.55a10.25,10.25,0,0,0-.2,1.13,1.82,1.82,0,0,0,0,.57.42.42,0,0,0,.39.35,6.21,6.21,0,0,0,1.14.12H16l1,0,3.11-.11a49.42,49.42,0,0,1,6.42.09,18,18,0,0,1,3,.44,9.7,9.7,0,0,1,2.44,1,3.91,3.91,0,0,1,.86.68,3.75,3.75,0,0,1,.61.73,2.41,2.41,0,0,1,.22,2.65,3.47,3.47,0,0,1-.67.91,2.53,2.53,0,0,1-1.61.28,15.15,15.15,0,0,1-2-.09,24,24,0,0,0-4.5-.54c-1.68-.07-3.45-.08-5.29-.08H16.76l-1.2,0-1.39,0a6.18,6.18,0,0,0-1.51.12,3.42,3.42,0,0,1-1.44-.07c-.46-.06-.87-.17-1.31-.25s-.68-.37-1-.52A2.3,2.3,0,0,1,8,82.36,3.58,3.58,0,0,1,7.69,82l-.08-.11,0,0c.08-.07,0,0,0-.06l0-.06-.21-.23a3.15,3.15,0,0,1-.51-1.06c-.07-.19-.16-.36-.21-.55l-.08-.61A4.47,4.47,0,0,1,6.32,78c0-.44,0-.89,0-1.34a3.42,3.42,0,0,1,.11-1q.09-.52.21-1c.14-.66.36-1.53.42-1.77.2-.75.41-1.49.62-2.21.43-1.44.89-2.85,1.36-4.24.94-2.79,1.92-5.52,2.88-8.25Z"/><path class="cls-1" d="M70.13,60.16c2.16-5.62,4.24-11.28,6.15-17,.7-2.08,1.14-4.23,1.86-6.3,1.23-3.65,2.44-7.32,3.41-11,.25-.91.48-1.82.67-2.72.1-.45.19-.89.27-1.33l.13-.7a1.65,1.65,0,0,0-.15-1.25,1.88,1.88,0,0,0-1.18-.51,5.73,5.73,0,0,0-.61-.06H79.53c-.83,0-1.69,0-2.56.07-1.75.06-3.54.14-5.37.09a23.77,23.77,0,0,1-7.21-1.06A14.11,14.11,0,0,1,61,16.62a11.87,11.87,0,0,1-2.72-2.76c-.89-1.38.38-1.87,2.08-2,.85-.05,1.84-.08,2.78-.07a9.84,9.84,0,0,1,2.78.26,23.58,23.58,0,0,0,5.38.8c2,.08,4.06,0,6.34-.08l1.76,0c.64,0,1,0,2.33.05a8.5,8.5,0,0,1,5.65,2c3.11,2.57,1.57,8.42,1.22,9.9-.69,2.81-1.33,5.56-2,8.33s-1.26,5.53-2,8.23C82.8,47.15,80.83,53,78.8,58.79c-1.25,3.57-2.56,7.13-3.86,10.68-.78,2.15-1.6,4.29-2.46,6.44l-.75,1.88c-.31.76-.63,1.5-1,2.23a9.72,9.72,0,0,1-1.17,1.92l-.71.7a1.25,1.25,0,0,1-.9.45c-.7-.07-1.4-.18-2.13-.27s-1.54-.48-2.32-.75c-.38-.12-.74-.25-1.14-.36l-.79-.2c-.5-.12-1-.22-1.5-.32a20.93,20.93,0,0,0-3-.26c-2.05,0-4.05,0-6.07.21-.89,0-1.76.27-2.65.31a7.52,7.52,0,0,1-3.56-.2,4.07,4.07,0,0,1-1.88-2.17,15,15,0,0,1-.7-1.47,2.43,2.43,0,0,1,.47-2.4,5.28,5.28,0,0,1,3-1.82,33.4,33.4,0,0,1,5.71-1c1-.07,2-.15,3-.13l1.52,0,1.51.18c2,.29,4,.78,6.07,1.27.25.06.5.14.75.21a3,3,0,0,0,.47.13l0,0a0,0,0,0,0,0,0h0s0,.07.07-.17l.41-1,1.63-4.18c1.07-2.82,2.13-5.66,3.14-8.52Z"/></g></svg>