<svg xmlns="http://www.w3.org/2000/svg" width="96" height="96" viewBox="0 0 96 96"><defs><style>.cls-1{fill:#231f20;}</style></defs><title>scribble final version</title><g id="Layer_1" data-name="Layer 1"><path class="cls-1" d="M35.29,67.82a5.89,5.89,0,0,0-.21.59c0,.2-.1.39-.16.59a5.11,5.11,0,0,0-.16,1.26,3,3,0,0,0,.06.86,1.55,1.55,0,0,0,.43.72,5.7,5.7,0,0,0,1.72.91A24.27,24.27,0,0,0,41.46,74a41.49,41.49,0,0,0,5.08.61c1.54.1,3.1,0,4.65,0l1.51-.06c.5,0,1,0,1.52.07a12.29,12.29,0,0,1,3.09.66c.65.26.41.75-.18,1.28a6.35,6.35,0,0,1-2.58,1.53l-1.44.31c-.48.1-1,.12-1.47.19-1,.1-2,.21-3,.28a33.67,33.67,0,0,1-6.26-.07c-2.55-.31-5.32-.19-8.24-1.44a9.6,9.6,0,0,1-2.34-1.45,7.65,7.65,0,0,1-1.85-2.42,8,8,0,0,1-.66-2.78,11.14,11.14,0,0,1,.11-2.58A12.53,12.53,0,0,1,32,62.72a33.48,33.48,0,0,1,6.11-5.42c1.63-1.22,3.11-2.59,4.65-3.76.36-.24.67-.5,1-.72,1.32-.78,1.79-.73,2.78-.09.22.15.47.27.68.42.73.47.64,1.61-.2,2.67-.61.78-1.23,1.5-1.87,2.18s-1.37,1.17-2.05,1.72c-1.37,1.1-2.73,2.13-4,3.2-1.77,1.61-3.27,3.33-3.77,4.94Z"/><path class="cls-1" d="M59.93,45.37c-5.4,6-11.58,10.24-17.57,14.41-2.18,1.51-4.25,3.14-6.34,4.64A46,46,0,0,0,31,68.49c-.19.18-.36.35-.52.52l-.26.27a3.27,3.27,0,0,0-.35.46,1.26,1.26,0,0,0-.13,1.19,2.36,2.36,0,0,0,1.1.6l.51.15.8.19c.54.13,1.09.25,1.64.36,2.22.45,4.49.79,6.78,1.09,2,.23,4.07.48,6.11.67s4.1.32,6.14.43c2.61.15,5.23.2,7.85.21s5.24.06,7.76-.11c1.47-.15,1.57.46.28,1.44a15.41,15.41,0,0,1-7,2.36c-5.48.46-10.93.88-16.43.86A58.75,58.75,0,0,1,37,78.62c-1.38-.17-2.76-.38-4.16-.64-.71-.13-1.4-.26-2.12-.43l-1.14-.28a14.56,14.56,0,0,1-1.73-.51,6.82,6.82,0,0,1-3.27-2A3.87,3.87,0,0,1,24,74a7.61,7.61,0,0,1-.35-.9,6.43,6.43,0,0,1-.28-1.9,7.79,7.79,0,0,1,1.15-3.77l.56-.87.63-.84c.22-.29.36-.43.52-.63s.32-.35.48-.53a59.25,59.25,0,0,1,8-6.77c6-4.32,12-8.29,17.06-13.15,3.06-3,5.76-6.35,6.9-10.07a11.91,11.91,0,0,0-.5-8.41,6.19,6.19,0,0,0-6-4.05,14.15,14.15,0,0,0-6.4,1.83A32.78,32.78,0,0,0,40.06,28c-.8.66-1.51,1.39-2.27,2.1-2.79,2.66-3.68,3.42-5.64,3.23a12.19,12.19,0,0,1-1.25-.05c-.63-.13-.93-.67-.95-1.7a7.73,7.73,0,0,1,1.34-3.88,32.4,32.4,0,0,1,4.94-6.22,30.6,30.6,0,0,1,6.89-4.68,23.11,23.11,0,0,1,4.21-1.6,21.4,21.4,0,0,1,2.36-.51,18.09,18.09,0,0,1,2.57-.11,14.62,14.62,0,0,1,5.5,1.21,12.7,12.7,0,0,1,4.73,3.59,16.51,16.51,0,0,1,3.34,6.94,18.76,18.76,0,0,1,.23,7.35,21.54,21.54,0,0,1-2.34,6.57,31.1,31.1,0,0,1-3.66,5.24Z"/></g></svg>