<svg xmlns="http://www.w3.org/2000/svg" width="96" height="96" viewBox="0 0 96 96"><defs><style>.cls-1{fill:#231f20;}</style></defs><title>scribble final version</title><g id="Layer_1" data-name="Layer 1"><path class="cls-1" d="M34.65,77.08a25.77,25.77,0,0,1-4.93-4.42,17.24,17.24,0,0,1-3.47-6c-.12-.42-.27-.83-.38-1.26l-.26-1.29a11,11,0,0,1-.1-2.61,17.38,17.38,0,0,1,2.79-8.15,20.7,20.7,0,0,1,5.9-5.86,32.45,32.45,0,0,1,6.42-3.29c.71-.27,1.44-.48,2.17-.73S44.27,43.12,45,43a8.54,8.54,0,0,1,1.13-.16H47.3a8.52,8.52,0,0,1,2.28.35c.94.27.78,1,.06,2a9,9,0,0,1-1.41,1.62,8.85,8.85,0,0,1-.89.73l-.48.3a3.16,3.16,0,0,1-.53.13A24.89,24.89,0,0,0,33,54.64a9.52,9.52,0,0,0-2.27,3.93l-.18.55c0,.18-.07.38-.1.56a11.34,11.34,0,0,0-.2,1.14,14.27,14.27,0,0,0-.07,2.24c.15,3.12,2.28,6.24,5.1,8.53a23.36,23.36,0,0,0,5.8,3.54,27.29,27.29,0,0,0,10.2,2.12,24.17,24.17,0,0,0,7.82-1.49l1.61-.6c2-.66,2.75-.63,3.75.46a9.45,9.45,0,0,1,.67.75c.64.86.11,2.11-1.51,3-4.81,2.85-11,3.42-16.77,2.52a33.25,33.25,0,0,1-6.35-1.68,30.53,30.53,0,0,1-5.93-3.07Z"/><path class="cls-1" d="M24.6,50.1a17.1,17.1,0,0,1,4.16-3.62A23.4,23.4,0,0,1,31,45.24a21,21,0,0,1,2.26-.87A50.16,50.16,0,0,1,42,42.5c2.81-.38,5.6-.61,8.16-.92l4-.52c1.33-.17,2.61-.36,3.87-.57,3.61-.63,7.07-1.92,8.75-3.69.15-.2.32-.4.5-.6a6.11,6.11,0,0,1,.38-.65c.09-.25.16-.5.26-.74s.14-.67.22-1a11.69,11.69,0,0,0,0-4.13,12.88,12.88,0,0,0-4.41-7.28,17.08,17.08,0,0,0-8.26-3.87,13.77,13.77,0,0,0-8.82,1.16,7.2,7.2,0,0,0-.85.49,6.75,6.75,0,0,0-.73.52A7,7,0,0,0,43.92,22a12.78,12.78,0,0,0-1.63,3.62,11.57,11.57,0,0,0,.38,7.66,10.36,10.36,0,0,0,2.74,4,20.21,20.21,0,0,0,4.32,2.92,33.3,33.3,0,0,0,5.19,2,47,47,0,0,0,5.63,1.27c2.38.42,2.07,1.12-.11,1.85a13.19,13.19,0,0,1-2,.52,20.07,20.07,0,0,1-2.61.36,19.57,19.57,0,0,1-6.78-.46,27.36,27.36,0,0,1-3.32-1.09L44.11,44c-.55-.29-1.06-.65-1.59-1a17.38,17.38,0,0,1-5.29-5.76,14.17,14.17,0,0,1-.89-1.84,19.66,19.66,0,0,1-.54-2,17.81,17.81,0,0,1-.4-4A19.58,19.58,0,0,1,37,22a18.77,18.77,0,0,1,1.91-3.39A15.1,15.1,0,0,1,40.3,17a9.26,9.26,0,0,1,.85-.78,7.6,7.6,0,0,1,.92-.68,18,18,0,0,1,7.09-2.71A22,22,0,0,1,63,15.38a24.58,24.58,0,0,1,6.68,5.21,18.79,18.79,0,0,1,4.15,7.75,17.42,17.42,0,0,1,.52,4.48,18.29,18.29,0,0,1-.17,2.23,13.61,13.61,0,0,1-.54,2.39A11.06,11.06,0,0,1,71,41.74a14.78,14.78,0,0,1-3.8,2.71,32.47,32.47,0,0,1-8.64,2.67c-1.42.27-2.81.48-4.17.69l-4.1.62c-2.78.37-5.45.67-8.06,1.12a36.5,36.5,0,0,0-7.37,1.91,14.08,14.08,0,0,0-3.77,1.93l-.41.3L30.3,54a4.45,4.45,0,0,0-.7.73l-.67.85L28.6,56l-.26.46a10.44,10.44,0,0,0-1.29,8.09,13.92,13.92,0,0,0,1.2,3.09c.31.47.59,1,.91,1.44l1.08,1.34a21.58,21.58,0,0,0,5.5,4.34A27.83,27.83,0,0,0,39,76.3a34.2,34.2,0,0,0,3.44,1,29.23,29.23,0,0,0,7.12.75,18.75,18.75,0,0,0,10.07-3A12.37,12.37,0,0,0,65,67.29a11.38,11.38,0,0,0,0-4,35.53,35.53,0,0,0-1.5-5.22,6.85,6.85,0,0,1-.25-1.7,6.87,6.87,0,0,1,.31-1.64,11.41,11.41,0,0,1,.46-1.56c.37-.74,1.2-.82,2.48-.18a10.36,10.36,0,0,1,4,4.82,17.38,17.38,0,0,1,1.55,6.33,16.94,16.94,0,0,1-1,6.7,19.33,19.33,0,0,1-3.49,5.88A20.5,20.5,0,0,1,62.4,81a25.83,25.83,0,0,1-12.51,3.32,33.55,33.55,0,0,1-6.28-.46,35.66,35.66,0,0,1-6.08-1.54,29.93,29.93,0,0,1-8.4-4.59,24,24,0,0,1-6.41-7.55,17.17,17.17,0,0,1-.95-15.64A25.14,25.14,0,0,1,23,52.17L24.45,50Z"/></g></svg>