<svg xmlns="http://www.w3.org/2000/svg" width="96" height="96" viewBox="0 0 96 96"><defs><style>.cls-1{fill:#231f20;}</style></defs><title>scribble final version</title><g id="Layer_1" data-name="Layer 1"><path class="cls-1" d="M48.1,48.67,43,52.28,38,56c-1.2.93-2.28,2-3.5,2.93-4.27,3.26-8.55,6.55-12.65,10C20,70.52,18.3,72.22,16.64,73.9a56.8,56.8,0,0,1-6.58,6.23c-.77.55-1.56-.27-1.87-1.65a6.07,6.07,0,0,1,0-2.38A5,5,0,0,1,9.2,73.75c1-1.22,2.09-2.38,3.15-3.55s2.25-2.21,3.4-3.28a88.88,88.88,0,0,1,7.31-6.05c3.06-2.25,5.76-5.13,8.71-7.64,1.61-1.38,3.26-2.73,4.92-4.07s3.32-2.67,5-4C43.74,43.55,45.87,42,48,40.4c3.16-2.4,6.46-4.67,9.63-7.06,1.2-1,2.44-1.89,3.62-2.89.6-.49,1.18-1,1.79-1.48l1.9-1.4c.57-.41,1.09-.87,1.68-1.24a4.66,4.66,0,0,1,2.74-.84,2.8,2.8,0,0,1,1.88,1.25,12.87,12.87,0,0,1,.82,1c.74,1.23.33,2.8-.91,4-1,.77-1.94,1.7-2.95,2.52-.51.42-1,.81-1.54,1.22s-1,.86-1.56,1.27S64,37.62,63.44,38s-1.1.78-1.66,1.19c-1.11.8-2.25,1.58-3.39,2.36q-2.52,1.8-5.09,3.56L48.21,48.8Z"/><path class="cls-1" d="M81.7,44.47c1.12-4.53,8-22.53,5.31-26.94C85.12,14.41,45.69,19,47.52,21.24c3.34,4.1,8.17,6.45,12.52,9.28,4.73,3.08,9.14,6.51,13.62,9.94C74.39,41,81.3,46.1,81.7,44.47Z"/></g></svg>