<svg xmlns="http://www.w3.org/2000/svg" width="96" height="96" viewBox="0 0 96 96"><defs><style>.cls-1{fill:#231f20;}</style></defs><title>scribble final version</title><g id="Layer_1" data-name="Layer 1"><path class="cls-1" d="M73.37,41l1.06,1.38.8,1c.29.36.57.82.85,1.24a7.32,7.32,0,0,1,1.16,2.57l.1.64c0,.21,0,.42,0,.63A3.2,3.2,0,0,1,77,49.74a5,5,0,0,1-1.75,1.87A29.93,29.93,0,0,1,72.53,53a1.29,1.29,0,0,1-.2.09l-.08,0-.18.09-.35.17-.68.35c-.46.25-.91.5-1.36.77-1.3.78-2.49,1.79-3.74,2.71-2.23,1.63-4.33,3.49-6.44,5.37s-4.15,3.9-6.1,6c-1.73,1.85-3.32,3.86-4.85,5.86-1.94,2.6-3.93,5.18-6.1,7.64-.68.76-1,.41-.91-.6a11,11,0,0,1,1.28-4.39A76.11,76.11,0,0,1,54.94,60.78c.74-.71,1.45-1.47,2.19-2.22l2.25-2.23a56,56,0,0,1,4.81-4.26c1-.71,1.92-1.4,2.94-2,.5-.33,1-.64,1.54-.94l.79-.44.2-.1.15-.08.15-.06.64-.27c.21-.1.48-.18.59-.41s0-.45-.15-.65a7,7,0,0,0-.38-.63L70.34,46l-.63-.79-1.29-1.61-2.65-3.25a117.68,117.68,0,0,1-7.58-10.43c-.9-1.42-1.82-2.82-2.65-4.32a25.64,25.64,0,0,1-2-4.82,17.74,17.74,0,0,1-.52-2.32,9.75,9.75,0,0,1,0-1.91,4.1,4.1,0,0,1,.47-1.29A2.5,2.5,0,0,1,54.87,14a3.51,3.51,0,0,1,.72-.26c.74-.11,1.22,1.08,2,2.67a25.48,25.48,0,0,0,3.22,7,63.61,63.61,0,0,0,4.47,7.05c2.5,3.49,5.28,6.89,8.21,10.42Z"/><path class="cls-1" d="M68.62,35.24c1.25,1.92,2.61,3.76,4,5.58.73.89,1.46,1.79,2.22,2.67l1.16,1.31.41.45.57.6L78.16,47l1.12,2.23a3.84,3.84,0,0,1-.67,2.39,12.1,12.1,0,0,1-1.94,2.15l-1.08,1-.66.56c-1.75,1.45-3.49,2.83-5.22,4.22-2.62,2.11-5.11,4.34-7.66,6.5-3.18,2.68-6.29,5.44-9.27,8.32-1.49,1.44-3,2.9-4.36,4.41-.71.75-1.41,1.51-2.09,2.29l-.53.6-.82,1-1.58,2a5.58,5.58,0,0,1-1.29,1.09,2.18,2.18,0,0,1-.57.31l-.53.24a.49.49,0,0,1-.36,0,1.66,1.66,0,0,1-.33-.15,4.19,4.19,0,0,1-.54-.4,6,6,0,0,1-1-1.18,21.71,21.71,0,0,1-1.58-3.57l-.56-1.58-.44-1.23c-1.73-5-3.5-10-5.6-14.68a86.8,86.8,0,0,0-4.5-8.81,30.12,30.12,0,0,0-5.81-7.5c-.73-.59-1-1-.81-1.26s.82-.45,1.84-.27a9.62,9.62,0,0,1,3.74,1.72A16.38,16.38,0,0,1,29,51.38a94.41,94.41,0,0,1,8.73,17.17c1.2,2.93,2.3,5.89,3.3,8.84l.19.54.1.28c0,.08,0,0,0,.07l0,.13a2.7,2.7,0,0,0,.06.36l.06.22c0,.08.09.17.12.11l.26-.19.28-.22.09-.07.12-.13.16-.18.65-.71A224.83,224.83,0,0,1,61.59,59.66c2.5-2.14,5-4.22,7.54-6.29L71,51.82l1.43-1.22a4.62,4.62,0,0,0,.71-.69.42.42,0,0,0,.11-.22c0-.08-.09-.13-.13-.19l-.33-.36-2.24-2.47c-.93-1.09-1.88-2.16-2.76-3.28a68.92,68.92,0,0,1-9.29-15c-.88-2-1.7-4-2.38-6.07l-.52-1.54-.43-1.44c-.16-.56-.3-1.13-.45-1.71s-.28-1.24-.43-1.87c-.05-.14,0-.35-.16-.43s-.27.15-.37.25-.4.49-.59.74l-1.1,1.54-.56.76-.93,1.24a72.87,72.87,0,0,1-6.72,7.79A37.28,37.28,0,0,1,35.5,34a24.14,24.14,0,0,1-4.35,1.89,20.45,20.45,0,0,1-3.68.8,10.26,10.26,0,0,1-2.59-.13,4.66,4.66,0,0,1-2.74-1.29,6,6,0,0,1-.75-.8c-.47-.87,1.82-1.36,5.22-2.69a30.07,30.07,0,0,0,7.25-3.43,38.59,38.59,0,0,0,6.48-5.2,60.57,60.57,0,0,0,5.72-6.55c.5-.66.69-.9,1.82-2.45.92-1.25,1.82-2.58,2.75-3.79.23-.31.46-.57.7-.85s.47-.48.7-.68A5.24,5.24,0,0,1,53.34,8a4.68,4.68,0,0,1,1.13-.26,4.16,4.16,0,0,1,1.17.07l.26.07a1.67,1.67,0,0,1,.2.13l.4.29.8.59.8.59c.14,0,.25.43.37.69l.35.87c.5,2,.94,4,1.51,5.9l.54,1.78c.13.45.3.89.45,1.34.29.89.6,1.77,1,2.64s.69,1.75,1.06,2.6a61.53,61.53,0,0,0,5.4,9.84Z"/></g></svg>