<svg xmlns="http://www.w3.org/2000/svg" width="96" height="96" viewBox="0 0 96 96"><defs><style>.cls-1{fill:#231f20;}</style></defs><title>scribble final version</title><g id="Layer_1" data-name="Layer 1"><path class="cls-1" d="M43.61,11.44C45.49,13,46.7,13.83,46,15.1c-.4.71,0,1.59,0,2.38a77.06,77.06,0,0,0,.75,8.44c.18,1.43.44,2.86.65,4.29s.42,2.87.66,4.31c.43,2.47,1.09,4.9,1.68,7.34,1,4.12,2.17,8.21,3.32,12.29.58,2.1.94,4.25,1.51,6.35,1.19,4.18,2.64,8.28,4.05,12.35.38,1,.67,2.1,1,3.14s.55,2.14.88,3.19c.25.77.71,1.44,1,2.18a1.36,1.36,0,0,1,.16,1c-.31,1.08-2,2.25-4,2.58-1.49.25-2.66.18-3-.55-.85-1.69-1.68-3.39-2.46-5.1s-1.37-3.48-2-5.23c-.53-1.41-1.31-2.73-1.79-4.16-.77-2.23-1.33-4.53-2-6.79-.95-3.32-1.64-6.71-2.5-10-1-3.83-2-7.65-2.86-11.52-.27-1.23-.51-2.45-.74-3.69-.34-1.93-.67-3.87-.95-5.83-.15-1-.26-2-.34-2.94s-.16-2-.24-3a60.62,60.62,0,0,1,.18-12.81,4.3,4.3,0,0,1,.27-1C40,11,40.46,10.83,43.61,11.44Z"/><path class="cls-1" d="M15.67,53.87c.74-2.24,1.58-3.69,2.92-3.23.77.27,1.53-.23,2.3-.32,5.16-.66,10.23-1.62,15.25-2.69a65,65,0,0,0,6.32-1.94c1.77-.55,3.49-1.27,5.23-1.91s3.45-1.4,5.17-2.15,3.64-1.25,5.41-2c3.55-1.57,7-3.6,10.76-5,1.91-.77,4-1.23,5.94-1.89a22.2,22.2,0,0,0,2.08-1,1.11,1.11,0,0,1,1-.06c1.07.51,2.17,2.82,2.53,5.2.27,1.81.26,3.12-.37,3.37C77.25,41.3,74.33,42.6,71.43,44a17.32,17.32,0,0,0-1.71,1,16,16,0,0,1-1.75.9c-1.91.79-3.91,1.43-5.89,2.16-2.9,1.07-5.86,2.06-8.82,3.1-1.69.59-3.38,1.22-5.09,1.77S44.73,54,43,54.53c-1.09.34-2.21.55-3.32.81a81.93,81.93,0,0,1-10.53,1.72c-3.66.39-7.32.66-11,.76a2.47,2.47,0,0,1-.81-.06C16.26,57.47,16.09,57.07,15.67,53.87Z"/></g></svg>