<svg xmlns="http://www.w3.org/2000/svg" width="96" height="96" viewBox="0 0 96 96"><defs><style>.cls-1{fill:#231f20;}</style></defs><title>scribble final version</title><g id="Layer_1" data-name="Layer 1"><path class="cls-1" d="M46.88,78.57c.58.76.12,1.65-.93,2.61a2.5,2.5,0,0,1-1.78.4,11,11,0,0,1-1.28-1.14c-.21-.26-2.2-4.56-3-5.94a36.12,36.12,0,0,1-1.92-4.21c-1.18-2.9-2.47-5.75-3.83-8.56a12.94,12.94,0,0,1-.71-1.95,26.15,26.15,0,0,0-2.84-6.55,2.26,2.26,0,0,0-.74-.95A20,20,0,0,1,27.69,49a34.75,34.75,0,0,1-1.91-3.54c-.68-2-1.55-3.89-2.33-5.86-.11-.28-.35-.5-.27-.88a2.44,2.44,0,0,0-.56-1.93,22.91,22.91,0,0,1-1.21-2.43,5.32,5.32,0,0,1-.14-1.53c0-.48.86-.86,1-.81.48.16.64-.37.94-.63a2.29,2.29,0,0,1,.32-.26A14.44,14.44,0,0,1,26,32.81,22.5,22.5,0,0,1,28.59,35L29.4,36c.46.62,1.11,1.42,1.72,2.28l2.71,3.9a4.2,4.2,0,0,1,.53,1.31c.11.19,3.51,5.51,3.59,5.76A9.87,9.87,0,0,1,39.3,53a1.59,1.59,0,0,0,.28.73A44.7,44.7,0,0,1,42,60c.37,1.08.84,2.12,1.25,3.18a4,4,0,0,1,.11.62,5,5,0,0,0,.17.77c1,2.5,1.62,5.14,2.65,7.63.25.58.53,3.59.8,4.25C47.13,76.78,46.66,78.27,46.88,78.57Z"/><path class="cls-1" d="M68.48,68.9c.45.86-.11,1.68-1.26,2.52-.37.26-1.56.39-1.76.15a10.94,10.94,0,0,1-1.06-1.45,30.65,30.65,0,0,1-.8-3c-.32-1.52-.72-3.23-.88-4.1a27.55,27.55,0,0,1-.55-5.11q-.22-5.24,0-10.49a14,14,0,0,1,.34-2.31c.29-1.31.57-2.61.75-3.93s.39-2.63.52-4a3.18,3.18,0,0,0,0-1.34,18.83,18.83,0,0,1,.56-4.33,30.23,30.23,0,0,1,1.13-4.39c1-2.14,1.86-4.29,2.88-6.38.14-.3.17-.66.51-.86a3.06,3.06,0,0,0,1.19-1.82,16.69,16.69,0,0,1,1.34-2.63,5.29,5.29,0,0,1,1.17-1.08c.38-.31,1.14.24,1.17.41.11.51.63.34,1,.44a1.24,1.24,0,0,1,.37.13,14.37,14.37,0,0,1-.12,3,28.91,28.91,0,0,1-.35,3.3s-.17.53-.36,1.28-.45,1.74-.71,2.75-.46,2.07-.65,2.91-.28,1.49-.31,1.71a4.69,4.69,0,0,1-.51,1.31c-.06.1-.3,1.71-.55,3.31s-.39,3.21-.43,3.33A12.35,12.35,0,0,1,70.24,42a2,2,0,0,0-.16.76c-.2,2.21-.6,4.41-.86,6.63-.11,1.14-.14,2.28-.15,3.42a4.11,4.11,0,0,1-.12.61,4.21,4.21,0,0,0-.12.78A61.43,61.43,0,0,0,69,62.38c0,.62-.24,3.65-.12,4.37C69,67.15,68.31,68.56,68.48,68.9Z"/></g></svg>