<svg xmlns="http://www.w3.org/2000/svg" width="96" height="96" viewBox="0 0 96 96"><defs><style>.cls-1{fill:#231f20;}</style></defs><title>scribble final version</title><g id="Layer_1" data-name="Layer 1"><path class="cls-1" d="M45.87,54.52A16.9,16.9,0,0,0,48.36,51a9,9,0,0,0,.51-1.38,15.88,15.88,0,0,0,.79-5.7,14.51,14.51,0,0,0-.37-2.62c-.23-1.1-.58-2.17-.72-3.31,0-.35.4-.5,1-.38a2.26,2.26,0,0,1,1.6,1.16,13.76,13.76,0,0,1,1.11,7.5A25.28,25.28,0,0,1,51.57,51a9.39,9.39,0,0,1-.5,1.3c-.19.4-.41.76-.62,1.14A21.08,21.08,0,0,1,49,55.55a19.15,19.15,0,0,1-2.15,2.35,15.76,15.76,0,0,1-4.05,2.68,11.37,11.37,0,0,1-3.64,1.19,5,5,0,0,1-.86,0,2.55,2.55,0,0,1-.67-.07,1.24,1.24,0,0,1-.42-.29,1.22,1.22,0,0,1-.37-.76,3.53,3.53,0,0,1-.06-.42c0-.42.45-.81,1.08-1.1a24.43,24.43,0,0,0,2.54-.83,13.57,13.57,0,0,0,2.33-1.14,13.42,13.42,0,0,0,3.09-2.73Z"/><path class="cls-1" d="M8.92,30.29a4.25,4.25,0,0,0-.28.68c0,.08,0,.15,0,.22a2.33,2.33,0,0,0-.23.79c0,.12.08.14.17.16s.32-.15.24.22A10.5,10.5,0,0,1,8,34c-.45.75-1.06,1.37-1.32,1.24a3.8,3.8,0,0,1-.57-.42,3.07,3.07,0,0,1-.42-.62,2.17,2.17,0,0,1-.19-1.36c.1-.52-.12-.87-.11-1.28a5.74,5.74,0,0,1,.23-1.22l.21-.67c.08-.34.26-.65.3-1A4.2,4.2,0,0,0,6,27.9c0-.06,0-.13,0-.19,0-.22.28-.22,1,0l.48.14a3.33,3.33,0,0,1,1.14.58,1.7,1.7,0,0,1,.54,1.17A2.79,2.79,0,0,1,9,30.3Z"/><path class="cls-1" d="M68.66,87.18a6.71,6.71,0,0,1-1.24-.42A2.23,2.23,0,0,1,67,86.6a3.18,3.18,0,0,1-1.12-1.19c-.1-.2-.25-.36-.36-.54a.85.85,0,0,1-.24-.74c0-.1.36-.22.73-.32a3.23,3.23,0,0,1,.85-.17c.31.15.52.11.54.45s.24.17.37.23a2.17,2.17,0,0,0,.56.2,1.84,1.84,0,0,0,.41,0,1.46,1.46,0,0,0,.65-.11c.15-.08.21-.34.3-.51s0-.08.06-.09.24.08.65.64l.27.37A1.76,1.76,0,0,1,71.11,86a1.73,1.73,0,0,1-.13.52,1.54,1.54,0,0,1-.28.34,2.19,2.19,0,0,1-.74.39,4,4,0,0,1-1.29,0Z"/><path class="cls-1" d="M12.55,68.28a9.07,9.07,0,0,0,2.39,2.44,10,10,0,0,0,1.17.61,14.32,14.32,0,0,0,4.58,1.54,6.87,6.87,0,0,0,2.17,0c.92-.11,1.79-.28,2.65-.44.29,0,.47.21.43.67a2.4,2.4,0,0,1-.26.84,2,2,0,0,1-.71.69,7.31,7.31,0,0,1-3.35.78,11.75,11.75,0,0,1-1.68-.08,9.29,9.29,0,0,1-1.63-.42,31.47,31.47,0,0,1-3.84-1.37A11.43,11.43,0,0,1,11,70.7c-.27-.39-.57-.75-.81-1.15L9.49,68.3a20.18,20.18,0,0,1-1-4,11.37,11.37,0,0,1-.17-3.25,2.47,2.47,0,0,1,.13-.71c.31-.85.62-1,1.24-1a2.73,2.73,0,0,1,.4.05,1.09,1.09,0,0,1,.68,1.12c.08.85,0,1.56.1,2.29a12.63,12.63,0,0,0,.43,2.21l.27.92.29.77a2.79,2.79,0,0,0,.35.74,3.87,3.87,0,0,0,.43.7Z"/><path class="cls-1" d="M90.85,50.62a16.5,16.5,0,0,1-1.12,2.27c-.22.36-.41.74-.66,1.08l-.73,1a11.94,11.94,0,0,1-1.09,1.45,9.27,9.27,0,0,1-1.15,1.11c-.4.35-.78.71-1.18,1a23.84,23.84,0,0,1-2.6,1.72c-.4.22-.78.47-1.16.71L80,61.67a7.51,7.51,0,0,1-3.21,1.26c-.37,0-.53-.7-.49-1.5s.26-1.64.79-1.86l.71-.28.68-.35c.45-.23.93-.41,1.37-.65s.88-.48,1.35-.71.87-.52,1.34-.76a8.57,8.57,0,0,0,2.59-2.73c.44-.54.74-1.17,1.13-1.75s.66-1.23.92-1.89l.47-1.22L88,48c.16-.65.26-1.31.37-2a11.15,11.15,0,0,0,.07-2,17.3,17.3,0,0,0-.52-3c0-.22-.09-.43-.1-.65a1.53,1.53,0,0,1,.1-.92,2.16,2.16,0,0,1,.63-.61c.12-.08.23-.17.34-.23a.72.72,0,0,1,.64,0,1.63,1.63,0,0,1,.83.58,14.48,14.48,0,0,1,1,1.45,6.55,6.55,0,0,1,.59,1.6,9.69,9.69,0,0,1,.32,1.69,12.52,12.52,0,0,1-.07,1.73,16.9,16.9,0,0,1-.42,2.53c-.23.83-.45,1.66-.76,2.46Z"/><path class="cls-1" d="M33.92,15.25c-.53.23-1,.51-1.57.78s-1,.64-1.47,1-.61.64-.94.94a15.93,15.93,0,0,0-3,3.8,9,9,0,0,0-.76,2,14.68,14.68,0,0,1-.78,2.6c-.13.28-.48.29-.92,0s-1.14-.88-1.1-1.53a11.83,11.83,0,0,1,.12-1.7,10.82,10.82,0,0,1,.52-1.58c.23-.5.47-1,.74-1.47s.61-.91.94-1.34c.85-1,1.5-2.19,2.44-3.15a12.76,12.76,0,0,1,1.65-1.46l.89-.65,1-.54A18,18,0,0,1,34.14,12c.66-.18,1.32-.33,2-.5s1.34-.16,2-.27,1-.1,1.53-.16a8.06,8.06,0,0,1,1.55-.08,2.19,2.19,0,0,1,.67.07c.82.25,1,.51,1.08,1.13a2.58,2.58,0,0,1,0,.38c0,.36-.42.79-1,1l-.64.22a3.37,3.37,0,0,1-.61.1c-.41,0-.8.17-1.19.23s-.79.06-1.17.13-.76.13-1.14.17a3.91,3.91,0,0,0-.84.17l-.83.21a14.26,14.26,0,0,0-1.61.6Z"/><path class="cls-1" d="M38.64,33.25a12.14,12.14,0,0,0-6.26.51,12.59,12.59,0,0,0-7.68,7.82,12.32,12.32,0,0,0-.2,8.3,14.78,14.78,0,0,0,5.1,7,12.45,12.45,0,0,0,7.32,2.37,20.37,20.37,0,0,0,5.11-.3A21.37,21.37,0,0,0,47,57.46c1-.46,1.06-.18.48.72a4.9,4.9,0,0,1-.59.75,6.6,6.6,0,0,1-.88.87,7.38,7.38,0,0,1-2.67,1.55,21.65,21.65,0,0,1-5.93,1.1,17,17,0,0,1-6.09-1,12.63,12.63,0,0,1-1.48-.63A11.87,11.87,0,0,1,28.38,60,17.9,17.9,0,0,1,26,58a16.62,16.62,0,0,1-3.6-5,17.71,17.71,0,0,1-1.69-7.3,15.74,15.74,0,0,1,1.76-7.31,17.07,17.07,0,0,1,13.07-8.92,17.46,17.46,0,0,1,9.71,1.9,16.23,16.23,0,0,1,5.6,5,18,18,0,0,1,1.77,3.29,12.76,12.76,0,0,1,1,3.68,18,18,0,0,1-2.66,11.08,17.17,17.17,0,0,1-1.43,2.09A7.48,7.48,0,0,1,47,58.75a2.18,2.18,0,0,1-1.74.15,3.59,3.59,0,0,1-.68-.24c-.61-.42,0-1.5,1.18-3.09a19.62,19.62,0,0,0,3.79-7.7,11.91,11.91,0,0,0,.27-4A9,9,0,0,0,49.34,42a13.47,13.47,0,0,0-10.7-8.69Z"/><path class="cls-1" d="M31.75,9.94a16.13,16.13,0,0,1,10.63-.72,14.91,14.91,0,0,1,3.67,1.38,14.55,14.55,0,0,1,7.16,10.74,16,16,0,0,1-.13,5.6,11.47,11.47,0,0,1-1.29,3.35,6.46,6.46,0,0,1-.51.74c-.2.23-.42.44-.63.65a7.66,7.66,0,0,1-1.37,1.11c-.6.4-.72.08-.64-.64,0-.37.13-.81.2-1.33a15.21,15.21,0,0,1,.26-1.6,10.53,10.53,0,0,0,.68-5.36,16.6,16.6,0,0,0-1.62-5.18A7.39,7.39,0,0,0,46,16.15a7.72,7.72,0,0,0-1.45-.84l-.76-.38c-.26-.11-.53-.18-.8-.28a11.73,11.73,0,0,0-3.64-.73,17.57,17.57,0,0,0-1.92,0,11.63,11.63,0,0,0-1.92.31,12.33,12.33,0,0,0-4.44,1.95A11.5,11.5,0,0,0,26.6,22a5.93,5.93,0,0,0-.29,1.39l-.1.71,0,.71c0,.48,0,.93.07,1.41s.15.93.25,1.39.23.79.32,1.18c.26,1.49.15,2-.76,2.8-.2.17-.39.38-.59.52-.68.5-1.71.13-2.53-1.19a10,10,0,0,1-1.29-3.18,16.26,16.26,0,0,1-.3-1.72c-.05-.6-.06-1.21-.06-1.82a14.16,14.16,0,0,1,2-7.19A17.52,17.52,0,0,1,31.7,9.82Z"/><path class="cls-1" d="M35.67,38.32a11,11,0,0,0,2,.38,6.68,6.68,0,0,0,.77-.07,8.87,8.87,0,0,0,2.88-.33,5.32,5.32,0,0,0,1.15-.56,3.72,3.72,0,0,1,1.4-.84c.2,0,.67.38,1,.94s.62,1.34.36,1.73-.51.61-.78.89a10.87,10.87,0,0,1-.91.74,10.58,10.58,0,0,1-1.08.37,7.28,7.28,0,0,1-1.14.16,5.72,5.72,0,0,0-1.31.24,9.71,9.71,0,0,1-1.3.28,10.74,10.74,0,0,1-2.94-.14,15.21,15.21,0,0,1-1.76-.47c-.43-.16-.85-.36-1.26-.55s-.81-.43-1.19-.68-.65-.33-.94-.53-.59-.43-.86-.67a1.56,1.56,0,0,1-.33-.35.48.48,0,0,1-.13-.37,1.16,1.16,0,0,1,.05-.34,1.54,1.54,0,0,1,.44-.59,3.47,3.47,0,0,1,.3-.27A2.08,2.08,0,0,1,31.44,37c.38,0,.52.14.81.15s.48.08.68.13a1.37,1.37,0,0,1,.57.17,4,4,0,0,0,.51.23,7.79,7.79,0,0,0,1.67.56Z"/><path class="cls-1" d="M60.5,68.94a12.6,12.6,0,0,0,5.43-5.24,12,12,0,0,0,.91-2.6,10.28,10.28,0,0,0,.39-2.43,10.44,10.44,0,0,0,0-1.25,3.35,3.35,0,0,0-.06-.59,3.21,3.21,0,0,0-.1-.58,13.85,13.85,0,0,0-2.2-4.83,12.78,12.78,0,0,0-3.51-3.37,15.6,15.6,0,0,0-2.72-1.34c-.47-.16-.92-.41-1.4-.55l-.71-.27c-.25-.06-.49-.13-.74-.21-.62-.21-.6-.93.06-1.7a4.1,4.1,0,0,1,3.72-1.32,11.66,11.66,0,0,1,3.86,1.56,17.44,17.44,0,0,1,3.21,2.49,17.93,17.93,0,0,1,2.54,3.09A15.85,15.85,0,0,1,71,53.45c.14.39.25.79.36,1.22A11.66,11.66,0,0,1,71.6,56a10.25,10.25,0,0,1,.17,1.28,10.36,10.36,0,0,1,.1,1.26,14.56,14.56,0,0,1-.61,5,15.89,15.89,0,0,1-6.55,8.36,18.62,18.62,0,0,1-5.88,2.52,16.7,16.7,0,0,1-4.77.46,17.54,17.54,0,0,1-4.72-.79,15.8,15.8,0,0,1-6.54-3.67,6.2,6.2,0,0,1-1.11-1.28,7.53,7.53,0,0,1-.58-1.2,1.91,1.91,0,0,1-.17-.92,2.21,2.21,0,0,1,.59-1.29,4.69,4.69,0,0,1,.41-.45c.24-.19.55-.15,1,0a6,6,0,0,1,.7.33,1.16,1.16,0,0,1,.34.24,2.26,2.26,0,0,1,.35.28,8.32,8.32,0,0,0,1,.83,2.66,2.66,0,0,1,.47.41c.16.14.33.26.49.39l.48.38.51.34a10.06,10.06,0,0,0,1,.63,12.35,12.35,0,0,0,4.71,1.41,13,13,0,0,0,7.37-1.64Z"/><path class="cls-1" d="M87.63,45.33a13.85,13.85,0,0,0-3-8.7A12.57,12.57,0,0,0,82,34.4a15.59,15.59,0,0,0-5.73-2.58A14.6,14.6,0,0,0,73,31.55a15,15,0,0,0-3.39.48,11.22,11.22,0,0,0-5.08,3c-1.81,1.85-2.84,4.3-4.41,6.58-.48.72-.91.44-1.2-.48a6.24,6.24,0,0,1-.29-1.82,4.68,4.68,0,0,1,.08-1.17A5.74,5.74,0,0,1,59.12,37a16.41,16.41,0,0,1,6.5-7,20.65,20.65,0,0,1,4.53-1.77,17.13,17.13,0,0,1,4.76-.62,24.37,24.37,0,0,1,5.88.75,12.92,12.92,0,0,1,2.85,1.07A15.46,15.46,0,0,1,86.23,31,18.72,18.72,0,0,1,92.89,42.1a19.74,19.74,0,0,1-.1,7.92A17.83,17.83,0,0,1,86.54,60a18.54,18.54,0,0,1-8,4.27,12.44,12.44,0,0,1-2,.32,4.71,4.71,0,0,1-2.68-.45,1.9,1.9,0,0,1-.63-.55,3.58,3.58,0,0,1-.33-.79,6.25,6.25,0,0,1-.22-.65c-.11-.51,1-1.41,2.4-1.71a14.21,14.21,0,0,0,5.68-2.46,17.13,17.13,0,0,0,2.32-2c.36-.38.71-.78,1-1.19.15-.19.27-.4.43-.58a3.45,3.45,0,0,0,.45-.56,12.46,12.46,0,0,0,2.54-8.23Z"/><path class="cls-1" d="M16.33,76A13.88,13.88,0,0,1,9,69.7c-.3-.51-.55-1-.83-1.56a16.09,16.09,0,0,1-.6-1.64,13.64,13.64,0,0,1-.17-6.06A14.3,14.3,0,0,1,9.73,55a15,15,0,0,1,3.78-3.63A16.48,16.48,0,0,1,15,50.51,7.9,7.9,0,0,1,16.61,50a7.37,7.37,0,0,1,1.69-.13,6.57,6.57,0,0,1,1.65.23c.67.17.49.7-.05,1.32a10.33,10.33,0,0,1-2.11,1.86,17.21,17.21,0,0,0-2,1.14A9.72,9.72,0,0,0,14.09,56a18.89,18.89,0,0,0-2.64,4.12A7.24,7.24,0,0,0,11,63.18a12.59,12.59,0,0,0,.68,3.12,9.71,9.71,0,0,0,1.72,3,10.2,10.2,0,0,0,2.74,2.23,9.54,9.54,0,0,0,4.23,1.17,11.49,11.49,0,0,0,3.39-.44,11.85,11.85,0,0,0,3.21-1.46,10.2,10.2,0,0,0,3.3-4l.46-1.06a2.72,2.72,0,0,1,1-1.23A2,2,0,0,1,33,64.3a5.43,5.43,0,0,1,.71,0c.73.12,1.14,1,1,2.35a9.05,9.05,0,0,1-1,2.86,12.76,12.76,0,0,1-1.87,2.65,14.38,14.38,0,0,1-5.52,3.62c-.38.15-.75.27-1.13.39l-1.23.32a8.72,8.72,0,0,1-1.26.21,8.94,8.94,0,0,1-1.27.11,13.74,13.74,0,0,1-5.05-.75Z"/><path class="cls-1" d="M75.18,14.48a11,11,0,0,1-1.29,1.23,9.58,9.58,0,0,1-1,.72,8.06,8.06,0,0,1-1.05.47,5.83,5.83,0,0,1-1.53.47,3.2,3.2,0,0,1-1.21-.17,1.87,1.87,0,0,1-1-.71c-.13-.13-.14-.38-.21-.53a1.12,1.12,0,0,1-.08-.53A3.24,3.24,0,0,1,68,14.25,9.28,9.28,0,0,1,69.2,12c.3-.47.44-.73.65-1a3.55,3.55,0,0,1,.75-.75c.19-.13.43.11.63.47a1.75,1.75,0,0,1,.27,1.19l-.25.71-.06,0a1.32,1.32,0,0,0-.48.56c-.14.25,0,.42.09.4a2.26,2.26,0,0,0,.39-.07,1.15,1.15,0,0,0,.45-.1l.24-.12a3.88,3.88,0,0,0,.44-.33,6.26,6.26,0,0,0,.53-.5,4.33,4.33,0,0,0,.38-.47,1.59,1.59,0,0,0,.3-.61,1,1,0,0,0,0-.73.49.49,0,0,0-.18-.2.43.43,0,0,0-.12-.05s-.1,0-.09,0v0h0l.27-.5v0s0,0,0,0a.64.64,0,0,0,0,.14,1.19,1.19,0,0,0,0,.26,2.94,2.94,0,0,0,.31.67c.09.12,0,.06-.22-.06s-.51-.4-1-.82l-.7-.56C71.05,9,70.57,8.2,71,7.52a2.85,2.85,0,0,1,1.66-1.33,3.38,3.38,0,0,1,.75-.11,4.08,4.08,0,0,1,.84.07,3.68,3.68,0,0,1,1.49.7l.23.18.17.15a2.27,2.27,0,0,1,.26.35,2.27,2.27,0,0,0,.3.32c.13.09.14.27.21.4a5.46,5.46,0,0,1,.32,1.8v.79L76.9,12c-.21.36-.42.71-.6,1.06-.55.75-.75,1-1.06,1.46Z"/><path class="cls-1" d="M70.38,88.17a4.56,4.56,0,0,1-1.87.67,4.12,4.12,0,0,1-2-.25A3.32,3.32,0,0,1,65.37,88a6.07,6.07,0,0,1-.69-.77,4.07,4.07,0,0,1-.55-1,4.75,4.75,0,0,1-.24-2,6.69,6.69,0,0,1,.34-1.68,2.89,2.89,0,0,1,.6-1A1.64,1.64,0,0,1,66,81c.27,0,.35.59.45,1.18a3.76,3.76,0,0,0,.36,1.21c0,.15-.13.68-.2,1.31a.44.44,0,0,0,.16.4,5.26,5.26,0,0,0,.53.33,1,1,0,0,0,.94.28,1.43,1.43,0,0,0,.74-.45c.34-.32.61-.88.5-1.14s-.23.06-.4.12-.1.08-.16.09c-.22,0-.36-.15-.57-1l-.16-.55a1.21,1.21,0,0,1,.38-1.44,2.6,2.6,0,0,1,1.25-.28,2.7,2.7,0,0,1,1.68.63,3.12,3.12,0,0,1,1.07,1.74,3.92,3.92,0,0,1,0,1.63,5.1,5.1,0,0,1-2.12,3.16Z"/><path class="cls-1" d="M64.4,58.38a.45.45,0,0,0-.25-.28l-.72-.38s-.11,0,0,0,.06,0,.09-.06a1,1,0,0,0,.1-.42,3.72,3.72,0,0,0-.15-.48,3.91,3.91,0,0,0-1-2,1.72,1.72,0,0,0-.81-.49c-.39-.1-.69-.06-1-.18a1.4,1.4,0,0,1-.28-1c0-.49.33-1.09.8-1.1a3.77,3.77,0,0,1,2.15.54A3.89,3.89,0,0,1,64.67,54a11.28,11.28,0,0,1,1.25,2,3.61,3.61,0,0,1-.11,3l-.17.27,0,.07,0,0a1.66,1.66,0,0,1-.69.45,1.68,1.68,0,0,1-.5.07,1.8,1.8,0,0,1-.39-.08,2.18,2.18,0,0,1-.84-.57c-.58-.64-.82-1.25-1.23-1.77a13.51,13.51,0,0,0-1-1,1.73,1.73,0,0,1-.21-.17c-.2-.23-.1-.37.21-.94l.2-.38a.86.86,0,0,1,1.08-.49,5.73,5.73,0,0,1,1.56.83,4.72,4.72,0,0,1,1,1.07,4.23,4.23,0,0,1,.43.67s0,.08,0,.08h0l-.08.11c-.07.08-.15.21-.2.25s-.09.1-.13.16a3.25,3.25,0,0,0-.33.61.4.4,0,0,0,0,.17s0,0,0,0Z"/><path class="cls-1" d="M3.49,33.77a5,5,0,0,1-.66-1.13,3.74,3.74,0,0,1-.28-1.29,4.14,4.14,0,0,1,.12-1.2A4.68,4.68,0,0,1,3,29.07a5.39,5.39,0,0,1,.38-.76,2.24,2.24,0,0,1,.51-.66,4.65,4.65,0,0,1,2.31-1.14,7.31,7.31,0,0,1,2.18-.06,17.12,17.12,0,0,1,1.83.32,2.57,2.57,0,0,1,2,1.5c.1.3-.57.62-1.23.95a6.72,6.72,0,0,0-.87.5c-.26.16-.41.28-.46.26-.46-.14-1.29-.27-2.13-.43a.92.92,0,0,0-1,.53.82.82,0,0,0-.21.45,2,2,0,0,0-.06.47,1.11,1.11,0,0,0,.46.72,3.54,3.54,0,0,0,1.84.77,2.6,2.6,0,0,0,.83-.08l.8-.16a2,2,0,0,1,.33-.08c.41,0,.53.16.84.93l.2.52a1.24,1.24,0,0,1-.33,1.48,5.65,5.65,0,0,1-2.07.95A7,7,0,0,1,7,35.92a6.7,6.7,0,0,1-3.57-2.09Z"/><path class="cls-1" d="M41.29,49a17.24,17.24,0,0,1,1.22-1.49c.16-.17.25-.41.43-.57A11.72,11.72,0,0,1,45,45.39c.35-.2.68-.43,1-.66a1.73,1.73,0,0,1,1.79-.39c.22.1.1.95,0,1.79a9.82,9.82,0,0,0-.05,1.15c0,.32.07.5,0,.54a1.75,1.75,0,0,1-.54.24,1.8,1.8,0,0,1-.52.09c-.19,0-.41,0-.64.06-.55.08-.85.51-1.26.8a15.45,15.45,0,0,0-1.35,1.1,9.2,9.2,0,0,0-.76.77,6.82,6.82,0,0,0-1,1.3,5.09,5.09,0,0,0-.36,1.17c0,.08,0,.17-.06.25-.09.29-.23.34-.69.3l-.32,0a.65.65,0,0,1-.61-.59,5.55,5.55,0,0,1,.56-2.61A12.28,12.28,0,0,1,41.24,49Z"/><path class="cls-1" d="M31.28,49.87a14.65,14.65,0,0,1,1.48,1.47c.16.19.38.33.54.54a7,7,0,0,1,.64,1.21c.16.44.25.88.36,1.3a8,8,0,0,0,.31,1,1.81,1.81,0,0,1,.14,1.37c-.07.15-.59.19-1.14.17s-1.14-.08-1.24-.25A4.22,4.22,0,0,1,31.58,55a2,2,0,0,0-.69-.94,7.82,7.82,0,0,0-1-1c-.24-.18-.47-.4-.73-.59a4.75,4.75,0,0,0-1.29-.74c-.38-.1-.76-.16-1.14-.27a1,1,0,0,1-.24-.07c-.3-.13-.33-.4-.27-.87l0-.33a1.19,1.19,0,0,1,.59-.79A7.54,7.54,0,0,1,28.2,49a2.35,2.35,0,0,1,1.29.08,7.94,7.94,0,0,1,1.83.75Z"/></g></svg>