<svg xmlns="http://www.w3.org/2000/svg" width="96" height="96" viewBox="0 0 96 96"><defs><style>.cls-1{fill:#231f20;}</style></defs><title>scribble final version</title><g id="Layer_1" data-name="Layer 1"><path class="cls-1" d="M64.07,81a2.9,2.9,0,0,1-.51.67,2.16,2.16,0,0,1-.73.47,2.46,2.46,0,0,1-.76.16c-.28,0-.56,0-.83,0-.43-.13-.85-.25-1.28-.4l-1.3-.63c-.42-.18-.88-.49-1.21-.67s-.48-.29-.71-.45c-.61-.39-1.25-.71-1.82-1.15s-1-.77-1.47-1.19L52.1,76.49c-.43-.47-.87-.92-1.28-1.39s-.84-.93-1.23-1.42c-.72-.84-1.43-1.69-2.07-2.6a8.19,8.19,0,0,1-1.63-4c-.06-.44.25-.44.7-.21a5.26,5.26,0,0,1,1.48,1.25A26.11,26.11,0,0,0,53.15,74a11.87,11.87,0,0,0,2,1.44c.36.21.7.44,1.05.66l1,.65c.59.36,1.27.77,1.78,1.06a7.54,7.54,0,0,0,.81.48,1.63,1.63,0,0,0,.55.22.28.28,0,0,0,.34-.16,1.54,1.54,0,0,0,.09-.37,4,4,0,0,0-.06-.83c0-.27-.28-1.3-.5-2.11s-.49-1.68-.77-2.51a39.41,39.41,0,0,1-1.4-3.92,6.65,6.65,0,0,1-.23-.93A2,2,0,0,1,58,66.34a1.22,1.22,0,0,1,.82-.58,3.47,3.47,0,0,1,.51-.13c.57,0,1,.37,1.42,1,.53,1,1,2,1.58,3.09s.8,2.3,1.18,3.52l.38,1.39.18.72.22,1c.42,1.83.49,3.59-.15,4.69Z"/><path class="cls-1" d="M21.62,37.08A58.21,58.21,0,0,0,25.91,42l2.34,2.37.84.84A5.83,5.83,0,0,1,30,46.33a1.47,1.47,0,0,1,.24,1.15l-.55,1.1-.87.88-.55.59c-.31.32-.61.65-.91,1-1.27,1.43-2.4,3-3.53,4.54a56.5,56.5,0,0,0-5.24,8.69c-.37.76-.71,1.53-1,2.31s-.46,1.18-.57,1.55a2.26,2.26,0,0,0-.13,1.16c.09.23.34.13.48,0l.47-.33,3-2.12c1.29-.88,2.6-1.73,3.93-2.53a42.37,42.37,0,0,1,5.37-2.74l1.43-.54c.48-.17,1-.3,1.46-.44a6.46,6.46,0,0,1,1.52-.27,11.18,11.18,0,0,1,1.54-.09c1.28,0,1.09.26.15.85-.23.16-.51.32-.82.53l-1,.73a20.71,20.71,0,0,1-2.6,1.4,46.15,46.15,0,0,0-5.08,2.73Q24.22,68,21.79,69.65c-.9.61-1.3.9-3.2,2.31-.39.28-.77.49-1.15.74l-.29.19a.56.56,0,0,1-.25.12l-.46.11a1.79,1.79,0,0,1-.78,0,2,2,0,0,1-.78-.24,2.24,2.24,0,0,1-1-1.47,3.77,3.77,0,0,1-.09-1c0-.2,0-.37,0-.58l.1-.62a15.59,15.59,0,0,1,.67-2.47c.14-.44.22-.59.32-.86s.21-.49.31-.73a66,66,0,0,1,7.69-13.09c.68-.86,1.37-1.71,2.09-2.53.36-.41.72-.83,1.09-1.22l.54-.58.21-.2.18-.17.08-.08s0-.07,0-.1-.21-.24-.32-.36l-1.56-1.55c-1.18-1.17-2.35-2.38-3.47-3.63a42.08,42.08,0,0,1-6-8.34,22.85,22.85,0,0,1-1.58-3.65c-.11-.32-.19-.65-.28-1a12.56,12.56,0,0,1-.25-1.3,9.87,9.87,0,0,1-.09-1.32,6.79,6.79,0,0,1,.14-1.22,2.73,2.73,0,0,1,1-1.86,3.69,3.69,0,0,1,2,.63c.72.43,1.46,1,2.19,1.52l1.53,1.1a47.13,47.13,0,0,0,9.94,5.43c.76.29,1.51.52,2.28.76,1.42.44,2.36.62,3,.87a3.73,3.73,0,0,1,1.38.87,3.92,3.92,0,0,1,.46.43c.17.23-.06.47-.68.72a6.19,6.19,0,0,1-2.89.33,23.09,23.09,0,0,1-5.5-1.25A31.24,31.24,0,0,1,23.2,32c-1.62-.94-3.19-2-4.71-3l-1.13-.8-.51-.37h0s0,0,0,0h0l0,.13c.07.28.14.56.23.85a17.8,17.8,0,0,0,.63,1.71,30.29,30.29,0,0,0,4,6.55Z"/><path class="cls-1" d="M61.94,16.66a1,1,0,0,0,.09-.21.52.52,0,0,0,.06-.19.17.17,0,0,0,0-.17.4.4,0,0,0-.27-.05,2,2,0,0,0-.37.07l-.1,0-.43.21L60,16.8c-1,.55-2,1.26-3,1.88a62.9,62.9,0,0,0-10,7.63,31.73,31.73,0,0,0-3.68,4.19c-1.45,1.87-2.67,3.87-4,5.79-.42.6-1,.26-1.37-.64a4.73,4.73,0,0,1,.19-3.73,33.07,33.07,0,0,1,2-3.41,30,30,0,0,1,2.46-3,40.4,40.4,0,0,1,5.7-5.24c2.47-1.86,4.81-4.05,7.44-5.83.73-.49,1.47-1,2.23-1.41.38-.22.76-.44,1.16-.65.59-.32,1.2-.65,1.81-.91a7.69,7.69,0,0,1,3.43-.74,2.5,2.5,0,0,1,1.46.52,1.25,1.25,0,0,1,.39.66l.27.72a2,2,0,0,1,.14.49v1a4.18,4.18,0,0,1,0,1.05c-.13.71-.19,1.42-.38,2.13s-.34,1.13-.51,1.65l-.52,1.42c-1.15,3-2.55,5.84-3.55,8.75a27,27,0,0,0-1.33,6.76c0,.48,0,1,0,1.43-.05,1.74-.19,2.2-1.41,2.76-.27.12-.54.28-.81.38-.91.34-1.81-.43-2.1-2.12a18.34,18.34,0,0,1,.55-7.25,48.19,48.19,0,0,1,2.29-6.65q1-2.3,1.93-4.59c.33-.76.54-1.49.81-2.23l.15-.53.07-.27,0,0,0-.07Z"/><path class="cls-1" d="M10,25.69a14.08,14.08,0,0,1-.32-2.88,10.89,10.89,0,0,1,.12-1.19c.09-.35.17-.7.27-1.05a4.24,4.24,0,0,1,1-1.39,2,2,0,0,1,.83-.44,3.23,3.23,0,0,1,.74-.11,5.46,5.46,0,0,1,1.62.21,10.19,10.19,0,0,1,2.06.92l.66.43.66.48,1.33,1,1.31,1c.21.17.43.33.64.51l.36.3a63.46,63.46,0,0,0,10.21,7.43,22.61,22.61,0,0,0,5.1,2,33.09,33.09,0,0,0,6.79,1.2c.73.05.74.59.16,1.28A5.13,5.13,0,0,1,40.1,37,22.13,22.13,0,0,1,36,36.76a21.34,21.34,0,0,1-3.89-1.18,32.55,32.55,0,0,1-6.91-3.85c-1.26-.92-2.58-1.78-3.9-2.64l-2-1.3-1-.67-.25-.19-.15-.12c-.36-.32-.78-.7-1.27-1.09a2.89,2.89,0,0,0-.84-.52c-.2-.06-.26.11-.3.22a1,1,0,0,0-.08.39,2.35,2.35,0,0,0,0,.59,7.78,7.78,0,0,0,.26,1.33c.07.23.15.47.23.72l.24.6.29.69a42.59,42.59,0,0,0,4.48,8,27.28,27.28,0,0,0,4.88,4.9L27,43.5c1.24,1.29,1.44,1.89,1.11,3.13-.08.29-.12.58-.21.84a1.24,1.24,0,0,1-1,.79,3.73,3.73,0,0,1-2-.32A10.12,10.12,0,0,1,21.72,46a24.77,24.77,0,0,1-2.6-2.52,38.1,38.1,0,0,1-4.23-5.86,48,48,0,0,1-2.48-4.78c-.19-.41-.37-.82-.55-1.24L11.6,31l-.31-.78a33.56,33.56,0,0,1-1.42-4.54Z"/><path class="cls-1" d="M58.49,71.48c-1.26-3-2.45-5.91-3.61-9.18a19.59,19.59,0,0,1-.62-2.07,8.9,8.9,0,0,1-.32-2,5.1,5.1,0,0,1,.21-1.78,2.81,2.81,0,0,1,.35-.77s0-.13.14-.16a.8.8,0,0,1,.13-.19,2,2,0,0,1,.31-.28,5.51,5.51,0,0,1,3.53-.85c.69,0,1.45,0,2.09.08l1.34.09c2.3.16,4.55.14,6.77.14a35,35,0,0,0,7.51-.69c.59-.13,1.18-.29,1.75-.47l.84-.3.6-.25a4.62,4.62,0,0,0,1.35-.87,2.68,2.68,0,0,0,.59-.7c0-.16-.19-.2-.31-.25a2.34,2.34,0,0,0-.4-.11c-.27-.07-.56-.12-.86-.17l-1.06-.17c-3.61-.51-7.3-1-10.9-1.88a35.9,35.9,0,0,1-6.76-2.48,18.93,18.93,0,0,1-5.81-4.36c-1-1.19-.39-1.36.88-1s3.36,1.08,5.64,2a33.42,33.42,0,0,0,6.05,1.77c2.09.43,4.19.9,6.35,1.21,1.08.17,2.16.31,3.26.46l1.66.21,1.35.16c.54,0,1.08.11,1.61.18a14.9,14.9,0,0,1,2.91.6,3.89,3.89,0,0,1,1.67,1.12,2.69,2.69,0,0,1,.47.67,1.65,1.65,0,0,1,.19,1,3.71,3.71,0,0,1-.7,1.92c-.38.52-.83,1-1.28,1.53a15,15,0,0,1-2.74,2.15l-.79.46a4,4,0,0,1-.41.22l-.36.18c-.37.17-.75.33-1.13.48a27.72,27.72,0,0,1-4.58,1.34,44.83,44.83,0,0,1-9.15.83c-1.65,0-3.28-.08-4.89-.15-.47,0-.65,0-.77,0l-.45,0-.47,0c-.14,0-.36,0-.43.14a2,2,0,0,0,0,.9l.11.47.06.24.16.52c.47,1.46,1,2.93,1.64,4.39,1.5,3.6,3.14,7.18,4.75,10.8.75,1.76,1.91,4.1,2.08,5.74a6.5,6.5,0,0,1,0,1.15,1.35,1.35,0,0,1-.41,1,4.4,4.4,0,0,1-2.45.6,14.51,14.51,0,0,1-5.74-1.61,34.41,34.41,0,0,1-4.11-2.34,36.32,36.32,0,0,1-10.49-9.9,20.77,20.77,0,0,1-1.65-2.87,10,10,0,0,1-.83-4.36,2.74,2.74,0,0,1,1-2.06,4.08,4.08,0,0,1,.76-.6c.89-.4,1.67,1,2.77,3.2.24.4.44.8.68,1.18l.37.58c.1.2.22.39.34.58a23.41,23.41,0,0,0,1.5,2.27,31.26,31.26,0,0,0,3.75,4.17,34.91,34.91,0,0,0,4.5,3.59c.8.52,1.62,1,2.45,1.49.21.12.42.22.63.33l.3.15h0s.06.07.08,0v0h0s0,0,0-.09l-.23-.54-1-2.19-2-4.42Z"/><path class="cls-1" d="M15.71,68.58a3.15,3.15,0,0,0-.65,1.12c0,.1-.06.27,0,.32s.22,0,.37-.1a3.09,3.09,0,0,0,.29-.2,2,2,0,0,1,.46-.33c-.07.1,1.32-.81,2.22-1.37s2-1.23,3-1.8c2-1.18,4.11-2.21,6.2-3.25,1.89-.87,3.75-1.82,5.7-2.61.63-.25,1.25-.5,1.9-.7s1.32-.37,2-.54a20.18,20.18,0,0,1,2.07-.26,3.13,3.13,0,0,1,.53,0l.54.13,1.06.29c.86.28.67.61,0,1.29-.33.35-.78.81-1.24,1.31a3.76,3.76,0,0,1-1.64,1c-1.11.4-2.21.83-3.33,1.34s-2.26,1-3.41,1.44c-2.28,1-4.57,2.2-6.91,3.35-.69.36-1.39.72-2.08,1.13s-1.34.85-2,1.29L18.69,72.9l-3.31,2.41-1.12.81-.4.25c-.11,0-.22.08-.33.12l-.65.25a5.81,5.81,0,0,1-.61.22l-.49.08a4,4,0,0,1-.88.1,1.27,1.27,0,0,1-.55-.14,1.31,1.31,0,0,1-.5-.49,4.45,4.45,0,0,1-.46-2.38A12.71,12.71,0,0,1,10,71c.25-.76.53-1.54.86-2.31l.95-2.19c.49-1,1-2,1.53-3a91.36,91.36,0,0,1,5.36-8.67l2.15-3.28a30,30,0,0,1,2.27-3.21c.37-.44.71-.9,1.12-1.32a5,5,0,0,1,1.87-1.38,2.41,2.41,0,0,1,1.57.17,4.8,4.8,0,0,1,.68.28c.32.19.42.55.41,1.06A3.66,3.66,0,0,1,28.25,49l-1.71,2.94c-.56,1-1.25,1.87-1.88,2.81-1.28,1.87-2.57,3.77-3.82,5.7q-1.45,2.11-2.81,4.3c-.45.73-.88,1.47-1.3,2.21l-.61,1.13-.27.51,0,0Z"/></g></svg>