<svg xmlns="http://www.w3.org/2000/svg" width="96" height="96" viewBox="0 0 96 96"><defs><style>.cls-1{fill:#231f20;}</style></defs><title>scribble final version</title><g id="Layer_1" data-name="Layer 1"><path class="cls-1" d="M62.85,66.62a14.62,14.62,0,0,0,1.79-4.05A13.87,13.87,0,0,0,65.21,58a19.07,19.07,0,0,0-.55-3.41A18.2,18.2,0,0,0,58,44.1a13.63,13.63,0,0,0-5.13-2.33,15.44,15.44,0,0,0-1.78-.32c-.6,0-1.21-.1-1.82-.09a4.28,4.28,0,0,1-.93-.08,7.46,7.46,0,0,0-.95-.06c-.32,0-.65,0-1,0a7.73,7.73,0,0,0-.94.17c-.8.14-.76,0-.17-.45.3-.22.73-.5,1.26-.93a9.5,9.5,0,0,1,2-1.28,13.23,13.23,0,0,1,4.53-.33,9.61,9.61,0,0,1,2.26.43,16.36,16.36,0,0,1,2.15.81,18.22,18.22,0,0,1,6.92,5.66,41.33,41.33,0,0,1,2.91,4.51,21.74,21.74,0,0,1,2,5.07A19.25,19.25,0,0,1,64.54,72.9a21.21,21.21,0,0,1-9.37,5.64,23.85,23.85,0,0,1-8.48,1.2,7.39,7.39,0,0,1-1.92-.25c-2.33-.73-2.85-1.57-2.71-2.94a5.38,5.38,0,0,1,.12-.92c.29-1,1.39-1.33,2.76-1.34.53,0,1,0,1.54-.08s1,0,1.46,0c1,0,1.93-.12,2.88-.25a18.8,18.8,0,0,0,5.5-1.7,13.26,13.26,0,0,0,1.86-1.06c.3-.21.62-.39.9-.62l.85-.69a14.35,14.35,0,0,0,2.8-3.31Z"/><path class="cls-1" d="M66.77,56.62l-.11-1.4-.22-1.28a8.46,8.46,0,0,0-.34-1.29,6.59,6.59,0,0,0-.44-1.27,15.92,15.92,0,0,0-2.82-4.66,15,15,0,0,0-9.73-5.09L51,41.46l-2.18.15a12.75,12.75,0,0,0-2.18.32c-.73.15-1.46.25-2.19.41a34.49,34.49,0,0,0-3.81,1.23l-1.85.83-1.3.59c-.56.24-1.14.67-1.65.9l-5,1.48-.62.19a1.43,1.43,0,0,1-.29.08.66.66,0,0,1-.22-.08,2,2,0,0,1-.73-1,8.39,8.39,0,0,1-.54-2.4c0-.23,0-.49,0-.73s-.06-.47-.08-.71,0-.52.05-.79l.13-.84c.2-1.12.45-2.24.73-3.36.36-1.42.76-2.82,1.18-4.22.85-2.78,1.77-5.52,2.81-8.25.7-1.84,1.43-3.69,2.27-5.54A23,23,0,0,1,36.94,17a8.32,8.32,0,0,1,2.71-2.9,6.15,6.15,0,0,1,2.64-.53,8.58,8.58,0,0,1,1.35.1c.38.05.69.1,1,.17a48.81,48.81,0,0,1,4.89,1.34l4.59,1.48,2.25.71c.74.27,1.48.51,2.22.75A40.19,40.19,0,0,0,63.1,19.3c1.85.33,1.71,1-.09,1.87a14.16,14.16,0,0,1-3.83,1,20.76,20.76,0,0,1-2.58.18l-1.4,0c-.46-.08-.93-.15-1.41-.25-2.44-.52-4.81-1.15-7.06-1.67a30,30,0,0,0-3.16-.61l-.64-.06s0,0,0,0h-.06c0-.1-.09.13-.17.26l-.27.5c-.39.71-.85,1.52-1.26,2.38-.84,1.72-1.63,3.56-2.38,5.43S37.3,32.08,36.62,34l-1,2.89-.47,1.45-.23.73a1.72,1.72,0,0,1-.09.19A4.65,4.65,0,0,0,34.35,41c0,.08,0,.19.1.2s.12-.05.19-.08L35,41l.84-.45a1.29,1.29,0,0,0,.41-.19l1.47-.61,1.47-.61,1.55-.48c1-.32,2-.74,3.08-1l3.19-.69c1.19-.16,2.41-.22,3.62-.33s2.45.1,3.67.16l1.82.35a11.09,11.09,0,0,1,1.81.43,19.76,19.76,0,0,1,3.49,1.37,20.51,20.51,0,0,1,6,4.46,23.6,23.6,0,0,1,4.09,6.22c.27.72.55,1.44.81,2.16s.4,1.51.57,2.26.25,1.47.34,2.22.14,1.5.15,2.25a24.35,24.35,0,0,1-1.47,9,21.77,21.77,0,0,1-3.47,6,24,24,0,0,1-5.14,4.62,26.68,26.68,0,0,1-12.78,4.41,30.17,30.17,0,0,1-20-5.46l-1.86-1.45c-.6-.5-1.15-1.07-1.71-1.64a15.36,15.36,0,0,1-2.23-3,11.32,11.32,0,0,1-.93-2.39,3.87,3.87,0,0,1-.06-1.81,6.18,6.18,0,0,1,.73-1.53,9.7,9.7,0,0,1,.73-1.15c.43-.46,1.1-.29,2.2.15a3,3,0,0,1,.83.4c.26.18.47.4.76.6a16.62,16.62,0,0,1,1.72,1.53c.49.41,1,.8,1.4,1.23s1,.77,1.41,1.16A14.2,14.2,0,0,0,35,70.25a14.81,14.81,0,0,0,1.49,1A23.54,23.54,0,0,0,43,74.12a19.75,19.75,0,0,0,13.56-.92,17.94,17.94,0,0,0,4.33-2.76,9.35,9.35,0,0,0,.92-.85,12.48,12.48,0,0,0,.86-.92,8,8,0,0,0,.8-1,9,9,0,0,0,.73-1,16.39,16.39,0,0,0,2.42-10.05Z"/></g></svg>