<svg xmlns="http://www.w3.org/2000/svg" width="96" height="96" viewBox="0 0 96 96"><defs><style>.cls-1{fill:#231f20;}</style></defs><title>scribble final version</title><g id="Layer_1" data-name="Layer 1"><path class="cls-1" d="M38.43,26.5c4,.13,8,.26,12,.34,1.46,0,2.91-.1,4.37-.05l15.43.49c2.28.1,4.58.12,6.85.14a35.92,35.92,0,0,1,8.87.68,1.23,1.23,0,0,1,.58.33.31.31,0,0,1,.06.37,3.58,3.58,0,0,1-.86.76,8.11,8.11,0,0,1-3.79,1.5c-2.9.26-5.84.58-8.79.79L70.92,32,68.7,32c-1.49,0-3-.1-4.47-.2-3.57-.23-7.27.17-10.92.26-4,.09-8,.13-12.06.18l-7.42.09c-3.75.06-7.52,0-11.23.2-1.45.08-2.88.25-4.3.43l-2.14.29c-.72.08-1.43.13-2.15.18s-1.24.13-1.88.14c-2.37,0-3.13-.41-3.64-1.83a8,8,0,0,1-.34-1c-.22-1.08.73-2,2.43-2.44a44.06,44.06,0,0,1,7.76-1.45c2.64-.23,5.33-.34,8-.43,2-.06,4-.08,6-.1l6,0Z"/><path class="cls-1" d="M57.38,42.8c2.53.17,5.08.33,7.62.45.92,0,1.85-.06,2.77,0,3.27.2,6.54.45,9.82.6C79,44,80.5,44,81.94,44a19.33,19.33,0,0,1,5.68.56.79.79,0,0,1,.4.27.29.29,0,0,1,0,.32,7.53,7.53,0,0,1-.61.74A4.41,4.41,0,0,1,85,47.33c-1.83.25-3.7.52-5.56.69l-1.4.12c-.47,0-.94,0-1.41,0-1-.05-1.89-.12-2.84-.22a55.6,55.6,0,0,0-6.94.12c-2.55,0-5.1,0-7.66,0H54.5c-2.38,0-4.77-.08-7.14.07a25.18,25.18,0,0,0-2.73.36,22.87,22.87,0,0,1-2.72.4c-.4,0-.79.11-1.2.11-1.51,0-2-.37-2.32-1.67-.08-.29-.17-.58-.22-.87a2.07,2.07,0,0,1,1.54-2.22,19.31,19.31,0,0,1,4.91-1.27c1.67-.2,3.38-.28,5.09-.33,1.27,0,2.54,0,3.82,0l3.84.1Z"/><path class="cls-1" d="M73.33,64.61c1.13.13,2.27.26,3.41.35.41,0,.82,0,1.24,0,1.46.14,2.93.33,4.41.44a18.13,18.13,0,0,0,2,0,5.78,5.78,0,0,1,2.52.31c.26.12.22.7,0,1.33s-.6,1.34-1.07,1.49a8.87,8.87,0,0,1-5,.08,14.78,14.78,0,0,0-3.12,0c-1.15,0-2.3-.07-3.45-.12-.71,0-1.42-.07-2.13-.08-1.07,0-2.15-.1-3.21,0a20.69,20.69,0,0,0-2.46.41,4.68,4.68,0,0,1-.54.1c-.67,0-.88-.3-1-1.2,0-.21-.08-.42-.09-.62a1.66,1.66,0,0,1,.69-1.61,9.78,9.78,0,0,1,2.21-.8c.37-.09.75-.16,1.13-.22a8.68,8.68,0,0,1,1.14,0c1.13,0,2.28.11,3.42.16Z"/></g></svg>