<svg xmlns="http://www.w3.org/2000/svg" width="96" height="96" viewBox="0 0 96 96"><defs><style>.cls-1{fill:#231f20;}</style></defs><title>scribble final version</title><g id="Layer_1" data-name="Layer 1"><path class="cls-1" d="M64.34,82.24l-2,.73-2.07.55-1,.27L58.16,84c-.7.11-1.4.24-2.1.33a38.67,38.67,0,0,1-8.4,0,39.46,39.46,0,0,1-8.09-1.78c-1.32-.39-2.57-1-3.84-1.46-.63-.27-1.24-.59-1.85-.88a19.44,19.44,0,0,1-1.81-1,41.7,41.7,0,0,1-9.54-7.08,37.29,37.29,0,0,1-6.26-8.4c-.41-.78-.77-1.58-1.15-2.36s-.64-1.64-1-2.45a21.42,21.42,0,0,1-.87-2.48,20.46,20.46,0,0,1-.66-2.56,28.85,28.85,0,0,1-.32-10.52,36.79,36.79,0,0,1,3.23-9.91A38.85,38.85,0,0,1,26.86,19.16a29.5,29.5,0,0,1,10.56-5.4A22,22,0,0,1,49.16,14c1.13.58,1.57.88,1.51,1s-.65.17-1.68.54c-.52.26-1.1.28-1.77.54l-2.17.73c-.78.28-1.58.68-2.42.95s-1.69.67-2.59.92-1.54.65-2.31.92l-2.28,1c-.73.41-1.47.77-2.19,1.19s-1.4.9-2.08,1.38A35.83,35.83,0,0,0,24,30.33a37.09,37.09,0,0,0-5.11,9l-.85,2.42-.62,2.48c-.15.84-.25,1.69-.39,2.54s-.14,1.71-.22,2.58a22.56,22.56,0,0,0,3.26,12.25,35.39,35.39,0,0,0,8.83,9.71c7.63,5.92,17.73,8.9,27.18,7.26.72-.16,1.46-.24,2.16-.46l2.12-.61,2.05-.81c.69-.26,1.32-.64,2-1a29,29,0,0,0,7.08-5.26,28.63,28.63,0,0,0,7-11.33,24.36,24.36,0,0,0,1.21-6.5,12.82,12.82,0,0,0,0-1.64,9.73,9.73,0,0,0-.11-1.62c-.08-.54-.11-1.08-.2-1.61L79,46.18c-.2-.81-.54-1.57-.8-2.35s-.71-1.48-1.15-2.17l-.68-1a6.91,6.91,0,0,0-.74-1A14,14,0,0,0,74.05,38a8.9,8.9,0,0,0-3.68-2,11.21,11.21,0,0,0-4.17-.17,13.59,13.59,0,0,0-3.69,1c-4.41,2.15-6.22,3-8,3a9.37,9.37,0,0,1-1.25.06c-.56-.08-.6-.7-.21-1.92a9.56,9.56,0,0,1,1-2.16,9.73,9.73,0,0,1,.89-1.3,8,8,0,0,1,1.2-1.37A21.45,21.45,0,0,1,61,29.94a18.26,18.26,0,0,1,6.13-1.71,16.29,16.29,0,0,1,12.63,5,12.73,12.73,0,0,1,1.07,1.21l1,1.22c.63.83,1.16,1.75,1.73,2.64s.94,1.89,1.39,2.85.72,2,1,3a26.7,26.7,0,0,1,.26,12.37A35.45,35.45,0,0,1,75.4,75.4c-.54.48-1.07,1-1.62,1.45L72,78.16l-.88.65c-.3.21-.61.39-.92.58l-1.87,1.14c-.64.34-1.3.65-2,1a15.19,15.19,0,0,1-2,.87Z"/><path class="cls-1" d="M52,24.38c.57-.23,3.22,11.94,4.77,13.65,2.4,2.64,9.38,9.62,8.79,10C62.78,49.71,41.45,49.39,40.47,47,38.68,42.58,50.1,25.15,52,24.38Z"/></g></svg>