<svg xmlns="http://www.w3.org/2000/svg" width="96" height="96" viewBox="0 0 96 96"><defs><style>.cls-1{fill:#231f20;}</style></defs><title>scribble final version</title><g id="Layer_1" data-name="Layer 1"><path class="cls-1" d="M69.89,31.18,55.53,42.86c-2.38,2-4.74,3.9-7.06,5.88-1.16,1-2.31,2-3.44,3l-.51.44-.42.37a3.67,3.67,0,0,0-.56.63c-.07.11-.15.26-.07.37s.26.06.38.07c.56,0,1.07-.09,1.61-.09l7.62-.62c2.65-.2,5.32-.42,8-.52,1.34,0,2.69-.06,4-.07h2l1,0a14,14,0,0,1,1.43.07l.79.09c.25,0,.47.13.71.19a7.83,7.83,0,0,0,1.44.22,22.21,22.21,0,0,1,2.68.47,7.82,7.82,0,0,1,2.11.85,4,4,0,0,1,1.48,1.45c0,.08.07.18.11.27s0,.2,0,.29a1.88,1.88,0,0,1,0,.53,3.09,3.09,0,0,1-.31.85,6.3,6.3,0,0,1-1.16,1.58,20,20,0,0,1-4.64,3.19l-1.36.74-1.07.56-1.77.9L65.17,66.4C62.06,68,59,69.65,56,71.44c-.74.45-1.47.91-2.18,1.38l-1,.72-.47.33-.28.21a6.19,6.19,0,0,0-1.67,1.72,1.38,1.38,0,0,0-.12.34c0,.14.11.24.23.28a3.33,3.33,0,0,0,.77.11c.53,0,1,0,1.51,0h1.08l1.68,0c1.13,0,2.27,0,3.42,0a44.4,44.4,0,0,1,7,.52,14.29,14.29,0,0,1,6.87,2.69c1.29,1.09,1.42,2,1.12,2.11s-1.1-.19-2.26-.38c-2.34-.42-6.18-.09-11.15-.09-2.07,0-4.17.07-6.33.15l-2.42.08c-1.08,0-2.18,0-3.2,0a8,8,0,0,1-2.64-.53,4,4,0,0,1-1.53-1.1,3.55,3.55,0,0,1-.51-.77,4,4,0,0,1-.32-1,3.63,3.63,0,0,1,.23-2A10.45,10.45,0,0,1,47,71.81c.78-.68,1.68-1.34,2.45-1.89l.77-.53.73-.47c1-.61,1.93-1.19,2.89-1.75C57.67,65,61.59,63,65.46,61.09c1-.48,1.91-1,2.86-1.48.66-.35.46-.23.6-.29l.25-.09c.17-.07.37-.15.6-.27a2.57,2.57,0,0,0,.35-.2c.11-.08.24-.2.21-.32a.69.69,0,0,0-.43-.35,3.68,3.68,0,0,0-1-.22l-.29,0h-.8l-2,.07c-2.73.14-5.51.4-8.31.59s-5.62.49-8.45.75l-5.13.45a22.13,22.13,0,0,1-3.41.11,12.79,12.79,0,0,1-3-.2,6,6,0,0,1-2.09-.88,2.75,2.75,0,0,1-.39-.32.59.59,0,0,1-.19-.26.11.11,0,0,1,0-.07v0h0s.14-.08.07,0l-.11-.14a2.28,2.28,0,0,1-.19-1.21,6.11,6.11,0,0,1,.7-2.25,11.66,11.66,0,0,1,1.92-2.6c.82-.9,1.75-1.78,2.66-2.65l1.36-1.28.88-.79Q43.91,45.5,45.69,44c4.76-4.06,9.58-8,14.37-11.93,2.95-2.42,5.9-4.85,8.81-7.3Q71,22.91,73.18,21l1.17-1c.36-.33.73-.67,1.09-1l.72-.72c.23-.27.49-.55.7-.85a2.42,2.42,0,0,0,.27-.5c.08-.21-.17-.3-.32-.34a7.54,7.54,0,0,0-2.12,0c-.72.07-1.45.18-2.18.32l-1.2.23-2,.43a136.29,136.29,0,0,0-15.48,4.62A131.49,131.49,0,0,0,30.41,33.6c-1.62,1-3.15,2.06-4.76,3.08l-3.75,2.4a16,16,0,0,1-1.47.81,11.79,11.79,0,0,1-1.26.6,10.14,10.14,0,0,1-3.63.85,10.41,10.41,0,0,1-1.3.06c-.54-.09-.36-.74.35-2a21,21,0,0,1,4.05-4.93c1.56-1.32,3.19-2.59,4.86-3.8s3.42-2.33,5.2-3.42a117.54,117.54,0,0,1,11.1-5.91,151,151,0,0,1,24-8.79c1.7-.46,3.41-.89,5.15-1.29l1.33-.3c.84-.16,1.68-.35,2.51-.5,1.67-.32,3.32-.56,4.9-.72a14.7,14.7,0,0,1,4.14.08A5.56,5.56,0,0,1,84.32,11a5.14,5.14,0,0,1,.82.9,5.48,5.48,0,0,1,.39.7,4.28,4.28,0,0,1,.27,2.91A6.78,6.78,0,0,1,84.62,18a22.69,22.69,0,0,1-2.52,2.89c-1,1-2,1.94-3.08,2.89l-1.66,1.33,0,0s-.1,0-.11,0l-.07.06-.1.09-.2.18-.4.35c-2.14,1.88-4.29,3.7-6.44,5.51Z"/></g></svg>