<svg xmlns="http://www.w3.org/2000/svg" width="96" height="96" viewBox="0 0 96 96"><defs><style>.cls-1{fill:#231f20;}</style></defs><title>scribble final version</title><g id="Layer_1" data-name="Layer 1"><path class="cls-1" d="M51.58,41a5.64,5.64,0,0,1-3.31,0,1.57,1.57,0,0,1-1.05-1A27,27,0,0,1,46,33.12c-.14-2,.55-3.82.83-5.7.27-1.62.56-3.24.91-4.86.17-.81.35-1.61.57-2.41a24.33,24.33,0,0,1,.67-2.4c.35-.92.8-1.81,1.16-2.72.17-.44.28-.9.44-1.35l.23-.68.33-.63c.08-.14,0-.34.29-.4.65-.15,2.23.5,3.3,1.29.24.19.66.45.65.52-.21.66,1.9,2.14,1.6,2.73-.51,1.15-.26,2.58-.27,3.88a3.81,3.81,0,0,1-.48,1.41c-.31.57-.85,1.08-1.14,1.67a20.18,20.18,0,0,0-1,3.22,48,48,0,0,0-1,5.6c-.36,2-.6,3.9-.71,5.33s-.07,2.31-.09,2.37a1.36,1.36,0,0,1-.3.46A2.79,2.79,0,0,0,51.58,41Z"/><path class="cls-1" d="M45,82.46c-3,.27-3.94-.28-4.19-.87a25.2,25.2,0,0,1-1.23-3.07A13.09,13.09,0,0,1,39.13,77c-.06-.52-.12-1-.13-1.56a31.71,31.71,0,0,1,.6-5.2,37.1,37.1,0,0,1,.65-4.37c.3-1.43.59-2.85,1-4.25.3-.81.65-1.6.9-2.42A5.52,5.52,0,0,1,42.57,58l.27-.56a.84.84,0,0,1,.16-.27l.28-.24c.13-.1.19-.24.44-.3a3.81,3.81,0,0,1,2.54.54c.18.11.52.27.52.34-.08.61,1.95,1.67,1.94,2.32a10.26,10.26,0,0,0,.07,1.83c.11.62.27,1.26.34,1.87a2.73,2.73,0,0,1-.27,1.35c-.25.55-.69,1-.94,1.61a23.07,23.07,0,0,0-.67,3,49,49,0,0,0-.84,5c-.09.87-.17,1.73-.2,2.52s-.23,1.53-.29,2.16-.11,1.16-.13,1.53,0,.61,0,.65A9.23,9.23,0,0,1,45,82.46Z"/><path class="cls-1" d="M81.57,53.56c-.76.8-1.25,1.42-1.59,1.82a2.14,2.14,0,0,1-.85.71,6,6,0,0,1-1.2.33l-1.27.3c-.87.21-1.75.41-2.66.59a6.56,6.56,0,0,1-1.17.14c-.39,0-.79,0-1.19-.05-.8,0-1.61-.13-2.43-.13q-2.1,0-4.29,0a40.14,40.14,0,0,1-4.41-.59c-.88-.21-1.73-.43-2.63-.66-.41-.15-.83-.26-1.26-.38s-.85-.29-1.26-.46c-.14,0-.34,0-.4-.22-.17-.62.47-2.33,1.21-3.53.17-.27.42-.74.48-.73.59.13,1.84-2.12,2.35-2a5.17,5.17,0,0,0,1.57,0c.55-.09,1.1-.24,1.62-.28a2.55,2.55,0,0,1,1.22.19c.49.23,1,.63,1.52.83a21.52,21.52,0,0,0,2.85.54c1.43.19,3.24.33,5.07.46s3.66.52,5.14.83c.35.07.7.16,1,.25a2.73,2.73,0,0,1,.82.28c.48.26.75.43.8.46A6.54,6.54,0,0,1,81.57,53.56Z"/><path class="cls-1" d="M15.08,45.33A7,7,0,0,1,15.62,43a1.92,1.92,0,0,1,.83-.94,5.86,5.86,0,0,1,1.48-.53l1.49-.37a27.51,27.51,0,0,1,3-.51,8,8,0,0,1,2.54.13c.83.14,1.66.31,2.5.41,1.44.17,2.89.38,4.34.6a41,41,0,0,1,4.28,1.15l2.5.91c.38.18.78.34,1.18.49s.8.34,1.19.53c.13.06.32,0,.36.24.12.63-.62,2.3-1.44,3.45-.18.26-.46.71-.52.69-.59-.17-2,2-2.56,1.8a6.3,6.3,0,0,0-1.64-.17c-.58,0-1.17.1-1.71.07a2.54,2.54,0,0,1-1.23-.35c-.49-.29-.94-.75-1.45-1A18.94,18.94,0,0,0,28,48.64a49.63,49.63,0,0,0-4.89-1c-1.73-.38-3.43-.74-4.72-.92a9.91,9.91,0,0,1-1.56-.28,7.09,7.09,0,0,1-.67-.24C15.83,46,15.56,45.66,15.08,45.33Z"/></g></svg>