<svg xmlns="http://www.w3.org/2000/svg" width="96" height="96" viewBox="0 0 96 96"><defs><style>.cls-1{fill:#231f20;}</style></defs><title>scribble final version</title><g id="Layer_1" data-name="Layer 1"><path class="cls-1" d="M66.56,58.58c-3.13,4.28-6.39,8.46-9.9,12.48a66.93,66.93,0,0,1-12,11.11L43.38,83,42,83.83a11.08,11.08,0,0,1-1.51.72,9.3,9.3,0,0,1-1.64.61,9,9,0,0,1-1.8.41,11.58,11.58,0,0,1-1.92.12,16,16,0,0,1-3.36-.52,28.4,28.4,0,0,1-9.87-4.91,20.6,20.6,0,0,1-4-4,12.47,12.47,0,0,1-2.42-5.56,10,10,0,0,1,0-3.19A13.33,13.33,0,0,1,15.85,66l.45-1.27a38.87,38.87,0,0,1,2.14-4.83,55.94,55.94,0,0,1,5.69-8.68,58.11,58.11,0,0,1,6.29-6.76A36.38,36.38,0,0,1,34.1,41.5c.33-.23.65-.46,1-.67l1-.62.52-.31.6-.29a9.58,9.58,0,0,1,1.25-.5,12.4,12.4,0,0,1,6.77-.28,14.57,14.57,0,0,1,6,2.87,11.5,11.5,0,0,1,3.68,5.68,8.41,8.41,0,0,1,.28,3.53A7.91,7.91,0,0,1,54,54.17a7.06,7.06,0,0,1-.56.71,2.36,2.36,0,0,1-.5.37c-.29.17-.5.16-.64,0C52,55,52.07,54.2,52,53.16a6.79,6.79,0,0,0-.91-3.35,7,7,0,0,0-1.19-1.48,17.17,17.17,0,0,0-1.75-1.28,5.88,5.88,0,0,1-.81-.57,7.52,7.52,0,0,0-.85-.53,10,10,0,0,0-1.84-.8A8.11,8.11,0,0,0,41,44.92a6.2,6.2,0,0,0-1.64.5L38.32,46c-.35.19-.7.43-1,.64a30.84,30.84,0,0,0-4.11,3.11,52.2,52.2,0,0,0-7.28,8A40.23,40.23,0,0,0,20.55,67a4,4,0,0,0-.22.67,3,3,0,0,0-.14.57,4,4,0,0,0-.07.59,2.92,2.92,0,0,0,0,.59,6.1,6.1,0,0,0,.7,2.42,13.24,13.24,0,0,0,4.05,4.37,23.48,23.48,0,0,0,5.7,3,19.57,19.57,0,0,0,3,.83,12.87,12.87,0,0,0,1.44.18,6.11,6.11,0,0,0,1.24-.08A2.62,2.62,0,0,0,37,80l.72-.2c.49-.24,1-.41,1.48-.67s1-.54,1.49-.87,1-.66,1.47-1a48.32,48.32,0,0,0,5.57-4.93A110.46,110.46,0,0,0,57.57,60.6,175.13,175.13,0,0,0,68,44.69c1.83-3.15,3.59-6.36,5.16-9.61.78-1.63,1.51-3.28,2.13-4.91a23.83,23.83,0,0,0,.77-2.41l.13-.54a3.5,3.5,0,0,0,0-1.19.82.82,0,0,1-.1-.26L76,25.43a6.09,6.09,0,0,0-.27-.71,14.14,14.14,0,0,0-.69-1.34A13.74,13.74,0,0,0,73.25,21a17.12,17.12,0,0,0-8.4-4.82,9,9,0,0,0-1.1-.18l-.52-.05h-.45a3,3,0,0,0-1.38.45,19.69,19.69,0,0,0-3.52,3.09c-1.08,1.12-2.12,2.35-3.29,3.54a23.36,23.36,0,0,1-5.08,4.26,4.82,4.82,0,0,1-3.46.52,7.7,7.7,0,0,1-1.43-.34c-.65-.32-.68-1.1-.22-2.22a16.42,16.42,0,0,1,2.81-4.29c2-2.29,3.81-4.64,6.08-7.11A20.6,20.6,0,0,1,57.72,10a12.12,12.12,0,0,1,1.73-.85,10,10,0,0,1,2.15-.54,13.21,13.21,0,0,1,3.77.08A22.27,22.27,0,0,1,76.2,13.81a23.73,23.73,0,0,1,4.13,4.56,20,20,0,0,1,1.57,2.79,13.25,13.25,0,0,1,.64,1.5l.25.77.16.48a2.46,2.46,0,0,1,.14.55c.1.52.15,1.05.2,1.58s-.06,1.08-.08,1.62A6.38,6.38,0,0,1,83,29c-.09.35-.17.75-.28,1a52.63,52.63,0,0,1-3.35,8c-1.23,2.46-2.54,4.82-3.9,7.13-2.72,4.65-5.67,9.11-8.74,13.49Z"/></g></svg>