<svg xmlns="http://www.w3.org/2000/svg" width="96" height="96" viewBox="0 0 96 96"><defs><style>.cls-1{fill:#231f20;}</style></defs><title>scribble final version</title><g id="Layer_1" data-name="Layer 1"><path class="cls-1" d="M61.74,11.5a17.09,17.09,0,0,1,5.94,8.31,20.11,20.11,0,0,1,.67,9.5,24.32,24.32,0,0,1-1.79,6.3,33,33,0,0,1-6.36,8.87,97.89,97.89,0,0,1-7.66,6.81,57.87,57.87,0,0,0-6.3,6C45,58.62,44,60.1,42.9,61.55S40.78,64.47,39.71,66c-.65.92-1.41.44-1.82-.9a7.64,7.64,0,0,1,.73-5.62,42.09,42.09,0,0,1,7.77-9.39c2.88-2.69,5.81-5.08,8.52-7.57a22.79,22.79,0,0,0,4.15-5,25.08,25.08,0,0,0,2.42-5.83,15.69,15.69,0,0,0,.47-6.5,11.27,11.27,0,0,0-.85-3,9.94,9.94,0,0,0-1.61-2.59A12.29,12.29,0,0,0,56.58,17a12.41,12.41,0,0,0-3.7-1.45A15.38,15.38,0,0,0,40.8,18.09a15.77,15.77,0,0,0-5.32,8c-.25.66-.31,1.37-.53,2-.73,2.52-1.21,3.29-3,3.75a11.67,11.67,0,0,1-1.22.33A1.67,1.67,0,0,1,29,31.41a4.69,4.69,0,0,1-.56-1.25,9.26,9.26,0,0,1-.2-1.73A20.26,20.26,0,0,1,32,17.05,21.84,21.84,0,0,1,42.32,9.12a21.29,21.29,0,0,1,19.52,2.22Z"/><path class="cls-1" d="M40.48,77.24a3.75,3.75,0,0,1,.22,1.57l-.06.82c0,.27-.12.55-.18.82l-.2.79a7.94,7.94,0,0,1-.42.75,5.68,5.68,0,0,1-1,1.34c-.27.28-.51.6-.77.87s-.61.41-.92.58a3.6,3.6,0,0,1-3.28-.36c-.21-.17-.41-.37-.61-.55s-.32-.44-.48-.65a6.48,6.48,0,0,1-.5-1.28,10.31,10.31,0,0,1-.41-2.15,3.11,3.11,0,0,1,.74-2.69c.22-.22.77.2,1.3.67s1.12.92,1.16,1.14a6.34,6.34,0,0,0,.25,1.27c.11.42.29.76.18,1a.28.28,0,0,0,.29.3.84.84,0,0,0,.4-.2,1.73,1.73,0,0,0,.68-1,1.23,1.23,0,0,0-.82-1.45.43.43,0,0,0-.51.14c-.23.22-.23.71-.18,1.2a1.2,1.2,0,0,1,0,.31c-.15.37-.57.38-1.84.21l-.86-.11a2.2,2.2,0,0,1-1.93-1.29,2.23,2.23,0,0,1-.16-.79,6.05,6.05,0,0,1,.1-.83,5.19,5.19,0,0,1,.71-1.7,7.83,7.83,0,0,1,.72-.82,3.13,3.13,0,0,1,1-.69A4.32,4.32,0,0,1,34.35,74a6.47,6.47,0,0,1,1.27-.18c2.42,0,4,1.62,5,3.34Z"/></g></svg>