<svg xmlns="http://www.w3.org/2000/svg" width="96" height="96" viewBox="0 0 96 96"><defs><style>.cls-1{fill:#231f20;}</style></defs><title>scribble final version</title><g id="Layer_1" data-name="Layer 1"><path class="cls-1" d="M76.06,71.76a32.84,32.84,0,0,1-8.78,6.09,42,42,0,0,1-9.93,3.21,44.28,44.28,0,0,1-7.42.93,44.59,44.59,0,0,1-24.84-6.88,37.07,37.07,0,0,1-8.71-7.68,28.26,28.26,0,0,1-4-6.36A20,20,0,0,1,11,53.73c0-1.55,1.07-1.4,2.4-.41A18.79,18.79,0,0,1,17.7,58a27.25,27.25,0,0,0,7.35,9.62,39.09,39.09,0,0,0,11,6.53c4.93,2,10.68,2.24,16.08,1.76A32.28,32.28,0,0,0,68.73,70a27.77,27.77,0,0,0,7.34-8.1,38.13,38.13,0,0,0,5.19-16.15,48.61,48.61,0,0,0-.88-13.15c-.18-.95-.43-1.87-.61-2.82-.44-3.56-.33-4.74,1.15-5.92a9.2,9.2,0,0,1,.86-.75c.84-.6,2.61.57,3.63,3.31a28.9,28.9,0,0,1,1.73,6.33,49.06,49.06,0,0,1,.69,6.69A50.41,50.41,0,0,1,86.4,53.21,39.35,39.35,0,0,1,76.17,71.86Z"/><path class="cls-1" d="M30.34,26.24c.37,3.24,2.38,7.33,5.49,8.76,1.34.62,3.33.23,3.67-1.49a13.08,13.08,0,0,0-1.75-8.75A8.33,8.33,0,0,0,35,21.64a3.09,3.09,0,0,0-4.45,2.07c-.9,3.09,3.92,4.41,4.82,1.32l.11-.4-1.15,1.5-.59.17L32,25.57c1.69,1.35,3.13,4.41,2.7,6.61l3.67-1.5a6.52,6.52,0,0,1-3-4.44,2.58,2.58,0,0,0-2.5-2.5,2.52,2.52,0,0,0-2.5,2.5Z"/><path class="cls-1" d="M45.48,19.55c.38,3.31,2.46,7.73,5.64,9.22,1.34.62,3.34.22,3.67-1.5a13.82,13.82,0,0,0-1.87-9.1A8.33,8.33,0,0,0,50.14,15,3.09,3.09,0,0,0,45.69,17c-.9,3.1,3.93,4.42,4.82,1.33l.12-.4-1.15,1.5-.6.17-1.77-.73c1.76,1.41,3.3,4.78,2.86,7.06l3.67-1.49c-1.52-.71-3-3.26-3.16-4.9-.36-3.16-5.37-3.2-5,0Z"/></g></svg>