<svg xmlns="http://www.w3.org/2000/svg" width="96" height="96" viewBox="0 0 96 96"><defs><style>.cls-1{fill:#231f20;}</style></defs><title>scribble final version</title><g id="Layer_1" data-name="Layer 1"><path class="cls-1" d="M35.72,31.83a38.16,38.16,0,0,1,7.45-5c.94-.53,1.85-1.07,2.81-1.55,1.69-.8,3.4-1.54,5.12-2.25l5.18-2c1.52-.59,3-1.25,4.49-1.9,1.93-.77,3.87-1.51,5.84-2.21.61-.21.58-.08.18.34a15.58,15.58,0,0,1-2.13,1.91c-.89.62-1.78,1.22-2.68,1.81s-1.88,1-2.83,1.48c-1.9.95-3.83,1.83-5.77,2.65a60,60,0,0,0-6.83,3.58,53.36,53.36,0,0,0-6.94,4.63A23.31,23.31,0,0,0,37.69,35l-.9.88-.82.95a9.15,9.15,0,0,0-1.09,1.47A13,13,0,0,0,34,39.92a20.86,20.86,0,0,0-1.22,3.65,39.72,39.72,0,0,0-.77,5.9c0,.44,0,.86-.05,1.29-.21,1.6-.43,2.09-1.09,2.48a4.2,4.2,0,0,1-.44.26c-.47.2-1-.49-1.28-1.79a22.78,22.78,0,0,1,1.07-12,17.88,17.88,0,0,1,2.23-4.46c.51-.64,1-1.24,1.53-1.85l1.65-1.68Z"/><path class="cls-1" d="M46.49,49.86a88.73,88.73,0,0,0-7.32,7.56c-.85,1-1.52,2.07-2.34,3.06a129.71,129.71,0,0,0-8.26,11,51.93,51.93,0,0,0-3,5.33,29.67,29.67,0,0,1-4,6.75c-.55.64-1.4.09-2-1a5.48,5.48,0,0,1-.63-4.26l.72-1.92a18.33,18.33,0,0,1,.91-1.83q.95-1.82,2-3.57a60.74,60.74,0,0,1,4.71-6.77c2.1-2.57,3.73-5.6,5.77-8.29a110.56,110.56,0,0,1,7.2-8.54l2.4-2.46,2.46-2.4c1.28-1.18,2.54-2.37,3.89-3.47.69-.56,1.28-1.1,2-1.68s1.44-1.09,2.13-1.6a32.85,32.85,0,0,0,3-2.46c.46-.42.89-.85,1.29-1.28s.84-.79,1.21-1.19.6-.72.9-1.05a3.15,3.15,0,0,1,3.06-1.36c.32,0,.65,0,1,0a1.29,1.29,0,0,1,1.11.92,3.82,3.82,0,0,1,0,2.43,13.46,13.46,0,0,1-2,4,13.74,13.74,0,0,1-2.83,3c-2,1.69-3.94,2.92-5.41,4.26-2.6,2.26-5.29,4.49-7.76,7Z"/><path class="cls-1" d="M61.77,18.05a53.27,53.27,0,0,0,5.8-2.76c1-.54,1.81-1.21,2.71-1.81A4.63,4.63,0,0,0,71,13l.73-.69,1.45-1.37c.45-.41,1-1,1.59-1.54l1.66-1.65c.53-.51,1.16-1.17,1.76-1.78L80,4.1l-.12.67c0,.15,0,.22,0,.32l0,.59v.87a2.51,2.51,0,0,1,0,.35l-.45,3.46-.93,7-.85,5.94c-.2,1.34-.42,2.67-.71,4a85.26,85.26,0,0,1-4.16,13.84,67,67,0,0,1-3,6.64,41.28,41.28,0,0,1-3.88,6.24,34.58,34.58,0,0,1-9.59,9,23.57,23.57,0,0,1-7.92,3A22.32,22.32,0,0,1,39.89,66c-1.7-.31-1.32-1.06.13-1.79A33.74,33.74,0,0,1,46.57,62a21.44,21.44,0,0,0,12.09-7.19,40.71,40.71,0,0,0,4.26-6A63.54,63.54,0,0,0,66.55,42a50.11,50.11,0,0,0,3.08-9.09c.76-3.17,1.49-6.39,2.12-9.61l.76-3.73.26-1.31.06-.35,0-.17v-.05l0,0,0,.05-.22.18a1.7,1.7,0,0,0-.26.27c-.35.2-.85.58-1.36.88-.25.16-.53.31-.81.46l-.9.5c-.33.19-.67.36-1,.53A92.86,92.86,0,0,1,55.38,25.7c-3.26,1.09-6.54,2.09-9.7,3.25A32.11,32.11,0,0,0,37,33.38a11.23,11.23,0,0,0-2.39,2.54,20.3,20.3,0,0,0-1.73,3.21,21,21,0,0,0-1.68,6.93,24.81,24.81,0,0,0,0,3.11c.06,1,.14,1.77.2,2.45a12.25,12.25,0,0,1,0,1.72,4.07,4.07,0,0,1-.24,1.23,8.37,8.37,0,0,1-.6,1c-.19.28-.31.61-.44.79s-.58.07-1.38-.54c-.18-.16-.49-.32-.6-.56s-.31-.5-.47-.8a10.72,10.72,0,0,1-.84-2.15,23.52,23.52,0,0,1,1.72-15.74A24.37,24.37,0,0,1,30.67,33a16,16,0,0,1,3.15-3.31A31.17,31.17,0,0,1,41,25.48c3.59-1.55,7.15-2.68,10.63-3.85s6.88-2.3,10.11-3.69Z"/></g></svg>