<svg xmlns="http://www.w3.org/2000/svg" width="96" height="96" viewBox="0 0 96 96"><defs><style>.cls-1{fill:#231f20;}</style></defs><title>scribble final version</title><g id="Layer_1" data-name="Layer 1"><path class="cls-1" d="M33.08,14c-3.3.54-5.46,2.31-6.12,5.59-1.19,6,.83,11.62.87,17.57,0,4.82-1.71,8.94-6.6,10.46-9.33,2.89-12.58,16.81.05,18.44,4.77.61,9.58.53,14.36.81,3.16.19,7.4.3,9.1,3.5,1.34,2.54.06,5.57,1.25,8,2.57,5.36,11.91,4.07,16,1.66C68.4,76.28,68.58,67.25,68,60.68c-.5-5.63,1.76-8,6.33-11.32,2.81-2.07,9.55-7,8.59-11.13-2.28-9.82-19,3.35-24-3.3-2-2.72-2.07-6.22-3.38-9.23-2.6-6-8.63-9.92-14.84-11.28A21.21,21.21,0,0,0,33.08,14Z"/></g></svg>