<svg xmlns="http://www.w3.org/2000/svg" width="96" height="96" viewBox="0 0 96 96"><defs><style>.cls-1{fill:#231f20;}</style></defs><title>scribble final version</title><g id="Layer_1" data-name="Layer 1"><path class="cls-1" d="M15.19,81C37.7,74.4,59.47,64.07,82.67,60.12c4.43-.76,2.56-7.51-1.86-6.75-23.2,4-45,14.28-67.48,20.87C9,75.5,10.85,82.26,15.19,81Z"/><path class="cls-1" d="M15.5,30.77a10.48,10.48,0,0,0,6.27,5.16,4.17,4.17,0,0,0,4-.9,5.06,5.06,0,0,0,1-4.62A11.51,11.51,0,0,0,22.7,24,5.66,5.66,0,0,0,19,22.36a3.61,3.61,0,0,0-3.36,3.26,2.6,2.6,0,0,0,1.75,3.08c1.17.32,2.89-.4,3.07-1.75a2.62,2.62,0,0,0,.11-.57c.06-.19,0-.14-.07.17l-.6.59a1.59,1.59,0,0,1-.95.19c-.18,0-.06.15-.31-.08.11.09.89.61.53.31a11.51,11.51,0,0,1,.88.83c.29.3.56.61.82.93.5.61-.24-.36.19.25l.26.36c.17.25.3.56.48.8s-.12-.45-.05-.13.16.56.21.84c.09.53,0-.48,0,.31,0,.21.13.48,0,.31,0-.16,0-.18,0-.05s0,.11.09-.23a1.61,1.61,0,0,1,.66-.58c.36-.18-.35,0,.39-.09-.43,0,.38.11.08,0L22.74,31c-.45-.13.2.11-.07,0a5.91,5.91,0,0,1-2.86-2.74c-1.47-2.86-5.79-.33-4.31,2.53Z"/><path class="cls-1" d="M51.25,21.69a6.29,6.29,0,0,1-1,4c.17-.21-.23.23-.25.27.15-.27,0-.06.16-.09.56-.12.76.12,1.26.2l.08.13a2.88,2.88,0,0,1-.22-.38,2.09,2.09,0,0,1-.17-.37c-.09-.22-.11-.49-.22-.7s0,.5,0,.22c.06-.57,0-1.16,0-1.73L51,22.7c0,.26,0,.18,0,0,.07-.38.14-.76.24-1.14a7.69,7.69,0,0,1,.29-.93c.11-.31-.14.41,0,0,0-.1.14-.19.18-.29-.12.37-.08.16-.24.27a1.85,1.85,0,0,1-1.48.28c-.31,0-.55-.41-.1.13a2.54,2.54,0,0,0,3.54,0,2.56,2.56,0,0,0,0-3.54A3.75,3.75,0,0,0,49.55,16,4.54,4.54,0,0,0,46.84,19a13.11,13.11,0,0,0-.81,7c.63,3.09,3.5,6.31,6.76,4.17,2.52-1.65,3.71-5.54,3.46-8.41a2.55,2.55,0,0,0-2.5-2.5,2.52,2.52,0,0,0-2.5,2.5Z"/></g></svg>