<svg xmlns="http://www.w3.org/2000/svg" width="96" height="96" viewBox="0 0 96 96"><defs><style>.cls-1{fill:#231f20;}</style></defs><title>scribble final version</title><g id="Layer_1" data-name="Layer 1"><path class="cls-1" d="M34.43,24.47a51.55,51.55,0,0,0-6-.29c-.75,0-1.48.18-2.23.19a78.21,78.21,0,0,0-7.95.38,16.29,16.29,0,0,0-3.37.83c-.7.19-1.38.45-2,.66a7.41,7.41,0,0,1-1.82.38,2.6,2.6,0,0,1-1.39-1.8,3.28,3.28,0,0,1,1.11-3.28,23,23,0,0,1,2.39-1.18,15.2,15.2,0,0,1,2.44-.59,23.86,23.86,0,0,1,4.92-.33,53.07,53.07,0,0,0,5.88-.63c2.17-.17,4.35-.22,6.55-.18l1,0,1.09.05a21.86,21.86,0,0,1,2.87.26,7.52,7.52,0,0,1,2.75,1A3,3,0,0,1,42,21.73,5.21,5.21,0,0,1,41.94,24a12.86,12.86,0,0,1-1,2.89c-.25.49-.54,1-.83,1.49a3.37,3.37,0,0,1-.24.37l-.16.28-.31.52a4,4,0,0,1-.65.82c-1,.88-1.53.84-2.64.21-.26-.14-.52-.26-.76-.4a2.21,2.21,0,0,1-.84-2.48l.23-1.09.1-.54A4.9,4.9,0,0,1,35,25.6l.18-.45c0-.08,0-.08,0-.12a.32.32,0,0,0-.1-.12c-.13-.12-.22-.07-.22-.07s0,0,0,0a.1.1,0,0,0,0-.14s0,0,0,0h-.13l-.27,0Z"/><path class="cls-1" d="M31.56,39.17c-.18-.29-.33-.57-.53-.94a14.18,14.18,0,0,1-.57-1.32A8.09,8.09,0,0,1,30,34.13a6.16,6.16,0,0,1,.71-2.69,8.84,8.84,0,0,1,.73-1.21,3.67,3.67,0,0,1,.4-.56l.3-.38c1.48-1.81,2.91-3.24,4.36-4.74a5.59,5.59,0,0,1,1-1l.49-.44c.15-.17.41-.33.45-.58s-.29-.3-.49-.34c-.88,0-.45.11-4.38.43-4.09.35-8.19.56-12.25,1-2,.2-4.05.42-6,.72l-1.46.25-.7.14-.52.13A2.57,2.57,0,0,0,12,25a.45.45,0,0,0-.24.21,1.65,1.65,0,0,0,0,.32l0,.35v.52l0,1.62c0,1.09,0,2.17.08,3.26a62,62,0,0,0,2.12,13.42l.57,1.84c.2.61.44,1.2.66,1.8a18.06,18.06,0,0,0,.75,1.75l.27.58.21.33.24.42c.14.12.3-.07.42-.14l.35-.33.39-.4C18.81,49.44,19.88,48.22,21,47c1.24-1.37,1.7-.7,1.38,1a14,14,0,0,1-1.13,3.27c-.16.32-.33.65-.52,1l-.3.51-.18.29-.35.44a12.84,12.84,0,0,1-1.58,1.72,3.5,3.5,0,0,1-1.82.86,3,3,0,0,1-.73,0,1.93,1.93,0,0,1-.38-.09,2.1,2.1,0,0,1-.3-.22l-1.16-.91L13,53.39c-.14-.25-.32-.5-.44-.74l-.3-.64c-.27-.57-.57-1.15-.82-1.73-.48-1.17-1-2.35-1.34-3.54a54.64,54.64,0,0,1-1.85-7.22,70,70,0,0,1-1-7.32C7.16,31,7.08,29.75,7,28.51c0-.62,0-1.25,0-1.87V25.32c0-.55,0-1.1.08-1.64a5.73,5.73,0,0,1,.41-1.12,3.3,3.3,0,0,1,.79-.92,7.13,7.13,0,0,1,2.24-1.17l.62-.19a2.57,2.57,0,0,0,.29-.09l.2-.05.79-.19,1.52-.3C17.71,19,21.4,18.5,25.14,18c1.87-.26,3.73-.55,5.6-.77l5.85-.65,2.56-.3a12.38,12.38,0,0,1,2.44-.16,10.1,10.1,0,0,1,2,.22,6.24,6.24,0,0,1,1.64.57,4.3,4.3,0,0,1,1.36,1,2.57,2.57,0,0,1,.65,1.71,7.29,7.29,0,0,1-1.13,3.13A34.77,34.77,0,0,1,43,26.33l-2.62,2.8c-.69.74-1.38,1.47-2,2.21q-.49.56-1,1.11c-.16.18-.3.36-.44.54l-.31.4a1.76,1.76,0,0,0-.4.75,1.82,1.82,0,0,0,.12.86,3.72,3.72,0,0,0,.2.44c.09.2.25.42.38.64a16.21,16.21,0,0,0,1,1.32,41.38,41.38,0,0,0,5.14,5c2.86,2.38,5.9,4.63,9,6.79s6.27,4.25,9.5,6.19c5,3,10.23,5.53,15.39,8.18,1.13.58,2.27,1.1,3.41,1.71,4.2,2.25,5.33,3.32,5.5,5.21A7.19,7.19,0,0,1,86,71.75c-.13,1.3-2.38,1.3-5.69,0a166,166,0,0,1-29-15.27A117.69,117.69,0,0,1,41,49.06c-1.66-1.35-3.31-2.75-4.92-4.3a30.31,30.31,0,0,1-4.67-5.49Z"/><path class="cls-1" d="M43.38,57.33c1.86,1.88,3.74,3.73,5.71,5.48.71.63,1.49,1.19,2.22,1.81C53.85,66.86,56.49,69,59.2,71A43.78,43.78,0,0,0,63,73.48a50.1,50.1,0,0,1,5,3c.49.37.19.78-.51,1a4.28,4.28,0,0,1-2.87-.11,45,45,0,0,1-10.47-6c-1.86-1.58-4-2.94-5.92-4.5-2.09-1.74-4.13-3.54-6.1-5.39L38.46,58c-1.83-1.73-3.6-3.53-5.46-5.18-1.44-1.28-3-2.36-4.56-3.53-.33-.25-.69-.47-1-.75-1.2-1-1.37-1.56-.82-2.64.13-.24.23-.5.38-.73.51-.76,1.48-.85,2.49-.24a48.08,48.08,0,0,1,8.23,6.73c1.93,1.85,3.81,3.76,5.74,5.59Z"/></g></svg>