<svg xmlns="http://www.w3.org/2000/svg" width="96" height="96" viewBox="0 0 96 96"><defs><style>.cls-1{fill:#231f20;}</style></defs><title>scribble final version</title><g id="Layer_1" data-name="Layer 1"><path class="cls-1" d="M71.15,67.1a16.45,16.45,0,0,1-3,5.16,15.67,15.67,0,0,1-4.77,3.48,21.37,21.37,0,0,1-10.3,1.9A20.46,20.46,0,0,1,45.72,76a20.84,20.84,0,0,1-2.89-1.6c-.43-.31-.93-.66-1.3-1l-1.1-.85a50.91,50.91,0,0,0-4.51-3.1A20.27,20.27,0,0,0,26,66.19a14.15,14.15,0,0,0-4.6.58,17.61,17.61,0,0,0-4.29,1.83,15,15,0,0,0-4.28,4c-.3.39-.58.81-.85,1.23s-.6.82-.88,1.26c-.58.85-1.11,1.76-1.64,2.68-.65,1.15-1.08.84-1.29-.48a10.71,10.71,0,0,1-.06-2.67,12.15,12.15,0,0,1,.29-1.76l.27-.94c.15-.3.31-.6.49-.9a18.38,18.38,0,0,1,5.16-5.54,21.34,21.34,0,0,1,6.85-3.09A20,20,0,0,1,28.77,62a22.79,22.79,0,0,1,7.05,2.22,79.92,79.92,0,0,1,7.41,4.23l.88.57c.29.2.6.39.83.53a15.31,15.31,0,0,0,1.54.84,18.5,18.5,0,0,0,3.3,1.17,15.88,15.88,0,0,0,7.6,0,13.9,13.9,0,0,0,3.52-1.39,7.75,7.75,0,0,0,2.61-2.23c1.72-2.21,2.22-5.59,2.16-9.07,0-5.3-.93-10.93-.77-16.82a28.93,28.93,0,0,1,1-7,16.2,16.2,0,0,1,3.7-6.6,11.14,11.14,0,0,1,1.19-1.19,8.31,8.31,0,0,1,1.3-1.07c.43-.28.84-.54,1.21-.76a7.11,7.11,0,0,1,1.09-.44,6.45,6.45,0,0,1,1.72-.36,3.08,3.08,0,0,1,2.3,1.07,7.19,7.19,0,0,1,.84.94,1.85,1.85,0,0,1-.09,1.93,9.68,9.68,0,0,1-1.87,2.16l-.46.4c-.13.15-.27.28-.41.42s-.57.52-.82.8-.47.56-.71.83-.39.58-.59.86a11.87,11.87,0,0,0-1.54,3.74,20.83,20.83,0,0,0-.48,4.6c0,1.68-.08,3.49,0,5.38.08,2.84.29,5.82.31,9a47.61,47.61,0,0,1-.2,5,26.75,26.75,0,0,1-1.11,5.4Z"/><path class="cls-1" d="M83.71,23.47a15.54,15.54,0,0,0,0-1.78c0-.1,0-.11,0-.19s0-.11,0-.15-.19-.23-.41-.35a5.47,5.47,0,0,0-1.48-.15,14.1,14.1,0,0,0-3.68.26,26.2,26.2,0,0,0-4,1,16.71,16.71,0,0,0-3.37,1.65,17.28,17.28,0,0,1-4.3,2.14c-.49.14-1-.52-1.21-1.52a3.92,3.92,0,0,1,.56-3.22c.32-.33.65-.67,1-1l.5-.48.57-.39a22.8,22.8,0,0,1,2.34-1.38A19.62,19.62,0,0,1,75.31,16c1.12-.22,2.25-.47,3.43-.75a13.39,13.39,0,0,1,3.82-.4,8.41,8.41,0,0,1,4.74,1.76,7.33,7.33,0,0,1,2.41,4.49,21.13,21.13,0,0,1,.07,4.82,60.43,60.43,0,0,1-1.22,6.71c-.33,1.68-.37,3.41-.58,5.1a6.62,6.62,0,0,1-.14,1.1c-.4,1.3-1,1.55-2.66,1.31-.38-.06-.77-.1-1.14-.18a2.68,2.68,0,0,1-2.25-2.21,14.86,14.86,0,0,1,.2-4.5c.24-1.43.57-2.8.84-4.14a25.17,25.17,0,0,0,.73-5.64Z"/></g></svg>