<svg xmlns="http://www.w3.org/2000/svg" width="96" height="96" viewBox="0 0 96 96"><defs><style>.cls-1{fill:#231f20;}</style></defs><title>scribble final version</title><g id="Layer_1" data-name="Layer 1"><path class="cls-1" d="M37.85,72.9a18.14,18.14,0,0,1-7-2.35,17.54,17.54,0,0,1-2.21-1.45,27.85,27.85,0,0,1-6-6.77c-.72-1.11-1.42-2.23-2-3.37a27.49,27.49,0,0,1-2.11-4.54c-.37-1,.79,0,1.74,1.59A52.59,52.59,0,0,0,26,64.1a18,18,0,0,0,4.65,3.72,21.21,21.21,0,0,0,2.92,1.41,15.68,15.68,0,0,0,3.09.91,15.27,15.27,0,0,0,4,.26A16.61,16.61,0,0,0,46.57,69a17.3,17.3,0,0,0,3.81-2.65c.27-.2.49-.45.75-.66,1-.81,1.34-1,2-.72.16.06.33.1.47.17.46.23.43,1-.19,1.84-1.78,2.72-4.89,4.43-8.1,5.39a19.51,19.51,0,0,1-7.49.65Z"/><path class="cls-1" d="M59.29,20.7,61,21a14.81,14.81,0,0,1,1.69.5,18.25,18.25,0,0,1,3.2,1.4A24.46,24.46,0,0,1,68,24.24a22,22,0,0,1,5,6.74l.44.79.39.81a16.86,16.86,0,0,1,.78,1.6c.28.7.59,1.39.85,2.1A14,14,0,0,1,76,38.5c.06.47-.38.54-1,.34a3.45,3.45,0,0,1-1.8-1.37c-.36-.63-.77-1.23-1.13-1.85-.17-.31-.39-.6-.57-.9L71,33.8c-.68-1.22-1.38-2.41-2.12-3.58a4.39,4.39,0,0,0-.77-1c-.28-.3-.57-.61-.88-.89l-1-.73-.5-.37-.53-.31a12.9,12.9,0,0,0-4.95-2l-1.69-.24-1.73,0a6.56,6.56,0,0,0-1.32.13L54.19,25a21.15,21.15,0,0,0-2.59.72,10.27,10.27,0,0,0-1.88.93c-.6.36-1.21.67-1.79,1.09a6.25,6.25,0,0,1-.77.49c-1,.51-1.49.41-2.19-.33-.16-.17-.34-.33-.48-.51a1.52,1.52,0,0,1,.31-2.07,16.76,16.76,0,0,1,1.58-1.45,16.1,16.1,0,0,1,1.84-1.12,16.74,16.74,0,0,1,2-1c.7-.26,1.43-.46,2.16-.67a28.87,28.87,0,0,1,3.39-.56c.58,0,1.17,0,1.76,0a11.62,11.62,0,0,1,1.76.07Z"/><path class="cls-1" d="M29.65,67.39a16.18,16.18,0,0,0,8.41,4.07,11.79,11.79,0,0,0,3.3-.16C45.25,70.83,49.15,68,52,64.39A23.29,23.29,0,0,0,55,59.06c1-2.45,1.54-5,2.38-7.51.27-.79,1.17-.6,2,.27A4.79,4.79,0,0,1,60.54,56a27.55,27.55,0,0,1-9.22,15.61,35.47,35.47,0,0,1-4.78,3.31,16.05,16.05,0,0,1-5.75,1.94,16.73,16.73,0,0,1-6.59-.53,22.36,22.36,0,0,1-5.8-2.6,31.47,31.47,0,0,1-5.85-4.83,40.44,40.44,0,0,1-6.4-9.23,42.73,42.73,0,0,1-3.48-8,15.27,15.27,0,0,1-.49-1.91c-.39-2.46.25-3.32,1.79-3.77A8.36,8.36,0,0,1,15,45.64c1.22-.15,2.16.75,2.72,2.14a54.81,54.81,0,0,0,5.6,11.95,29,29,0,0,0,6.39,7.54Z"/><path class="cls-1" d="M6,39.92a11.71,11.71,0,0,1,6.73-6l.19,0A6.42,6.42,0,0,1,15,33.76a7.35,7.35,0,0,1,1.06.2c.17.06.36.11.51.17l.4.19A17.24,17.24,0,0,1,21,37.47c1.09,1.09,2.09,2.17,3.11,3.22a25.82,25.82,0,0,0,2.86,2.51c1.28,1,2.57,1.81,3.7,2.8.34.3.07,1-.66,1.5a3.06,3.06,0,0,1-2.94.39A22.83,22.83,0,0,1,22.58,45a38.78,38.78,0,0,1-3.68-3.4,10.35,10.35,0,0,0-2.24-1.73,8.73,8.73,0,0,0-1.15-.57L15,39.09a1.15,1.15,0,0,1-.28-.11,1.17,1.17,0,0,0-.56-.06,4.37,4.37,0,0,0-.63.23,5.58,5.58,0,0,0-.73.47,6.82,6.82,0,0,0-1.35,1.46,15.69,15.69,0,0,0-1.73,3.31,23.72,23.72,0,0,0-1.44,5.89A27.91,27.91,0,0,0,8.43,55c0,.35.07.69.06,1-.05,1.29-.37,1.7-1.56,2-.27.06-.54.14-.81.18a1.83,1.83,0,0,1-2-1.44,15.76,15.76,0,0,1-.76-4.64A28.18,28.18,0,0,1,5.86,39.87Z"/><path class="cls-1" d="M65.75,27.8A12.35,12.35,0,0,0,58,24.53c-.53,0-1.06,0-1.59.08s-1,.22-1.58.26a18.3,18.3,0,0,0-10.31,6.4,21.19,21.19,0,0,0-1.77,2.32c-.5.85-1,1.67-1.47,2.55-1.17,2.23-2,4.6-3.3,6.83-.41.69-1.24.3-1.87-.66a4.66,4.66,0,0,1-.54-4,37.94,37.94,0,0,1,3.75-7.55,24.86,24.86,0,0,1,5.89-6.41c.73-.51,1.44-1.06,2.19-1.57s1.51-1,2.36-1.44L51,20.65l1.32-.54a15.81,15.81,0,0,1,2.73-.78,17.79,17.79,0,0,1,12,2.22,23.76,23.76,0,0,1,5.58,4.75,35.11,35.11,0,0,1,5.49,9.17,51.58,51.58,0,0,1,2.91,7.67,11.69,11.69,0,0,1,.42,1.77,7.14,7.14,0,0,1,.11,1.44,2.74,2.74,0,0,1-.29,1,2.4,2.4,0,0,1-1.57,1.09,8.28,8.28,0,0,1-1,.3,2.63,2.63,0,0,1-2.75-2c-.76-2-1.44-4-2.23-6S72,36.91,71.07,35a22.56,22.56,0,0,0-5.4-7.12Z"/><path class="cls-1" d="M87.73,52.52A11.1,11.1,0,0,1,85.09,56c-.34.26-.68.51-1,.74s-.74.37-1.12.54a7.69,7.69,0,0,1-1.21.34l-.61.14-.61,0a8.85,8.85,0,0,1-1.72,0L78,57.63a3.62,3.62,0,0,1-.74-.27,12.08,12.08,0,0,1-3.9-2.88,24.85,24.85,0,0,1-2.7-3.38c-.71-1-1.42-2-2.1-3a9.37,9.37,0,0,1-1.82-4.4c0-.52.69-.64,1.55-.54a5.86,5.86,0,0,1,1.3.31,2,2,0,0,1,1,.66c1.64,2.18,3.3,4.37,5,6.42a6.22,6.22,0,0,0,3.69,2.05,2.48,2.48,0,0,0,1.57,0,2.78,2.78,0,0,0,1.43-1.16,13.52,13.52,0,0,0,1.46-3c.63-1.74,1.28-3.61,1.81-5.48.41-1.46.6-3,1-4.47a8.46,8.46,0,0,1,.29-1c.53-1.15,1-1.37,2.19-1.09.27.07.54.12.79.21a1.93,1.93,0,0,1,1.29,2,21,21,0,0,1-.49,3.85c-.24,1.28-.55,2.52-.86,3.84a44.06,44.06,0,0,1-1.94,6.32Z"/></g></svg>