<svg xmlns="http://www.w3.org/2000/svg" width="96" height="96" viewBox="0 0 96 96"><defs><style>.cls-1{fill:#231f20;}</style></defs><title>scribble final version</title><g id="Layer_1" data-name="Layer 1"><path class="cls-1" d="M69,17.33c-1.31.82-4.53,2.93-8.56,5.86-2,1.46-4.24,3.12-6.54,4.9s-4.78,3.51-7.16,5.35c-4.78,3.67-9.37,7.48-12.83,10.62s-5.8,5.57-6.48,6.34l-1.06,1.19-.68.8c-.05.06-.18.22-.16.18a.19.19,0,0,0-.11.13c0,.08.09.08.16.06-.14.07.55-.22.81-.33l1-.46c.11-.06,1.49-.66,3.57-1.65s4.87-2.33,7.74-3.83c5.72-3,12-6.11,14.06-7,.26-.11,1.32-.61,3.05-1.34.85-.37,1.89-.79,3.07-1.25l1.89-.7,1-.34c.38-.12.62-.23,1.35-.43a31.37,31.37,0,0,1,3.77-.92c.62-.09,1.31-.27,1.89-.29l1.77-.08c.56,0,1.06.09,1.59.14s1,.21,1.47.3a1.64,1.64,0,0,1,.63.26l.58.32a3.23,3.23,0,0,1,.49.41,2.68,2.68,0,0,1,.47.48A2.08,2.08,0,0,1,76,37.4a4.82,4.82,0,0,1-.34,1.23,9.28,9.28,0,0,1-1.89,2.82,41.76,41.76,0,0,1-3.29,3.14l-1.83,1.56-1.25,1C61.15,52.14,54.72,57,49.64,61s-8.83,7.2-10.06,8.39c-.88.84-2.8,2.53-5.09,4.76L33,75.58c-.34.34-.7.71-1.05,1.12a7.76,7.76,0,0,0-1.82,3,2,2,0,0,0,0,.91.87.87,0,0,0,.56.63,3.19,3.19,0,0,0,1.65,0A19.67,19.67,0,0,0,35.44,80L37,79.33l1.86-.89,2.78-1.18a1.28,1.28,0,0,1,1.8.69A1.46,1.46,0,0,1,43,79.68c-1.29.8-2.59,1.78-4,2.55l-1.18.68c-.51.29-1,.59-1.55.87a29.92,29.92,0,0,1-3.19,1.53,11.67,11.67,0,0,1-5.6.93,3.74,3.74,0,0,1-2.32-1,3.86,3.86,0,0,1-.88-2.56,10,10,0,0,1,1.63-5.12,21.69,21.69,0,0,1,2.45-3.34c.47-.58,1-1.15,1.57-1.74l1.3-1.31c3.31-3.27,7.25-6.62,11-9.71,7.6-6.15,14.51-11.37,15-11.84,2.57-2.06,5.13-4.13,7.64-6.22.78-.65.86-.75,1.16-1l.76-.73a7,7,0,0,0,1.21-1.45c0-.12.12-.3,0-.4a1.87,1.87,0,0,0-.48-.11,5.13,5.13,0,0,0-1,0,9.33,9.33,0,0,0-1.75.39l-.55.19-1,.38c-1,.34-1.92.75-2.88,1.14-1.92.81-3.82,1.72-5.72,2.64-3.79,1.88-7.53,3.91-11.26,6-3.51,1.92-6.93,4-10.48,6.05-.88.5-1.78,1-2.7,1.49-.48.25-.85.46-1.51.78s-1.11.57-2.08,1l-1.3.53-1.27.32-.63.15-.59,0a6.2,6.2,0,0,1-1.14,0,6,6,0,0,1-3.9-1.84A4.93,4.93,0,0,1,16.55,56a7.48,7.48,0,0,1,.54-3.26l.37-.87c.14-.29.33-.58.5-.87a18.39,18.39,0,0,1,1.16-1.71c.39-.52.79-1,1.15-1.44l.79-.91a76.59,76.59,0,0,1,6.65-6.39c4.58-3.94,9.33-7.53,14.17-11q4.14-3,8.36-5.81c2.89-1.78,5.8-3.52,8.76-5.18,3.51-1.94,7.1-3.73,10.76-5.43a13.09,13.09,0,0,1,6.08-1.38c.82,0-.59.9-2.26,2.17S69.89,16.74,69,17.33Z"/></g></svg>