<svg xmlns="http://www.w3.org/2000/svg" width="96" height="96" viewBox="0 0 96 96"><defs><style>.cls-1{fill:#231f20;}</style></defs><title>scribble final version</title><g id="Layer_1" data-name="Layer 1"><path class="cls-1" d="M76.26,71.55A38.06,38.06,0,0,1,61.82,81.67a40.44,40.44,0,0,1-8.38,2.5,38.68,38.68,0,0,1-8.72.55,35.17,35.17,0,0,1-12.45-2.66A31.07,31.07,0,0,1,16.43,66.65a34.23,34.23,0,0,1,1.33-30.83,26.67,26.67,0,0,1,6.34-7.57,28.32,28.32,0,0,1,2.55-1.92c.9-.58,1.8-1.09,2.72-1.58a35,35,0,0,1,5.77-2.42,28.67,28.67,0,0,1,3.1-.78,19.84,19.84,0,0,1,3.29-.22,12.71,12.71,0,0,1,3.41.52A8,8,0,0,1,48,23.76a3.35,3.35,0,0,1,.91,1.35c.11.33.08.53-.06.62s-1-.12-2.07-.23c-2.31-.19-5,1.05-8.72,2.13a31.21,31.21,0,0,0-5,1.82,24.48,24.48,0,0,0-4.56,2.62,23.39,23.39,0,0,0-6.68,7.74,29.76,29.76,0,0,0-2.45,21.13,23,23,0,0,0,2.53,6.17,25.81,25.81,0,0,0,4.31,5.21,27.77,27.77,0,0,0,12,6.38c9.78,2.66,20.77-.13,28.84-6.33a28.94,28.94,0,0,0,10.39-15.2,32.67,32.67,0,0,0-4.67-27.32A30.16,30.16,0,0,0,55.23,18.13L53,17.71c-.76-.15-1.54-.17-2.31-.28-5.78-.65-7.69-.84-9.22-2.3a8.88,8.88,0,0,1-1-.94c-.39-.54,0-1.17,1.15-1.82a14.71,14.71,0,0,1,5.58-1.53A34.3,34.3,0,0,1,69.58,17a37.7,37.7,0,0,1,13.8,20,37.93,37.93,0,0,1,1.53,9,17.63,17.63,0,0,1,0,2.3c0,.76,0,1.53-.07,2.29a39.17,39.17,0,0,1-.61,4.57,38.52,38.52,0,0,1-1.14,4.47,38.74,38.74,0,0,1-1.74,4.28,34.48,34.48,0,0,1-5,7.69Z"/></g></svg>