<svg xmlns="http://www.w3.org/2000/svg" width="96" height="96" viewBox="0 0 96 96"><defs><style>.cls-1{fill:#231f20;}</style></defs><title>scribble final version</title><g id="Layer_1" data-name="Layer 1"><path class="cls-1" d="M21.93,62.6A115.4,115.4,0,0,0,11,77.48c-2,3.33,3.21,6.35,5.18,3a105.18,105.18,0,0,1,10-13.65c2.45-2.95-1.77-7.22-4.24-4.25Z"/><path class="cls-1" d="M42.36,42.79c-4.13,3.37-8.12,6.9-11.93,10.62-2.76,2.71,1.48,7,4.25,4.25C38.48,53.93,42.47,50.4,46.6,47c3-2.44-1.28-6.67-4.24-4.24Z"/><path class="cls-1" d="M61.17,28.76c-3,1.89-6,3.91-8.84,6a3.35,3.35,0,0,0-1.16,4.45c.82,1.39,3,2.2,4.45,1.16,2.87-2.1,5.81-4.12,8.83-6,3.54-2.21.28-7.84-3.28-5.61Z"/><path class="cls-1" d="M50.47,25a48.87,48.87,0,0,1,18-4.81A63.59,63.59,0,0,1,75.21,20c1.51,0,3.57.66,5,.39l.49.1c1.17.36.74-.24-1.27-1.8a21.31,21.31,0,0,0-.36,2.48,64,64,0,0,1-1.8,6.51c-1.37,4.38-3.11,8.71-4.06,13.21-.81,3.76,5,5.37,5.78,1.59,1.31-6.15,4-12,5.48-18.07.82-3.27,2.34-8.17-1.78-9.61s-9.46-.95-13.57-.66a57,57,0,0,0-21.69,5.68c-3.45,1.73-.42,6.9,3,5.18Z"/></g></svg>