<svg xmlns="http://www.w3.org/2000/svg" width="96" height="96" viewBox="0 0 96 96"><defs><style>.cls-1{fill:#231f20;}</style></defs><title>scribble final version</title><g id="Layer_1" data-name="Layer 1"><path class="cls-1" d="M32.93,47.71a29.9,29.9,0,0,0,0,6.42,31.62,31.62,0,0,0,1.29,6.49A32.88,32.88,0,0,0,36.11,65,23.19,23.19,0,0,0,41,71.72,11.87,11.87,0,0,0,48.3,75a14,14,0,0,0,7.27-1.65,19,19,0,0,0,7.16-6.57c.56-.87,1-.59,1.18.54a7.29,7.29,0,0,1-1.5,5,17.82,17.82,0,0,1-10.15,6.62,16.78,16.78,0,0,1-6.37.25,15.13,15.13,0,0,1-6-2.34A27.09,27.09,0,0,1,30.4,65.77a35.27,35.27,0,0,1-2.51-7.42,33.13,33.13,0,0,1-.84-7.76,28.28,28.28,0,0,1,.44-4.8c.25-1.56.6-3.09,1-4.61a46.36,46.36,0,0,1,5.66-13,27,27,0,0,1,7.55-8.33c.74-.43,1.42-.95,2.21-1.32a6.94,6.94,0,0,1,3.33-.8,2.18,2.18,0,0,1,1.71,1.07,5.21,5.21,0,0,1,.56.88,1.55,1.55,0,0,1-.31,1.57,5.91,5.91,0,0,1-1.83,1.35,21.13,21.13,0,0,0-6.2,5.07,31.25,31.25,0,0,0-4.5,7.24,42.67,42.67,0,0,0-3.57,12.79Z"/><path class="cls-1" d="M31.81,42.54a36.76,36.76,0,0,0-.65,10.34A34.16,34.16,0,0,0,33.43,63.1a25.93,25.93,0,0,0,3.85,6.32,17.23,17.23,0,0,0,4.63,4.12,15.54,15.54,0,0,0,5.83,2c3.92.6,8.18-1.47,11.43-4.8a24.46,24.46,0,0,0,3.79-5A33.63,33.63,0,0,0,65.55,60a53.44,53.44,0,0,0,2.7-16.22c0-1.72.74-1.63,1.72-.19A14.65,14.65,0,0,1,72,51.44c-.22,6.21-1.41,12.48-4.82,18.2a29.16,29.16,0,0,1-6.35,7.6,24.09,24.09,0,0,1-2.06,1.55,23.56,23.56,0,0,1-2.3,1.31,17.56,17.56,0,0,1-5.19,1.63c-.55,0-1.09.16-1.65.17l-1.67,0-1.58-.11c-.52,0-1.05-.14-1.57-.21a20.86,20.86,0,0,1-6.07-2,24.35,24.35,0,0,1-9.17-8.32,36.87,36.87,0,0,1-5-12,42.23,42.23,0,0,1-1-12.67,47.28,47.28,0,0,1,3.82-15,36.94,36.94,0,0,1,6.24-10,22.81,22.81,0,0,1,4.68-4,16.23,16.23,0,0,1,6-2.25,15.92,15.92,0,0,1,5,0,21.12,21.12,0,0,1,4.63,1.27,23.38,23.38,0,0,1,4.21,2.19c.68.4,1.29.91,1.94,1.38s1.23,1,1.78,1.6,1,1,1.45,1.53l.7.81.62.87a11.12,11.12,0,0,1,2.13,5.2,3.15,3.15,0,0,1-1.11,2.82,6.44,6.44,0,0,1-1.11.94,1.87,1.87,0,0,1-2.13-.44,9.43,9.43,0,0,1-1.07-1.15c-.18-.23-.36-.48-.55-.75s-.4-.54-.6-.84a20,20,0,0,0-4.25-4.63,18.74,18.74,0,0,0-5.32-3c-4-1.4-6.62-.95-9.64,1.56a24.79,24.79,0,0,0-5.62,7.81,40.4,40.4,0,0,0-3.33,10Z"/></g></svg>