<svg xmlns="http://www.w3.org/2000/svg" width="96" height="96" viewBox="0 0 96 96"><defs><style>.cls-1{fill:#231f20;}</style></defs><title>scribble final version</title><g id="Layer_1" data-name="Layer 1"><path class="cls-1" d="M39.07,42.15c3.59,0,7.46-.54,11.56-.77a46.31,46.31,0,0,1,6.34,0,30.46,30.46,0,0,1,3.27.42l.82.15c.29.08.58.14.87.23a15.88,15.88,0,0,1,1.69.55,18.8,18.8,0,0,1,8.29,5.9,13.87,13.87,0,0,1,2.19,4.24,11.16,11.16,0,0,1,.4,4.91,12.62,12.62,0,0,1-.58,2.37,19.44,19.44,0,0,1-1,2.1,16.27,16.27,0,0,1-2.74,3.43,25.15,25.15,0,0,1-6.84,4.56,40.15,40.15,0,0,1-7.47,2.61,56,56,0,0,1-13.7,1.52,51.21,51.21,0,0,1-17.09-3c-1.65-.78-1.33-1,.28-1.24A37.11,37.11,0,0,1,33,70c1.41.12,2.82.19,4.22.22s2.79.11,4.18.1a51.14,51.14,0,0,0,8.23-.64,44.8,44.8,0,0,0,7.9-2,31.37,31.37,0,0,0,7.12-3.55A13,13,0,0,0,67.84,61a7.63,7.63,0,0,0,1.48-3.72c.23-2.49-1.41-5-3.77-6.79a13.73,13.73,0,0,0-4.35-2.24c-.38-.13-.78-.18-1.17-.3s-.86-.15-1.29-.23a26.15,26.15,0,0,0-2.68-.25,79.77,79.77,0,0,0-11.43.68,64.39,64.39,0,0,1-7.55.37,35.85,35.85,0,0,1-3.93-.32A11.94,11.94,0,0,1,29,46.73,8.51,8.51,0,0,1,24.73,41a9.16,9.16,0,0,1,1.49-6.74,18.62,18.62,0,0,1,1.94-2.43,27.75,27.75,0,0,1,2.16-2.05A28.28,28.28,0,0,1,32.65,28c.4-.28.8-.57,1.21-.83l1.24-.74A39.7,39.7,0,0,1,52,20.91a31.23,31.23,0,0,1,4-.12,24.76,24.76,0,0,1,3.15.46,11.41,11.41,0,0,1,2,.75A3.28,3.28,0,0,1,63,24.19a5.94,5.94,0,0,1,.27,1.23c0,.64-.55,1.06-1.43,1.26a7.36,7.36,0,0,1-1.58.14,13.18,13.18,0,0,1-2.06,0,37.22,37.22,0,0,0-6.83.37,41.23,41.23,0,0,0-6.71,1.7,36.36,36.36,0,0,0-6.23,3A23.17,23.17,0,0,0,33.21,36c-.28.27-.48.59-.74.88l-.36.44-.25.36a4.15,4.15,0,0,0-.64,1.26,1.62,1.62,0,0,0-.08.84,1.3,1.3,0,0,0,.31.7,3.25,3.25,0,0,0,.95.76,5.53,5.53,0,0,0,1.58.52,9.5,9.5,0,0,0,1.16.15c.41.06.84.08,1.27.1.86.06,1.75,0,2.65,0Z"/><path class="cls-1" d="M41.46,57.89c-.5-4.06-1.11-8.12-1.75-12.17-.23-1.48-.62-2.93-.86-4.41-.79-5.22-1.67-10.44-2.75-15.62-.5-2.28-1-4.58-1.7-6.8-.4-1.44-.88-2.85-1.3-4.28s-.8-2.85-1.06-4.33c-.16-.93.69-1.13,1.8-.69a6.08,6.08,0,0,1,3.25,3.16c1.2,2.9,2.26,5.82,3.16,8.79a65.85,65.85,0,0,1,1.88,9.14,51.68,51.68,0,0,0,1.13,5.56c.43,1.86.91,3.72,1.3,5.58.39,2,.8,4.11,1.14,6.17l1,6.2,1.09,7.65c.28,1.93.54,3.87.76,5.81s.49,3.87.74,5.8c.22,1.49.51,3,.76,4.45a44.37,44.37,0,0,1,.67,4.48c0,.67.12,1.32.13,2a6.1,6.1,0,0,1-.52,2.69A2.33,2.33,0,0,1,49,88.2a5.84,5.84,0,0,1-.82.3c-.89.18-1.67-.85-2.19-2.54-1.69-5-2.15-10.37-2.93-15.82-.56-4-1.06-8.14-1.72-12.22Z"/><path class="cls-1" d="M56.42,37.22q.13,5.85.55,11.71c.09,1.42.39,2.82.49,4.24.17,2.51.44,5,.64,7.53s.43,5,.78,7.52a65.65,65.65,0,0,0,1.26,6.57c.31,1.38.75,2.73,1.08,4.11a37,37,0,0,1,.72,4.21c.08.89-.72,1-1.77.56a6.17,6.17,0,0,1-3.07-3.14A77.07,77.07,0,0,1,53.57,63c-.18-1.78-.36-3.58-.64-5.39S52.4,54,52.2,52.2c-.41-4-.68-8-.9-12-.09-1.23-.11-2.47-.16-3.7S51,34.06,51,32.83c-.07-3.73,0-7.48,0-11.2,0-1.44,0-2.87,0-4.31s0-2.86.1-4.32c0-.63.05-1.26.12-1.9.36-2.39.85-3.12,1.9-3.4a5.54,5.54,0,0,1,.73-.18c.78,0,1.25,1,1.28,2.65.09,2.46.25,5,.43,7.54.05,1.27.21,2.57.28,3.87l0,2,.1,2c.12,3.88.44,7.8.58,11.72Z"/></g></svg>