<svg xmlns="http://www.w3.org/2000/svg" width="96" height="96" viewBox="0 0 96 96"><defs><style>.cls-1{fill:#231f20;}</style></defs><title>scribble final version</title><g id="Layer_1" data-name="Layer 1"><path class="cls-1" d="M59.74,27.93a44.52,44.52,0,0,1-2,8.75c-.89,2.77-1.94,5.45-3.08,8.07s-2.4,5.18-3.73,7.7-2.69,5-4.22,7.45c-1.11,1.77-2.27,3.52-3.53,5.23-.3.41-.66.88-1,1.36l-.8,1c-.28.35-.57.68-.87,1-.6.66-1.2,1.24-1.81,1.84a25.47,25.47,0,0,1-1.82,1.79,12.14,12.14,0,0,1-3.06,1.81,7,7,0,0,1-2.6.44A4.45,4.45,0,0,1,30,74.1a2.64,2.64,0,0,1-1.23-.94A4.7,4.7,0,0,1,28,70.7c-.12-1.72.62-4.23,1.84-6.85.59-1.31,1.27-2.63,2-3.92l.43-.74.37-.6.73-1.18a66.15,66.15,0,0,1,6.69-8.88A81.65,81.65,0,0,1,48,40.89l3.71-3.08,1.85-1.52.93-.76,1-.78a53.3,53.3,0,0,1,8.37-5.26,50.3,50.3,0,0,1,11.88-4.33c1-.2,2.08-.43,3.15-.54a18,18,0,0,1,3.2-.22c1.07,0,2.15.13,3.21.2s2.12.3,3.16.57c2.6.72,2,1.34-.21,2-.54.15-1.19.4-1.91.64-.36.12-.74.23-1.13.37L84,28.67c-.84.26-1.74.71-2.67,1s-1.93.54-3,.8a50.8,50.8,0,0,0-10.71,4,47.19,47.19,0,0,0-9.68,6c-3.22,2.58-6.37,5.15-9.36,7.75a65.38,65.38,0,0,0-8.17,8.55q-1.11,1.41-2.13,2.91c-.34.49-.66,1-1,1.52l-.48.76-.24.38a10.47,10.47,0,0,0-1,2.21,2.54,2.54,0,0,0-.12.61c0,.19.07.45.3.45a2.35,2.35,0,0,0,1.12-.49,7.76,7.76,0,0,0,.92-.8l.43-.45.2-.23.28-.33c.36-.43.79-1,1.2-1.51s.81-1.09,1.2-1.64c.79-1.1,1.55-2.24,2.28-3.4,1.46-2.31,2.82-4.7,4.07-7.15a88.77,88.77,0,0,0,6-15.29,46.63,46.63,0,0,0,1.07-4.84,18.16,18.16,0,0,0,.22-4.67A4.55,4.55,0,0,0,54.24,23a1.32,1.32,0,0,0-.9-.73,6.75,6.75,0,0,0-3.77.6c-1.06.41-2.14.95-3.22,1.48s-2.12,1.21-3.15,1.91a59.41,59.41,0,0,0-6,4.63A79.22,79.22,0,0,0,26.85,42,99.52,99.52,0,0,0,15.17,62.23c-.72,1.56-1.26,3.15-2.05,4.68a25.91,25.91,0,0,1-3.35,6,11.11,11.11,0,0,1-1.5,1.37,5.62,5.62,0,0,1-1.33.83,10,10,0,0,1-1.17.56c-.55.14-.77-.48-.85-1.8,0-.65-.06-1.49-.07-2.49a16,16,0,0,1,.51-3.31c.51-1.76,1-3.55,1.64-5.32s1.37-3.48,2.12-5.21a101.23,101.23,0,0,1,5.31-10.15,96.72,96.72,0,0,1,14.42-18.6,56.55,56.55,0,0,1,6.79-5.9,47.74,47.74,0,0,1,8-4.84A18.25,18.25,0,0,1,46,17.1a11.78,11.78,0,0,1,1.27-.32c.43-.1.84-.2,1.31-.27a12.39,12.39,0,0,1,6.34.38,3.66,3.66,0,0,1,.46.18,2.42,2.42,0,0,1,.48.21,6,6,0,0,1,1,.6,6.49,6.49,0,0,1,1.53,1.57,8.15,8.15,0,0,1,1.31,3.23,17.24,17.24,0,0,1,.23,5.24Z"/></g></svg>