<svg xmlns="http://www.w3.org/2000/svg" width="96" height="96" viewBox="0 0 96 96"><defs><style>.cls-1{fill:#231f20;}</style></defs><title>scribble final version</title><g id="Layer_1" data-name="Layer 1"><path class="cls-1" d="M52.82,80.78A1.6,1.6,0,0,1,53.58,82a5.36,5.36,0,0,1-.19,1.76c-.11.45-.93,1.28-1.27,1.16a12.6,12.6,0,0,1-1.9-.8c-.39-.19-4.51-4.25-5.92-5.59a42.68,42.68,0,0,1-3.77-4.2c-2.39-3-4.81-5.91-7.17-8.9A17.61,17.61,0,0,1,32,63.28a46.4,46.4,0,0,0-5-7.11,3.33,3.33,0,0,0-1.05-1c-.78-.38-5.52-6.68-6-7.62-1.11-2.32-2.36-4.55-3.5-6.86-.17-.33-.47-.59-.41-1a3.64,3.64,0,0,0-.73-2.33,21,21,0,0,1-1.36-3,6.57,6.57,0,0,1-.15-1.8c0-.56,1-.83,1.14-.74.52.25.71-.32,1-.57a1.59,1.59,0,0,1,.36-.22A20.12,20.12,0,0,1,19,33a24.17,24.17,0,0,1,2.88,2.47s.37.51.9,1.22l1.95,2.59c1.45,1.91,3,3.89,3.33,4.28A5.19,5.19,0,0,1,28.81,45c.1.23,4.64,5.86,4.79,6.11A14.23,14.23,0,0,1,35.85,55a2.15,2.15,0,0,0,.47.78c1.55,2.05,2.87,4.27,4.26,6.44.71,1.11,1.55,2.13,2.31,3.2a6.59,6.59,0,0,1,.33.65,5.46,5.46,0,0,0,.43.79c1.89,2.48,3.51,5.15,5.55,7.5.47.54,2.08,3.61,2.65,4.2C52.16,78.88,52.46,80.57,52.82,80.78Z"/><path class="cls-1" d="M48,52A2,2,0,0,1,48,54.1c-.12.26-.73.53-.92.38-.37-.28-.75-.56-1.09-.87-.19-.19-2.68-3.54-3.63-4.62-.45-.54-.87-1.08-1.27-1.64s-.7-1.16-1-1.75l-4-7.19a9.51,9.51,0,0,1-.71-1.68,28.86,28.86,0,0,0-2.62-5.67,1.85,1.85,0,0,0-.63-.85c-.55-.34-3-5.41-3.19-6.14-.21-.91-.46-1.79-.71-2.68s-.43-1.81-.65-2.71c-.06-.25-.24-.47-.11-.8a2.18,2.18,0,0,0-.22-1.75,18.51,18.51,0,0,1-.69-2.26,4.89,4.89,0,0,1,.05-1.31c0-.4.77-.58.9-.51.37.21.55-.21.81-.38a1.71,1.71,0,0,1,.29-.16,39,39,0,0,1,3.9,3.68l2,2.92c.9,1.52,1.83,3.1,2,3.41a3.27,3.27,0,0,1,.37,1.13c0,.18,2.78,4.69,2.85,4.89a6.84,6.84,0,0,1,1,3.13,1.38,1.38,0,0,0,.2.63,52.7,52.7,0,0,1,2,5.26c.32.9.76,1.75,1.13,2.63a4,4,0,0,1,.11.52,3.25,3.25,0,0,0,.17.63c.91,2.07,1.69,4.19,2.56,6.28.19.48.66,3,.93,3.53C47.93,50.46,47.84,51.72,48,52Z"/><path class="cls-1" d="M82.1,69.3c.55.54.2,1.34-.63,2.29-.27.3-1.29.71-1.52.58a9.36,9.36,0,0,1-1.27-.78c-.2-.19-2.55-3.55-3.29-4.73a21.23,21.23,0,0,1-1.78-3.57c-1-2.49-2-5-3-7.49a8.66,8.66,0,0,1-.46-1.73A25,25,0,0,0,68.34,48a1.94,1.94,0,0,0-.51-.9c-.51-.4-2.35-5.58-2.43-6.3-.19-1.8-.58-3.53-.81-5.31,0-.26-.2-.49,0-.79a2,2,0,0,0,0-1.71,15.26,15.26,0,0,1-.41-2.26,3.94,3.94,0,0,1,.26-1.28c.11-.39,1-.51,1.08-.43.37.23.64-.16,1-.31a2.23,2.23,0,0,1,.34-.14,27,27,0,0,1,3.32,4s.2.41.46,1,.6,1.34.94,2.13c.67,1.57,1.37,3.21,1.53,3.53a3.06,3.06,0,0,1,.21,1.13c0,.19,2.1,4.85,2.15,5a7.71,7.71,0,0,1,.68,3.1,1.28,1.28,0,0,0,.15.61,52.14,52.14,0,0,1,1.57,5.17c.26.88.63,1.72,1,2.58a2.85,2.85,0,0,1,.07.51,2.52,2.52,0,0,0,.12.62c.81,2,1.35,4.14,2.36,6.07.26.44.54,2.9.8,3.42C82.22,67.78,81.87,69.08,82.1,69.3Z"/></g></svg>