<svg xmlns="http://www.w3.org/2000/svg" width="96" height="96" viewBox="0 0 96 96"><defs><style>.cls-1{fill:#231f20;}</style></defs><title>scribble final version</title><g id="Layer_1" data-name="Layer 1"><path class="cls-1" d="M29.83,51.47a12.46,12.46,0,0,1-.65-2.86,13,13,0,0,1-.07-2.85,14.25,14.25,0,0,1,1.53-5.46c.36-.59.67-1.21,1.05-1.77a16.24,16.24,0,0,1,1.24-1.6,23.86,23.86,0,0,1,5.39-4.33c1-.58,1.94-1.17,3-1.65l1.49-.77,1.53-.68c.91-.4,1.81-.81,2.72-1.17s1.81-.78,2.72-1.13c1.17-.44,2.34-.91,3.52-1.33a15.74,15.74,0,0,1,3.69-.78c.78-.13.72.05.19.54-.27.24-.63.61-1.08,1.05a6.46,6.46,0,0,1-.75.58l-.43.29c-.16.06-.31.14-.48.2A136.78,136.78,0,0,0,40.82,34a21.35,21.35,0,0,0-6.7,5.73A11.91,11.91,0,0,0,32,43.86L31.77,45l-.12,1.18,0,1.2.13,1.17a10.1,10.1,0,0,0,2.42,5.21,28.91,28.91,0,0,0,7.43,5.6c2.14,1.23,4.36,2.28,6.48,3.73.46.33.93.63,1.38,1,1.53,1.52,1.76,2.3,1.48,3a4.12,4.12,0,0,1-.14.45c-.16.33-1.16.06-2.19-.77-3.23-2.42-7.33-4.29-11.34-7A25.19,25.19,0,0,1,33,56.4a14.63,14.63,0,0,1-3.21-4.9Z"/><path class="cls-1" d="M36,37.51a13,13,0,0,0-4.26,5.93c-.11.6-.31,1.18-.39,1.8l-.09.94-.05.47,0,.45a7.76,7.76,0,0,0,.16,1.75c.07.29.11.58.18.87l.31.82a13,13,0,0,0,3.28,4.35,41.86,41.86,0,0,0,9.2,6.21l5.28,2.75,2.59,1.41,2.66,1.4A37.49,37.49,0,0,1,63.93,73a30,30,0,0,1,4.36,5.64,17,17,0,0,1,1.45,3.23c.18.56.37,1.11.54,1.67l.39,1.71c.3,1.42-.15,1.33-1.15.45-.53-.43-1.11-1.09-1.92-1.78-.39-.36-.8-.74-1.2-1.15a6.24,6.24,0,0,0-.65-.6c-.17-.23-.37-.46-.54-.7A26.09,26.09,0,0,0,60.94,77,50.09,50.09,0,0,0,56,73.37a60.85,60.85,0,0,0-5.73-3c-.47-.22-1.22-.61-1.64-.85l-1.45-.83-3-1.7c-2.42-1.39-5-2.68-7.6-4.22a26.4,26.4,0,0,1-7.23-5.9,16.79,16.79,0,0,1-1.53-2.25l-.66-1.22-.5-1.31a13.69,13.69,0,0,1-.68-2.7,25.17,25.17,0,0,1-.16-2.74,17.5,17.5,0,0,1,3.51-9.9,22.06,22.06,0,0,1,4.55-4.36,34.84,34.84,0,0,1,5.26-3.05,58,58,0,0,1,8.4-3.12c.71-.21,1.41-.43,2.06-.64s1.33-.42,2-.68,1.3-.5,1.93-.79a20,20,0,0,0,1.86-.91A26.13,26.13,0,0,0,64.63,15a11.08,11.08,0,0,0,.71-1.12c.23-.38.46-.75.68-1.14a22.38,22.38,0,0,1,2.2-2.82,3.89,3.89,0,0,1,1.9-1,7.58,7.58,0,0,1,.93-.21c.46,0,.73.38.85,1.17a7.41,7.41,0,0,1-.35,3.41,15.29,15.29,0,0,1-1.23,3.1l-.87,1.44c-.31.47-.65.92-1,1.38a28.71,28.71,0,0,1-4.74,4.93,37.32,37.32,0,0,1-12,6.43L47.28,32c-1.4.46-2.77,1-4.1,1.51a28.34,28.34,0,0,0-7.13,4.1Z"/><path class="cls-1" d="M68.68,33.79A21,21,0,0,1,70.49,36a13.86,13.86,0,0,1,.78,1.21A11.91,11.91,0,0,1,72,38.42a18.47,18.47,0,0,1,1.09,2.69c.14.46.31.92.41,1.39l.25,1.41.12.71c0,.24,0,.47,0,.71L74,46.74c0,.95-.15,1.95-.23,2.91A16,16,0,0,1,71.6,55.1,21,21,0,0,1,66.14,61a59.49,59.49,0,0,1-11.46,5.77c-1.92.77-3.75,1.51-5.61,2.33-2.1.89-3.93,1.41-5.78,2.19a33.68,33.68,0,0,0-8.87,5.25A36.28,36.28,0,0,0,26.19,86.7c-.72,1.22-1,1-1.18-.4,0-.34-.06-.76-.08-1.24a9,9,0,0,1,.07-1.6,9.47,9.47,0,0,1,1-3.86,27.19,27.19,0,0,1,10.76-11,48.2,48.2,0,0,1,6.8-3.21l1.67-.63.8-.28.7-.25,1.69-.67,1.71-.64A64.4,64.4,0,0,0,58,59.53a33.24,33.24,0,0,0,6.66-4.47,10.62,10.62,0,0,0,4-8.7l0-1-.16-1a11.29,11.29,0,0,0-.51-2,6.47,6.47,0,0,0-.4-.94,6.19,6.19,0,0,0-.46-.93,19.91,19.91,0,0,0-7.86-7.17,53.23,53.23,0,0,0-7.92-3.49c-1.35-.47-2.83-.95-4.26-1.5s-2.85-1.14-4.24-1.8a43.07,43.07,0,0,1-12-7.85,21.94,21.94,0,0,1-2.23-2.38C26.33,12.8,26.5,11.2,27.25,10a5.15,5.15,0,0,1,.52-.79c.33-.32.81-.18,1.43.24.32.21.65.5,1.06.83s.77.75,1.23,1.2c.61.7,1.39,1.26,2,1.95l1,1,1,.94A42.82,42.82,0,0,0,40,18.75a43.83,43.83,0,0,0,5.08,2.83,49.08,49.08,0,0,0,5.5,2.24l2.27.77c.79.27,1.58.56,2.37.86,1.57.62,3.15,1.27,4.7,2.06a31.52,31.52,0,0,1,8.84,6.18Z"/><path class="cls-1" d="M53.78,13.36l-3-.14a10.47,10.47,0,0,1-1.12,0c-1.32-.19-2.64-.43-3.93-.65-.57-.12-1.15-.15-1.72-.23a6.69,6.69,0,0,1-2.16-.43c-.22-.09-.14-.41.1-.72A1.54,1.54,0,0,1,43,10.52a29.08,29.08,0,0,1,4.28.1,12.42,12.42,0,0,0,2.64-.17c1,0,2,0,3-.07l1.86,0c.95,0,1.9,0,2.84-.08a6.72,6.72,0,0,0,1.09-.19l.55-.13a5.09,5.09,0,0,1,.55,0,3.85,3.85,0,0,1,.48,0c.6.07.79.31.87,1,0,.16.05.32.06.49a1.3,1.3,0,0,1-.67,1.22,4.87,4.87,0,0,1-1.88.72,17.33,17.33,0,0,1-1.91.1H53.79Z"/><path class="cls-1" d="M50.31,16.61a8,8,0,0,0,1.26.32c.15,0,.3,0,.46,0,.58.08,1.22.16,1.84.22a3.1,3.1,0,0,0,.81,0,1.46,1.46,0,0,1,1,0c.22.12,0,1.87-.33,2a4.41,4.41,0,0,1-2,.06,4.33,4.33,0,0,0-1.26.15,10.59,10.59,0,0,1-1.49,0c-.3,0-.61,0-.9-.08a8.8,8.8,0,0,0-1.32-.16,4.3,4.3,0,0,0-1,.25,1.8,1.8,0,0,1-.22.06c-.28,0-.35-.17-.35-.88V18a1.6,1.6,0,0,1,.38-1.13A2.86,2.86,0,0,1,49,16.4a5.38,5.38,0,0,1,1.27.14Z"/><path class="cls-1" d="M45.77,82.21l3,.23c.36,0,.72,0,1.09,0,1.3.21,2.59.45,3.88.62.57.09,1.14.1,1.71.14a7.65,7.65,0,0,1,2.17.28c.22.08.17.4,0,.73a1.53,1.53,0,0,1-1,.73,21.82,21.82,0,0,1-4.35.09,15.19,15.19,0,0,0-2.68.16c-1,0-2,0-3,0l-1.85,0c-.94,0-1.88,0-2.82,0a8.22,8.22,0,0,0-1.09.17l-.55.13a4.93,4.93,0,0,1-.55,0,3.85,3.85,0,0,1-.48,0c-.61-.08-.79-.32-.85-1,0-.17,0-.33,0-.49A1.31,1.31,0,0,1,39,82.8a5,5,0,0,1,1.88-.7A17.62,17.62,0,0,1,42.82,82c1,0,2,.07,3,.09Z"/><path class="cls-1" d="M49.64,78.78a17.36,17.36,0,0,0-1.78-.28c-.22,0-.44,0-.66,0-.79-.08-1.6-.18-2.4-.22a5.35,5.35,0,0,0-1.06.07,2.55,2.55,0,0,1-1.37,0c-.29-.12,0-1.87.48-2a8,8,0,0,1,2.68-.12,7,7,0,0,0,1.69-.14c.62,0,1.26,0,1.9,0,.39,0,.78,0,1.17,0,.6,0,1.19.14,1.77.13A9.44,9.44,0,0,0,53.43,76c.1,0,.2-.06.3-.06.37,0,.48.18.49.89a3.85,3.85,0,0,1,0,.48,1.3,1.3,0,0,1-.46,1.13,4.87,4.87,0,0,1-2.37.51,11.47,11.47,0,0,1-1.75-.09Z"/><path class="cls-1" d="M52.63,41.42c-.92-.11-1.85-.22-2.78-.31a8.69,8.69,0,0,1-1,0c-1.2-.19-2.4-.39-3.6-.51a12.21,12.21,0,0,0-1.6,0,5.08,5.08,0,0,1-2.05-.08c-.21-.07-.18-.55,0-1s.48-1,.87-1a14,14,0,0,1,4.14-.1,12.86,12.86,0,0,0,2.55-.09c.94,0,1.88.07,2.83.11l1.74.09c.88,0,1.76.1,2.63,0,.69,0,1.36-.15,2.05-.19a1.18,1.18,0,0,1,.46,0,1,1,0,0,1,.8,1c0,.13,0,.26,0,.38a1.32,1.32,0,0,1-.65,1l-.44.31a2,2,0,0,1-.43.19c-.3.11-.6.21-.9.29a6.71,6.71,0,0,1-.91.22h-.92c-.92,0-1.85-.12-2.78-.17Z"/><path class="cls-1" d="M52.93,47l-4-.29c-.49,0-1,0-1.47,0-1.73-.13-3.47-.39-5.2-.5a19.78,19.78,0,0,0-2.31,0A10,10,0,0,1,37,46.16c-.31-.07-.29-.59,0-1.11a1.84,1.84,0,0,1,1.25-1.15,27,27,0,0,1,6-.11c1.21.14,2.46-.08,3.7-.06l4.08.11,2.51,0,1.9,0c.64,0,1.27,0,1.9,0,1,0,1.93-.22,2.89-.33a2.76,2.76,0,0,1,.64,0c.79.08,1,.3,1.23.87a2.85,2.85,0,0,1,.11.39c.08.42-.24.82-.81,1.1a9.15,9.15,0,0,1-2.64.81c-.89.17-1.8.29-2.7.38a13.9,13.9,0,0,1-2,0l-2-.06Z"/><path class="cls-1" d="M50.21,53.41l-2.12-.21c-.26,0-.51,0-.77,0-.91-.12-1.82-.26-2.73-.33a6.87,6.87,0,0,0-1.2,0,3.81,3.81,0,0,1-1.54,0c-.32-.1,0-1.61.6-1.72a10.39,10.39,0,0,1,3.15,0A11.39,11.39,0,0,0,47.53,51c.7,0,1.41,0,2.13,0l1.31,0a18.69,18.69,0,0,0,2,0,9.19,9.19,0,0,0,1.49-.41c.11,0,.22-.09.33-.11.41-.07.55.1.67.79,0,.16.06.32.08.48A1.15,1.15,0,0,1,55.13,53a5.62,5.62,0,0,1-2.78.56c-.71,0-1.42,0-2.13-.07Z"/></g></svg>