<svg xmlns="http://www.w3.org/2000/svg" width="96" height="96" viewBox="0 0 96 96"><defs><style>.cls-1{fill:#231f20;}</style></defs><title>scribble final version</title><g id="Layer_1" data-name="Layer 1"><path class="cls-1" d="M34.08,25.22H52.33s-3.39-7-9.13-5.7A17.71,17.71,0,0,0,34.08,25.22Z"/><path class="cls-1" d="M30.85,69.06s1.51-4.64,7.8-3.32,3.05,4.89,3.05,4.89Z"/><path class="cls-1" d="M58.57,48.26a5.78,5.78,0,0,1,5.76-4.19c4.79,0,7.81,4.68,7.81,4.68Z"/><path class="cls-1" d="M54.35,28.43c-3.56-.2-7.13-.38-10.71-.47-1.3,0-2.6.12-3.9.07-4.61-.15-9.22-.3-13.84-.36-2,0-4.1.07-6.13.21-2.61.17-5.2.56-7.9.07-.84-.16-.71-1.26,0-2.39A6.23,6.23,0,0,1,13.17,24a3.85,3.85,0,0,1,2-.89,78.26,78.26,0,0,1,16-.53c3.23.27,6.57-.16,9.87-.2,3.62,0,7.25,0,10.89.06l6.71.16c3.39.07,6.79.28,10.17.3,2.63,0,5.23-.33,7.89-.13a6.8,6.8,0,0,1,1.74.16c2.16.65,2.76,1.27,3,2.52a6.26,6.26,0,0,1,.14.83c0,.87-1,1.51-2.54,1.91-.57.15-1.12.26-1.71.45a11.74,11.74,0,0,1-1.72.26c-.57.07-1.14.12-1.71.17a11.53,11.53,0,0,1-1.75.12c-2.3,0-4.68-.06-7-.17-1.77-.06-3.56-.13-5.34-.22l-5.37-.19Z"/><path class="cls-1" d="M41.58,45.4c3.55.14,7.12.24,10.7.24,1.3,0,2.6-.19,3.9-.18,4.61,0,9.23,0,13.85-.1,2,0,4.1-.22,6.13-.43,2.61-.27,5.18-.77,8-.33.85.13.72,1.24.08,2.38a6.62,6.62,0,0,1-1.3,1.62,3.78,3.78,0,0,1-1.94.95c-5.22.73-10.55,1.47-16,1.11-3.26-.15-6.59.38-9.9.52-3.64.14-7.28.19-10.94.19-2.24,0-4.49-.06-6.74,0-1.7,0-3.41-.11-5.12-.15S28.85,51,27.15,51c-2.65-.1-5.29.23-8-.1a7,7,0,0,1-1.76-.23c-2.16-.82-2.73-1.47-2.85-2.72a5,5,0,0,1-.07-.84c0-.86,1.11-1.44,2.65-1.75.57-.11,1.11-.18,1.7-.34a11.21,11.21,0,0,1,1.71-.2c.56,0,1.12-.08,1.68-.1.28,0,.57,0,.86-.07H24c1.15,0,2.28.09,3.45.12s2.35.07,3.53.13l5.3.22c1.77.06,3.56.09,5.35.13Z"/><path class="cls-1" d="M38.46,68.31c3.55.14,7.12.24,10.69.24,1.31,0,2.6-.19,3.91-.18,4.6,0,9.22,0,13.85-.1,2,0,4.1-.22,6.13-.43,2.61-.27,5.18-.77,7.94-.33.86.13.73,1.24.08,2.38a6.35,6.35,0,0,1-1.29,1.62,3.78,3.78,0,0,1-1.94.95c-5.22.73-10.55,1.47-16,1.11-3.25-.15-6.58.38-9.89.52-3.64.14-7.29.19-10.94.19-2.24,0-4.5-.06-6.74,0-1.7,0-3.41-.11-5.12-.15s-3.41-.17-5.11-.17c-2.65-.1-5.29.24-8-.1a7,7,0,0,1-1.76-.23c-2.16-.82-2.73-1.47-2.85-2.72a6.42,6.42,0,0,1-.08-.84c.05-.86,1.12-1.44,2.65-1.75.58-.11,1.12-.18,1.71-.34a11.23,11.23,0,0,1,1.7-.2c.57,0,1.13-.08,1.69-.1.28,0,.57,0,.86-.07s.57,0,.86,0c1.15,0,2.28.09,3.45.12s2.35.07,3.52.13l5.3.22c1.78.06,3.57.09,5.35.13Z"/><path class="cls-1" d="M45.52,38.09a19.54,19.54,0,0,1-6-.12,18.63,18.63,0,0,1-5.66-1.9,10.38,10.38,0,0,1-3.9-3,8.76,8.76,0,0,1-1.68-4.29,9.34,9.34,0,0,1,.09-2.31A12.12,12.12,0,0,1,29,24.43a12.39,12.39,0,0,1,.94-1.81,9.92,9.92,0,0,1,1.21-1.57l.69-.7.73-.61a12.72,12.72,0,0,1,1.55-1.09,19.38,19.38,0,0,1,6-2.51,18,18,0,0,1,2.1-.31,6.6,6.6,0,0,1,2.17.07,7.93,7.93,0,0,1,3.84,2c.66.64,0,1.21-1,1.76-.51.28-1.07.55-1.65.9-.29.16-.55.28-.82.42a2.26,2.26,0,0,1-.76.29c-.22,0-.45.14-.65.16a3.33,3.33,0,0,0-.63,0l-.64.05-.65.12a11.07,11.07,0,0,0-2.57.8,11.89,11.89,0,0,0-2.37,1.32l-.54.4-.49.43A5.26,5.26,0,0,0,35,25c-.15.15-.35.29-.48.45l-.49.62-.33.7a2.86,2.86,0,0,0-.2,1.3,4.05,4.05,0,0,0,1.25,2.4A8.12,8.12,0,0,0,38.2,32.3a14.66,14.66,0,0,0,4.34.57,10.51,10.51,0,0,0,5.05-1.23,6.25,6.25,0,0,0,2.55-2.57l.35-.86c.11-.28.12-.56.2-.83a3.77,3.77,0,0,0-.15-1.61,4.17,4.17,0,0,0-1.59-2,10.67,10.67,0,0,0-2.51-1.24c-.38-.16-.77-.27-1.15-.42a2.9,2.9,0,0,1-1.41-.94,5.08,5.08,0,0,1-.5-1.8c-.05-.34-.14-.68-.17-1a1.68,1.68,0,0,1,.63-1.44A3,3,0,0,1,46,16.09a12.26,12.26,0,0,1,4.17.76,12.14,12.14,0,0,1,3.71,2.69,10.55,10.55,0,0,1,2.54,4.64,10.16,10.16,0,0,1-.22,5.61q-.36.88-.75,1.74c-.31.55-.68,1.08-1,1.61a16.76,16.76,0,0,1-1.26,1.4c-.46.42-.94.8-1.42,1.18a14.81,14.81,0,0,1-6.21,2.5Z"/><path class="cls-1" d="M69.42,60.26a17.26,17.26,0,0,1-5.48.58,21.31,21.31,0,0,1-2.63-.27,17.88,17.88,0,0,1-2.62-.64A14.51,14.51,0,0,1,55,58.36a8.92,8.92,0,0,1-2.87-3.15,6.58,6.58,0,0,1-.53-4.63,11.77,11.77,0,0,1,3.79-5.77,15.12,15.12,0,0,1,5-2.81,11.57,11.57,0,0,1,6.92,0c.68.24.46.91-.16,1.63A7.73,7.73,0,0,1,66,44.75a4.06,4.06,0,0,1-1.45.79,11.61,11.61,0,0,0-2.47.92,12.2,12.2,0,0,0-2,1.1,9.25,9.25,0,0,0-2.88,3.26c-.1.19-.19.42-.27.6a1.9,1.9,0,0,0-.08.35.65.65,0,0,0,.13.49,5.81,5.81,0,0,0,1.88,1.27,11.83,11.83,0,0,0,3.35,1.06,13.64,13.64,0,0,0,3.72.09A10.28,10.28,0,0,0,68,54.22a5.67,5.67,0,0,0,1.65-.92A3.31,3.31,0,0,0,70.76,51a4.27,4.27,0,0,0-.69-2.8C69.19,47,67.51,46.62,66,46.6c-.36,0-.69.06-1,.08a1.92,1.92,0,0,1-1.44-.44,3.39,3.39,0,0,1-.85-1.61c-.12-.36-.27-.72-.37-1.08a2.19,2.19,0,0,1,.2-1.71,2.73,2.73,0,0,1,1.62-1.2,9.07,9.07,0,0,1,3.7-.3,10.39,10.39,0,0,1,4,1.26,10,10,0,0,1,3.48,3.16A10.6,10.6,0,0,1,77,49.34a9.3,9.3,0,0,1,.08,1.74,9.77,9.77,0,0,1-.22,1.84,9.23,9.23,0,0,1-.61,1.89,11,11,0,0,1-1,1.76,11.41,11.41,0,0,1-5.73,3.84Z"/><path class="cls-1" d="M40.4,81.45a17,17,0,0,1-5.42.24,21,21,0,0,1-5-1.2,12.44,12.44,0,0,1-3.7-1.85,8.43,8.43,0,0,1-2.41-3.5A7.66,7.66,0,0,1,23.64,71a9.76,9.76,0,0,1,3.9-5.74,16.3,16.3,0,0,1,5-2.43,12.22,12.22,0,0,1,6.62-.1c.67.21.5.89-.07,1.63a5.91,5.91,0,0,1-2.49,2,16.41,16.41,0,0,0-2.48,1,15.36,15.36,0,0,0-2.11,1,7.66,7.66,0,0,0-2.77,2.74,1.75,1.75,0,0,0-.12,1.74,3.56,3.56,0,0,0,1.44,1.28,11.23,11.23,0,0,0,3.15,1.18,13.34,13.34,0,0,0,3.55.35,6.65,6.65,0,0,0,3.67-1.12,3.77,3.77,0,0,0,.82-.92,2.39,2.39,0,0,0,.28-.58,1.88,1.88,0,0,0,.12-.3l0-.29a2.74,2.74,0,0,0-.7-2.32A8,8,0,0,0,37.09,68c-.36-.09-.74-.09-1.09-.17-1.29-.31-1.49-.81-1.67-2.48,0-.38-.12-.76-.14-1.14a2.06,2.06,0,0,1,.52-1.63,2.81,2.81,0,0,1,1.87-.82,12.05,12.05,0,0,1,6.73,1.81,12.39,12.39,0,0,1,3.1,2.7,9.79,9.79,0,0,1,2,4.63,9.47,9.47,0,0,1,0,2.06A8.37,8.37,0,0,1,48,74.9a9.53,9.53,0,0,1-1.84,3.28,11.13,11.13,0,0,1-5.75,3.42Z"/></g></svg>