<svg xmlns="http://www.w3.org/2000/svg" width="96" height="96" viewBox="0 0 96 96"><defs><style>.cls-1{fill:#231f20;}</style></defs><title>scribble final version</title><g id="Layer_1" data-name="Layer 1"><path class="cls-1" d="M15.33,26s4.48-5.34,6.3-3.76c1.65,1.43,1.92,4.41,1.92,4.41l-5.64,6.06Z"/><path class="cls-1" d="M35.19,15.39c-9.92,6.94-16.68,25.87-14.91,29.27.95,1.83-10-1.37-10-1.37l21-29.48Z"/><path class="cls-1" d="M27.3,75.4Q36.61,72.32,46.18,70c2.32-.56,4.63-1.2,7-1.65,4.05-.76,8.14-1.35,12.26-1.73,1-.09,2-.18,3.08-.25l2.84-.17a10.59,10.59,0,0,0,1.34-.1A1,1,0,0,0,73,66a.28.28,0,0,0,.08-.31l-.27-.6-.12-.25-.28-.58-.6-1.19-1.25-2.5c-.84-1.66-1.65-3.34-2.45-5-1-2.16-2-4.34-2.87-6.6a33.71,33.71,0,0,1-1.1-3.49,9.12,9.12,0,0,1-.32-1.82,14.6,14.6,0,0,1-.12-1.88c0-1.6.91-1.4,2.11-.37a22.93,22.93,0,0,1,2,2,10.44,10.44,0,0,1,1.73,3.09c1.05,2.91,2.31,5.82,3.63,8.72q1,2.18,2,4.35l1,2.17.13.27.26.5.54,1.05c.36.7.73,1.39,1,2.08l.17.89,0,.74a2.56,2.56,0,0,1-.14.7,2.64,2.64,0,0,1-.4.76,4.59,4.59,0,0,1-3,1.59c-.69.1-1.37.19-2.09.23l-1.06.07-.63,0-2.31.08c-5.7.19-11.52,1.44-17.22,2.7-6.27,1.39-12.5,3.1-18.66,5.08-1.9.6-3.78,1.24-5.67,1.88S23.73,81.59,21,82.79l-.53.22-1.36.18-.68.09c-.23.1-.45-.06-.63-.21a6.3,6.3,0,0,1-1.48-2.54c-.17-.51-.32-1-.45-1.56l-.29-1.19c-.16-.74-.31-1.49-.46-2.23-.56-3-1-6-1.34-8.92a90.86,90.86,0,0,1-1-14.24A27.47,27.47,0,0,1,13,49.16,10,10,0,0,1,14.53,45a3.76,3.76,0,0,1,2.09-1.22,6.07,6.07,0,0,1,.8-.18c.36,0,.42.4.57,1.17a8.86,8.86,0,0,1,.17,3.07c-.11,1.87-.18,3.8-.16,5.79s.13,4,.3,6.08c.34,4.11.84,8.33,1.58,12.47.31,1.76.68,3.6,1.09,5.2,0,0,0,.1,0,.09l.63-.19.08,0,.17-.06.48-.17,1-.35c1.3-.47,2.61-.94,3.92-1.38Z"/><path class="cls-1" d="M13.43,43.51a.73.73,0,0,0-.13.23c0,.11.08.13.14.15a1,1,0,0,0,.25,0h.2l.11,0,.48-.11c2.61-.65,5.29-1.46,8-2.27,1.95-.59,3.87-1.3,5.84-1.87a159.15,159.15,0,0,1,21.28-4.81,85.42,85.42,0,0,1,9.73-.92,35.58,35.58,0,0,1,6.34.3,18.24,18.24,0,0,1,3.14.71,17.41,17.41,0,0,1,3,1.33c1.17.71.6,1.32-.69,1.66a14.47,14.47,0,0,1-2.39.44,9.35,9.35,0,0,1-3,0A46.43,46.43,0,0,0,54,38.22c-4,.4-8,1.1-12,1.87a122.89,122.89,0,0,0-14.58,4.27l-8,2.6c-1.36.42-2.73.83-4.14,1.2a21.84,21.84,0,0,1-3.14.64,6.29,6.29,0,0,1-2.73-.21A2.52,2.52,0,0,1,8,47.7a3,3,0,0,1-.28-1.49,9.45,9.45,0,0,1,1-3.43l.43-.88.42-.8.65-1.17c.44-.77.9-1.53,1.36-2.28a157.91,157.91,0,0,1,9.18-13,109.54,109.54,0,0,1,7.82-9.48c.64-.66,1.26-1.32,2-1.93,2.7-2.25,4.14-2.49,5.29-1.69a3.88,3.88,0,0,1,.77.58,1.18,1.18,0,0,1-.1,1.41,9.25,9.25,0,0,1-1.73,1.89,75.71,75.71,0,0,0-7,7.64c-2.29,2.78-4.54,5.7-6.71,8.7-1.6,2.23-3.16,4.5-4.64,6.81-.73,1.15-1.45,2.31-2.11,3.48l-.49.88-.22.4,0,0a.86.86,0,0,0-.07.1Z"/><path class="cls-1" d="M57.69,31.1l-5-3.45c-.61-.42-1.29-.75-1.9-1.19a70.27,70.27,0,0,1-6.07-5.23c-.83-.85-1.79-1.55-2.66-2.33a10.36,10.36,0,0,1-2.88-3.48c-.22-.44.32-.84,1.13-1.07a3.69,3.69,0,0,1,2.64.07c.3.2.61.4.93.57l.47.28.4.35c.52.48,1,1,1.59,1.42,1,1,2.1,1.92,3.12,3a11.57,11.57,0,0,0,2.1,1.63l2.28,1.47c1.64,1.12,3.32,2.24,5,3.36L62,28.56c1.61,1,3.12,2.26,4.7,3.33,1.22.84,2.58,1.47,3.71,2.42a7.25,7.25,0,0,1,.76.61c.87.86,1,1.31.65,2.08-.08.17-.14.35-.23.51-.31.51-1,.59-1.87.28-.63-.23-1.22-.5-1.86-.72l-.94-.35c-.3-.12-.57-.3-.86-.45-1.15-.6-2.26-1.27-3.41-1.92-1.7-.93-3.31-2.08-5-3.15Z"/><path class="cls-1" d="M12,20.07c0-.06.05-.1,0-.17l.06-.16a6.36,6.36,0,0,1,1.23-1.63,7,7,0,0,1,1.18-.9,12.94,12.94,0,0,1,2.35-1.13,11.44,11.44,0,0,1,1.82-.61c.3-.06.54-.1.89-.14a6.06,6.06,0,0,1,1.26-.08,4.29,4.29,0,0,1,2.2.62,2,2,0,0,1,.75.79,2.56,2.56,0,0,1,.16.49,2.66,2.66,0,0,1,.09.53,7.59,7.59,0,0,1,0,1.17c0,.39,0,.8,0,1a23,23,0,0,0,.11,2.63A9.59,9.59,0,0,1,24,25.85c-.11.35-.78.32-1.5.06s-1.53-.77-1.7-1.4a12,12,0,0,1-.49-3.34l0-.84,0-.42c0-.1,0-.08,0-.1l.06,0a.86.86,0,0,0,.31-.5c0-.29-.23-.33-.44-.33l-.16,0-.3,0-.88.16a12,12,0,0,0-2,.51,6.47,6.47,0,0,0-.89.39,4.56,4.56,0,0,0-.66.42,1.16,1.16,0,0,0-.25.29.86.86,0,0,0-.09.48,8.38,8.38,0,0,0,.13.87,24.94,24.94,0,0,0,1.19,4,14.24,14.24,0,0,0,1.66,2.71c.12.19.29.34.41.53a1.13,1.13,0,0,1,.24.83,2,2,0,0,1-.48.81c-.13.16-.24.32-.37.47a1,1,0,0,1-.79.37,1.63,1.63,0,0,1-1-.37,13.58,13.58,0,0,1-3.43-5.6,14.34,14.34,0,0,1-.66-2.42c-.08-.41-.15-.86-.2-1.33l0-.39a2.41,2.41,0,0,1,0-.54,5.09,5.09,0,0,1,.13-1.1Z"/><path class="cls-1" d="M27.71,59.14c.63.67,10.17-2.12,10.71-2.39s-.71-7.08-1.66-9.06c-.52-1.09-10.49.77-10.49.77C25.92,48.52,26.29,57.65,27.71,59.14Z"/><path class="cls-1" d="M57.59,54.08c-.39.83-10.33,1.15-10.92,1.07S45.13,48.2,45.42,46c.15-1.2,10.21-2.54,10.21-2.54C56,43.43,58.47,52.22,57.59,54.08Z"/><path class="cls-1" d="M73.48,70.09a96.55,96.55,0,0,1,10.37-2.27c.39-.08.77-.16,1-.23l.13,0h0s0,0,0,0l.07.15.1.24c.12.3.34.66.44.86a2.39,2.39,0,0,0,.21.34,2,2,0,0,0,.18.26l.17.19a1.1,1.1,0,0,0,.14.11c.18.1.09,0-.14.15A1,1,0,0,0,86,70l0,0h0l-1.47,1.37h0s0,0,0,0h0s0,0,0,0l0-.06-.14-.07-.27-.16a3.91,3.91,0,0,0-.41-.15,17,17,0,0,0-4.33-.74A58.88,58.88,0,0,0,72,70.5a188.45,188.45,0,0,0-26.06,4c-3.84.84-7.64,1.9-11.35,3.08-2.37.79-4.77,1.49-7.15,2.23l-3.58,1.12L22,81.46c-.59.19-1.22.31-1.82.5-1.52.39-1.45.11-.49-1a17.47,17.47,0,0,1,5.54-4.32c1.18-.58,2.37-1.15,3.56-1.69l1.8-.81,1.85-.64c2.48-.84,5-1.59,7.48-2.3a118.22,118.22,0,0,1,15.34-3.3c6.22-.87,12.61-2.22,19.16-2.56a47.73,47.73,0,0,1,5.48,0,18.58,18.58,0,0,1,5.83,1.13l.81.42.4.21c.13.09.27.21.41.32l.4.34L88,68l.1.08.2.25.1.14.13.23a2.07,2.07,0,0,1,.21.57,2.2,2.2,0,0,1,0,.77,2.1,2.1,0,0,1-.2.74,2.46,2.46,0,0,1-.61.82,3.59,3.59,0,0,1-.44.32,4.69,4.69,0,0,1-1.05.45c-.27.09-.51.15-.75.21-.48.11-.92.21-1.36.29-1.75.35-3.42.67-5.08,1a62.21,62.21,0,0,0-11.92,3.8,49.67,49.67,0,0,0-11.47,7l.17-.17a3.06,3.06,0,0,0-.66-.49.7.7,0,0,0-.28-.12.21.21,0,0,0-.15,0v0a.24.24,0,0,0,.09-.16,2.52,2.52,0,0,0,.19-.75l0-.25c0-.1,0,0,0,0h.11l.25,0c.38,0,.83-.12,1.26-.21.88-.18,1.78-.41,2.67-.64,4.84-1.25,9.53-2.87,14.55-3.89,1.11-.22,2.2-.46,3.38-.58a10,10,0,0,1,4.91.42,3.28,3.28,0,0,1,1.3,1,2.1,2.1,0,0,1,.42,1.24,1.71,1.71,0,0,1-.21,1c-.3.37-.8.3-1.28.46a3.88,3.88,0,0,1-.95.13l-1.56.09a40.32,40.32,0,0,0-5.83,1c-2,.49-4.08,1-6.17,1.64L61.76,86c-1.09.3-2.18.6-3.34.87-.59.14-1.16.28-1.88.39a7,7,0,0,1-1.45.11,1.57,1.57,0,0,1-.35,0,4.38,4.38,0,0,1-.46-.07,5.16,5.16,0,0,1-.75-.26,3.45,3.45,0,0,1-.71-.43,3.25,3.25,0,0,1-.67-.7,3.73,3.73,0,0,1-.57-1.21,3.59,3.59,0,0,1,0-1.5,1.7,1.7,0,0,1,.1-.37A3.93,3.93,0,0,1,52,82l.13-.19c.08-.12.18-.25.27-.36l.17-.2.23-.2,1-.85A57.74,57.74,0,0,1,73.44,70Z"/></g></svg>