<svg xmlns="http://www.w3.org/2000/svg" width="96" height="96" viewBox="0 0 96 96"><defs><style>.cls-1{fill:#231f20;}</style></defs><title>scribble final version</title><g id="Layer_1" data-name="Layer 1"><path class="cls-1" d="M67.32,51.26a.21.21,0,0,0,0-.37,1.38,1.38,0,0,0-.21-.21l-.07,0L67,50.55l-.44-.25-.92-.48c-.62-.31-1.25-.61-1.91-.91L61.61,48l-4-2c-1.92-1-3.9-1.87-5.8-2.91-3.35-1.83-6.66-3.74-9.89-5.87-.8-.54-1.6-1.09-2.39-1.67-.4-.29-.79-.59-1.18-.89l-.58-.47L37,33.46a8.35,8.35,0,0,1-2.39-3.15,3,3,0,0,1-.18-1.67,2.33,2.33,0,0,1,1-1.44,5.36,5.36,0,0,1,3.07-.68c.6,0,1.25.09,1.86.16.28,0,.65.08.87.13l.63.12c1.69.33,3.33.7,5,1.07,2.09.47,4.17.91,6.24,1.34a43.85,43.85,0,0,0,6.15,1.08c1.22,0,1.21.39.08,1a13.06,13.06,0,0,1-6,1c-2.24-.2-4.43-.53-6.59-.85l-3.22-.49-1.59-.22-1.42-.18c-.15,0-.14-.07-.28-.11s-.31,0-.3.13a.66.66,0,0,0,.14.38l0,.06,0,0,.14.13.59.49c.4.33.81.65,1.23,1,4.06,3.08,9,5.45,13.76,7.89,2.59,1.33,5.3,2.68,7.87,3.9,1.32.59,2.74,1.2,4.11,1.9l2.48,1.32a8.75,8.75,0,0,1,2.53,2.1,4.28,4.28,0,0,1,.78,1.51,2.92,2.92,0,0,1,0,1.73,4.2,4.2,0,0,1-2.38,2.53,7.92,7.92,0,0,1-3.75.47l-1-.11-.72-.09-1.16-.15a3.68,3.68,0,0,0-2.15.38.88.88,0,0,0-.53.92,2.11,2.11,0,0,0,.51,1,6.28,6.28,0,0,0,.81.82c.35.31.94.77,1.45,1.15,1.07.78,2.2,1.52,3.35,2.22,3.59,2.16,7.41,3.83,11.21,5.63.84.4,1.69.75,2.52,1.18s1.41.75,1.93,1.08a6.56,6.56,0,0,1,1.17,1,2.86,2.86,0,0,1,.81,1.92,4.65,4.65,0,0,1,0,.91c-.19.86-1.71.78-4.14,0-3.46-1.41-7-3-10.58-4.77-1.77-.9-3.55-1.86-5.32-2.92-.88-.52-1.76-1.08-2.64-1.67-.45-.29-.89-.6-1.33-.92L61,63.24l-.73-.58-.32-.28L59.51,62c-.29-.24-.54-.5-.8-.76a11.62,11.62,0,0,1-1.34-1.62,5.81,5.81,0,0,1-1.06-3.46A4.86,4.86,0,0,1,57.76,53a7.67,7.67,0,0,1,3.38-1.79c.33-.1.68-.16,1-.24s.7-.08,1.05-.13.73,0,1.09,0,.61.05.92.07.5.06.69.09l.57.09.43.07h0a.26.26,0,0,0,.23,0Z"/><path class="cls-1" d="M43.74,49.72c.11,0,.27,0,.29-.16a.46.46,0,0,0-.15-.34l-.07-.08-.51-.4c-.4-.31-.81-.61-1.25-.91-.86-.6-1.77-1.19-2.7-1.76-3.72-2.28-7.66-4.41-11.58-6.61-2.87-1.6-5.8-3.12-8.62-4.91a49.13,49.13,0,0,1-7.25-5.39,13.47,13.47,0,0,1-3.2-4,5.35,5.35,0,0,1-.46-3.31A5.54,5.54,0,0,1,9.87,18.9a10.65,10.65,0,0,1,4.65-2.46,22.61,22.61,0,0,1,4.64-.74,56.12,56.12,0,0,1,8.91.22c2.59.28,5.16.63,7.71,1s5.09.81,7.59,1.31c3.21.62,6.42,1.26,9.6,2,1.59.34,3.18.67,4.76,1s3.16.75,4.71,1c1,.13,1.35.17,1.36.34s-.46.43-1.36.64a24.44,24.44,0,0,1-3.69.5c-.77,0-1.6.1-2.47.09s-1.78-.09-2.72-.19l-9.91-1.19-4.92-.57c-1.63-.24-3.25-.45-4.88-.65-3.24-.41-6.47-.66-9.66-.91a29.2,29.2,0,0,0-9,.55,7.58,7.58,0,0,0-1.08.41l-.49.24-.39.28a2.06,2.06,0,0,0-.58.54.85.85,0,0,0-.17.4,2.32,2.32,0,0,0,.5,1.51,9.61,9.61,0,0,0,1.71,2,63.26,63.26,0,0,0,9.88,6.62c3.86,2.24,7.83,4.36,11.8,6.56,2,1.1,4,2.23,5.92,3.44,1,.61,2,1.24,2.92,1.93l.73.53.35.27c.12.1.23.17.41.33a13.65,13.65,0,0,1,1.84,1.8,5,5,0,0,1,1.12,2.55,2.74,2.74,0,0,1,0,.7,3.06,3.06,0,0,1-.88,1.85A4.9,4.9,0,0,1,46.22,54l-.74.13-.78,0a6.78,6.78,0,0,1-.78,0l-.7,0c-2.94-.18-5.69-.61-8.41-.9-.81-.1-1.61-.17-2.4-.23L31.3,53c-.21,0-.43,0-.65,0a4.6,4.6,0,0,0-1.33.19,1.14,1.14,0,0,0-.86,1,1.37,1.37,0,0,0,.34,1,4.83,4.83,0,0,0,.72.78l.41.35.21.17.36.26c.48.36,1,.7,1.5,1,2.1,1.31,4.31,2.51,6.54,3.65,2.88,1.46,5.8,2.78,8.73,4.09s5.89,2.59,8.79,4.06c1.28.64,2.56,1.23,3.83,1.94a18.92,18.92,0,0,1,4.69,3.37,3.87,3.87,0,0,1,1.2,2.74,5.27,5.27,0,0,1,0,1.26c-.34,1.22-2.5.66-5.89-.93-5-2.47-10.33-4.81-15.62-7.56-2.65-1.35-5.34-2.74-8-4.22a92.1,92.1,0,0,1-8.1-4.94l-.73-.51L27,60.26l-.61-.5c-.39-.35-.85-.66-1.19-1l-1-1.11-.79-1.18c-.22-.4-.34-.81-.52-1.21A5.87,5.87,0,0,1,22.61,54l0-1.29.07-.26a.68.68,0,0,0,.09-.25l.17-.5a5.89,5.89,0,0,1,.47-.94,3.81,3.81,0,0,1,.64-.8,4.07,4.07,0,0,1,.77-.66A8.53,8.53,0,0,1,29.2,48c.43,0,.86,0,1.28,0l1.21.05,1.42.14c.93.11,1.81.25,2.69.38l5.08.84c.82.09,1.62.17,2.38.21h.28s0,0,0,0h.1Z"/></g></svg>