<svg xmlns="http://www.w3.org/2000/svg" width="96" height="96" viewBox="0 0 96 96"><defs><style>.cls-1{fill:#231f20;}</style></defs><title>scribble final version</title><g id="Layer_1" data-name="Layer 1"><path class="cls-1" d="M30.2,24a36.18,36.18,0,0,1,11.19-3.19c1-.14,1.91-.18,2.87-.23a24.63,24.63,0,0,1,2.85,0l2.82.09c.94.09,1.88.23,2.81.34.68.1,1.37.15,2,.26l2,.4,2,.41c.67.17,1.32.41,2,.63a38.22,38.22,0,0,1,12.71,7,45.36,45.36,0,0,1,9.4,10.84l1.55,2.77c.25.46.54.9.76,1.38l.66,1.43c.43,1,.91,1.9,1.31,2.87L88.3,52a34.32,34.32,0,0,1,1.07,3.85,27.8,27.8,0,0,1,.8,3.92c.16,1.32.36,2.63.43,4v2c0,.67-.15,1.34-.22,2-.26,1.66-.89,1.43-2,.14a12.57,12.57,0,0,1-1.85-2.61,19.63,19.63,0,0,1-1.43-3.67,29,29,0,0,0-1-3.58c-.4-1.16-.7-2.35-1.16-3.48s-.81-2.28-1.22-3.43l-1.44-3.32a44.34,44.34,0,0,0-8.19-11.89A28.33,28.33,0,0,0,65,30.56c-.66-.36-1.37-.63-2.06-.95a21.37,21.37,0,0,0-2.09-.87L58.67,28l-1.07-.36-1.11-.25-2.44-.58c-.81-.17-1.65-.23-2.48-.36a36.54,36.54,0,0,0-5-.37,30.52,30.52,0,0,0-20.68,7.13A43.26,43.26,0,0,0,14.38,48.39a56.45,56.45,0,0,0-4.21,14.12c-.17,1.06-.4,2.09-.6,3.15-.8,3.93-1.07,5.17-2.22,6-.23.19-.44.46-.62.58-.47.42-1.6-1.33-1.67-4.56,0-1.19,0-2.39,0-3.59,0-.61,0-1.21.07-1.82s.16-1.2.24-1.8A56.65,56.65,0,0,1,7,53.33a54.75,54.75,0,0,1,6.25-13.74A42.46,42.46,0,0,1,30.13,23.91Z"/><path class="cls-1" d="M35.22,35.57a29.65,29.65,0,0,1,8.42-2.15c.71-.07,1.43-.1,2.14-.15s1.42,0,2.13,0a30,30,0,0,1,4.23.32A30.26,30.26,0,0,1,58.23,35a29.18,29.18,0,0,1,9.43,5.54,33.86,33.86,0,0,1,6.64,8.45L75.42,51c.36.7.64,1.43,1,2.14a44.32,44.32,0,0,1,1.68,4.35c.31.95.49,1.93.73,2.89l.34,1.45.2,1.47a17.13,17.13,0,0,1,0,5.89c-.25,1.23-.81,1.07-1.77.13A9.36,9.36,0,0,1,76,67.44a12.56,12.56,0,0,1-.65-1.27,7.64,7.64,0,0,1-.53-1.43c-.38-1.8-1-3.5-1.54-5.21-.36-.82-.59-1.67-.87-2.52a7.72,7.72,0,0,0-.47-1.24l-.5-1.22a34,34,0,0,0-5.54-8.95,22.49,22.49,0,0,0-11.14-6.44L53,38.76c-.29-.06-.59-.15-.89-.19l-.91-.11-1.82-.23-1.85,0a25.1,25.1,0,0,0-7.28.82,23.45,23.45,0,0,0-8.13,3.91,29.51,29.51,0,0,0-8.83,10.77A37.37,37.37,0,0,0,20.14,64c-.11.78-.28,1.53-.44,2.31-.61,2.88-.86,3.79-1.87,4.42-.21.15-.39.34-.54.43-.42.31-1.42-1-1.54-3.4-.06-.89-.09-1.79-.1-2.7a13.78,13.78,0,0,1,.19-2.72,37.44,37.44,0,0,1,6.09-15.64A31.38,31.38,0,0,1,35.16,35.46Z"/><path class="cls-1" d="M40.24,49.23a17.59,17.59,0,0,1,10.66-1c.63.17,1.26.3,1.89.45s1.22.4,1.81.64a19.39,19.39,0,0,1,5.49,3.82A22,22,0,0,1,64,58.39l.67,1.27L65.2,61c.43.85.7,1.76,1,2.63.19.58.28,1.18.43,1.76l.19.88.1.9a7.64,7.64,0,0,1-.23,3.58c-.27.74-.75.61-1.56,0a6.77,6.77,0,0,1-1.33-1.12A4.8,4.8,0,0,1,63,68.1a30.07,30.07,0,0,0-1-2.91,12,12,0,0,1-.5-1.42A13.71,13.71,0,0,0,61,62.38a24.49,24.49,0,0,0-3-5.24A13.43,13.43,0,0,0,51.87,53a13.72,13.72,0,0,0-8.09-.54,12.82,12.82,0,0,0-4.6,2.29A18.08,18.08,0,0,0,34,61.08a21.52,21.52,0,0,0-1.82,6,10,10,0,0,1-.29,1.32,6.81,6.81,0,0,1-.62,1.73,1.68,1.68,0,0,1-.38.45,3.86,3.86,0,0,1-.56.32c-.18.08-.34.2-.48.25s-.45,0-.76-.41a1.7,1.7,0,0,1-.39-.7,4.56,4.56,0,0,1-.2-1,15.46,15.46,0,0,1-.15-1.67l0-.84a5.7,5.7,0,0,1,.09-.83,22.17,22.17,0,0,1,3.7-9.5,20.14,20.14,0,0,1,8-7.12Z"/></g></svg>