<svg xmlns="http://www.w3.org/2000/svg" width="96" height="96" viewBox="0 0 96 96"><defs><style>.cls-1{fill:#231f20;}</style></defs><title>scribble final version</title><g id="Layer_1" data-name="Layer 1"><path class="cls-1" d="M19.65,57.17c2,2,4,3.94,6,5.9.73.71,1.51,1.37,2.24,2.09,2.56,2.55,5.11,5.11,7.56,7.77l3.32,3.49a19.23,19.23,0,0,1,3.66,5c.26.63,0,.62-.5.29a16,16,0,0,1-2.16-1.66c-.35-.36-.74-.71-1.1-1.06l-.57-.51L37.54,78l-2.18-2.19c-1.45-1.46-2.94-2.91-4.36-4.45-1.69-1.84-3.68-3.54-5.54-5.3l-6.12-5.86c-1.25-1.22-2.49-2.43-3.71-3.71-.23-.24-.47-.48-.69-.74s-.23-.25-.34-.39-.23-.26-.38-.48a1.83,1.83,0,0,1-.44-1.29,2.71,2.71,0,0,1,.2-.67c.09-.22.21-.45.28-.58.68-1.22,1.45-2.28,2.16-3.39,1.12-1.7,2.14-3.42,3.16-5.12.23-.38.42-.76.67-1.12a9.85,9.85,0,0,1,1.05-1.35,1.94,1.94,0,0,1,.83-.41,2.8,2.8,0,0,1,.36-.1c.17,0,.26.15.27.52a3.54,3.54,0,0,1-.3,1.47c-1.39,3.48-3.85,6.45-5.62,9.65-.15.29-.31.58-.44.85l-.09.2c0,.06,0,0,0,0h0l.2.25.32.37c.88,1,1.89,2,2.88,3Z"/><path class="cls-1" d="M50.61,62s2.31-.15,2.67-1.46,0,3.92,0,3.92Z"/><path class="cls-1" d="M54,51.16l-6.1.28-2.21.16-3.92.21c-1.31,0-2.62.09-3.93.17-1.16.08-2.32.18-3.46.28l-4.43.39c-.46,0-.4,0,0-.06s1.09-.25,1.93-.39c3-.51,6-1,9-1.33l5.56-.59,6.13-.53,3.77-.28c1.91-.15,3.82-.27,5.71-.47,1.47-.14,2.89-.4,4.34-.6.32,0,.63-.1,1-.13,1.19-.12,1.58,0,1.88.41a1.66,1.66,0,0,1,.19.3c.15.35-.31.68-1.18.87a55,55,0,0,1-8.06,1L54,51.19Z"/><path class="cls-1" d="M35.72,47.77l-1.29-1.63c-.16-.2-.34-.38-.49-.58-.51-.74-1-1.49-1.49-2.25l-.66-1A4.77,4.77,0,0,1,31.1,41c-.09-.31.51-.11.84.3.56.79,1.23,1.53,1.82,2.35A17.9,17.9,0,0,0,35,45l1.36,1.54.85.94c.44.47.87.95,1.34,1.38a14.77,14.77,0,0,0,1.2.88,2.53,2.53,0,0,1,.27.18c.31.26.33.42.1.78a2.13,2.13,0,0,1-.16.25.6.6,0,0,1-.78.19,8.39,8.39,0,0,1-2.12-1.75c-.47-.51-.92-1-1.38-1.57Z"/><path class="cls-1" d="M22.59,57.23C25,60,27.5,62.69,30,65.38c.93,1,2,1.87,2.88,2.87,3.25,3.52,6.43,7.12,9.59,10.77,1.37,1.64,2.82,3.24,4.22,4.87l1.36,1.59c.4.59.79,1.16,1.14,1.8a10.34,10.34,0,0,1,1.47,4.31c0,1.21-.67.78-1.47.32A16.4,16.4,0,0,1,46,90.08c-.46-.43-.95-.85-1.46-1.27a18,18,0,0,1-1.32-1.44l-2.68-3-1.35-1.5-1.29-1.59c-.86-1.07-1.71-2.15-2.55-3.25a91.14,91.14,0,0,0-7-7.37c-2.58-2.7-5.16-5.43-7.7-8.22C19.07,60.75,17.52,59,16,57.1l-.42-.58c-.17-.24-.34-.53-.51-.8A4.63,4.63,0,0,1,14.48,54a6.85,6.85,0,0,1,.42-1.83c.28-.62.45-1,.67-1.41.83-1.62,1.71-3.13,2.52-4.66.63-1.2,1.2-2.4,1.74-3.61s1-2.45,1.63-3.58c.28-.51.48-1,.76-1.51a8.41,8.41,0,0,1,1.22-1.85,2.94,2.94,0,0,1,1.24-.61c.21,0,.43-.14.61-.17s.52.18.69.68a4.22,4.22,0,0,1,.09,2.14c-.24,1.27-.54,2.53-.87,3.76a10.45,10.45,0,0,1-.64,1.78c-.24.58-.5,1.15-.76,1.72-1.05,2.28-2.22,4.51-3.23,6.68L20,52.68a5,5,0,0,0-.24.56l-.09.22s0,0,0,0a.05.05,0,0,0-.05,0c-.1-.12.25.34.46.62l.8,1c.57.67,1.17,1.34,1.78,2Z"/><path class="cls-1" d="M73.32,30A55.12,55.12,0,0,0,77,37.53c1.43,2.46,3,4.84,4.73,7.31l1.76,2.53.3.79.14.4.08.19,0,.1,0,0h-.16v0a2.47,2.47,0,0,1,0,.81,3.89,3.89,0,0,1-.32.81,16.82,16.82,0,0,1-1,1.58l-.46.64-.33.44c-4.75,6.06-9.58,11.89-14.13,18-2,2.71-4,5.48-5.79,8.25-1.18,1.78-2.29,3.61-3.39,5.42s-2.38,3.53-3.38,5.35c-.6,1.12-1,.87-1.24-.45a13.32,13.32,0,0,1,.87-6.14A108.39,108.39,0,0,1,61.49,72c2.58-3.63,5.3-7.14,8.16-10.57,1.7-2,3.34-4.21,4.94-6.41l4.07-5.66c0-.08.16-.18.1-.27l-.16-.25c0-.1-.12-.2-.19-.31l-.2-.3-.29-.41-1.16-1.64C76,45.1,75.2,44,74.45,42.83a69.57,69.57,0,0,1-4.2-7.14c-.45-.88-.87-1.78-1.27-2.69-.21-.45-.39-.91-.58-1.37l-.21-.51-.11-.34a2.91,2.91,0,0,0-.25-.6,3.39,3.39,0,0,0-.64-.07l-.33,0H65.11c-1.38-.07-2.76.27-4.15.21l-4.16.09-4.16.16c-1.38,0-2.76.09-4.14.16-4.28.23-8.46.85-12.68,1.32-.93.1-1.83.27-2.77.34s-1.59.09-2.2.08A5.2,5.2,0,0,1,29.33,32a4.44,4.44,0,0,1-1.74-1.55,8,8,0,0,1-.54-.79c-.19-.43.06-.84.66-1.36a8.11,8.11,0,0,1,2.83-1.62A110.89,110.89,0,0,1,42.14,25q3-.3,6-.49c2-.12,4-.29,6-.26h4l2,0a13.87,13.87,0,0,1,2,.1c.68.11,1.36.25,2,.33l2.06,0c.21,0,1.08,0,1.68.05a7.46,7.46,0,0,1,1,.08l.48,0a1.23,1.23,0,0,1,.41.17,1.89,1.89,0,0,1,.69.49l.31.27,0,0c.1-.14-.2.3.22-.3h0l0,0,.06.08.13.18,1.05,1.38L73.06,29l.37.91Z"/><path class="cls-1" d="M53.42,52.28c-2.76.12-5.53.27-8.29.49-1,.07-2,.3-3,.35-3.58.14-7.16.3-10.73.59-.8.06-1.58.18-2.38.24l-2.37.22c-1,.1-2,.22-3,.28l-.77,0-.78-.09c-.53-.06-1.05-.12-1.59-.23-.34-.06-.53-.19-.48-.24s.21-.09.46-.25a11,11,0,0,0,1-.68l.67-.48c.12-.1.25-.16.38-.27l.4-.13c2-.58,4-1.19,6-1.68,2-.3,4.11-.53,6.21-.64,2.5-.11,5-.74,7.59-1,2.8-.28,5.61-.5,8.42-.69l5.21-.33c2.62-.17,5.27-.23,7.88-.41,1-.07,2-.19,3-.31l1.52-.18c.25,0,.51-.07.76-.08h.77c.46,0,.9,0,1.36,0,1.69.2,2.22.59,2.46,1.58a4.16,4.16,0,0,1,.16.63c.08.63-.66,1.29-1.82,1.52-.87.21-1.74.42-2.63.65a18.23,18.23,0,0,1-2.66.32c-1.79.14-3.63.26-5.47.36-2.74.17-5.52.29-8.29.51Z"/><path class="cls-1" d="M54.11,41.07c-1,1-2,2-3,3L48,47.1c-.76.74-1.42,1.57-2.22,2.3l-1.11,1a13.25,13.25,0,0,1-1.81,1.39,7.78,7.78,0,0,1-1,.38,3.22,3.22,0,0,1-1-.06A4.42,4.42,0,0,1,39,51c-.29-.24-.56-.5-.83-.76l-.55-.6c-.33-.35-.64-.72-.94-1.08l-1.77-2.17c-1-1.27-2.14-2.48-3.25-3.64a19.61,19.61,0,0,1-2.1-2.27c-.62-.82-1.21-1.68-1.85-2.5-.39-.51-.21-.64.47-.6a8.6,8.6,0,0,1,3.09.8l.74.41a2.86,2.86,0,0,1,.69.46l1.2,1.1c.79.74,1.56,1.49,2.3,2.25,1.48,1.52,2.92,3.09,4.22,4.63a1.32,1.32,0,0,1,.28.39,2.12,2.12,0,0,0,.2.24.59.59,0,0,0,.27.17c.1,0,.18-.08.27-.14a2.19,2.19,0,0,0,.23-.21l.45-.48,1.3-1.4,5.86-6.31,1.88-1.91,2.07-2a10.33,10.33,0,0,1,2.19-1.75,3.61,3.61,0,0,1,1.19-.32,3.38,3.38,0,0,1,1.06.64,20.89,20.89,0,0,1,2,2l1.38,1.49c1.43,1.51,3,2.82,4.54,4.23.34.31.7.58,1,.91.15.15.28.3.4.43s.17.3.24.43a2.64,2.64,0,0,1,.24.76,1.58,1.58,0,0,1-.06.68,4,4,0,0,1-.38.74c-.14.23-.24.46-.37.63-.35.51-1.64.7-2.72,0a6,6,0,0,1-1.16-.81c-.37-.29-.73-.6-1.08-.91-.71-.62-1.39-1.27-2.06-1.94s-1.33-1.36-2-2l-1-1.05-.39-.43h0s0,0,0-.06,0,0-.07,0l0,0-.17.19-.36.37L54.2,41.15Z"/><path class="cls-1" d="M36,61c.44-.33.88-.64,1.29-1,.15-.12.23-.3.39-.41.55-.41,1.14-.78,1.66-1.2a2.36,2.36,0,0,0,.53-.69c.18-.33.24-.75.72-.85.3-.07,2.45,1.88,2.22,2.29a4,4,0,0,1-1.82,1.6c-.49.21-.69.68-1,1s-.79.71-1.18,1.06-.49.43-.72.66a14.27,14.27,0,0,0-1,1c-.22.29-.3.69-.54,1a.69.69,0,0,1-.13.2c-.23.21-.44.17-.93-.12l-.34-.2a1.26,1.26,0,0,1-.61-.86,4.85,4.85,0,0,1,0-1.32,5.26,5.26,0,0,1,.42-1c.21-.52.7-.81,1.07-1.19Z"/><path class="cls-1" d="M56.63,64.64a2.29,2.29,0,0,1-.28.8l-.32.67-.66,1.38c-.17.17-.27.46-.47.63a.54.54,0,0,1-.11-.05,24.89,24.89,0,0,1-4.52-3.38l-.91-.86-.46-.41-.36-.55c-.31-.43-.73-.71-.88-.92a2.31,2.31,0,0,1-.48-.84c-.06-.22.36-.66.91-1s1.29-.68,1.64-.51l.44.22.06,0s0,0,0,.09a2.5,2.5,0,0,0,.27.81,1.43,1.43,0,0,0,.35.49c.11.1.17.08.31.22a.47.47,0,0,1,.09.06c.08,0,.2.18.28.19a.46.46,0,0,0,.15-.09.9.9,0,0,0,.22-.3,1.86,1.86,0,0,0,.16-.61,3.35,3.35,0,0,0,0-1.39,3.31,3.31,0,0,0-.39-.89c-.14-.3-.3-.6-.42-.92-.06-.14-.16-.28-.13-.43.06-.59.42-.88,1.46-1a5.51,5.51,0,0,1,.7-.06,3.82,3.82,0,0,1,1.88.38l.47.3a2,2,0,0,1,.32.34,4.34,4.34,0,0,1,.47.76,5.6,5.6,0,0,1,.21.83l0,.21.06.42.1.83a23.76,23.76,0,0,1,0,4.64Z"/><path class="cls-1" d="M33.53,19.08c.31,0,.08.39-.44,1.08a4.17,4.17,0,0,1-.9.8,3.38,3.38,0,0,1-.69.14,15.57,15.57,0,0,1-1.58-.82,2.83,2.83,0,0,1-.88-.76c-.5-.6-1-1.18-1.5-1.78a1.32,1.32,0,0,1-.22-.48,3.27,3.27,0,0,0-.87-1.55c-.06-.08-.1-.18-.26-.18s-1.13-1.39-1.14-1.63a17.1,17.1,0,0,1-.14-1.78c0-.08-.07-.14,0-.27a.55.55,0,0,0,.08-.6,2.87,2.87,0,0,1-.08-.73,1.5,1.5,0,0,1,.2-.46c.07-.13.47-.23.52-.22s.31-.11.47-.18l.16-.06a4.31,4.31,0,0,1,.73.3,8.42,8.42,0,0,1,.78.35s.33.3.72.59.67.66.76.71.08.2.09.31,1.07,1,1.1,1c.13.25.41.41.3.83,0,.09,0,.12.06.17a5.85,5.85,0,0,1,.74,1.29,4.57,4.57,0,0,0,.45.61s0,.1,0,.15,0,.14.05.18a8.46,8.46,0,0,0,1.1,1.41c.12.08.23.84.37.92S33.41,19.08,33.53,19.08Z"/><path class="cls-1" d="M62.21,16.07c.09.31-.38.27-1.18,0a4.18,4.18,0,0,1-1-.6,4.31,4.31,0,0,1-.35-.59c0-.1.13-1.31.15-1.74A3,3,0,0,1,60.11,12c.32-.72.6-1.46.91-2.18a1.22,1.22,0,0,1,.31-.44,3.2,3.2,0,0,0,.92-1.57c0-.1.1-.18,0-.33a4.19,4.19,0,0,1,.7-1.9l1.29-1.17c.06-.05,0-.15.23-.14A.47.47,0,0,0,65,4a2.28,2.28,0,0,1,.51-.52,1.49,1.49,0,0,1,.54-.12,1.45,1.45,0,0,1,.66.31c.11.17.37.2.58.29l.21.1a6.87,6.87,0,0,1,.4,1.79s-.11.49-.22,1-.28,1-.28,1.13-.15.18-.24.26-.42,1.56-.45,1.61c-.18.27-.19.61-.62.76-.09,0-.1.1-.12.16a7.05,7.05,0,0,1-.85,1.41,7.6,7.6,0,0,0-.37.76c0,.05-.09.07-.13.11s-.12.08-.14.14A13.68,13.68,0,0,0,63.6,15c0,.16-.72.64-.76.83S62.17,16,62.21,16.07Z"/><path class="cls-1" d="M52,42.18l-2.16,2.16c-.26.27-.48.58-.74.84-.93.94-1.88,1.87-2.78,2.83-.4.43-.77.89-1.13,1.35A5.22,5.22,0,0,1,43.5,51c-.27.14-.36-.17-.43-.55a1.75,1.75,0,0,1,0-1.21,10,10,0,0,1,1.31-1.81A22.48,22.48,0,0,1,46,45.74a23.63,23.63,0,0,0,1.78-2.17c.66-.8,1.34-1.58,2-2.35l1.31-1.4c.66-.71,1.35-1.4,2-2.13.49-.57.89-1.21,1.41-1.82.12-.13.22-.28.34-.4a.9.9,0,0,1,1.31.08l.24.24a.86.86,0,0,1,.16.51,1.51,1.51,0,0,1-.09.64,2.63,2.63,0,0,1-.46.82c-.19.23-.38.51-.59.75-.41.48-.86,1-1.32,1.48l-2.07,2.23Z"/></g></svg>