<svg xmlns="http://www.w3.org/2000/svg" width="96" height="96" viewBox="0 0 96 96"><defs><style>.cls-1{fill:#231f20;}</style></defs><title>scribble final version</title><g id="Layer_1" data-name="Layer 1"><path class="cls-1" d="M55,52.79C51.44,58,48.17,63.51,45,69.11q-.85,1.53-1.62,3.12l-.8,1.58-.93,1.77c-.58,1.07-1.21,2.17-1.82,3.2-.31.54-.64,1-1,1.49a10.52,10.52,0,0,1-1,1.22,5.44,5.44,0,0,1-2,1.42,3.59,3.59,0,0,1-1.17.16h-.05c0,.05,0-.11,0,.11h-.1l-.15,0L34.14,83a4.16,4.16,0,0,1-.47-.24,23.1,23.1,0,0,1-1.77-1.62c-.29-.41-.58-.8-.85-1.24l-.8-1.4-1.51-2.92-1-2c-1.12-2.47-2.24-4.92-3.39-7.34-1.55-3.31-3.41-6.48-5.19-9.6-1.15-2-2.44-3.9-3.65-5.8-.59-1-1.19-1.92-1.8-2.82a18.31,18.31,0,0,0-1.88-2.5,2.34,2.34,0,0,1-.4-.53.62.62,0,0,1,0-.46c.09-.27.54-.57,1.37-.59a8.32,8.32,0,0,1,3.2.67,10.5,10.5,0,0,1,3.42,2.34c.46.47.89.93,1.31,1.42l1.15,1.49c.74,1,1.47,2,2.16,3s1.37,2.05,2,3.09,1.2,2.13,1.78,3.2c1.15,2.15,2.23,4.31,3.27,6.5.52,1.09,1,2.19,1.52,3.29l.73,1.65.34.84.17.42a1.43,1.43,0,0,1,.11.32,5.79,5.79,0,0,0,.68,1.89,1.43,1.43,0,0,0,.14.2.12.12,0,0,0,.19,0,1.85,1.85,0,0,0,.29-.33c.16-.25.31-.52.45-.79l1.59-3.08c3-5.77,5.94-11.61,9.22-17.29,2-3.51,4.13-6.95,6.37-10.33A151.41,151.41,0,0,1,64,27.75c3.12-3.63,6.17-7.35,10.09-10.48a24.06,24.06,0,0,1,2.69-2,14.3,14.3,0,0,1,2.38-1.17,5.29,5.29,0,0,1,1.86-.27,3.38,3.38,0,0,1,2.51,1.22,7.62,7.62,0,0,1,.9,1c.74,1.22-.32,2.81-2.17,4.53C80.82,21.76,79.43,23,78,24.26s-2.81,2.6-4.18,4a110.11,110.11,0,0,0-8,9.15A180.13,180.13,0,0,0,55.11,52.87Z"/></g></svg>