<svg xmlns="http://www.w3.org/2000/svg" width="96" height="96" viewBox="0 0 96 96"><defs><style>.cls-1{fill:#231f20;}</style></defs><title>scribble final version</title><g id="Layer_1" data-name="Layer 1"><path class="cls-1" d="M53.8,49.19a28,28,0,0,0,5.31-5.66c.56-.77,1-1.62,1.5-2.44a40.24,40.24,0,0,0,4.07-9.38,28.63,28.63,0,0,0,.93-4.49c.13-1,.17-1.94.29-2.91a23.49,23.49,0,0,0,.16-2.88c0-.51.15-.6.57-.12a6,6,0,0,1,1,2.68,15.29,15.29,0,0,1,.07,3.17c-.06,1.05-.17,2.1-.33,3.14a29.9,29.9,0,0,1-.64,3.1,29.49,29.49,0,0,1-1.08,3,56.39,56.39,0,0,1-3.26,7,31.73,31.73,0,0,1-5.26,6.73,30.22,30.22,0,0,1-4.05,3.36,38.12,38.12,0,0,1-7,3.76c-.95.4-1.91.76-2.87,1.09a16.83,16.83,0,0,1-3,.77c-.44.07-.88.16-1.33.2a3.86,3.86,0,0,1-1.8-.15,1.41,1.41,0,0,1-.79-.7,2.18,2.18,0,0,1-.23-.42c-.14-.46.51-.87,1.61-1.26,1.64-.4,3.24-1,4.86-1.47.8-.25,1.6-.53,2.36-.85s1.57-.7,2.33-1.09a32.23,32.23,0,0,0,6.43-4.24Z"/><path class="cls-1" d="M60.25,51.25a36.46,36.46,0,0,1-13.81,7.32l-2.72.71c-.91.21-1.84.36-2.76.5A37.71,37.71,0,0,1,21.9,56.9a42,42,0,0,1-7.35-4.15,27.7,27.7,0,0,1-4.12-3.55,14.55,14.55,0,0,1-2.72-4.76c-.33-1.1,0-1,.7-.37A19.4,19.4,0,0,0,10,45.24l1.06.67c.39.23.77.48,1.15.74a31.81,31.81,0,0,0,4,2.87c.71.42,1.44.82,2.17,1.22s1.44.82,2.18,1.19a32.73,32.73,0,0,0,4.5,2l2.36.73,2.43.6A28.7,28.7,0,0,0,42,54.67,31.77,31.77,0,0,0,54,49a28.42,28.42,0,0,0,5.71-5.93,28.8,28.8,0,0,0,5-11.52,22.68,22.68,0,0,0,.34-4.85c0-.8-.09-1.59-.2-2.38s-.17-1.55-.24-2.33-.26-1.31-.39-2c0-.31-.1-.59-.13-.86s0-.51,0-.73a4.42,4.42,0,0,1,.13-1.16,3.06,3.06,0,0,1,1-1.65c.23-.23.44-.5.67-.69a1.18,1.18,0,0,1,1.45.1,5.23,5.23,0,0,1,1,.8,9.13,9.13,0,0,1,.94,1.3,17.49,17.49,0,0,1,1.79,5,19.37,19.37,0,0,1,.48,5.31A35,35,0,0,1,69.41,38a32.13,32.13,0,0,1-3.66,7.29l-1.2,1.65c-.4.55-.89,1-1.33,1.56a32.62,32.62,0,0,1-2.86,2.9Z"/><path class="cls-1" d="M12.75,59c-.11-.26.31-.26,1.06-.19a2.73,2.73,0,0,1,1,.34,3.18,3.18,0,0,1,.36.6c0,.14-.11,1.59-.13,2.08a4.2,4.2,0,0,1-.32,1.31,21,21,0,0,1-1,2.43,1.44,1.44,0,0,1-.37.45,3.58,3.58,0,0,0-1.11,1.61.35.35,0,0,0,0,.35A4.75,4.75,0,0,1,11.34,70a12.1,12.1,0,0,0-1.28,1.19c-.06,0,0,.15-.23.14-.43,0-.44.17-.54.31a3.07,3.07,0,0,1-.49.54,2.15,2.15,0,0,1-.54.17,1.33,1.33,0,0,1-.71-.23c-.12-.15-.39-.15-.61-.21l-.22-.07a7,7,0,0,1-.51-2s.64-2.15.68-2.39.16-.2.27-.29.53-1.69.57-1.74c.19-.29.22-.67.69-.81.09,0,.1-.1.13-.16a7.5,7.5,0,0,1,1-1.48c.17-.25.29-.52.46-.77,0,0,.1-.06.15-.1a.59.59,0,0,0,.17-.13,11.72,11.72,0,0,0,1.09-1.77c.06-.15.74-.63.78-.81S12.78,59.16,12.75,59Z"/><path class="cls-1" d="M38.63,68.08c-.14-.2.16-.4.68-.58a1.77,1.77,0,0,1,.75,0,5.15,5.15,0,0,1,.42.34c.07.07.54,1.23.76,1.62a4.05,4.05,0,0,1,.39,1.14l.58,2.33a1.19,1.19,0,0,1,0,.53,3.78,3.78,0,0,0,0,1.8c0,.1,0,.2.15.29a3.72,3.72,0,0,1,.33,2c-.25.54-.35,1.07-.58,1.61,0,.08,0,.16-.17.23-.42.19-.36.35-.39.51a2.33,2.33,0,0,1-.36.7,2.4,2.4,0,0,1-.47.36A1.21,1.21,0,0,1,40,81c-.16-.09-.4,0-.6,0l-.22,0a8,8,0,0,1-1.5-1.36c-.09,0-.39-1.9-.48-2.11s.05-.23.11-.35S37,75.64,37,75.58c.05-.31-.1-.62.24-1a.18.18,0,0,0,0-.19,5.28,5.28,0,0,1,.28-1.64,5.83,5.83,0,0,0,.08-.83s.06-.1.08-.15a.56.56,0,0,0,.08-.2,14.41,14.41,0,0,0,.17-2c0-.15.33-.89.3-1.06S38.7,68.17,38.63,68.08Z"/><path class="cls-1" d="M64.07,58.16c-.32-.08-.08-.51.53-1.11a3.93,3.93,0,0,1,1-.63,4.51,4.51,0,0,1,.7-.05c.09,0,1.16.66,1.56.84a3.21,3.21,0,0,1,1,.73c.55.57,1.17,1.1,1.76,1.65a1.31,1.31,0,0,1,.3.46,3,3,0,0,0,1.19,1.44c.09.06.14.15.33.11s1.56,1,1.64,1.29c.19.57.46,1.07.7,1.61,0,.08.13.09,0,.28-.19.44,0,.5.09.64a1.9,1.9,0,0,1,.32.67,1.68,1.68,0,0,1-.11.64,2.27,2.27,0,0,1-.62.72c-.23.08-.38.38-.56.6a1.57,1.57,0,0,1-.2.23,5.59,5.59,0,0,1-2.08-.07l-.9-.65c-.45-.32-.91-.66-1-.72s-.13-.22-.17-.36-1.38-1-1.42-1.09c-.19-.28-.53-.43-.49-1,0-.1-.05-.13-.1-.18a6.36,6.36,0,0,1-1-1.46,7.56,7.56,0,0,0-.58-.69s0-.12,0-.18a.65.65,0,0,0-.07-.21A18.17,18.17,0,0,0,64.48,60c-.12-.13-.29-1-.44-1.15S64.2,58.18,64.07,58.16Z"/><path class="cls-1" d="M75.71,33.07c-.27.08-.34-.34-.23-1a2.79,2.79,0,0,1,.36-.83c.17-.13.34-.26.48-.35s1.21-.2,1.6-.35A3.72,3.72,0,0,1,79,30.4c.74,0,1.51-.1,2.27-.07a.87.87,0,0,1,.48.17,2.77,2.77,0,0,0,1.72.4c.1,0,.2,0,.32-.12a3.45,3.45,0,0,1,2.06.07L87.37,32c.07.05.17,0,.19.22,0,.5.23.47.4.56a1.77,1.77,0,0,1,.63.49,1.61,1.61,0,0,1,.15.66,2.3,2.3,0,0,1-.36.92,2.47,2.47,0,0,0-.32.79l-.12.29a7.28,7.28,0,0,1-1.55,1s-.43,0-.9,0-.95,0-1,0-.19-.11-.28-.2-1.5,0-1.56,0c-.28-.12-.61,0-.84-.48-.05-.09-.11-.08-.17-.09a5.29,5.29,0,0,1-1.53-.54,5.74,5.74,0,0,0-.8-.26s-.08-.09-.13-.13A.48.48,0,0,0,79,35a19.84,19.84,0,0,0-1.92-.69c-.15,0-.77-.64-1-.68S75.82,33,75.71,33.07Z"/></g></svg>