<svg xmlns="http://www.w3.org/2000/svg" width="96" height="96" viewBox="0 0 96 96"><defs><style>.cls-1{fill:#231f20;}</style></defs><title>scribble final version</title><g id="Layer_1" data-name="Layer 1"><path class="cls-1" d="M62.4,59.07a33.27,33.27,0,0,1,6.17,2.14c.94.42,1.88.87,2.67,1.16.41.16.85.27,1.28.42s.86.22,1.3.28a11.68,11.68,0,0,0,3.78,0,10.2,10.2,0,0,0,5.86-3,10,10,0,0,0,2-2.81A7.68,7.68,0,0,0,86.2,54a6.73,6.73,0,0,0-2.54-5.25A10.08,10.08,0,0,0,82,47.58a14.31,14.31,0,0,0-1.88-.79,39.76,39.76,0,0,0-4-1.28c-.87-.25-.75-.61.08-1a7,7,0,0,1,4.33-.63l1.22.34,1.2.5a7.13,7.13,0,0,1,1.17.59,9,9,0,0,1,1.13.72,9.7,9.7,0,0,1,3.44,4.32,10.1,10.1,0,0,1,.57,5.53,11.9,11.9,0,0,1-2.14,4.9,16.38,16.38,0,0,1-4.6,4.28,13.29,13.29,0,0,1-6.09,1.86,17,17,0,0,1-6.68-1.06c-2.09-.8-3.79-1.63-5.67-2.2A30.61,30.61,0,0,0,57,62.36a42.87,42.87,0,0,0-11.11.76,60.22,60.22,0,0,0-8.26,2.43c-.6.2-1.17.44-1.77.66-2.24.76-3,.72-3.87-.16a5.32,5.32,0,0,1-.56-.61c-.48-.73.24-1.68,1.87-2.45a52.35,52.35,0,0,1,16-4.49c1.06-.13,2.13-.24,3.22-.27l1.63-.07,1.64,0a32.94,32.94,0,0,1,6.6.78Z"/><path class="cls-1" d="M24.76,63.88A31.54,31.54,0,0,0,32,62.67c2.55-.77,5.24-1.63,8-2.37a51,51,0,0,1,8.7-1.74,30.19,30.19,0,0,1,9.23.45c.56.1,1.11.23,1.65.38s1.12.28,1.6.43l2.93.88,5.56,1.66a26,26,0,0,0,4.58,1,11.79,11.79,0,0,0,4.21-.16,10.27,10.27,0,0,0,3.78-1.66,14.14,14.14,0,0,0,3.2-3,10.21,10.21,0,0,0,1.92-3.71,5.88,5.88,0,0,0-.18-3.7,5.82,5.82,0,0,0-2.63-2.81,11.75,11.75,0,0,0-2-.86,21.22,21.22,0,0,0-2.36-.43c-1.49-.2-3.08-.31-4.72-.55A15.63,15.63,0,0,1,70.36,45a9.6,9.6,0,0,1-1.24-.79A7.42,7.42,0,0,1,68,43.15l-.47-.62c-.14-.23-.27-.49-.39-.74L67,41.41,66.89,41a6.16,6.16,0,0,1-.18-.83,8,8,0,0,1,.37-3c.26-.84.57-1.62.82-2.29a6.23,6.23,0,0,0,.57-2.21,1.78,1.78,0,0,0-.7-1.38,9.15,9.15,0,0,0-.9-.67l-.46-.23-.53-.19A7.38,7.38,0,0,0,64.69,30c-.42-.07-.85-.13-1.29-.16a17.24,17.24,0,0,0-5.44.58,17.84,17.84,0,0,0-5.24,2.15c-1.95,1.36-1.9,1.14-.66-.72a17.26,17.26,0,0,1,3.29-3.41,15.33,15.33,0,0,1,6.39-2.82,14.92,14.92,0,0,1,3.69-.21,10.37,10.37,0,0,1,4.07,1.28,8.21,8.21,0,0,1,3.36,3.54,12.23,12.23,0,0,1,.44,1.42A13.6,13.6,0,0,1,73.41,33c0,.42-.08.84-.13,1.25L73,35.32a21.41,21.41,0,0,1-1.15,3,4.9,4.9,0,0,0-.43,1.44s0,.07,0,.1a.28.28,0,0,1,0,.14,2.4,2.4,0,0,0,.45.45,4.84,4.84,0,0,0,1.64.75,29.1,29.1,0,0,0,5.4.67c1,.08,2.1.14,3.28.32.29,0,.6.09.91.15s.62.11,1,.22a11.84,11.84,0,0,1,1.88.67,12.82,12.82,0,0,1,3.46,2.11,12.42,12.42,0,0,1,1.49,1.58,10.37,10.37,0,0,1,1.15,1.89,10.61,10.61,0,0,1,1,4.22,12.74,12.74,0,0,1-.55,4,16.5,16.5,0,0,1-1.94,4.16,19.85,19.85,0,0,1-1.33,1.83,17.85,17.85,0,0,1-1.54,1.59A18.05,18.05,0,0,1,80,69.16a21,21,0,0,1-8.83.28,46.33,46.33,0,0,1-7.72-2.07L59.5,66a30.77,30.77,0,0,0-3.63-1,25.38,25.38,0,0,0-7.45-.26,46,46,0,0,0-7.71,1.61c-1.3.38-2.6.78-3.92,1.2s-2.59.85-4.06,1.25a33.14,33.14,0,0,1-10.89,1.23,14.41,14.41,0,0,1-5.78-1.56,8.45,8.45,0,0,1-4.19-5.07,12,12,0,0,1-.35-4.64A9.78,9.78,0,0,1,12,56.46a19.61,19.61,0,0,1,.85-2c.28-.6.57-1.17.8-1.7.13-.27.21-.51.31-.76a2.35,2.35,0,0,1,.09-.28l.06-.25a2,2,0,0,0-.57-2,5.72,5.72,0,0,0-1.11-.8c-.47-.27-1-.53-1.56-.79a19.75,19.75,0,0,1-3.76-2A7,7,0,0,1,5.34,44a10.44,10.44,0,0,1-.59-1.15,9,9,0,0,1-.37-1.25,7.29,7.29,0,0,1,.82-5,9.93,9.93,0,0,1,2.32-2.79A13.11,13.11,0,0,1,10.37,32,20.88,20.88,0,0,1,16.62,30a32.42,32.42,0,0,1,12.58.78,40.21,40.21,0,0,1,5.24,1.63,22.8,22.8,0,0,1,3.86,1.89A15.65,15.65,0,0,1,40.67,36,6.61,6.61,0,0,1,42,37.51,6,6,0,0,1,42.55,39a8.74,8.74,0,0,1,.31,1.22c0,.54-.64.61-1.91.46a26.19,26.19,0,0,1-5.09-1.56c-1.58-.57-3.15-1.15-4.73-1.66a45.5,45.5,0,0,0-4.8-1.2A26.42,26.42,0,0,0,16.89,36a13.05,13.05,0,0,0-4,1.36,7.05,7.05,0,0,0-1.48,1,3.83,3.83,0,0,0-.88,1.08,1.61,1.61,0,0,0-.21.73.9.9,0,0,0,.18.46c0,.07,0,.06,0,.07s0,0,.05,0l.13.1.23.15a14.81,14.81,0,0,0,1.87.89c.61.26,1.33.56,2.13,1a11,11,0,0,1,2.61,1.72,10,10,0,0,1,2.37,3.32,8.23,8.23,0,0,1,.38,4c-.07.34-.1.69-.2,1l-.3,1c-.18.44-.35.9-.51,1.27-.34.79-.66,1.43-.91,2a8.54,8.54,0,0,0-.55,1.37,2,2,0,0,0-.09.39l-.08.73a4.61,4.61,0,0,0,.27,2.13,2.11,2.11,0,0,0,1,1.05,11.86,11.86,0,0,0,5.8.84Z"/></g></svg>