<svg xmlns="http://www.w3.org/2000/svg" width="96" height="96" viewBox="0 0 96 96"><defs><style>.cls-1{fill:#231f20;}</style></defs><title>scribble final version</title><g id="Layer_1" data-name="Layer 1"><path class="cls-1" d="M55.86,25.39c-.3,1.83-4.11,3.45-4.12,0C51.74,22.74,56.24,23.06,55.86,25.39Z"/><path class="cls-1" d="M52,35.52c-.26,1.6-3.61,3-3.61,0C48.37,33.19,52.32,33.48,52,35.52Z"/><path class="cls-1" d="M74.1,33.38c-.27,1.67-3.77,3.15-3.77,0C70.33,31,74.45,31.24,74.1,33.38Z"/><path class="cls-1" d="M69.08,19.72c-.25,1.51-3.41,2.85-3.41,0C65.67,17.52,69.39,17.79,69.08,19.72Z"/><path class="cls-1" d="M62.6,43.12c-.27,1.66-3.73,3.13-3.73,0C58.87,40.72,63,41,62.6,43.12Z"/><path class="cls-1" d="M81.21,24.66c-.26,1.57-3.54,3-3.54,0C77.67,22.37,81.54,22.65,81.21,24.66Z"/><path class="cls-1" d="M79.55,48.11c-.3,1.8-4.06,3.4-4.06,0C75.49,45.5,79.92,45.82,79.55,48.11Z"/><path class="cls-1" d="M66.6,33.94c-.36,2.2-5,4.15-5,0C61.64,30.75,67.05,31.14,66.6,33.94Z"/><path class="cls-1" d="M51.75,49.93c-.26,1.58-3.56,3-3.56,0C48.18,47.63,52.08,47.91,51.75,49.93Z"/><path class="cls-1" d="M39.16,32.17c-.25,1.52-3.43,2.87-3.43,0C35.73,30,39.48,30.22,39.16,32.17Z"/><path class="cls-1" d="M54.07,12.38c-.32,1.94-4.37,3.66-4.37,0C49.7,9.57,54.47,9.91,54.07,12.38Z"/><path class="cls-1" d="M42.81,45.08c-.31,1.92-4.31,3.61-4.31,0C38.49,42.3,43.21,42.64,42.81,45.08Z"/><path class="cls-1" d="M44.63,31.33c-.84,1.34-4.39,1.33-3.23-1.38C42.28,27.87,45.71,29.63,44.63,31.33Z"/><path class="cls-1" d="M38.46,40.48c-.77,1.21-4,1.2-2.92-1.25C36.34,37.36,39.43,39,38.46,40.48Z"/><path class="cls-1" d="M58.59,46c-.93,1.45-4.79,1.45-3.53-1.52C56,42.17,59.77,44.1,58.59,46Z"/><path class="cls-1" d="M60.13,31.73c-1.25,2-6.52,2-4.8-2.06C56.65,26.59,61.74,29.2,60.13,31.73Z"/><path class="cls-1" d="M44,50.33c-.81,1.28-4.21,1.28-3.1-1.33C41.73,47,45,48.7,44,50.33Z"/><path class="cls-1" d="M68.63,40.76c-.91,1.44-4.74,1.43-3.49-1.5C66.1,37,69.8,38.92,68.63,40.76Z"/><path class="cls-1" d="M58,61.72c-1.08,1.71-5.63,1.7-4.14-1.78C55,57.27,59.38,59.53,58,61.72Z"/><path class="cls-1" d="M51.19,43.42c-1.07,1.69-5.53,1.68-4.08-1.74C48.23,39.06,52.55,41.28,51.19,43.42Z"/><path class="cls-1" d="M31.61,52.44c-.91,1.44-4.74,1.44-3.49-1.5C29.07,48.7,32.78,50.6,31.61,52.44Z"/><path class="cls-1" d="M27.1,31.2c-.94,1.47-4.84,1.47-3.57-1.53C24.51,27.38,28.29,29.33,27.1,31.2Z"/><path class="cls-1" d="M48.11,18.68c-.92,1.46-4.78,1.45-3.52-1.51C45.55,14.9,49.29,16.82,48.11,18.68Z"/><path class="cls-1" d="M25.26,45.8c-1,1.63-5.34,1.62-3.93-1.69C22.4,41.58,26.58,43.73,25.26,45.8Z"/><path class="cls-1" d="M60.61,39.9c-1,1.69-5.48,1.77-4.09-1.66C57.58,35.61,61.92,37.74,60.61,39.9Z"/><path class="cls-1" d="M54.2,49c-.74,1.23-4,1.28-3-1.21C52,45.91,55.16,47.45,54.2,49Z"/><path class="cls-1" d="M74.22,54c-.79,1.3-4.22,1.37-3.15-1.28C71.89,50.71,75.23,52.35,74.22,54Z"/><path class="cls-1" d="M74.9,39.56c-.82,1.35-4.38,1.42-3.27-1.34C72.48,36.12,76,37.82,74.9,39.56Z"/><path class="cls-1" d="M60.11,58.83c-.88,1.46-4.71,1.52-3.52-1.43C57.5,55.13,61.24,57,60.11,58.83Z"/><path class="cls-1" d="M84.18,48.63C83.39,49.93,80,50,81,47.35,81.85,45.34,85.18,47,84.18,48.63Z"/><path class="cls-1" d="M74,69.79c-1,1.57-5.09,1.65-3.8-1.54C71.13,65.81,75.16,67.79,74,69.79Z"/><path class="cls-1" d="M66.69,51.6c-.89,1.47-4.74,1.54-3.54-1.44C64.07,47.89,67.83,49.73,66.69,51.6Z"/><path class="cls-1" d="M47.51,61.08c-.85,1.4-4.53,1.46-3.38-1.38C45,57.53,48.6,59.29,47.51,61.08Z"/><path class="cls-1" d="M42.36,39.85c-.76,1.26-4,1.31-3-1.22C40.12,36.69,43.33,38.26,42.36,39.85Z"/><path class="cls-1" d="M63.45,27c-.91,1.49-4.83,1.56-3.61-1.47C60.77,23.26,64.6,25.13,63.45,27Z"/><path class="cls-1" d="M41.23,54.64c-1.06,1.75-5.65,1.83-4.22-1.72C38.1,50.21,42.59,52.41,41.23,54.64Z"/><path class="cls-1" d="M58,71.74c.08-1.66,3.31-3.51,3.68-.43C62,73.67,58,73.86,58,71.74Z"/><path class="cls-1" d="M58.9,60.72c.06-1.45,2.89-3.06,3.21-.37C62.35,62.41,58.82,62.57,58.9,60.72Z"/><path class="cls-1" d="M38.7,66c.08-1.76,3.52-3.73,3.91-.46C42.91,68.06,38.6,68.26,38.7,66Z"/><path class="cls-1" d="M45.31,79c.07-1.6,3.18-3.38,3.54-.41C49.12,80.84,45.22,81,45.31,79Z"/><path class="cls-1" d="M49.06,55c.07-1.67,3.32-3.53,3.69-.43C53,56.9,49,57.09,49.06,55Z"/><path class="cls-1" d="M32.6,75.52c.07-1.73,3.45-3.66,3.83-.45C36.72,77.53,32.5,77.73,32.6,75.52Z"/><path class="cls-1" d="M31.57,52c.08-1.88,3.74-4,4.16-.49C36.05,54.2,31.47,54.41,31.57,52Z"/><path class="cls-1" d="M46.62,64.48c.08-1.81,3.61-3.83,4-.47C50.93,66.58,46.52,66.79,46.62,64.48Z"/><path class="cls-1" d="M58.88,47c.08-1.73,3.44-3.66,3.83-.45C63,49,58.79,49.15,58.88,47Z"/><path class="cls-1" d="M73.65,63.07c.07-1.51,3-3.2,3.35-.39C77.26,64.82,73.57,65,73.65,63.07Z"/><path class="cls-1" d="M61.79,84.38c.06-1.38,2.75-2.92,3.06-.36C65.08,86,61.71,86.14,61.79,84.38Z"/><path class="cls-1" d="M68.11,49.48c0-1.72,3.08-3.6,3.46-.4C71.86,51.52,68.05,51.67,68.11,49.48Z"/><path class="cls-1" d="M38.26,62.29c.08-1.77,3.53-3.75,3.92-.46C42.48,64.34,38.16,64.55,38.26,62.29Z"/><path class="cls-1" d="M39.32,51.24c.06-1.38,2.74-2.91,3-.36C42.6,52.83,39.24,53,39.32,51.24Z"/><path class="cls-1" d="M19.07,56.53c.07-1.74,3.46-3.68,3.85-.45C23.21,58.55,19,58.75,19.07,56.53Z"/><path class="cls-1" d="M25.51,69.53c.07-1.73,3.44-3.65,3.82-.45C29.62,71.53,25.41,71.73,25.51,69.53Z"/><path class="cls-1" d="M29.35,45.5c.08-1.71,3.4-3.61,3.78-.45C33.42,47.48,29.26,47.67,29.35,45.5Z"/><path class="cls-1" d="M13.12,66c.07-1.56,3.11-3.31,3.46-.4C16.85,67.83,13,68,13.12,66Z"/><path class="cls-1" d="M11.64,42.59c.09-2.13,4.23-4.5,4.71-.55C16.71,45.06,11.52,45.3,11.64,42.59Z"/><path class="cls-1" d="M26.63,57.35c.07-1.59,3.16-3.36,3.51-.41C30.41,59.19,26.54,59.37,26.63,57.35Z"/><path class="cls-1" d="M39.26,37.47c.07-1.7,3.38-3.59,3.75-.44C43.3,39.44,39.16,39.63,39.26,37.47Z"/><path class="cls-1" d="M54.27,53.55c0-1.26,2.51-2.67,2.79-.32C57.27,55,54.19,55.16,54.27,53.55Z"/><path class="cls-1" d="M41.88,74.94c.07-1.6,3.2-3.39,3.56-.41C45.71,76.81,41.79,77,41.88,74.94Z"/><path class="cls-1" d="M48.37,40c.07-1.63,3.26-3.45,3.62-.42C52.27,41.91,48.28,42.1,48.37,40Z"/></g></svg>