<svg xmlns="http://www.w3.org/2000/svg" width="96" height="96" viewBox="0 0 96 96"><defs><style>.cls-1{fill:#231f20;}</style></defs><title>scribble final version</title><g id="Layer_1" data-name="Layer 1"><path class="cls-1" d="M47.81,44.6c-2.77,3.12-5.44,6.38-8,9.75-1,1.21-1.75,2.54-2.72,3.75-3.38,4.3-6.68,8.71-9.75,13.27-1.41,2-2.67,4.11-3.91,6.19-.8,1.33-1.52,2.72-2.4,4s-1.88,2.53-2.91,3.74c-.66.75-.95.42-1-.58a12.84,12.84,0,0,1,.43-4.5c.13-.38.24-.78.39-1.15L18.4,78l1-2.18c.68-1.45,1.37-2.89,2.1-4.32a60,60,0,0,1,5-8.24c2.26-3.15,4-6.78,6.2-10.12,1.17-1.85,2.44-3.63,3.76-5.38s2.65-3.49,4-5.2Q43,39.4,45.69,36.34c2.69-3.1,5.61-6,8.52-8.92a82.27,82.27,0,0,1,7.06-6.61,8.49,8.49,0,0,1,1.79-1.23c2.51-1.15,3.61-.93,4.69.15a6.21,6.21,0,0,1,.71.75c.63.89.09,2.18-1.08,3.54-.43.53-.85,1-1.26,1.56A14,14,0,0,1,64.77,27c-.91.94-1.83,1.84-2.74,2.81s-1.78,2-2.78,2.87l-1.45,1.4-1.45,1.46c-2.86,2.89-5.72,5.94-8.39,9.18Z"/><path class="cls-1" d="M75,21.49a14.71,14.71,0,0,0-1-6.17,3.51,3.51,0,0,0-1.31-1.54c-.16,0-.27-.14-.47-.21l-.73-.18a11.76,11.76,0,0,0-1.62-.2,26.25,26.25,0,0,0-5.21.46,58.5,58.5,0,0,0-9.56,2.42,95.89,95.89,0,0,0-9.36,3.72c-2.71,1.27-5.39,2.65-8,4.08-1.67.93-3.32,1.9-5,2.89s-3.29,2-4.81,3.07c-.91.69-1,.44-.5-.53a16.33,16.33,0,0,1,3.51-4,98.24,98.24,0,0,1,9.77-6.95A81.11,81.11,0,0,1,51.67,13.2c2.26-.86,4.55-1.78,6.92-2.61a42.7,42.7,0,0,1,7.38-2,26.08,26.08,0,0,1,4.38-.35,12.12,12.12,0,0,1,4.85,1c.41.24.83.46,1.2.73s.7.6,1,.91.56.68.83,1a11,11,0,0,1,.66,1.07,15.42,15.42,0,0,1,1.54,4.38,37,37,0,0,1,.36,10.41,107.87,107.87,0,0,1-2.62,15,104.81,104.81,0,0,1-2.92,11.37c-.28.83-.53,1.66-.9,2.49a7.82,7.82,0,0,1-2,3,2.53,2.53,0,0,1-2.3.4,5.92,5.92,0,0,1-1.15-.35,1.92,1.92,0,0,1-1-1.53,5.8,5.8,0,0,1,.31-2.47c.91-3,1.7-6.21,2.48-9.47s1.72-6.57,2.4-9.91a64,64,0,0,0,1.76-14.77Z"/></g></svg>