<svg xmlns="http://www.w3.org/2000/svg" width="96" height="96" viewBox="0 0 96 96"><defs><style>.cls-1{fill:#231f20;}</style></defs><title>scribble final version</title><g id="Layer_1" data-name="Layer 1"><path class="cls-1" d="M46.76,45.64c-1.54,1.41-3,2.88-4.54,4.33s-2.93,3-4.34,4.54C36.86,55.65,36,56.9,35,58c-1.78,2-3.52,4.09-5.27,6.16s-3.49,4.18-5.07,6.39c-.71,1-1.4,2-2.06,3l-1.88,3.08c-.8,1.31-1.6,2.63-2.36,4-.39.67-.79,1.33-1.21,2l-.64,1c-.23.32-.53.59-.79.89-.71.72-.93.47-1.11-.54a7.37,7.37,0,0,1-.18-2,8,8,0,0,1,.54-2.48c.3-.75.6-1.5.92-2.24l1-2.19a48.22,48.22,0,0,1,2.21-4.29,68.5,68.5,0,0,1,5.41-8c.6-.76,1.17-1.55,1.73-2.37S27.4,58.72,28,57.91c1.15-1.61,2.29-3.26,3.56-4.78l2.07-2.53c.71-.83,1.44-1.63,2.16-2.45s1.44-1.63,2.18-2.43l2.25-2.37,1.39-1.45L43,40.49c1-.93,1.89-1.9,2.87-2.81,1.5-1.37,3-2.78,4.51-4.09l2.28-2c.77-.65,1.54-1.31,2.29-2,2.33-2.09,4.49-4.33,6.9-6.41.54-.45,1-.93,1.61-1.36a5.27,5.27,0,0,1,2.61-1.11,2.55,2.55,0,0,1,1.91.87,11.57,11.57,0,0,1,.87.84c.83,1,.46,2.49-.74,3.77-3.66,3.8-7.89,7.32-12,11.06l-2.32,2.08-2.3,2.13c-1.54,1.41-3.07,2.85-4.59,4.3Z"/><path class="cls-1" d="M61.54,29.08s-5.87,19.66,6.75,22c12.38,2.26,8.2-31,13.09-39.13.13-.22-33.57-3.84-41.12,10.26-1.45,2.72-2.33,6.27.18,8.67S46.4,34,49.55,34C55.38,34.11,61.35,29.72,61.54,29.08Z"/></g></svg>