<svg xmlns="http://www.w3.org/2000/svg" width="96" height="96" viewBox="0 0 96 96"><defs><style>.cls-1{fill:#231f20;}</style></defs><title>scribble final version</title><g id="Layer_1" data-name="Layer 1"><path class="cls-1" d="M52,38.94c-5-.57-4.38-6.71-.92-6.49,0,0-3.63-3.38-5.58-.38a5.58,5.58,0,0,0,1,7.37C48.71,41.57,52,38.94,52,38.94Z"/><path class="cls-1" d="M37.13,49.78c4.56-1,2.7-6.41-.08-5.78,0,0-1.23-.55.5-.89s4.05-.93,4.66,1.65.43,4.7-1,5.42S37.13,49.78,37.13,49.78Z"/><path class="cls-1" d="M34.45,55.78s-3.58-2.66-4.69,2.12c0,0-2.46-2.43-.65-4.33a3.43,3.43,0,0,1,4.74-.52C34.55,53.76,34.45,55.78,34.45,55.78Z"/><path class="cls-1" d="M24.85,62.79c1.48,0,3.44,1.76.56,3.93-1.59,1.2,3.94,1.61,4.1-1.3s-1.31-3.15-2.17-3.57S24.18,62.79,24.85,62.79Z"/><path class="cls-1" d="M24.65,72.77c-.78-.25-3.8.37-2.21,2.61,1.26,1.78-3.61-1.37-1.83-3.14C23.68,69.19,25.58,73.06,24.65,72.77Z"/><path class="cls-1" d="M19.46,81.42s1.46-.67,2.17.2C22,82,21.72,80.26,21,80S19.46,81.42,19.46,81.42Z"/><path class="cls-1" d="M66.22,48.06c.39-1.22,1.36-22.16-4.95-25.23-5.2-2.52-14-2.44-11.43-3.8,2.76-1.44,23.1-5.13,25.83,2.74,0,0,.64-7.2-6.22-8.54S47.78,15.6,44,16.94s-7.57,2.51-5,3.92,15.41,1.49,19.81,4C64.81,28.36,66.22,48.06,66.22,48.06Z"/><path class="cls-1" d="M42.21,41.81a5.34,5.34,0,0,1,2,2.16,5.94,5.94,0,0,1,.6,2.63,6.23,6.23,0,0,1-.19,1.88A5.73,5.73,0,0,1,43.83,50a6.28,6.28,0,0,1-1.21,1.1,6.4,6.4,0,0,1-2.8,1,4.77,4.77,0,0,1-2.57-.4,3.39,3.39,0,0,1-2-2.28c-.07-.31.28-.41.73-.42a5,5,0,0,1,1.39.1,1.93,1.93,0,0,0,1.43.05c.18-.07.37-.07.59-.13a6.68,6.68,0,0,0,.76-.25,1.11,1.11,0,0,0,.61-.63,5.64,5.64,0,0,0,.35-.87,2.31,2.31,0,0,0-.28-2,2,2,0,0,0-1.18-.71,2.8,2.8,0,0,0-2.35.57,3.38,3.38,0,0,0-1,1.76c-.05.13,0,.28-.08.41-.16.48-.41.55-1.29.51-.2,0-.4,0-.6,0a1.18,1.18,0,0,1-1.19-1.18,5.86,5.86,0,0,1,3.61-5.11,6.25,6.25,0,0,1,2.74-.54,6,6,0,0,1,2.79.8Z"/><path class="cls-1" d="M30.22,50.92a5.94,5.94,0,0,1,2.24-.12l.53.08.55.15.55.18.52.27a4.88,4.88,0,0,1,1.4,1,4.22,4.22,0,0,1,1.05,2.62,4.77,4.77,0,0,1-.51,2.62c-.13.39-.52.64-.78,1-.15.14-.31.29-.47.42a2.85,2.85,0,0,1-.56.26,2.71,2.71,0,0,1-2.6-.41c-.21-.16,0-.47.27-.8a5.41,5.41,0,0,1,1-.86.61.61,0,0,0,.39-.33c0-.07,0-.11,0-.13l-.07-.09c-.08-.06.1-.24.18-.62a.72.72,0,0,0-.18-.63c-.08-.08-.11-.2-.19-.26a1.16,1.16,0,0,0-.2-.24.85.85,0,0,0-.25-.25,1.6,1.6,0,0,0-.34-.2,2.64,2.64,0,0,0-.94-.21,2.07,2.07,0,0,0-1.11.25,1.4,1.4,0,0,0-.77,1.37,1.47,1.47,0,0,0,.88.93c.1,0,.22.06.3.11.31.2.31.46,0,1.29l-.21.56a1.23,1.23,0,0,1-1.35.88,3.8,3.8,0,0,1-2.36-1.75,4.53,4.53,0,0,1-.49-3.53,5.2,5.2,0,0,1,3.59-3.57Z"/><path class="cls-1" d="M29.88,61.66a4.43,4.43,0,0,1,.84,3.93,4.28,4.28,0,0,1-.42,1.28,4.19,4.19,0,0,1-.75.92,5.34,5.34,0,0,1-1,.6,4.94,4.94,0,0,1-2.09.44c-.29,0-.58,0-.86-.08l-.8-.19a7.5,7.5,0,0,1-.93-.37,3.44,3.44,0,0,1-.73-.65c-.12-.17.08-.43.39-.69a2.33,2.33,0,0,1,1-.57c.26,0,.49-.07.7-.08s.38-.11.53-.18a2.75,2.75,0,0,1,.81-.07.92.92,0,0,0,.23-.09,1.66,1.66,0,0,0,.16-.21,1.37,1.37,0,0,1,.15-.21,1.35,1.35,0,0,1,.14-.22,1.39,1.39,0,0,0,.25-1.08,1,1,0,0,0-.43-.63,1.27,1.27,0,0,0-1.31-.13,2.39,2.39,0,0,0-.87,1,2.1,2.1,0,0,1-.13.26c-.2.27-.43.2-1.14-.2l-.48-.26a1.21,1.21,0,0,1-.72-1.27,4.14,4.14,0,0,1,3.47-2.82,4.36,4.36,0,0,1,2.21.26,4.67,4.67,0,0,1,1.8,1.26Z"/><path class="cls-1" d="M19.07,72.24A4.21,4.21,0,0,1,21,70a3.49,3.49,0,0,1,1-.47A2.91,2.91,0,0,1,25.27,71a6.1,6.1,0,0,1,.71,1.5c0,.4.09.88.06,1.26a5.11,5.11,0,0,1-.38.92c-.1.19-.39.1-.73,0s-.72-.28-.8-.44,0-.09,0-.09h0a.19.19,0,0,0,0-.06,1.11,1.11,0,0,0,0-.61c-.13-.44-.36-.29-.56-.3a1.11,1.11,0,0,0-.83.27.82.82,0,0,0-.3.51.8.8,0,0,0,.4.85,1.27,1.27,0,0,0,.9,0,1.16,1.16,0,0,0,.15-.06c.12,0,.18.18.2.93l0,.51c0,.55-.17,1.07-.69,1.18A4.08,4.08,0,0,1,21,76.94a3.89,3.89,0,0,1-1.71-1.59A4,4,0,0,1,19,72.21Z"/><path class="cls-1" d="M19.5,78.45a3,3,0,0,1,1.73-.21,3,3,0,0,1,1.43.69,2.89,2.89,0,0,1,.73.79,2.28,2.28,0,0,1,.13,1.91,2.54,2.54,0,0,1-1,1.27,2.36,2.36,0,0,1-.51.28,2.57,2.57,0,0,1-.47.19,1.67,1.67,0,0,1-1.2.11c-.13,0-.17-.33-.17-.68a2.33,2.33,0,0,1,.15-.94,1.92,1.92,0,0,0,.35-.69c.05-.08,0-.07.08-.07a.84.84,0,0,0,.29.18h0c-.05,0-.18.1-.13.06a.44.44,0,0,0,.07-.27c0-.06-.14-.09-.26,0a.79.79,0,0,0-.39.64c0,.22.28.34.31.3l-.11.08s0,0,0,0,0,0,0,0l-.07.14-.15.42-.14.46c-.13.52-.47.94-1,.81a2.25,2.25,0,0,1-1.47-1.55,3.13,3.13,0,0,1,0-1.82,3.58,3.58,0,0,1,1.84-2.2Z"/><path class="cls-1" d="M79.87,22.65A50.27,50.27,0,0,1,78,32.5a47.49,47.49,0,0,1-3.84,9.3,36.29,36.29,0,0,1-2,3.19l-.61.9A8.09,8.09,0,0,1,70.65,47l-2,2-.43.44c-.15.14-.29.33-.42.35l-.82.36-1.62.72c-.13.05-.27.15-.4.13a1.65,1.65,0,0,1-.46-.12,2.59,2.59,0,0,1-.65-.47,4.63,4.63,0,0,1-1-1.38,16,16,0,0,1-1-4.68l-.14-1.26-.08-.84-.15-1.51c-.19-2-.42-4-.73-5.91a25.51,25.51,0,0,0-1.39-5.49,4.31,4.31,0,0,0-1.06-1.61,7.76,7.76,0,0,0-2-.75c-1.65-.44-3.41-.77-5.14-1.1-2.24-.42-4.51-.8-6.77-1.3a27,27,0,0,1-6.8-2.26c-.74-.45-.91-.89-.68-1.15a3,3,0,0,1,1.46-.61,14.59,14.59,0,0,1,6.11-.25l6.83,1.19c1.16.23,2.31.45,3.49.71s2.36.54,3.66,1c.36.13.65.21,1.06.39a6.91,6.91,0,0,1,1.34.76,7.21,7.21,0,0,1,1.8,2.14,16.55,16.55,0,0,1,1.52,3.9,49.21,49.21,0,0,1,1.2,7.29c.14,1.42.3,2.85.47,4.27a4.48,4.48,0,0,1,.07.59l0,.34c0,.23.06.46.11.69a1.66,1.66,0,0,0,.22.66c.09.13.2,0,.28-.1l.25-.23a3.24,3.24,0,0,0,.48-.5,5.75,5.75,0,0,0,.47-.56l.55-.81a9.54,9.54,0,0,0,.6-.91l1.08-1.93A43.22,43.22,0,0,0,71.82,35a50.17,50.17,0,0,0,2.26-8.79,43,43,0,0,0,.58-5c0-.82.07-1.68,0-2.46a9.59,9.59,0,0,0-.09-1.14,2,2,0,0,0-.16-.68,1.56,1.56,0,0,0-.35-.46,4,4,0,0,0-1.27-.75A9.68,9.68,0,0,0,71,15.19a23.76,23.76,0,0,0-4.11-.41,49.2,49.2,0,0,0-8.54.64,82.45,82.45,0,0,0-12.79,3.43c-.91.31-1.78.68-2.67,1s-1.5.55-2.06.73a8,8,0,0,1-1.41.26,2.52,2.52,0,0,1-.94-.07,1.61,1.61,0,0,1-.36-.15.46.46,0,0,1-.18-.11l-.13-.07-.15-.06a.41.41,0,0,0-.18-.05.24.24,0,0,0-.14.05.75.75,0,0,0-.17.41c-.06.25-.16.46-.55.39a.54.54,0,0,1-.33-.19,1.08,1.08,0,0,1-.33-.55,1.87,1.87,0,0,1,0-.78,3.14,3.14,0,0,1,.19-.59,5.75,5.75,0,0,1,1.15-1.63,9.39,9.39,0,0,1,1.65-1.33C46.58,12,55,10,64.12,9.41a36.21,36.21,0,0,1,7,.29A17.16,17.16,0,0,1,75,10.76a11.48,11.48,0,0,1,1.06.52A8,8,0,0,1,77.2,12a7.48,7.48,0,0,1,2,2.32l.54,1.48a4.7,4.7,0,0,1,.14.73l.09.59c.09.73.09,1.3.13,2l0,1.8L80,22.65Z"/><path class="cls-1" d="M44.24,39.3a8.29,8.29,0,0,1-1.15-2.83,6.17,6.17,0,0,1-.17-1.61,7.87,7.87,0,0,1,.26-1.72l.45-1.21a7,7,0,0,1,.69-1.07,6.69,6.69,0,0,1,3.53-2,8.11,8.11,0,0,1,3.67,0l.78.19c.26.08.5.19.76.27a9.56,9.56,0,0,1,1.46.67,4.57,4.57,0,0,1,2.26,3.22c.06.43-.68.65-1.54.78a6.87,6.87,0,0,1-2.19.1c-.17-.07-.28-.2-.46-.22a1.47,1.47,0,0,1-.42-.17c-.25-.12-.46-.3-.74-.41a6.47,6.47,0,0,0-1.89-.6,1.76,1.76,0,0,0-1.22.31l-.25.18a1.19,1.19,0,0,1-.19.2c-.17.1-.23.26-.37.38a3.23,3.23,0,0,0-.32.47c0,.2-.18.37-.16.61a1.48,1.48,0,0,1-.05.35,2.17,2.17,0,0,0,0,.43,3.55,3.55,0,0,0,.12.89l.13.52.21.44a1.33,1.33,0,0,0,.26.39,1.12,1.12,0,0,0,.33.32l.28.21.35.1a2.68,2.68,0,0,0,.76.11,3.61,3.61,0,0,0,1.6-.45,4,4,0,0,0,1.65-2l.16-.49c.12-.57.63-.5,1.55-.48H55a1.17,1.17,0,0,1,.85.41,1.58,1.58,0,0,1,.42,1.17,5.94,5.94,0,0,1-2,3.41A7.56,7.56,0,0,1,50.53,42,6.37,6.37,0,0,1,47,41.59a6.19,6.19,0,0,1-2.86-2.24Z"/></g></svg>