<svg xmlns="http://www.w3.org/2000/svg" width="96" height="96" viewBox="0 0 96 96"><defs><style>.cls-1{fill:#231f20;}</style></defs><title>scribble final version</title><g id="Layer_1" data-name="Layer 1"><path class="cls-1" d="M30.66,59.58c-.46-2.37-1.05-4.72-1.72-7.06-.27-.85-.69-1.64-.94-2.5-.5-1.49-.86-3-1.35-4.56s-1-3-1.52-4.54a31.14,31.14,0,0,0-1.85-3.81l-.68-1.17c-.21-.4-.4-.81-.59-1.23a12.36,12.36,0,0,1-.85-2.62c-.11-.59.64-.92,1.66-.94a4.35,4.35,0,0,1,3.11,1.07c.32.37.62.73.92,1.11a11.6,11.6,0,0,1,.75,1.21c.47.81.92,1.65,1.33,2.5A33.7,33.7,0,0,1,31,42.37c.62,2.22,1.9,4.26,2.63,6.5.86,2.43,1.54,4.94,2.18,7.44.37,1.55.74,3.1,1.05,4.65.53,2.35.83,4.75,1.34,7.07.34,1.82,1.1,3.55,1.37,5.38a8.06,8.06,0,0,1,.23,1.19,4.22,4.22,0,0,1,0,1,1.64,1.64,0,0,1-.31.68,2.57,2.57,0,0,1-1.34.8,8.12,8.12,0,0,1-.84.27A2.5,2.5,0,0,1,34.8,76c-.36-.75-.69-1.51-1-2.26-.16-.38-.32-.76-.46-1.14s-.21-.77-.33-1.16c-.2-.78-.36-1.56-.51-2.35s-.33-1.57-.47-2.37c-.49-2.34-.88-4.73-1.49-7.07Z"/><path class="cls-1" d="M60.8,57c.69-2.45,1.53-4.87,2.35-7.28.33-.87.49-1.79.83-2.65a47.71,47.71,0,0,1,2.14-4.44c.74-1.46,1.56-2.88,2.31-4.31.73-1.24,1.26-2.58,1.88-3.85a13,13,0,0,1,3-4.61c.43-.41,1.1.06,1.67.91a4.37,4.37,0,0,1,.86,3.11,26,26,0,0,1-2,4.95c-.77,1.6-1.56,3.18-2.48,4.73-1.09,1.88-1.51,4.09-2.25,6.15-.82,2.26-1.54,4.57-2.23,6.9-.38,1.45-.79,2.89-1.1,4.37a59.12,59.12,0,0,0-1.22,6.74c-.18,1.76.1,3.55,0,5.3,0,.38,0,.77,0,1.16a4.22,4.22,0,0,1-.2.89,1.62,1.62,0,0,1-.44.58,2.72,2.72,0,0,1-1.47.51c-.3,0-.59.1-.88.11a2.42,2.42,0,0,1-2.19-1.78c-.21-.82-.39-1.65-.52-2.48q-.1-.63-.18-1.26a8.7,8.7,0,0,1,0-1.25,41.34,41.34,0,0,1,.49-5c.38-2.5.94-5,1.54-7.5Z"/><path class="cls-1" d="M72.68,16.42A20.81,20.81,0,0,1,77,15.61c.4,0,.8,0,1.23,0a11.62,11.62,0,0,1,1.37.09,9.13,9.13,0,0,1,3,1A6.09,6.09,0,0,1,85.4,20.2a9.11,9.11,0,0,1,.37,1.56c.06.45.11.88.16,1.32.07.87.11,1.71.12,2.55,0,1.66,0,3.28-.11,4.88-.06,1.42,0,2.84-.06,4.24,0,.9,0,1.8-.06,2.71a10,10,0,0,1-.69,2.68c-.23.55-.89.35-1.58-.2a4.47,4.47,0,0,1-1.68-2.4c-.22-3.43-.5-6.87-.5-10.28a10.74,10.74,0,0,0-.46-3,11.67,11.67,0,0,0-.49-1.34c-.1-.26-.1-.3-.14-.39s0-.17-.09-.26a1,1,0,0,0-.39-.5,1.41,1.41,0,0,0-.65-.25,8.52,8.52,0,0,0-2.81.35A27.7,27.7,0,0,0,72.4,23.2a31.13,31.13,0,0,0-5.77,3.09,37.73,37.73,0,0,0-3.73,3.39c-.26.25-.48.54-.75.78-1,.86-1.54.83-2.75,0-.28-.18-.57-.35-.83-.55a2.11,2.11,0,0,1-.5-2.84,19.7,19.7,0,0,1,7.3-7.34,40.13,40.13,0,0,1,7.25-3.47Z"/><path class="cls-1" d="M22.23,23.13a10.37,10.37,0,0,0-2.21-.9,4.69,4.69,0,0,0-.65-.12c-.14,0-.23-.06-.35,0s-.08.08-.14.11-.15.28-.23.41a10.85,10.85,0,0,1-.54,1,37.73,37.73,0,0,0-3.77,8.31,23.59,23.59,0,0,0-.88,4c-.12.87-.18,1.74-.27,2.6a23.44,23.44,0,0,1-.52,2.52c-.14.52-.82.54-1.6.08a3.84,3.84,0,0,1-1.83-2.57,29.39,29.39,0,0,1,1.82-11.34c.88-2.15,1.18-4.54,2.31-6.91l.56-1a6.8,6.8,0,0,1,1-1.21,6.23,6.23,0,0,1,2.64-1.59,9.14,9.14,0,0,1,5,.07,18.39,18.39,0,0,1,4.74,2.18,46.33,46.33,0,0,1,5.86,4.53,44.74,44.74,0,0,1,4.26,3.79,8.67,8.67,0,0,1,.86.95c.92,1.3.82,2-.25,3a7.5,7.5,0,0,1-.73.66,2.37,2.37,0,0,1-2.81,0l-3.7-2.55c-1.25-.79-2.27-1.81-3.44-2.67a23.73,23.73,0,0,0-5.17-3.24Z"/></g></svg>