<svg xmlns="http://www.w3.org/2000/svg" width="96" height="96" viewBox="0 0 96 96"><defs><style>.cls-1{fill:#231f20;}</style></defs><title>scribble final version</title><g id="Layer_1" data-name="Layer 1"><path class="cls-1" d="M47.43,50.15a9.85,9.85,0,0,1-1.11-1.57,8,8,0,0,1-.82-1.75,10.94,10.94,0,0,1-.59-3.57,10.74,10.74,0,0,1,0-2.34,18.93,18.93,0,0,1,3-6.49c.56-.82,1-1.69,1.46-2.55a4.55,4.55,0,0,1,2.7-2.68c.45-.12,1.32.94,2.12,2.13s1.63,2.5,1.48,3l-.22.63-.11.32-.17.27c-.24.36-.48.72-.75,1.08a22.31,22.31,0,0,1-1.79,2.14c-.83.88-.7,2.07-.79,3a5,5,0,0,0,.33,2.6,3.77,3.77,0,0,0,1.19,1.45,7.16,7.16,0,0,0,3.23,1.49,4.46,4.46,0,0,0,1.54-.06c.51,0,1-.1,1.54-.11a4,4,0,0,1,.69-.05,1.15,1.15,0,0,1,.28.06,1.06,1.06,0,0,1,.23.19,1.43,1.43,0,0,1,.32.5,5,5,0,0,1,.25,1.7c0,.35,0,.69,0,1a3.74,3.74,0,0,1-1.24,2.75,3.09,3.09,0,0,1-.85.51,9.19,9.19,0,0,1-.86.36,9.32,9.32,0,0,1-1.8.46A12.17,12.17,0,0,1,53,53.92a14,14,0,0,1-5.73-3.63Z"/><path class="cls-1" d="M86.42,52.76a36.84,36.84,0,0,1-9.57,19.73,38.4,38.4,0,0,1-8.51,6.84,36.39,36.39,0,0,1-10.13,4A44.07,44.07,0,0,1,42.74,84a42.46,42.46,0,0,1-13-4.07A38.16,38.16,0,0,1,24,76.26a30.81,30.81,0,0,1-5.15-4.55,28,28,0,0,1-6.61-12.08,32.8,32.8,0,0,1-.68-3.39c-.12-1.15-.26-2.29-.27-3.44s0-2.28.05-3.42.2-2.27.39-3.37A49.65,49.65,0,0,1,15,34.55a43.68,43.68,0,0,1,6.11-10.21,31.72,31.72,0,0,1,12.06-9.6,25.08,25.08,0,0,1,7.6-1.84,27.88,27.88,0,0,1,3.88,0,16,16,0,0,1,3.76.68c1.48.69,2.06,1.07,2,1.2a19.65,19.65,0,0,1-2.15.52c-1.3.44-3.07.8-5,1.57l-1.48.62c-.5.23-1,.48-1.52.7-1,.47-2.09.93-3.15,1.48a27.76,27.76,0,0,0-2.76,1.58A25.2,25.2,0,0,0,31.63,23a30.51,30.51,0,0,0-4.69,4.41A41.08,41.08,0,0,0,20.2,38.77a39.21,39.21,0,0,0-2.93,13,26,26,0,0,0,.59,6.47,14.09,14.09,0,0,0,.41,1.58,14,14,0,0,0,.51,1.55,14.23,14.23,0,0,0,.57,1.54c.2.51.44,1,.69,1.5a24.19,24.19,0,0,0,11.88,11.1,38.74,38.74,0,0,0,16.67,3.41,31.45,31.45,0,0,0,17.57-5.07,31.91,31.91,0,0,0,11.7-14.08,26.57,26.57,0,0,0,2.19-11A17.08,17.08,0,0,0,76.6,38.64a10.88,10.88,0,0,0-3.13-2.74,10.28,10.28,0,0,0-4-1.23,13.5,13.5,0,0,0-4.33.28l-1.06.3c-.36.1-.7.25-1.05.37a10.52,10.52,0,0,0-1.43.72l-.81.44c-.27.18-.54.4-.81.6l-1.09.68a1.8,1.8,0,0,1-.5.23l-.46.16-.92.32-.71.2-.68.2c-.31-.12-.46-.39-.66-.6A9.46,9.46,0,0,1,54,37a32.48,32.48,0,0,1-1.46-4.31l-.59-2.14c-.15-.54-.3-1.07-.43-1.63l-.14-.6,1.93.07a.59.59,0,0,0,.41-.11.83.83,0,0,0,.09.51c0,.13.13.27.22.46s.2.33.32.54l.2.29.1.14,0,.08s0,0,0,0h0a5.34,5.34,0,0,0-.39.37,14.88,14.88,0,0,0-1,1.16,39.14,39.14,0,0,0-3.66,5.69c-.52,1-1,2-1.42,3-.21.51-.4,1-.56,1.51q-.13.38-.24.75l-.09.35,0,.21a3.74,3.74,0,0,0,0,1.66,1.78,1.78,0,0,0,1.17,1,4.17,4.17,0,0,0,.75.2l.18,0h.08l.17,0,.73.11c1,.12,2,.17,3.14.24l.49,0,.23,0,.41-.05a7.24,7.24,0,0,1,.78-.1,1.93,1.93,0,0,1,.5-.09l.45,0c.14,0,.31,0,.37-.17a1,1,0,0,0-.12-.66,4.39,4.39,0,0,1-.31-.9,7.48,7.48,0,0,1,.07-2.06c0-.42-.11-1.08,0-1.44s.26-.46.65-.45a2.92,2.92,0,0,1,.71.15,13.22,13.22,0,0,1,1.28.59,26.71,26.71,0,0,1,4,3,9.36,9.36,0,0,1,2.54,4.68,4.53,4.53,0,0,1,0,1.76,3.09,3.09,0,0,1-.38,1,3.28,3.28,0,0,1-.66.74,6.18,6.18,0,0,1-1.55,1,5.78,5.78,0,0,1-2.35.62c-1.14.22-2.4.31-3.68.46-.63.05-1.29.13-2,.16l-1.75.06a22.25,22.25,0,0,1-5.29-.38l-.36-.07-.54-.12c-.35-.09-.68-.2-1-.3a8.44,8.44,0,0,1-1-.35,6.45,6.45,0,0,1-1-.42,9.86,9.86,0,0,1-3.29-2.48,8,8,0,0,1-1.8-3.66,10.78,10.78,0,0,1,.06-4.23,20,20,0,0,1,.53-2.16c.18-.58.3-1,.47-1.42.32-.88.66-1.72,1-2.53a47.83,47.83,0,0,1,2.42-4.61c.88-1.47,1.81-2.89,2.86-4.31.54-.72,1.09-1.42,1.76-2.19a16.28,16.28,0,0,1,1.26-1.28,8,8,0,0,1,1.41-1l.37-.19a5.31,5.31,0,0,1,.58-.25l.36-.13.55-.14.58-.09a6.66,6.66,0,0,1,1,0l.5.05.25.05.35.08a5.91,5.91,0,0,1,1.37.57,5.46,5.46,0,0,1,1.16.88,6.17,6.17,0,0,1,.48.54,5.25,5.25,0,0,1,.38.53,6.77,6.77,0,0,1,.43.85,6.31,6.31,0,0,1,.26.78,7.41,7.41,0,0,1,.17,1L59.28,27c.09.35.18.74.26,1.12l.18.76h0v0s0,0,0,0l.22-.08a24.77,24.77,0,0,1,2.82-.85,20.19,20.19,0,0,1,5.93-.55,18.87,18.87,0,0,1,6,1.31,16.94,16.94,0,0,1,5.31,3.39c5.86,5.79,7.36,13.76,6.5,20.69Z"/></g></svg>