<svg xmlns="http://www.w3.org/2000/svg" width="96" height="96" viewBox="0 0 96 96"><defs><style>.cls-1{fill:#231f20;}</style></defs><title>scribble final version</title><g id="Layer_1" data-name="Layer 1"><path class="cls-1" d="M60.4,36.52l.05-2.14,0-1.07v-.66h0v0a5.35,5.35,0,0,0,.17-.73,20,20,0,0,0,.23-2.39,2.42,2.42,0,0,0-.08-.78.25.25,0,0,0,0-.07s-.05.05-.06.07l-.07.18a.88.88,0,0,1-.12.24c-.23.35-.64.91-1.44,2l-2.44,3.13c-.57.78-1.25,1.47-1.89,2.2l-1,1.08-1,1a48.36,48.36,0,0,1-8,6.57,29.77,29.77,0,0,1-6.07,2.78,17.58,17.58,0,0,1-3.27.74,20.92,20.92,0,0,1-3.36,0c-1.39-.14-1.18-.82-.19-1.8.25-.25.54-.52.87-.8s.68-.63,1.06-.95.78-.66,1.2-1a9.09,9.09,0,0,1,1.38-.74,29.29,29.29,0,0,0,4.89-2.82c.76-.55,1.55-1.07,2.33-1.6s1.52-1.15,2.24-1.79A48.53,48.53,0,0,0,50.05,33c.64-.75,1.36-1.44,2-2.24L53,29.61l.48-.58.13-.16.18-.3.37-.62c.57-.95,1.14-1.92,1.71-2.88l.82-1.43c.28-.47.56-1.14.84-1.69l1.65-3.51L60,16.67l.1-.22,0-.11s0,0,0,0l.15-.14.3-.26,2.24-2,1.21-1a.16.16,0,0,1,.13,0,.45.45,0,0,1,.22.11,1.93,1.93,0,0,1,.25.24,4.11,4.11,0,0,1,.39.54c.24.4.47.83.71,1.3a12.26,12.26,0,0,1,1.13,4.38c.2,2,.28,4.33.36,6.57l.1,3.38,0,1.7v1.61c-.06,3.57-.11,7.14-.17,10.7-.06,5.4-.27,10.82-.21,16.18,0,4.16.47,8.25.66,12.39,0,.91.15,1.81.15,2.73,0,3.42-.56,4.52-2.44,5.13a9.53,9.53,0,0,1-1.29.4c-1.45.21-2.52-1.2-2.84-3.65a177.68,177.68,0,0,1-1.1-22.71c0-5.75.07-11.52.1-17.28Z"/></g></svg>