<svg xmlns="http://www.w3.org/2000/svg" width="96" height="96" viewBox="0 0 96 96"><defs><style>.cls-1{fill:#231f20;}</style></defs><title>scribble final version</title><g id="Layer_1" data-name="Layer 1"><path class="cls-1" d="M2.46,35.87a3.11,3.11,0,0,1,.4-2.17,3.15,3.15,0,0,1,1.7-1.23l.7-.14a4,4,0,0,1,.69,0A5.19,5.19,0,0,1,9.28,34.7c.18.22.3.47.46.7a5.72,5.72,0,0,1,.44.69A4.06,4.06,0,0,1,11,38c0,.22-.49.35-1,.35s-1.09-.1-1.21-.41a17,17,0,0,0-1.63-3,2,2,0,0,0-1.57-.71,1,1,0,0,0-1.14.78.88.88,0,0,0,.24.84,2.06,2.06,0,0,0,.91.29,11.52,11.52,0,0,0,1.24.13,11.4,11.4,0,0,1,2.12.22,1.71,1.71,0,0,1,.49.14c.59.24.66.54.45,1a3.54,3.54,0,0,1-.16.34.92.92,0,0,1-.9.46c-1-.13-1.79-.18-3.08-.28A5.33,5.33,0,0,1,4,37.84a2.73,2.73,0,0,1-1.58-2Z"/><path class="cls-1" d="M4.38,33.72a2.93,2.93,0,0,1,1.11-.47,3.2,3.2,0,0,1,.42-.1,3.62,3.62,0,0,1,1.34.3,3.23,3.23,0,0,0,.51.14.82.82,0,0,1,.58.29c0,.06-.08.32-.23.57s-.33.51-.43.52a1.56,1.56,0,0,1-.87-.13c-.16-.08-.32,0-.45.09l-.49.15a1.89,1.89,0,0,0-.3.19,1.19,1.19,0,0,0-.35.47c0,.15,0,.33,0,.47s0,.07,0,.1-.23.13-.58.12H4.37a.93.93,0,0,1-.64-.28,2.29,2.29,0,0,1-.39-.78,1.68,1.68,0,0,1,.2-.75,3,3,0,0,1,.8-.92Z"/><path class="cls-1" d="M90.68,32.91a1,1,0,0,0-.41-.47,1.51,1.51,0,0,0-.22-.11,2.75,2.75,0,0,0-.9-.21,1.36,1.36,0,0,0-.4,0,2.16,2.16,0,0,1-.49.11c-.05,0-.12-.11-.13-.25a.38.38,0,0,1,.14-.38,2.13,2.13,0,0,1,1.23-.24,4.81,4.81,0,0,0,.76,0,2.51,2.51,0,0,1,.88.18,2.23,2.23,0,0,1,.54.3,2.19,2.19,0,0,1,.6.83,2.35,2.35,0,0,1,.32.79c0,.06,0,.12,0,.17s-.07.17-.21.18a1.57,1.57,0,0,1-.5,0l-.27-.06a4.59,4.59,0,0,1-.8-.33l-.22-.17c-.06,0-.17,0-.15,0h.13l.08,0h0s0,0,0,0a.21.21,0,0,1,0-.06c0-.06,0-.13,0-.2Z"/><path class="cls-1" d="M72.88,72.33a6.08,6.08,0,0,0,.49-1.07,5.38,5.38,0,0,0,.28-1.15c0-.31,0-.62,0-.94a28.15,28.15,0,0,0,0-3.56c0-.54-.08-1.07-.13-1.62a4.73,4.73,0,0,1,.18-2.13c.09-.22.39-.11.68.11a1.54,1.54,0,0,1,.63.89c.14,1.24.27,2.57.3,4,0,.85.24,1.71.29,2.61a11.11,11.11,0,0,1,0,1.52,7.52,7.52,0,0,1-.34,1.54,6.51,6.51,0,0,1-.83,1.75,5.14,5.14,0,0,1-2.37,1.89,9,9,0,0,1-2.11.69c-.16,0-.31.06-.47.07a.79.79,0,0,1-.9-.67c0-.11-.06-.21-.07-.31a.91.91,0,0,1,.53-.87c1.11-.54,2-1,2.66-1.33a3.35,3.35,0,0,0,1.14-1.41Z"/><path class="cls-1" d="M59.74,13a6,6,0,0,1,1.75,1.48,7.78,7.78,0,0,1,1.06,1.9,8.79,8.79,0,0,1,.5,1.44,13,13,0,0,1,.34,2.61c0,.89,0,1.66.08,2.48A13.39,13.39,0,0,0,63.91,25a6.25,6.25,0,0,0,1.18,2.33c.18.17.1.32-.22.31a1.68,1.68,0,0,1-1.21-.78A10.45,10.45,0,0,1,62.23,21a9.93,9.93,0,0,0-.64-3.31,6.29,6.29,0,0,0-1.92-2.92,4.06,4.06,0,0,0-1.93-.85,7.09,7.09,0,0,0-3.36.42,10,10,0,0,0-2.29,1.34c-.16.11-.3.25-.45.36-.57.44-.79.51-1.2.28a1.84,1.84,0,0,1-.28-.15c-.29-.19-.24-.63.17-1.08a9.15,9.15,0,0,1,4.89-2.66,6.73,6.73,0,0,1,4.53.5Z"/><path class="cls-1" d="M9.39,56.8a5.19,5.19,0,0,0,1.2,2.44,6.59,6.59,0,0,0,.79.7,8.61,8.61,0,0,0,3.44,1.81,5.85,5.85,0,0,0,1.77.17c.39,0,.76-.1,1.14-.12a9,9,0,0,1,1.16,0c.26,0,.34.39.22.84a1.72,1.72,0,0,1-.95,1.21,8,8,0,0,1-5.53-.72,15,15,0,0,1-2.94-1.82,7.72,7.72,0,0,1-2.12-3.17,7.06,7.06,0,0,1-.39-2.32,7.34,7.34,0,0,1,.88-3.36,11.16,11.16,0,0,1,1.42-2.24,5.44,5.44,0,0,1,.41-.42c.56-.48.89-.42,1.25-.14a1.68,1.68,0,0,1,.24.19.56.56,0,0,1,.15.46,1.08,1.08,0,0,1-.2.6,11.49,11.49,0,0,0-1.77,3.31,5.16,5.16,0,0,0-.11,2.56Z"/><path class="cls-1" d="M27.16,50.21A11.38,11.38,0,0,0,26,47.35a18.77,18.77,0,0,0-1.86-2.61c-1.41-1.72-3-3.36-4.59-5.14a25.56,25.56,0,0,1-3.18-4.23,13.2,13.2,0,0,1-1.65-4.56c-.07-.8-.19-1.6-.2-2.4A21.57,21.57,0,0,1,14.76,26a13.42,13.42,0,0,1,4.89-8,15.31,15.31,0,0,1,7.64-3.2,8.49,8.49,0,0,1,1.33-.09,12,12,0,0,1,1.34,0l1.34.14.66.08.65.18c.44.11.86.25,1.29.39a13.35,13.35,0,0,1,1.21.57,9.42,9.42,0,0,1,1.16.64l1,.79c.87.68.49.88-.5.79-.5,0-1.1-.19-1.84-.29-.38,0-.77-.09-1.16-.17-.2,0-.4-.1-.61-.13l-.64-.09c-.38-.05-.74-.17-1.11-.25l-1.14-.1a14.46,14.46,0,0,0-2.28,0,14.26,14.26,0,0,0-4.35,1.23,11.67,11.67,0,0,0-6.2,6.34,11.19,11.19,0,0,0-.44,5.62,13.1,13.1,0,0,0,2.42,5.26,57.13,57.13,0,0,0,4.44,5.19,30.47,30.47,0,0,1,4.4,5.71,22.48,22.48,0,0,1,2,8.64A52.34,52.34,0,0,0,31,61.58a10.32,10.32,0,0,0,2.74,5.32,9.13,9.13,0,0,0,8.45,2.27,12,12,0,0,0,1.87-.61c2.25-1.06,2.85-1.62,3.7-1.5a3.1,3.1,0,0,1,.56.06c.26.08.24.37,0,.83a5.15,5.15,0,0,1-.63.81,10.66,10.66,0,0,1-1.11.91A12.09,12.09,0,0,1,42,71.56a11.38,11.38,0,0,1-9.76-3,11.73,11.73,0,0,1-2.91-4.5,17.62,17.62,0,0,1-.9-3.68c-.18-1.22-.29-2.41-.39-3.58a37.62,37.62,0,0,0-.91-6.62Z"/><path class="cls-1" d="M32.32,64l.27.69c.09.23.22.43.32.64a4,4,0,0,0,.34.59,3.22,3.22,0,0,0,.38.53,8.49,8.49,0,0,0,2.15,1.85,9,9,0,0,0,5.51,1.36,4.66,4.66,0,0,0,1.1-.27,7.59,7.59,0,0,0,1.18-.69c.85-.6,1.77-1.47,2.93-2.38a14.2,14.2,0,0,1,2-1.33,11.17,11.17,0,0,1,1.21-.56c.44-.14.88-.25,1.32-.37a11.76,11.76,0,0,1,4.92.17c2.09.51,3.83,1.18,5.26,1.35a3.63,3.63,0,0,0,1.72-.1c.25,0,.45-.23.7-.31s.46-.34.69-.59l.58-.68a2.48,2.48,0,0,0,.32-.59,9.55,9.55,0,0,0,.4-2c.09-.79.17-1.66.37-2.65a7.5,7.5,0,0,1,1.37-3.16,10.4,10.4,0,0,1,5.19-3.24,26.13,26.13,0,0,0,4.41-1.41,7.31,7.31,0,0,0,2.89-2.68,7.93,7.93,0,0,0,1.09-3.95,9.57,9.57,0,0,0-3.53-7.63c-2-1.64-4.85-2.1-7.69-2.42s-5.8-.33-8.72-.38c-1.88,0-3.78-.06-5.7-.18a23,23,0,0,1-5.92-1,6.83,6.83,0,0,1-1.56-.77,5.37,5.37,0,0,1-.77-.62l-.52-.57a14.64,14.64,0,0,1-1.76-2.42c-1-1.7-1.77-3.41-2.65-5-1.11-2-.6-2.06,1.08-.76a39.21,39.21,0,0,1,3.09,2.93l1.87,1.87c.3.34.62.66.93,1l.49.48a1.66,1.66,0,0,0,.24.17,6.37,6.37,0,0,0,1.94.66,22.64,22.64,0,0,0,2.6.36c1.8.17,3.69.23,5.59.28a101.56,101.56,0,0,1,11.76.69A18.48,18.48,0,0,1,78,32.81a13.33,13.33,0,0,1,6.7,11.44,11.37,11.37,0,0,1-2,6.69,11,11,0,0,1-1.42,1.63c-.27.24-.53.49-.8.72l-.89.6a14.08,14.08,0,0,1-3.7,1.68c-1.17.37-2.25.69-3.13,1.06a5.72,5.72,0,0,0-1.18.64c-.18.11-.32.26-.48.38s-.32.31-.37.4a5,5,0,0,0-.7,2.36,25.28,25.28,0,0,1-.6,3.84,7.25,7.25,0,0,1-1,2.23,10.13,10.13,0,0,1-1.48,1.7,7.13,7.13,0,0,1-4.44,1.92,14.13,14.13,0,0,1-4.53-.6c-1.31-.34-2.49-.68-3.56-.85a5.52,5.52,0,0,0-2.81.14,8.61,8.61,0,0,0-2.62,1.72,27.33,27.33,0,0,1-3.31,2.61,8.66,8.66,0,0,1-2.26,1,10.82,10.82,0,0,1-2.4.39A14.52,14.52,0,0,1,32.35,72a12.15,12.15,0,0,1-3.82-4.11,16.8,16.8,0,0,1-1.85-5c-.68-3.4-.68-6.64-1.23-9.58A13.68,13.68,0,0,0,23,47.34,65.82,65.82,0,0,0,18.29,42a30.32,30.32,0,0,1-4.78-6,13.09,13.09,0,0,1-1.61-7.94,19,19,0,0,1,1.69-5.89,15.41,15.41,0,0,1,9-8.1,18,18,0,0,1,6.07-1,18.84,18.84,0,0,1,5.37.67,13.66,13.66,0,0,1,6.29,3.47,5.05,5.05,0,0,1,1.34,4.24c-.16.48-.75.31-1.69-.17s-2.35-1.18-4.08-2a16.62,16.62,0,0,0-8.45-1.36,11.58,11.58,0,0,0-7.26,3.35,10.94,10.94,0,0,0-2.15,3.3,13.86,13.86,0,0,0-1,3.94c-.22,2.56.64,4.46,2.57,6.81C21,37,22.87,38.84,24.72,40.87c.94,1,1.85,2.1,2.75,3.26a17.13,17.13,0,0,1,2.35,4.42,33.69,33.69,0,0,1,1.48,8.59,26.52,26.52,0,0,0,1.13,6.78Z"/><path class="cls-1" d="M77.57,71.75a6.23,6.23,0,0,1-.72,1.87,6.8,6.8,0,0,1-1.29,1.57,8.45,8.45,0,0,1-3.14,1.73,11.39,11.39,0,0,1-2.27.52,18.92,18.92,0,0,1-7.56-.94,18.55,18.55,0,0,1-3.08-1.4,6.46,6.46,0,0,1-2.92-3.18c-.18-.42.33-.63,1-.68a3.53,3.53,0,0,1,2,.37c.43.36,1,.56,1.39.9a12.68,12.68,0,0,0,1.44.85,16.67,16.67,0,0,0,3.34,1.2A6.4,6.4,0,0,0,68,74.7a14.92,14.92,0,0,0,2.17-.5,4.87,4.87,0,0,0,3.23-2.35,5.12,5.12,0,0,0,.47-2.61,40.1,40.1,0,0,0-.68-5,12.62,12.62,0,0,1-.31-4.5,5.38,5.38,0,0,1,.28-1.1,1.88,1.88,0,0,1,1-1.1,1.43,1.43,0,0,1,1.13.19,4.88,4.88,0,0,1,.55.31,2.26,2.26,0,0,1,.7,1.75c0,.47,0,.79,0,1.18s.07.79.13,1.23c.13.9.34,2,.58,3.14a17,17,0,0,1,.37,6.41Z"/><path class="cls-1" d="M58.43,10.19a9.33,9.33,0,0,1,3.41.89,7.29,7.29,0,0,1,2.84,2.46,7.21,7.21,0,0,1,1.16,2.25c.62,2.7.31,5,.42,7.14a8.3,8.3,0,0,0,.56,2.6A15.38,15.38,0,0,0,67.48,27a7.34,7.34,0,0,0,.29.82,3.93,3.93,0,0,0,.41.82c.18.36,0,.54-.5.64A4.12,4.12,0,0,1,65.23,29a6.65,6.65,0,0,1-.56-.36,3.15,3.15,0,0,1-.41-.48,6.64,6.64,0,0,1-.73-1,6.32,6.32,0,0,1-.79-2.25,16.37,16.37,0,0,1-.2-4.13,7.38,7.38,0,0,0-.21-2.18c-.07-.35-.19-.67-.28-1s-.23-.58-.33-.84a3.42,3.42,0,0,0-2.51-2.36,7.64,7.64,0,0,0-2.72-.19,9.59,9.59,0,0,0-4.16,1.46A16.75,16.75,0,0,0,49.67,18a4.38,4.38,0,0,1-.58.56,1.38,1.38,0,0,1-2,0,5.48,5.48,0,0,1-.46-.34,1.09,1.09,0,0,1-.36-.79,1.83,1.83,0,0,1,.25-1.05,10,10,0,0,1,2.3-2.8,14.85,14.85,0,0,1,3.29-2.23,13,13,0,0,1,6.31-1.35Z"/><path class="cls-1" d="M10,54.33a3.3,3.3,0,0,0-.3.92l-.12.46a2.4,2.4,0,0,1,0,.46l0,.47.06.45,0,.48.16.45a1.53,1.53,0,0,0,.33.63c.16.19.28.41.42.61A7.51,7.51,0,0,0,18.37,62l.87-.26.84-.37c.58-.2,1.09-.53,1.71-.74.38-.13.7.3.74,1a3,3,0,0,1-.19,1.12,1.9,1.9,0,0,1-.78,1l-1,.63a11.26,11.26,0,0,1-1.13.48,10.91,10.91,0,0,1-2.39.62,7.43,7.43,0,0,1-1.25.05,5.09,5.09,0,0,1-1.23-.13c-.41-.08-.82-.16-1.22-.27s-.78-.29-1.16-.45a12.83,12.83,0,0,1-5-3.46,8.29,8.29,0,0,1-1.62-6.59,8,8,0,0,1,.56-2A6.53,6.53,0,0,1,7,50.78a24.92,24.92,0,0,1,4.05-3.94c.53-.45,1-.94,1.49-1.43l.71-.74c.24-.24.51-.45.76-.66s.43-.4.66-.57a1.43,1.43,0,0,1,2.12.08c.18.15.38.28.55.43A1.58,1.58,0,0,1,17.48,46a12.94,12.94,0,0,1-2.35,3c-.88.81-1.79,1.55-2.62,2.29a18.74,18.74,0,0,0-1.61,1.58,3.27,3.27,0,0,0-.28.35l-.13.17-.07.13a.73.73,0,0,0-.09.13l-.08.24-.16.46Z"/><path class="cls-1" d="M79,16.82a2.55,2.55,0,0,1,1.59.57,2.78,2.78,0,0,1,.75,1.05,3.47,3.47,0,0,1,.18,2,3.62,3.62,0,0,1-.42,1.21,6,6,0,0,1-2.91,2.17c-.45.18-.89.38-1.33.52a3.69,3.69,0,0,1-1.73.36c-.2,0-.26-.36-.22-.77a1.59,1.59,0,0,1,.43-1.06c.48-.27.91-.57,1.34-.83l1.34-.54A1.79,1.79,0,0,0,79,20.41a1.54,1.54,0,0,0,.11-.56,1.09,1.09,0,0,0,0-.22.15.15,0,0,0,0-.07s0,0,.08-.13l.09-.18,0-.08v-.05h0c0-.4,0,.54,0,.44h0s0,0-.06,0-.07,0-.19.07a5.08,5.08,0,0,0-1.12,1.55,7.11,7.11,0,0,1-1,1.7,1.86,1.86,0,0,1-.38.3c-.57.31-.86.16-1.12-.25l-.17-.28a1.57,1.57,0,0,1,0-1,1.88,1.88,0,0,0,.06-.31l0-.31c0-.16.09-.32.15-.5a12.58,12.58,0,0,1,.51-1.3,5.89,5.89,0,0,1,.79-1.32,3.4,3.4,0,0,1,.38-.4l.22-.2.31-.18A2.86,2.86,0,0,1,79,16.75Z"/><path class="cls-1" d="M92,29.28a3.62,3.62,0,0,1,1.2.73,2.92,2.92,0,0,1,.89,1.4,3,3,0,0,1,0,1.7,3.1,3.1,0,0,1-.68,1.23,4.06,4.06,0,0,1-1.25,1,8.79,8.79,0,0,1-4.15.42c-.56,0-1.11,0-1.65-.11a4.25,4.25,0,0,1-2.06-.58c-.2-.14,0-.47.22-.81s.64-.71,1-.75c.61,0,1.22-.19,1.82-.18s1.19,0,1.79,0a2.51,2.51,0,0,0,1.68-.63,1.28,1.28,0,0,0,.2-.18c.06,0,0-.08.11-.05s.16,0,.09,0l-.09,0s0,0,0-.07a.76.76,0,0,0-.68-.3,3.83,3.83,0,0,0-2,.82c-.51.38-.92.93-1.47,1.39a2.12,2.12,0,0,1-.38.29c-.53.3-.83.19-1.23-.39-.09-.13-.18-.26-.26-.4A1.4,1.4,0,0,1,85,32.61c.14-.25.29-.51.44-.75s.37-.44.58-.66a9,9,0,0,1,1.55-1.26,6.28,6.28,0,0,1,1.78-.82A4.48,4.48,0,0,1,92,29.2Z"/><path class="cls-1" d="M51.11,84.67a4.46,4.46,0,0,1-2.78.39,3.34,3.34,0,0,1-1.26-.52,2.54,2.54,0,0,1-.84-1.05c-.09-.26-.2-.5-.28-.75l-.05-.19c0-.09,0-.14,0-.21s0-.27,0-.41l0-.36c0-.3.12-.58.18-.87l0-.21a.33.33,0,0,0,.13-.19c.07-.13.12-.24.18-.34a8.66,8.66,0,0,1,.75-1.06,8.47,8.47,0,0,1,1.64-1.55,10,10,0,0,0,1.3-1.18c.27-.22.51-.47.73-.68l.18-.16.27-.07a4.47,4.47,0,0,0,.57-.16c.26-.07.47,0,.73.44a4,4,0,0,1,.41.85,4.43,4.43,0,0,1,.13.55c0,.1,0,.18,0,.29a.66.66,0,0,1-.09.19,8.82,8.82,0,0,1-.88,1.07,5.39,5.39,0,0,1-1,.65l-1.83.94a1.93,1.93,0,0,0-.39.3,1.15,1.15,0,0,0-.18.39,2.62,2.62,0,0,1-.06.29l0,.21v.07a.61.61,0,0,0,.17.54.85.85,0,0,0,.61.18A2.14,2.14,0,0,0,50,82a1.47,1.47,0,0,0,.53-.37,3.59,3.59,0,0,0,1.07-2.15,9.48,9.48,0,0,0-.06-2.12c0-.16,0-.32,0-.49a1,1,0,0,1,1-.87,2.23,2.23,0,0,1,.36,0,1.16,1.16,0,0,1,1,.71,2.27,2.27,0,0,1,.33,1,7.61,7.61,0,0,1,.1,1.09,7.74,7.74,0,0,1-.32,2.44A7.27,7.27,0,0,1,53,83.07a5.94,5.94,0,0,1-.72.87,4.27,4.27,0,0,1-.53.45,4.47,4.47,0,0,1-.58.35Z"/></g></svg>