<svg xmlns="http://www.w3.org/2000/svg" width="96" height="96" viewBox="0 0 96 96"><defs><style>.cls-1{fill:#231f20;}</style></defs><title>scribble final version</title><g id="Layer_1" data-name="Layer 1"><path class="cls-1" d="M15.33,71.35a8.82,8.82,0,0,1-2.05-2.95,12.72,12.72,0,0,1-.88-3.18,20.26,20.26,0,0,1,.16-6,23,23,0,0,1,1-4.15,24,24,0,0,1,8.86-11.78,16.42,16.42,0,0,1,6.23-2.52,12,12,0,0,1,2.16-.18,15.21,15.21,0,0,1,2.15.24L34,41c.33.14.65.31,1,.47a14.78,14.78,0,0,1,1.8,1.08c.71.49.46.71-.37.92-.42.11-1,.19-1.6.36-.32.09-.65.18-1,.25-.17,0-.34,0-.51.11h-.49a13,13,0,0,0-3.32.16,12.41,12.41,0,0,0-3.13.84,15.92,15.92,0,0,0-2.93,1.72,21.51,21.51,0,0,0-2.64,2.44,19.36,19.36,0,0,0-4,8.15,23.35,23.35,0,0,0-.8,4.94,10.51,10.51,0,0,0,.76,4.64,5.61,5.61,0,0,0,1.7,2.1A7.43,7.43,0,0,0,21,70.56c2.83.88,6.15,0,9-1.43a21.76,21.76,0,0,0,3.17-2c.51-.38,1-.77,1.49-1.17l1.51-1.13c.44-.34.85-.69,1.31-1a7.34,7.34,0,0,1,1.94-1.14,2.24,2.24,0,0,1,1.32.05,4.06,4.06,0,0,1,.52.16c.23.13.24.4.1.85a4.22,4.22,0,0,1-1,1.65,26.3,26.3,0,0,1-12.52,8.51,14.63,14.63,0,0,1-6.47.53,11.5,11.5,0,0,1-6.12-3Z"/><path class="cls-1" d="M57.51,37.54c-1.34,2.1-2.63,4.29-3.94,6.52l-3.94,6.67a132.39,132.39,0,0,1-8.5,13.35,38.94,38.94,0,0,1-8.34,8.58,22.81,22.81,0,0,1-10.1,4.14,11.87,11.87,0,0,1-5.86-.67,11.47,11.47,0,0,1-4.76-3.46,13,13,0,0,1-2.59-5.11A22.65,22.65,0,0,1,9,64.85c-.1-.89-.12-1.78-.15-2.67a29.33,29.33,0,0,1,2-10.33,24,24,0,0,1,4.94-8,15.88,15.88,0,0,1,8.4-4.72,6.82,6.82,0,0,1,1.55-.22l1.57-.11c.53,0,1,0,1.57.07s1,.14,1.53.24a23.67,23.67,0,0,1,5.71,2,49,49,0,0,1,5,2.87c1.62,1,3.08,2.17,4.63,3.18,1.9,1.27,1.43,1.67-.72,1.44a29,29,0,0,1-4.27-.88,43.52,43.52,0,0,1-5.36-2.11,24.44,24.44,0,0,0-4.87-1.71l-1.19-.22c-.39,0-.78-.1-1.17-.11a11.14,11.14,0,0,0-1.15,0l-1.13.06a3.73,3.73,0,0,0-1.11.17c-.36.09-.73.13-1.09.24a11.29,11.29,0,0,0-2,.92,13,13,0,0,0-3.58,3A22,22,0,0,0,13.73,57l-.29,1.27-.18,1.3c-.16.87-.13,1.73-.22,2.61l0,1.3v.65l.07.63c.06.42.09.87.16,1.27a9.14,9.14,0,0,0,.27,1.15,8.08,8.08,0,0,0,3.18,4.5,7.41,7.41,0,0,0,5.4,1.19,17.69,17.69,0,0,0,5.93-2.26l.7-.4.66-.48c.44-.33.9-.61,1.32-1a30.24,30.24,0,0,0,2.45-2.23c.89-.84,1.67-1.81,2.49-2.74s1.54-1.95,2.25-3c1.46-2,2.8-4.22,4.09-6.43s2.53-4.49,3.8-6.77l3.81-6.82c1.55-2.8,3.14-5.66,5-8.38a40.45,40.45,0,0,1,6.5-7.64C65,21.28,70.3,19,75.79,19.64a12.6,12.6,0,0,1,3.94,1.3,13.93,13.93,0,0,1,7,9.56A12.17,12.17,0,0,1,87,33.69a14.5,14.5,0,0,1-.18,1.6,15.19,15.19,0,0,1-.39,1.51,15.15,15.15,0,0,1-2.81,5.56l-1,1.19c-.35.38-.76.7-1.14,1.05A21.86,21.86,0,0,1,79,46.46a30.47,30.47,0,0,1-5.41,2.59,45.21,45.21,0,0,1-4.88,1.54,26.51,26.51,0,0,1-6.52.95,5.13,5.13,0,0,1-3.08-1.06,7,7,0,0,1-1-.82c-.39-.5,0-1.08,1-1.72a16,16,0,0,1,4.82-1.86A68.26,68.26,0,0,0,73,43.29a16.89,16.89,0,0,0,6.82-4.73l.52-.8c.09-.13.19-.25.27-.39l.2-.44.41-.86c.12-.3.19-.63.29-.94a7,7,0,0,0,.38-1.78,8,8,0,0,0-.1-1.75,8.88,8.88,0,0,0-4-6,6.09,6.09,0,0,0-2.42-.95A6.65,6.65,0,0,0,74,24.56l-1.53.14A13.74,13.74,0,0,0,66.78,27a22.52,22.52,0,0,0-5,4.64,53,53,0,0,0-4.19,6Z"/></g></svg>