<svg xmlns="http://www.w3.org/2000/svg" width="96" height="96" viewBox="0 0 96 96"><defs><style>.cls-1{fill:#231f20;}</style></defs><title>scribble final version</title><g id="Layer_1" data-name="Layer 1"><path class="cls-1" d="M24.35,27.81a3.49,3.49,0,0,0,1.06-1.56,6,6,0,0,0,.09-.74,4.16,4.16,0,0,0,0-1.46,5.73,5.73,0,0,0-.47-1.56,2.84,2.84,0,0,0-.86-1.06,14.12,14.12,0,0,0-1.3-.64,1.43,1.43,0,0,1,0-1.24,1.35,1.35,0,0,1,1.46-1,5,5,0,0,1,2.56,1.64A5.9,5.9,0,0,1,28.1,22.5a14.62,14.62,0,0,1,.79,3.16,6.82,6.82,0,0,1-.84,3.53A7.1,7.1,0,0,1,26.64,31a6.92,6.92,0,0,1-3.07,1.54c-.43.1-.85.25-1.29.33a5.51,5.51,0,0,1-1.34.21,1.67,1.67,0,0,1-.59,0c-.68-.2-.8-.57-.55-1.61.05-.24.1-.48.17-.71a2.79,2.79,0,0,1,1.08-1.57l.41-.21a1.18,1.18,0,0,1,.34-.19c.1,0,.2-.06.3-.09l.25-.1c.33-.08.54-.18.79-.22a2.28,2.28,0,0,0,1.12-.58Z"/><path class="cls-1" d="M46.65,28.45a2.88,2.88,0,0,0,.62.58,3.41,3.41,0,0,0,.79.46,5,5,0,0,0,.67.16,5.46,5.46,0,0,0,2.64.48A2.21,2.21,0,0,0,52,30a2.79,2.79,0,0,0,.58-.18,2,2,0,0,0,.68-.37,3.12,3.12,0,0,0,.55-.54c.12-.12.2-.08.24.11a1.47,1.47,0,0,1,0,.39.81.81,0,0,1-.16.51c-.19.27-.36.6-.59.87a2.82,2.82,0,0,1-.75.75,3.76,3.76,0,0,1-.93.44,3.32,3.32,0,0,1-1,.22c-.4,0-.8.1-1.21.18a3.69,3.69,0,0,1-1.24,0,9.26,9.26,0,0,1-1.35-.28,13.05,13.05,0,0,1-1.29-.54l-.74-.45c-.24-.16-.45-.37-.68-.55a8.94,8.94,0,0,1-1.54-2.1c-.2-.28-.35-.56-.53-.85a3.94,3.94,0,0,1-.51-.89,2.92,2.92,0,0,1-.13-.42c-.07-.54.15-.74,1-.9l.54-.11a2.07,2.07,0,0,1,1.45.3,6.13,6.13,0,0,1,1.45,1.69c.3.31.53.67.9,1Z"/><path class="cls-1" d="M24.93,49.13a3,3,0,0,0,.62-1.51c.06-.21-.06-.44,0-.66a7.21,7.21,0,0,0-.32-2.67,3.84,3.84,0,0,0-.53-1,2.15,2.15,0,0,0-.38-.43c-.1-.06-.15-.18-.37-.14s-.3-.16-.29-.47a.73.73,0,0,1,.25-.54.94.94,0,0,1,.85-.24,3,3,0,0,1,1.9,1.48,5.91,5.91,0,0,1,.67,1.79A16.3,16.3,0,0,1,27.86,47a5.65,5.65,0,0,1-.61,2.7,5.85,5.85,0,0,1-1,1.37,7.73,7.73,0,0,1-2,1.42,16.89,16.89,0,0,1-1.63.88c-.13.05-.25.13-.38.17-.5.12-.69,0-.85-.62,0-.13-.08-.27-.11-.41a1,1,0,0,1,.31-1.06c.78-.53,1.5-.87,2.12-1.3a3.68,3.68,0,0,0,1.13-1.09Z"/><path class="cls-1" d="M50.7,48a1.94,1.94,0,0,0,.53-1.22c0-.19-.09-.37-.08-.57s0-.38,0-.57a2.24,2.24,0,0,0-.12-.57c-.13-.41-.29-.83-.46-1.25a2.47,2.47,0,0,0-.68-.83,2.56,2.56,0,0,0-.44-.24.62.62,0,0,1-.12-.09,2.05,2.05,0,0,1-.19-.08,2.1,2.1,0,0,1-.28-1.25,1.66,1.66,0,0,1,.35-.93.86.86,0,0,1,.92-.33,4.61,4.61,0,0,1,2.38,1.23,3.65,3.65,0,0,1,1.12,1.76,8.55,8.55,0,0,0,.52,1.2,5.68,5.68,0,0,1,.4,4.25,5.49,5.49,0,0,1-.8,1.67A10.26,10.26,0,0,1,51.89,52a8.37,8.37,0,0,1-1.49,1.19,2.6,2.6,0,0,1-.36.21c-.49.19-.74,0-1.06-.59a3.59,3.59,0,0,1-.21-.38,1.38,1.38,0,0,1-.15-.65,1.32,1.32,0,0,1,.12-.62c.26-.48.47-.94.65-1.34s.43-.61.59-.88a4.74,4.74,0,0,0,.63-1Z"/><path class="cls-1" d="M26,73.12a3.11,3.11,0,0,0,.5-1.49c0-.22,0-.45,0-.68a6.82,6.82,0,0,0-.38-2.55,7.62,7.62,0,0,0-.53-1c-.28-.42-.59-.81-.85-1.27-.08-.14.05-.33.33-.46a1.41,1.41,0,0,1,1.09,0,5.9,5.9,0,0,1,1.58,1.2,5.19,5.19,0,0,1,.65,1.85c.11.77.42,1.49.49,2.28a6,6,0,0,1-.34,2.64,4.9,4.9,0,0,1-.9,1.49,7.24,7.24,0,0,1-2,1.39c-.53.27-1,.63-1.52.9a2.9,2.9,0,0,1-.34.19c-.43.17-.61,0-.88-.61l-.18-.45a1.12,1.12,0,0,1,.16-1.21A12.38,12.38,0,0,1,25,73.92a2.42,2.42,0,0,0,.94-.83Z"/><path class="cls-1" d="M49.23,65.1a5.4,5.4,0,0,1,2.85,1,5.37,5.37,0,0,1,.77.5,11.13,11.13,0,0,1,1.62,2.27,8.29,8.29,0,0,0,.64,1,2.19,2.19,0,0,1,.58,1.31c0,.17-.37.37-.82.51a2.19,2.19,0,0,1-1.21.17,9.93,9.93,0,0,1-1-.62,1.84,1.84,0,0,1-.72-.81c-.19-.43-.78-.59-1.07-.75a3.3,3.3,0,0,0-.93-.4,1.82,1.82,0,0,1-.29-.08,1.27,1.27,0,0,0-.34,0,1.75,1.75,0,0,0-1.11.46,3.05,3.05,0,0,0-.54,1,1.47,1.47,0,0,1-.1.22c-.2.23-.44.17-1.16-.23l-.48-.26A1.65,1.65,0,0,1,45,69.19a3.78,3.78,0,0,1,.25-1.67,2.78,2.78,0,0,1,.41-.78,5.67,5.67,0,0,1,.66-.63A5.78,5.78,0,0,1,49.22,65Z"/><path class="cls-1" d="M74,70.78a3.38,3.38,0,0,0,1.14-1,5.05,5.05,0,0,0,.24-.53,4.29,4.29,0,0,0,.77-2,1.24,1.24,0,0,0-.26-.8c-.14-.32-.33-.54-.53-1-.06-.15.1-.53.44-.87a1.47,1.47,0,0,1,1.43-.5,4.63,4.63,0,0,1,1.11.73,3.12,3.12,0,0,1,.58,1.13,3.87,3.87,0,0,1,0,2.26,19.7,19.7,0,0,1-.58,2.38,7.45,7.45,0,0,1-1.46,2.18,8.21,8.21,0,0,1-1.29,1,5.87,5.87,0,0,1-2.48.82,8.47,8.47,0,0,1-2.15.13,2.28,2.28,0,0,1-.45-.11.52.52,0,0,1-.36-.56,2.2,2.2,0,0,1,.29-.9c.09-.17.17-.33.26-.48a3.76,3.76,0,0,1,1.13-1.15A3.67,3.67,0,0,1,73,71.06a2,2,0,0,0,.87-.34Z"/><path class="cls-1" d="M25.71,34.88A9.74,9.74,0,0,1,21,34.37a8.88,8.88,0,0,1-3.66-2.62,12.05,12.05,0,0,1-1.7-2.57A8.91,8.91,0,0,1,15,24a9.38,9.38,0,0,1,2.29-4.54,10.67,10.67,0,0,1,3.5-2.73,5,5,0,0,1,3.08-.54,4.15,4.15,0,0,1,2.67,1.62c.38.52-.19.92-1,1.35a8.24,8.24,0,0,0-1.16.76c-.36.26-.62.6-.78.72l-.2.18c-.06.08-.11.16-.17.15s-.27.1-.44.2a6,6,0,0,0-1.07.71A7.7,7.7,0,0,0,19.39,24c-.75,1.08-.41,2.75.29,4a4.44,4.44,0,0,0,6.22,1.25,4.16,4.16,0,0,0,1.2-4.1A6.11,6.11,0,0,0,25,21.93a6.12,6.12,0,0,1-.62-.43,1.13,1.13,0,0,1-.28-.95,2.92,2.92,0,0,1,.2-.62c.12-.27.28-.57.45-.91l.42-.88a2.22,2.22,0,0,1,1.12-1,1.62,1.62,0,0,1,.86-.15,2.18,2.18,0,0,1,.92.25l.67.35.33.19.26.25a8.84,8.84,0,0,1,1,1.06,11.64,11.64,0,0,1,.77,1.2c.21.43.42.86.59,1.3a12.51,12.51,0,0,1,.6,5.86,9.4,9.4,0,0,1-1.85,4.79c-.32.36-.65.71-1,1a9.81,9.81,0,0,1-1.16.84,5.41,5.41,0,0,1-.61.36l-.65.22a6.89,6.89,0,0,1-1.28.33Z"/><path class="cls-1" d="M55.48,32a7.58,7.58,0,0,1-4.09,2.37,10.24,10.24,0,0,1-7.1-1.46,9.35,9.35,0,0,1-3.76-9,4.78,4.78,0,0,1,.88-2.18,5.6,5.6,0,0,1,1.68-1.55,8,8,0,0,1,5.06-.93c.51.07.44.16,0,.39s-1.12.72-1.86,1.18a7.32,7.32,0,0,0-1.66,1.3A2.6,2.6,0,0,0,44,23.38a3,3,0,0,1-.07.64l-.09.42,0,.43a7,7,0,0,0,.11,1.81,5.48,5.48,0,0,0,3,3.44,6,6,0,0,0,2.46.66,4,4,0,0,0,2.32-.57,3.94,3.94,0,0,0,1.07-1,4.37,4.37,0,0,0,.6-1.46,5,5,0,0,0-.05-2.49A3.58,3.58,0,0,0,52,23.38a5.55,5.55,0,0,0-3.49-1.1,4,4,0,0,1-.85,0,1.4,1.4,0,0,1-1.06-.61,2.78,2.78,0,0,1-.24-.69c-.06-.3-.1-.65-.14-1s-.09-.63-.11-.9a2.44,2.44,0,0,1,.42-1.41,1.91,1.91,0,0,1,1.38-1,9.9,9.9,0,0,1,1.36-.19,6.56,6.56,0,0,1,1.39.1,9.73,9.73,0,0,1,2.84.93,8.49,8.49,0,0,1,2.69,2.06,8.78,8.78,0,0,1,1.5,3.34,8.63,8.63,0,0,1,.17,2.56c0,.43-.07.78-.09,1.16a10.78,10.78,0,0,1-.16,1.14A9.79,9.79,0,0,1,55.56,32Z"/><path class="cls-1" d="M74.45,22.8c.13.42.71.81,1.06.58.12-.08,0-.36.1-.45a.84.84,0,0,0,.12-.82,2,2,0,0,0-.3-.57,3.71,3.71,0,0,0-.75-.73,4.23,4.23,0,0,0-2.45-.92A5,5,0,0,0,69.3,21c-.32.19-.77-.12-1-.78a2.48,2.48,0,0,1,0-1.22,2.24,2.24,0,0,1,.89-1.22,6.47,6.47,0,0,1,5.62-.63,6.61,6.61,0,0,1,1.25.53c.21.11.39.2.61.33l.69.47a6.46,6.46,0,0,1,1.32,1.26c.43.47.78,1,1.14,1.44a17.27,17.27,0,0,1,1.25,3.52A6,6,0,0,1,81,28.07a7.05,7.05,0,0,1-.7,1.59,5.9,5.9,0,0,1-1.18,1.27,5.7,5.7,0,0,1-3.31,1.18,8,8,0,0,1-4.2-.95A7.38,7.38,0,0,1,69.11,29a8.35,8.35,0,0,1-1.26-2.93,9.67,9.67,0,0,1,.21-5.19,7.08,7.08,0,0,1,.51-1.31,5.08,5.08,0,0,1,.66-1,1,1,0,0,1,.54-.29,2.64,2.64,0,0,1,1.51.4c.3.15.6.28.89.45a2.49,2.49,0,0,1,1.35,2.26c.21.57.51.67.69.69a.32.32,0,0,0,.26-.07.43.43,0,0,0,0,.43Z"/><path class="cls-1" d="M28.8,54.43a8.38,8.38,0,0,1-4.64,1.8,7.32,7.32,0,0,1-4.9-1.41l-.72-.57-.64-.63a4.76,4.76,0,0,1-1-1.49,8.07,8.07,0,0,1-.08-5.76,11.67,11.67,0,0,1,2.69-4.21A11.35,11.35,0,0,1,23,39.62,5.8,5.8,0,0,1,26,39.33a4.34,4.34,0,0,1,2.47,1.45c.36.46,0,.65-.59.78-.29,0-.67.15-1,.24s-.68.24-1,.31a3.2,3.2,0,0,0-1.32.68,10.93,10.93,0,0,0-1.3,1A11.31,11.31,0,0,0,21,46.69a3.15,3.15,0,0,0-.33,2,4.21,4.21,0,0,0,.72,1.54,2.6,2.6,0,0,0,1.38,1.1,3.08,3.08,0,0,0,2-.08,4.61,4.61,0,0,0,1.2-.72,3.87,3.87,0,0,0,.84-1.13,5.62,5.62,0,0,0,.45-2.36,5.25,5.25,0,0,0-.63-2.42,3.37,3.37,0,0,0-1.25-1.24A2.76,2.76,0,0,0,24,43.1l-.54.07a1.15,1.15,0,0,1-.85-.38,6.86,6.86,0,0,1-.83-1.17c-.13-.23-.29-.43-.4-.64a1.33,1.33,0,0,1-.06-1.16,2.09,2.09,0,0,1,1.15-1.36A4.18,4.18,0,0,1,24.08,38a5,5,0,0,1,1.77.1A7.5,7.5,0,0,1,29,39.77a9.47,9.47,0,0,1,2.89,5.74,11.6,11.6,0,0,1-.22,4.64,8.65,8.65,0,0,1-2.81,4.37Z"/><path class="cls-1" d="M56.71,50a7.37,7.37,0,0,1-2.13,3.75,6.8,6.8,0,0,1-3.88,1.75l-.69.12-.72,0a4.58,4.58,0,0,1-1.43-.06A8.13,8.13,0,0,1,43.7,53a5.3,5.3,0,0,1-.73-.91,5.43,5.43,0,0,1-.59-1A8,8,0,0,1,41.75,49l-.1-1c0-.32,0-.64,0-.95a4.9,4.9,0,0,1,.07-.94,4.73,4.73,0,0,1,.18-.91,5.7,5.7,0,0,1,2.73-3.58c.39-.25.43-.06.32.37-.06.22-.15.5-.26.79s-.18.68-.34,1a5,5,0,0,0-.21,3.35,29.91,29.91,0,0,0,1.66,2.64,3.1,3.1,0,0,0,1.46,1.11,11.9,11.9,0,0,0,1.77.3l.51.07.52-.05a3.21,3.21,0,0,0,1-.15A2.43,2.43,0,0,0,52.35,50,5,5,0,0,0,53,47.25a6.89,6.89,0,0,0-1.73-4.2,2.25,2.25,0,0,0-1.3-.67,1.32,1.32,0,0,0-1,.28c-.11.09-.19.21-.3.31a1.56,1.56,0,0,1-.37.1,1.91,1.91,0,0,1-.49-.17,4.43,4.43,0,0,1-1.13-.71c-.21-.15-.42-.28-.6-.43a1.42,1.42,0,0,1-.53-1,2.47,2.47,0,0,1,.36-1.6,4,4,0,0,1,1.14-1,5.68,5.68,0,0,1,1.6-.53,5.91,5.91,0,0,1,3.48.5,7.08,7.08,0,0,1,2.45,1.93A9.52,9.52,0,0,1,56,42.41a11.4,11.4,0,0,1,.93,3.68c0,.32,0,.63,0,.95s.05.63,0,1a9.88,9.88,0,0,1-.2,2Z"/><path class="cls-1" d="M68.69,45.73a1.81,1.81,0,0,0,1.93-.06c.15-.16-.21-.36-.09-.5a1.06,1.06,0,0,0,.19-1,1.34,1.34,0,0,0-.93-.84,1.8,1.8,0,0,0-1.55.48,3.27,3.27,0,0,0-.65.8.88.88,0,0,1-.17.23c-.11.13-.24.25-.35.39a9.65,9.65,0,0,0-.69.84c-.28.37-.46.26-.64-.23a5.21,5.21,0,0,1-.26-1,5.39,5.39,0,0,1,0-.71,1.89,1.89,0,0,1,.21-.9l.24-.55.29-.62c.11-.21.2-.42.31-.63l.41-.61a2.32,2.32,0,0,1,.92-.86c.32-.2.66-.51,1-.75a6.23,6.23,0,0,1,1.85-.6,8,8,0,0,1,1.74-.1,7.29,7.29,0,0,1,3,.88A8.3,8.3,0,0,1,77.71,41c.37.37.75.75,1.11,1.15a15.83,15.83,0,0,1,1,1.25,6.9,6.9,0,0,1,1.43,2.94A5.81,5.81,0,0,1,81,49.92a5.72,5.72,0,0,1-2.32,2.74A9.1,9.1,0,0,1,74.49,54a13,13,0,0,1-6.65-1.34,12.76,12.76,0,0,1-2.22-1.37l-.51-.44-.47-.52a6.9,6.9,0,0,1-.43-.59,3.37,3.37,0,0,1-.21-.31l-.12-.4-.24-.71c0-.25-.11-.51-.15-.78a2.85,2.85,0,0,1,.16-1.41,1.65,1.65,0,0,1,.51-.94,2.25,2.25,0,0,1,1.38-.69,2.12,2.12,0,0,1,.61,0,1.66,1.66,0,0,1,.74.4,3.88,3.88,0,0,1,.41.41.36.36,0,0,0,.6.07.3.3,0,0,0,.09-.23.73.73,0,0,0,.42.37Z"/><path class="cls-1" d="M31.24,74.24a7.89,7.89,0,0,1-2.09,3.44,7.14,7.14,0,0,1-3.58,1.82,8.48,8.48,0,0,1-2.6.21,5.61,5.61,0,0,1-1.11-.16,10,10,0,0,1-1.13-.3c-.38-.16-.76-.32-1.13-.5s-.74-.51-1.07-.79a7.68,7.68,0,0,1-.86-1.06l-.3-.6a1.56,1.56,0,0,1-.2-.62,4.84,4.84,0,0,1-.09-1.24,4.52,4.52,0,0,1,.15-1.12,9.46,9.46,0,0,1,1.4-3.3,8,8,0,0,1,3.13-2.87c.38-.2.37-.11.2.25l-.33.71a8.68,8.68,0,0,1-.39,1,8.34,8.34,0,0,0-.83,3.49,4.38,4.38,0,0,0,.17,1.36,1.6,1.6,0,0,0,.17.43,1.56,1.56,0,0,1,0,.39c.05.31.43.58.95.73.27.06.6.07.9.13a8.68,8.68,0,0,1,1,0A3.44,3.44,0,0,0,26.8,74a5,5,0,0,0,.67-2.56,5.43,5.43,0,0,0-1.42-3.91,2.58,2.58,0,0,0-1.29-.64,4.7,4.7,0,0,0-1.3,0c-.19,0-.37.11-.57.14-.35.12-.7-.13-1-.23a2.59,2.59,0,0,1-.78-.69c-.12-.14-.26-.27-.36-.41a.91.91,0,0,1-.12-.83,2.65,2.65,0,0,1,.71-1.16,2.41,2.41,0,0,1,1.06-.66,6.34,6.34,0,0,1,1.28-.37,5.35,5.35,0,0,1,2.86.32A7.32,7.32,0,0,1,29,64.61a9.29,9.29,0,0,1,1.6,2.2,10.4,10.4,0,0,1,.74,7.46Z"/><path class="cls-1" d="M51.34,68a3.44,3.44,0,0,0-1.3-.5,1.42,1.42,0,0,0-1.1.27,4.47,4.47,0,0,0-.74,1,9.19,9.19,0,0,0-.68,1.19A2.88,2.88,0,0,0,47.24,71a5.28,5.28,0,0,0,.45,2.8,6,6,0,0,0,1.64,2.13,7.53,7.53,0,0,0,3.07,1.34c.37.11.49.64.18,1.3a2.58,2.58,0,0,1-.85,1,2.39,2.39,0,0,1-1.52.44,8,8,0,0,1-7.47-7.58A11,11,0,0,1,43,68.71c.17-.58.33-1,.53-1.57a9.35,9.35,0,0,1,.83-1.51A7.18,7.18,0,0,1,47.57,63a6.79,6.79,0,0,1,4.06-.26,10.08,10.08,0,0,1,7.25,7.59,7.34,7.34,0,0,1,0,2.84,6.29,6.29,0,0,1-1.34,2.62,8,8,0,0,1-.88.87c-1.26.81-1.84.58-2.51-.36a7.13,7.13,0,0,1-.45-.67,2.28,2.28,0,0,1,.09-2.23c.56-.9.65-1.53.51-1.79a4.09,4.09,0,0,1-.21-.46c-.11-.2-.22-.44-.4-.72a6.21,6.21,0,0,0-2.39-2.38Z"/><path class="cls-1" d="M79.72,74.79a6.38,6.38,0,0,1-4,2.11,7.61,7.61,0,0,1-4-.69,8,8,0,0,1-2.28-1.47A8.42,8.42,0,0,1,68,72.84a6.52,6.52,0,0,1-.73-2.35,6.91,6.91,0,0,1,1-4.42,7.56,7.56,0,0,1,2.64-2.66,5.58,5.58,0,0,1,2.32-.76,4,4,0,0,1,2.33.59c.42.26.11.68-.38,1.11A11.13,11.13,0,0,1,73.7,65.5,4,4,0,0,0,71.94,67a5,5,0,0,0-.83,2.12c-.13.88.7,1.77,1.61,2.41a5.4,5.4,0,0,0,1.59.8,2.1,2.1,0,0,0,1.47-.05,2.13,2.13,0,0,0,.78-.6,2.33,2.33,0,0,0,.53-1,4.72,4.72,0,0,0,.18-2,3.39,3.39,0,0,0-.25-.9,3.46,3.46,0,0,0-.53-.78,2.34,2.34,0,0,0-2.43-.45c-.21,0-.41.15-.63.19-.82.19-1.18,0-1.65-1.21-.11-.27-.24-.54-.33-.81a1.68,1.68,0,0,1,.82-2.22A6.46,6.46,0,0,1,74.5,62a6.23,6.23,0,0,1,2.8.44,6.41,6.41,0,0,1,2.51,1.85,7.75,7.75,0,0,1,.8,1.19,7,7,0,0,1,.61,1.39,9,9,0,0,1,.34,2,9.07,9.07,0,0,1-.56,4,7.3,7.3,0,0,1-.52,1.05c-.21.33-.44.62-.67.93Z"/></g></svg>