<svg xmlns="http://www.w3.org/2000/svg" width="96" height="96" viewBox="0 0 96 96"><defs><style>.cls-1{fill:#231f20;}</style></defs><title>scribble final version</title><g id="Layer_1" data-name="Layer 1"><path class="cls-1" d="M15.71,48.62q.73,3.56,1.4,7.15c.17.87.38,1.73.51,2.61.44,3.11.76,6.24.93,9.39.12,1.39.11,2.8.15,4.18,0,.89,0,1.8-.09,2.69a15.13,15.13,0,0,1-.47,2.66c-.14.54-.46.4-.77-.11a4.93,4.93,0,0,1-.66-2.34l-.17-2.59c-.11-.87-.21-1.73-.29-2.59s-.17-1.74-.23-2.61-.15-1.76-.22-2.64A48.62,48.62,0,0,0,14.59,58c-.5-2.35-1-4.72-1.5-7.08-.33-1.45-.65-2.91-1-4.36-.54-2.19-1-4.42-1.64-6.59-.45-1.69-1-3.32-1.5-5-.1-.37-.23-.73-.3-1.11s-.08-.66-.09-.92a2.31,2.31,0,0,1,.11-.65,1.46,1.46,0,0,1,.57-.79,2.7,2.7,0,0,1,.36-.26c.39-.2.92.3,1.47,1.23.65,1.41,1.14,2.89,1.68,4.4.24.76.49,1.52.74,2.28l.61,2.35c.6,2.35,1.14,4.72,1.69,7.1Z"/><path class="cls-1" d="M27.92,24.47a111.36,111.36,0,0,0-16.75,7.07l-.69.39a2.26,2.26,0,0,0-.26.16c-.06.07-.21.11-.17.21l.11.28c.08.19,0,.06.27.85,1.18,4,2.06,7.9,2.91,11.86s1.6,7.91,2.29,11.88c.6,3.53,1.21,7.07,1.81,10.57.72,4.5,1.5,9.07,1.17,13.73-.1,1.46-1,1.23-1.88.07a13.15,13.15,0,0,1-2.32-5.74c-1.34-9-3.41-17.89-4.92-27C9,46.19,8.38,43.59,7.66,41c-.38-1.28-.75-2.59-1.17-3.85-.2-.63-.39-1.28-.62-1.89l-.35-1c-.18-.56-.42-1.08-.61-1.61l-.15-1.22-.1-.83h0l.2.06v-.09l0-.1.05-.19a1,1,0,0,1,.15-.37,5.44,5.44,0,0,1,1.34-1.21c.54-.35,1.09-.7,1.64-1L9.13,27c1.41-.79,2.84-1.52,4.28-2.22,2.87-1.4,5.8-2.67,8.76-3.85,3.64-1.44,7.35-2.72,11.1-3.86a148.09,148.09,0,0,1,17.3-4.05c2.26-.4,4.5-.82,6.75-1.19a61.82,61.82,0,0,1,6.8-.8c1-.06,2-.15,3-.15a13.46,13.46,0,0,1,2.39.18,7.91,7.91,0,0,1,1.6.43,2.93,2.93,0,0,1,1.65,1.57,5.42,5.42,0,0,1,.45.95c.25,1.05-1.3,1.78-3.92,2.19-7.73,1.08-15.69,1.82-23.7,3.5A134,134,0,0,0,28,24.59Z"/><path class="cls-1" d="M62.83,70.12c-3.48.51-7,1.16-10.42,2-1.26.31-2.48.75-3.73,1.08-2.22.54-4.44,1.15-6.65,1.77s-4.44,1.23-6.62,2c-1.95.63-3.85,1.41-5.71,2.21a58.07,58.07,0,0,1-7.39,2.69c-.8.22-.87-.19-.47-.94A8.67,8.67,0,0,1,24.35,78l1.71-1.14.85-.57.91-.46c1.2-.62,2.43-1.19,3.66-1.75a62.06,62.06,0,0,1,7.64-2.87c3.16-.85,6.29-2.2,9.49-3.17,3.52-1.05,7.1-1.94,10.7-2.71,2.22-.48,4.46-.87,6.7-1.25,3.4-.56,6.84-.91,10.29-1.16l4-.37c.68-.07,1.37-.08,2.06-.13s1.38,0,2.09.14a13.63,13.63,0,0,1,1.87.28A4.77,4.77,0,0,1,88.71,64a2,2,0,0,1,.46,1.72,4.63,4.63,0,0,1-.16.93,1.73,1.73,0,0,1-1,1A4.31,4.31,0,0,1,86.3,68c-1,0-2,.1-3.08.2a28.53,28.53,0,0,1-3.21.24c-2.18.11-4.45.27-6.75.51-3.42.29-6.92.7-10.4,1.31Z"/><path class="cls-1" d="M66.18,42.88a114.73,114.73,0,0,0-7.47,9.5c-.85,1.21-1.54,2.51-2.33,3.73l-.28.44-.36.57c-.32.53-.6,1.1-.92,1.6A20.89,20.89,0,0,0,52.65,60a1.37,1.37,0,0,1-.2.13l-.27,0-.55,0c-.38,0-.9,0-1.34,0l-.42-.15a4.23,4.23,0,0,1-.4-.34l-.78-.68-.77-.68a6.57,6.57,0,0,0-.68-.65L45.48,56.1,42,52.8c-1.71-1.63-3.49-3.2-5.23-4.77-1.11-1-2.26-2-3.36-3S31.26,43,30.19,41.9c-.65-.66-.37-.85.51-.7a11.93,11.93,0,0,1,3.93,1.52c2.6,1.7,5.11,3.48,7.56,5.33s4.78,3.84,7.07,5.82l.59.49c.13.14.12.15.19.22l.17.18.09.09s.07.16.1.23a1.27,1.27,0,0,1,.3.09l.15.11.08,0s0,0,0-.08c.08-.19.19-.38.28-.58,0,0,.91-1.65,1.57-2.66a118.25,118.25,0,0,1,7.42-10.32c1.62-2,3.32-4,5.06-5.95a107.14,107.14,0,0,1,8.47-8.31c1.16-1,2.28-2.05,3.45-3.05A24.7,24.7,0,0,1,81,21.6a18.73,18.73,0,0,1,1.8-1,6.06,6.06,0,0,1,2.71-.75,2.21,2.21,0,0,1,1.56.82,5.61,5.61,0,0,1,.56.66c.46.79-.22,1.84-1.56,2.82-2,1.42-3.83,3.17-5.82,4.75s-3.88,3.41-5.77,5.29c-1.38,1.41-2.79,2.82-4.16,4.28s-2.71,3-4,4.53Z"/></g></svg>