<svg xmlns="http://www.w3.org/2000/svg" width="96" height="96" viewBox="0 0 96 96"><defs><style>.cls-1{fill:#231f20;}</style></defs><title>scribble final version</title><g id="Layer_1" data-name="Layer 1"><path class="cls-1" d="M70.25,63.25a46.09,46.09,0,0,0-5,2.88c-.57.41-1.09.86-1.64,1.28a24,24,0,0,0-5.18,5.09A12.8,12.8,0,0,0,57,75.33c-.27.63-.37,1.3-.64,1.93-.11.33-.23.65-.35,1s-.21.67-.34,1-.45.34-.78-.08a3.54,3.54,0,0,1-.7-2.15,6.67,6.67,0,0,1,.5-2.34l.44-1.11.54-1.07a15.92,15.92,0,0,1,2.87-3.73c1.33-1.3,2.61-2.7,4.07-3.87a53.83,53.83,0,0,1,5-3.47c1-.66,2.12-1.27,3.19-1.89,1.6-1,3.28-1.75,4.83-2.72a32.71,32.71,0,0,0,3.29-2.51l.62-.58c.79-.67,1-.71,1.82-.4.18.07.37.12.54.2a.77.77,0,0,1,.48.7,1.9,1.9,0,0,1-.4,1.19,14.65,14.65,0,0,1-3,3,39.23,39.23,0,0,1-3.44,2.15c-1.71,1-3.49,1.84-5.2,2.78Z"/><path class="cls-1" d="M79.15,28.72c-.18-.25-.35-.5-.54-.74L78,27.31,76.73,26l-1.41-1.22-.7-.62-.76-.55-1.54-1.1c-.53-.34-1.09-.64-1.64-1a29.61,29.61,0,0,0-3.42-1.73,46.56,46.56,0,0,0-15.19-3.44,50.19,50.19,0,0,0-11.43.81,50.41,50.41,0,0,0-18.79,7.4,30.71,30.71,0,0,0-7.32,6.72,20.74,20.74,0,0,0-4,8.8,14.38,14.38,0,0,0,.9,8.26,22.8,22.8,0,0,0,4.82,7.3,35.3,35.3,0,0,0,14.59,9c.92.27,1.85.56,2.79.82a28.35,28.35,0,0,0,2.88.61c2.42.34,2.17.61,0,1.18a25.78,25.78,0,0,1-4.66.65,19.47,19.47,0,0,1-6.65-1.12A36.08,36.08,0,0,1,19.12,64c-1-.55-1.92-1.16-2.84-1.8A31.61,31.61,0,0,1,13.66,60a27.64,27.64,0,0,1-7.8-11.49A18,18,0,0,1,5,41.11a24.28,24.28,0,0,1,.7-3.59l.21-.86.31-.84.63-1.66a28.52,28.52,0,0,1,8.39-10.84A54.39,54.39,0,0,1,29,15.25a64.83,64.83,0,0,1,7.58-2.54l2-.47,2-.36c1.31-.27,2.65-.37,4-.53a55.56,55.56,0,0,1,17.39,1.27,47,47,0,0,1,8.3,2.84,39.76,39.76,0,0,1,7.65,4.43,32.4,32.4,0,0,1,7.46,8,25.38,25.38,0,0,1,4,10.3,20.76,20.76,0,0,1-.37,8.51A20.49,20.49,0,0,1,85,54.33c-3.62,4.39-8.34,7.19-12.65,9.93a41.92,41.92,0,0,0-8.6,6.81,16.85,16.85,0,0,0-2.86,4.19c-.15.38-.35.74-.47,1.13l-.12.38c-.06.17-.12.33-.17.52a4.67,4.67,0,0,0-.22,1.19l-.09,1.31,0,.67,0,.8c0,1.1,0,2.18.14,3.31l-.82.16a.23.23,0,0,0-.18.08l-.11.1-.22.19-.11.09s-.07,0-.15,0l-.2-.06c-.28-.08-.48-.18-.72-.26a13.21,13.21,0,0,1-2.65-1.34,12.51,12.51,0,0,1-1.27-1.06c-.42-.37-.81-.81-1.19-1.18-.74-.81-1.42-1.58-2-2.32l-.4-.51-.24-.32-.43-.62c-.27-.39-.49-.76-.68-1.1a6.53,6.53,0,0,1-.7-1.81,4.35,4.35,0,0,1,0-1.57,7.92,7.92,0,0,1,.23-1.34c.23-.61,1-.5,2.07.16A10.32,10.32,0,0,1,52,73.28c.34.31.68.66,1,1l.55.59.29.31.1.09,0,0A4.62,4.62,0,0,0,55,76c.12,0,.25.1.35,0s-.08-.46-.1-.66,0-.26,0-.36v-.15c0-.09,0,0,0-.24A19.22,19.22,0,0,1,57.51,70,30.81,30.81,0,0,1,64,63.12c2.39-1.94,4.86-3.55,7.19-5.13s4.57-3.05,6.46-4.67a17.81,17.81,0,0,0,4.39-5.17,14.61,14.61,0,0,0,1.22-3,13.27,13.27,0,0,0,.46-3.24,18.93,18.93,0,0,0-1.13-6.84,16.38,16.38,0,0,0-1.54-3.22c-.32-.52-.6-1.06-.93-1.57l-1.11-1.46Z"/><path class="cls-1" d="M53.7,42.34a4.28,4.28,0,0,1-.29,2.4,4.64,4.64,0,0,1-.48.94c-.11.15-.18.29-.31.44s-.29.32-.44.46a4,4,0,0,1-.75.61,2,2,0,0,1-.93.38,3.54,3.54,0,0,1-2.69-.63,5.54,5.54,0,0,1-1.44-1.51,6.47,6.47,0,0,1-.88-1.6,5.79,5.79,0,0,1-.17-.63c0-.23,0-.47,0-.71a4.4,4.4,0,0,1,.14-.65,1.32,1.32,0,0,1,.48-.49c.25-.18.81.31,1.41.78a3.82,3.82,0,0,0,1.31.74c.1-.13.25-.19.28,0s.15.47.25.78a.35.35,0,0,0,.26.26s0,0,0,0a1,1,0,0,0,0,.24.2.2,0,0,0,0,.1.14.14,0,0,0,0,.06s0,0,0,0l-.05-.06S49.3,44,49.31,44s0,0,0,0a.22.22,0,0,1,0-.08l.08-.08.05-.12c0-.08.1-.17.09-.2s.1-.12.07-.24a.88.88,0,0,0-.9-.32.83.83,0,0,0-.18.13,1,1,0,0,0-.07.16s0,0,0,0a.64.64,0,0,0-.05-.11,1.16,1.16,0,0,0-.2-.25.36.36,0,0,0-.11-.14s-.16-.09-.12-.08,0,0,0,0h.08a.44.44,0,0,0,.26,0,1.66,1.66,0,0,0,.4-.1l-.07,0-.23.11c-.17.09-.37.2-.61.35s-.44.28-.65.42c-.7.5-1.49.65-2.07,0a3.56,3.56,0,0,1-.38-1.18,3.92,3.92,0,0,1,.29-1.46,4.36,4.36,0,0,1,.79-1.1,4.11,4.11,0,0,1,.88-.67A4.42,4.42,0,0,1,50,38.64a5.22,5.22,0,0,1,2.26,1.1,4.68,4.68,0,0,1,1.55,2.57Z"/><path class="cls-1" d="M36,44.53a4.52,4.52,0,0,1-.15,3,5.72,5.72,0,0,1-1.78,2.28,4.74,4.74,0,0,1-1.72,1,3,3,0,0,1-.84.08,2.54,2.54,0,0,1-.87-.14,3.16,3.16,0,0,1-1.59-1,5.33,5.33,0,0,1-1.25-2.55,7.7,7.7,0,0,1-.1-2.24,2.91,2.91,0,0,1,1.46-2.48c.29-.14.58.31.89.85.16.26.33.54.49.76a4.33,4.33,0,0,1,.35.51,4.44,4.44,0,0,0,.49,1c0,.08.1.15.09.24a2.11,2.11,0,0,0,0,.26,2.25,2.25,0,0,0,0,.26v.25a.5.5,0,0,0,0,.19s0,0,0,0a.27.27,0,0,0-.06.12.88.88,0,0,0-.05.15h0c.15-.49,0-.13.07-.24h0s.08,0,.16,0l.21-.07a1.13,1.13,0,0,0,.75-.85,1,1,0,0,0-.35-.81,1.6,1.6,0,0,0-1.45-.45.53.53,0,0,0-.36.42v.1h0l-.07,0h0l.14.06c.09,0,.1,0,.13.1s.1.1.1.15a.32.32,0,0,1,0,.19,1.83,1.83,0,0,1-.24.22,5.27,5.27,0,0,1-.94.51l-.59.28a1.72,1.72,0,0,1-1.92-.27,3.3,3.3,0,0,1-.63-1.71,2.75,2.75,0,0,1,.17-1.2,4.17,4.17,0,0,1,.53-1.06,4.31,4.31,0,0,1,3.59-1.69,6.29,6.29,0,0,1,3.28,1,5.32,5.32,0,0,1,2.11,2.65Z"/><path class="cls-1" d="M29.33,47.2a7.67,7.67,0,0,0,.19-.76c0-.09-.07-.13,0-.22a9.6,9.6,0,0,0,.27-1,.36.36,0,0,0-.16-.31c-.13-.1-.4-.11-.13-.42S32.6,42.79,32.78,43a1,1,0,0,1,.06,1.25c-.18.32.07.46.1.69a6.26,6.26,0,0,1,0,.75,3.3,3.3,0,0,0,0,.45c0,.22,0,.46.1.63s.39.19.6.27c.05,0,.13,0,.16,0s0,.1-.2.22l-.37.18-.6.27-.52.23a7.2,7.2,0,0,1-1.67.53c-.78,0-1-.28-1.16-.56a1.65,1.65,0,0,1-.05-.7Z"/><path class="cls-1" d="M69.79,41a5.43,5.43,0,0,1-1.08,2,4,4,0,0,1-1,.85c-.2.12-.39.23-.59.33a4.44,4.44,0,0,1-.62.19,4,4,0,0,1-1.71.18,5.24,5.24,0,0,1-.83-.25,5.53,5.53,0,0,1-.68-.4,4.41,4.41,0,0,1-.9-1,5.88,5.88,0,0,1-.81-2,4.31,4.31,0,0,1-.16-1.89,4.73,4.73,0,0,0,0-.65,1.86,1.86,0,0,1,.27-.57c.29-.32.51-.67,1.07-.64a1.11,1.11,0,0,1,.64.4l.4.43.35.4a5.08,5.08,0,0,0,1.15,1s0,0,0,0l0,0,0,0h0s0,0,0,0a4.44,4.44,0,0,0-.23.69c-.07.22,0,.26,0,.31a1.58,1.58,0,0,0-.18.41s0,.05,0,.08v0h0c0-.25-.06.58,0-.57h0s0,0,0,0v0a1,1,0,0,1,0,.12.22.22,0,0,0,0,.1c.06.15,0,0,0,0h0s0,0,0,0h0s.07-.07.14-.11a1.28,1.28,0,0,0,.24-.68c0-.4,0-.89-.26-1s-.25.28-.27.51c0,0,0,.14,0,.1s-.18-.07-.34-.29-.36-.51-.65-.94l-.39-.57a2,2,0,0,1-.29-2,2.05,2.05,0,0,1,.45-.6,2.61,2.61,0,0,1,.72-.38c.13,0,.25-.1.39-.13a3.89,3.89,0,0,1,.49,0,4.13,4.13,0,0,1,1,0,4.58,4.58,0,0,1,3,2.3A5.9,5.9,0,0,1,69.9,41Z"/></g></svg>