<?xml version="1.0" encoding="UTF-8"?><svg id="Layer_1" xmlns="http://www.w3.org/2000/svg" width="520" height="520" viewBox="0 0 520 520"><defs><style>.cls-1{opacity:.65;}.cls-1,.cls-2,.cls-3,.cls-4,.cls-5,.cls-6,.cls-7{fill:#231f20;stroke-width:0px;}.cls-2{opacity:.35;}.cls-3{opacity:.8;}.cls-4{opacity:.25;}.cls-5,.cls-8{opacity:.45;}.cls-6{opacity:.55;}</style></defs><path class="cls-7" d="m162.3,446.15c-.52,1.47-1.21,2.88-2.08,4.24-.88,1.32-1.83,2.47-2.87,3.6-.79.79-1.51,1.64-2.41,2.31-3.05,2.48-6.9,4.07-10.82,4.18-1.72.03-3.49-.03-5.11-.58-.53-.15-1.05-.3-1.54-.55-.49-.24-1.02-.4-1.47-.71-.46-.29-.93-.55-1.35-.89-.38-.38-.76-.76-1.14-1.15-.46-.48-.36-.45.21-.3.28.08.69.17,1.17.27.24.06.5.1.77.14.26.07.52.15.78.25,3.76,1.34,7.58,1.44,11.3.19,2.25-.68,4.31-2.19,6.07-3.88.97-.94,1.89-1.93,2.7-3.03.85-1.1,1.51-2.19,2.06-3.44.67-1.52,1.17-3.14,1.46-4.8.42-2.51.45-5.13-.15-7.59-.48-1.92-1.46-3.61-2.48-5.21-.25-.34-.52-.66-.75-1.01-.9-1.28-1.09-1.77-.62-2.61.1-.19.18-.4.3-.57.4-.56,1.25-.37,2.24.55,2.89,2.73,4.69,6.95,5,11.22.3,3.18-.21,6.37-1.18,9.37l-.08-.02Z"/><path class="cls-5" d="m413.92,432.7c-6.81,4.97-19.37,4.93-24.43-1.97-5.09-6.96-4.58-19.03,3.45-24.9,9.14-6.68,20.95-3.34,26.42,4.33,5.22,7.3,1.2,17.68-5.45,22.54Z"/><path class="cls-2" d="m387.2,85.45c-10.7-2.63-21.29,6.09-17.43,18.62,1.89,6.13,7.25,10.56,13.14,10.56,8.36,0,13.54-7.85,13.82-15.47.23-6.08-2.65-12.02-9.53-13.71Zm-6.21,18.47c-1.38,0-2.5-1.11-2.5-2.49s1.7-3.41,3.08-3.41,1.92,2.03,1.92,3.41-1.12,2.49-2.5,2.49Z"/><path class="cls-7" d="m176.5,146.28c-2.01,1.12-1.35,3.46-.15,6.18,1.98,4.5,8.79,8.07,11.63,6.9,2.84-1.17,3.17-8.25,2.55-11.41-.7-3.57-4.12-3.99-5.5-.97-.83,1.82-4.83-2.77-8.54-.7Z"/><path class="cls-2" d="m96.05,84.59c-.2,8.86-7.27,16.57-17.56,16.57-14,0-23.26-18.01-13.44-28.79,9.65-10.6,31.39-5.15,31,12.22Z"/><path class="cls-7" d="m449.73,320.35s7.51,29.27,19.65,34.7c8.66,3.88,15.42-27.05,13.55-39.12-1.87-12.07-1.43-17.21-1.43-17.21,0,0-18.26,14.13-24.5,17.35-6.24,3.22-7.27,4.27-7.27,4.27Z"/><path class="cls-7" d="m471.46,231.52c1.39,3.62,2.49,7.33,3.57,11.03.37,1.36.79,2.7,1.14,4.05,1.15,4.81,2.12,9.65,2.95,14.5.39,2.15.76,4.31,1.1,6.45.44,2.75.9,5.5.79,8.33.05.87-.01.76-.27.06-.12-.35-.37-.84-.69-1.43-.28-.59-.53-1.3-.75-2.07-.17-.69-.41-1.36-.56-2.05l-.46-2.07-.93-4.13c-.5-2.77-1-5.55-1.5-8.35-.3-1.67-.68-3.37-1.14-5.04-.44-1.69-.92-3.37-1.41-5.03-1.01-3.68-2.21-7.3-3.49-10.89-.86-2.18-1.67-4.39-2.68-6.5-.37-.8-.73-1.62-1.11-2.42l-1.22-2.37c-.77-1.6-1.74-3.08-2.65-4.58-1.51-2.28-3.21-4.35-5.02-6.33-.4-.44-.77-.88-1.2-1.29-1.48-1.62-1.78-2.29-1.56-3.18.05-.2.08-.43.16-.6.27-.57,1.25-.23,2.55.86,3.82,3.3,6.93,7.7,9.54,12.3,1.87,3.46,3.52,7.05,4.91,10.71l-.06.03Z"/><path class="cls-7" d="m435.74,229.43c.7-.34-3.06-31.55,5.71-36.28,8.37-4.52,19.82,16.77,19.82,16.77l-25.53,19.51Z"/><path class="cls-7" d="m96.58,339.39c.38-2.02.81-4.03,1.26-6.03.17-.73.25-1.47.46-2.19.68-2.55,1.42-5.08,2.19-7.59.35-1.11.71-2.23,1.06-3.33.44-1.42.94-2.83,1.56-4.19.19-.42.27-.33.29.09.01.42-.01,1.16-.17,2-.63,2.95-.97,5.94-1.9,8.83-.5,1.74-.75,3.62-1.1,5.43-.41,2-.81,3.99-1.16,6-.21,1.24-.43,2.47-.59,3.71-.26,1.88-.5,3.77-.59,5.65-.06,1.46.06,2.9.18,4.32.01.31.04.62.04.94.02.58-.04.97-.16,1.25-.16.28-.35.45-.6.6-.11.07-.22.15-.32.19-.17.07-.33-.01-.53-.22-.19-.21-.45-.54-.56-.99-.39-1.33-.53-2.71-.5-4.1-.02-1.39.09-2.79.21-4.19.22-2.07.53-4.13.87-6.18h.06Z"/><path class="cls-7" d="m100.52,324.75c.43-1.95.99-3.87,1.48-5.81.56-1.92,1.13-3.83,1.74-5.73.47-1.38.84-2.79,1.32-4.16,1.78-4.81,3.84-9.52,6.16-14.08.54-1,1.06-2.01,1.58-3.02.56-.99,1.11-1.98,1.66-2.96.34-.64.72-1.26,1.1-1.87.38-.62.78-1.22,1.19-1.82.81-1.2,1.79-2.29,2.71-3.4.59-.68.71-.44.53.37-.18.8-.6,2.19-1.34,3.64-.32.65-.61,1.32-.96,1.95-.34.64-.72,1.24-1.02,1.9-.62,1.3-1.3,2.56-1.91,3.87-.59,1.31-1.2,2.62-1.84,3.91-.62,1.31-1.24,2.62-1.86,3.94-1.44,3.18-2.5,6.66-3.52,10.07l-.85,2.82c-.28.94-.51,1.9-.77,2.84-.53,1.89-1,3.8-1.45,5.72-.3,1.17-.54,2.36-.78,3.55-.23,1.19-.51,2.37-.7,3.57-.62,3.62-1.21,7.26-1.48,10.9-.09,1.41-.15,2.82-.15,4.22.03,1.4.04,2.8.04,4.19-.01.61.05,1.22.05,1.84-.03,2.3-.35,3.02-1.29,3.51-.22.11-.43.26-.64.32-.71.22-1.3-.73-1.55-2.46-.35-2.56-.44-5.19-.37-7.86.14-2.66.33-5.36.71-8.05.13-1,.25-2,.41-2.99l.52-2.98c.32-1.99.78-3.96,1.18-5.94h.09Z"/><path class="cls-7" d="m47.57,254.71c-1.05,2.88-2.02,5.8-2.89,8.76-.33,1.08-.52,2.19-.83,3.27-1.07,3.82-2.02,7.69-2.88,11.59-.4,1.73-.65,3.49-.96,5.22-.2,1.11-.37,2.23-.59,3.34-.23,1.11-.54,2.21-.85,3.31-.21.68-.39.56-.61-.07-.21-.63-.57-1.79-.62-3.12.09-2.33.21-4.66.62-6.95.36-2.3.79-4.6,1.44-6.86.73-2.71,1.19-5.6,1.89-8.39.76-3.07,1.66-6.1,2.63-9.11.64-1.84,1.28-3.68,1.98-5.5,1.02-2.77,2.26-5.46,3.42-8.15.47-1.04.93-2.07,1.35-3.12.44-1.04.97-2.04,1.47-3.05.23-.44.41-.9.71-1.31.51-.78.92-1.25,1.31-1.52.37-.27.68-.37,1.03-.38.16,0,.33-.04.46-.01.42.07.37.93-.01,2.24-.7,1.86-1.49,3.71-2.27,5.58-.42.92-.83,1.85-1.25,2.79-.4.94-.81,1.89-1.21,2.83-1.16,2.83-2.31,5.7-3.27,8.63l-.08-.02Z"/><path class="cls-7" d="m75.18,347.32s-1,44.86-11.79,44.86c-9.51,0-23.93-27.61-23.93-46.06s-.23-16.7-.23-16.7l35.95,17.9Z"/><path class="cls-7" d="m84.38,250.67s-.54-49.98-9.2-49.96c-11.99.03-25.67,36.68-25.67,36.68l25.14,12.08,9.73,1.2Z"/><path class="cls-4" d="m172.7,281.15l36.74,13.46s24.95-14.15,28.92-12.79c3.97,1.36-2.06,12.88-2.06,12.88,0,0-3.66,7.15,2.5,8.24,6.17,1.09,19.27-13.24,19.27-13.24,0,0,18.71,5.46,22.16,9.03,3.45,3.56,15.49,10.64,18.03,15.42,2.55,4.78-4.37,15.46-4.37,15.46,0,0-.7,11.14-4.37,13.17-3.67,2.03-5.03,10.97-7.91,12.29-8.45,3.88-25.59-10.92-25.59-10.92,0,0-.16-5.22-3.04-4.3s-5.62,2.94-5.62,2.94c0,0-4.9-12.16-6.37-11.51-1.47.65-5.94,4.39-5.94,4.39,0,0-3.85-6.82-5.19-7.96s-6.52,4.12-6.52,4.12l-5.23,11.33s-9.93-7.56-12.18-5.94c-2.25,1.62-4.1,2.53-4.1,2.53,0,0-10.17-9.6-13.68-8.94-3.52.66-39.94,1.57-39.94,1.57,0,0,7.52-23.42,13.23-32.53,5.71-9.11,11.24-18.67,11.24-18.67Z"/><path class="cls-7" d="m200.49,292.27s3.38,3.52,2.73,4.53c-.65,1.01,2.73-3.57,2.73-3.57l-5.46-.95Z"/><path class="cls-7" d="m184.54,287.02s4.69-15.73,1.07-17.87c-4.56-2.69-12.07,12.49-12.07,12.49l10.99,5.37Z"/><path class="cls-7" d="m167.55,331.26s-9.34,27.2-16.37,27.19c-5.13,0-4.83-14.13-4-19.55.83-5.42,4.57-6.54,4.57-6.54l15.81-1.1Z"/><path class="cls-7" d="m350.21,283.23c1.32,1.95,2.58,3.94,3.73,6,.44.73.9,1.46,1.29,2.22,1.36,2.7,2.52,5.51,3.42,8.38.23.63.42,1.27.62,1.9.2.64.44,1.26.62,1.89.37,1.65,1.06,3.27.6,5.07-.06.54-.1.47-.43.09-.16-.19-.47-.45-.81-.76-.16-.16-.39-.31-.53-.5-.11-.19-.21-.4-.29-.62-.27-.79-.61-1.55-.89-2.33l-.8-2.34c-.24-.79-.55-1.56-.83-2.34-.26-.79-.56-1.57-.85-2.35-.65-1.91-1.79-3.68-2.81-5.46-.55-.99-1.18-1.94-1.76-2.91-.64-.94-1.24-1.91-1.91-2.83l-1.23-1.71-1.3-1.66c-1.33-1.66-2.71-3.31-4.2-4.82-1.17-1.17-2.46-2.16-3.73-3.19-.28-.23-.57-.43-.84-.67-.97-.93-1.12-1.38-.73-2.22.08-.18.14-.38.24-.53.29-.51,1.15-.61,2.02-.07,1.34.75,2.51,1.74,3.7,2.76.58.52,1.15,1.06,1.71,1.62.56.56,1.08,1.16,1.61,1.75.79.88,1.52,1.82,2.27,2.73.71.95,1.45,1.88,2.13,2.86l-.06.05Z"/><path class="cls-7" d="m343.27,313.64c.38,1.51,12.42,31.64,20.04,26.09,8.73-6.36-3.03-30.62-3.03-30.62l-17.01,4.53Z"/><path class="cls-7" d="m330.57,275.72s-3.66-11.6,0-12.43,8.5,8.32,8.5,8.32l-8.5,4.11Z"/><path class="cls-7" d="m169.64,328.84c3.12-.04,6.26.03,9.39.27,1.14.09,2.29.09,3.44.24,4.02.55,8,1.57,11.79,3.07,1.68.68,3.35,1.39,4.92,2.28,2.03,1.1,3.95,2.54,5.22,4.53.4.61.18.68-.52.58-.69-.13-1.98-.22-3.06-.78-1.01-.43-1.93-.95-2.88-1.41l-2.9-1.31c-1.94-.87-3.98-1.61-6.08-2.3-2.52-.83-5.32-.99-8.04-1.25-3-.29-6.04-.38-9.09-.36-1.88.01-3.76.07-5.64.19-2.85.18-5.72.39-8.54.79-2.19.31-4.31.86-6.47,1.29-.48.09-.94.22-1.42.29-1.8.25-2.41,0-2.9-.85-.11-.2-.25-.39-.33-.59-.25-.67.41-1.35,1.68-1.8,3.78-1.25,7.88-1.83,12.05-2.31,3.1-.34,6.24-.53,9.39-.66v.09Z"/><path class="cls-7" d="m86.77,82.03c-1.02,0-2.36.34-3.66.79-1.32.45-2.69.98-4.18,1.41-1.09.3-2.23.7-3.63.64-.62-.03-1.25-.14-1.94-.45-.18-.09-.36-.17-.53-.27l-.48-.35c-.31-.24-.57-.54-.75-.88-.18-.35-.3-.72-.38-1.1-.08-.45-.08-.72-.08-1.05.02-.61.13-1.18.27-1.71.62-2.11,1.81-3.86,3.34-5.24,1.35-1.22,2.93-2.19,4.61-2.81,1.08-.38,2.21-.72,3.35-.72,1.14-.03,2.29.06,3.32.6.65.32.49.55-.11,1.01-.62.45-1.61,1.29-2.62,1.47l-.68.16c-.22.07-.43.14-.66.17-.44.1-.86.2-1.28.34-.83.28-1.62.65-2.35,1.11-.73.46-1.39,1.04-2.01,1.67-.63.62-1.17,1.35-1.6,2.12-.25.46-.44.96-.52,1.44-.04.24-.05.46-.04.65,0,.09.03.2.07.3.05.1.14.16.23.21.05.03.1.04.14.07.07.02.18.04.26.07.38.08.89.08,1.44,0,1.21-.16,2.55-.61,3.9-1.08,1.36-.47,2.75-.99,4.26-1.39.94-.22,1.93-.43,3.05-.32.55.03,1.14.2,1.68.45.55.27,1.03.67,1.41,1.12.27.35.51.67.69,1.18.11.23.15.47.18.71.03.24.07.48.04.7-.01.93-.37,1.67-.7,2.39-.76,1.37-1.81,2.43-2.91,3.36-1.74,1.41-3.63,2.57-5.69,3.39-.45.18-.89.39-1.37.5-.44.12-.81.2-1.12.24-.32.02-.58-.02-.8-.07-.22-.06-.4-.15-.55-.28-.16-.15-.29-.34-.41-.53-.11-.18-.24-.33-.31-.47-.21-.41.35-1.39,1.43-1.8,1.61-.66,3.18-1.38,4.61-2.25,1.42-.87,2.76-1.87,3.65-3,.2-.2.28-.42.43-.62.09-.19.22-.4.27-.56.17-.38.09-.53.14-.52-.23-.42-.36-.73-1.42-.72v-.08Z"/><path class="cls-7" d="m101.09,251.66c7.25.94,14.56,1.61,21.89,2.12,2.68.19,5.36.24,8.04.41,9.45.6,18.92,1.12,28.4,1.92,4.21.36,8.45.7,12.64,1.28,2.69.38,5.39.87,8.05,1.73,1.32.42,2.65.95,3.89,1.71,1.2.78,2.44,1.74,3.1,3.15.19.44.19.81.21,1.02.01.22-.01.32-.07.33-.14.03-.38-.37-1.02-.75-.61-.39-1.45-.81-2.51-1.13-.51-.18-1.12-.3-1.73-.47-.61-.18-1.27-.35-1.94-.57-2.45-.71-5.06-1.13-7.7-1.47-2.64-.39-5.32-.68-8.01-.94-5.39-.51-10.86-.87-16.35-1.31-6.57-.54-13.45-.6-20.21-.96-7.43-.4-14.87-.93-22.29-1.7-4.57-.47-9.13-1.06-13.67-1.76-6.88-1.08-13.74-2.56-20.41-4.51-5.18-1.51-10.26-3.2-15.1-5.69-1.05-.59-2.1-1.11-3.11-1.79-3.78-2.48-4.59-3.83-4.67-5.13-.01-.3-.08-.65-.03-.88.2-.81,1.86-.03,4.45,1.57,7.78,4.66,16.94,7.84,26.48,10.02,7.08,1.62,14.36,2.8,21.67,3.69v.1Z"/><path class="cls-7" d="m78.53,345.5c5.38,2.28,10.83,4.4,16.36,6.29,2.02.7,4.08,1.24,6.1,1.9,7.14,2.33,14.38,4.45,21.75,5.88,3.27.64,6.59,1.12,9.87,1.39,2.11.21,4.23.22,6.33.29,1.06.05,2.11.05,3.16.07l3.17-.05c1.33,0,1.21.2.15.78-1.04.64-3.11,1.55-5.66,1.89-9.02.72-17.93-.65-26.53-2.97-5.14-1.41-10.56-2.56-15.75-4.22-5.7-1.8-11.33-3.83-16.88-6.04-3.41-1.37-6.8-2.78-10.16-4.26-5.1-2.23-10.12-4.67-15.07-7.12-3.84-1.91-7.69-3.64-11.45-5.65-.84-.43-1.65-.85-2.47-1.32-3.02-1.79-3.78-2.69-3.86-3.94-.02-.29-.08-.6-.04-.85.15-.84,1.7-.64,3.98.46,3.41,1.58,6.8,3.35,10.29,5.05,3.49,1.71,7.01,3.46,10.59,5.13,5.29,2.52,10.66,4.97,16.11,7.2l-.03.1Z"/><path class="cls-7" d="m186.38,285.53c1.85.85,3.75,1.59,5.69,2.26.71.24,1.45.38,2.16.62,2.52.81,5.09,1.6,7.67,2.38,1.15.33,2.32.61,3.48.86.73.22,1.48.4,2.21.64.74.2,1.41.65,2.11,1,.42.25.3.45-.18.68-.24.12-.57.25-.96.39-.19.07-.4.13-.62.18-.11.03-.22.04-.33.07-.1,0-.21,0-.32-.02l-2.31-.26c-.76-.11-1.51-.31-2.26-.47-1.5-.35-3.01-.75-4.5-1.25-1.78-.63-3.73-.93-5.59-1.48-2.05-.58-4.08-1.3-6.07-2.07-1.23-.49-2.44-.99-3.64-1.53-1.83-.79-3.6-1.72-5.38-2.56-1.39-.64-2.82-1.16-4.23-1.75-.31-.14-.62-.24-.92-.4-1.12-.57-1.32-1-1.07-1.93.06-.21.1-.43.18-.63.28-.67,1.02-.93,1.9-.68,2.56.85,4.99,2.07,7.45,3.31,1.84.88,3.67,1.8,5.56,2.57l-.03.08Z"/><path class="cls-7" d="m320.7,282.47c-2.78.86-5.6,1.58-8.4,2.26-1.03.24-2.03.57-3.05.8-3.63.76-7.28,1.37-10.92,1.97-1.61.26-3.23.56-4.82.85-2.04.42-4.11.73-6.2.78-.65.01-.63-.36-.16-.86.47-.5,1.37-1.19,2.52-1.55,4.08-1.15,8.18-2.01,12.39-2.62,2.51-.38,5.03-1.19,7.53-1.87,1.37-.38,2.75-.73,4.11-1.15,1.37-.39,2.73-.81,4.07-1.26,1.68-.51,3.31-1.12,4.95-1.72l3.67-1.51c1.19-.57,2.39-1.12,3.53-1.76.87-.52,1.71-1.08,2.54-1.65.8-.6,1.57-1.24,2.35-1.85.35-.26.66-.56.99-.85,1.25-1.03,1.81-1.13,2.73-.55.21.13.44.25.63.4.63.52.48,1.44-.42,2.39-2.66,2.81-6.15,4.92-9.77,6.58-2.68,1.28-5.47,2.27-8.24,3.25l-.03-.08Z"/><path class="cls-7" d="m332.76,320.24c-3.52,2.08-6.95,4.38-10.31,6.81-1.22.89-2.37,1.88-3.58,2.8-4.27,3.22-8.43,6.64-12.71,9.97-1.91,1.46-3.81,2.97-5.81,4.35-1.29.88-2.64,1.71-4.13,2.33-.75.3-1.53.57-2.37.69-.83.13-1.72.08-2.54-.15-1.03-.38-.68-.63.14-.86.86-.26,1.97-.95,3.34-1.66,1.24-.62,2.44-1.47,3.63-2.37,1.2-.87,2.39-1.82,3.57-2.78,1.19-.98,2.38-1.96,3.57-2.94,1.23-.96,2.46-1.92,3.69-2.88,2.99-2.28,5.84-4.98,8.87-7.39,3.33-2.65,6.76-5.19,10.38-7.48,2.22-1.41,4.5-2.74,6.82-3.98,3.53-1.88,7.24-3.45,10.99-4.77,2.91-1.03,5.82-2.01,8.86-2.63.67-.13,1.32-.3,2.01-.38,2.55-.31,3.39.02,3.94.93.13.21.29.42.36.63.24.73-.74,1.33-2.45,1.71-5.08,1.03-10.26,2.44-15.3,4.54-3.74,1.55-7.4,3.42-10.92,5.58l-.05-.07Z"/><path class="cls-7" d="m381.57,243.26c7.21-1.6,14.38-3.33,21.46-5.34,2.58-.74,5.12-1.61,7.68-2.42,9.01-2.83,17.94-6.02,26.35-10.31,3.71-1.92,7.33-4.08,10.7-6.47,2.17-1.54,4.21-3.24,6.26-4.93l1.51-1.29,1.48-1.33c.96-.92,2.05-1.72,3-2.65,1.25-1.11,1.31-.8.75.61-.27.71-.71,1.69-1.3,2.84-.29.59-.71,1.13-1.14,1.72-.44.59-.93,1.18-1.5,1.75-1.96,2.06-4.12,3.91-6.38,5.6-2.26,1.7-4.6,3.29-7,4.76-4.85,2.89-9.96,5.27-15.19,7.32-6.26,2.44-12.74,5.01-19.28,7.02-7.18,2.22-14.46,4.1-21.74,5.83-4.49,1.06-8.99,2.06-13.48,3.04-6.8,1.5-13.67,2.87-20.37,4.5-5.2,1.28-10.25,2.79-15.11,4.61-1.07.4-2.07.87-3.11,1.3-1.91.83-3.03,1.44-3.83,1.78-.82.34-1.3.45-1.99.48-.28.02-.62.14-.89.16-.23,0-.39-.09-.45-.33-.06-.23-.05-.67.16-1.12.37-.97,1.41-2.15,2.89-3.1,2.2-1.43,4.5-2.42,6.85-3.31,2.35-.88,4.73-1.62,7.14-2.32,4.82-1.38,9.72-2.51,14.63-3.62,7.29-1.64,14.61-3.16,21.87-4.86l.03.09Z"/><path class="cls-7" d="m441.62,326.28c-6.19,2.6-12.46,4.98-18.77,7.23-2.31.8-4.57,1.74-6.9,2.47-8.2,2.64-16.48,4.98-24.83,7.05-3.72.86-7.43,1.82-11.14,2.62-2.37.54-4.77,1.01-7.18,1.39-2.41.41-4.85.63-7.3.66-1.54-.13-1.33-.15-.12-.75.6-.31,1.47-.65,2.5-1.09.52-.21,1.08-.46,1.68-.66.6-.19,1.25-.36,1.92-.53,1.19-.3,2.38-.58,3.57-.89l1.78-.48c.6-.14,1.19-.27,1.79-.43,2.38-.59,4.76-1.2,7.13-1.83,2.37-.64,4.75-1.28,7.13-1.92,2.39-.62,4.78-1.24,7.18-1.87,5.75-1.5,11.55-3.66,17.27-5.69,6.3-2.21,12.56-4.56,18.73-7.11,3.81-1.55,7.57-3.22,11.3-4.94,5.63-2.65,11.22-5.46,16.46-8.69,4.07-2.52,7.82-5.36,11.29-8.45.38-.34.76-.68,1.13-1.02.36-.35.72-.71,1.09-1.05.35-.32.67-.61.97-.87.28-.27.54-.52.78-.74.48-.44.9-.77,1.27-1.02.68-.54,1.27-.7,1.94-.7.3,0,.64-.06.89-.01.42.08.5.52.29,1.3-.2.79-.79,1.85-1.75,3.01-2.81,3.51-6.32,6.44-10.02,9.09-3.71,2.65-7.64,5.01-11.66,7.22-5.97,3.26-12.15,6.12-18.37,8.82l-.05-.09Z"/><path class="cls-7" d="m166.02,145.38c-.46,2.86-.51,5.85.16,8.66.65,2.82,1.97,5.47,3.85,7.68,1.37,1.64,3.12,2.89,4.91,4.03,6.45,3.83,15.36,4.26,21.71-.37,1.45-.95,2.67-2.19,3.84-3.46,1.07-1.35,2.06-2.78,2.73-4.35.49-.98.77-2.04,1.08-3.08.19-1.07.39-2.13.43-3.21.15-2.15-.03-4.33-.52-6.55-.24-1.41-.03-1.37.92-.41.48.48,1.2,1.19,1.82,2.23.68,1.02,1.04,2.39,1.25,3.91.02.67.05,1.35.04,2.03-.02.68-.18,1.34-.27,2.01-.08.68-.27,1.32-.47,1.96-.19.64-.36,1.3-.65,1.91-.96,2.52-2.47,4.76-4.25,6.73-1.78,1.98-3.94,3.59-6.32,4.78-2.37,1.17-4.94,2.06-7.62,2.24-3.12.25-6.3.06-9.39-.69-3.09-.75-6.07-2.1-8.62-4.03-2.79-2.13-5.07-4.93-6.55-8.1-1.48-3.17-2.22-6.66-2.15-10.09.01-4.2,1.1-8.46,3.25-12.09,3.23-5.55,8.92-9.47,15.1-10.73,4.79-1.04,9.88-.53,14.36,1.59.5.21.97.47,1.45.73.48.25.95.53,1.39.84,1.69,1.14,2.62,2.12,3.17,2.89.55.77.64,1.4.57,2.02-.03.28-.03.61-.12.83-.34.76-1.74-.05-3.82-1.58-3.09-2.27-6.71-3.78-10.49-4.15-3.77-.38-7.69.42-11.07,2.27-5.06,2.72-8.71,7.84-9.65,13.57h-.09Z"/><path class="cls-7" d="m183.88,155.83c1.43.79,2.93,1.5,4.43,1.96.74.23,1.49.42,2.13.47.14,0,.31.02.43.02.07,0,.03,0,.05,0,.01,0,.05,0,.07,0,.1,0,.2-.05.26-.13l.06-.07s.11-.17.17-.27c.06-.12.14-.22.19-.35.12-.24.24-.49.33-.76.21-.52.37-1.08.55-1.64.6-2,.91-4.21.91-6.4,0-2.18-.3-4.44-1.11-6.28-.35-.81-.88-1.48-1.43-1.7-.53-.25-1.21-.07-1.84.4-.81.66-1.53,1.67-2.09,2.77-.29.55-.56,1.12-.79,1.7-.23.58-.51,1.16-.68,1.76-.2.72-.44.7-.79-.07-.16-.38-.33-.95-.42-1.64-.07-.68-.04-1.48.21-2.3.21-.72.47-1.44.83-2.15.35-.71.78-1.43,1.42-2.09.62-.64,1.5-1.29,2.66-1.56,1.11-.3,2.5-.08,3.49.53,1,.6,1.63,1.38,2.11,2.12.47.76.85,1.51,1.06,2.27.47,1.52.66,3.01.73,4.49.06,1.77.07,3.54-.08,5.33-.14,1.79-.44,3.6-1.12,5.35-.19.48-.4.97-.66,1.44-.26.49-.49.88-.98,1.54-.17.22-.4.38-.6.58-.2.19-.47.29-.71.42-.26.09-.53.17-.8.24-.26.05-.63.08-.83.1-.9.02-1.68-.11-2.44-.26-1.49-.34-2.85-.85-4.18-1.44-2.17-.97-4.2-2.18-6.1-3.6-1.43-1.09-2.79-2.31-3.9-3.85-.55-.77-1.05-1.61-1.34-2.6-.3-.97-.37-2.1-.07-3.15.06-.2.12-.4.19-.6l.27-.55.14-.27.21-.28c.15-.18.28-.39.46-.52.66-.65,1.44-.97,2.2-1.23,1.53-.45,3.06-.47,4.56-.15.66.14,1.31.3,1.94.6,1.18.55,1.85,1.21,2.15,1.77.32.56.28,1.04.03,1.51-.11.21-.21.44-.36.59-.25.26-.64.28-1.03.18-.18-.06-.4-.13-.63-.22-.2-.11-.48-.2-.72-.34-1.55-.77-3.77-.91-5.15-.41-.29.14-.55.29-.58.38-.04.02,0,.04-.01.05,0,0,0,0-.01,0l-.04.1c-.06.13-.12.25-.13.36-.12.42-.05.93.32,1.67.55,1.08,1.66,2.27,2.91,3.3,1.25,1.04,2.69,1.97,4.18,2.77l-.04.08Z"/><path class="cls-7" d="m369.24,114.35c-.81-1.43-1.54-2.92-2.01-4.5-.28-.77-.42-1.59-.61-2.39-.1-.82-.28-1.63-.3-2.45-.15-1.64.02-3.29.26-4.91.34-1.6.75-3.18,1.43-4.65.93-2.16,2.1-4.22,3.62-5.99,1.32-1.58,2.89-2.92,4.55-4.09.82-.6,1.72-1.1,2.6-1.6.92-.44,1.83-.89,2.79-1.23,1.91-.69,3.89-1.2,5.92-1.35,2-.17,4.14-.05,6.11.49,1.76.44,3.42,1.15,4.97,2.02,1.57.85,2.99,1.93,4.29,3.13,3.45,2.95,5.53,7.69,5.11,12.16-.12,1.39-.36,1.15-.82.06-.34-1.12-1.5-2.93-2.61-4.79-.22-.43-.52-.82-.81-1.21l-.43-.58-.49-.54c-.62-.73-1.23-1.47-1.95-2.12-1.39-1.33-3.01-2.44-4.74-3.29-1.73-.84-3.56-1.49-5.4-1.7-1.82-.2-3.87-.06-5.8.37-4.69,1.07-9.04,4.37-11.77,8.47-1.5,2.26-2.63,4.81-3,7.49-.24,1.33-.21,2.7-.13,4.05.17,1.34.41,2.7.89,3.98,1.12,3.17,3.15,6.08,5.84,8.18,2.03,1.62,4.37,2.86,6.89,3.49,2.51.65,5.18.72,7.73.26,1.97-.39,3.89-1.03,5.61-2.01.45-.2.84-.52,1.26-.77.42-.26.82-.53,1.2-.85.38-.31.79-.58,1.15-.9l1.07-.98c.33-.28.57-.63.85-.94.27-.33.58-.61.82-.97,1.03-1.2,1.62-2.06,2.23-2.59.51-.58.92-.88,1.39-1.09.21-.09.44-.24.62-.29.3-.07.4.25.37.95-.02.35-.07.79-.15,1.33-.12.52-.31,1.11-.56,1.76-.18.49-.44.93-.69,1.39-.26.45-.49.94-.82,1.35-.64.83-1.28,1.7-2.06,2.43-.73.79-1.57,1.48-2.44,2.13-.44.32-.91.58-1.38.87-.46.29-.93.57-1.43.79-1.94,1.03-4.08,1.65-6.25,2.09-2.19.4-4.45.44-6.7.22-3.32-.38-6.62-1.63-9.36-3.48-2.79-1.83-5.15-4.3-6.91-7.13l.08-.06Z"/><path class="cls-7" d="m392.08,101.99c-.94,1.03-1.88,2.06-2.78,3.12-.33.39-.58.83-.91,1.21-1.16,1.36-2.4,2.67-3.53,4.07-.51.62-.92,1.3-1.38,1.94-.55.85-1.15,1.67-1.92,2.38-.25.22-.51.01-.7-.42-.18-.43-.36-1.12-.18-1.7.6-2.09,1.8-3.82,3.21-5.41.84-.95,1.48-2.11,2.24-3.14.85-1.13,1.74-2.24,2.63-3.34l1.64-2.03c.81-1.03,1.69-2.02,2.43-3.1.57-.84.97-1.78,1.44-2.68.1-.2.18-.41.3-.6.44-.7.87-.71,1.72-.28.19.09.38.17.54.26.28.16.47.39.63.7.17.31.21.64.12.95-.55,1.83-1.64,3.36-2.77,4.86-.84,1.12-1.77,2.17-2.67,3.25l-.07-.05Z"/><path class="cls-7" d="m399.8,108.62c-.63,1.69-1.89,2.98-3.53,3.6-.6.22-1.21.44-1.9.4-1.19-.05-2.19-.64-2.91-1.38-.71-.74-1.24-1.75-1.2-2.8.03-.95.4-1.77.94-2.37.67-.77,1.83-1.21,2.79-.85.29.12.18.26-.06.45-.25.18-.53.54-.75.8-.21.22-.34.5-.42.76-.1.24-.13.48-.11.67.02.19.07.28.14.44.04.15.09.33.21.54.14.24.42.42.71.48.3.05.55.07.8.03.6-.05,1.32-.51,1.73-1.2.26-.42.4-.91.38-1.39-.02-.36-.09-.68-.25-.92-.17-.26-.45-.43-.76-.48-.54-.09-1.13.29-1.63.61-.12.07-.21.18-.32.24-.1.06-.2.11-.29.12-.1,0-.22-.06-.33-.1-.22-.1-.46-.28-.75-.53l-.37-.3c-.19-.17-.29-.37-.35-.68-.06-.31-.03-.67.13-1.02.63-.78,1.51-1.48,2.69-1.73.59-.12,1.25-.15,1.96-.02.72.13,1.49.46,2.08.96.91.71,1.51,1.88,1.68,2.86.18,1.01.06,1.95-.22,2.84l-.08-.02Z"/><path class="cls-7" d="m384.92,103.53c-1.02,1.33-2.34,2.16-3.98,2.44-.59.08-1.27.16-1.91-.09-1.14-.4-1.97-1.41-2.22-2.38-.27-.98-.12-1.91.19-2.71.29-.74.7-1.32,1.16-1.83.59-.65,1.29-1.17,2.08-1.44.25-.08.35.15.34.51-.02.35-.11.86-.37,1.18-.47.57-.8,1.15-.97,1.67-.16.49-.17.96-.14,1.41,0,.27.13.5.3.6.17.11.35.12.54.13.46.08,1.29-.24,1.83-.79.32-.32.61-.77.76-1.25.26-.7.25-1.54-.16-1.95-.31-.34-.9-.22-1.17-.08-.06.03-.1.09-.13.1-.05.04-.1-.05-.25-.16-.18-.16-.41-.31-.74-.5-.15-.09-.3-.15-.44-.22-.23-.12-.4-.29-.49-.6-.09-.29-.08-.78.26-1.11.98-1.04,2.49-1.26,3.74-.81.67.23,1.29.63,1.77,1.18.49.55.83,1.23,1,1.84.51,1.93-.03,3.6-.91,4.91l-.07-.04Z"/><path class="cls-7" d="m394.99,438.92c-3.41-1.09-6.56-2.84-9.29-5.09-2.78-2.29-5.09-5.38-6.24-8.82-.92-2.48-1.4-5.11-1.34-7.7,0-.57.02-1.15.1-1.71.07-.57.11-1.14.2-1.7.23-1.11.43-2.23.8-3.3.29-1.09.77-2.12,1.19-3.16.24-.51.51-1,.77-1.5l.39-.74.46-.71c1.16-1.93,2.66-3.61,4.28-5.16,1.68-1.58,3.65-2.7,5.66-3.64,3.59-1.59,7.49-2.57,11.44-2.4,2.51.1,5.11.53,7.44,1.72l1.66,1.04c.52.4.99.85,1.48,1.28.9.92,1.73,1.95,2.13,3.18.58,1.48.25,1.33-.95.67-.3-.16-.66-.35-1.06-.54-.11-.04-.21-.09-.35-.11-.1-.05-.21-.1-.32-.15-.21-.1-.44-.2-.66-.31-.42-.24-.95-.4-1.45-.6-.25-.1-.49-.21-.74-.33-.27-.08-.54-.17-.8-.28l-.69-.28c-.23-.09-.5-.1-.73-.2-.48-.16-.93-.36-1.44-.43-.98-.25-2.01-.35-3.04-.43h-1.57s-1.57.13-1.57.13c-.53,0-1.05.14-1.58.2-.53.05-1.05.18-1.57.31-2.08.48-4.12,1.24-5.97,2.29l-1.33.85c-.43.3-.82.64-1.24.96-.41.32-.78.75-1.18,1.12-.41.37-.76.79-1.12,1.21-3.47,4.02-5.06,9.85-4.43,15.17.03.75.26,1.45.37,2.18.17.72.43,1.41.64,2.11.58,1.35,1.23,2.67,2.15,3.82,1.75,2.31,4.26,4.25,6.98,5.66,3.35,1.74,7.14,2.7,10.9,2.54,2.81-.06,5.5-1.06,7.9-2.63,2.4-1.56,4.47-3.68,6.07-6.06,2.51-3.69,3.79-8.15,3.48-12.26-.1-.9-.23-1.77-.46-2.62-.95-3.1-1.44-4.04-1.18-5.3.05-.28.03-.59.09-.8.11-.35.5-.33,1.27,0,.78.32,1.73,1.19,2.62,2.56,1.2,2.09,1.91,4.54,1.95,6.98.08,2.45-.36,4.87-1.11,7.16-.75,2.3-1.85,4.47-3.2,6.47-1.35,2.01-2.97,3.85-4.84,5.45-2.77,2.37-6.17,4.26-10.04,4.9-3.79.56-7.45.13-10.94-.91l.02-.1Z"/><path class="cls-7" d="m404.45,420.88c-.67.46-1.35.93-2.03,1.43l-1.02.76-.52.39c-.17.13-.31.23-.65.51l-1.92,1.48c-.2.17-.37.19-.56.24l-.99.25c-.16.06-.33.07-.52-.01-.17-.07-.3-.15-.43-.25-.49-.4-.91-1.09-1.23-1.94-.29-.85-.53-1.82-.68-2.59l-.33-1.63c-.21-.96-.47-1.9-.73-2.82-.16-.59-.39-1.17-.52-1.76-.12-.6-.22-1.21-.26-1.84.07-.43.27-.48.83-.35.54.13,1.34.51,1.78,1.14.7,1.15,1.15,2.35,1.62,3.54.18.61.34,1.22.49,1.83l.2.92c0,.15-.05.18-.06.31-.05.26,0,.55.11.77.03.06.06.11.1.15.06.05.1-.04.15-.06.09-.07.18-.16.28-.2l.07-.05.37-.23.96-.75,2.06-1.6c.86-.66,1.75-1.29,2.67-1.91,1.39-.95,2.91-1.72,4.47-2.43,1.2-.56,2.41-1.2,3.76-1.52.3-.05.59-.14.89-.17,1.14.05,1.49.41,1.69,1.25.04.19.1.38.12.57.07.62-.36,1.19-.99,1.57-.24.11-.46.31-.68.42l-.66.33c-.43.26-.87.37-1.29.59-.86.37-1.71.79-2.57,1.25-1.27.72-2.61,1.52-3.91,2.5l-.07-.08Z"/><path class="cls-7" d="m164.7,438.62c.19,3.11-.13,6.28-1.11,9.29-.98,2.99-2.62,5.81-4.85,8.06-.87.75-1.65,1.62-2.62,2.24-.47.33-.93.68-1.41.98l-1.52.78c-3.65,1.72-7.65,2.28-11.47,2.09-.24,0-.48,0-.72-.02l-.75-.1c-.5-.07-1-.12-1.49-.22-.96-.28-1.94-.46-2.84-.88-1.86-.67-3.5-1.75-5.05-2.9-2.68-2.14-4.89-4.88-6.29-7.99-.26-.48-.42-1.01-.59-1.54-.16-.53-.37-1.04-.44-1.59l-.3-1.63-.07-1.66c-.05-.55.04-1.1.1-1.65.11-.54.13-1.1.34-1.61l.52-1.55c.2-.5.52-.96.77-1.43.69-1.15.77-.87.77.29.01.58-.02,1.36.1,2.28.05.46.04.92.11,1.42.05.25.07.5.13.76,0,.25.02.51.01.77.26,3.7,1.91,7.14,4.34,9.96,1.27,1.37,2.68,2.6,4.26,3.6,1.6.97,3.34,1.66,5.15,2.06.55.07,1.08.2,1.67.22.6,0,1.2,0,1.8,0,.61.03,1.2-.07,1.79-.14.59-.1,1.2-.11,1.78-.28,2.35-.48,4.54-1.48,6.49-2.74,2.14-1.41,3.92-3.33,5.2-5.58,1.27-2.26,1.99-4.83,2.2-7.47.12-.81.07-1.63.07-2.45.04-.82-.13-1.64-.21-2.46-.05-.83-.31-1.63-.47-2.44-.09-.4-.17-.82-.31-1.18-.11-.38-.24-.75-.41-1.1-.93-2.19-2.56-4.11-4.56-5.55-1.99-1.47-4.34-2.46-6.76-2.97-3.79-.78-7.72-.23-10.96,1.4-.71.36-1.36.79-2.03,1.22-1.24.8-1.99,1.42-2.61,1.78-.66.34-1.14.48-1.71.49-.26,0-.55.06-.76.02-.36-.06-.45-.43-.28-1.12.15-.69.61-1.69,1.53-2.71.33-.39.71-.73,1.08-1.1.38-.34.79-.68,1.2-1,.84-.62,1.76-1.14,2.73-1.57,1.92-.88,4.01-1.42,6.14-1.63,4.25-.39,8.64.43,12.52,2.49,2.88,1.52,5.5,3.78,7.26,6.73.43.74.82,1.51,1.14,2.31.31.8.59,1.65.73,2.39.17.77.37,1.52.5,2.3l.29,2.35-.1.02Z"/><path class="cls-7" d="m143.42,447.42l-.09.02h-.01s0,0,0,0h0c.02.25-.02-.34-.02-.28h0s-.03.01-.03.01l-.06.02-.19.05c-.12.02-.25.09-.38.06-.26-.06-.53-.25-.8-.46-.55-.48-1.06-1.24-1.54-1.94l-.7-1.04-.38-.61-.69-1.11c-.07-.16-.2-.23-.28-.42-.04-.09-.08-.18-.13-.28-.02-.07-.07-.07-.09-.04-.03.02-.05.03-.08.06-.11.08-.23.2-.36.36l-.21.25-.47.73c-.32.5-.63,1-.93,1.51-.52.91-1.01,1.85-1.47,2.78-.29.6-.56,1.21-.91,1.79-.17.29-.34.58-.52.86-.17.29-.46.53-.67.8-.31.32-.44.22-.64-.25-.1-.23-.23-.56-.37-.95-.1-.38-.13-.79-.05-1.19.23-1.44.8-2.72,1.33-4.02.33-.62.67-1.23,1.04-1.83l.57-.89.3-.44c.1-.15.18-.25.37-.56.38-.6.76-1.21,1.14-1.81.2-.28.39-.55.6-.75.21-.2.43-.31.63-.42.2-.11.38-.22.61-.32.15-.07.23.06.33.09l.3.17c.2.12.43.21.66.38.23.15.44.44.65.72.45.62.9,1.3,1.3,1.9l.75,1.18.19.29.09.14.04.07.15.27.34.57.18.28c.05.08.17.24.22.1.12-.13.24-.29.36-.48.12-.02.19-.19.28-.28l.22-.26.4-.51.82-1.04c.55-.69,1.1-1.38,1.63-2.08.82-1.09,1.49-2.28,2.3-3.41.18-.25.34-.5.55-.73.78-.84,1.24-.91,2.08-.34.19.13.39.24.56.38.55.46.7,1.26.32,1.95-1.07,2.1-2.61,3.9-4.12,5.82l-1.28,1.6-.32.4-.6.78-.66.75c-.22.25-.45.46-.6.84-.28.23-.57.5-.85.7l-.77.17v-.08Z"/><path class="cls-7" d="m77.02,99.72c1.36.3,2.74.45,4.13.45,1.39.02,2.78-.12,4.14-.41,2.73-.54,5.29-1.77,7.53-3.45.39-.33.8-.64,1.18-.99.36-.37.74-.72,1.08-1.1l.96-1.19.49-.59c.15-.2.27-.43.42-.64,2.04-2.96,3.16-6.57,3.22-10.28.07-3.71-1.01-7.46-2.86-10.75-1.66-2.92-4.11-5.42-6.96-7.14-1.82-1.12-3.84-1.93-5.86-2.46-1.02-.26-2.06-.39-3.11-.49-.52-.06-1.06-.09-1.59-.09-.53-.01-1.1-.11-1.65-.08-1.39.03-1.29-.05-.23-.84.54-.35,1.31-1.07,2.42-1.44.55-.21,1.17-.42,1.84-.51.67-.08,1.39-.09,2.12,0,1.3.15,2.59.41,3.81.86.61.22,1.17.51,1.76.77.57.29,1.19.49,1.72.86,1.09.68,2.2,1.32,3.16,2.17.48.42,1.02.78,1.46,1.25l1.33,1.38c.46.44.82.98,1.21,1.48.37.52.79,1,1.12,1.55.64,1.1,1.34,2.18,1.8,3.37,1.08,2.31,1.65,4.83,1.93,7.35.33,3.02.07,6.16-.72,9.18-.8,3.01-2.22,5.94-4.29,8.28-2.15,2.65-4.98,4.72-8.09,6.12-1.57.66-3.2,1.18-4.86,1.51-1.67.3-3.35.46-5.04.42-4.14-.1-8.21-1.24-11.79-3.25-2.72-1.51-5.11-3.6-7.02-6.07-1.86-2.5-3.23-5.38-3.85-8.42-.14-.59-.24-1.18-.31-1.77-.1-.59-.15-1.19-.18-1.78-.13-1.17-.04-2.45.12-3.64.35-2.41,1.17-4.7,2.33-6.83.54-.92,1.06-1.84,1.75-2.68,1.28-1.57,2.38-2.4,3.24-2.81.91-.36,1.55-.35,2.15-.13.27.1.57.16.75.28.3.21.18.63-.18,1.21-.36.59-.94,1.37-1.74,2.25-2.32,2.68-3.93,6.23-4.36,9.68-.07.88-.11,1.64,0,2.59.02.46.07.91.15,1.35.07.45.13.89.25,1.33.41,1.75,1.07,3.43,1.97,4.99,2.67,4.64,7.67,8.02,13.14,9.08v.1Z"/><path class="cls-7" d="m78.89,79.43c.66,1.22,1.25,2.49,1.85,3.75.22.46.51.88.72,1.35.74,1.65,1.43,3.32,2.08,5,.28.75.66,1.46.92,2.2.18.48.37.95.53,1.43.13.49.22,1.01.3,1.52.04.32-.1.33-.4.16-.29-.17-.82-.48-1.2-.94-1.23-1.67-2.1-3.44-2.88-5.33-.44-1.14-1.2-2.17-1.83-3.25-.68-1.19-1.4-2.37-2.07-3.59l-1.26-2.23c-.65-1.12-1.27-2.27-1.99-3.35-.56-.83-1.24-1.58-1.81-2.4-.13-.18-.28-.34-.39-.53-.39-.72-.33-1.06.22-1.57.11-.11.21-.22.3-.3.27-.24,1.03-.28,1.48.14.7.6,1.31,1.28,1.88,1.99.54.73,1.02,1.51,1.51,2.3.72,1.17,1.39,2.39,2.1,3.6l-.06.04Z"/><path class="cls-7" d="m83.85,76.54c.44,1.32.89,2.65,1.36,3.97.17.48.41.94.58,1.42.57,1.72,1.15,3.45,1.72,5.17.26.76.52,1.53.8,2.28.16.49.36.96.5,1.46.12.5.2,1.02.25,1.54.03.33-.2.35-.54.17-.34-.18-.85-.52-1.15-1.03-.91-1.85-1.71-3.71-2.31-5.71-.36-1.19-1.01-2.33-1.52-3.5-.57-1.29-1.12-2.58-1.66-3.89l-.99-2.42c-.5-1.22-.91-2.49-1.42-3.7-.19-.47-.42-.93-.66-1.38-.23-.46-.43-.92-.63-1.39-.09-.21-.19-.4-.26-.62-.14-.4-.16-.68-.06-.91.08-.23.23-.39.47-.56.11-.08.21-.16.32-.22.35-.19.82.02,1.27.5.5.76,1.02,1.53,1.42,2.35.4.82.74,1.68,1.1,2.54l.77,1.93.7,1.98-.06.03Z"/><path class="cls-7" d="m480.22,300.17c-.28-14.59-1.57-29.25-4.17-43.59-.99-5.22-2.35-10.36-3.82-15.45-2.6-8.98-5.95-17.76-10.23-26.06-2.13-4.15-4.56-8.14-7.24-11.93-2.7-3.76-5.73-7.31-9.25-10.2-1.57-1.26-3.24-2.38-5.01-3.21-1.76-.83-3.67-1.36-5.48-1.34-.89-.04-1.73.23-2.55.52-.78.39-1.57.83-2.22,1.48-1.37,1.23-2.43,2.9-3.28,4.67-1.11,2.28-1.91,4.76-2.51,7.31-.6,2.54-1.01,5.15-1.3,7.77-.3,2.62-.54,5.26-.62,7.9-.08,2.64-.12,5.3.11,7.93.33,3.26.14,2.93-.9.21-.48-1.37-1.04-3.36-1.55-5.82-.46-2.46-.76-5.39-.73-8.57.08-2.82.42-5.64.9-8.45.49-2.81,1.2-5.62,2.28-8.39.25-.69.59-1.38.9-2.06.37-.67.7-1.35,1.14-2.01.82-1.32,1.83-2.61,3.13-3.71,1.28-1.11,2.88-2.03,4.65-2.48l1.34-.25c.45-.05.89-.05,1.34-.07.46-.03.85.04,1.27.07.41.05.84.06,1.23.16,3.23.62,6.03,2.06,8.48,3.75,2.45,1.71,4.61,3.68,6.57,5.79,3.91,4.23,7.17,8.9,9.96,13.8,6.66,11.73,11.91,24.72,15.31,37.98.94,3.64,1.71,7.32,2.41,11.01.68,3.7,1.22,7.39,1.72,11.1.99,7.42,1.65,14.87,2.07,22.33.49,9.19.57,18.4.11,27.59-.36,6.96-1.02,13.94-2.26,20.83-.63,3.45-1.35,6.88-2.36,10.25-1,3.37-2.2,6.7-3.87,9.86-1.3,2.44-2.84,4.83-5,6.78-.56.46-1.14.91-1.72,1.36-.63.38-1.28.75-1.93,1.09-.7.25-1.4.55-2.12.75-.36.08-.72.17-1.09.24l-1.1.15c-2.98.27-5.91-.46-8.5-1.65-2.6-1.21-4.91-2.86-6.96-4.74-1.82-1.65-3.43-3.42-4.91-5.39-2.7-3.67-3.94-6.45-4.61-8.44-.66-2-.67-3.29-.42-4.36.12-.49.2-1.11.37-1.41.3-.51.83.05,1.65,1.37.84,1.32,1.91,3.44,3.5,6.02,2.37,3.81,5.32,7.37,8.8,10.11,1.73,1.37,3.61,2.51,5.54,3.25,1.94.72,3.92,1.05,5.77.74,1.86-.3,3.46-1.12,4.96-2.5,1.49-1.34,2.73-3.2,3.81-5.17,2.17-3.98,3.58-8.61,4.7-13.29,1.63-6.99,2.53-14.27,3.06-21.58.54-7.31.64-14.69.5-22.05l.11-.02Z"/><path class="cls-7" d="m149.61,431.76c.34-.03,1.43-.26,2.22-.3.84-.04,1.54.19,2.09.7l.43.64c.11.25.23.51.28.81.04.27.1.53.12.81l.02.82-.08,1.08c-.06.64-.12,1.28-.18,1.92-.04.57-.08,1.12-.11,1.68-.02.36-.03.72-.08,1.08-.02.36-.27.71-.46,1.04-.14.21-.4.13-.74-.1-.17-.11-.38-.27-.58-.44-.1-.08-.2-.17-.29-.27-.05-.05-.08-.09-.13-.14-.01-.05-.03-.09-.04-.14-.12-.66-.24-1.32-.33-1.99-.04-.66.03-1.34.13-2.02.03-.21.04-.41.03-.62,0-.1-.02-.2-.03-.31l-.02-.15s0-.05,0-.06c-.01-.14-.05-.27-.05-.43,0-.09,0-.19-.03-.29-.03-.11-.13-.11-.2-.14-.16-.04-.36-.05-.57-.04-.04,0-.23.03-.35.04l-.42.07c-.28.05-.57.1-.85.16-.86.19-1.75.35-2.58.66-.65.25-1.23.65-1.89.91-.14.06-.28.15-.43.19-.28.08-.5.05-.68-.09-.19-.18-.32-.42-.45-.73-.06-.14-.12-.27-.16-.4-.07-.22-.06-.43-.02-.69.04-.25.11-.58.27-.72.45-.48.97-.86,1.52-1.21.57-.28,1.17-.5,1.79-.69.92-.29,1.88-.51,2.87-.74l.02.08Z"/><circle class="cls-5" cx="308.51" cy="270.61" r="3.14"/><circle class="cls-5" cx="319.5" cy="289.2" r="2.41"/><circle class="cls-5" cx="325.43" cy="302.94" r="2.91"/><circle class="cls-5" cx="325.8" cy="335.65" r="2.58"/><path class="cls-7" d="m154.39,310.45c1.33-2.68,2.71-5.34,4.19-7.93.53-.95,1.01-1.93,1.59-2.86,2-3.28,4.26-6.4,6.55-9.47,1.02-1.36,2.04-2.73,3.05-4.08,1.32-1.72,2.8-3.33,4.39-4.81.49-.46.55-.28.35.29-.21.57-.64,1.58-1.34,2.59-1.17,1.86-2.48,3.59-3.74,5.36-1.25,1.79-2.49,3.58-3.75,5.38-.77,1.07-1.43,2.24-2.12,3.4-.66,1.18-1.31,2.37-2,3.52-1.46,2.57-2.89,5.17-4.21,7.83l-1.21,2.46-1.13,2.49c-1.12,2.53-2.17,5.1-3.07,7.69-.33,1.02-.61,2.03-.89,3.05l-.76,3.06c-.11.45-.21.89-.32,1.34-.42,1.67-.72,2.16-1.37,2.39-.15.05-.3.13-.44.15-.47.06-.65-.72-.48-2.01.48-3.84,1.66-7.74,3.11-11.54.52-1.42,1.12-2.8,1.69-4.2.63-1.38,1.22-2.77,1.87-4.13l.05.02Z"/><circle class="cls-3" cx="120.17" cy="337.2" r="4.79"/><path class="cls-7" d="m217.45,347.03c-.08.53-.14,1.07-.16,1.62,0,.2.04.39.02.59-.07.7-.11,1.42-.07,2.13,0,.32.04.63.09.94.07.39.14.78.12,1.21,0,.13-.14.15-.32.1-.18-.06-.46-.18-.6-.38-.48-.73-.94-1.51-.9-2.38,0-.52-.22-1.02-.31-1.53-.07-.57-.1-1.14-.11-1.72,0-.35,0-.71-.01-1.06,0-.53.02-1.07-.02-1.59-.03-.41-.21-.81-.32-1.23-.02-.09-.07-.18-.08-.27.06-.34.24-.43.9-.47l.39-.02c.37,0,.91.16,1.08.39.32.35.35.7.44,1.05.06.35.08.7.06,1.05-.05.53-.09,1.06-.14,1.59h-.06Z"/><path class="cls-7" d="m243.42,349.16c.32-.72.65-1.43,1-2.12.12-.26.22-.52.36-.77.49-.87,1.02-1.72,1.58-2.52.25-.37.49-.72.73-1.08.16-.22.31-.46.49-.67.2-.2.4-.39.62-.57.13-.11.17-.05.16.13-.01.17-.04.49-.16.78-.52.97-1.05,1.9-1.6,2.85-.34.56-.54,1.23-.77,1.85-.26.69-.5,1.39-.72,2.1-.13.44-.26.87-.37,1.32-.16.67-.35,1.35-.43,2.03-.07.53.04,1.08.02,1.61,0,.12,0,.23-.02.35-.07.43-.25.55-.72.58-.11,0-.22.02-.32.02-.35,0-.63-.22-.75-.56-.42-1.04-.13-2.07.11-3.09.19-.76.48-1.5.76-2.24h.04Z"/><path class="cls-7" d="m227.42,345.63c.21-.99.44-1.98.74-2.95.1-.36.14-.72.27-1.07.45-1.23,1.06-2.41,1.73-3.51.28-.5.58-.99.84-1.5.18-.32.4-.62.63-.91.12-.14.26-.26.4-.39.06-.07.17-.1.28-.13.1-.03.2-.06.31-.09.27-.06.3.01.4.34.05.17.13.4.26.69.08.26.06.46,0,.63-.2.66-.56,1.18-.88,1.74-.33.56-.67,1.12-1.02,1.71-.45.69-.55,1.56-.79,2.35-.24.89-.47,1.79-.63,2.71-.11.57-.19,1.14-.25,1.72-.09.87-.18,1.76-.13,2.64.03.68.21,1.35.34,2.02.03.15.08.29.1.44.04.55-.2.74-.79.9-.14.04-.27.08-.41.1-.45.08-.86-.12-1.11-.53-.57-1.22-.75-2.56-.68-3.91.03-1,.17-2.02.31-3.02h.06Z"/><path class="cls-7" d="m240.27,287.41c-.3.52-.59,1.05-.86,1.59-.1.2-.14.41-.24.61-.34.7-.8,1.36-1.14,2.07-.16.31-.26.64-.36.97-.06.21-.11.43-.22.62-.09.2-.22.39-.43.56-.13.1-.25.05-.43-.13-.18-.18-.53-.51-.53-.77-.07-.5.09-.92.2-1.36.13-.44.29-.86.52-1.27.26-.49.35-1.06.56-1.58.23-.57.48-1.14.73-1.7.16-.35.32-.7.47-1.04.23-.53.5-1.04.69-1.59.16-.42.15-.92.32-1.37.03-.1.07-.21.13-.31.09-.19.3-.23.46-.26.17-.01.34.05.55.18.1.06.19.11.27.17.27.21.43.54.58.81.13.44.11.79-.01,1.15-.11.35-.26.71-.42,1.07-.24.53-.53,1.06-.79,1.6l-.05-.02Z"/><path class="cls-7" d="m255.61,298.21c-1,.96-2.05,1.87-3.18,2.67-.41.3-.77.65-1.21.91-1.5.97-3.11,1.75-4.77,2.36-.72.3-1.5.49-2.23.74-.49.12-.97.23-1.47.33-.24.06-.5.04-.76.01-.25-.03-.5-.06-.76-.09-.31-.05-.28-.15-.05-.38.16-.16.33-.32.46-.46.11-.1.21-.19.3-.28.05-.05.11-.08.16-.14.06-.02.12-.05.18-.06l1.32-.48,1.28-.55c.42-.2.85-.37,1.29-.53.44-.16.86-.37,1.31-.54.54-.2,1.02-.54,1.51-.85.48-.33.94-.72,1.42-1.05,1.02-.8,2.02-1.62,2.97-2.52.59-.54,1.15-1.13,1.69-1.72.41-.46.79-.93,1.19-1.4.37-.49.74-.98,1.07-1.49.49-.81.86-1.67,1.3-2.49l.27-.55c.38-.66.75-.75,1.16-.73.1,0,.2,0,.28.01.25.04.4.47.35,1.1-.14.91-.49,1.76-.83,2.63-.44.81-.94,1.61-1.49,2.36-.81,1.14-1.75,2.18-2.71,3.2l-.04-.04Z"/><path class="cls-7" d="m311.49,271.6c-.48.62-1.15,1.11-1.87,1.35-.26.1-.51.2-.77.24-.95.1-1.83-.14-2.57-.54-.34-.16-.66-.36-.94-.6-.18-.16-.38-.31-.5-.52-.11-.23-.17-.47-.18-.72,0-.16.15-.2.4-.21.24,0,.62-.05.84-.03.21.01.28.13.43.17.13.07.27.1.39.18.23.16.49.31.78.47.36.19.77.07,1.11-.02.39-.09.75-.28,1.04-.59.18-.19.34-.41.45-.67.17-.38.29-.83.22-1.26-.05-.33-.29-.6-.51-.81-.04-.05-.11-.08-.15-.12-.14-.17-.08-.28.31-.71l.26-.3c.3-.33.67-.46.98-.27.89.59,1.25,1.76,1.15,2.8-.05.78-.35,1.54-.81,2.19l-.04-.03Z"/><path class="cls-7" d="m325.2,305.45c-.64-.15-1.25-.45-1.74-.85-.18-.14-.38-.26-.53-.43-.53-.61-.75-1.37-.87-2.07-.05-.31-.13-.62-.11-.94.01-.39.01-.83.37-1.13.13-.09.25-.02.46.12.24.16.54.35.61.49.09.27.31.48.34.7.04.23.07.46.1.73.05.33.33.53.53.74.23.24.5.44.84.56.2.08.43.13.66.13.35,0,.73-.02,1.04-.2.24-.14.38-.42.49-.65.03-.05.03-.12.08-.14.18-.09.33-.04.76.19l.28.15c.29.16.5.45.48.79.01.54-.33.86-.65,1.16-.34.29-.75.49-1.18.61-.64.19-1.31.2-1.97.09v-.05Z"/><path class="cls-7" d="m324.97,334.88c-.17.18-.34.38-.45.62-.05.08-.01.18-.06.27-.15.3-.31.65-.33,1.02-.01.16.04.31.09.45.1.18.27.28.07.63-.05.11-.38.32-.8.48-.39.16-.99.31-1.16.16-.21-.29-.39-.61-.47-.95-.03-.35,0-.72.15-1.05.16-.4.08-.79.17-1.17.11-.41.29-.8.49-1.17.13-.22.27-.43.42-.64.22-.32.5-.58.71-.88.18-.23.27-.55.46-.83.04-.07.08-.12.14-.15.26-.09.48.13.74.5l.18.26c.18.28.27.61.34.92.08.4.03.54-.03.68-.05.15-.13.25-.22.36-.13.16-.29.32-.42.51l-.05-.02Z"/><path class="cls-7" d="m341.79,267.45c1.24,1.47,2.41,2.98,3.56,4.51.42.55.89,1.06,1.3,1.63,1.35,2.06,2.6,4.17,3.81,6.3.55.93,1.11,1.87,1.6,2.83.69,1.2,1.16,2.54,1.46,3.91.09.43-.07.43-.43.2-.34-.24-1-.65-1.52-1.24-.47-.52-.93-1.03-1.32-1.59-.4-.55-.86-1.06-1.21-1.64-.72-1.15-1.43-2.31-2.12-3.51-.81-1.45-2.02-2.69-3.04-4.03-1.12-1.48-2.28-2.94-3.48-4.36-.74-.87-1.5-1.73-2.3-2.55-1.2-1.24-2.43-2.48-3.79-3.5-1.06-.79-2.25-1.34-3.37-1.83l-.74-.26c-.44-.18-.69-.29-.84-.51-.14-.26-.2-.53-.25-.92-.02-.18-.07-.35-.08-.51-.02-.27.09-.49.36-.7.14-.1.32-.2.54-.28.21-.08.43-.05.69-.03,2.93.43,5.13,2.13,7.12,3.86,1.48,1.3,2.81,2.74,4.11,4.17l-.05.05Z"/><path class="cls-7" d="m205.74,339.95c-.13.03-.22.08-.34.11-.12.03-.19.12-.3.16-.23.14-.52.43-.72.67-.44.51-.7,1.1-.8,1.79-.07.5.03,1.03.13,1.58.31,1.97,1.57,4.08,3.3,5.61.76.69,1.68,1.24,2.62,1.58.61.24,1.22.43,1.86.56.63.11,1.29.31,1.98.32.43.03.44.17.11.51-.16.18-.41.4-.74.62-.17.12-.36.23-.57.32-.11.05-.22.08-.33.15-.11.02-.23.05-.35.05-.85.09-1.72.07-2.56-.1-.82-.21-1.61-.52-2.35-.92-1.49-.76-2.77-1.89-3.69-3.29-1.09-1.63-2.33-3.39-2.57-5.6-.13-1.19,0-2.48.52-3.61.26-.56.57-1.1.96-1.56.19-.24.38-.46.6-.66l.32-.31c.12-.1.27-.2.4-.29,1.35-.97,2.98-1.09,4.34-.9,2.09.34,3.88,1.29,5.48,2.4,1.25.85,2.49,1.72,3.55,2.85.25.24.48.48.69.75.39.5.57.89.57,1.23,0,.33-.16.61-.49.92-.15.14-.29.3-.45.42-.56.39-1.28.26-1.81-.29-.85-.79-1.68-1.55-2.55-2.26-.88-.7-1.81-1.34-2.77-1.84-.71-.38-1.45-.67-2.16-.83-.7-.17-1.39-.2-1.85-.06l-.03-.08Z"/><path class="cls-7" d="m280.15,355.94c-.48.26-.96.52-1.51.71-.27.1-.52.21-.81.28l-.87.19c-.28.07-.59.09-.89.1-.31.01-.6.03-.92.02-.33-.04-.66-.09-.97-.15l-.8-.24c-.74-.26-1.44-.47-2.06-.81-1.09-.62-2.11-1.29-3.09-1.99-.99-.69-1.94-1.42-2.86-2.17-.82-.66-1.68-1.28-2.5-1.93-1.08-.79-2.1-1.71-2.87-2.9-.23-.37.01-.49.48-.47.46.04,1.21.12,1.87.46.59.3,1.14.65,1.69,1.01l1.67,1.04c1.11.7,2.23,1.39,3.28,2.2,1.27.95,2.82,1.56,4.22,2.14.76.31,1.54.6,2.09.61.34-.04.68,0,1.03-.11.18-.05.36-.07.53-.13l.53-.22c.87-.38,1.75-.93,2.52-1.64,1.18-1.04,2.28-2.28,3.08-3.68.6-1.1.99-2.29,1.26-3.42.06-.25.07-.5.13-.74.2-.88.41-1.01,1.34-1.19.21-.04.42-.1.63-.13.35-.05.67.03.91.28.24.24.43.69.42,1.16.03,1.44-.28,2.8-.76,4.07-.49,1.27-1.25,2.42-2.07,3.51-1.25,1.61-2.76,3.06-4.66,4.21l-.05-.07Z"/><path class="cls-7" d="m289.33,344.31c-.67.33-1.43.59-2.24.65-.4.02-.8.05-1.2-.03l-.6-.11c-.18-.04-.31-.1-.47-.15-1.2-.41-2.08-.91-2.98-1.41-.66-.36-1.32-.66-1.94-1.05-2.15-1.39-4.16-2.9-6.21-4.34-.91-.64-1.86-1.21-2.8-1.77-.6-.36-1.23-.69-1.82-1.07-.58-.41-1.16-.81-1.66-1.33-.25-.44-.11-.57.46-.8.56-.22,1.43-.34,2.2-.05,2.63,1.21,5.12,2.63,7.48,4.28,1.41.99,3.05,1.72,4.58,2.5.84.44,1.68.84,2.5,1.2.41.16.81.31,1.16.41.19.06.28.04.43.09.14,0,.28,0,.42-.03.69-.1,1.48-.65,2.15-1.43,1.01-1.2,1.82-2.77,2.27-4.41.34-1.28.33-2.63.25-3.86-.02-.27-.08-.53-.1-.79-.11-.93.19-1.05,1.11-1.56.21-.11.41-.26.61-.38.35-.2.71-.25,1.1-.05.37.19.72.6.9,1.12.46,1.53.47,3,.3,4.45-.18,1.45-.58,2.87-1.16,4.26-.44,1.03-.98,2.05-1.7,3.04-.73.98-1.62,1.98-2.97,2.7l-.05-.08Z"/><path class="cls-7" d="m216.4,344.86c.6-3.08,1.53-6.04,2.78-8.9.45-1.04.88-2.11,1.48-3.11,1.06-1.74,2.33-3.44,4.11-4.78.89-.65,1.92-1.21,3.08-1.48.59-.1,1.17-.19,1.77-.13.27,0,.64.07.99.17.35.07.65.3.96.46,1.03.73,1.48,1.72,1.81,2.6.31.9.52,1.79.63,2.67.31,2.24.37,4.51-.42,6.64-.29.66-.31.55-.6-.04-.35-.6-.88-1.66-1.08-2.84-.21-1.05-.26-2.08-.49-3.06-.21-.97-.49-1.92-.86-2.61-.09-.16-.19-.3-.28-.44-.1-.07-.18-.24-.25-.25-.15-.15-.16-.06-.32-.13-.69-.02-1.41,0-2.19.37-.94.4-1.81,1.25-2.55,2.22-.74.98-1.36,2.1-1.93,3.24-1.28,2.51-2.26,5.26-2.94,8.07-.41,1.73-.73,3.49-.83,5.24-.05.86-.05,1.71.03,2.52.04.4.11.79.22,1.12.09.36.21.5.4.7.6.48,1.36.85,2.07.89.81.06,1.63-.28,2.41-.79.78-.51,1.52-1.19,2.28-1.88.34-.31.65-.64,1.01-.96,1.33-1.18,2.1-1.25,2.88-.74.18.12.39.22.53.36.48.49.23,1.31-.56,2.26-1.28,1.33-2.58,2.82-4.7,4.05-1.05.59-2.46,1.11-4.03,1.01-.39-.02-.78-.06-1.14-.17-.37-.1-.75-.19-1.07-.36-.32-.16-.69-.3-.96-.5-.3-.2-.52-.35-.91-.64l-.03-.03c-.24-.28-.53-.52-.73-.84-.17-.31-.43-.66-.51-.94-.24-.58-.34-1.06-.44-1.55-.15-.94-.2-1.8-.19-2.64.01-1.68.21-3.26.47-4.83h.08Z"/><path class="cls-7" d="m123.54,344.34c-1.08.57-2.38.89-3.65.77-1.27-.1-2.49-.59-3.44-1.34-.69-.55-1.33-1.17-1.75-1.93-.7-1.33-.91-2.92-.69-4.19.19-1.3.6-2.55,1.28-3.65.59-.98,1.36-1.89,2.33-2.53,1.22-.88,2.83-1.1,4.17-.75.43.1.31.46-.04.85-.17.2-.4.4-.65.6-.24.23-.51.38-.77.51-.24.1-.47.2-.67.35-.22.11-.4.25-.59.37-.36.29-.69.6-.96.99-.55.77-.94,1.74-1.19,2.79-.14.63-.13,1.32,0,1.87.14.57.44,1.07.78,1.5.77.95,2.03,1.41,3.28,1.09.37-.11.8-.26,1.11-.49.32-.2.61-.48.86-.83.76-1.05,1.16-2.59.96-3.97-.15-1.09-.91-1.93-1.49-2.12-.12-.08-.28-.01-.38-.08-.45-.08-.67-.25-.99-1.19-.07-.21-.17-.42-.24-.62-.11-.35-.1-.69.11-.97.22-.26.59-.58,1.18-.61.44,0,.9-.06,1.37.1.23.06.47.13.7.22.23.09.43.22.64.35.86.53,1.42,1.31,1.85,2.08.81,1.57.94,3.19.77,4.74-.15,1.15-.5,2.29-1.09,3.38-.58,1.07-1.6,2.14-2.76,2.78l-.05-.07Z"/><path class="cls-7" d="m227.34,287.32c-2.21.84-4.42,1.75-6.62,2.69-.8.34-1.56.78-2.37,1.11-2.84,1.21-5.73,2.32-8.6,3.5-1.28.51-2.51,1.12-3.76,1.66-1.61.67-3.2,1.45-4.97,1.74-.55.1-.57-.14-.28-.64.14-.25.36-.57.64-.92.27-.36.62-.71,1.06-.95,3.02-1.89,6.21-3.37,9.52-4.73,1.99-.81,3.91-1.94,5.88-2.9,2.17-1.05,4.36-2.08,6.58-3.07,1.36-.61,2.74-1.2,4.13-1.79,2.11-.88,4.26-1.67,6.59-2.24.92-.2,1.84-.45,3.03-.35.73.12.94.17,1.34.2.38.04.79.06,1.28.13.42.06.92.12,1.43.34.95.41,1.43.97,1.59,1.39.15.44.05.82-.26,1.24-.14.19-.27.4-.44.56-.57.55-1.4.37-1.96.22-.42-.11-.72-.08-1.47-.13-.36-.02-.8-.06-1.28-.14-.24-.04-.5-.1-.75-.16-.14-.01-.09.02-.17,0-.29.01-.89.09-1.53.26-.64.16-1.33.36-2.03.61-2.1.7-4.34,1.5-6.53,2.42l-.04-.08Z"/><path class="cls-7" d="m290.08,303.66c1.87,1.38,3.69,2.85,5.46,4.41.87.83,1.76,1.61,2.57,2.57l.62.69c.2.24.4.54.59.81l.58.83c.19.28.33.63.49.94.9,1.87,1.23,4.02.9,5.95-.57,3.42-2.25,6.22-4.23,8.63-.26.3-.51.6-.78.88l-.42.45c-.18.21-.41.41-.63.58l-.65.55c-.22.17-.47.28-.74.34-.54.13-1.1.05-1.63-.13-.52-.2-1.02-.48-1.48-.83-.25-.2-.37-.28-.53-.42l-.44-.39c-.58-.52-1.1-1.05-1.63-1.57-1.84-1.86-3.7-3.61-5.65-5.18-2.52-2.03-5.21-3.61-8.13-4.99-.92-.43-.81-.5.14-.68.92-.18,2.84-.44,4.77.32,3.33,1.44,6.27,3.54,8.81,5.84,1.23,1.11,2.46,2.23,3.7,3.34.29.25.59.5.85.7.04.06.08.12.15.17.06.06.15.11.24.1.08-.02.16-.07.25-.12l.05-.04.12-.11.25-.24c.16-.16.32-.34.47-.52.32-.34.6-.73.89-1.1.55-.77,1.04-1.59,1.45-2.43.79-1.69,1.27-3.51,1.16-5.16-.06-.91-.25-1.79-.7-2.57-.45-.8-1.06-1.58-1.81-2.36-.34-.4-.73-.78-1.14-1.15-.4-.37-.79-.76-1.21-1.12-.86-.71-1.68-1.46-2.58-2.13-2.16-1.72-4.45-3.31-6.76-4.86-3.53-2.31-7.16-4.53-10.9-6.44-2.9-1.49-5.9-2.65-8.89-3.73-.66-.23-1.31-.45-1.98-.68-2.45-.88-3.12-1.32-3.38-2.48-.06-.26-.16-.53-.17-.77-.02-.41.27-.68.84-.81.55-.12,1.41-.15,2.39.11,5.88,1.43,11.52,4.17,16.97,7.21,4.04,2.28,7.97,4.8,11.78,7.52l-.05.08Z"/><path class="cls-7" d="m227.7,354.86c.06-3.55.76-6.8,1.65-10.01.33-1.17.6-2.35,1.05-3.49.77-2.01,1.69-3.97,2.9-5.83.6-.93,1.3-1.82,2.14-2.65.42-.41.88-.81,1.42-1.15.26-.19.54-.31.82-.44.29-.12.53-.29.87-.35,1.06-.38,2.39-.36,3.48.08,1.09.45,1.97,1.17,2.57,1.99,1.54,2.11,2.31,4.48,2.45,6.88.04.75-.16.68-.6.16-.27-.32-.58-.68-.89-1.04-.38-.42-.77-.9-1.08-1.44-1.09-1.91-2.81-3.51-3.75-3.61-.46-.06-1.01.13-1.8.5-.65.35-1.4,1.05-2.07,1.85-1.64,1.98-2.62,4.76-3.49,7.41-.96,2.94-1.69,6.01-1.97,9.08-.08.94-.12,1.88-.08,2.79.04.9.17,1.81.46,2.49.1.24.18.38.29.52.12.14.26.25.43.31.84.32,1.89.51,2.83.39.96-.09,1.88-.53,2.72-1.11.85-.59,1.58-1.37,2.23-2.24.66-.85,1.25-1.78,1.83-2.72.26-.42.48-.85.75-1.27,1-1.55,1.57-1.92,2.55-1.75.23.04.47.05.67.13.68.24.76,1.2.2,2.5-.86,1.91-1.93,3.82-3.44,5.67-.75.92-1.63,1.81-2.73,2.59-1.06.79-2.4,1.45-3.89,1.72l-.64.12-.65.03c-.44.01-.88.03-1.3-.05-.42-.07-.86-.1-1.25-.22l-1.29-.4c-.22-.09-.42-.24-.64-.34-.22-.11-.42-.23-.6-.4-.38-.31-.68-.68-.95-1.09-.52-.82-.7-1.43-.88-2.08-.31-1.26-.4-2.39-.41-3.49h.09Z"/><path class="cls-7" d="m324.26,286.82c.33,1.01.29,2.08.02,2.96-.28.89-.78,1.63-1.39,2.22-.44.43-.91.85-1.48,1.1-1,.42-2.07.5-3.07.26-1.01-.24-1.89-.92-2.39-1.73-.45-.71-.72-1.58-.6-2.41.03-.54.31-.99.57-1.37.24-.4.55-.74.86-1.05.2-.19.3-.08.34.22.04.29.05.8-.04,1.24-.16.37.09.81.03,1.05.02.27.1.46.22.67.24.41.63.74,1.06.93.57.3,1.4-.04,1.87-.46.58-.45.96-1.23.93-1.88,0-.38-.19-.82-.53-1.12-.49-.47-1.15-.6-1.7-.19-.43.32-.58,1-.62,1.59-.01.13,0,.27-.02.39-.09.45-.34.54-1.36.6l-.69.05c-.76.05-1.42-.33-1.54-1.07-.18-1.08.05-2.24.75-3.3.35-.53.82-1.05,1.46-1.46.62-.43,1.43-.69,2.23-.75,1.23-.12,2.46.32,3.32.97.88.66,1.5,1.52,1.86,2.52l-.08.04Z"/><path class="cls-7" d="m329.32,305.73c-.61.66-1.36,1.18-2.22,1.5-.85.33-1.83.39-2.67.2-.62-.13-1.21-.29-1.72-.61-.88-.58-1.56-1.37-1.96-2.3-.39-.93-.42-2.01-.15-2.89.24-.79.62-1.49,1.15-2.06.33-.36.71-.69,1.16-.92.44-.24.96-.3,1.45-.27.31.03.26.26.09.56-.19.28-.39.77-.63,1.03-.48.42-.81.99-.96,1.53-.15.56-.14,1.01-.03,1.51.13.64.85,1.13,1.48,1.31.7.23,1.35.19,2.01-.28.39-.29.72-.71.89-1.18.25-.71.21-1.5-.35-2.06-.42-.45-1.14-.48-1.61-.45-.11,0-.22.06-.31.06-.35.02-.43-.18-.79-1.11l-.26-.62c-.29-.68-.13-1.43.66-1.72,2.33-.87,5.13.63,6.04,3.31.34,1,.34,2.09.1,3.03-.24.94-.7,1.77-1.29,2.47l-.07-.05Z"/><path class="cls-7" d="m328.91,338.74c-.49.64-1.22,1.32-2.19,1.64-.97.33-1.99.16-2.74-.18-.55-.25-1.04-.52-1.42-.9-.65-.68-1.1-1.49-1.31-2.36-.19-.83-.2-1.65-.07-2.43.11-.69.28-1.35.55-1.98.18-.4.37-.79.64-1.14.28-.34.63-.62,1.03-.81.25-.12.36.11.41.47.03.35.09.85-.03,1.2-.58,1.15-.69,2.41-.55,3.59.06.73.68,1.22,1.22,1.53.3.18.59.24.8.24.2-.03.39-.05.63-.25.28-.23.58-.7.74-1.19.12-.37.21-.76.2-1.12,0-.38-.08-.68-.24-.91l-.04-.04c-.27-.34-.77-.31-1.04-.18-.07.03-.12.1-.18.12-.11.05-.05,0-.16-.15-.09-.16-.28-.41-.62-.79-.15-.17-.33-.33-.49-.5-.28-.28-.47-.58-.48-.93-.01-.35.19-.72.6-.98,1.63-1.03,4.02-.4,5.22,1.38.2.32.39.66.52,1.03.14.37.21.75.26,1.06.13.91.02,1.75-.2,2.5-.23.77-.54,1.43-1.02,2.12l-.07-.04Z"/><path class="cls-7" d="m312.61,273.47c-1.13,1.21-2.75,1.91-4.41,1.79-.59-.04-1.17-.12-1.69-.36-1.8-.85-2.93-2.71-2.88-4.54.03-.8.21-1.56.54-2.25.45-.85,1.21-1.61,2.15-1.84.3-.07.33.17.26.52-.08.33-.16.82-.34,1.15-.58,1.24-.82,2.36-.35,3.44.28.71,1.11,1.08,1.79,1.26.75.2,1.59.03,2.29-.52.43-.32.77-.77.95-1.27.28-.72.19-1.67-.32-2.21-.4-.44-.94-.35-1.3-.15-.08.04-.13.12-.18.16-.17.13-.29-.07-1.02-.48-.16-.1-.34-.17-.5-.26-.28-.15-.49-.35-.55-.66-.07-.3.04-.69.35-1.02.96-.97,2.42-1.25,3.81-.77,1.45.53,2.35,1.76,2.68,2.99.26.91.26,1.87.02,2.77-.25.89-.68,1.68-1.25,2.31l-.06-.04Z"/><path class="cls-7" d="m328.27,266.07c-.24.57-.43,1.17-.56,1.79-.06.23-.03.46-.08.69-.16.81-.27,1.65-.27,2.49-.02.38.03.75.07,1.12.08.47.19.93.16,1.43-.01.16-.24.2-.52.14-.27-.06-.61-.23-.74-.5-.41-.97-.71-2-.57-3.07.06-.63-.06-1.28-.04-1.93.03-.71.12-1.42.26-2.12.09-.43.2-.86.33-1.28.18-.64.46-1.26.68-1.89.19-.49.26-1.03.45-1.55.04-.12.06-.24.12-.35.24-.38.52-.36,1.06-.03.12.08.25.15.37.23.39.28.62.67.64.98-.04.86-.39,1.46-.67,2.19-.22.53-.45,1.08-.62,1.67h-.06Z"/><path class="cls-7" d="m358.98,296.3c2.45,5.68,4.52,11.52,6.12,17.5.58,2.18,1.2,4.37,1.6,6.61.67,3.95,1.1,7.99.77,12.12-.19,2.06-.55,4.18-1.52,6.21-.48,1.01-1.15,2-2.05,2.8-.23.19-.48.37-.72.55l-.79.46-.81.35c-.28.09-.56.18-.84.25-2.03.5-4.08.14-5.84-.52-1.77-.68-3.35-1.65-4.75-2.78-3.58-2.89-6.52-6.65-7.85-11.06-.37-1.39.01-1.27.8-.35.44.49,1,1.1,1.64,1.81.34.36.7.75,1.08,1.15.39.4.79.82,1.16,1.29,1.36,1.64,2.9,3.11,4.57,4.34,1.67,1.2,3.44,2.24,5.19,2.69,1.73.45,3.37.22,4.48-.67,1.13-.8,1.97-2.58,2.4-4.56.53-2.39.49-5.08.19-7.74-.29-2.67-.85-5.35-1.43-8.01-1.31-5.84-3.19-11.6-5.45-17.2-1.4-3.45-2.93-6.85-4.64-10.15-2.59-5.01-5.48-9.91-8.9-14.31-2.66-3.42-5.71-6.41-9-8.98-.72-.57-1.47-1.07-2.21-1.59-1.38-.98-2.31-1.57-2.89-2.12-.58-.56-.84-1.05-.97-1.67-.06-.28-.17-.59-.17-.84,0-.43.39-.64,1.14-.63.75,0,1.84.28,3.1.91,3.72,1.87,7.01,4.59,9.92,7.63,2.92,3.05,5.49,6.44,7.82,9.96,3.46,5.24,6.37,10.81,8.93,16.5l-.09.05Z"/><path class="cls-7" d="m254.9,278.38c-2.27.65-4.48,1.94-6.5,3.53-2.02,1.61-3.88,3.49-5.54,5.54-1.22,1.5-2.25,3.14-3.25,4.77-1.02,1.66-1.9,3.39-2.57,5.14-.31.87-.57,1.76-.67,2.57-.04.4-.06.79,0,1.05,0,.16.1.36.24.48l.2.15c.11.05.22.1.32.16.23.08.47.17.75.21.55.08,1.17.09,1.81-.03,1.29-.18,2.63-.7,3.92-1.31,2.68-1.32,5.19-3.18,7.44-5.22,2.87-2.67,5.42-5.64,7.7-8.82.9-.91.74-.85.73.33,0,.59-.16,1.39-.41,2.35-.28.94-.75,1.98-1.41,2.99-1.17,1.8-2.55,3.44-4.06,4.96-1.49,1.53-3.11,2.95-4.86,4.24-1.79,1.23-3.7,2.34-5.88,3.13-1.09.38-2.25.69-3.54.78-1.27.09-2.74-.09-4.06-.86-.13-.07-.24-.16-.37-.25-.15-.11-.3-.22-.45-.33-.33-.39-.72-.73-.91-1.22-.24-.43-.35-1.03-.42-1.43-.07-.83-.03-1.59.1-2.28.24-1.39.65-2.63,1.12-3.84.96-2.4,2.17-4.64,3.57-6.73,1.61-2.38,3.43-4.62,5.49-6.64,2.05-2.03,4.33-3.86,6.94-5.25,1.6-.85,3.34-1.52,5.19-1.84,1.86-.33,3.78-.18,5.5.14,2.65.47,5.18,1.26,7.66,2.14,2.48.87,4.89,1.89,7.26,2.95,3.68,1.66,7.29,3.35,10.74,5.47.77.44,1.5.94,2.25,1.45,1.36.98,2.18,1.74,2.66,2.38.46.67.59,1.18.53,1.75-.03.26-.02.55-.1.76-.29.71-1.6.21-3.49-1.07-5.65-3.76-12.16-7.07-18.91-9.68-2.51-.94-5.07-1.8-7.61-2.39-.63-.14-1.27-.29-1.89-.37l-.93-.14-.88-.06c-1.15-.06-2.24.08-3.38.41l-.03-.08Z"/><path class="cls-7" d="m245.63,361.03c-1.15-1.94-1.4-3.86-1.51-5.67-.07-1.82.07-3.58.38-5.31.22-1.26.42-2.52.82-3.74.73-2.14,1.62-4.25,3.32-6.13.45-.46.94-.91,1.6-1.26.66-.32,1.47-.54,2.29-.44.8.11,1.53.46,2.06.93.54.47.91,1.01,1.21,1.54,1,1.91,1.35,3.83,1.64,5.72.34,2.42.51,4.88-.07,7.29-.24.75-.24.63-.46,0-.28-.64-.76-1.77-1.02-3.1-.42-2.34-.82-4.69-1.61-6.73-.37-1-.9-1.93-1.39-2.34-.24-.21-.4-.24-.56-.27-.13-.03-.32.02-.65.18-.81.39-1.64,1.56-2.2,2.78-.57,1.24-1,2.61-1.34,3.98-.38,1.51-.65,3.06-.74,4.6-.1,1.54-.03,3.1.34,4.5.23.86.58,1.65,1.07,2.22.55.61,1.27,1.14,2.06,1.46,2.43,1.02,5.54.47,8.26-.58,2.15-.83,4.1-2.06,6.1-3.27.44-.27.86-.56,1.32-.81,1.71-.95,2.48-1.02,3.22-.31.17.16.36.31.49.49.39.63-.04,1.39-1.16,2.18-3.39,2.34-7.37,4.75-12.27,5.84-1.82.37-3.84.53-5.93,0-1.03-.27-2.05-.72-2.96-1.33l-.66-.48-.6-.54c-.4-.38-.82-.89-1.11-1.36l.07-.05Z"/><path class="cls-7" d="m161.76,301.3c-3.58,6.83-6.7,13.79-9.05,21.1-.86,2.66-1.53,5.37-2.19,8.07-1.16,4.76-2.03,9.61-2.17,14.44-.07,2.41.05,4.82.55,7.09.25,1.13.59,2.22,1.09,3.21l.4.71.46.65.52.58c.17.1.3.29.47.34.56.32,1.34.31,2.21-.05.86-.34,1.72-.91,2.52-1.57,1.6-1.33,3.07-2.92,4.41-4.6,1.73-2.16,3.26-4.49,4.69-6.88.72-1.19,1.42-2.4,2.07-3.62.33-.61.64-1.23.94-1.85.3-.62.66-1.22.92-1.85.65-1.56.74-1.4.78.2-.02.78,0,1.95-.34,3.25-.3,1.31-.78,2.8-1.51,4.31-1.33,2.66-2.84,5.21-4.58,7.66-1.77,2.43-3.63,4.83-6.35,6.77-.67.49-1.44.93-2.31,1.29-.9.34-1.92.63-3.13.52-1.21-.11-2.42-.76-3.18-1.51-.66-.66-1.23-1.38-1.67-2.14-1.76-3.05-2.2-6.26-2.3-9.31-.11-3.67.2-7.31.69-10.93.52-3.61,1.24-7.2,2.19-10.69,2.09-7.66,4.96-15.09,8.43-22.19,2.11-4.36,4.38-8.65,6.8-12.86,3.71-6.34,7.77-12.57,12.88-17.95,2.01-2.06,4.15-4.05,6.88-5.42,1.37-.66,2.97-1.13,4.69-.99.85.09,1.72.31,2.48.72.19.11.38.19.58.32.2.15.42.3.61.47.17.18.35.36.5.55l.4.59c.78,1.42,1.04,2.8,1.13,4.15.12,2.5-.18,4.04-.47,5.11-.33,1.06-.71,1.63-1.22,2.04-.23.19-.47.45-.67.54-.7.32-.86-1.63-.83-4.83,0-1.18-.06-2.35-.26-3.41-.18-1.04-.59-2-.97-2.26-.1-.06-.13-.1-.37-.2l-.27-.14-.29-.08c-.37-.13-.77-.14-1.18-.15-.84.05-1.78.36-2.73.86-.95.49-1.89,1.16-2.8,1.92-.91.75-1.8,1.59-2.65,2.49-1.71,1.78-3.31,3.75-4.82,5.81-4.5,6.12-8.4,12.86-11.92,19.76l-.08-.03Z"/><path class="cls-7" d="m34.49,322.25c-.39-8.26-.29-16.52.18-24.75.15-2.06.25-4.1.43-6.18.18-2.08.42-4.14.7-6.19.55-4.11,1.25-8.17,2.05-12.22,1.16-5.9,2.41-11.78,3.96-17.58,2.77-10.21,6.05-20.3,10.15-30.09,2.06-4.89,4.32-9.71,6.95-14.37,1.31-2.33,2.73-4.61,4.29-6.81,1.55-2.2,3.26-4.33,5.21-6.28,1.73-1.72,3.67-3.32,5.94-4.52,2.25-1.2,4.92-1.95,7.65-1.64,2.75.28,5.29,1.78,7.01,3.67,1.77,1.88,3.05,4.05,4.03,6.26,1.25,2.85,2.16,5.8,2.8,8.78.64,2.98,1.11,5.99,1.33,9.01.23,3.02.27,6.05.14,9.07-.06,1.51-.18,3.01-.33,4.52-.17,1.5-.46,2.99-.77,4.46-.39,1.84-.74,2.6-.91,2.52-.19-.09-.23-1.02-.36-2.61-.32-3.18-.88-8.82-1.54-15.5-.16-1.47-.35-2.93-.57-4.37-.2-1.45-.45-2.89-.74-4.32-.57-2.85-1.36-5.64-2.4-8.24-1.04-2.58-2.4-5-4.11-6.67-.86-.82-1.77-1.41-2.73-1.73-.96-.32-1.95-.4-3.08-.24-2.2.26-4.5,1.52-6.57,3.25-2.09,1.73-3.98,3.9-5.73,6.2-3.49,4.65-6.4,9.9-9.06,15.3-3.15,6.47-5.8,13.4-8.11,20.47-2.31,7.08-4.29,14.31-6.04,21.53-1.91,7.94-3.53,15.96-4.57,24.03-.26,2.02-.47,4.03-.63,6.05l-.4,6.12c-.08,2.04-.19,4.08-.25,6.12-.03,2.04-.1,4.09-.09,6.13,0,5.03.17,10.06.49,15.08.36,5.01.88,10.02,1.6,14.99,1.15,7.52,2.7,15.01,4.93,22.27,1.08,3.64,2.4,7.2,3.88,10.67,1.49,3.47,3.18,6.84,5.19,9.97,1.55,2.44,3.33,4.71,5.34,6.64,1.99,1.93,4.4,3.43,6.81,3.74.59-.01,1.18.04,1.74-.13l.42-.08.46-.16c.31-.1.61-.21.9-.36,1.18-.52,2.28-1.25,3.27-2.12,1.99-1.75,3.55-4.05,4.81-6.52,1.12-2.18,1.95-4.47,2.72-6.86,1.4-4.45,2.02-7.51,2.64-9.62.58-2.12,1.13-3.32,1.82-4.26.31-.43.63-1.01.89-1.25.44-.41.7.38.78,2.18.09,1.8-.16,4.58-.86,8.13-1.09,5.23-2.62,10.56-5.55,15.57-1.48,2.48-3.38,4.88-5.93,6.76-1.28.92-2.73,1.69-4.27,2.2l-.58.19c-.22.05-.45.1-.68.14-.46.08-.93.2-1.39.21-.46,0-.92,0-1.39-.02-.47,0-.88-.13-1.33-.21-.91-.13-1.66-.49-2.47-.78-.74-.36-1.48-.73-2.16-1.16-1.33-.87-2.54-1.85-3.62-2.91-2.16-2.11-3.97-4.44-5.54-6.87-3.17-4.86-5.54-10.07-7.58-15.37-5.89-15.83-8.41-32.58-9.33-49.22l.1-.03Z"/><g class="cls-8"><path class="cls-7" d="m435.23,248.78c2.4,1.58,5.1,2.77,7.88,3.48.76.2,1.63.1,2.31-.3.62-.36,1.22-1.08,1.38-1.79.36-1.56-.47-3.27-2.1-3.69-1.15-.3-2.27-.68-3.37-1.14l.72.3c-1.33-.57-2.59-1.25-3.8-2.04-.63-.41-1.6-.5-2.31-.3s-1.45.73-1.79,1.38c-.79,1.5-.32,3.18,1.08,4.1h0Z"/></g><g class="cls-8"><path class="cls-7" d="m389.12,321.46l3.36-3.93c.29-.27.5-.59.62-.97.19-.36.27-.74.26-1.16.02-.41-.07-.8-.26-1.16-.12-.37-.33-.69-.62-.97-.57-.52-1.32-.91-2.12-.88s-1.61.28-2.12.88l-3.36,3.93c-.29.27-.5.59-.62.97-.19.36-.27.74-.26,1.16-.02.41.07.8.26,1.16.12.37.33.69.62.97.57.52,1.32.91,2.12.88s1.61-.28,2.12-.88h0Z"/></g><path class="cls-7" d="m442,293.45l2.26-3.76c.24-.37.37-.78.39-1.21.1-.43.08-.86-.06-1.3-.1-.42-.29-.79-.58-1.11-.23-.35-.53-.63-.91-.84-.75-.4-1.67-.6-2.5-.33s-1.5.75-1.94,1.49l-2.26,3.76c-.24.37-.37.78-.39,1.21-.1.43-.08.86.06,1.3.1.42.29.79.58,1.11.23.35.53.63.91.84.75.4,1.67.6,2.5.33s1.5-.75,1.94-1.49h0Z"/><path class="cls-7" d="m380.65,276.21c2.89,1.38,5.77,2.76,8.66,4.14.74.35,1.5.53,2.31.3.7-.19,1.45-.73,1.79-1.38.71-1.34.44-3.38-1.08-4.1-2.89-1.38-5.77-2.76-8.66-4.14-.74-.35-1.5-.53-2.31-.3-.7.19-1.45.73-1.79,1.38-.71,1.34-.44,3.38,1.08,4.1h0Z"/><path class="cls-5" d="m171.99,386.36c0,5.99-9.11,6.22-9.56.38-.49-6.3,9.56-6.74,9.56-.38Z"/><path class="cls-1" d="m443.39,447.68c0,3.84-5.84,3.99-6.13.24-.31-4.04,6.13-4.32,6.13-.24Z"/><path class="cls-7" d="m333.44,391.59c0,4.82-7.03,5.76-8.61,1.38-2.19-6.09,8.61-7.8,8.61-1.38Z"/><path class="cls-7" d="m135.13,86.62c.86,6.03-9.58,4.18-6.48-1.21,1.61-2.8,6.03-1.96,6.48,1.21Z"/><path class="cls-6" d="m379.17,142.92c0,6.1-10.08,2.78-6.25-2.11,1.99-2.55,6.24-1.09,6.25,2.11Z"/><path class="cls-7" d="m357.23,114.67c0,4.95-9.31,2.26-5.77-1.72,1.84-2.07,5.77-.89,5.77,1.72Z"/><path class="cls-7" d="m225.47,228.93c-.5-.13-.56-.71-.38-1.53.06-.26.52-.84.69-.84.34,0,.68,0,.99.06.19.02,2.6,1.32,3.45,1.75.82.42,1.56.94,2.27,1.49,1.45,1.15,2.91,2.3,4.29,3.6.31.28.57.62.8.97.8,1.22,1.72,2.32,2.71,3.4.17.17.29.39.56.49.21.08.94.91,1.54,1.84.64.91,1.14,1.9,1.23,2.15.32,1.26.77,2.43,1,3.68.04.18.17.32.05.55-.28.53-.06.84.05,1.2.16.5.21,1.04.25,1.58.01.27-.12.6-.19.9-.07.28-.64.38-.73.33-.26-.14-.44.14-.65.25-.07.04-.17.09-.23.1-.1,0-2.62-2.02-2.71-2.3-.07-.07-2.22-3.54-2.54-3.84-.16-.18-.18-.44-.24-.69-.01-.06-.52-.71-1.03-1.35-.53-.62-1.06-1.25-1.1-1.3-.33-.56-.81-1.01-.91-1.77-.02-.15-.12-.25-.2-.35-.73-.86-1.35-1.84-2.07-2.76-.35-.48-.81-.87-1.22-1.3-.07-.08-.11-.19-.17-.29-.07-.12-.13-.25-.23-.35-1.03-.97-1.96-2.09-3.13-2.94-.27-.19-1.23-1.53-1.56-1.74-.18-.12-.4-.98-.61-1.03Z"/><path class="cls-7" d="m264.02,240.44c.12.47-.41.7-1.32.82-.29.04-1.08-.17-1.17-.32-.16-.3-.32-.6-.41-.89-.07-.18.16-2.74.27-3.63.07-.86.32-1.67.58-2.47.57-1.61,1.16-3.23,1.91-4.78.16-.35.37-.67.62-.97.86-1.02,1.51-2.14,2.12-3.3.1-.19.24-.37.22-.63-.03-.22.46-1.08,1.01-1.92.56-.83,1.21-1.63,1.39-1.78.49-.35.95-.72,1.41-1.09.47-.36.95-.71,1.43-1.05.13-.1.21-.27.46-.24.57.08.77-.22,1.04-.44.37-.32.8-.58,1.27-.78.23-.1.58-.05.89-.04.28.01.64.64.63.74-.02.31.32.45.52.67.07.07.16.17.2.24.05.08-.22.76-.51,1.42-.28.68-.56,1.36-.66,1.45-.01.01-.18.18-.39.46-.22.28-.51.65-.81,1.03-.56.79-1.14,1.61-1.22,1.81-.1.19-.32.3-.5.43-.12.04-1.51,2.61-1.57,2.71-.39.47-.56,1.07-1.21,1.39-.13.06-.17.18-.23.29-.48.93-1.12,1.77-1.68,2.67-.3.45-.47.97-.71,1.45-.04.09-.14.15-.2.23-.08.1-.19.19-.23.3-.49,1.18-1.19,2.29-1.48,3.55-.08.28-.93,1.49-.97,1.84-.03.19-.78.63-.72.83Z"/></svg>