<?xml version="1.0" encoding="UTF-8"?><svg id="Layer_1" xmlns="http://www.w3.org/2000/svg" width="520" height="520" viewBox="0 0 520 520"><defs><style>.cls-1,.cls-2,.cls-3,.cls-4,.cls-5,.cls-6{fill:#231f20;}.cls-7{fill:none;stroke:#231f20;stroke-miterlimit:10;}.cls-8{opacity:.45;}.cls-9,.cls-5{opacity:.35;}.cls-2{opacity:.3;}.cls-3{opacity:.25;}.cls-4{opacity:.2;}.cls-6{opacity:.5;}</style></defs><path class="cls-1" d="M449.71,433.54c.54,0,1,.22,1.4.29.13.02.11.08-.04.14-.29.1-.58.23-.88.38-.09,0-.85.42-1.72.6-.87.26-1.85.43-2.35.54-.96.19-1.93.38-2.9.42-1.98.11-3.96.22-5.94.29-.44.02-.88,0-1.32-.03-1.51-.13-3.02-.11-4.53-.06-.25,0-.51,0-.75.08-.4.15-4.5.12-5.03.05-1.31-.17-2.63-.31-3.94-.51-.19-.03-.39,0-.56-.11-.39-.24-.79-.22-1.2-.26-.56-.05-1.13-.12-1.68-.22-.28-.05-.55-.18-.82-.28-.24-.09-.09-.38,0-.41.26-.08.06-.23.04-.35,0-.04-.01-.1,0-.13.02-.04.83-.16,1.69-.28.86-.12,1.75-.25,1.93-.25.09,0,4.77-.15,5.32-.16.28-.02.56.04.84.07.13.03,3.88-.16,4.03-.16.78.02,1.55-.08,2.33.11.15.04.31.02.47.02,1.34-.06,2.67-.02,4.01-.01.68,0,1.36-.05,2.05-.08.12,0,.25.02.37.03.16.01.31.03.47.02.81-.05,1.62-.06,2.42-.1.81-.02,1.62,0,2.43-.06.37-.03,2.17.16,2.6.17.12,0,.38.07.64.13.26.08.52.16.63.15Z"/><path class="cls-1" d="M220.79,426.03c1.09-.3-.2-4.22,1.45-5.95.87-.91,3.65-1.62,5.58-1.68,5.57-.16-7.75-6.49-8.37-1.57-.62,4.92-.46,9.69,1.34,9.2Z"/><path class="cls-1" d="M329.46,401.06c.6,1.17,5.1-1.67,7.53,0,1.46,1,1.81,2.54,2.38,6.02,1.53,9.28,4.09-9.44-.39-9.77-4.48-.33-10.49,1.85-9.52,3.75Z"/><path class="cls-1" d="M70.34,438.47c-.27.04-.53.02-.77-.05-.24-.09-.46-.21-.67-.3-.13-.06-.12-.2.03-.27.3-.12.6-.31.91-.38.19-.05,3.21-.66,4.24-.79,1-.17,2-.28,3-.36,2.04-.21,4.08-.29,6.12-.36.45-.02.91,0,1.36.03,1.56.11,3.11.09,4.67.02.26-.01.52,0,.77-.09.41-.15,4.63-.2,5.18-.13.69.07,1.37.13,2.04.19.68.08,1.35.15,2.04.23.19.02.4,0,.58.1.41.22.83.2,1.25.22.58.03,1.16.09,1.74.17.29.04.57.16.85.26.26.09.11.38.02.41-.26.09-.05.23-.03.35,0,.04.02.1,0,.13-.01.04-.86.18-1.74.33-.88.15-1.81.3-1.99.3-.04,0-1.28.07-2.58.15-1.29.06-2.64.12-2.92.13-.29.02-.58-.03-.87-.06-.14-.02-4.02.2-4.18.2-.81-.02-1.61.08-2.42-.1-.16-.04-.32-.02-.48-.02-1.38.06-2.77.02-4.15,0-.71,0-1.41.04-2.12.06-.13,0-.26-.02-.38-.03-.16-.01-.32-.03-.48-.02-1.68.02-3.36-.07-5.03.02-.39,0-2.24-.13-2.68-.14-.25,0-1.08-.24-1.3-.2Z"/><path class="cls-1" d="M239.69,435.69c.56,0,1.03.21,1.45.3.13.03.11.09-.05.13-.31.06-.63.14-.95.24-.2.1-3.31.4-4.37.59-1.03.17-2.05.27-3.08.28l-6.25.24c-.46.02-.92-.02-1.38-.06-1.58-.17-3.16-.18-4.74-.12-.26,0-.53,0-.79.08-.42.13-4.7.2-5.25.15-1.41-.12-2.76-.24-4.13-.36-.2-.02-.41.02-.59-.08-.42-.22-.85-.17-1.27-.18-.59-.01-1.18-.02-1.78-.07-.29-.02-.59-.13-.88-.22-.27-.08-.14-.39-.05-.43.26-.11.04-.25,0-.38-.01-.04-.02-.1-.01-.14.02-.08,3.41-.87,3.79-.89.05,0,1.32-.12,2.65-.25,1.33-.14,2.73-.16,3.01-.2.3-.03.6.03.89.06.15,0,4.14-.15,4.3-.16.83.03,1.66-.04,2.48.17.16.04.33.03.5.03,1.42,0,2.84.07,4.26.21.72.06,1.45.07,2.17.11.13,0,.26.04.39.06.16.02.33.06.49.06,1.71.08,3.43.18,5.14.3.39.03,2.28.32,2.73.33.25.02,1.09.22,1.31.2Z"/><path class="cls-1" d="M326.57,435.35c-.5.08-.91-.24-1.27-.44-.12-.07-.1-.25.04-.3.28-.09.55-.21.84-.32.26-.04,2.9-.43,3.83-.57.9-.11,1.8-.15,2.7-.18l5.48-.21c.41-.01.81,0,1.22.04,1.39.16,2.78.18,4.17.13.23,0,.47,0,.69-.08.37-.14,4.15-.14,4.64-.07,1.21.17,2.43.28,3.64.42.17.02.36-.01.52.09.36.24.74.22,1.11.25.52.05,1.04.09,1.56.2.26.05.51.19.76.3.23.1.1.41.02.45-.24.1-.05.26-.03.39,0,.05.01.1,0,.14-.03.07-3.03.81-3.35.8-.04,0-1.15.04-2.32.08-1.16.05-2.37.1-2.63.12-.26.02-.52-.04-.78-.07-.12-.02-3.62.16-3.76.15-.72-.03-1.45.05-2.17-.17-.14-.04-.29-.03-.43-.03-1.24.04-2.49-.1-3.73-.19-.64-.05-1.27-.04-1.91-.07-.11,0-.23-.04-.34-.05-.14-.02-.29-.05-.43-.06-1.5-.03-3.01-.18-4.51-.15-.35.03-2-.34-2.4-.33-.22-.01-.95-.29-1.15-.26Z"/><path class="cls-1" d="M392.25,355.2c-.67-.3-1.3-.65-1.91-1.04-.23-.13-.45-.25-.67-.4-.74-.54-1.44-1.12-2.07-1.77-.29-.27-.56-.57-.83-.85-.34-.37-.66-.76-.92-1.19-.08-.13-.03-.15.1-.08.13.06.36.19.56.38.74.67,1.55,1.24,2.33,1.84.46.38,1.03.63,1.57.9.59.29,1.2.56,1.83.78.38.14.77.27,1.17.36.6.15,1.21.28,1.82.3.48,0,.94-.07,1.4-.15.1-.02.2-.04.3-.06.38-.04.5.09.63.49.03.09.06.18.08.27.07.31-.07.58-.37.73-.9.37-1.95.47-2.92.21-.73-.15-1.44-.41-2.12-.68v-.03Z"/><path class="cls-3" d="M356.43,433.57s-6.33-63.82,2.37-68.55c10.92-5.93,81.06-4.47,83.64,0,2.14,3.71,1.71,46.28.93,61.14-.14,2.73-4.08,8.39-6.82,8.42l-80.12-1.02Z"/><path class="cls-1" d="M213.1,399.16c-.63-2.38-1.14-4.78-1.63-7.17-.18-.87-.4-1.73-.57-2.6-.57-3.07-1.18-6.11-1.91-9.12-.33-1.34-.78-2.64-1.25-3.92-.59-1.65-1.46-3.16-1.93-4.89-.16-.53-.05-.52.36-.21.27.21.56.44.83.66.17.14.35.3.51.48.14.19.28.4.4.63,1.71,3.27,2.97,6.78,3.69,10.38.39,2.17.98,4.36,1.42,6.55.48,2.4.92,4.8,1.47,7.17.34,1.46.7,2.91,1.14,4.34.66,2.16,1.41,4.31,2.4,6.32.77,1.56,1.72,2.98,2.74,4.34.22.3.44.6.66.9.79,1.15,1.04,1.53.97,2-.01.1,0,.22-.04.31-.09.27-.64-.02-1.45-.75-1.19-1.09-2.21-2.41-3.09-3.83-.9-1.41-1.66-2.93-2.33-4.48-1-2.3-1.76-4.7-2.43-7.09l.04-.02Z"/><path class="cls-1" d="M339.71,381.32l.08-2.48c.05-.83.13-1.67.21-2.5.06-.61.08-1.22.17-1.82.3-2.13.74-4.23,1.24-6.31.2-.93.5-1.84.78-2.73.35-1.16.77-2.29,1.29-3.38.16-.34.16-.29.14.04-.03.32,0,.93-.07,1.63-.15,1.22-.27,2.43-.4,3.63-.2,1.19-.52,2.35-.78,3.54-.33,1.42-.41,2.93-.53,4.41-.15,1.63-.19,3.25-.27,4.91l-.13,3.07c-.08,1.56-.23,3.14-.54,4.68-.25,1.19-.51,2.39-1.05,3.5-.13.24-.24.48-.4.7-.57.84-.9,1-1.18,1.05-.07,0-.14.03-.19.02-.18-.02-.05-.43.22-1.06.18-.48.33-.97.45-1.47.14-.49.27-.98.36-1.48.21-1.01.26-2.05.39-3.1.14-1.57.2-3.19.2-4.84h.05Z"/><path class="cls-1" d="M343.72,429.76c-.6-1.49-.96-3.01-1.25-4.5-.1-.55-.25-1.07-.33-1.62-.27-1.92-.43-3.86-.42-5.79-.02-.86-.04-1.71-.06-2.56,0-1.09.18-2.18.41-3.25.08-.33.12-.28.23,0,.1.29.35.81.51,1.43.12.54.28,1.08.38,1.61l.14,1.61c.09,1.07.2,2.14.24,3.22.03,1.3.35,2.62.61,3.92.28,1.43.61,2.84,1.09,4.18.3.82.66,1.62,1.11,2.35.68,1.11,1.55,2.1,2.65,2.75.86.5,1.81.74,2.72.81.2.02.4-.02.59.05.37.07.62.12.81.23.19.12.32.26.44.43.06.08.13.15.17.22.07.12.02.24-.12.42-.14.17-.39.41-.76.52-1.08.46-2.31.28-3.42-.04-1.13-.34-2.12-1.02-2.98-1.8-1.3-1.19-2.17-2.67-2.82-4.15l.05-.02Z"/><path class="cls-1" d="M344.33,433.16c-.06-.19-.1-.37-.14-.55-.02-.06-.07-.11-.07-.18-.03-.24-.02-.48-.01-.7,0-.1-.03-.18-.08-.27-.05-.11-.16-.21-.03-.35.08-.08,1.33-.17,1.37-.11.08.14.09.27-.02.49-.06.13.05.2.08.29.03.11.07.22.1.34.03.07.05.14.09.2.06.09.11.21.21.26.08.04.22,0,.33-.02.02,0,.06-.02.07-.02.07,0,.02.11-.22.51l-.16.27c-.18.3-.37.53-.49.57-.36.12-.6-.02-.77-.22-.13-.14-.21-.33-.3-.49l.03-.02Z"/><path class="cls-1" d="M82.86,435.39c-.74-.84-1.16-1.88-1.4-2.85-.09-.36-.19-.7-.24-1.05-.15-1.25-.14-2.41-.23-3.59-.04-.52-.11-1.04-.19-1.55-.08-.66-.11-1.33-.05-2.01.02-.21.16-.2.36-.05.19.15.49.44.63.8.11.33.25.65.34.98.05.33.1.67.15,1.01.08.67.14,1.35.16,2.04.02.82.21,1.64.39,2.39.2.84.48,1.62.96,2.27.29.4.65.76,1.07,1.05.63.45,1.38.79,2.17.98.62.14,1.26.13,1.9.14.14,0,.28.02.42.04.26.05.43.11.54.23.11.14.16.28.2.47.02.09.04.17.05.25.01.13-.04.24-.16.36-.11.12-.29.27-.49.3-.62.18-1.26.18-1.91.09-.65-.08-1.31-.25-1.97-.5-.97-.37-1.94-.95-2.71-1.78l.03-.03Z"/><circle class="cls-1" cx="93.42" cy="401.31" r="4.09"/><circle class="cls-1" cx="109.35" cy="420.92" r="4.09"/><circle class="cls-1" cx="126.57" cy="399.82" r="4.09"/><ellipse class="cls-1" cx="143.87" cy="416.32" rx="4.09" ry="4.59"/><path class="cls-1" d="M80.29,418.4s1.61-5,3.36-3.68,5.2,2.84,3.23,5.47-4.15,2.75-4.15,2.75l-2.45-4.54Z"/><path class="cls-1" d="M147.16,419.54c.07-2.09.12-4.17.09-6.26,0-.76-.06-1.52-.08-2.28-.08-2.68-.11-5.37-.28-8.05-.04-1.2-.18-2.39-.29-3.57-.21-1.51-.45-3.02-.7-4.52-.07-.47-.05-.41.07-.02.11.39.35,1.09.58,1.95.65,3.05,1.71,6.07,1.8,9.25.08.94.15,1.9.21,2.87.08.97.12,1.94.16,2.9.07,2.12.07,4.24.05,6.36l-.08,3.91c-.04,1.97-.17,3.95-.22,5.91-.04,1.52,0,3.01-.02,4.52,0,.33,0,.66,0,.99-.02,1.24-.19,1.62-.54,1.87-.08.06-.16.13-.23.17-.22.11-.49-.41-.56-1.31-.18-2.69-.16-5.52-.14-8.36,0-2.11.1-4.21.14-6.32h.04Z"/><path class="cls-1" d="M145.11,373.39c.71-.59,1.5-1.09,2.3-1.5.29-.15.57-.33.87-.46,1.07-.45,2.19-.69,3.27-.96.48-.11.96-.25,1.43-.38.59-.21,1.23-.28,1.87-.29.2,0,.2.11.08.3-.12.18-.36.49-.68.68-.28.18-.58.28-.88.37-.3.09-.6.18-.9.28-.6.18-1.2.35-1.8.5-.73.19-1.4.57-2.08.89-.75.35-1.47.76-2.12,1.25-.41.3-.79.64-1.14,1.01-.53.56-1.01,1.17-1.33,1.86-.25.54-.34,1.11-.4,1.67-.02.12-.01.25-.02.37-.05.45-.12.59-.5.68-.08.02-.17.05-.25.07-.28.05-.51-.17-.57-.59-.14-1.24.28-2.56.98-3.64.51-.82,1.16-1.52,1.86-2.14l.02.02Z"/><path class="cls-1" d="M142.96,388.44c-.34-.84-.83-1.74-1.22-2.76-.15-.37-.31-.75-.4-1.15-.3-1.41-.2-2.8,0-4.1.1-.58.12-1.16.26-1.72.13-.72.33-1.43.7-2.08.11-.21.28-.14.46.1.17.23.43.64.47,1.07.13,1.5-.22,2.81-.38,4.17-.11.82.12,1.64.37,2.39.26.83.73,1.67,1.19,2.58.29.56.56,1.16.78,1.77.34.92.53,1.87.76,2.79.18.71.43,1.4.56,2.11.03.16.08.3.1.46.02.59-.12.79-.54.97-.1.04-.19.09-.29.12-.32.09-.64-.11-.87-.51-.35-.59-.55-1.2-.77-1.81-.14-.61-.27-1.21-.41-1.82-.21-.89-.43-1.74-.81-2.55l.04-.02Z"/><path class="cls-1" d="M143.14,388.08c-.52-1.29-1.06-2.74-1.21-4.26-.06-.55-.13-1.09-.11-1.63.1-1.91.54-3.72,1.16-5.45.26-.77.56-1.53.91-2.26.42-.94.97-1.84,1.67-2.61.22-.24.27-.15.25.16-.03.3-.08.83-.26,1.38-.35.95-.64,1.9-.94,2.84-.33.93-.63,1.88-.89,2.84-.31,1.16-.32,2.42-.25,3.6.04,1.32.38,2.56.9,3.83l1,2.39c.5,1.24.88,2.55,1.17,3.85.22,1.01.5,2,.65,3.02.04.22.09.44.11.67.01.84-.12,1.11-.59,1.29-.11.04-.21.09-.32.12-.36.08-.67-.25-.83-.83-.43-1.71-.6-3.47-1.08-5.16-.33-1.26-.81-2.49-1.36-3.78l.04-.02Z"/><path class="cls-1" d="M341.24,405.18l.36,4.26c.05.52.16,1.03.21,1.55.15,1.84.34,3.69.43,5.55.06.82.14,1.65.23,2.46.06,1.05.4,2.1-.18,3.18-.12.33-.1.28-.28.02-.09-.13-.27-.32-.51-.54-.12-.11-.18-.23-.27-.36-.04-.06-.07-.13-.12-.2-.02-.07-.03-.14-.04-.21-.3-2.07-.72-4.13-.82-6.28-.05-1.29-.36-2.59-.54-3.9-.19-1.44-.38-2.88-.5-4.33l-.22-2.68c-.1-1.36-.14-2.73-.22-4.08-.06-1.05-.21-2.09-.26-3.14-.02-.23-.05-.46-.04-.7.03-.87.19-1.14.78-1.27.13-.03.26-.07.39-.08.42-.04.8.34.87.95.25,1.8.32,3.65.46,5.55.09,1.4.19,2.82.33,4.24h-.05Z"/><path class="cls-1" d="M221.38,421.85c.06,1.03.14,2.06.25,3.09.04.38.13.74.17,1.12.15,1.33.17,2.68.27,4.02.05.59.13,1.18.21,1.77.11.75.23,1.5.21,2.27,0,.24-.18.23-.41.06-.22-.17-.51-.49-.64-.91-.42-1.48-.85-2.96-1.03-4.5-.13-.92-.37-1.86-.53-2.8-.17-1.03-.31-2.07-.45-3.12l-.23-1.93c-.11-.98-.21-1.96-.32-2.93-.09-.75-.31-1.49-.43-2.25-.03-.17-.08-.33-.09-.5-.03-.63.12-.83.68-.97.13-.03.26-.07.38-.09.43-.06.8.19.95.62.45,1.27.6,2.6.78,3.96.09,1.02.18,2.05.27,3.07h-.05Z"/><path class="cls-1" d="M342.17,389.26c-.19.98-.43,1.94-.8,2.91-.13.35-.23.71-.39,1.04-.58,1.18-1.44,2.21-2.39,3.08-.42.39-.85.78-1.34,1.09-.63.38-1.35.65-2.09.64-.23,0-.22-.12-.1-.34.13-.21.32-.6.58-.86.87-.97,1.75-1.62,2.61-2.6.52-.57.79-1.35,1.11-2.07.35-.8.6-1.65.78-2.54.11-.55.21-1.1.27-1.67.11-.85.21-1.73.21-2.59,0-.68-.1-1.34-.14-2.02,0-.15-.03-.3-.03-.45,0-.56.14-.74.57-.83.1-.02.2-.05.3-.06.33-.03.6.2.69.6.29,1.19.39,2.44.41,3.73.01.96-.03,1.95-.2,2.94h-.05Z"/><path class="cls-1" d="M341.9,394.94c-.2.23-.42.43-.63.63-.07.07-.11.17-.19.24-.31.22-.6.43-.95.56-.14.07-.25.16-.36.26-.14.12-.26.28-.51.26-.08,0-.24-.26-.39-.53-.14-.27-.29-.58-.26-.67.14-.29.23-.54.57-.62.22-.04.25-.25.36-.38.13-.15.26-.3.39-.46.07-.1.15-.2.22-.31.1-.16.21-.33.23-.52.01-.15-.06-.31-.1-.45,0-.03-.03-.06-.03-.09.01-.11.15-.13.62-.13h.32c.36,0,.66.09.79.22.35.38.54.85.37,1.23-.09.29-.24.55-.4.8l-.05-.02Z"/><path class="cls-1" d="M337.91,392.5c.82-1.19,1.48-2.51,1.92-3.9.17-.5.29-1.03.41-1.55.44-1.86.62-3.85.83-5.81.09-.87.15-1.75.21-2.62.06-1.12.1-2.24.33-3.35.07-.35.2-.29.34.01.13.3.36.86.37,1.51-.05,2.29-.14,4.57-.39,6.87-.15,1.38-.19,2.84-.48,4.28-.32,1.59-.97,3.1-1.78,4.48-.52.84-1.08,1.66-1.72,2.4-.96,1.14-2.08,2.13-3.27,3.01-.92.67-1.84,1.34-2.87,1.86-.22.12-.45.23-.68.33-.9.31-1.23.25-1.51-.02-.06-.06-.14-.11-.18-.17-.14-.19.14-.56.7-.86,1.66-.93,3.35-1.88,4.82-3.19,1.09-.95,2.09-2.04,2.9-3.26l.03.02Z"/><path class="cls-1" d="M327.02,402.73c.57,1.26-2.98,4.08-2.4,5.6.19.51,3.86.89,4.52,1.41,2.63,2.08-6.82,1.99-6.82,1.99,0,0-4.67-.9-1.65-4.5,3.01-3.6,6.36-4.5,6.36-4.5Z"/><path class="cls-1" d="M250.78,431.7s-.42-3.58,1.1-4.6c2.63-1.77,6.48-1.77,8.83-1.77,4.85,0-7.33-2.39-7.33-2.39,0,0-6.94-.18-6.16,3.15s3.55,5.61,3.55,5.61Z"/><path class="cls-1" d="M214.42,405.98c-.62-2.12-1.08-4.22-1.6-6.29-.19-.76-.43-1.5-.61-2.26-.61-2.69-1.19-5.38-1.85-8.06-.3-1.18-.62-2.37-.89-3.55-.38-1.51-.73-3.04-1.01-4.57-.09-.48,0-.44.24-.08.23.36.65,1.03,1,1.86.59,1.48,1.24,2.95,1.74,4.47.45,1.53.86,3.07,1.23,4.63.42,1.87,1.11,3.75,1.62,5.65.57,2.08,1.1,4.18,1.68,6.22.37,1.26.77,2.5,1.27,3.69.76,1.8,1.7,3.54,3.01,4.92,1.02,1.08,2.27,1.85,3.56,2.38.29.11.57.2.86.29,1.05.38,1.35.63,1.52,1.23.04.14.1.27.12.4.07.41-.52.74-1.59.68-1.55-.19-3.03-.92-4.3-1.87-1.28-.95-2.35-2.16-3.24-3.48-1.31-1.97-2.14-4.12-2.82-6.24l.05-.02Z"/><path class="cls-1" d="M219.24,413.01c-1.47-1.7-2.49-3.63-3.33-5.56-.31-.7-.64-1.39-.9-2.1-.93-2.5-1.65-5.06-2.31-7.63-.31-1.14-.55-2.29-.8-3.43-.32-1.46-.56-2.94-.71-4.43-.05-.46.02-.41.19-.04.16.37.48,1.04.75,1.85.47,1.44.98,2.87,1.49,4.28.47,1.43.88,2.88,1.33,4.32.53,1.73,1.29,3.47,2.03,5.15.81,1.85,1.72,3.64,2.91,5.2.73.96,1.58,1.81,2.55,2.5,1.46,1.04,3.23,1.66,5.05,1.88,1.42.18,2.84.05,4.26-.08.31-.04.63-.07.94-.11,1.18-.07,1.58.11,1.87.68.07.13.15.26.19.39.14.44-.32.85-1.21,1.09-2.6.57-5.6.71-8.58-.2-2.21-.64-4.29-2.02-5.78-3.73l.04-.04Z"/><path class="cls-4" d="M285.61,183.49s-8.41-21.73-30.72-25.68c-20.81-3.69-36.44,7.74-43.78,17.9-7.34,10.16-14.71,27.79-12.96,35.25s7.64-.43,9.95-5.04,7.65-11.59,10.03-12.82c2.39-1.23,6.65-4.66,7.03-1.47.39,3.19-.08,7.88,10.24,2.26,10.33-5.62,17.32-11.16,23.24-10.4,5.92.76,26.96,0,26.96,0Z"/><path class="cls-6" d="M295.48,256.62s4.51-.68,7.26,5.16c3.24,6.88,1.92,13.27-2.75,16.99-2.26,1.8-5.32,4.2-6.72,1.94s-9.99-11.53-9.99-11.53c0,0-6.09-3.22-1.01-5.82,5.08-2.6,13.22-6.74,13.22-6.74Z"/><path class="cls-5" d="M275.3,267s9.77,5.56,12.21,16.17c2.45,10.61-5.07,26.16-7.64,32-2.57,5.84-.87,14.36-3.51,16.97s-19.33-.51-23.28-2.81-7.37-3.37-5.38-8.1c1.99-4.74,11.02-13.21,13-17.54,1.98-4.33,4.49-19.7,4.49-19.7,0,0-2.7.5-8.73-.82-6.02-1.32-16.88-3.33-18.34-9.6-2.02-8.68,2.87-14.31,6.15-13.93s19.19,8.19,22.09,8.08c2.9-.1,8.92-.72,8.92-.72Z"/><path class="cls-1" d="M272.91,290.5c1.11-.03,2.29-.12,3.51-.23.45-.04.88-.14,1.34-.16,1.6-.07,3.32.03,4.9.54.7.23,1.4.47,2.05.82.87.38,1.57,1.17,1.94,2.04.11.28-.06.33-.39.29-.32-.05-.83-.1-1.24-.25-.77-.22-1.35-.59-2.1-.77-.73-.2-1.48-.36-2.28-.52-.95-.19-2,.04-3.04.19-1.15.16-2.34.36-3.57.51-.76.09-1.53.13-2.32.14-1.21.01-2.4-.19-3.57-.48-.9-.24-1.87-.45-2.76-.98-.2-.11-.4-.22-.58-.37-.67-.56-.65-.97-.16-1.5.11-.12.22-.25.34-.35.42-.34.96-.4,1.33-.23,1.09.51,2.16.9,3.49,1.14.98.17,1.98.22,3.1.12v.06Z"/><path class="cls-1" d="M265.95,304.95c.47.01.94,0,1.41,0l.35-.02.43-.04c.28-.03.57-.05.85-.07.41-.03.83-.12,1.26-.11,1.51.02,3.08.33,4.42.98.59.28,1.19.54,1.74.84.7.4,1.33.91,1.85,1.54.16.2.03.33-.28.42-.3.08-.81.18-1.25.09-.38-.11-.77-.17-1.13-.28-.33-.15-.66-.28-.99-.42-.65-.26-1.28-.47-1.94-.68-.8-.27-1.7-.1-2.59,0-.49.05-.99.13-1.49.23-.49.09-1.13.21-1.69.24-.71.05-1.42.03-2.12,0-1.07-.06-2.13-.28-3.18-.55-.81-.21-1.68-.38-2.51-.81-.18-.09-.38-.16-.54-.3-.63-.46-.62-.85-.14-1.43.11-.14.22-.27.35-.4.43-.4.97-.54,1.31-.42,1.07.31,1.97.65,3.16.87.85.17,1.78.28,2.72.25v.07Z"/><path class="cls-1" d="M245.11,268.14c-.08.82-.16,1.68-.11,2.53,0,.32.1.61.13.93.09,1.11.27,2.23.64,3.29.14.48.4.92.63,1.35.3.56.63,1.09.89,1.7.08.19-.09.31-.39.33-.29.01-.74-.06-1.07-.34-.25-.26-.51-.53-.75-.8-.22-.29-.37-.62-.55-.93-.31-.65-.57-1.32-.72-2.02-.19-.84-.53-1.65-.72-2.51-.2-.94-.29-1.9-.32-2.85.01-.59.03-1.18.09-1.77.06-.89.28-1.78.45-2.66.16-.68.21-1.4.44-2.1.05-.15.06-.33.14-.47.3-.54.58-.59,1.15-.33.13.06.27.11.39.19.41.24.64.66.62,1.03-.11,1.06-.4,1.97-.6,3.03-.13.78-.27,1.58-.29,2.41h-.06Z"/><path class="cls-1" d="M254.7,269.08c-.18.72-.33,1.46-.38,2.22-.03.28.04.55.02.82-.07.98-.06,2,.14,2.98.08.44.24.86.37,1.28.21.53.47,1.03.59,1.62.04.19-.19.3-.51.3-.31,0-.75-.1-.99-.39-.39-.52-.76-1.07-1.03-1.67-.22-.61-.38-1.25-.42-1.91-.06-.78-.31-1.55-.37-2.35-.05-.87,0-1.75.1-2.61.06-.53.16-1.05.26-1.58.15-.79.41-1.56.6-2.33.17-.6.21-1.23.37-1.85.03-.14.04-.28.1-.41.2-.48.43-.55,1.1-.3.15.06.31.11.45.17.5.23.8.62.8.97-.02,1.05-.26,1.96-.56,2.89-.22.69-.44,1.39-.58,2.12h-.06Z"/><path class="cls-1" d="M295.8,263.7c.28.87.52,1.75.69,2.64.08.32.19.63.23.96.15,1.15.17,2.31.05,3.44-.04.5-.03,1-.07,1.49-.04.63-.09,1.26-.35,1.86-.08.19-.32.13-.57-.06-.25-.19-.57-.51-.63-.85-.26-1.21-.36-2.33-.35-3.52.07-.72-.2-1.42-.36-2.12-.18-.77-.39-1.54-.67-2.3-.17-.47-.36-.93-.57-1.37-.33-.67-.69-1.35-1.14-1.95-.36-.46-.86-.81-1.31-1.17-.1-.08-.22-.14-.31-.23-.35-.31-.29-.57.14-1.11.1-.12.19-.25.29-.36.34-.38.83-.55,1.2-.37,1.1.53,1.93,1.47,2.59,2.51.48.78.85,1.64,1.19,2.49l-.06.03Z"/><path class="cls-6" d="M293.27,307.26s5.42,12.74,5.99,16.75c.57,4.02-7.69,2.64-10.74,4.52-3.05,1.88-6.25,1.98-6.25,1.98,0,0,2.28-11.01,4.34-14.4,2.06-3.39,6.66-8.85,6.66-8.85Z"/><path class="cls-1" d="M288.47,263.76c-1.64.65-3.31,1.22-4.99,1.74-.6.22-1.2.45-1.81.63-1.08.33-2.18.59-3.28.83-1.12.18-2.23.35-3.35.49-.99.14-1.98.28-2.96.41-.63.07-1.26.17-1.89.22-.32,0-.64,0-.96,0-.32,0-.64-.02-.96-.11-.4-.11-.35-.17-.04-.42.31-.3.89-.71,1.58-.87,2.47-.46,4.92-.92,7.46-1.39,1.5-.25,3.03-.68,4.53-1.12,1.66-.44,3.27-1.06,4.86-1.7.98-.4,1.95-.82,2.9-1.29,1.45-.69,2.86-1.46,4.22-2.3,1.04-.67,1.99-1.44,2.94-2.2.21-.17.42-.32.64-.48.83-.56,1.18-.64,1.61-.44.1.04.21.08.29.13.27.18.1.65-.4,1.24-.72.92-1.61,1.67-2.55,2.39-.95.7-1.92,1.41-2.99,1.97-1.56.87-3.19,1.61-4.83,2.3l-.02-.04Z"/><path class="cls-1" d="M293.02,307.59c-.67,1.03-1.38,2.01-2.08,2.97-.25.35-.45.73-.71,1.07l-1.33,1.81c-.46.59-.88,1.2-1.26,1.83-.33.56-.62,1.16-.84,1.76-.23.79-.67,1.52-.99,2.33-.12.25-.16.21-.25-.04-.07-.24-.3-.72-.32-1.26-.03-.48,0-.96.14-1.4.12-.45.27-.88.43-1.31.34-.85.75-1.66,1.25-2.42.6-.9,1.12-1.88,1.69-2.79.64-1,1.29-1.97,1.88-2.96.36-.61.72-1.23,1.04-1.87.48-.96.97-1.94,1.3-2.97.26-.8.34-1.63.44-2.45.02-.18.04-.36.08-.54.14-.66.48-.79,1.1-.78.15,0,.29,0,.43,0,.46.05.8.43.91,1,.12,1.65-.48,3.22-1.13,4.75-.5,1.13-1.11,2.21-1.74,3.27l-.05-.03Z"/><path class="cls-1" d="M240.48,279.55c-1.7.66-4.71-1.66-10.26-.78s-8.71,5.21-8.71,5.21c0,0,4.81-8.46,6.7-9.71,1.89-1.25,4.55-.6,5.87,0s8.33,4.52,6.4,5.28Z"/><path class="cls-1" d="M232.43,266.39c.19-.56,2.43-6,6.35-5.81,5.65.27,8.59,4.06,16.57,5.81,8.66,1.9,16.38-.42,16.38-.42,0,0-21.35-4.2-22.05-4.52s-10.63-5.8-10.63-5.8l-5.53,3.76-1.08,6.97Z"/><path class="cls-1" d="M268.11,269.36c-.53-.53-1.23-.95-2.03-1.25-.29-.11-.6-.15-.91-.24-1.09-.31-2.26-.58-3.45-.74-.53-.08-1.07-.11-1.59-.15-.34-.03-.68-.02-1.02-.07-.34-.06-.67-.15-1.01-.24-.21-.06-.18-.17.01-.31.19-.14.53-.38.93-.48,1.4-.15,2.77-.14,4.19.05.85.13,1.76.1,2.66.32.98.22,1.97.58,2.85,1.16.54.35,1.04.79,1.46,1.29.65.75,1.05,1.63,1.43,2.48.29.66.63,1.3.87,1.97.06.15.12.29.16.44.12.57-.08.78-.59.98-.12.05-.23.1-.35.13-.4.11-.78-.06-1.05-.4-.66-1.04-.92-2.12-1.35-3.07-.31-.7-.69-1.32-1.24-1.81l.03-.04Z"/><path class="cls-1" d="M269.32,269.15c0-.19-.03-.39-.08-.57-.02-.07-.07-.11-.09-.17-.07-.24-.17-.49-.33-.69-.07-.09-.16-.15-.25-.21-.12-.07-.25-.11-.33-.26-.06-.09.32-.64.54-.62.34.08.67.23.88.52.12.17.33.26.48.41.17.16.31.35.43.55.08.12.15.25.22.37.11.19.18.39.31.57.09.14.28.24.42.38.03.03.08.05.1.09.08.13-.04.21-.55.38l-.35.11c-.4.12-.74.16-.87.13-.38-.1-.54-.22-.54-.44-.02-.16-.01-.34-.04-.51l.03-.02Z"/><path class="cls-1" d="M269.11,274.48c.11-1.12.04-2.27-.44-3.25-.17-.36-.43-.65-.7-.97-.47-.57-1.1-1.12-1.75-1.62-.65-.5-1.36-.94-2.1-1.32-.66-.33-1.35-.61-2.06-.81-.91-.28-1.85-.32-2.76-.76-.29-.12-.24-.29.04-.53.14-.12.35-.27.59-.4.12-.06.26-.15.4-.18.14-.03.29-.04.44-.03,1.06.08,2.12.29,3.14.62,1.02.34,1.97.88,2.84,1.52,1.02.78,2.18,1.41,3.12,2.53,1.03,1.25,1.49,2.83,1.54,4.32.03.93-.1,1.83-.31,2.71-.33,1.33-.88,2.54-1.55,3.68-.51.88-1.04,1.76-1.79,2.5-.16.17-.32.33-.51.47-.7.52-1.04.52-1.36.31-.07-.05-.15-.09-.21-.15-.19-.2,0-.53.33-.95,1.02-1.23,1.64-2.77,2.16-4.3.45-1.13.83-2.24.88-3.37h.06Z"/><path class="cls-1" d="M267.54,275.37c.07-1.08-.07-2.21-.46-3.24-.15-.37-.37-.71-.57-1.06-.69-1.2-1.73-2.32-3.08-3.1-.6-.34-1.26-.59-1.93-.78-.43-.13-.87-.2-1.31-.33-.43-.15-.84-.29-1.31-.45-.27-.11-.22-.23.04-.4.26-.16.76-.43,1.34-.48,1-.02,1.98.22,2.96.51.97.31,1.92.78,2.75,1.45,1,.77,1.97,1.74,2.62,2.87.7,1.26,1.07,2.65,1.18,4.04.06.86.02,1.71-.11,2.56-.19,1.28-.65,2.48-1.17,3.61-.4.88-.77,1.78-1.3,2.61-.11.18-.21.38-.35.55-.49.65-.82.69-1.37.38-.12-.07-.25-.13-.36-.21-.36-.27-.45-.77-.22-1.25.69-1.39,1.42-2.7,1.9-4.1.35-1.04.64-2.09.65-3.18h.06Z"/><path class="cls-1" d="M225.96,228.58c-.73-.2-1.42-.62-1.93-1.01-.2-.14-.42-.26-.6-.42-.65-.58-1.21-1.27-1.6-2.04-.18-.33-.35-.68-.46-1.05-.15-.46-.25-.96-.12-1.43.04-.15.21-.12.41-.01.2.11.44.28.54.48.15.37.37.67.55.99.17.33.36.65.58.99.26.41.73.67,1.15.94.23.15.47.29.72.43.24.13.46.23.72.3.31.1.63.15.96.16.49.01,1.01-.03,1.44-.25.34-.17.54-.52.74-.77.04-.06.08-.12.11-.18.25-.12.43-.1.83.08l.27.11c.28.13.45.41.42.83-.01.31-.14.56-.3.79-.15.24-.35.46-.58.6-.46.32-.99.52-1.52.61-.79.16-1.59.08-2.34-.11v-.04Z"/><path class="cls-1" d="M229.05,229.78c-.26-.02-.51-.05-.75-.1-.09-.01-.17.02-.25,0-.3-.08-.59-.21-.85-.35-.12-.05-.23-.07-.35-.09-.15-.02-.32,0-.42-.19-.06-.1.38-1.09.49-1.15.23-.05.41-.07.62.08.13.1.26.01.39,0,.15,0,.3,0,.45,0,.09,0,.19-.01.28-.03.14-.02.3-.04.41-.13.08-.08.1-.25.12-.39,0-.03,0-.07,0-.09.04-.08.14.01.51.41l.25.27c.28.31.47.6.46.76-.02.47-.31.71-.62.84-.23.1-.49.16-.74.18v-.05Z"/><polygon class="cls-1" points="279.6 228.63 312.17 243.56 278.8 235.14 279.6 228.63"/><path class="cls-1" d="M224.08,194.63c-.13-.9-.09-1.76.03-2.56.04-.29.03-.59.1-.87.22-1,.62-1.9.95-2.82.15-.4.27-.81.39-1.22.19-.51.41-1.01.74-1.47.11-.14.23-.07.35.12.11.19.28.52.28.83l-.02.83c-.02.27-.09.52-.14.78-.11.51-.24,1.02-.42,1.53-.2.61-.2,1.27-.26,1.88-.07.68-.09,1.35,0,1.99.05.39.14.79.29,1.14.23.52.56,1.06,1.04,1.38.37.26.84.3,1.21.26.08,0,.17-.04.24-.03.27.03.33.19.45.83l.09.43c.09.48-.09.93-.55,1.07-.68.24-1.43.08-2.05-.21-.63-.3-1.16-.75-1.58-1.27-.62-.75-1.02-1.74-1.18-2.63l.05-.02Z"/><path class="cls-1" d="M238.78,208.1c-.3-.07-.62-.12-.94-.11-.12,0-.22.04-.35.04-.43,0-.88.04-1.29.2-.19.06-.34.18-.5.29-.19.16-.35.34-.6.45-.08.03-.21-.09-.3-.27-.09-.18-.15-.43-.05-.58.35-.5.84-.93,1.43-1.11.35-.11.66-.33,1.02-.46.39-.12.81-.17,1.21-.18.25-.01.5,0,.75.01.38.01.75.1,1.13.13.29.03.61-.05.94-.05.07,0,.15-.02.22,0,.24.08.26.25.07.77l-.13.35c-.16.38-.39.67-.56.75-.49.22-.79.09-1.17.01-.27-.07-.56-.16-.86-.2v-.04Z"/><path class="cls-1" d="M241,207.01c-.17-.05-.34-.11-.52-.17-.06-.02-.12.01-.18-.01-.23-.09-.47-.19-.7-.23-.1-.02-.2,0-.29.04-.12.05-.21.16-.37.03-.1-.08-.35-1.44-.21-1.54.25-.14.52-.2.83-.06.18.09.33-.04.5-.05.19-.01.37,0,.56.03.12.01.23.04.35.04.17,0,.35.05.51,0,.13-.05.25-.17.38-.23.03-.01.05-.04.08-.05.11,0,.15.12.19.59l.03.32c.03.36,0,.67-.06.8-.1.2-.19.35-.29.46-.1.09-.21.09-.32.1-.16,0-.33-.03-.49-.04v-.05Z"/><path class="cls-1" d="M198.44,213.08c-.69-.54-1.23-1.16-1.7-1.83-.17-.24-.39-.45-.5-.73-.43-.96-.65-1.97-.71-2.95-.01-.44,0-.88.04-1.3.03-.54.13-1.1.44-1.56.09-.14.25-.06.42.12.16.19.37.46.41.72.05.45.18.88.35,1.28l.12.3c.03.1.03.2.05.31.03.21.06.42.1.64.08.53.47.96.78,1.38.32.49.69.95,1.15,1.34.28.24.57.45.89.61.48.24,1.01.41,1.53.34.4-.06.74-.34.98-.59.05-.06.09-.13.14-.18.17-.19.36-.05.88.39l.36.3c.39.33.58.8.35,1.22-.76,1.12-2.25,1.52-3.55,1.33-.98-.14-1.83-.57-2.55-1.07l.03-.05Z"/><path class="cls-1" d="M192.94,215.02c-.5.23-.99.63-1.38,1.13-.15.18-.23.4-.36.59-.47.69-.78,1.59-.96,2.52-.1.42-.13.85-.15,1.27-.02.28.02.55-.06.83-.08.28-.11.57-.14.85-.03.18-.13.16-.26.02-.16-.14-.29-.4-.51-.72-.19-.28-.25-.57-.31-.86-.06-.29-.11-.59-.15-.9-.09-.61-.02-1.24.18-1.85.23-.72.33-1.53.69-2.28.41-.8,1-1.49,1.72-2.04.44-.34.94-.61,1.48-.8.81-.29,1.72-.29,2.52-.16.63.09,1.25.16,1.85.31.13.03.27.05.39.1.47.16.47.46.29,1-.04.13-.08.26-.13.38-.17.4-.52.65-.89.68-1.01-.08-1.79-.34-2.41-.36-.45-.02-.91.05-1.39.32l-.03-.04Z"/><path class="cls-1" d="M194.86,212.89c-.15-.02-.3-.03-.46-.02-.06,0-.1.04-.16.04-.21,0-.45.03-.65.12-.09.04-.16.11-.22.18-.08.09-.12.21-.27.25-.09.03-.65-.45-.58-.65.15-.3.38-.57.71-.68.19-.06.33-.23.51-.32.2-.11.42-.15.63-.19.13-.02.27-.04.4-.05.2-.02.4,0,.6-.04.15-.02.31-.12.48-.18.04-.01.08-.04.11-.04.14,0,.17.1.11.51l-.04.28c-.06.31-.15.56-.22.64-.21.23-.36.23-.53.23-.13,0-.27-.03-.41-.03v-.03Z"/><path class="cls-1" d="M194.76,213.86c.62.02,1.24.14,1.79.33.55.19,1.02.41,1.44.58.32.12.62.17.93.24,1.06.27,2.22,0,3.28-.64.47-.27.88-.65,1.27-1.03.51-.48.97-1.02,1.47-1.54.16-.16.29-.05.35.22.06.27.06.73-.16,1.12-.75,1.42-2.08,2.54-3.72,3.07-.97.31-2.11.5-3.13.28-1.15-.23-2.01-.72-2.87-.79-.54-.06-1.07-.03-1.6.13-.8.24-1.57.68-2.15,1.3-.45.48-.7,1.09-.86,1.68l-.09.4c-.15.48-.27.61-.8.65-.12,0-.24.03-.35.03-.39,0-.67-.29-.69-.82-.03-1.55.9-3.23,2.31-4.15,1.05-.68,2.25-1.1,3.58-1.11v.05Z"/><path class="cls-1" d="M324.16,402.74c1.23-1.07,2.56-2.03,3.91-2.94.49-.33.97-.7,1.48-1,1.91-.93,3.87-1.73,5.93-2.17.44-.14.91-.2,1.36-.28.46-.07.9-.2,1.36-.24.59-.05,1.18-.12,1.77-.15.59.02,1.19.15,1.75.31.36.11.28.34-.04.66-.16.16-.37.35-.62.53-.25.2-.52.35-.82.38-1.05.23-2.06.49-3.06.85-.5.16-1,.32-1.51.48l-.77.22-.77.27c-.31.1-.62.22-.92.36-.29.16-.58.33-.86.51-.58.34-1.11.77-1.68,1.12-1.26.78-2.46,1.69-3.63,2.64-.69.62-1.42,1.21-2.05,1.9-.99,1.01-2,2.03-2.8,3.19-.63.89-1.08,1.89-1.53,2.86-.1.21-.18.44-.29.64-.38.78-.72.91-1.47.75-.17-.04-.35-.06-.51-.12-.55-.18-.8-.73-.65-1.45.52-2.09,1.66-4.01,2.98-5.77.99-1.31,2.13-2.51,3.36-3.61l.06.05Z"/><path class="cls-1" d="M299.15,420.27c-1.41,1.91-2.74,3.99-4.29,6.06-.39.51-.81,1.04-1.23,1.53-.41.48-.84.96-1.28,1.43-.88.95-1.83,1.86-2.87,2.71-1.52,1.22-3.29,2.35-5.36,2.82-1.82.42-3.71.29-5.4-.14-1.71-.43-3.27-1.14-4.72-1.94-2.9-1.63-5.35-3.52-8.17-4.8-2.49-1.19-5.12-2.12-7.77-2.63-1.7-.32-3.42-.46-5.12-.47-1.71,0-3.38.23-5.06.6-1.12.05-1.1-.13-.39-1.02.69-.87,2.4-2.02,4.67-2.28.99-.11,1.99-.15,2.99-.12.99.02,1.97.18,2.93.35,1.93.36,3.79.91,5.58,1.59,1.8.68,3.51,1.47,5.22,2.39,1.71.94,3.24,2.02,4.76,3,1.8,1.18,3.71,2.16,5.71,2.59,2,.46,3.95.26,5.74-.6,1.98-.93,3.72-2.55,5.32-4.34.82-.91,1.57-1.82,2.27-2.79.71-.98,1.4-2.01,2.09-3.04,1.73-2.53,3.47-5.19,6.09-7.29,1.94-1.48,4.13-2.63,6.5-3.3,2.36-.67,4.94-.79,7.35-.13,1.85.53,3.36,1.18,4.83.9,1.51-.21,3.02-1,4.73-1.68.76-.3,1.6-.6,2.48-.73,1.65-.26,2.9,0,3.66.44.77.43,1.02.99,1.03,1.51,0,.24.02.51-.05.68-.12.3-.47.3-.94.26-.47-.03-1.01-.15-1.83-.14-.6,0-1.26.11-1.91.29-.65.18-1.27.44-2.01.76-1.44.6-3.07,1.42-5.19,1.62-1.06.1-2.21-.06-3.11-.31-.93-.25-1.71-.54-2.4-.72-1.31-.35-2.69-.42-4.09-.2-2.08.31-4.16,1.19-6.02,2.42-.97.64-1.73,1.25-2.49,2.07-.76.81-1.47,1.73-2.17,2.7l-.07-.04Z"/><path class="cls-1" d="M104.53,423.22c-.48-1.23-.6-2.65-.18-3.92.14-.45.27-.89.51-1.27.4-.68.93-1.24,1.5-1.73.56-.49,1.21-.88,1.91-1.14.61-.25,1.25-.43,1.91-.5.84-.11,1.76.14,2.37.72.2.17.04.35-.26.52-.3.16-.71.38-1.03.44-.58.11-1.06.22-1.57.42-.51.2-.98.52-1.55.8-.67.38-1.06,1.13-1.35,1.78-.35.73-.41,1.46-.21,2.27.14.48.36.95.68,1.36.49.61,1.14,1.14,1.92,1.35.61.15,1.24.01,1.81-.14.13-.04.25-.11.38-.14.48-.1.67.02.97.66.07.14.15.28.21.42.21.48.09.96-.38,1.26-1.36.83-3.4.77-5.01-.15-1.22-.65-2.12-1.78-2.68-3l.06-.03Z"/><g class="cls-8"><path class="cls-1" d="M182.79,389.85c-.66-.46-1.12-1.02-1.46-1.54-.34-.51-.6-1-.84-1.46-.46-.9-.87-1.69-1.31-2.18-.41-.45-.92-.71-1.62-.8-.69-.09-1.5.04-2.25.3-1.08.38-2.12,1.24-3.22,2.12-.98.78-2,1.65-3.22,2.4-1.23.75-2.63,1.3-4.18,1.43-.77.06-1.59-.01-2.37-.27-.78-.25-1.48-.7-2.05-1.21-1.15-1.05-1.78-2.28-2.45-3.35-.57-.96-1.18-1.82-1.91-2.39-.73-.57-1.63-.8-2.58-.8-1.22,0-2.5.46-3.53,1.14-.49.34-.9.67-1.26,1.24-.39.54-.71,1.27-1.29,1.82-.43.29-.64.37-.68.33-.05-.05.05-.27.04-.72,0-.45.05-.98.11-1.67.04-.35.11-.75.27-1.2.16-.45.45-.95.83-1.36.71-.74,1.48-1.15,2.29-1.54.82-.37,1.7-.63,2.64-.74.93-.1,1.94-.06,2.9.28.97.31,1.88.91,2.55,1.58,1.35,1.36,2.02,2.81,2.75,3.94.73,1.16,1.41,1.91,2.36,2.19,1.16.38,2.78-.1,4.11-.97,1.37-.88,2.66-2.2,4.25-3.35.44-.31.9-.62,1.4-.89.51-.28,1.05-.51,1.61-.69,1.11-.35,2.32-.52,3.56-.3,1.23.18,2.51.92,3.24,1.9.76.94,1.19,1.92,1.65,2.76.56,1.06,1.14,1.84,1.88,1.97.72.2,1.65-.29,2.52-1.03.65-.54,1.34-1.26,2.11-1.87.76-.62,1.57-1.19,2.45-1.67,1.72-.96,3.86-1.62,5.99-1.14,1.65.34,3.01,1.31,4.15,2.24,1.14.93,2.18,1.95,3.21,2.58.47.29.96.5,1.44.68.9.33,1.42.36,1.8.47.38.1.66.26,1.03.54.16.12.37.21.52.33.25.2.23.53-.18.96-.4.43-1.32.8-2.44.74-1.66-.11-3.09-.78-4.35-1.64-1.27-.9-2.18-1.84-3.12-2.61-1.87-1.62-3.38-1.98-5.44-1.23-1.48.57-2.96,1.64-4.31,2.91-.76.7-1.6,1.52-2.89,2.15-.64.31-1.47.54-2.33.5-.86-.02-1.71-.33-2.39-.8l.03-.06Z"/></g><path class="cls-1" d="M184.68,401.08c-.76-.86-1.22-1.71-1.65-2.42-.44-.73-.81-1.28-1.27-1.68-.93-.85-2.37-1.32-3.8-1.29-1.04.01-2.11.36-3.13.8-.91.39-1.8.91-2.64,1.52-.86.62-1.76,1.4-2.91,2.02-.58.3-1.22.58-1.95.69-.73.11-1.51.03-2.19-.22-1.4-.52-2.26-1.51-3.03-2.33-.68-.75-1.32-1.44-2.02-1.9-.7-.43-1.53-.68-2.37-.69-1.09-.01-2.15.37-2.96,1.09-.79.73-1.53,1.66-1.8,2.82-.16.71-.34.67-.6-.05-.11-.36-.22-.91-.16-1.59.02-.34.09-.71.21-1.1.06-.19.15-.38.23-.59.11-.18.23-.37.37-.54,1.99-2.6,6.23-3.25,8.95-1.09,1.27.98,2.07,2.07,2.88,2.78.81.72,1.39.98,2.22.85.51-.07,1.1-.37,1.68-.78.6-.41,1.19-.91,1.85-1.44,1.35-1.06,2.88-2,4.6-2.53,1.88-.59,4.04-.64,5.96.06.97.34,1.88.88,2.65,1.6.78.74,1.29,1.58,1.76,2.33.57.92,1.1,1.76,1.74,2.22.63.47,1.39.56,2.23.3.62-.19,1.25-.56,1.81-1.02.56-.46,1.05-1.03,1.57-1.66,1.01-1.23,2.05-2.71,3.69-3.68,1.27-.73,2.72-1.07,4.17-1,1.44.07,2.95.6,4.11,1.59.51.43.98.9,1.35,1.46.69,1.05.87,1.9.86,2.48-.02.59-.26.94-.64,1.2-.18.12-.35.25-.52.31-.6.16-1.05-.6-1.6-1.6-.43-.76-1.03-1.41-1.71-1.84-.67-.43-1.45-.65-2.26-.67-.81-.02-1.63.18-2.29.55-.65.37-1.3,1.03-1.99,1.89-.52.63-1.05,1.36-1.73,2.11-.7.79-1.54,1.51-2.55,2.07-1,.55-2.25.99-3.67.84-1.41-.12-2.72-.95-3.48-1.83l.05-.05Z"/><g class="cls-9"><path class="cls-1" d="M182.36,416.94c-.96.82-1.81,1.97-2.8,3.22-1.01,1.24-2.15,2.6-3.92,3.49-.63.31-1.32.55-2.07.66-.75.11-1.59.06-2.37-.26-1.42-.58-2.19-1.71-2.74-2.57-.55-.91-.96-1.61-1.55-2.32-1.12-1.4-2.57-2.55-4.2-2.95-1.44-.36-3.01.1-4.16,1.13-.76.64-1.35,1.51-1.91,2.39-.56.89-1.04,1.86-1.48,2.86-.36.6-.44.5-.61-.16-.15-.65-.24-1.88.23-3.21.42-1.17,1.09-2.29,2.02-3.26.93-.95,2.17-1.8,3.61-2.11,1.42-.35,2.96-.2,4.25.34,1.29.55,2.35,1.38,3.23,2.3.53.55,1.02,1.13,1.48,1.73.47.59.89,1.26,1.26,1.78.37.53.75.97,1.11,1.21.36.24.71.33,1.17.33.5-.01,1.07-.19,1.6-.47.52-.28,1.05-.7,1.53-1.18.99-.97,1.84-2.23,2.88-3.48,1.26-1.49,2.92-3.11,5.28-3.44.85-.1,1.73-.04,2.57.28.83.3,1.62.89,2.11,1.7.94,1.65.64,3.3.96,4.44.2.88.74,1.56,1.23,1.58.53.1,1.24-.43,1.85-1.21.24-.3.48-.72.81-1.13.6-.77,1.24-1.28,1.81-1.45.56-.17.99-.04,1.3.29.14.15.29.31.36.48.12.29,0,.58-.13.85-.14.27-.3.52-.6.91-.49.58-.86,1.41-1.75,2.41-.43.47-.95.93-1.68,1.29-.7.37-1.76.57-2.74.32-.96-.24-1.82-.93-2.27-1.6-.48-.68-.74-1.37-.92-2.04-.09-.33-.15-.69-.18-.99l-.09-.82c-.05-.51-.09-.94-.17-1.25-.12-.5-.24-.65-.44-.83-.21-.18-.6-.33-1.05-.37-.46-.03-.9.03-1.34.23-.47.21-.95.52-1.41.94l-.05-.05Z"/></g><path class="cls-1" d="M310.88,263.17c.8,2.44.89,5.19.27,7.65-.13.44-.22.88-.33,1.33-.14.43-.28.87-.45,1.29-1.33,2.93-3.51,5.38-6.17,7-1.18.72-2.44,1.3-3.74,1.7l-1.27.33c-.43.08-.86.13-1.3.19-.87.08-1.75-.05-2.58-.31-.51-.26-.4-.46.05-.91.23-.23.53-.46.87-.69.34-.21.71-.54,1.12-.57,1.44-.3,2.78-.83,4-1.53,1.27-.61,2.47-1.42,3.59-2.4,1.36-1.18,2.14-2.97,2.7-4.69.65-1.93.78-3.92.36-5.9-.24-1.22-.67-2.43-1.3-3.57-.92-1.74-2.12-3.4-3.54-4.85-1.1-1.13-2.41-2.01-3.65-2.99-.27-.22-.57-.4-.83-.63-.49-.42-.79-.74-.9-1.07-.11-.34-.05-.66.11-1.07.08-.19.14-.38.23-.55.3-.54,1.11-.65,1.99-.19,2.63,1.38,5.01,3.43,7.09,5.93,1.54,1.85,2.9,4.01,3.76,6.48l-.08.03Z"/><path class="cls-1" d="M302.35,312.24c.84,2.57,1.58,5.18,1.94,8.06.11,1.06.28,2.16-.04,3.47-.13.54-.43,1.27-.81,1.7-.35.52-.8.87-1.25,1.23-.91.6-1.85.99-2.74,1.22-1.79.5-3.49.71-5.16,1.01-1.47.26-2.93.57-4.31,1.01-.88.28-1.74.63-2.58.99-.85.33-1.69.67-2.58.98-.65.05-.73-.17-.6-.93.13-.75.68-1.82,1.72-2.48,1.89-.99,3.9-1.63,5.87-2.1,1.98-.45,3.94-.66,5.77-.98,1.08-.19,2.13-.55,2.8-1.08.13-.15.32-.26.42-.42.07-.15.25-.3.27-.44.11-.25.19-.69.2-1.19.04-1.08-.16-2.35-.42-3.58-.27-1.24-.61-2.5-.99-3.75-.46-1.54-.97-3.09-1.53-4.62-.84-2.32-1.7-4.65-2.66-6.92-.75-1.76-1.64-3.43-2.41-5.2-.17-.39-.36-.77-.51-1.17-.56-1.5-.42-2.11.21-2.62.15-.12.29-.26.45-.34.53-.27,1.15.19,1.69,1.16,1.54,2.92,3.05,6.11,4.43,9.42,1.03,2.45,2,4.97,2.91,7.53l-.07.03Z"/><path class="cls-1" d="M193.75,322.75c1.83-5.2,4.12-10.2,6.7-15.02.92-1.77,1.85-3.53,2.87-5.24,3.65-6,7.82-11.65,12.39-16.94,2.02-2.36,4.11-4.67,6.27-6.88,1.4-1.4,2.79-2.83,4.35-4.09,1.55-1.26,3.26-2.33,5.12-3.12.64-.16.91-.22.93-.16.02.06-.21.27-.48.77-.26.53-.75,1.09-1.21,1.92-.25.39-.49.84-.81,1.25-.33.38-.66.81-1.05,1.2-1.33,1.42-2.81,2.68-4.15,4.1-1.37,1.38-2.69,2.83-4.01,4.28-2.66,2.89-5.21,5.89-7.7,9-2.98,3.72-5.51,8-7.89,12.24-2.63,4.66-4.98,9.49-6.9,14.48-1.13,3.09-2.25,6.2-3.02,9.39-1.22,4.82-2.05,9.8-1.98,14.73,0,3.83.7,7.55,1.74,11.12.12.39.23.78.34,1.17.14.38.28.76.43,1.15.25.72.44,1.32.59,1.84.17.5.31.91.36,1.27.09.73,0,1.23-.23,1.7-.1.22-.18.48-.3.64-.2.26-.53.15-1-.28-.46-.44-1.09-1.18-1.63-2.27-1.51-3.26-2.54-6.86-3.08-10.57-.57-3.72-.54-7.54-.23-11.3.5-5.6,1.77-11.1,3.52-16.38l.08.02Z"/><path class="cls-1" d="M234.41,271.93c.97,1.98,2.75,3.72,4.92,5.06.81.46,1.65.86,2.52,1.25,2.99,1.51,6.3,2.62,9.68,3.36.75.18,1.51.3,2.27.41.76.13,1.53.21,2.29.29.98.11,1.96.14,2.94.22.49.02.98.08,1.47.17l.73.12c.24.05.49.2.74.29.61.3.54.35,0,.77-.53.51-1.54,1.26-2.72,1.3-2.09,0-4.19-.08-6.27-.36-2.07-.33-4.13-.81-6.14-1.51-2.39-.83-4.97-1.47-7.35-2.64-2.58-1.3-5.1-3.03-6.93-5.5-1.17-1.51-1.83-3.29-2.26-5.05-.31-1.35-.47-2.73-.37-4.16.04-.69.21-1.51.44-2.13.21-.66.47-1.3.76-1.92.91-1.92,2.03-3.73,3.58-5.24.35-.33.68-.66,1.07-.95,1.49-1.05,2.23-1.04,2.86-.38.15.15.31.29.41.46.33.59-.05,1.24-.81,1.91-1.15,1.01-2.19,2.22-3.05,3.53-.42.66-.8,1.34-1.12,2.05-.31.68-.57,1.49-.72,2.11-.15.83-.12,2.05.06,3.19.19,1.15.55,2.3,1.05,3.31l-.07.04Z"/><path class="cls-1" d="M191.82,222.26c.55.76,1.28,1.38,2.09,1.83.4.23.83.42,1.28.54.23.05.45.14.68.15.26.02.4.07.78.09.97.05,1.93.06,2.82.18,1.58.22,2.79.32,4.12-.03.33-.08.66-.2,1-.31.34-.13.7-.26.93-.4.54-.26.94-.6,1.18-1.1.46-.88.3-2.19.03-3.46-.36-1.65-1.14-3.31-1.21-5.23,0-.6.21-.58.74-.26.53.32,1.48.89,2.01,1.81.43.83.85,1.71,1.22,2.66.36.95.71,1.99.66,3.24,0,1.21-.39,2.7-1.35,3.79-.94,1.09-2.2,1.63-3.1,1.92-1.2.39-2.53.74-3.86.82-1.33.08-2.53-.03-3.62-.12-.6-.05-1.19-.09-1.78-.11l-1.11-.09c-.37-.06-.73-.15-1.1-.22-1.45-.38-2.76-1.14-3.82-2.11-1.32-1.2-2.31-2.7-2.85-4.37-.42-1.26-.56-2.63-.36-3.96.2-1.29.59-2.49,1.15-3.64.86-1.77,2.1-3.45,3.9-4.54.4-.24.79-.47,1.23-.63.4-.16.76-.22,1.06-.28.3-.02.55.01.76.06.2.05.37.16.5.28.14.15.24.34.34.52.08.17.19.32.23.46.14.4-.41,1.22-1.18,1.59-2.34,1.17-3.87,3.26-4.47,5.85-.04.23-.11.5-.12.71,0,.2-.06.4-.04.61,0,.21,0,.42.04.63.02.21.05.43.11.64.2.85.62,1.71,1.2,2.43l-.07.06Z"/><path class="cls-1" d="M229.99,152.49c1.75-.71,3.53-1.36,5.39-1.84,1.88-.52,3.78-.76,5.65-1,3.77-.41,7.6-.28,11.34.33,7.49,1.21,14.5,4.35,20.61,8.59,2.23,1.55,4.37,3.22,6.41,5.01,2.03,1.8,3.91,3.75,5.67,5.79,2.65,3.09,5.02,6.43,6.99,10.02.47.91.95,1.82,1.36,2.77.22.46.41.95.6,1.44l.19.47c.07.18.13.39.19.58l.32,1.15c.09.37.25.78.29,1.12l.13,1.02c.12.71.08,1.27.11,1.89.01.3,0,.63,0,.94-.01.29.02.73-.08.71l-.11.12s-.07.06-.11.2l-.12.32-.06.16-.03.08v.04s-.02.02-.02.02c0,0,.01.05-.08-.12l-1.02-1.01-.51-.5c-.17-.16-.35-.35-.47-.45l-.79-.68-.4-.34-.2-.17-.18-.1-2.45-1.31c-1.14-.57-2.32-1.08-3.52-1.52-1.2-.44-2.43-.81-3.66-1.07-1.2-.27-2.52-.36-3.82-.51-5.2-.51-10.47-.4-15.66.34-8.05,1.08-15.9,3.8-22.97,7.63-1.13.65-2.28,1.25-3.36,1.98l-1.64,1.05c-.54.36-1.06.75-1.59,1.12-.53.38-1.06.75-1.58,1.14l-1.52,1.21-.76.61-.44.35-.26.18-.34.2c-.91.52-1.9.94-2.75.79-.09-.05-.24,0-.29-.16-.08-.07-.15-.14-.22-.21-.14-.14-.28-.28-.39-.48-.22-.4-.36-.92-.48-1.42-.06-.25-.12-.52-.16-.75l-.09-.51c-.06-.34-.1-.69-.14-1.03-.15-1.38-.16-2.77,0-4.17.17-1.39.51-2.78,1.11-4.09.28-.66.71-1.25,1.16-1.81.46-.55.94-1.09,1.53-1.49,1.47-1,2.22-1.13,2.22-1.04.04.13-.68.61-1.43,1.78-.34.6-.76,1.29-1.03,2.15-.05.22-.15.42-.17.67-.07.22-.15.44-.2.68-.13.47-.22.97-.3,1.49-.15,1.05-.19,2.21-.12,3.45.04.62.1,1.26.19,1.91.05.32.1.65.16.98l.09.47h0s0,0,0,0h0c-.06.06.67-.52,1.16-.91,1.05-.83,2.1-1.66,3.22-2.41l1.65-1.15,1.7-1.07c1.12-.73,2.3-1.37,3.47-2.02,4.7-2.55,9.69-4.59,14.86-6,5.16-1.42,10.48-2.27,15.84-2.51,2.68-.14,5.36-.07,8.04.11,1.34.08,2.67.28,4,.41,1.39.17,2.77.51,4.08.91,1.61.5,3.17,1.11,4.71,1.83.7.32,1.79.89,1.75.89.21.12.41.24.68.51.05-.09.31.25.38.23,0-.18-.02-.37-.05-.55-.03-.19-.08-.37-.14-.56l-.09-.28c-.04-.12-.04-.11-.15-.37-.9-2.17-2.09-4.28-3.42-6.31-2.66-4.06-5.9-7.76-9.43-11.08-5.16-4.85-11.12-8.92-17.68-11.5-6.55-2.6-13.72-3.59-20.7-2.58-4.27.5-8.38,2.11-12.29,4.04-3.89,1.98-7.53,4.49-10.8,7.39-10.02,8.78-16.06,21.58-18.78,34.5-.47,2.43-.81,4.89-.83,7.3,0,1.2.06,2.4.27,3.52.12.55.25,1.1.46,1.58.18.46.5.96.69,1.12.12.12.28.18.45.2.18.02.29,0,.57-.05.51-.1,1.07-.33,1.58-.61.99-.52,1.76-1.38,2.48-2.4,1.4-2.07,2.44-4.55,3.88-6.94.3-.51.64-1.02.97-1.5l.99-1.4c.67-.93,1.37-1.86,2.12-2.77,2.8-3.38,5.27-5.21,7.15-6.14,1.89-.95,3.16-1.06,4.16-.97.46.05,1.04.1,1.31.2.46.21-.15.57-1.45,1.26-.65.35-1.45.82-2.39,1.41-.92.62-1.95,1.4-3.04,2.39-1.61,1.45-3.04,3.16-4.4,4.97-.68.91-1.34,1.84-1.99,2.79-.62.9-1.16,1.84-1.7,2.86-1.1,2.01-2.04,4.23-3.74,6.41-.44.54-.91,1.08-1.52,1.56-.28.25-.63.46-.95.68-.32.2-.64.36-.97.52-.67.3-1.36.57-2.23.71-1.05.18-2.35-.03-3.2-.8l-.6-.63-.4-.56c-.22-.36-.44-.74-.57-1.1-.32-.73-.49-1.43-.65-2.13-.28-1.39-.36-2.72-.37-4.03,0-2.62.3-5.16.74-7.65.88-5,2.41-9.83,4.31-14.52,1.42-3.47,3.1-6.82,5.09-10.06,2.03-3.2,4.33-6.24,6.92-9.02,5.25-5.5,11.58-9.97,18.61-12.94l.05.07Z"/><path class="cls-1" d="M283.68,238.76c-1.17-.34-2.34-.69-3.53-1.08l-.91-.32c-.23-.08-.52-.19-.76-.31-.25-.11-.51-.22-.67-.43-.09-.09-.19-.18-.27-.28l-.03-.04-.02-.02h0s-.11.09-.06.04h0s-.05-.1-.05-.1l-.09-.18c-.11-.24-.28-.45-.34-.73l-.24-.78-.1-.59c-.2-1.52-.04-3.03.53-4.47.53-1.45,1.65-2.76,3.03-3.56.51-.28.96-.52,1.77-.71l.54-.15c.1.07.19.02.28.03l.28.03c.19,0,.37.05.54.11l.5.15c.9.32,1.73.66,2.54,1.03,5.72,2.62,11.23,5.49,16.77,8.34,2.45,1.27,4.95,2.48,7.42,3.69,1.57.8,3.16,1.58,4.71,2.43,1.52.91,3,1.89,4.29,3.19.35.5.49.72.45.75-.04.04-.29-.08-.83-.07-.54.01-1.25-.07-2.13-.11-.85-.09-1.79-.3-2.75-.64-1.63-.73-3.21-1.55-4.82-2.32-1.6-.8-3.17-1.64-4.76-2.47-3.17-1.67-6.34-3.36-9.5-5.09-3.78-2.06-7.95-3.86-11.93-5.51l-.68-.26c-.13-.04-.2-.1-.32-.05-.11.03-.18.04-.42.16-.21.08-.41.19-.59.32-.75.48-1.28,1.25-1.63,2.15-.32.91-.41,1.98-.24,2.92.05.26.1.55.4.61.06.03.11.05.2.08l.41.15.84.3c2.79.95,5.67,1.8,8.55,2.6,4.37,1.18,8.77,2.33,13.17,3.27,3.42.73,6.81,1.24,10.21,1.75.75.1,1.49.2,2.24.3,2.79.43,3.64.71,4.15,1.54.11.19.28.38.33.56.2.61-1.02.95-3.14.79-6.26-.49-12.7-1.8-19.1-3.29-4.76-1.12-9.49-2.39-14.25-3.66v-.07Z"/><path class="cls-1" d="M255.57,197.92c-3.03.9-6,2.09-8.81,3.61-.51.28-1.01.59-1.5.89-.49.32-.97.64-1.47.94-1.73,1.11-3.46,2.24-5.08,3.53-1.62,1.29-3.16,2.68-4.59,4.19-1.25,1.36-2.38,2.83-3.37,4.36-.61,1-1.23,1.99-1.8,3.02-.55,1.03-1.17,2.03-1.84,3.04-.43.62-.47.51-.51-.18-.02-.68-.28-2.09.3-3.42.91-2.39,2.28-4.56,3.84-6.57,1.56-2.01,3.33-3.85,5.27-5.48,2.33-1.94,4.71-4.02,7.35-5.64,2.89-1.8,5.98-3.26,9.17-4.43,1.96-.72,3.97-1.31,6.02-1.74,3.09-.68,6.27-1.01,9.41-1.04,2.44-.03,4.87.02,7.29.45.53.09,1.05.19,1.57.36.48.15.88.28,1.21.41.32.17.54.37.73.53.37.34.55.63.65.95.04.15.12.3.13.42.04.39-.85.5-2.27.48-1.02-.12-2.03-.26-3.06-.31-.5-.08-1.01-.13-1.53-.16-.51-.03-1.02-.11-1.54-.12-2.06-.14-4.17-.09-6.27.1-3.12.28-6.25.89-9.27,1.88l-.03-.07Z"/><path class="cls-1" d="M237.28,190.16c1.49-.88,3.02-1.7,4.59-2.45,1.58-.74,3.17-1.43,4.93-1.97,3.25-.98,6.55-1.84,9.9-2.48,2.44-.49,4.9-.96,7.4-1.17,4.4-.41,8.89-.3,13.28.48,2.2.41,4.35,1,6.45,1.77,2.07.77,4.08,1.68,6.02,2.73,3.42,1.86,6.77,3.99,9.61,6.73,1.81,1.75,3.5,3.74,4.59,6.12.13.3.26.6.38.9.12.26.25.74.3,1.06.11.7.13,1.36.11,2.02-.09,1.29-.17,2.74-1.45,3.87-.23.15-.42.27-.62.3-.19.06-.34.06-.46.03-.23-.04-.32-.1-.3-.15,0-.13.53-.22.74-.78.22-.54.03-1.39-.12-2.35-.09-.49-.2-1.02-.35-1.55-.07-.27-.16-.53-.24-.77-.05-.1-.09-.24-.13-.3l-.17-.32c-1.82-4-5.44-7.2-9.41-9.72-2-1.27-4.11-2.39-6.29-3.39-2.19-1.02-4.39-1.93-6.68-2.55-5.52-1.57-11.7-1.33-17.6-.47-3.26.46-6.5,1.16-9.72,1.99-1.59.42-3.24.87-4.78,1.35-1.5.5-3.02,1.16-4.5,1.88-3.63,1.78-7.11,3.95-10.23,6.53-4.7,3.88-8.8,8.81-10.44,14.62-.65,2.23-.89,4.55-.75,6.82.06.57.1,1.14.16,1.69.09.53.19,1.06.35,1.57.31,1.02.77,1.99,1.37,2.86.52.78,1.16,1.44,1.87,2.06,1.31,1.16,2.37,1.67,3.05,2.15.7.44,1.09.82,1.39,1.3.14.22.35.45.42.64.13.33-.21.54-1.03.59-.8.03-2.06-.2-3.5-.93-2.12-1.08-4.06-2.77-5.35-4.97-.64-1.09-1.17-2.29-1.46-3.56-.31-1.3-.38-2.49-.45-3.7-.21-4.87,1.26-9.84,3.77-14.01,1.86-3.11,4.22-5.86,6.83-8.25,2.61-2.41,5.47-4.48,8.46-6.3l.05.07Z"/><path class="cls-1" d="M284.52,327.21c-.29,1.13-.59,2.27-1.07,3.45-.49,1.15-1.08,2.4-2.3,3.46-.29.24-.68.56-1.19.74-.52.19-.89.23-1.22.27-.68.08-1.27.08-1.88.09-1.19,0-2.34-.08-3.49-.18-4.57-.42-9.03-1.18-13.47-2.27-3.23-.82-6.46-1.67-9.57-3.31-.68-.38-1.36-.78-2.01-1.3-.65-.48-1.3-1.14-1.79-2.01-.11-.23-.24-.47-.31-.7l-.18-.66c-.08-.45-.16-.91-.13-1.36,0-.92.22-1.79.54-2.56.62-1.56,1.53-2.79,2.43-3.98.91-1.18,1.85-2.27,2.78-3.37,1.85-2.19,3.64-4.38,5.18-6.72,1.55-2.34,2.89-4.81,3.89-7.42.9-2.31,1.54-4.73,1.93-7.18.39-2.41.37-5.04,1.18-7.71.13-.43.3-.87.51-1.3.22-.44.49-.88.78-1.23.57-.74,1.2-1.32,1.74-1.88,1.04-1.07,1.85-2.31,2.42-3.68,1.1-2.73,1.56-5.87.75-8.86-.49-1.84-.17-1.84,1-.39.56.73,1.22,1.91,1.63,3.5.19.79.36,1.69.38,2.65.03.48-.02.98-.03,1.49-.08.5-.18,1.02-.33,1.53-.53,1.82-1.38,3.59-2.6,5.11-1.27,1.6-2.5,2.52-2.85,3.39-.51,1.05-.79,2.62-1,4.19l-.32,2.48c-.11.89-.31,1.75-.47,2.6-.74,3.42-1.96,6.75-3.58,9.83-1.64,3.08-3.67,5.92-5.86,8.53-1.31,1.53-2.63,3.07-3.96,4.63-1.28,1.53-2.54,3.12-3.19,4.74-.32.81-.43,1.59-.3,2.33.05.18.1.38.15.55.09.13.1.27.23.42.19.29.48.59.82.86.67.55,1.51,1.03,2.38,1.44.87.43,1.79.78,2.72,1.12,4.13,1.46,8.52,2.38,12.91,3.07,2.2.33,4.42.6,6.62.74,1.1.07,2.21.12,3.26.07.25-.02.53-.02.76-.06.25-.02.46-.08.56-.1.19-.08.57-.39.83-.74.7-.87,1.17-2.12,1.54-3.39.37-1.28.66-2.61.94-3.96.58-2.7,1.02-5.49,2.11-8.23.84-2,1.75-3.85,2.59-5.78.84-1.91,1.62-3.84,2.34-5.79,1.38-3.91,2.5-7.92,2.84-11.98.28-3.14.08-6.3-.7-9.23-.17-.73-.48-1.43-.72-2.14-.32-.68-.6-1.38-.99-2.03-.7-1.33-1.59-2.57-2.53-3.75-.82-1.05-1.77-1.97-2.73-2.91-1.82-1.71-3.15-2.68-4.02-3.45-.88-.76-1.33-1.32-1.61-1.98-.13-.3-.35-.63-.4-.89-.25-.83,2.24-.66,5.64,1.68,1.25.86,2.45,1.82,3.56,2.9,1.12,1.06,2.17,2.23,3.11,3.5.96,1.26,1.74,2.67,2.46,4.12.65,1.48,1.25,3.02,1.58,4.64.68,3.2.77,6.45.45,9.62-.31,3.18-.98,6.28-1.88,9.29-1.33,4.46-3.19,8.73-5.11,12.83-.45,1-.98,2.07-1.3,2.96-.35.94-.64,1.96-.89,3.02-.51,2.11-.9,4.34-1.45,6.62h-.07Z"/><path class="cls-1" d="M248.85,335.83c-.36.62-.73,1.25-1.09,1.87-.13.23-.19.48-.32.7-.46.79-1.01,1.54-1.45,2.34-.2.35-.34.73-.48,1.1-.16.49-.42.93-.8,1.33-.13.12-.36.01-.59-.22-.23-.23-.52-.61-.53-.92-.05-.57.12-1.07.31-1.56.18-.49.4-.96.69-1.41.34-.54.45-1.2.71-1.79.29-.64.58-1.28.86-1.92.18-.39.36-.78.51-1.18.24-.6.49-1.2.65-1.82.11-.49.05-1.01.04-1.5,0-.11-.03-.22-.02-.33.03-.2.09-.31.26-.37.18-.05.44-.05.8-.02l.49.05c.27.04.51.12.71.24.2.12.39.29.43.46.32,1.04.11,2.04-.2,2.98-.26.69-.61,1.35-.92,2l-.06-.02Z"/><path class="cls-1" d="M255.04,337.74c-.26.59-.53,1.18-.79,1.76-.09.22-.13.44-.22.66-.34.75-.69,1.51-.99,2.27-.13.34-.21.7-.33,1.03-.14.44-.26.89-.53,1.3-.08.13-.25.06-.43-.1-.17-.17-.38-.45-.39-.73,0-.48-.04-.98.08-1.44.11-.46.25-.91.45-1.35.24-.53.27-1.13.42-1.69.16-.62.34-1.23.52-1.84.12-.38.24-.75.35-1.13.17-.57.37-1.14.47-1.72.08-.45.01-.93,0-1.4,0-.1-.03-.21-.02-.31.09-.36.29-.43.92-.36.14.02.29.03.43.05.47.08.83.33.94.64.28.91.03,1.73-.2,2.55-.18.61-.42,1.21-.64,1.82h-.05Z"/><path class="cls-1" d="M262.6,340.49c-.28.49-.56.98-.81,1.48-.09.18-.12.38-.22.56-.35.64-.72,1.27-1.03,1.92-.14.29-.21.6-.3.9-.12.38-.18.78-.5,1.12-.1.1-.44,0-.78-.19-.33-.19-.69-.49-.69-.73-.04-.87.26-1.65.71-2.39.28-.44.31-.97.46-1.46.18-.53.38-1.06.57-1.59.12-.32.25-.65.36-.97.17-.5.38-.98.46-1.5.06-.4,0-.84-.02-1.26,0-.09-.03-.19-.02-.28.02-.34.34-.35,1.04-.19l.49.11c.53.14.96.42,1.12.72.3.84.19,1.57-.1,2.26-.2.52-.46,1.02-.69,1.52l-.06-.02Z"/><path class="cls-1" d="M273.54,341.38c-.28.56-.56,1.13-.81,1.71-.09.21-.11.44-.23.64-.39.72-.79,1.45-1.11,2.19-.14.33-.23.68-.31,1.02-.06.45-.23.88-.53,1.27-.1.12-.31.06-.54-.12-.23-.17-.54-.47-.6-.75-.06-.25-.04-.49-.02-.72.02-.23.06-.47.1-.7.09-.46.21-.91.41-1.35.24-.52.24-1.12.37-1.68.18-.61.39-1.2.6-1.8.13-.37.26-.74.39-1.1.18-.56.41-1.11.51-1.69.09-.45,0-.94-.01-1.41,0-.1-.01-.21,0-.31.08-.36.31-.42,1.06-.28l.51.1c.57.13.99.41,1.11.72.08.23.14.46.18.68.01.21,0,.42-.02.63-.05.41-.17.81-.31,1.21-.2.59-.47,1.16-.69,1.75l-.06-.02Z"/><path class="cls-1" d="M290.54,336.63c-.09.61-.13,1.22-.24,1.84-.03.22,0,.44-.03.67-.14.79-.29,1.58-.38,2.37-.08.35-.1.7-.12,1.05-.02.44-.05.89-.19,1.34-.05.14-.18.13-.37.03-.18-.1-.47-.3-.6-.54-.4-.87-.88-1.74-.63-2.67.09-.55-.09-1.1-.13-1.66-.05-.61-.03-1.22,0-1.84,0-.38.03-.76.02-1.13,0-.57.03-1.15-.06-1.7-.07-.44-.31-.85-.49-1.27-.04-.09-.1-.18-.13-.28-.06-.35.2-.49.94-.61l.51-.09c.57-.07,1.07.04,1.33.28.62.73.67,1.55.71,2.37.02.61-.04,1.23-.06,1.84h-.07Z"/><path class="cls-1" d="M296.64,334.23c-.01.54-.03,1.09-.02,1.63,0,.2.07.38.07.58,0,.7-.04,1.4-.01,2.09.01.31.08.61.15.9.07.38.18.76.05,1.18-.04.13-.38.18-.75.15-.37-.03-.8-.14-.91-.35-.09-.18-.18-.37-.26-.55-.07-.19-.09-.39-.12-.58-.05-.39-.07-.79-.03-1.21.05-.49-.15-.96-.23-1.44-.08-.53-.13-1.07-.19-1.6-.04-.33-.08-.66-.11-.99-.07-.49-.11-1-.25-1.48-.11-.37-.37-.71-.57-1.06-.05-.08-.12-.15-.12-.23-.02-.16,0-.27.14-.37.15-.1.36-.19.65-.28l.38-.12c.21-.06.41-.07.62-.05.21.02.45.06.55.16.41.27.53.6.67.94.12.34.18.69.23,1.05.07.53.07,1.08.11,1.62h-.06Z"/><path class="cls-1" d="M302.62,332.12c.07.45.14.91.24,1.35.03.17.12.3.15.48.09.6.18,1.21.35,1.79.07.26.22.48.34.71.17.29.38.55.39.94,0,.12-.3.3-.66.42-.35.12-.79.19-.95.05-.58-.49-.95-1.13-1.09-1.88-.08-.45-.4-.79-.58-1.2-.21-.44-.32-.93-.46-1.4-.08-.29-.16-.59-.24-.87-.12-.44-.24-.88-.37-1.31-.11-.33-.38-.61-.51-.93-.03-.07-.07-.14-.09-.21-.05-.28.09-.42.59-.61l.34-.13c.38-.13.75-.11.98.03.73.4,1.05.91,1.31,1.46.13.43.2.87.32,1.31l-.06.02Z"/><path class="cls-1" d="M344.9,321.13c-1.96-4.28-4.23-8.49-6.59-12.64-.86-1.51-1.82-2.96-2.72-4.44-3.17-5.25-6.59-10.36-10.14-15.4-1.57-2.24-3.23-4.44-4.87-6.6-2.08-2.81-4.45-5.42-5.9-8.69-.42-1.04-.31-.94.56-.43.91.47,2.54,1.37,3.83,2.92,4.37,5.62,8.74,11.27,12.65,17.36,2.35,3.63,5.01,7.26,7.34,11.03,2.55,4.16,4.95,8.37,7.19,12.71,1.38,2.67,2.66,5.4,3.77,8.2,1.71,4.23,3.04,8.66,3.88,13.14.63,3.48,1.12,6.96,1.04,10.53,0,.78-.07,1.55-.13,2.34-.08,1.47-.45,2.39-.72,3.03-.29.63-.63.95-1.07,1.16-.2.1-.39.24-.56.28-.55.14-.91-1.13-.75-3.11.37-5.92-.15-12.08-1.84-18.13-1.2-4.5-2.96-8.9-5.01-13.19l.07-.04Z"/><path class="cls-1" d="M284.88,350.67c-.06.38-.15.75-.26,1.1-.13.46-.32,1.04-.52,1.51-.2.49-.44.93-.72,1.29-.29.34-.6.64-.96.84-.5.31-1.15.57-1.79.42-1.1-.25-1.85-1.11-2.26-2.28l-.15-.44-.06-.49c-.04-.33-.06-.64-.09-.94.02-.71.09-1.05.18-1.49.17-.74.37-1.45.64-2.12.16-.43.35-.85.56-1.25.26-.38.61-.7.95-1.01.22-.19.29-.1.35.2.05.29.2.85.21,1.37-.21.81-.38,1.59-.46,2.34-.03.37-.06.73-.06,1.08-.01.07.02.21-.01.21-.04,0-.02.03-.04.05-.03.05-.06.11-.09.19-.11.41.15.82.52.82.21,0,.36-.14.48-.31.06-.09.12-.19.17-.29l.08-.17c.03-.06.05-.11.09-.26.09-.31.15-.61.19-.91.02-.14.03-.32.03-.43,0-.09,0-.19,0-.29-.03-.56-.33-1.32-.92-1.55-.22-.09-.49.04-.62.3-.14.25-.16.54-.16.77,0,.1.04.22.04.29,0,.26-.18.18-.97.06-.18-.02-.37-.04-.54-.08-.29-.09-.54-.2-.72-.42-.17-.26-.3-.68-.31-1.19,0-1.51.61-2.63,1.72-3.19.55-.28,1.24-.36,1.84-.24.61.12,1.2.43,1.72.86.78.63,1.42,1.57,1.77,2.68.18.55.28,1.14.31,1.73.02.52-.01.86-.06,1.27h-.08Z"/><path class="cls-1" d="M284.58,366.29l-.19.55c-.08.2-.15.39-.24.58-.16.38-.36.71-.59,1.01-.45.6-.99,1.01-1.63,1.22-.46.15-.99.22-1.46.04-.83-.3-1.34-1.02-1.62-1.93-.07-.22-.13-.45-.14-.71-.04-.24-.05-.48-.04-.73v-.67s.05-.47.05-.47c.05-.55.08-1.12.19-1.68.09-.72.5-1.47,1.14-1.9.2-.13.31.04.39.32.06.28.21.7.21,1,.02.55-.05,1.04,0,1.62.02.29.03.58.05.88v.11s-.01.02-.01.02l-.04.05s-.05.09-.08.16c-.11.34.07.62.35.69.33.11.6-.17.77-.51l.09-.17c.03-.05.07-.22.11-.33.07-.24.13-.49.17-.73.12-.72.23-1.66-.01-1.99-.04-.06-.1-.1-.14-.1-.02,0-.05.04-.07.06-.05.06-.13.14-.17.24-.02.04,0,.1,0,.11.01.01,0,0-.04-.03-.03-.02-.05-.04-.08-.05-.04-.03-.08-.04-.1-.05,0,0,0,0-.02,0-.04,0-.1-.02-.16-.03-.12-.01-.27-.02-.46,0-.17,0-.34.04-.51.06-.29.04-.55,0-.75-.2-.2-.19-.29-.58-.15-1.01.21-.61.63-1.1,1.16-1.42.53-.31,1.2-.51,2.01-.35.4.08.81.26,1.16.54.33.26.55.54.74.84.36.6.47,1.15.53,1.61.08.69.05,1.16,0,1.74-.07.55-.19,1.09-.34,1.62h-.07Z"/><path class="cls-1" d="M110.65,417.52l-.14-7.71c-.01-.94-.13-1.87-.14-2.81,0-1.66-.05-3.31-.01-4.97.04-1.66.06-3.32.05-4.98.01-1.47-.05-2.95-.11-4.41-.12-1.87-.17-3.75.07-5.64.27-.6.24-.52.65-.05.39.47.92,1.35,1.18,2.41.76,3.79,1.18,7.59,1.11,11.47,0,1.16.06,2.33.11,3.52.07,1.18.15,2.37.18,3.55.08,2.6.1,5.2.11,7.81l.02,4.8c.03,2.42,0,4.86.08,7.27.06,1.87.27,3.7.37,5.55.03.41.04.81.03,1.22-.05,1.52-.24,2.01-.84,2.34-.13.07-.26.17-.38.22-.4.15-.84-.47-1.06-1.58-.15-.82-.36-1.65-.45-2.49-.1-.84-.18-1.69-.26-2.54-.15-1.71-.25-3.44-.34-5.18-.1-2.58-.21-5.18-.31-7.77h.08Z"/><path class="cls-1" d="M97.66,405.19c-.34.37-.84.72-1.24.91-.38.19-.77.36-1.2.5-.84.26-1.82.39-2.76.17-.68-.16-1.36-.41-1.89-.84-1.88-1.57-2.24-3.98-1.6-5.9.3-.85.79-1.66,1.5-2.2.88-.71,2.02-1.07,3.06-.85.32.03.28.11.03.28-.12.09-.3.17-.48.36-.09.09-.18.2-.29.27-.12.07-.22.13-.32.19-1.65.79-2.07,2.36-1.8,3.93.15.96.85,1.79,1.6,2.1.8.37,1.87.26,2.94-.31.49-.25.91-.77,1.13-1.42.33-.95.26-2.22-.35-2.96-.5-.59-1.31-.88-1.99-.89-.15,0-.29.03-.43.03-.49.07-.68-.1-1.09-.6-.09-.12-.2-.22-.29-.34-.29-.36-.17-.97.62-1.37,1.18-.49,2.58-.35,3.74.24.59.29,1.12.74,1.56,1.29.22.28.41.59.57.93.14.31.26.63.35.96.24.96.26,1.93.05,2.88-.21.94-.63,1.88-1.36,2.67l-.05-.04Z"/><path class="cls-1" d="M84.97,420.51c.22-.2.41-.5.56-.77.1-.2.21-.45.21-.76.02-.22-.09-.44-.12-.68-.2-.84-.71-1.77-1.5-2.34-.35-.24-.77-.38-1.17-.36-.51.03-.97.22-1.49.5-.17.07-.37-.12-.43-.45-.06-.31,0-.88.44-1.15.74-.51,1.78-.67,2.65-.45.89.2,1.61.7,2.16,1.31.61.76,1.26,1.53,1.57,2.53.18.54.22,1.14.18,1.73-.03.3-.12.6-.2.89-.1.25-.19.5-.32.74-.3.59-.71,1.14-1.2,1.58-.76.67-1.68,1.09-2.59,1.36-.7.21-1.41.46-2.16.53-.16.02-.32.05-.49.04-.6-.07-.76-.32-.76-.93,0-.14,0-.28,0-.42.05-.47.33-.82.68-.96,1.04-.39,1.89-.52,2.59-.9.53-.25.94-.61,1.33-1.06l.06.03Z"/><path class="cls-1" d="M131.86,402.15c-.16.48-.44.97-.81,1.39-.18.21-.39.4-.61.57-.21.15-.37.22-.56.34-.38.2-.71.42-1.16.52-.43.12-.83.27-1.3.27-.65.09-1.33.04-1.96-.15-1.12-.39-1.96-1.19-2.5-2.07-.57-.88-.79-1.89-.83-2.85-.07-.87.15-1.73.49-2.5.49-.97,1.28-1.78,2.24-2.16.29-.13.33.06.25.39-.04.17-.11.37-.2.57-.05.1-.1.2-.16.3-.05.11-.09.22-.16.32-.5.68-.66,1.46-.62,2.18-.02.72.14,1.46.45,2.15.4.84,1.27,1.31,2.04,1.38.43.08.9-.03,1.37-.21.24-.06.46-.26.7-.37.28-.14.37-.23.51-.38.31-.35.46-1,.41-1.67-.04-.51-.16-1.03-.38-1.51-.21-.49-.49-.84-.91-1.15-.63-.47-1.49-.54-1.97-.34-.1.05-.19.12-.26.17-.29.13-.47.1-1.14-.31l-.46-.26c-.25-.16-.42-.37-.45-.65-.04-.29.08-.64.4-.98.49-.49,1.19-.8,1.89-.9.7-.1,1.4-.01,2.01.19,1.23.42,2.25,1.17,3.01,2.36.49.81.77,1.64.92,2.53.14.88.13,1.84-.19,2.84l-.07-.02Z"/><path class="cls-1" d="M138.63,419.84c-.11-.33-.24-.67-.31-1-.06-.34-.14-.63-.18-1.01-.11-.81.01-1.55.24-2.22.18-.48.32-.96.59-1.37.93-1.46,2.37-2.53,3.97-2.88.35-.09.71-.11,1.06-.16.35.02.71-.03,1.05.04.9.05,1.73.46,2.36,1.04.2.18.09.28-.19.37-.29.09-.75.19-1.18.2-1.45-.21-2.62.01-3.72.75-.69.42-1.09,1.25-1.35,2-.13.42-.23.85-.25,1.25-.04.21,0,.39-.01.58l.14.71c.16.55.37,1.09.71,1.51.5.61,1.24,1.07,2.11,1.05.67,0,1.29-.36,1.86-.67l.37-.24c.48-.25.7-.21,1.2.3.11.12.23.22.34.34.35.4.36.92-.03,1.36-1.15,1.28-3.24,1.99-5.41,1.31-1.63-.47-2.85-1.9-3.41-3.22l.06-.03Z"/><path class="cls-1" d="M175.79,353.85c0-2.46-1.04-5.06-2.94-6.44-.94-.71-2.04-1.05-2.96-.87-.91.14-1.79.91-2.48,1.99-.51.79-.91,1.69-1.19,2.61-.07.23-.13.46-.19.7l-.11.5-.06.4c-.04.46-.09,1.19.45,1.62.25.21.63.22.85.02.22-.19.32-.49.34-.8.01-.31-.05-.64-.17-.98-.16-.38-.17-.52-.8-1.37-.51-.68-1.14-1.27-1.83-1.76-.69-.49-1.45-.87-2.2-1.01-.66-.13-1.28-.07-1.81.23-.54.29-.99.81-1.29,1.42-.6,1.2-.54,2.76-.14,4.26.51,1.97,1.47,3.81,2.54,5.55.54.88,1.21,1.66,1.82,2.52.59.88,1.38,1.59,2.17,2.29,1.01.85.82.88-.31.49-.55-.21-1.35-.54-2.26-1.05-.44-.27-1.03-.47-1.53-.83-.48-.38-.96-.81-1.42-1.31-.78-.9-1.56-1.84-2.13-2.91-.58-1.06-1.06-2.18-1.43-3.34-.37-1.16-.67-2.44-.64-3.85,0-1.39.49-2.96,1.44-4.16.48-.61,1.09-1.16,1.83-1.55.74-.4,1.62-.61,2.42-.6,1.63,0,2.94.62,4.04,1.32,1.11.71,2.05,1.63,2.83,2.64.2.25.38.52.55.79.06.11.27.42.37.61l.34.66c.4.87.72,1.76.85,2.55.19.97.19,1.8.1,2.56-.1.77-.33,1.48-.7,2.11-.37.63-.92,1.16-1.66,1.49-.75.3-1.62.32-2.36.05-.74-.26-1.36-.74-1.8-1.3-.45-.56-.75-1.22-.98-2.02-.22-.81-.31-1.81-.3-2.88.01-.54.04-1.09.12-1.65.05-.27.08-.58.14-.82.04-.18.08-.37.12-.55.4-1.6,1.04-3.1,2-4.49.49-.69,1.08-1.36,1.85-1.9.76-.54,1.7-.9,2.65-.97,1.93-.16,3.65.66,4.96,1.73,1.33,1.08,2.29,2.56,2.89,4.07.74,1.89,1,3.95.72,5.96-.06.47-.18,1.08-.4,1.58-.23.53-.47.97-.97,1.5-.48.48-1.07.86-1.73.93-.66.09-1.33-.12-1.84-.54-.39-.31-.67-.76-.87-1.23-.1-.23-.17-.5-.22-.72-.04-.21-.07-.41-.09-.61-.06-.81-.01-1.55.11-2.3.23-1.5.8-2.93,1.65-4.19.85-1.26,1.95-2.32,3.31-3.07.68-.36,1.43-.64,2.24-.74.8-.11,1.7,0,2.48.38,1.24.6,2.01,1.79,2.4,2.92.4,1.14.54,2.32.54,3.46.04,2.24-.31,4.5-1.02,6.65-.34.94-.68,1.86-1.16,2.75-.89,1.65-1.7,2.61-2.38,3.16-.68.56-1.19.75-1.73.75-.24,0-.52.05-.71,0-.64-.2.12-1.43,1.28-3.51.89-1.53,1.58-3.18,2.05-4.89.51-1.7.78-3.47.81-5.25,0-.83-.09-1.65-.31-2.32-.22-.68-.55-1.11-.91-1.32-.35-.22-.87-.28-1.53-.12-.66.18-1.34.53-1.95,1.07-.91.78-1.65,1.81-2.11,2.94-.23.57-.41,1.16-.48,1.77-.03.3-.04.61-.03.91l.03.45c.01.13.03.25.06.36l.05.2h0s0,.03.01.04c.02.01.05.02.07,0,.01-.02,0,.02.04-.05.05-.08.1-.17.14-.27.1-.19.18-.41.23-.61.11-.51.18-1.19.17-1.79h.07Z"/><path class="cls-1" d="M173.41,409.91c-.14-3.43-.29-6.86-.36-10.3-.03-1.25-.14-2.5-.17-3.76-.1-4.42-.13-8.84-.17-13.26-.02-1.96-.15-3.93-.23-5.87-.06-2.5-.32-5,.05-7.52.4-.8.25-.69.74-.06.26.32.48.77.73,1.33.26.55.46,1.21.54,1.92.71,5.08.78,10.18.75,15.34-.07,3.09.18,6.28.26,9.43.1,3.46.16,6.93.2,10.39l.11,6.39c.08,3.23.13,6.47.28,9.67.11,2.49.33,4.92.49,7.38.04.54.09,1.07.09,1.62.03,2.03-.09,2.68-.42,3.12-.08.1-.15.24-.22.3-.23.2-.52-.61-.77-2.09-.7-4.38-1-9-1.35-13.65-.24-3.45-.42-6.92-.62-10.38h.06Z"/><path class="cls-1" d="M173.92,409.8l-.42-10.26c-.05-1.25-.21-2.49-.23-3.74l-.22-13.23c-.01-1.96-.06-3.93-.15-5.87-.08-2.49-.3-4.99.11-7.5.12-.78.41-.69.86-.05.23.32.51.78.8,1.33.27.55.46,1.21.56,1.92.35,2.53.55,5.06.76,7.59l.13,1.91.02,1.91c0,1.28-.01,2.56-.05,3.84-.08,3.07.26,6.25.37,9.39l.23,10.36.14,6.38c.09,3.22.13,6.46.27,9.65.1,2.48.33,4.91.47,7.37.03.54.09,1.07.1,1.62.03,1.01.01,1.68-.11,2.15-.14.47-.33.74-.61.96-.12.1-.24.23-.36.29-.2.1-.38-.05-.57-.42-.19-.36-.41-.93-.48-1.67-.55-4.37-.86-8.97-1.14-13.59-.19-3.44-.38-6.89-.57-10.34h.07Z"/><path class="cls-1" d="M188.38,406.99c-3.32-.02-6.64-.03-9.96,0l-3.63.1c-4.27.02-8.54.07-12.81.13-1.89.03-3.8.14-5.67.25-2.41.14-4.82.49-7.26.03-.76-.13-.67-.22-.05-.56.39-.22.82-.47,1.28-.73.53-.26,1.16-.44,1.86-.56,2.46-.33,4.92-.42,7.39-.57,2.47-.11,4.95-.2,7.45-.14,2.98.05,6.08-.18,9.12-.25,3.35-.07,6.7-.11,10.05-.13l6.18-.03c3.12-.03,6.26,0,9.36-.07,2.41-.05,4.77-.25,7.15-.37.52-.03,1.04-.08,1.57-.09.98-.02,1.63,0,2.08.14.45.16.71.38.92.71.1.15.22.3.28.44.09.25-.06.47-.42.68-.36.2-.91.41-1.63.47-4.25.45-8.72.52-13.22.56-3.34.02-6.69.03-10.04.05v-.06Z"/><path class="cls-1" d="M189.1,407.58c-3.28.04-6.56.08-9.83.18-1.2.03-2.39.14-3.58.18l-12.65.37c-1.87.06-3.74.24-5.6.36-2.38.15-4.75.5-7.17.29-.75-.05-.67-.24-.07-.6.3-.18.73-.41,1.25-.66.26-.12.54-.26.85-.36.31-.09.63-.16.97-.21,4.84-.75,9.71-1.14,14.64-1.23,2.95-.02,6-.29,9.02-.41,3.31-.13,6.62-.21,9.94-.28l6.11-.11c3.09-.06,6.19-.06,9.25-.16,2.38-.07,4.71-.28,7.07-.4.52-.03,1.03-.08,1.55-.09,1.94-.05,2.56.12,2.97.77.09.15.22.3.28.45.19.5-.6.93-2.02,1.08-4.19.47-8.61.6-13.05.7-3.3.06-6.61.13-9.92.2v-.06Z"/><path class="cls-1" d="M233.82,414.89c1.28.24,2.61.56,3.76,1.29.64.33,1.04.64,1.51.96l1.38.97c.67.48,1.39.9,2.04,1.43,1.14.93,2.24,1.93,3.21,3.04.99,1.1,1.91,2.25,2.73,3.47.77,1.05,1.4,2.2,2.02,3.32.74,1.46,1.46,2.97,1.66,4.62.08.51-.15.51-.59.22-.43-.3-1.15-.83-1.64-1.56-.82-1.34-1.76-2.57-2.74-3.74-.92-1.21-1.82-2.44-2.84-3.62-1.21-1.43-2.83-2.55-4.4-3.68-.86-.63-1.76-1.23-2.66-1.83l-.69-.44-.62-.34c-.39-.26-.85-.37-1.29-.55-1.12-.34-2.37-.46-3.67-.44-1.98.05-4.06.3-6.23.31-1.67,0-3.51-.14-5.17-1.02-.39-.15-.68-.42-1-.67-.61-.46-.84-.9-.94-1.26-.1-.36-.05-.65.12-.97.08-.15.14-.3.23-.42.3-.39,1.02-.3,1.78.07.57.25,1.13.48,1.65.63.51.21,1.05.3,1.59.4,1.1.17,2.36.12,3.75-.01,2.05-.18,4.42-.53,7.03-.25v.08Z"/><path class="cls-1" d="M391.23,346.5c-.73-.5-1.28-1.21-1.66-2.07-.36-.87-.59-1.92-.45-3.15,0-.59.2-1.22.34-1.84.06-.29.22-.65.32-.87.09-.2.17-.4.28-.58.4-.77.93-1.44,1.5-2.06,1.18-1.2,2.62-2.14,4.26-2.6,1.62-.49,3.45-.51,5.1.1,2.41.92,4.19,2.87,5.02,5.13.73,1.98.82,4.29-.13,6.29-.11.25-.23.5-.4.75-.16.25-.33.48-.63.77-.54.54-1.27.85-2.01.82-.74-.03-1.43-.42-1.92-.98-.26-.3-.41-.56-.55-.83-.13-.27-.24-.55-.32-.85-.28-1.08-.21-2.23.1-3.25.32-1.03.86-1.94,1.52-2.72,1.33-1.55,3.25-2.63,5.3-2.85.9-.1,1.84-.07,2.76.17.92.23,1.8.76,2.47,1.43,1.35,1.37,1.94,3.24,1.91,5.01-.04,2.29-.9,4.37-2,6.2-1.14,1.82-2.61,3.45-4.4,4.6-.61.28-.91.35-.93.28-.03-.07.2-.31.48-.81.61-.97,1.72-2.56,2.77-4.48.94-1.69,1.67-3.56,1.72-5.29.03-.87-.11-1.66-.44-2.37-.32-.71-.8-1.29-1.36-1.62-.55-.31-1.24-.56-2.04-.59-.4-.02-.81.01-1.22.08-.39.08-.78.18-1.16.35-1.52.64-2.9,2.02-3.29,3.59-.13.47-.15.95-.07,1.42.03.25.08.43.16.62.04.09.09.18.14.26.03.04.05.08.09.12.13.15.37.21.55.1.1-.07.13-.08.26-.25.12-.17.23-.39.32-.64.82-1.93.22-4.4-1.15-6.06-1.49-1.91-3.97-2.6-6.27-1.76-1.14.4-2.19,1.12-2.99,2.06-.4.46-.74.98-.98,1.53-.17.33-.22.6-.28.94-.05.4-.02.83.14,1.22.15.4.48.74.9.87.41.14.91.06,1.17-.3.26-.35.31-.81.26-1.24-.03-.33-.12-.67-.26-.98-.07-.16-.15-.31-.25-.46-.1-.17-.17-.24-.39-.5-.77-.86-1.81-1.45-2.96-1.66-1.14-.22-2.36-.09-3.39.43-1.05.48-1.87,1.37-2.46,2.4-.89,1.62-1.12,3.59-.79,5.37.33,1.77,1.31,3.42,2.53,4.82.55.62,1.15,1.17,1.79,1.72,2.42,2,3.31,2.56,3.51,3.57.06.22.16.46.16.65.03.59-1.45.41-3.6-.98-1.59-1.03-3.13-2.29-4.42-3.9-.64-.8-1.21-1.69-1.67-2.65-.46-.94-.81-2.08-.95-3.16-.29-2.2.03-4.49,1.12-6.56.55-1.03,1.32-1.99,2.3-2.75.98-.75,2.15-1.29,3.36-1.51,1.8-.33,3.67-.04,5.31.82.82.43,1.56,1.02,2.16,1.7l.25.29.31.43c.21.28.38.59.55.88.32.6.55,1.21.71,1.8.29,1.17.33,2.25.13,3.15-.18.91-.57,1.66-1.21,2.27-.63.61-1.57,1-2.5,1.02-.93.03-1.86-.26-2.61-.75v-.08Z"/><path class="cls-1" d="M399.4,403.15c.04-4.09.08-8.18.07-12.26,0-1.49-.1-2.98-.1-4.47.01-5.25.14-10.51.06-15.77,0-1.17-.05-2.33-.1-3.5-.04-1.17-.09-2.33-.13-3.49-.06-1.48-.19-2.97-.19-4.46-.01-.74-.02-1.49,0-2.24,0-.37.04-.75.09-1.12.06-.38.08-.75.16-1.13.29-.95.26-.82.73-.06.25.38.54.92.9,1.58.31.66.53,1.44.67,2.29.24,1.51.38,3.03.51,4.55.12,1.52.27,3.04.31,4.56.08,3.05.08,6.11-.02,9.18-.11,3.68.15,7.49.13,11.24,0,4.13-.06,8.26-.11,12.38-.03,2.54-.07,5.08-.1,7.62-.04,3.84-.12,7.71-.09,11.52.03,2.97.22,5.87.33,8.8.03.65.08,1.28.05,1.93-.02,1.21-.11,2-.29,2.56-.16.56-.37.88-.64,1.14-.13.12-.25.27-.36.34-.37.23-.77-.75-1.12-2.52-.43-2.62-.49-5.31-.62-8.04-.1-2.73-.15-5.49-.18-8.27-.02-4.12-.03-8.25-.05-12.37h.07Z"/><path class="cls-1" d="M401.63,393.06l-14-.32-5.11-.02-18.01-.39c-2.66-.04-5.34-.07-7.98-.06-1.7,0-3.4,0-5.1.01-1.7-.05-3.4-.14-5.1-.29-1.06-.22-.92-.25-.03-.58.89-.31,2.53-.77,4.48-.98,3.46-.18,6.93-.3,10.4-.39,3.47-.08,6.95.02,10.45.12,4.18.14,8.53-.02,12.81-.03l14.11.04c2.9.01,5.79.02,8.68.03,4.38,0,8.79.06,13.14-.02,3.38-.07,6.7-.32,10.04-.5.74-.04,1.46-.11,2.2-.13,2.75-.09,3.63.12,4.22.99.13.2.31.39.39.59.26.67-.86,1.24-2.87,1.44-5.97.6-12.27.67-18.6.68-4.7,0-9.42-.05-14.12-.12v-.07Z"/><path class="cls-1" d="M355.67,372.87c.42-.68.85-1.35,1.29-2.01.25-.37.5-.73.76-1.09.04-.05.07-.1.11-.15.09-.12-.08.11-.08.11.02-.06.11-.14.15-.19.1-.12.2-.22.31-.34.15-.16-.07.06-.14.1.06-.04.08-.03-.11.04-.1.03-.44.09-.43.1.19,0-.3-.08-.22-.03.04.02.11.03.16.04.06.02.29.11.05.01s0,0,.05.03c.17.08.33.17.49.26.77.43,1.5.92,2.23,1.43s1.42,1,2.12,1.52c.58.43,1.56.11,1.88-.49.38-.72.12-1.42-.49-1.88-1.42-1.06-2.87-2.14-4.42-2.99-.8-.44-1.76-.91-2.66-.42-.76.41-1.28,1.32-1.76,2-.59.84-1.14,1.71-1.68,2.58-.38.61-.15,1.54.49,1.88s1.48.16,1.88-.49h0Z"/><path class="cls-1" d="M380.2,377.29c.11-.19.23-.37.36-.54.04-.06.3-.4.07-.1.08-.11.17-.21.25-.32.33-.4.67-.79,1.02-1.17.3-.32.6-.65.92-.95.05-.05.11-.09.16-.14.14-.15-.34.22-.14.11-.2.11-.71.18-.94.13.06.01.22.09-.04-.02-.3-.13.14.07.22.11.18.09.36.18.54.28.44.23.88.47,1.32.71.89.49,1.77.99,2.65,1.49.63.35,1.53.17,1.88-.49s.18-1.5-.49-1.88c-1.46-.83-2.92-1.68-4.43-2.43-.69-.35-1.41-.71-2.15-.23-.62.4-1.13,1.02-1.62,1.56-.7.78-1.42,1.59-1.96,2.5-.37.62-.16,1.54.49,1.88s1.49.17,1.88-.49h0Z"/><path class="cls-1" d="M369.33,405.04c-.15.2-.3.4-.45.59-.03.04-.32.42-.13.17-.1.13-.2.26-.3.39-.41.52-.81,1.04-1.23,1.55-.38.47-.76.93-1.16,1.38-.14.16-.29.32-.44.46-.06.06-.15.12-.2.19-.14.17.32-.19.08-.07.28-.1.37-.14.25-.11.31-.03.4-.05.26-.04-.06-.02-.16-.01-.22-.01-.24,0,.35.07.08.01-.12-.02-.23-.04-.35-.06-.57-.11-1.13-.25-1.69-.39-.64-.16-1.27-.34-1.89-.54-.3-.09-.61-.19-.91-.3-.13-.05-.26-.09-.39-.14-.08-.03-.49-.21-.09-.03-.68-.29-1.47-.2-1.88.49-.34.58-.19,1.58.49,1.88,1.88.81,3.96,1.42,5.99,1.74.44.07.9.16,1.35.04.41-.11.74-.39,1.03-.67.71-.69,1.33-1.49,1.95-2.26.77-.95,1.51-1.92,2.25-2.9.45-.59.09-1.54-.49-1.88-.71-.41-1.43-.1-1.88.49h0Z"/><path class="cls-1" d="M384.87,422.2c.54-.84,1.09-1.66,1.66-2.48.33-.48.67-.95,1.01-1.41.05-.06.25-.32.04-.06.08-.1.16-.21.24-.31.13-.15.25-.31.39-.46.1-.11.22-.21.32-.32.15-.16-.33.21-.1.09-.32.17-.93.26-1.21-.02.08.08.23.16.33.22.08.06.04.03-.12-.09.05.04.09.07.14.11.1.08.21.17.31.25.83.68,1.63,1.39,2.44,2.1.57.51,1.37.53,1.94,0,.66-.61,1.32-1.22,1.97-1.84.54-.51.51-1.43,0-1.94-.54-.54-1.4-.51-1.94,0-.66.61-1.32,1.22-1.97,1.84h1.94c-.71-.62-1.42-1.25-2.14-1.85-.62-.52-1.39-1.37-2.26-1.38-.83,0-1.44.68-1.92,1.27-.63.77-1.22,1.59-1.79,2.41s-1.12,1.64-1.66,2.48c-.4.62-.13,1.52.49,1.88.67.39,1.48.13,1.88-.49h0Z"/><path class="cls-1" d="M409.87,408.8c.94.59,1.86,1.23,2.83,1.77.59.33,1.27.51,1.94.32.6-.18,1.04-.61,1.43-1.07,1.47-1.75,2.93-3.5,4.4-5.24.48-.57.56-1.39,0-1.94-.49-.49-1.47-.57-1.94,0-1.28,1.52-2.55,3.05-3.83,4.57-.28.34-.58.67-.85,1.01-.11.13-.11.06.02.04.06,0,.13-.02.19-.03.09-.02.12.07.04-.02-.05-.06-.19-.12-.26-.16-.86-.53-1.71-1.07-2.57-1.61-.63-.39-1.51-.13-1.88.49-.39.66-.14,1.49.49,1.88h0Z"/><path class="cls-1" d="M428.23,368.39c-.82-1-1.63-2.01-2.53-2.95-.38-.4-.82-.87-1.37-1.02s-1.04.04-1.48.32c-.88.55-1.69,1.24-2.5,1.89-.46.37-.92.74-1.38,1.11-.22.17-.43.34-.65.51-.1.08-.2.16-.3.23.25-.2.01-.01-.1.07-.16.12-.33.25-.5.36-.2.14-.49.19-.01.06.33-.09.36-.02.73.12.73.28.41.2.28.03-.1-.14-.23-.26-.34-.39-.05-.07-.11-.13-.16-.2-.1-.12.09.12-.05-.07-.1-.13-.19-.26-.29-.39-.44-.6-1.19-.9-1.88-.49-.59.35-.93,1.28-.49,1.88.78,1.06,1.82,2.82,3.36,1.99.8-.43,1.51-1.1,2.23-1.67.47-.38.95-.76,1.42-1.14.23-.18.45-.36.68-.54.09-.07.19-.15.28-.22.15-.12-.19.15-.04.03.06-.05.12-.1.19-.14.32-.25.65-.48.99-.7.03-.02.13-.06.16-.09-.07.09-.27.11-.36.11-.21,0-1.02-.3-.7-.09-.4-.26-.06-.03.05.07,1.04.99,1.93,2.16,2.84,3.27.47.58,1.46.49,1.94,0,.57-.57.47-1.37,0-1.94h0Z"/><path class="cls-1" d="M229.87,244.1c-.97-2.82-1.43-5.77-1.6-8.63-.16-2.89-.04-5.8.45-8.68.48-2.87,1.32-5.73,2.64-8.37l2.08-3.79,2.46-3.55c.66-.82,1.36-1.6,2.03-2.41.34-.4.67-.81,1.02-1.2l1.13-1.1c.76-.72,1.49-1.49,2.29-2.16l2.48-1.94c.71-.6,1.52-1.05,2.3-1.55.79-.48,1.56-1,2.36-1.45l2.48-1.24,1.24-.61,1.29-.5,2.58-.99c.87-.29,1.77-.51,2.66-.76,1.76-.57,3.6-.78,5.41-1.11,7.29-1.03,14.83-.02,21.62,2.75.39.13.76.3,1.12.49l1.09.55,2.18,1.09c.71.4,1.4.87,2.1,1.31.7.44,1.32.99,1.98,1.48,2.55,2.08,4.74,4.55,6.57,7.22,2.33,3.45,4.09,7.29,5.15,11.33.21,1.02.51,2.03.63,3.07l.16,1.56c.04.52.03,1.05.05,1.57.06,1.04-.04,2.09-.11,3.12,0,.52-.16,1.03-.24,1.54l-.14.76-.07.38c-.03.06.01.13-.08.18l-.07.18c-.48,1.22-.7,1.72-.76,1.67-.07-.05,0-.68-.1-1.76-.12-1.08-.35-2.57-.73-4.3-.14-.86-.47-1.79-.68-2.76-.16-.48-.29-.98-.47-1.47-.09-.51-.21-1.03-.36-1.56-.91-3.75-2.41-7.37-4.48-10.61-2.03-3.26-4.59-6.18-7.62-8.43-.77-.54-1.56-1.05-2.38-1.54l-2.6-1.32c-.85-.49-1.78-.78-2.68-1.13l-1.37-.52-.68-.26-.71-.18-2.84-.74c-.95-.22-1.93-.3-2.9-.47l-1.46-.22-1.48-.07c-.98-.02-1.97-.14-2.96-.09-9.53.1-19.24,4.28-26.46,10.82-3.99,3.58-7.26,8-9.57,12.83-2.17,4.81-2.79,10.36-2.39,15.72.24,3.34,1.02,6.53,2.41,9.52,1.43,2.96,3.41,5.67,5.82,7.95,3.64,3.48,8.12,6.09,12.89,7.87,4.78,1.77,9.85,2.74,14.91,2.89,3.93.12,7.83-.31,11.55-1.3,3.71-1.02,7.25-2.58,10.42-4.7,1.39-.95,2.66-1.98,3.93-3.1,2.31-2.12,3.64-3.7,4.66-4.76,1-1.08,1.7-1.62,2.42-1.97.33-.16.72-.41.97-.47.44-.1.4.48-.07,1.63-.47,1.14-1.45,2.81-3.05,4.71-2.36,2.83-5.24,5.33-8.49,7.33-3.26,1.98-6.87,3.46-10.63,4.36-7.56,1.8-15.54,1.47-23.08-.49-5.58-1.51-11.01-3.9-15.72-7.48-2.34-1.79-4.51-3.87-6.3-6.26-1.8-2.38-3.26-5.06-4.25-7.89l.07-.04Z"/><path class="cls-1" d="M217.6,425.23c-2.41-10.66-4.9-21.31-7.58-31.9-.98-3.86-2.08-7.69-3.13-11.52-.47-1.68-.95-3.36-1.47-5.01-.26-.83-.53-1.65-.81-2.43-.28-.78-.65-1.63-.75-1.64-.05-.05-.39-.22-.74-.32-.35-.12-.74-.22-1.13-.31-.8-.18-1.63-.32-2.48-.44-1.69-.24-3.42-.39-5.16-.52-6.95-.48-13.98-.53-20.99-.45-6.22.09-12.49.38-18.63.88-1.97.16-3.94.36-5.89.62-.97.13-1.94.27-2.84.47l-.29.07-.15.04c-.09.03-.2.07-.25.16-.07.09-.1.15-.16.27-.1.16-.18.39-.28.58-.72,1.68-1.35,3.56-1.85,5.42-.47,1.88-1.13,3.73-1.4,5.64-.16,1.18-.17,1.69-.32,1.69-.12-.01-.38-.58-.64-1.66-.24-1.07-.51-2.65-.61-4.58-.04-.96.08-1.98.23-3.06.16-1.08.4-2.21.78-3.4.16-.53.36-1.05.61-1.59.13-.28.23-.52.43-.86.24-.48.57-.84.9-1.21.38-.31.81-.57,1.29-.71.22-.06.53-.16.69-.19l.44-.09c.56-.11,1.1-.19,1.63-.27,2.11-.29,4.15-.46,6.2-.62,4.1-.3,8.18-.49,12.27-.6,8.18-.22,16.38-.2,24.63.28,2.47.15,4.96.32,7.49.57,1.26.13,2.53.29,3.83.51.65.11,1.3.24,1.97.42.34.09.68.19,1.04.33.18.07.36.14.56.24.22.1.45.25.66.41.2.16.41.33.56.55.15.22.29.45.4.64l.44.97c.24.62.49,1.24.69,1.84.43,1.22.81,2.43,1.19,3.65.74,2.43,1.43,4.86,2.09,7.29,2.87,10.68,5.44,21.41,7.97,32.15l2.29,9.93,1.12,4.97.31,1.42c.13.61.3,1.24.25,1.76,0,.28,0,.55-.01.78l-.02.36-.02.18s-.1.05-.16.07c-.45.13-.93.27-1.51.35-.85.08-2.03.04-2.52.05h-1.93s-3.86-.06-3.86-.06l-7.72-.13c-5.14-.1-10.27-.2-15.38-.29-3.97-.06-7.91-.13-11.83-.19-3.89-.1-7.77-.06-11.66.06-1.71.06-3.39.17-5.11.25-6.39.34-8.43.39-9.89-.43-.33-.17-.76-.33-.96-.5-.68-.54,1.88-1.52,6.63-1.98,7.03-.71,14.32-.94,21.69-.69,7.22.19,14.65.27,22.05.4,5.5.08,11.01.17,16.53.25l2.06.02h.07s.02,0,.02-.03v-.05s-.05-.22-.05-.22l-.11-.5-1.8-8.07.07-.03Z"/><path class="cls-1" d="M143.49,392.57c-.18-.62-.38-1.22-.61-1.78-.13-.26-.23-.57-.38-.8-.13-.24-.29-.54-.36-.56-.02-.1-.27-.23-.42-.37-.2-.13-.47-.25-.69-.38l-.83-.33c-.29-.1-.6-.19-.9-.28-2.49-.7-5.23-1.03-7.95-1.28-2-.16-4.01-.19-6.02-.27-7.1-.27-14.26-.11-21.4.35-3.17.21-6.34.56-9.46.97-2,.27-4.01.55-6.01.85-2,.3-3.99.6-6.02.75-1.27.08-1.17-.23-.21-.9.48-.34,1.18-.76,2.04-1.19.87-.41,1.92-.74,3.07-.98,2.05-.41,4.11-.77,6.18-1.07,2.07-.26,4.15-.5,6.23-.69,4.16-.39,8.34-.61,12.55-.67,5.03-.06,10.25-.33,15.42-.14,2.84.13,5.68.34,8.53.78,1.43.23,2.85.49,4.28.95.36.1.72.23,1.07.38.36.12.72.29,1.08.49.36.16.72.42,1.07.69.33.24.72.72.93,1.05,1,1.68,1.51,3.43,1.93,5.16.41,1.74.68,3.48.89,5.22.65,5.27.74,10.57.81,15.79.04,4.06.13,8.04.04,12.07-.02.89-.02,1.75-.07,2.65-.28,3.31-.62,4.35-1.42,4.97-.18.14-.35.34-.51.41-.52.25-.87-1.13-.89-3.52-.06-7.1.16-14.58-.1-22.04-.1-2.77-.25-5.54-.52-8.28-.28-2.73-.67-5.46-1.41-7.96l.07-.03Z"/><path class="cls-1" d="M118.06,381.74c-.9.79-1.84,1.51-2.83,2.17-1.02.66-1.96,1.28-3.32,1.77-.16.06-.39.12-.62.16-.22.03-.43.04-.64.05-.39-.01-.76-.05-1.1-.12-.67-.14-1.28-.34-1.85-.58-1.15-.47-2.18-1.07-3.18-1.71-1.45-.95-2.84-1.98-4.05-3.26-1.06-1.12-2.11-2.35-2.69-4.08-.27-.86-.36-1.97.07-2.98.2-.5.53-.94.87-1.29.36-.35.71-.62,1.17-.87.89-.53,2.2-.54,3.12-.14.92.39,1.59.99,2.15,1.59,1.09,1.24,1.78,2.61,2.41,3.98.54,1.23,1,2.47,1.36,3.77.17.67.32,1.29.34,2.13-.02.44-.1.73-.15,1.1-.1.34-.16.69-.29,1.02-.59,1.75-1.83,3.13-3.12,4.2-.66.53-1.31,1.05-2.03,1.47-.71.41-1.42.82-2.14,1.23-.88.52-.76.46-.2-.22.28-.34.66-.85,1.12-1.48.23-.3.46-.67.74-.99.29-.31.6-.63.92-.95,1.15-1.12,2.07-2.32,2.47-3.59.09-.32.17-.64.21-.97.04-.16.03-.33.04-.5.01-.17.02-.37,0-.36-.08-.47-.34-1.28-.57-1.98-.5-1.45-1.16-2.9-1.93-4.19-.38-.65-.82-1.24-1.24-1.76-.42-.52-.89-.91-1.23-1.04-.2-.08-.36-.1-.59-.03-.21.06-.57.26-.76.46-.42.38-.52.87-.33,1.64.46,1.52,1.84,3.11,3.3,4.34,1.62,1.39,3.48,2.62,5.41,3.38.48.18.96.32,1.41.39.48.06.67.03,1.16-.17.91-.38,1.86-.98,2.74-1.61,1.09-.78,2.14-1.65,3.07-2.6.93-.94,1.79-1.99,2.24-3.08.16-.41.25-.81.21-1.15-.04-.33-.17-.6-.44-.85-.27-.24-.71-.48-1.02-.56-.34-.08-.7-.03-1.08.12-.76.3-1.49.99-2.11,1.74-.62.76-1.16,1.62-1.63,2.52-1.45,2.8-2.25,5.88-2.67,8.94-.08.68-.13,1.34-.17,2.02-.18,2.5-.3,3.27-.72,3.91-.1.15-.18.34-.28.43-.28.35-1-.68-1.32-2.75-.24-1.54-.08-3.08.1-4.62.21-1.54.54-3.07,1.01-4.57.47-1.51,1.04-3,1.79-4.45.76-1.45,1.62-2.88,2.97-4.18.49-.48,1.1-.94,1.86-1.29.74-.35,1.76-.57,2.75-.34.47.11.96.31,1.28.5.35.18.72.45,1.05.77.7.63,1.21,1.75,1.19,2.71.01.97-.26,1.74-.56,2.4-.32.65-.68,1.21-1.07,1.73-.78,1.02-1.64,1.9-2.54,2.71l-.05-.04Z"/><path class="cls-1" d="M82.42,434.27c.02.18.06.33.09.48.03.16.06.31.1.42,0,.05.01.09.05.12-.1,0,.5.19,1,.29.52.1,1.08.19,1.66.25,1.14.14,2.33.2,3.52.26,2.38.11,4.79.13,7.19.13,2.04,0,4.07-.1,6.11-.12l21.61-.24c3.2-.04,6.42-.09,9.6-.13,2.04-.03,4.09-.03,6.14.05,2.05.07,4.11.22,6.12.71.62.3.88.45.86.52-.02.07-.34.1-.9.36-.56.27-1.33.43-2.26.67-.46.1-.96.21-1.5.28-.53.06-1.09.09-1.67.08-4.12.06-8.26.02-12.41.02-4.16-.01-8.32-.02-12.51-.03-5.02-.05-10.23.26-15.37.35-2.83.04-5.66.06-8.5,0-1.42-.02-2.85-.08-4.28-.17-1.44-.1-2.87-.22-4.37-.55-.24-.04-.51-.14-.76-.22-.29-.06-.62-.27-.93-.42-.43-.36-.76-.86-.9-1.41-.14-.45-.2-.83-.27-1.23-.13-.79-.2-1.56-.26-2.32-.12-1.53-.18-3.05-.23-4.56-.16-5.28-.09-10.57-.16-15.79-.05-4.06-.27-8.03-.45-12.03-.05-.88-.09-1.74-.14-2.63-.12-3.28-.02-4.32.74-5.07.16-.17.31-.39.46-.49.46-.35,1.17.97,1.39,3.41.76,7.2.73,14.78.73,22.36,0,2.81,0,5.63.04,8.43.07,2.78.14,5.65.52,8.21l-.06.02Z"/><path class="cls-1" d="M341.22,426.9c-.45-6.89-.68-13.73-.81-20.59-.12-6.86-.13-13.72.03-20.58.13-5.01.23-10.03.74-15.07.17-1.64.38-3.29.68-4.95.16-.83.33-1.67.59-2.53.13-.43.29-.88.49-1.33.13-.25.21-.46.4-.74.17-.29.42-.54.67-.78.54-.37,1.04-.7,1.5-.88l.7-.31.68-.24c.92-.33,1.81-.55,2.71-.79,1.8-.42,3.59-.79,5.38-1.07,3.58-.59,7.17-1.02,10.75-1.38,7.17-.71,14.36-1.11,21.55-1.31,7.82-.22,15.7-.27,23.47,0,4.99.15,10,.48,14.98,1.06,4.98.55,9.96,1.46,14.73,3.08,2.96,1.04,2.48,1.1-.16.89-.66-.06-1.46-.09-2.38-.13-.23,0-.46-.03-.71-.02-.24-.03-.49-.04-.74-.05-.51-.02-1.05-.04-1.62-.05-1.12-.07-2.35-.06-3.63-.14-1.28-.13-2.64-.21-4.04-.38-19.99-1.86-40.31-1.79-60.59-.15-3.58.31-7.19.72-10.77,1.32-1.79.3-3.58.64-5.32,1.08-.44.1-.86.23-1.29.35-.43.11-.85.25-1.25.4l-.61.21-.55.25c-.4.15-.65.36-.88.49-.1.06-.35.52-.52,1.05-.18.52-.32,1.12-.46,1.7-.25,1.2-.44,2.44-.59,3.7-.31,2.51-.5,5.06-.65,7.6-.4,6.83-.51,13.71-.52,20.58,0,6.87.12,13.75.39,20.62.17,4.22.37,8.46.8,12.62.05.52.12,1.03.19,1.53l.09.52c.04.12.04.27.15.36.11.08.24.11.36.15l.19.04c.11.03.23.05.35.07.48.09,1,.16,1.51.22,2.06.24,4.17.36,6.27.47,6.39.31,12.82.39,19.24.44,6.42.04,12.83.04,19.2-.02,9.91-.09,19.61-.43,29.4-.72,2.16-.07,4.26-.14,6.44-.21,8.06-.18,10.63-.02,12.37.82.4.19.92.37,1.15.56.78.64-2.49,1.25-8.39,1.52-17.5.82-35.98,1.15-54.54,1.09-6.9-.06-13.81-.21-20.74-.44-3.48-.13-6.93-.26-10.49-.63-.45-.05-.9-.11-1.36-.18-.23-.03-.47-.08-.71-.12-.14-.02-.2-.04-.42-.09-.22-.05-.42-.09-.62-.17-.82-.21-1.48-.72-1.84-1.42-.18-.36-.26-.77-.36-1.18-.03-.1-.04-.21-.06-.3l-.03-.19-.06-.35c-.26-1.82-.39-3.54-.53-5.29l.07-.02Z"/><path class="cls-1" d="M141.29,386.95c-.03-.32-.05-.65-.08-.97-.01-.12-.05-.23-.04-.35.02-.41.04-.84.06-1.24,0-.18,0-.36-.03-.53-.02-.22-.06-.45,0-.68.03-.14.57,0,.66.24.12.44.23.86.22,1.31,0,.27.12.53.18.79.05.29.1.59.15.89.03.18.07.36.12.54.07.27.13.55.25.8.1.2.28.35.35.55.02.04.05.08.07.12.05.17,0,.25-.25.41l-.17.1c-.19.1-.39.11-.53.03-.2-.13-.43-.27-.56-.45-.11-.19-.18-.4-.24-.61-.09-.31-.15-.64-.2-.96h.03Z"/><path class="cls-7" d="M111.92,416.62s-5.71-.44-6.05,2.11c-.35,2.55-.77,3.51.85,4.94s5.61,2.22,5.79-.72c.18-2.94-.59-6.33-.59-6.33Z"/><path class="cls-1" d="M276.91,213.54c-.61.93-1.18,1.97-1.14,3.12.04,1.32.87,2.52,2.13,2.95,1.33.45,2.63-.42,3.28-1.54.27-.47.49-1,.58-1.54.13-.79.08-1.52-.26-2.26-.25-.55-.76-1.06-1.3-1.31-.41-.19-.75-.29-1.2-.32s-.85.12-1.25.3c-.32.14-.6.57-.69.9-.1.36-.05.84.15,1.16s.51.6.9.69l.4.05c.27,0,.52-.07.76-.2l.05-.02-.36.15c.08-.03.16-.05.25-.07l-.4.05c.1-.01.2,0,.3,0l-.4-.05c.1.02.2.04.3.08l-.36-.15c.13.06.25.13.36.21l-.3-.23c.1.08.18.17.26.26l-.23-.3c.08.1.14.2.19.32l-.15-.36c.06.14.09.28.12.44l-.05-.4c.03.2.02.4,0,.6l.05-.4c-.04.29-.13.57-.24.85l.15-.36c-.11.25-.23.48-.39.7l.23-.3c-.1.12-.2.24-.32.34l.3-.23c-.09.07-.18.13-.29.18l.36-.15c-.11.04-.21.07-.32.09l.4-.05c-.09,0-.17,0-.26,0l.4.05c-.1-.02-.2-.05-.29-.09l.36.15c-.1-.04-.18-.1-.27-.16l.3.23c-.11-.09-.21-.19-.3-.31l.23.3c-.09-.12-.16-.25-.22-.38l.15.36c-.06-.15-.11-.31-.13-.48l.05.4c-.02-.17-.01-.33,0-.5l-.05.4c.04-.26.11-.52.22-.76l-.15.36c.19-.44.44-.84.7-1.24.43-.66.15-1.69-.54-2.05-.75-.4-1.59-.16-2.05.54h0Z"/><path class="cls-1" d="M261.43,217.23c-.61.93-1.18,1.97-1.14,3.12.04,1.32.87,2.52,2.13,2.95,1.33.45,2.63-.42,3.28-1.54.27-.47.49-1,.58-1.54.13-.79.08-1.52-.26-2.26-.25-.55-.76-1.06-1.3-1.31-.41-.19-.75-.29-1.2-.32s-.85.12-1.25.3c-.32.14-.6.57-.69.9-.1.36-.05.84.15,1.16s.51.6.9.69l.4.05c.27,0,.52-.07.76-.2l.05-.02-.36.15c.08-.03.16-.05.25-.07l-.4.05c.1-.01.2,0,.3,0l-.4-.05c.1.02.2.04.3.08l-.36-.15c.13.06.25.13.36.21l-.3-.23c.1.08.18.17.26.26l-.23-.3c.08.1.14.2.19.32l-.15-.36c.06.14.09.28.12.44l-.05-.4c.03.2.02.4,0,.6l.05-.4c-.04.29-.13.57-.24.85l.15-.36c-.11.25-.23.48-.39.7l.23-.3c-.1.12-.2.24-.32.34l.3-.23c-.09.07-.18.13-.29.18l.36-.15c-.11.04-.21.07-.32.09l.4-.05c-.09,0-.17,0-.26,0l.4.05c-.1-.02-.2-.05-.29-.09l.36.15c-.1-.04-.18-.1-.27-.16l.3.23c-.11-.09-.21-.19-.3-.31l.23.3c-.09-.12-.16-.25-.22-.38l.15.36c-.06-.15-.11-.31-.13-.48l.05.4c-.02-.17-.01-.33,0-.5l-.05.4c.04-.26.11-.52.22-.76l-.15.36c.19-.44.44-.84.7-1.24.43-.66.15-1.69-.54-2.05-.75-.4-1.59-.16-2.05.54h0Z"/><path class="cls-1" d="M117.36,176.97c.39,1.07.33,2.42-.34,3.73-2.78,5.44-9.52-2.16-4.54-5.09,2.35-1.39,4.24-.42,4.88,1.36Z"/><path class="cls-1" d="M218.39,85.57c-.21,1.11-.95,2.25-2.19,3.04-5.16,3.28-7.11-6.69-1.33-6.69,2.73,0,3.86,1.79,3.52,3.65Z"/><path class="cls-2" d="M420.82,245.77c-.21,1.11-.95,2.25-2.19,3.04-5.16,3.28-7.11-6.69-1.33-6.69,2.73,0,3.86,1.79,3.52,3.65Z"/><path class="cls-1" d="M417.26,133.11c-.21,1.11-.95,2.25-2.19,3.04-5.16,3.28-7.11-6.69-1.33-6.69,2.73,0,3.86,1.79,3.52,3.65Z"/><path class="cls-2" d="M130.32,168.18c.26.78.16,1.8-.42,2.81-2.43,4.19-7.47-1.23-3.4-3.63,1.93-1.13,3.38-.48,3.82.82Z"/><path class="cls-2" d="M307.39,122.45c-.17.81-.77,1.63-1.79,2.21-4.22,2.38-5.81-4.85-1.09-4.85,2.23,0,3.16,1.3,2.88,2.65Z"/><path class="cls-1" d="M157.92,244.85c-.17.81-.77,1.63-1.79,2.21-4.22,2.38-5.81-4.85-1.09-4.85,2.23,0,3.16,1.3,2.88,2.65Z"/><path class="cls-1" d="M400.95,226.91c-.17.81-.77,1.63-1.79,2.21-4.22,2.38-5.81-4.85-1.09-4.85,2.23,0,3.16,1.3,2.88,2.65Z"/><path class="cls-1" d="M378.96,96.66c-.17.81-.77,1.63-1.79,2.21-4.22,2.38-5.81-4.85-1.09-4.85,2.23,0,3.16,1.3,2.88,2.65Z"/><path class="cls-1" d="M443.27,407.15c.04-3.66.05-7.32,0-10.98-.01-1.34-.14-2.67-.14-4.01l.02-14.16c-.04-2.09-.09-4.2-.2-6.27-.06-1.33-.18-2.66-.2-4,0-1.34.04-2.68.09-4.02.05-.84.32-.75.77-.09.42.67,1.13,1.92,1.5,3.44.17.67.28,1.35.36,2.04l.27,2.04c.17,1.36.32,2.73.45,4.09.2,2.74.23,5.49.18,8.25-.14,3.31.12,6.74.1,10.12-.04,3.71-.13,7.43-.25,11.15-.08,2.29-.17,4.57-.25,6.86-.12,3.46-.34,6.94-.56,10.38-.19,2.68-.26,5.31-.69,8.01-.1.59-.18,1.19-.37,1.78-.66,2.2-1.66,2.99-2.5,2.79-.18-.03-.37-.06-.45-.12-.16-.11-.04-.31-.03-.68.01-.08-.01-.2.02-.3.02-.09.05-.19.07-.32.06-.23.11-.53.18-.87.4-2.06.66-4.42.84-6.79.18-2.39.33-4.83.43-7.3.14-3.66.33-7.35.28-11.04h.07Z"/></svg>