<?xml version="1.0" encoding="UTF-8"?><svg id="Layer_1" xmlns="http://www.w3.org/2000/svg" width="520" height="520" viewBox="0 0 520 520"><defs><style>.cls-1,.cls-2,.cls-3,.cls-4,.cls-5{fill:#231f20;}.cls-2{opacity:.2;}.cls-3{opacity:.55;}.cls-4{opacity:.45;}.cls-5{opacity:.85;}</style></defs><path class="cls-1" d="M278.72,460.89c-.33.1-.61-.2-.86-.61-.08-.13-.07-.52.03-.59.19-.13.37-.26.56-.38.12-.1,1.95-.35,2.57-.49.6-.12,1.21-.17,1.81-.19l3.68-.2c.27,0,.54.02.82.07.93.18,1.87.18,2.8.13.16,0,.31,0,.47-.09.25-.15,2.78-.16,3.11-.09.81.18,1.63.28,2.45.42.12.02.24-.02.35.09.25.25.5.21.75.23.35.04.7.08,1.05.17.17.04.34.19.51.3.15.1.07.47.02.51-.16.12-.03.29-.01.44,0,.05.01.12,0,.16-.02.08-2.03.8-2.25.78-.03,0-.77.05-1.56.11-.78.06-1.6.12-1.77.14-.17.03-.35-.03-.52-.07-.08-.02-2.43.19-2.52.19-.49-.03-.97.07-1.46-.16-.1-.04-.19-.03-.29-.03-.84.03-1.67-.03-2.51-.12-.43-.04-.85-.03-1.28-.04-.08,0-.15-.04-.23-.05-.1-.02-.19-.05-.29-.05-1.01,0-2.02-.15-3.03-.09-.23.01-1.34-.25-1.61-.23-.15.01-.64-.32-.78-.27Z"/><path class="cls-1" d="M380.69,458.37c.49-.15.93.25,1.31.41.12.06.11.23-.02.3-.27.13-.54.3-.81.46-.17.05-2.87.63-3.79.89-.44.12-.89.22-1.33.31-.45.08-.9.1-1.35.14l-5.48.44c-.41.03-.81.03-1.22,0-1.4-.08-2.8-.05-4.19.05-.23.02-.47,0-.69.11-.36.17-4.16.28-4.65.22-1.23-.16-2.45-.19-3.68-.38-.17-.02-.36,0-.52-.1-.37-.24-.75-.2-1.13-.23-.52-.03-1.05-.08-1.57-.16-.26-.04-.51-.16-.77-.26-.23-.09-.11-.39-.02-.42.23-.1.04-.24.02-.37,0-.04-.02-.1,0-.13.01-.04.77-.21,1.55-.39.79-.18,1.61-.38,1.78-.39.02,0,.31-.03.73-.08.43-.05.99-.11,1.57-.15,1.16-.09,2.37-.19,2.62-.23.26-.04.52.01.78.04.12.02,3.6-.35,3.74-.36.72,0,1.44-.14,2.17.04.14.04.29.02.43,0,1.24-.1,2.49-.04,3.73-.04.64,0,1.27-.06,1.91-.08.11,0,.23.02.35.03.15.01.29.04.44.03,1.5-.07,3.01-.11,4.52-.12.35,0,2.02.23,2.42.2.22,0,.98.25,1.17.2Z"/><path class="cls-1" d="M320.81,156.18c-.44-1.13-.54-2.25-.61-3.3-.02-.38-.08-.76-.08-1.14,0-1.34.05-2.68.14-4.01.03-.59.05-1.18.08-1.76.08-.75.19-1.49.4-2.22.06-.23.14-.19.24.02.09.21.26.58.31,1.01l.14,1.13c.03.37,0,.75.01,1.12,0,.75-.02,1.49-.05,2.24-.04.9.12,1.83.22,2.74.12,1.01.19,2,.47,2.9.17.56.41,1.06.76,1.51.51.69,1.23,1.26,2.03,1.67.63.31,1.33.45,2.03.61.15.04.31.05.46.09.55.2.68.43.66.9,0,.11,0,.21-.01.31-.04.31-.38.56-.86.58-1.39-.05-2.79-.62-4.1-1.54-.96-.69-1.8-1.71-2.28-2.85l.04-.02Z"/><path class="cls-1" d="M336.21,106.11s2.47-3.4,4.58-3.73c3.28-.51,5.07,1.63,10.82,1.94,4.87.27,8.97-2.68,10.43-4.14,1.85-1.86-8.59,2.89-10.92,2.2-2.33-.69-10.11-3.25-10.11-3.25,0,0-1.29,1.22-3.16,2.5-1.87,1.28-1.64,4.48-1.64,4.48Z"/><path class="cls-1" d="M359.13,150.83c-.69-.35-1.4-.86-1.93-1.47-.19-.22-.41-.41-.56-.65-.51-.88-.71-1.8-.9-2.65-.06-.38-.21-.74-.24-1.12-.07-.48-.12-.96-.06-1.45.02-.15.14-.16.32-.07.18.09.47.26.63.49.24.43.63.79.72,1.22.15.42.28.83.39,1.24.13.51.53.87.82,1.23.34.4.72.72,1.2.98.3.15.64.29,1,.4.55.16,1.13.33,1.75.44.48.09,1.01.07,1.56.19.12.03.25.03.37.08.45.17.47.46.17,1.02-.07.13-.13.26-.21.38-.25.39-.63.69-.87.71-.72.08-1.33,0-2.17-.22-.6-.17-1.29-.4-2.01-.71l.02-.05Z"/><path class="cls-1" d="M368.98,150.34c-.27-.04-.55-.08-.82-.1-.1,0-.19.03-.29.02-.35-.05-.72-.09-1.06-.14-.16-.01-.3.01-.45.04-.19.02-.35.18-.6-.06-.08-.06-.1-.18-.1-.39,0-.1,0-.23.01-.37,0-.15.03-.26.09-.28.36-.2.73-.36,1.15-.31.26.05.48-.09.72-.13.27-.04.53-.06.8-.09.17-.02.33-.03.49-.05.25-.04.5-.04.74-.12.18-.06.34-.24.51-.38.04-.03.07-.08.11-.1.15-.03.23.1.35.61l.08.34c.08.38.08.73,0,.9-.25.48-.59.56-.93.64-.25.05-.53,0-.8,0v-.05Z"/><path class="cls-1" d="M315.39,143.14c-.47-.52-.94-1.06-1.37-1.62-.16-.2-.36-.38-.51-.59-.52-.76-1.07-1.52-1.42-2.4-.16-.39-.32-.78-.43-1.19-.15-.51-.15-1.17.19-1.62.1-.14.14-.08.2.08.03.1.07.21.09.29.05.11.12.22.14.33.14.39.41.73.68,1.08.14.17.29.35.43.52.14.17.24.4.36.6.28.51.76.91,1.18,1.34l1.4,1.45c.29.3.59.6.89.88.22.21.48.44.72.71.24.26.46.53.68.81.32.43.76.81.96,1.34.05.11.11.22.14.34.12.44-.01.63-.4.81-.09.04-.18.09-.27.12-.3.1-.6,0-.83-.19-.29-.31-.69-.53-.88-.82-.22-.29-.42-.58-.66-.85-.19-.22-.31-.36-.59-.62l-.75-.74.03-.04Z"/><path class="cls-1" d="M317.47,148.38c0-.47-.05-.93-.07-1.4-.08-.45-.11-.93-.24-1.37-.1-.32-.23-.63-.34-.95-.36-1.12-.84-2.25-1.59-3.24-.36-.41-.74-.82-1.18-1.14-.29-.21-.54-.46-.85-.64-.28-.22-.53-.52-.8-.8-.16-.19-.08-.3.19-.41.27-.1.79-.29,1.3-.25.43.08.79.3,1.18.48.38.2.79.37,1.1.68.31.3.65.57.92.91.26.34.51.7.74,1.07.22.47.53.89.79,1.34.22.47.51.92.67,1.41.37,1.07.62,2.18.72,3.28.09.67.09,1.35.11,2.02,0,1.01-.07,2.02-.12,3.01-.01.77.06,1.54.03,2.32,0,.17.01.34,0,.51-.05.31-.12.51-.29.63-.2.11-.44.14-.77.13-.15,0-.29,0-.43,0-.23-.02-.43-.11-.62-.27-.19-.15-.38-.36-.4-.58-.26-1.33-.23-2.61-.13-3.89.05-.95.09-1.9.04-2.83h.06Z"/><path class="cls-1" d="M317.55,144.65c.1-.29.2-.6.25-.9.02-.11-.04-.21-.01-.32.04-.2.09-.4.13-.61.06-.21.11-.42.14-.63.02-.19-.02-.36-.08-.52-.08-.21-.21-.39-.09-.68.04-.09.42-.23.83-.32.41-.09.87-.13.98-.01.35.43.6.92.51,1.49-.07.34.1.64.13.96.03.35.01.71,0,1.07-.01.22-.03.44-.04.65,0,.33-.09.65-.04.97.02.12.08.25.15.37.05.13.11.25.14.38.02.06.03.11.01.17-.08.2-.29.25-.91.24h-.42c-.46-.03-.87-.14-1.1-.28-.37-.21-.57-.41-.7-.6-.08-.19-.09-.37-.09-.56-.01-.28.11-.56.14-.85h.07Z"/><path class="cls-1" d="M343.16,78.05c.37.87.89,1.67,1.51,2.39s1.35,1.39,2.2,1.79c.99.46,2.06.54,3.07.06s1.42-1.56,1.52-2.62c.11-1.19-.06-2.43-.4-3.57-.16-.52-.74-.91-1.29-.73s-.9.73-.73,1.29c.32,1.04.4,1.9.33,3.02-.01.13-.01.14,0,.03-.01.07-.02.13-.04.2-.02.1-.05.2-.09.29.09-.23-.14.2-.05.08.04-.05.03-.04-.04.04-.04.04-.09.08-.13.12.17-.14-.05,0-.09.03q-.11.05,0,0c-.06.02-.12.04-.18.05-.2.07.14.01-.09.02-.11,0-.22,0-.32,0-.08,0-.06,0,.05,0-.07-.01-.14-.03-.21-.05-.1-.03-.2-.06-.3-.1.16.06-.14-.08-.18-.09-.11-.06-.21-.12-.32-.19-.01,0-.26-.19-.13-.09-.11-.09-.22-.18-.32-.27-.17-.15-.33-.31-.49-.47s-.31-.34-.45-.51c.1.13-.13-.18-.15-.21-.06-.09-.12-.17-.18-.26-.27-.41-.49-.85-.68-1.3-.22-.51-1-.66-1.44-.38-.53.34-.61.89-.38,1.44h0Z"/><path class="cls-1" d="M352.48,76.23c.31,1,.85,1.92,1.51,2.73.7.86,1.64,1.49,2.77,1.52.97.02,1.81-.43,2.35-1.22.46-.68.6-1.56.67-2.36.06-.74.02-1.48,0-2.22-.02-.55-.47-1.08-1.05-1.05-.55.02-1.07.46-1.05,1.05s.05,1.15.04,1.72c0,.15-.01.3-.02.45,0,.09-.01.18-.02.26-.03.27.04-.24,0,.03-.03.14-.05.28-.09.42s-.13.3-.14.44c.02-.21.1-.21.05-.12-.01.03-.03.06-.04.08-.03.07-.07.13-.11.2-.02.02-.03.05-.05.07-.06.09-.07-.02.08-.11-.05.03-.11.11-.15.16-.17.17.19-.11.02-.02-.06.03-.12.06-.17.1-.12.07.11-.06.13-.05-.01,0-.07.03-.09.03-.05.01-.36.07-.15.04s-.08,0-.13,0c-.08,0-.16,0-.23-.01-.18,0,.08,0,.1.01-.03-.02-.1-.02-.14-.03-.05-.01-.09-.03-.14-.04-.17-.05.16.09.06.02-.07-.05-.17-.09-.25-.14-.04-.02-.07-.05-.11-.07-.16-.1.06.03.05.05,0,0-.46-.43-.5-.48-.07-.08-.15-.22-.23-.27.02.01.14.19.03.04-.04-.06-.09-.12-.13-.18-.14-.2-.26-.4-.38-.61-.11-.2-.21-.4-.31-.6-.01-.03-.1-.22-.02-.05s-.01-.03-.02-.07c-.03-.09-.07-.19-.1-.28-.16-.52-.74-.91-1.29-.73s-.91.73-.73,1.29h0Z"/><path class="cls-1" d="M357.41,88.89c-.27-1.06-.53-2.13-.8-3.19-.13-.53-.76-.91-1.29-.73s-.88.72-.73,1.29c.27,1.06.53,2.13.8,3.19.13.53.76.91,1.29.73s.88-.72.73-1.29h0Z"/><path class="cls-2" d="M367.8,161.58s-46.01-3.5-48.09,3.27c-2.07,6.77-1.37,54.4,1.86,56.33,3.23,1.92,45.96-1.84,45.96-1.84,3.59-7.42,2.65-54.49.27-57.76ZM353.69,190.34c-4.23,3.48-14.03-2.16-12.86-4.72,1.16-2.57,5.2.33,5.83.91,2.29,2.11,6.45-1.29,8.13-2.46,1.68-1.16,3.13,2.79-1.1,6.27Z"/><path class="cls-1" d="M375.75,217.53c.78-.78,1.23-1.78,1.49-3,.1-.44.13-.9.21-1.36.29-1.63.54-3.28.77-4.92.1-.73.15-1.47.19-2.2l.06-1.41c.07-.47.21-.93.35-1.4.1-.29.17-.25.34,0,.16.25.52.73.67,1.28.04,1.94-.03,3.89-.43,5.82-.23,1.15-.29,2.36-.47,3.56-.2,1.31-.52,2.75-1.36,3.95-.51.73-1.14,1.34-1.84,1.85-1.05.77-2.26,1.27-3.45,1.65-.92.31-1.84.56-2.77.75-.2.04-.4.09-.61.12-.77.12-1.03-.04-1.23-.34-.05-.07-.11-.14-.14-.22-.1-.24.18-.51.71-.74,1.59-.54,3.2-1.01,4.66-1.56,1.07-.44,2.08-1.04,2.82-1.86l.03.03Z"/><path class="cls-1" d="M375.86,218.62c.16-.03.33-.07.48-.14.06-.02.07-.09.13-.11.21-.07.44-.14.64-.25.09-.05.13-.13.17-.22.04-.11,0-.26.23-.27.14,0,1.51.86,1.46,1.06-.1.31-.3.57-.67.67-.23.05-.29.25-.44.37-.17.13-.35.23-.53.33-.11.06-.23.12-.33.18-.16.1-.34.16-.47.29-.1.1-.13.31-.21.47-.02.04-.02.09-.04.11-.08.1-.19,0-.5-.5l-.21-.34c-.23-.39-.38-.73-.39-.87-.03-.42.09-.55.25-.65.12-.08.26-.11.4-.18l.03.04Z"/><path class="cls-1" d="M373.54,234.86c2.82-7.15-1.69-12.34-1.69-12.34l-63.14.96s-4.64-.67-5.57,6.02c-.93,6.68,5.44,7.99,12.23,7.9,6.79-.09,57.43-1.67,57.43-1.67l.75-.86Z"/><path class="cls-1" d="M322.22,236.64l7.85-.09c.95-.01,1.91-.09,2.86-.09,3.36-.01,6.73.11,10.1.2,1.49.05,2.99,0,4.48.03.95.02,1.91.04,2.86.09.48.04.96.13,1.43.2.48.06.95.19,1.42.36.58.22.5.19-.02.39-.52.23-1.45.65-2.53.85-3.84.39-7.69.33-11.6.21-2.33-.08-4.76.06-7.15.12l-7.88.14c-1.61.04-3.23.08-4.84.15-1.21.06-2.46.1-3.6.23-1.14.15-2.28.47-3.33.94-1.63.74-3.04,1.88-4.02,3.23-.24.28-.38.62-.59.91-.71,1.12-1,1.46-1.68,1.58-.15.03-.31.09-.44.09-.23.01-.38-.15-.47-.5-.04-.17-.07-.39-.08-.65,0-.25.08-.53.17-.85.58-1.86,1.97-3.42,3.53-4.58,1.59-1.17,3.42-1.96,5.35-2.41.7-.15,1.5-.29,2.17-.33.7-.06,1.35-.09,2.02-.13l3.97-.16v.06Z"/><path class="cls-4" d="M378.12,301.58c1.51-11.82-4.58-16.26-5.14-16.27,0,0-27.61.76-29.24,1.6-1.63.84-12.55-.05-16.12-.73-3.58-.68-23.88-1.36-27.29,1.4-3.42,2.76-2.14,8.16-1.69,10.59s7.31,3.31,10.53,3.42c3.21.1,68.97,0,68.97,0Z"/><path class="cls-1" d="M330.34,288.68c-.63-.38-1.29-.77-2.01-1.02-.26-.11-.54-.11-.8-.2-.94-.31-1.93-.55-2.95-.57-.45-.05-.9.02-1.35.08-.55.15-1.13.17-1.78.14-.2-.02-.24-.17-.17-.44.07-.26.24-.72.55-1,1.15-.81,2.58-1.08,3.94-.8.81.14,1.65.09,2.46.24.89.17,1.76.45,2.59.79.51.21,1,.48,1.49.74.74.4,1.4.91,2.11,1.35.53.36,1.16.6,1.73.96.13.07.27.13.38.23.42.35.37.64-.17,1.24-.12.13-.24.27-.36.4-.42.41-.97.62-1.32.51-1.01-.34-1.72-.9-2.53-1.44-.59-.4-1.19-.82-1.85-1.14l.03-.06Z"/><path class="cls-1" d="M343.51,285.33c.97-.26,1.93-.48,2.9-.65.35-.07.69-.19,1.05-.23,1.27-.1,2.53-.12,3.77-.11.55,0,1.1-.03,1.64-.03.35.02.7.04,1.04.08.35.05.69.13,1.03.22.21.06.18.17,0,.32-.19.15-.52.4-.9.51-1.35.48-2.65.57-4.01.67-.82.02-1.61.38-2.41.56-.88.21-1.76.44-2.63.73-.53.17-1.06.36-1.58.58-.78.33-1.57.69-2.28,1.15-.55.36-.99.86-1.45,1.33-.1.1-.19.22-.29.32-.19.18-.36.25-.55.2-.18-.04-.39-.18-.64-.4-.11-.1-.23-.19-.32-.29-.31-.3-.45-.85-.24-1.29.72-1.13,1.81-2.01,3.03-2.6.9-.45,1.86-.79,2.82-1.11l.02.06Z"/><path class="cls-1" d="M335.92,296.9c0-.62.12-1.27.09-1.89,0-.23-.1-.43-.12-.66-.09-.79-.09-1.68-.4-2.47-.12-.36-.33-.67-.55-.96-.29-.37-.62-.7-.89-1.13-.08-.14.04-.29.29-.4.24-.1.65-.18.95-.04,1.04.54,1.98,1.39,2.42,2.47.27.64.68,1.24.89,1.92.23.74.37,1.5.42,2.24.03.46.02.92.03,1.37.02.68-.05,1.36.02,2.02.05.51.28,1.01.43,1.52.03.11.1.22.11.33.07.21-.14.34-.29.43-.18.09-.45.14-.83.18l-.51.05c-.55.03-1.07-.14-1.41-.44-.69-.89-.67-1.78-.72-2.65-.02-.64.02-1.28-.01-1.9h.08Z"/><path class="cls-1" d="M336.87,303.5c-3.15-.02-6.31-.04-9.46-.02-1.15,0-2.3.1-3.45.1h-12.18c-1.75,0-3.47.25-4.95.9-.95.41-1.8.97-2.5,1.68-.35.35-.67.74-.96,1.15-.17.2-.28.43-.42.65-.15.21-.32.43-.46.66-.4.55-.73.41-1.01-.36-.37-.77-.4-2.27.61-3.57.88-1.12,2.05-2.05,3.32-2.63,1.28-.56,2.6-.85,3.89-1,1.3-.15,2.54-.11,3.69-.1,1.18.02,2.36.05,3.54.1,2.83.11,5.77-.11,8.66-.16l9.55-.09,5.88-.02c2.97-.02,5.95.02,8.9-.03,2.29-.04,4.54-.23,6.81-.32.5-.02.99-.07,1.49-.07,1.87-.03,2.46.22,2.84.95.09.16.2.32.25.47.17.48-.6,1.04-1.96,1.17-4.03.42-8.27.52-12.54.55-3.17.02-6.35.03-9.53.05v-.07Z"/><path class="cls-1" d="M303.1,305.28c.33-.47.72-.9,1.16-1.3.46-.37.98-.68,1.51-.92.38-.17.74-.37,1.13-.47,1.38-.32,2.63-.34,3.85-.4.55-.03,1.09-.11,1.62-.19.34-.05.69-.09,1.03-.11.35-.03.69-.03,1.06.07.22.06.2.11.05.31-.11.15-.23.3-.32.42-.13.15-.3.27-.48.35-.33.13-.66.28-.99.39-.33.09-.67.18-1.01.26-.67.16-1.36.25-2.05.34-.82.08-1.56.46-2.21.78-.73.34-1.29.82-1.87,1.41-.34.37-.65.79-.9,1.26-.38.71-.67,1.49-.81,2.32-.13.64.01,1.31-.08,1.96-.01.14,0,.29-.04.43-.1.54-.27.71-.73.79-.1.02-.21.05-.31.06-.34.03-.62-.22-.77-.64-.54-1.26-.56-2.64-.23-4.07.25-1.06.71-2.12,1.34-3.09l.05.03Z"/><path class="cls-1" d="M302.41,304.9c.16-.15.32-.3.47-.45.05-.05.07-.13.13-.18.21-.18.46-.32.67-.48.09-.07.16-.16.22-.25.08-.12.13-.27.32-.3.11-.02.79.68.76.83-.09.26-.22.47-.47.61-.15.09-.18.26-.28.39-.11.14-.22.28-.33.42-.07.09-.14.18-.19.27-.09.14-.19.28-.23.45-.03.13.03.29.06.43,0,.03.03.07.03.1,0,.1-.13.1-.56-.02l-.3-.08c-.33-.1-.59-.23-.66-.34-.2-.34-.18-.65-.04-.9.1-.19.25-.35.37-.52l.04.02Z"/><path class="cls-1" d="M307.04,335.09c-.76-.37-1.59-.95-2.12-1.72-.54-.76-.82-1.58-1.03-2.35-.16-.57-.31-1.11-.41-1.66-.31-1.94-.45-3.87-.57-5.81-.05-.86-.12-1.72-.13-2.58-.01-.55-.03-1.1,0-1.66.09-.56.27-1.11.48-1.64.14-.33.2-.26.32.05.11.31.42.84.64,1.45.1,1.07.19,2.13.29,3.2.04,1.08.09,2.16.13,3.27.04,1.32.35,2.66.62,3.95.31,1.4.7,2.76,1.74,3.47.64.46,1.48.77,2.34,1.03.67.2,1.32.41,1.97.53.66.13,1.35.21,2.03.25,1.06.07,2.11-.01,3.17-.08.23-.02.46,0,.69,0,.87.06,1.14.2,1.34.58.04.09.1.17.13.25.09.27-.26.54-.92.71-.48.1-.98.28-1.47.3-.5.04-1,.06-1.51.05-1.02,0-2.05-.07-3.11-.22-.76-.1-1.65-.31-2.34-.53-.74-.22-1.5-.45-2.29-.81l.02-.04Z"/><path class="cls-3" d="M378.15,335.66s5.44-1.97,7.34,6.38c1.9,8.35-1.97,9.9-1.97,9.9l-69.65-1.04s-4.43-2.15-4.62-6.56c-.19-4.41-1.01-7.92,7.68-8.68,8.69-.76,61.21,0,61.21,0Z"/><path class="cls-1" d="M320.67,335.27c1.92-.18,3.85-.27,5.78-.35.7-.03,1.4-.15,2.1-.16,1.24-.02,2.48-.04,3.72-.02l3.71.15c1.1.02,2.19.03,3.28.05,1.39,0,2.79.03,4.18.24.43.07.38.27.01.53-.36.25-1.03.62-1.82.77-1.4.24-2.8.48-4.2.68-1.4.12-2.8.22-4.22.22-1.7,0-3.44.24-5.17.4l-5.7.48c-1.17.1-2.34.21-3.5.36-1.75.24-3.6.39-5.17.85-1.24.38-2.2,1.12-2.76,1.98-.13.19-.2.4-.3.58-.21.32-.33.52-.54.64-.22.12-.51.19-.89.26-.17.03-.34.09-.49.11-.26.04-.49-.05-.72-.34-.23-.28-.39-.77-.28-1.33.27-1.72,1.52-3.08,2.94-3.94,1.41-.84,2.91-1.19,4.24-1.43,1.93-.34,3.86-.58,5.79-.81v.08Z"/><path class="cls-1" d="M316.43,337.05c2.1-.61,4.19-.92,6.27-1.15.76-.09,1.51-.22,2.27-.27,2.67-.16,5.33-.15,7.98-.11,1.17.02,2.35,0,3.51-.02.75,0,1.5-.07,2.24,0,.37.03.75.06,1.12.11.37.03.74.22,1.1.31.42.15.41.27,0,.58-.27.2-.56.42-.83.61-.34.21-.74.33-1.16.39-.76.12-1.51.11-2.26.11h-2.25c-1.5,0-3.01-.03-4.52-.07-1.81-.05-3.68.22-5.5.44-2,.24-4,.54-5.93,1.05-1.19.3-2.35.68-3.43,1.2-.82.38-1.59.85-2.25,1.41-.68.54-1.21,1.22-1.49,1.99-.47,1.18-.27,2.62-.04,3.9.04.29.11.56.16.84.1.52.16.85.16,1.09-.02.14-.03.24-.07.35-.04.12-.1.23-.14.34-.05.1-.06.22-.09.31-.06.14-.2.17-.53.07-.32-.09-.7-.4-.96-.85-.42-.66-.73-1.36-.96-2.1-.17-.74-.26-1.51-.26-2.3.01-.79.09-1.65.42-2.52l.25-.64c.1-.2.22-.39.33-.59.22-.41.5-.74.78-1.08.85-.98,1.88-1.68,2.91-2.21,1.04-.52,2.09-.95,3.14-1.26l.02.06Z"/><path class="cls-1" d="M336.8,351.9l10.77-.22c1.31-.03,2.62-.13,3.93-.15,4.62-.07,9.24-.12,13.86-.14,2.05,0,4.11-.13,6.14-.15,1.31,0,2.62-.02,3.93,0,1.31.06,2.63.24,3.94.54.81.1.7.11.01.21-.35.05-.83.2-1.42.45-.59.21-1.27.41-2.02.57-2.65.32-5.3.66-7.97.66-2.67.06-5.34.11-8.03.06-3.22-.07-6.56.18-9.84.28l-10.85.29c-2.23.06-4.45.13-6.68.19-3.36.12-6.77.19-10.09.37-1.26.08-2.49.31-3.62.69-1.13.38-2.17.93-2.91,1.7-.33.33-.58.7-.8,1.09-.74,1.49-.77,2.11-1.54,2.5-.15.09-.3.23-.44.29-.23.1-.42-.06-.63-.49-.24-.43-.29-1.14-.12-2.06.29-1.36,1.12-2.69,2.23-3.62,1.11-.94,2.41-1.53,3.7-1.91,1.29-.38,2.6-.58,3.89-.66,1.22-.06,2.44-.12,3.67-.18,3.61-.13,7.24-.25,10.86-.38v.06Z"/><path class="cls-1" d="M313.98,352.82c.29-.11.59-.19.88-.25.1-.03.19-.09.3-.11.37-.06.76-.12,1.12-.18.16-.03.3-.08.45-.14.18-.07.36-.17.58-.12.13.02.22.8.07.94-.3.23-.59.43-.95.49-.22.04-.37.24-.55.36-.2.13-.4.27-.61.38-.13.08-.26.15-.38.24-.18.13-.38.26-.51.45-.1.15-.1.38-.14.56,0,.04-.02.08-.04.11-.1.09-.25.02-.66-.27l-.28-.2c-.31-.23-.52-.48-.57-.69-.18-.64.16-.91.48-1.16.25-.18.53-.31.8-.45l.03.04Z"/><path class="cls-1" d="M312.74,359.13c.19-.89.42-1.79.77-2.69.13-.33.22-.67.42-.99.63-1.14,1.79-2.06,2.97-2.35.51-.15,1.01-.29,1.49-.42.63-.14,1.24-.25,1.88-.29.2-.01.21.11.1.31-.11.2-.34.52-.67.71l-.87.47c-.29.14-.57.25-.84.37-.56.23-1,.5-1.48.7-.57.29-.91.89-1.18,1.52-.31.7-.53,1.51-.69,2.33-.1.51-.18,1.03-.25,1.55-.1.8-.2,1.6-.22,2.41-.03.63.11,1.25.09,1.88,0,.14.01.28,0,.42-.05.52-.19.67-.62.75-.1.02-.19.04-.29.05-.32.02-.57-.21-.67-.59-.35-1.11-.34-2.27-.28-3.46.05-.88.13-1.78.29-2.68h.05Z"/><path class="cls-1" d="M314.49,391.63c-.77-1.23-1.21-2.61-1.46-3.94-.1-.49-.21-.96-.26-1.45-.16-1.71-.01-3.36-.06-5.01,0-.73,0-1.46,0-2.19-.02-.93,0-1.87.04-2.8.01-.29.01-.25.08-.01.06.24.24.68.39,1.2.25.93.5,1.86.71,2.8.21.94.21,1.89.26,2.85.02,1.14.26,2.29.42,3.4.19,1.21.49,2.39,1.03,3.45.33.65.75,1.27,1.25,1.82.75.84,1.65,1.59,2.65,2.15.78.44,1.63.7,2.48.95l.56.15c.7.2.84.49.85.97,0,.11.01.23,0,.34-.03.35-.43.56-1.03.55-1.72-.24-3.44-.99-4.98-2.1-1.14-.82-2.17-1.88-2.95-3.1l.04-.03Z"/><path class="cls-1" d="M352.4,399.68c-3.15.03-6.3.03-9.45-.05-1.15-.01-2.3.02-3.45-.04-4.05-.17-8.1-.54-12.12-1.02-1.79-.19-3.58-.38-5.36-.57-1.14-.13-2.28-.28-3.41-.45-.56-.12-1.14-.18-1.68-.38-.55-.21-1.09-.42-1.62-.69-.65-.4-.57-.31.08-.53.32-.11.79-.31,1.34-.48.27-.08.58-.21.88-.25.3-.02.62-.01.94.03,2.3.18,4.57.49,6.86.75,2.29.26,4.58.52,6.9.78,2.77.33,5.68.27,8.52.34,3.13.06,6.28.08,9.42.02,1.93-.03,3.87-.08,5.8-.16,2.93-.12,5.88-.25,8.78-.51,2.26-.21,4.46-.58,6.68-.89.49-.06.97-.15,1.46-.2.92-.09,1.53-.12,1.96,0,.44.14.71.38.93.69.1.14.23.26.29.37.11.19-.02.39-.33.67-.31.29-.82.57-1.48.69-3.95.88-8.17,1.24-12.42,1.53-3.16.21-6.34.32-9.52.41v-.06Z"/><path class="cls-1" d="M284.83,411.04c-1.05-.94-1.77-2.12-2.21-3.33-.2-.43-.35-.87-.47-1.33-.36-1.62-.18-3.28.28-4.8.13-.34.25-.67.36-1.01.17-.32.34-.64.53-.94.3-.36.53-.77.93-1.04.19-.14.39-.27.62-.34.23-.07.46-.13.68-.18.28-.05.28.09.19.39-.08.32-.23.76-.32,1.19-.38.53-.51,1.19-.71,1.8-.09.32-.22.62-.28.97-.1.33-.15.68-.22,1.05-.12.87.08,1.8.35,2.64.28.94.69,1.87,1.34,2.6.19.23.43.41.64.63.22.2.49.33.74.5.19.14.42.18.62.28.21.09.42.18.68.24.49.13.99.24,1.5.3.78.1,1.57.01,2.34-.05.17-.01.34-.05.51-.05.64.01.84.18.98.79.03.14.07.28.09.41.06.46-.21.86-.71,1.02-1.5.45-3.16.34-4.75.02-.3-.06-.58-.12-.9-.21-.34-.11-.68-.24-1.02-.37-.34-.12-.64-.34-.95-.51-.32-.17-.6-.39-.87-.63l.04-.05Z"/><path class="cls-1" d="M313.13,410.73l12.26-.2c1.49-.02,2.98-.11,4.47-.12,5.25-.05,10.51-.04,15.76-.01,2.33.01,4.67-.07,6.99-.08,2.97-.04,5.96.08,8.93.39.93.18.8.07.02.25-.78.14-2.22.55-3.93.79-1.51.23-3.02.34-4.54.45-1.51.15-3.03.13-4.55.17-3.03.06-6.08.09-9.13.05-3.66-.08-7.46.13-11.2.21l-12.33.27c-2.53.08-5.06.15-7.59.23-3.83.15-7.68.27-11.45.61-.74.06-1.46.14-2.18.24l-1.08.14-1.02.2c-1.33.29-2.55.87-3.22,1.76-.3.39-.48.84-.62,1.35-.24.96-.27,1.71-.4,2.23-.12.53-.33.85-.65,1.11-.14.12-.28.28-.43.35-.44.22-1-.68-1-2.62.01-.72.1-1.5.37-2.29.26-.79.73-1.57,1.35-2.19,1.27-1.26,2.89-1.79,4.35-2.06.37-.06.75-.14,1.11-.19l1.04-.12c.7-.08,1.4-.16,2.09-.21,1.39-.12,2.78-.22,4.16-.29,4.12-.24,8.26-.36,12.38-.49v.06Z"/><path class="cls-1" d="M287.93,412.13c.19,0,.39-.02.58-.03.07,0,.12-.05.19-.05.25,0,.49.02.73.05.1,0,.2-.01.29-.04.12-.04.23-.11.37-.01.09.05.21.96.12,1.08-.18.15-.35.29-.61.21-.16-.05-.25.07-.38.11-.14.04-.29.08-.43.11-.09.02-.18.05-.27.08-.13.05-.27.09-.37.19-.08.08-.09.25-.11.39,0,.03,0,.07-.01.1-.04.08-.14,0-.46-.41l-.22-.28c-.25-.32-.41-.61-.41-.74,0-.4.21-.55.44-.65.17-.08.37-.11.55-.15l.02.04Z"/><path class="cls-1" d="M288.59,457.15c-.45-1.16-.67-2.29-.87-3.4-.06-.41-.15-.81-.19-1.21-.12-1.42-.26-2.85-.29-4.3-.02-.64-.03-1.27-.05-1.9,0-.8-.08-1.62.19-2.41.07-.25.1-.21.21,0,.08.15.17.31.23.44.11.18.19.39.21.62.17,1.61.42,3.18.54,4.78.09.95.38,1.96.59,2.91.25,1.05.43,2.12.78,3.1.21.6.46,1.2.81,1.63.55.65,1.42,1.21,2.31,1.53.71.26,1.48.28,2.23.39.17.02.33.03.5.06.62.11.8.27.85.77.01.11.03.23.03.34,0,.37-.32.64-.81.67-1.47.15-3.08-.18-4.61-1.03-.56-.32-1.1-.71-1.57-1.19-.58-.59-.87-1.19-1.13-1.77l.04-.02Z"/><path class="cls-1" d="M278.33,167.81c.25-.88.43-1.78.48-2.7.02-.33-.03-.66-.04-.99-.04-1.16-.16-2.35-.64-3.46-.21-.49-.5-.94-.83-1.36-.46-.51-.86-1.07-1.28-1.66-.13-.19-.05-.25.2-.25.24,0,.7.03,1.1.25.37.18.66.45.93.74.27.29.53.6.76.92.46.66.83,1.4,1.03,2.19.26.93.51,1.89.58,2.86.06,1.06-.02,2.12-.2,3.14-.11.63-.26,1.25-.42,1.86-.26.92-.61,1.81-.91,2.69-.11.34-.2.69-.29,1.04-.11.34-.22.68-.34,1.01-.06.15-.1.29-.16.44-.25.53-.44.65-.84.62-.09,0-.19,0-.27-.02-.29-.06-.43-.37-.4-.82.05-.66.11-1.33.2-1.98.16-.62.35-1.24.54-1.85.27-.91.53-1.8.76-2.69h.05Z"/><path class="cls-1" d="M376.91,156.18c-.08-.79-.31-1.53-.58-2.24-.11-.26-.29-.45-.43-.68-.47-.82-1.24-1.44-2.26-1.63-.45-.08-.93-.03-1.39.07-.61.09-1.16.41-1.87.4-.22,0-.32-.24-.29-.6.03-.36.15-.95.55-1.15.67-.39,1.45-.7,2.3-.75.85-.06,1.76.1,2.54.52.92.49,1.86,1.05,2.49,1.86.7.87,1.12,1.88,1.36,2.89.16.62.24,1.24.32,1.86.1.94.05,1.88,0,2.82-.04.73.03,1.48-.14,2.3-.03.18-.08.36-.16.54-.32.65-.7.75-1.31.38-.14-.08-.28-.16-.41-.26-.42-.36-.64-.77-.69-1.07-.14-.91.03-1.83.04-2.89.01-.77,0-1.58-.15-2.35l.06-.02Z"/><path class="cls-1" d="M362.12,139.09c-.14-1.59-.29-3.19-.48-4.78-.07-.58-.22-1.15-.28-1.73l-.34-3.08c-.09-1.03-.2-2.06-.33-3.09-.12-.91-.3-1.81-.42-2.71-.09-.58-.19-1.15-.27-1.73-.04-.29-.07-.58-.1-.88-.04-.29-.05-.59.02-.9.07-.39.08-.34.33-.08.31.25.78.73,1.03,1.36.44,1.13.92,2.24,1.24,3.4.28,1.16.5,2.34.65,3.54.17,1.43.57,2.88.84,4.33.29,1.6.53,3.2.78,4.8.16.99.27,1.98.4,2.97.21,1.5.36,3.01.63,4.49.2,1.15.57,2.25.85,3.38.06.25.16.49.17.75.09.95-.11,1.28-.75,1.56-.15.06-.29.14-.43.19-.46.15-.99-.18-1.31-.83-.52-.96-.74-1.98-1-3.02-.24-1.04-.42-2.1-.6-3.16-.24-1.59-.48-3.18-.72-4.77h.07Z"/><path class="cls-1" d="M367.25,134.16c-.23-2.15-.47-4.31-.75-6.46-.1-.79-.28-1.56-.37-2.34-.36-2.77-.55-5.56-.89-8.34-.17-1.23-.34-2.46-.51-3.68-.21-1.57-.51-3.12-.44-4.74,0-.5.18-.46.5-.09.16.18.37.45.59.77.23.32.44.71.57,1.15.44,1.56.93,3.11,1.26,4.69.28,1.59.52,3.19.68,4.81.21,1.94.65,3.92.93,5.89.31,2.17.59,4.34.86,6.52l.5,4.02c.26,2.03.47,4.07.77,6.07.23,1.56.6,3.07.88,4.61.06.34.15.67.2,1.01.2,1.27-.07,1.71-.66,2.05-.14.08-.28.17-.42.22-.47.17-.96-.31-1.29-1.21-.76-2.7-1.21-5.56-1.63-8.46-.28-2.16-.55-4.32-.83-6.49h.07Z"/><path class="cls-1" d="M298.55,118.04c-2-1.94-4.82-3.5-7.01-6.19-.55-.67-.99-1.43-1.43-2.21-.43-.82-.76-1.76-.83-2.8-.08-1.03.15-2.15.71-3.1.56-.95,1.41-1.69,2.31-2.16.66-.34,1.35-.58,2.04-.7.67-.12,1.34-.18,2-.17,1.33.02,2.62.28,3.8.73,2.09.8,3.91,2.01,5.46,3.47,1.51,1.43,2.88,3.05,3.98,4.85,1.1,1.8,1.88,3.78,2.37,5.79.5,2.01.73,4.03.9,6.02.14,1.75.28,3.49.41,5.24.07.87.17,1.72.26,2.58.11.89.17,1.78.26,2.62.1,1.09.25,2.15.49,3.13.25.98.62,1.85,1.17,2.37,1.25,1.28,3.12,2.13,4.99,1.91.59-.07.9-.11.97.05.06.14-.09.5-.59,1-.5.49-1.43,1.01-2.72,1.2-1.27.14-2.83-.19-4.2-1.16-.31-.21-.59-.46-.85-.73-.27-.29-.58-.66-.78-1-.44-.69-.72-1.39-.92-2.05-.4-1.33-.54-2.57-.65-3.76-.11-1.2-.15-2.3-.25-3.38-.11-1.16-.19-2.31-.26-3.46-.26-4.57-.4-8.97-2-12.86-.97-2.31-2.58-4.4-4.57-6.16-1.92-1.7-4.31-2.95-6.66-3.2-1.29-.14-2.62.05-3.52.59-.46.27-.8.65-1.03,1.1-.24.44-.37.98-.32,1.56.04.59.21,1.19.52,1.81.33.6.72,1.17,1.18,1.71.93,1.07,2.08,2.02,3.29,2.96,1.47,1.16,3.06,2.38,4.35,3.93,1.29,1.53,2.3,3.27,3.02,5.12,1.11,2.8,1.47,5.78,1.7,8.66.23,2.89.31,5.75.77,8.5.36,2.13.96,4.19,1.95,6.01.98,1.83,2.3,3.46,3.85,4.82.69.6,1.4,1.12,2.17,1.61,1.42.92,2.42,1.38,3.1,1.8.69.39,1.05.74,1.32,1.17.12.2.3.41.36.59.1.31-.23.47-.94.46-.71,0-1.8-.22-3.1-.79-3.85-1.66-7.24-4.79-9.22-8.81-2.01-4.07-2.3-8.56-2.57-12.66-.2-3.06-.39-6.06-1.14-8.8-.75-2.74-2.16-5.25-4.2-7.15l.04-.05Z"/><path class="cls-1" d="M354.37,145.3c-.26-.93-.64-1.85-1.08-2.73-.16-.33-.41-.59-.56-.92-.58-1.14-1.28-2.26-2.21-3.16-.39-.44-.9-.7-1.34-1.06l-.95-.53c-.32-.17-.66-.3-1-.48-.21-.12-.16-.25.08-.38.23-.12.68-.28,1.19-.23.41.1.83.21,1.26.33.4.15.8.33,1.17.55.71.48,1.37,1.02,1.9,1.68.65.77,1.41,1.47,2.02,2.3.64.92,1.13,1.93,1.59,2.95.25.64.51,1.27.71,1.93.15.5.31.99.41,1.51l.17.76.13.78c.09.4.18.8.26,1.22l.12.63.02.66c0,.2.03.39.02.59-.16.75-.43.94-1.17.81-.17-.03-.33-.05-.49-.1-.52-.16-.93-.57-1-.93-.03-.26-.13-.55-.18-.82-.03-.26-.12-.54-.16-.82-.03-.28-.06-.56-.12-.86-.05-.29-.06-.59-.14-.89-.09-.45-.16-.91-.29-1.37-.1-.46-.24-.93-.41-1.38l.06-.03Z"/><path class="cls-1" d="M348,180.22c.1-1.27.25-2.55.33-3.82.03-.47-.02-.93.02-1.39.12-1.64.27-3.29.37-4.93.04-.73,0-1.46-.03-2.18-.03-.46-.08-.93-.07-1.39,0-.23,0-.47.03-.7.01-.23.05-.47.16-.71.13-.3.32-.27.68-.05.41.22.9.64,1.03,1.17.25.94.32,1.9.4,2.85.07.96.08,1.92,0,2.88-.12,1.16.05,2.35.06,3.53,0,1.3-.03,2.59-.07,3.89l-.11,2.39c-.04,1.21-.14,2.42-.1,3.61.02.93.22,1.85.34,2.77.03.2.08.4.09.61.06.76-.26.99-1.01,1.13-.18.03-.35.08-.52.09-.57.06-1.07-.27-1.3-.82-.49-1.64-.52-3.36-.5-5.08.02-1.28.1-2.56.13-3.85h.07Z"/><path class="cls-1" d="M348.57,207.77c.04-1.52.11-3.03.19-4.55.03-.55-.03-1.11,0-1.66.11-1.95.24-3.91.29-5.87.04-.87.02-1.74-.01-2.6-.08-1.1-.1-2.21.15-3.33.09-.35.38-.32.77-.05.39.27.91.78,1.08,1.41.49,2.24.63,4.5.37,6.8-.14,1.37.04,2.78.05,4.18,0,1.53,0,3.07-.07,4.61l-.1,2.84c-.03,1.43-.13,2.87-.11,4.29.02,1.1.17,2.19.24,3.29.01.24.05.48.05.72.02.91-.29,1.19-.83,1.36-.13.04-.26.09-.38.11-.41.07-.79-.31-1.02-.96-.43-1.93-.6-3.97-.69-6.01-.09-1.52-.05-3.05-.06-4.58h.07Z"/><path class="cls-1" d="M370.88,193.68c-1.18-.03-2.37-.04-3.56-.02-.44,0-.87.1-1.3.1-1.56-.04-3.12-.07-4.67-.11-.69,0-1.38.03-2.07.06-.44,0-.88.06-1.32.04-.44-.05-.89-.07-1.33-.27-.28-.12-.24-.32-.01-.65.23-.36.63-.84,1.12-.98.86-.23,1.73-.33,2.59-.46.87-.06,1.75-.08,2.65-.04,1.07.07,2.16-.24,3.26-.3,1.21-.08,2.42-.13,3.64-.17l2.26-.05c1.14-.03,2.29.02,3.43-.03.89-.03,1.76-.22,2.66-.29.2-.02.39-.07.59-.06.37.01.61.1.75.31.15.19.21.45.24.83.01.17.04.34.03.5,0,.54-.36,1.01-.88,1.26-1.5.42-3,.37-4.56.39-1.16,0-2.33-.03-3.52,0v-.07Z"/><path class="cls-1" d="M326.74,191.84c1.25.07,2.51.14,3.77.18.46.01.91-.05,1.37-.03,1.62.06,3.24.25,4.86.31.72.03,1.44,0,2.15-.02.91-.06,1.83-.06,2.75.13.29.06.25.34.02.65-.24.31-.66.7-1.18.81-1.83.35-3.67.5-5.54.45-1.12-.04-2.28.19-3.42.23-1.26.06-2.52.09-3.79.11l-2.33.05c-1.18.02-2.37-.01-3.53.08-.91.05-1.79.36-2.7.42-.2.02-.39.06-.59.06-.75,0-.99-.21-1.15-.9-.04-.16-.09-.31-.11-.47-.07-.53.22-.98.75-1.2,1.57-.74,3.22-.83,4.9-.91,1.25-.05,2.51-.07,3.77-.03v.07Z"/><path class="cls-1" d="M371.56,237.78c-11.04.37-22.22,1.02-33.38,1.08-4.06.04-8.13.08-12.19.12-3.57,0-7.14,0-10.68.1-1.76.06-3.53.13-5.21.32-.42.05-.82.11-1.21.18-.46.11-.48.1-.65.17-.16.06-.21.22-.26.37l-.04.14-.07.28-.12.6c-.53,3.35-.66,6.97-.8,10.5-.11,3.55-.17,7.12-.15,10.69.05,6.32.25,12.71.76,18.92l.08.77.06.52.06.35c.03.1.03.27.18.26.19.03.39.04.59.05l1.15.07,2.62.11,5.27.17c1.76.02,3.51.24,5.27.36.22.02.44.05.66.05.22.07.44.07.66.11l1.32.19c.88.13,1.75.19,2.63.38,1.25.29,1.8.43,1.76.47-.04.05-.66.06-1.73.32-1.07.27-2.6.54-4.44,1.01-.92.22-1.92.33-2.99.47-.53.06-1.08.13-1.64.19-.56,0-1.13.01-1.72,0l-5.26-.16-2.65-.12-.67-.04-.34-.02-.59-.06c-.42-.05-.86-.08-1.27-.16l-1.1-.42-.2-.16-.05-.04-.02-.02h-.01s.05-.07.03-.07l-.09-.1-.32-.39c-.22-.27-.33-.63-.41-1.02-.16-.72-.24-1.79-.26-2.04-.07-.85-.12-1.68-.17-2.5-.09-1.65-.15-3.29-.2-4.94-.1-3.28-.14-6.56-.14-9.84.04-6.57.04-13.13.58-19.79.11-1.26.23-2.53.41-3.85.05-.33.1-.66.16-1l.1-.52c.04-.19.07-.31.15-.62.25-1.05.94-1.95,1.98-2.27.25-.08.52-.19.75-.24.19-.04.37-.09.55-.12.35-.07.7-.12,1.03-.17.67-.09,1.33-.15,1.99-.2,1.31-.1,2.6-.16,3.89-.2,5.16-.16,10.3-.15,15.39-.16,5.6-.01,11.18-.06,16.77-.24,5.59-.17,11.18-.43,16.78-.69,3.45-.15,6.88-.34,10.4-.34.47,0,.84,0,1.41.05.64.04,1.31.13,1.77.59.46.41.78,1.07.97,1.59.18.47.3.92.41,1.37.42,1.79.61,3.53.76,5.28.43,5.28.44,10.53.39,15.77-.06,5.24-.22,10.46-.43,15.65-.06,1.51-.13,3.01-.19,4.5-.04.75-.07,1.49-.11,2.24l-.07,1.19c-.04.54-.07,1.1-.22,1.57-.34.79-1.32,1.02-2.22,1.15-.52.08-.74.09-1.1.13l-.96.07c-1.28.08-2.53.12-3.79.16-2.51.07-5,.07-7.5.09-1.76.02-3.47.03-5.24.05-6.55-.01-8.6-.17-10.02-.96-.32-.18-.75-.35-.94-.54-.66-.62,2.04-1.27,6.86-1.4,3.97-.13,7.99-.13,12.04-.21,2.02-.05,4.06-.1,6.08-.19,1.01-.05,2.02-.1,2.99-.19l.71-.07.15-.02s.01,0,.02,0h.02s.05-.02.04-.05v-.05s.07-1.2.07-1.2l.13-2.46c.07-1.65.14-3.3.21-4.95.12-3.31.22-6.64.28-9.97.09-5.56.13-11.15-.14-16.66-.15-2.73-.34-5.54-.88-7.99-.07-.3-.14-.59-.23-.85-.04-.13-.08-.26-.13-.36v-.04s-.03-.05-.1-.05c-1.23-.06-2.66-.02-4.03.02l-.02-.08Z"/><path class="cls-1" d="M328.37,434.53c0-3.32-.02-6.65-.12-9.97-.03-1.21-.17-2.42-.2-3.63l-.22-6.41-.03-.8-.02-.46c-.02-.2-.03-.4.03-.62l.16-.83.13-.77c.17-1.03.31-2.07.41-3.12.17-1.85.22-3.72.05-5.54-.07-1.17-.37-2.29-.48-3.44-.12-.55-.19-1.13-.34-1.67-.08-.27-.13-.55-.17-.85-.04-.29-.17-.54-.2-.85-.02-.82,0-.77.75-.45.38.16.9.45,1.4.88.26.22.49.49.72.79.2.3.39.63.55.99.15.32.26.64.37.97.11.32.23.65.3.98.11.66.24,1.33.3,1.99.15,1.32.21,2.64.19,3.94,0,1.31-.16,2.6-.36,3.88-.1.64-.22,1.28-.35,1.91l-.21.95-.12.48c-.03.11-.03.09-.04.11-.01.01-.02.04-.02.07,0,.05-.01.05-.01.13v.28s0,.57,0,.57l.03,1.14c.04.76.08,1.53.12,2.3.09,1.54.21,3.08.26,4.62.11,3.38.16,6.75.17,10.13l-.03,6.24c-.04,3.15-.14,6.31-.24,9.44-.02,1.22-.05,2.42-.07,3.63-.02,1.21-.04,2.41-.14,3.62-.04.53-.05,1.06-.1,1.6-.29,1.99-.54,2.61-1.35,2.89-.16.07-.32.17-.45.2-.37.12-.96-.8-.86-2.2.05-4.21-.03-8.65.08-13.13.06-3.32.06-6.68.02-10.02h.08Z"/><path class="cls-1" d="M337.34,317.39c.02-2.4.12-4.8.18-7.2.03-.88-.05-1.75-.02-2.63.07-1.55.14-3.09.27-4.66.17-1.61.38-3.06.46-4.58.05-1.33.03-2.64-.18-3.91-.12-.82-.26-1.64-.43-2.47l-.24-1.26c-.1-.42-.04-.89-.08-1.34,0-.57.09-.54.55-.22.32.22.66.45.99.67.38.3.69.7.95,1.17.42.85.84,1.73,1.13,2.67.24.94.41,1.91.5,2.87.13,1.92-.07,3.77-.33,5.57-.3,2.03-.19,4.31-.26,6.48l-.25,7.24-.14,4.46c-.04,2.25-.12,4.51-.06,6.74.05,1.74.27,3.43.41,5.14.03.38.09.74.11,1.12.06,1.41-.11,1.86-.83,2.18-.16.07-.32.17-.48.22-.53.15-1.04-.41-1.24-1.44-.61-3.06-.8-6.3-.95-9.55-.1-2.41-.11-4.84-.16-7.26h.08Z"/><path class="cls-1" d="M354.36,58.99c.21-1.02.63-1.61,1.05-1.84l.33-.19c.11-.04.28-.21.47-.14.32.06.53.14.79.23.37.16.81.4,1.24,1.01.37.52.72,1.11,1.03,1.69l.45.85.29.6c.33.67.6,1.37.92,2.03.28.59.62,1.15.97,1.69l.6,1.08c.17.38.28.8.46,1.17.1.24.04.27-.24.22-.26-.06-.83-.15-1.33-.41-.38-.28-.7-.59-1.03-.9-.31-.32-.55-.68-.8-1.03-.5-.71-.95-1.44-1.31-2.22-.1-.24-.22-.47-.35-.69-.09-.16-.08-.18-.14-.27-.09-.15-.19-.27-.28-.45-.11-.19-.22-.47-.44-.64-.2.05-.21.27-.29.46-.08.25-.16.56-.22.93l-.22,1.5c-.08.54-.15,1.08-.2,1.62-.08.84-.04,1.69-.13,2.56-.02.19-.02.39-.06.58-.16.72-.56.87-1.11.82-.13-.01-.25-.01-.35-.03-.31-.06-.68-.48-.77-.95-.13-1.39,0-2.85.11-4.37l.17-1.71.12-1.59c.05-.58.12-1.14.21-1.68l.06.06Z"/><path class="cls-1" d="M370.4,153.89c-.2-.67-.52-1.18-.9-1.54-.08-.05-.16-.1-.24-.15-.1-.01-.19-.03-.28-.08-.75-.3-1.94-.2-2.97.18-.46.17-.89.44-1.27.75-.48.41-.85.88-1.4,1.27-.17.13-.36,0-.51-.3-.14-.29-.29-.86-.06-1.27.88-1.37,2.21-2.42,3.83-2.79.48-.1.97-.21,1.49-.29.26-.05.53-.06.8-.08.29.01.59.05.89.1.64.16,1.24.47,1.72.87.46.42.83.89,1.11,1.39.35.6.57,1.24.76,1.86.26.95.34,1.92.42,2.88.06.75.21,1.52.07,2.44-.05.21-.08.42-.15.63-.42.84-1.06.96-1.59.33-.13-.14-.24-.27-.34-.43-.16-.26-.25-.54-.37-.77-.06-.12-.12-.2-.18-.26-.03-.03-.05-.05-.08-.06l-.05-.09c-.17-.21-.21-.61-.23-1.04,0-.42-.05-.92-.08-1.4-.07-.73-.19-1.48-.44-2.11l.06-.03Z"/><path class="cls-1" d="M344.68,85.19c-1.18.25-2.35.58-3.51.97-.42.14-.8.38-1.23.52-.75.25-1.47.57-2.21.86-.72.33-1.45.65-2.16,1.01-.63.32-1.23.69-1.79,1.11-.73.52-1.37,1.15-2.33,1.4-.31.07-.42-.12-.45-.54-.05-.44,0-1.11.34-1.55.7-.67,1.46-1.27,2.26-1.82.4-.27.81-.53,1.23-.77.43-.23.88-.41,1.33-.6,1.09-.42,2.09-1.09,3.18-1.57,1.19-.53,2.42-.97,3.65-1.37.77-.23,1.54-.46,2.32-.64,1.18-.3,2.39-.49,3.6-.69.94-.16,1.88-.41,2.91-.49.23,0,.46-.03.7,0,.43.03.73.19.89.38.16.2.19.46.14.85-.02.17-.04.35-.09.51-.16.55-.61.94-1.01,1.02-1.29.28-2.74.44-4.28.71-1.14.22-2.31.43-3.47.77l-.02-.06Z"/><path class="cls-1" d="M347.15,89.43c-.98.49-1.97,1.01-2.89,1.65-.34.22-.63.52-.96.76-1.18.84-2.34,1.76-3.44,2.76-.5.43-.94.92-1.38,1.41-.53.65-1.13,1.25-1.83,1.76-.22.15-.4-.04-.49-.41-.08-.36-.11-.93.12-1.37.41-.8.97-1.46,1.53-2.14.56-.68,1.21-1.29,1.93-1.82.85-.65,1.58-1.49,2.43-2.2.93-.77,1.93-1.47,2.96-2.1.63-.4,1.3-.74,1.96-1.08,1.01-.5,2.07-.91,3.1-1.34.8-.34,1.56-.77,2.36-1.12.18-.08.35-.16.53-.22.69-.21.95-.09,1.24.56.07.15.14.29.19.44.17.51,0,1.01-.44,1.27-1.28.76-2.63,1.26-3.97,1.84-1,.42-1.98.89-2.95,1.42l-.03-.05Z"/><path class="cls-1" d="M364.81,77.64c1.1-.07,2.2-.08,3.3-.06.4,0,.79-.07,1.19-.03,1.4.07,2.79.28,4.15.52.61.09,1.21.17,1.81.22.77.12,1.54.22,2.27.55.23.1.15.37-.1.64-.25.27-.67.59-1.1.61-.78.06-1.53.09-2.28.02-.75-.04-1.5-.11-2.26-.22-.91-.15-1.86-.01-2.78.03-1.02.06-2.05.1-3.07.23-.63.06-1.26.14-1.89.25-.94.17-1.91.33-2.81.65-.71.24-1.34.66-1.98,1.03-.14.08-.27.19-.42.26-.55.24-.8.12-1.19-.51-.09-.15-.19-.29-.26-.44-.26-.5-.2-1.03.17-1.37,1.11-.98,2.52-1.47,3.96-1.84,1.07-.28,2.18-.43,3.28-.58v.06Z"/><path class="cls-1" d="M364.22,82.49c1.12.02,2.24.08,3.36.2.41.05.82,0,1.22.08,1.43.21,2.83.59,4.18,1.02.59.23,1.21.38,1.79.6.75.26,1.54.47,2.15,1.07.19.17.09.32-.2.47-.15.08-.34.16-.56.24-.23.09-.45.13-.66.07-1.5-.38-2.98-.56-4.44-1.08-.44-.12-.91-.19-1.38-.24l-1.42-.06c-1.04-.04-2.08-.08-3.13-.03-.65.01-1.3.06-1.95.12-.98.11-1.98.18-2.95.39-.76.16-1.47.48-2.21.74-.16.06-.32.14-.49.17-.63.13-.86-.02-1.1-.67-.05-.15-.12-.29-.16-.45-.14-.51.04-.98.46-1.23,1.24-.73,2.66-1.01,4.13-1.24,1.09-.18,2.22-.21,3.35-.24v.06Z"/><path class="cls-1" d="M349.6,461.93c-9.24.23-18.47.39-27.71.46-3.37.03-6.74.12-10.11.1-5.95-.06-11.89-.18-17.89-.61-1.51-.13-3-.26-4.59-.6l-.31-.07c-.13-.03-.28-.08-.42-.12-.29-.07-.56-.18-.82-.32-.5-.27-.95-.67-1.08-1.24l-.13-.41-.07-.41c-.04-.28-.09-.56-.1-.72-.04-.39-.07-.77-.1-1.15-.21-3.02-.24-5.98-.3-8.95-.09-5.27-.18-10.56-.27-15.79-.07-6.71-.51-13.45.23-20.16.27-2.09.52-1.81,1.1-.05.65,1.77,1.55,5.02,1.66,8.88.09,6.84.18,13.68.27,20.53.05,3.42.11,6.84.16,10.26.05,1.7.08,3.42.16,5.08l.08,1.21c.01.16,0,.26.03.34.05.08.14.11.23.15-.01,0,.23.06.4.11.18.05.38.08.57.12,1.9.36,3.98.53,6.04.66,2.07.13,4.18.17,6.28.2,4.22.05,8.47,0,12.69-.03,9.27-.08,18.56-.28,27.84-.56,5.71-.17,11.43-.37,17.13-.62,2.16-.1,4.32-.21,6.48-.31l2.89-.16.45-.03.22-.02c.09,0,.06-.12.08-.18.03-.3.04-.6.05-.9l.08-3.16.04-3.23c.02-2.16.03-4.31.01-6.45-.03-6.67-.42-13.21-.86-19.78-.11-1.44-.23-2.86-.34-4.31-.4-5.39-.41-7.08.33-8.34.17-.29.32-.66.5-.84.6-.62,1.49,1.55,1.99,5.54.73,5.92,1.11,12.01,1.34,18.18.21,6.17.44,12.42.41,18.72l-.08,3.52-.02.71c0,.29-.03.58-.06.86l-.08.85-.3.67c-.1.22-.18.42-.29.62-.03.12-.18.14-.26.2l-.3.15-.64.32c-.12.05-.21.13-.35.15l-.43.04c-.57.07-1.15.09-1.72.13l-.88.05-1.75.09-3.5.16c-4.66.17-9.33.34-13.99.52v-.08Z"/><path class="cls-1" d="M391.21,367.62c.11,4.38.14,8.77,0,13.18-.07,2.21-.19,4.42-.43,6.66-.13,1.12-.27,2.25-.51,3.41-.12.58-.27,1.18-.47,1.79-.13.33-.22.63-.41.99-.09.16-.2.42-.35.6l-.46.57c-.26.24-.56.43-.88.6-.15.09-.33.15-.48.21-.13.05-.26.1-.37.13-.47.15-.91.26-1.34.35-.85.18-1.68.3-2.5.41-1.64.21-3.25.34-4.86.45-4.38.3-8.74.5-13.09.55-7.68.08-15.34-.04-23-.31-7.66-.3-15.31-.62-22.99-1.52-.88-.11-1.75-.24-2.64-.4-.45-.09-.89-.17-1.35-.3-.23-.06-.47-.13-.72-.22-.28-.12-.6-.26-.85-.47-.77-.72-.97-1.4-1.26-2.07-.23-.67-.4-1.32-.53-1.97-.26-1.3-.41-2.59-.53-3.87-.23-2.56-.29-5.1-.33-7.62-.08-4.36.09-8.7.3-13.04.12-2.17.21-4.33.41-6.49l.32-3.23c.12-1.08.41-2.14.54-3.22.41-2.67.36-2.33.74-.03.47,2.3,1.44,6.57,1.19,11.54-.1,4.91-.21,9.82-.31,14.74-.03,2.44-.02,4.88.13,7.26.08,1.19.19,2.37.39,3.47.1.55.22,1.07.37,1.54.13.41.4.88.35.78,0,0,0,.01.01.02.01,0-.02,0,.08.03.14.05.33.1.52.16.41.1.84.19,1.3.27.91.16,1.85.28,2.79.4,1.9.22,3.82.4,5.75.55,3.86.3,7.76.53,11.66.73,10.6.52,21.69.43,32.52.07,2.91-.1,5.82-.24,8.71-.47,1.44-.12,2.88-.26,4.29-.45.7-.1,1.4-.21,2.05-.36.32-.08.64-.16.92-.25.15-.06.21-.07.27-.11.06-.03.12-.07.18-.11.15-.12.42-.76.59-1.42.17-.67.31-1.37.41-2.1.22-1.45.34-2.95.44-4.45.19-3.01.23-6.05.22-9.09-.01-3.67-.11-7.34-.27-11.01-.08-1.84-.17-3.67-.28-5.51l-.34-5.01-.04-.54s0-.05,0-.07h-.07s-.14,0-.14,0h-.27s-.55-.03-.55-.03h-.93c-1.38-.03-2.77-.02-4.16,0-2.78.04-5.57.14-8.35.26-5.58.25-11.16.5-16.7.76-8.64.31-17.12.5-25.67.3-1.88-.04-3.73-.06-5.63-.16-7.03-.39-9.27-.87-10.68-1.99-.32-.24-.75-.5-.9-.72-.21-.36.27-.54,1.55-.72,1.28-.19,3.26-.18,5.82-.14,7.58.14,15.36.21,23.24.1,7.88-.1,15.83-.49,23.9-.83,5.99-.24,12-.52,18.13-.4l.81.02,1.11.04,2.21.08h.28s.14.02.14.02c.05,0,.09,0,.08.06l.05.55.1,1.09c.08.76.11,1.37.16,2.05l.16,2.62.12,2.26c.14,3.02.29,6.03.38,9.06l-.08.02Z"/><path class="cls-1" d="M384.58,333.35c1.25.07,2.49.15,3.83.34.33.05.67.1,1.04.18.28.05.96.23,1.45.47.51.25.92.64,1.27,1.12.28.33.47.62.66.94,1.53,2.52,2.17,5.22,2.18,8.03-.01,1.4-.2,2.84-.73,4.26l-.49,1.05c-.2.34-.43.67-.65,1.01-.26.32-.55.62-.83.91-.16.15-.3.25-.51.4-.23.15-.46.38-.7.47-.27.05-.51.16-.77.23-.13.04-.26.04-.39.06l-.28.03-.95.09-1.85.14-3.67.22c-3.56.2-7.11.45-10.67.59-12.54.49-25.08.73-37.63.57-5.57-.1-11.18-.17-16.74-.62-1.79-.17-3.58-.33-5.42-.73-.45-.08-.92-.2-1.4-.36-.24-.08-.47-.13-.71-.23l-.76-.37c-.25-.1-.51-.3-.75-.52-.27-.2-.43-.44-.62-.67-.35-.46-.62-.95-.82-1.44-.41-.97-.63-1.95-.73-2.93-.1-.97-.15-1.95.01-2.91.12-.96.36-1.9.67-2.81.35-.9.9-1.72,1.49-2.47.35-.48.69-.75.9-.92.21-.17.33-.22.37-.17.1.11-.2.61-.39,1.55-.38,1.9-.02,5.26.58,8.43.17.67.44,1.3.7,1.61.03.04.06.08.08.12.03.02.05.03.07.04.03.02.01.04.07.06l.17.07c.12.05.2.11.34.17l.52.16c1.44.42,3.18.71,4.92.89,3.48.4,7.07.59,10.65.73,7.18.26,14.42.31,21.69.34,8.7.03,17.76-.48,26.65-.97l7.32-.43,3.65-.26,1.79-.16c.34-.05.37-.03.5-.07.11-.07.12-.09.35-.25,1.34-1.19,1.8-3.51,1.64-5.68-.14-2.18-.88-4.49-2.1-6.09-.2-.32-.42-.33-1.2-.49-.68-.12-1.41-.19-2.14-.25-1.47-.12-2.96-.18-4.46-.22-3-.08-6.01-.08-9.02-.06-9.13.08-18.31.26-27.39.52-7.06.2-13.97.57-20.97.72-1.54.03-3.05.09-4.6.09-2.88,0-4.79-.11-6.12-.32-.67-.11-1.19-.24-1.62-.41-.43-.21-.76-.44-1.06-.68-.27-.22-.63-.42-.79-.6-.52-.5,1.85-1.33,6.02-1.34,12.45-.35,25.55-.73,38.71-1.1,4.9-.12,9.82-.22,14.75-.28,4.94-.05,9.86-.09,14.88.12v.09Z"/><path class="cls-1" d="M359.73,337.17c-7.44.31-14.89.51-22.34.61-2.72.03-5.44.14-8.16.13-4.8-.04-9.59-.14-14.41-.48-2.41-.17-4.82-.36-7.27-.8-.61-.11-1.23-.25-1.86-.42-.64-.21-1.26-.37-2.02-.89-.79-.59-1.13-1.35-1.39-1.97-.26-.65-.42-1.27-.56-1.89-.47-2.2-.66-4.35-.82-6.5-.15-2.15-.23-4.28-.28-6.4-.07-2.72,0-5.44.12-8.16.05-2.72.5-5.42,1.06-8.1.37-1.67.46-1.43.81.02.18.72.45,1.75.8,2.99.17.62.26,1.28.38,1.99.06.35.09.72.16,1.09,0,.37.02.75.03,1.14,0,2.74.08,5.48.13,8.2-.02,2.72-.01,5.44.14,8.11.08,1.33.18,2.66.37,3.93.1.62.21,1.25.36,1.8.14.53.36,1.09.47,1.21.05.04-.02.04.19.15.17.09.42.2.69.29.54.18,1.16.34,1.8.47,1.28.27,2.62.46,3.97.63,6.51.75,13.45.53,20.22.48,7.46-.09,14.93-.3,22.4-.61,4.6-.19,9.19-.41,13.78-.7,3.47-.23,6.97-.44,10.4-.78l.94-.11c.11-.03.26-.01.34-.11.09-.08.13-.21.18-.32.04-.11.08-.23.11-.35.02-.07.03-.11.04-.19l.06-.3c.07-.4.14-.81.18-1.23.2-1.67.29-3.4.34-5.11.16-5.34-.2-10.6-.46-15.89-.07-1.16-.14-2.3-.21-3.48-.21-4.35-.1-5.74.68-6.73.18-.23.34-.52.53-.66.61-.47,1.3,1.28,1.69,4.49.56,4.76.97,9.66,1.06,14.66.06,2.5.06,5.02-.02,7.57-.04,1.28-.1,2.56-.2,3.86-.05.65-.12,1.31-.2,1.99-.05.34-.09.68-.16,1.04l-.11.57-.25.9c-.27.88-.78,1.64-1.5,2.09-.19.09-.39.17-.59.26-.2.08-.45.09-.67.15-.44.08-1.01.14-1.15.15-.97.11-1.91.19-2.85.27-1.89.16-3.76.29-5.64.41-3.76.25-7.51.45-11.27.64v-.08Z"/><path class="cls-1" d="M364.57,302.87c-8.92.34-17.84.55-26.76.67-3.26.04-6.51.16-9.76.15-5.74-.02-11.48-.1-17.24-.38-2.88-.15-5.75-.33-8.68-.72-.73-.1-1.47-.23-2.25-.43-.4-.11-.77-.2-1.27-.46-.46-.26-.9-.64-1.16-.99-.59-.73-.93-1.48-1.21-2.23-.28-.75-.47-1.51-.6-2.27-.24-1.35-.32-2.72-.21-4.11.12-1.38.41-2.8,1.2-4.15.38-.66.96-1.32,1.65-1.76.68-.43,1.36-.71,2.03-.92,1.34-.43,2.65-.62,3.95-.76,6.65-.62,13.16-.29,19.56.6,2,.58,1.76.28.05.93-.85.34-2.08.64-3.57,1.01-1.48.31-3.21.5-5.07.58l-2.46.09-2.44.02c-1.62.03-3.23.08-4.79.22-1.55.14-3.1.35-4.35.71-.62.18-1.13.44-1.31.6-.27.26-.54.69-.77,1.23-.41,1.13-.56,2.59-.48,4.01.06.71.14,1.43.32,2.11.15.68.39,1.34.66,1.81.06.13.13.24.19.31.06.09.12.18.15.19.03.04.06.08.11.1.07.04.21.09.35.14.61.2,1.39.36,2.16.49,1.56.27,3.2.44,4.84.58,7.87.66,16.18.47,24.31.43,8.95-.07,17.92-.26,26.87-.57,5.51-.2,11.03-.42,16.51-.79l3.69-.28,1.82-.18.82-.11c.16-.04.35-.03.47-.14.15-.15.23-.29.34-.53.15-.28.25-.6.38-.91.21-.65.4-1.32.51-2,.25-1.37.34-2.77.2-4.12-.14-1.34-.53-2.64-1.27-3.65-.25-.26-.31-.39-.48-.52-.09-.05-.19-.08-.3-.1l-.15-.03-.25-.04c-.67-.09-1.39-.15-2.1-.19-6.37-.29-12.71,0-19.06.2-1.4.06-2.77.12-4.18.17-2.62.09-4.34.08-5.56-.08-1.22-.13-1.92-.4-2.5-.78-.26-.17-.61-.32-.76-.46-.52-.44,1.59-1.24,5.44-1.61,5.71-.45,11.58-.71,17.55-.78,2.99-.04,5.99,0,9.08.18.78.05,1.56.11,2.41.22l.33.05c.06.01.1.01.17.03l.27.06c.18.04.37.08.54.14l.5.22.23.15s.06.08.14.04l.11.08c.15.1.28.24.41.39l.37.42.25.29c1.25,1.65,1.73,3.55,1.91,5.3.17,1.71.05,3.37-.26,4.99-.15.81-.37,1.61-.64,2.42-.16.41-.3.81-.52,1.25-.1.26-.33.59-.54.87-.2.3-.43.57-.68.82-.32.16-.62.38-.97.47l-.54.13-.5.08c-.42.06-.81.11-1.21.16-.78.09-1.55.16-2.32.22-1.53.13-3.05.23-4.57.33-3.04.19-6.08.34-9.11.48v-.08Z"/><path class="cls-1" d="M327.18,277.52c-.31.08-.34.16-.52.34-.05.04-.08.13-.13.18l-.11.26c0,.13-.11.25-.07.39-.09.51.58,1.49,1.48,2.27.66.59,1.46,1.08,2.25,1.62,1.4.96,2.91,1.81,4.47,2.79l4.47,2.95c1.32.9,2.69,1.83,3.91,2.89,1.58,1.36,2.96,2.92,3.92,4.74.31.56-.02.71-.69.57-.34-.07-.76-.2-1.22-.39-.45-.2-.99-.42-1.38-.81-.72-.68-1.47-1.29-2.2-1.9-.71-.63-1.44-1.22-2.22-1.78-1.55-1.12-3.29-2.18-4.99-3.39-1.91-1.39-4.38-2.32-6.58-3.83-1.2-.84-2.41-1.77-3.36-3.21-.45-.74-.82-1.65-.79-2.67.1-1.02.39-1.85,1.02-2.62.82-.97,2.17-1.32,3.17-1.21,1.04.08,1.94.35,2.79.7,1.29.53,2.44,1.23,3.54,2,.55.39,1.08.79,1.6,1.24.52.42,1.05,1,1.43,1.58,1.22,1.82,1.92,3.8,2.34,5.83.08.45.19.89.23,1.35.08.85.07,1.42-.07,1.81-.15.39-.4.61-.72.78-.14.08-.27.18-.4.21-.21.07-.39-.07-.61-.36-.23-.29-.42-.73-.51-1.28-.3-1.65-.7-3.31-1.3-4.82-.3-.75-.65-1.46-1.07-2.05-.22-.31-.41-.54-.64-.76-.27-.24-.6-.51-.93-.76-1-.74-2.1-1.43-3.2-1.95-.55-.26-1.11-.47-1.62-.6-.51-.15-1.02-.12-1.29-.04v-.07Z"/><path class="cls-1" d="M349.94,277.3c.16.14.31.35.47.52.15.2.3.44.44.67.24.48.4,1.01.4,1.54,0,.53-.11,1.07-.33,1.55-.22.49-.47.82-.71,1.12-.99,1.15-2.03,1.81-3.06,2.47-.75.47-1.47.96-2.23,1.36-2.7,1.39-5.35,2.55-7.82,4.07-1.1.65-2.12,1.42-3.01,2.28-.57.55-1.08,1.16-1.55,1.79-.51.6-1.03,1.21-1.51,1.87-.31.4-.56.24-.7-.33-.14-.56-.2-1.58.25-2.57.96-1.63,2.31-2.98,3.73-4.11,1.42-1.14,2.99-1.97,4.57-2.73,1.91-.9,3.73-2.01,5.48-3.06.96-.57,1.9-1.17,2.71-1.83.4-.33.76-.68,1.02-1.02.25-.34.32-.5.32-.79-.02-.16-.08-.31-.19-.45-.13-.15-.33-.35-.52-.47-.39-.25-.85-.36-1.39-.3-.82.1-1.73.52-2.57,1.06-.84.55-1.63,1.23-2.34,1.97-1.1,1.16-1.96,2.53-2.73,3.89-.17.3-.31.61-.47.91-.63,1.09-.97,1.27-1.67,1.33-.16.01-.33.05-.48.05-.51.05-.78-.76-.51-1.87.46-1.59,1.29-2.97,2.23-4.32.96-1.33,2.08-2.59,3.44-3.7,1.02-.81,2.15-1.61,3.69-2.05.76-.21,1.65-.33,2.6-.17.94.15,1.87.63,2.51,1.25l-.05.06Z"/><path class="cls-1" d="M373.84,220.88c1,.07,2,.15,3.03.29.52.07,1.04.14,1.61.27.29.05.54.13,1.02.29.42.16.78.46,1.16.69l.51.58c.14.16.22.31.32.47.2.31.38.63.51.93.15.31.28.62.37.92.11.31.21.61.28.91.32,1.22.48,2.42.49,3.66,0,1.23-.11,2.49-.54,3.79-.45,1.26-1.15,2.75-3.05,3.61-.3.07-.62.14-.92.18l-.62.05-1.08.06-2.13.09-4.24.16c-3.31.11-6.62.31-9.93.39-11.67.28-23.34.44-35.01.53-5.18.03-10.39.15-15.55.13-.96-.01-1.92-.02-2.89-.05-.48,0-.99-.05-1.48-.08l-.83-.1c-.34-.06-.71-.2-1.04-.34l-.55-.44c-.14-.13-.32-.23-.43-.39-.23-.29-.49-.58-.69-.89-.17-.32-.34-.64-.5-.97l-.33-.99c-.36-1.33-.36-2.65-.22-3.93.33-2.52,1.2-5.03,3.22-6.86.25-.18.47-.32.65-.43.2-.1.39-.14.53-.17.29-.06.42-.03.43.06.04.22-.44.56-.82,1.32-.38.76-.7,1.88-.8,3.26-.13,1.35-.19,2.94.03,4.47.08.73.23,1.38.44,1.95.06.13.14.24.19.36l.09.18.12.13c.08.08.13.2.22.26.03.02.11.07.1.07,0,0-.03,0-.03-.01.03.02-.14-.01.26.03.24.04.65.04.96.07.68.04,1.4.05,2.11.07,1.43.04,2.88.06,4.33.07,2.91,0,5.82.01,8.73.02,5.84,0,11.7,0,17.58,0,8.12.03,16.56-.4,24.86-.67l7.27-.25,3.63-.15,1.8-.09c.56-.04,1.34-.07,1.42-.11.32-.11.87-.76,1.12-1.57.27-.82.4-1.77.4-2.73,0-.96-.12-1.94-.35-2.87-.05-.24-.12-.46-.2-.68-.07-.22-.15-.44-.24-.64-.09-.21-.18-.41-.29-.57-.09-.18-.25-.36-.28-.41,0,0-.01-.01-.02-.02-.12-.12-.23-.16-.45-.22-.25-.08-.6-.13-.89-.2-.65-.11-1.32-.2-2-.26-1.36-.14-2.74-.24-4.13-.3-2.78-.14-5.57-.2-8.36-.24-8.5-.1-17.05-.04-25.5.18-6.57.17-13,.54-19.49.83-1.43.07-2.83.13-4.27.2-2.67.08-4.44.1-5.68-.05-1.24-.18-1.96-.44-2.54-.8-.26-.16-.61-.32-.77-.46-.26-.25.15-.49,1.12-.77.96-.27,2.48-.59,4.43-.69,11.59-.81,23.83-1.25,36.14-1.46,4.57-.08,9.16-.12,13.75-.09,4.6.02,9.19.09,13.86.37v.08Z"/><path class="cls-1" d="M357.17,189.37c-.76,1.12-1.79,1.95-2.88,2.52-1.1.57-2.27.91-3.46,1.04-1.18.14-2.42.04-3.56-.25-1.12-.28-2.18-.73-3.15-1.26-.71-.39-1.39-.8-2.04-1.25l-.24-.17-.32-.23c-.27-.19-.51-.39-.77-.59-.49-.4-1.02-.8-1.51-1.21-.34-.3-.74-.6-.96-.9l-.39-.44-.22-.39c-.29-.54-.39-.88-.46-1.32-.08-.46.16-1.23.61-1.7.46-.5,1.01-.75,1.57-.86.41-.08.82-.1,1.34-.02.49.06.96.08,1.53.28.54.15,1.08.3,1.64.58.54.25,1.12.46,1.62.78,1.43.86,2.7,1.9,3.84,3.02.86.84,1.68,1.71,2.45,2.61.78.89,1.52,1.81,2.19,2.75.87,1.22,1.77,2.36,2.54,3.69.36.68.69,1.4.93,2.16.13.37.2.78.22,1.18.03.4.09.79.07,1.19-.07.99-.22.8-.6.09-.21-.35-.48-.83-1.02-1.27-.47-.46-.98-.96-1.51-1.54l-.72-.78-.68-.84-1.41-1.7-1.42-1.65c-.45-.56-.91-1.1-1.38-1.63-.93-1.06-1.91-2.05-2.94-2.93-.52-.44-1.05-.85-1.61-1.23-.14-.1-.28-.18-.42-.27l-.1-.06-.02-.03-.05-.05-.22-.2c-.24-.17-.55-.34-.9-.42-.22-.05-.48,0-.6.18-.15.2.02.42.18.55.32.29.64.57.98.84l.23.18.29.21c.19.14.39.27.59.4.39.26.8.5,1.2.71.82.43,1.67.76,2.55.97,1.67.37,3.6.13,5.08-.76.91-.54,1.65-1.32,2-2.26.1-.27.14-.38.16-.54.02-.15.01-.31-.02-.47-.06-.3-.21-.64-.52-.77-.12-.04-.25-.06-.37-.04-.23.04-.42.19-.58.35-.08.08-.16.17-.24.26l-.41.47c-.58.67-1.14,1.34-1.7,2.03-1.12,1.36-2.2,2.75-3.2,4.18-1.68,2.37-3.13,4.83-4.56,7.31-.31.55-.61,1.09-.92,1.65-1.17,2.05-1.8,2.54-2.61,2.66-.19.02-.4.08-.56.06-.54-.05-.45-1.12.25-2.75,2.27-4.72,5.38-9.3,8.71-13.72.66-.9,1.35-1.78,2.04-2.66l.52-.65.27-.34c.16-.2.34-.42.53-.62.74-.82,1.65-1.31,2.6-1.37.4,0,.81.05,1.19.17.38.13.73.35,1.04.6.62.52,1.03,1.28,1.24,2.13.18.84.19,1.83-.09,2.63-.21.62-.47,1.19-.82,1.72l-.06-.03Z"/><path class="cls-1" d="M322.44,142.52c-.48,2.7-.87,5.42-1.06,8.11-.09,1.34-.12,2.68-.04,3.97.05.63.12,1.27.25,1.82.11.53.4,1.1.43,1.1.02.03.06.05.09.07.05.02.03.02.2.06.26.07.58.12.9.18,2.13.31,4.43.33,6.68.43,8,.27,16.09.22,24.11-.19,1.78-.1,3.56-.24,5.32-.45.88-.1,1.75-.22,2.59-.38l.62-.13.28-.07.15-.04c.2-.05.4-.15.46-.37.1-.25.1-.51.02-.76-.11-.34-.32-.72-.61-1.06-.58-.69-1.41-1.27-2.32-1.64-.91-.39-1.89-.53-2.87-.54-.99-.03-1.99.22-2.94.69-1.23.55-1.2.49-.51-.67.36-.57,1.03-1.3,2.13-1.92.55-.29,1.2-.58,1.94-.7.73-.09,1.53-.06,2.32.12,1.4.33,2.74.94,3.9,1.93.58.5,1.12,1.1,1.56,1.86.2.4.38.82.49,1.32.15.63.14,1.18.05,1.75-.2,1.12-.81,2.19-1.84,2.65-.25.13-.54.2-.81.29-.14.04-.28.08-.42.11l-.25.06c-.33.07-.64.12-.95.17-1.24.19-2.42.31-3.62.41-4.75.38-9.45.46-14.18.41-5.66-.07-11.52.14-17.34-.18-1.07-.06-2.15-.14-3.23-.27-.55-.06-1.09-.14-1.67-.25-.3-.06-.54-.11-.93-.22-.42-.13-.81-.32-1.12-.61l-.41-.49-.31-.51c-.14-.3-.28-.61-.36-.91-.2-.6-.3-1.17-.39-1.74-.16-1.13-.19-2.23-.18-3.32.03-2.18.23-4.31.5-6.43.51-3.91,1.26-7.77,2.17-11.59,1.4-5.81,3.35-11.45,5.68-16.9,1.82-4.22,3.83-8.3,6.35-12.14.57-.83,1.11-1.67,1.74-2.47,2.34-2.98,3.37-3.68,4.43-3.78.24-.02.52-.09.71-.06.64.12-.08,1.51-1.62,3.67-.59.79-1.12,1.63-1.68,2.45-.52.85-1.08,1.67-1.61,2.53-1.08,1.69-2.07,3.46-3.02,5.26-1.9,3.61-3.54,7.42-4.95,11.34-1.04,2.91-2,5.92-2.78,8.89-.78,3.01-1.43,6.07-1.96,9.14h-.07Z"/><path class="cls-1" d="M378.29,191.14c.05-5.96.04-11.94-.32-17.83-.1-1.47-.21-2.94-.39-4.37-.17-1.43-.39-2.88-.75-4.09-.07-.33-.21-.53-.28-.77-.06-.12-.08-.16-.15-.21-.03-.03-.07-.04-.15-.07-.11-.04-.2-.1-.37-.14-.31-.08-.59-.18-.94-.25-1.34-.3-2.8-.5-4.25-.67-4.26-.48-8.62-.62-12.96-.79-7.66-.29-15.35-.33-23-.06-3.81.17-7.68.35-11.33.96-.46.07-.88.18-1.31.28-.22.05-.38.12-.57.18-.19.05-.22.09-.33.15-.09.05-.16.14-.21.23-.05.08-.1.19-.18.39-.14.36-.25.79-.35,1.22-.37,1.76-.55,3.67-.68,5.56-.43,6.75-.23,13.63.03,20.39.17,4.35.46,8.7.66,13.06l.3,6.54c.07,1.09.06,2.18.06,3.27v3.28c-.09,2.73-.24,2.38-.88.12-.33-1.13-.76-2.74-1.26-4.68-.44-1.95-.76-4.25-.99-6.76-.41-4.45-.68-8.9-.88-13.37-.2-4.47-.35-8.94-.36-13.44,0-2.25.02-4.5.12-6.77.11-2.27.23-4.54.65-6.91.1-.59.24-1.2.42-1.84.09-.32.2-.65.35-1,.15-.38.44-.91.77-1.27.33-.4.8-.64,1.25-.88.44-.19.72-.26,1.08-.38.62-.15,1.24-.3,1.82-.38,2.35-.39,4.61-.55,6.88-.69,5.43-.29,10.92-.43,16.46-.48,5.53-.04,11.1,0,16.62.29,3.04.16,6.07.37,9.13.75,1.54.2,3.05.41,4.69.87.39.1.86.27,1.4.57.24.18.52.33.71.56.19.24.37.49.53.75.46.93.67,1.71.86,2.51.69,3.14.89,6.17,1.09,9.22.18,3.04.26,6.08.31,9.11.1,7.47-.04,14.92-.28,22.36-.09,2.82-.21,5.64-.36,8.46l-.27,4.24-.08,1.07c-.03.47-.12.99-.19,1.47-.04.25-.12.45-.18.68-.02.12-.09.2-.14.31-.08.07-.18.14-.28.19-.37.23-.85.32-1.35.37l-.75.06-.64.03-1.07.03-2.13.03h-4.23c-2.81-.02-5.62-.04-8.41-.06-8.69-.06-17.21.02-25.79.07-1.89.02-3.74.04-5.64.06-3.53,0-5.85-.03-7.48-.19-1.63-.18-2.57-.47-3.34-.87-.35-.18-.8-.35-1.01-.51-.34-.28.2-.54,1.49-.84,1.28-.3,3.3-.54,5.89-.62,7.69-.27,15.58-.33,23.58-.31,4,.02,8.02.04,12.06.06,4.04.03,8.09.05,12.12-.04l2.23-.06,1.87-.09s.01,0,.01,0h0s.07-.98.07-.98c.2-2.96.32-5.98.45-8.99.24-6.02.4-12.05.44-18.07h.08Z"/><path class="cls-1" d="M358.99,375.31c-1.06.52-2.39.87-3.73.75-1.25-.13-2.39-.54-3.37-1.07-1.96-1.08-3.36-2.47-4.78-3.58-1.03-.83-2.1-1.43-3.13-1.75-1.78-.62-3.83-.07-5.77,1.11-1.98,1.14-3.8,2.77-6.05,4.1-.99.58-2.22,1.09-3.48,1.19-1.25.12-2.5-.09-3.63-.53-1.43-.61-2.76-1.55-3.65-2.83-.41-.66-.76-1.35-.97-2.07-.05-.18-.12-.36-.14-.55-.02-.19,0-.39,0-.58,0-.38-.06-.73-.03-1.1.04-.9.08-.76.45-.1.19.33.47.79,1.05,1.19.3.19.44.45.7.66.25.22.45.46.7.68l.31.3c.1.1.25.16.33.27.18.21.42.36.62.54.44.32.91.6,1.41.78.97.42,2.02.59,2.99.43.92-.13,1.93-.72,3.04-1.46,1.1-.75,2.24-1.62,3.49-2.42,1.49-.96,3.13-1.97,5.12-2.47,1.96-.56,4.32-.2,6.01.79,1.9,1.04,3.33,2.39,4.79,3.49,1.43,1.1,2.94,1.98,4.43,1.99,1.77.02,3.59-1.49,5.24-3.06,1.3-1.18,2.56-2.55,4.38-3.48.89-.46,2.02-.77,3.12-.6.55.06,1.06.25,1.55.46.51.24.95.57,1.32.91,1.13,1.08,1.85,2.25,2.78,2.69.93.48,2.07.56,3.11.28.46-.1.87-.33,1.28-.54.77-.37,1.2-.69,1.57-.89.35-.22.72-.28,1.14-.32.19-.02.4-.08.57-.08.29,0,.44.24.45.79.01.54-.29,1.35-.99,2.12-1.02,1.19-2.53,1.89-4.11,2.11-1.58.23-3.36-.05-4.88-1.06-.79-.52-1.32-1.14-1.78-1.64-.46-.51-.83-.95-1.16-1.24-.56-.51-1.16-.64-1.7-.54-.88.14-2.26,1.28-3.61,2.51-1.4,1.25-2.82,2.75-4.97,3.86l-.04-.07Z"/><path class="cls-1" d="M304.52,303.46c-.15.12-.3.25-.43.39-.05.05-.03.12-.09.16-.17.17-.39.34-.57.52-.07.08-.1.18-.11.27-.02.12.02.26-.18.34-.11.06-1.37-.3-1.44-.47-.07-.29-.06-.58.19-.8.16-.13.11-.32.18-.47.07-.17.17-.33.27-.5.06-.1.12-.2.17-.3.07-.16.19-.3.2-.47.02-.13-.11-.32-.13-.46.01-.03.01-.06.04-.08.11-.07.29-.04.75.11l.31.1c.33.12.62.27.8.42.15.12.27.23.37.31.05.07.08.14.1.21.05.13,0,.23-.05.33-.08.14-.22.27-.32.41l-.05-.02Z"/><path class="cls-1" d="M354.51,103.27c-5.62.59-11.54-.74-16.06-4.3-1.63-1.29-3.11-2.85-4.14-4.71-.4-.67-.69-1.41-.98-2.13-.24-.72-.47-1.44-.64-2.17-.36-1.46-.58-2.93-.71-4.41-.24-2.93-.09-5.95.39-8.74.02-.06.01-.12,0-.18l-.02-.1-.04-.18-.21-.77-.47-1.6c-.42-1.44-.84-2.89-1.16-4.4-.16-.75-.31-1.52-.37-2.34-.02-.21-.02-.41-.02-.64.02-.28.02-.56.08-.84.1-.55.32-1.06.68-1.46.06-.05.11-.11.17-.15,1.12-.95,3.04.01,3.73.39.92.49,1.74,1.06,2.53,1.67.79.6,1.54,1.24,2.26,1.89.38.31.7.69,1.01,1.07l.94,1.12c.76.93.59.92-.46.59-.52-.17-1.27-.4-2.18-.66-.86-.32-1.73-.84-2.63-1.43-.88-.61-1.8-1.15-2.63-1.65-.21-.12-.42-.23-.62-.32-.08-.04-.23-.11-.25-.11,0,0,0,0,0,0,0,0,0,0,0,0,0,0,0,0-.01.01,0,.01,0-.02,0,.03v.14c-.01.09-.01.19-.01.3,0,.2.01.42.03.64.05.9.29,1.84.53,2.78.25.95.53,1.9.82,2.87l.45,1.48.22.79.06.24c.03.12.05.23.07.35.02.24.04.47,0,.71l-.19,1.2-.16,1.13c-.09.76-.17,1.53-.21,2.3-.14,2.28.02,4.63.53,6.9.51,2.29,1.33,4.39,2.75,6.12,3.07,3.9,8.19,6.06,13.26,6.18,3.12.05,6.39-.43,9.15-1.78,2.1-1.02,3.84-2.64,5-4.68.57-1.02,1.01-2.13,1.34-3.26.28-1.12.47-2.26.43-3.43-.03-3.64-1.44-7.08-2.72-10.67-.28-.8-.58-1.58-.81-2.43-.44-1.57-.57-2.71-.47-3.52.05-.41.13-.73.25-.98.16-.26.34-.45.54-.61.18-.14.36-.32.51-.38.26-.1.47.19.67.71.2.51.38,1.27.66,2.28.89,3.01,2.52,6.14,3.57,9.73.25.91.49,1.83.65,2.8.17.96.29,1.96.22,2.98-.01.51-.02,1.02-.11,1.53-.09.51-.1,1.03-.26,1.53-.13.5-.26,1.01-.41,1.5-.18.47-.34.93-.54,1.39-.58,1.36-1.33,2.7-2.28,3.92-.95,1.21-2.12,2.27-3.41,3.1-2.6,1.67-5.52,2.38-8.32,2.71l-.02-.06Z"/><path class="cls-1" d="M349.03,70.09c-.89.09-1.78.23-2.66.43-.33.06-.61.23-.93.31-1.13.27-2.22.66-3.28,1.14-.45.25-.9.5-1.27.85-.25.21-.47.45-.73.63-.24.21-.52.38-.9.48-.23.06-.41-.11-.55-.49-.07-.19-.14-.43-.18-.7-.03-.26.01-.5.13-.7.18-.38.5-.6.79-.87.29-.26.59-.5.92-.7.64-.43,1.33-.76,2.06-.98.88-.24,1.67-.73,2.53-1.01.94-.31,1.91-.54,2.88-.74.6-.11,1.19-.21,1.79-.29.91-.13,1.82-.19,2.74-.29.71-.09,1.41-.3,2.19-.37.16-.02.35-.05.54-.03.66.03.99.4.78,1.12-.04.17-.08.34-.14.5-.24.53-.59.93-.8,1.03-.92.31-2.07.38-3.23.48-.87.07-1.76.14-2.64.29l-.02-.06Z"/><path class="cls-1" d="M358.66,82.98c-.23,1.01-.67,1.57-1.32,2.16-.23.2-.45.46-.82.61-.32.12-.71.21-1.13.16-.4-.05-.8-.21-1.09-.45-.57-.48-.73-1.04-.72-1.54,0-.45.09-.85.23-1.14.17-.39.4-.72.81-.77.13-.01.38.28.63.61.24.33.56.72.62.82.18.26.04,0-.5,0,.08,0,.13-.02.11,0-.02,0-.11.06-.16.13-.15.23.07.06-.26-.33-.15-.19-.34-.31-.29-.27.01,0,.09-.04.11-.04.01,0,.02,0,.04,0,.06,0,.11,0,.16,0,.09,0,.16-.02.19-.04l.18-.07h0s-.02,0-.02,0h-.03s-.04.04-.04.04c-.02.01-.02.02,0,0,.03-.03.09-.18.08-.24v-.03s0,0,0,0h0s-.03-.13-.03-.13h0s0,0,0,0h0s.02.06.05.08c.05.06.1.07.04.05-.02,0-.06-.01-.1-.01-.15,0-.13.04-.12.02.04-.03-.09.07-.18.15l-.27.25c-.3.29-.59.55-.95.62-.36.08-.75-.09-1-.46-.35-.54-.46-1.18-.39-1.75.12-.56.4-1.1.92-1.55,1.24-1.03,2.78-.82,3.63-.3.66.39,1.13.91,1.43,1.58.31.7.32,1.28.27,1.82h-.09Z"/><path class="cls-1" d="M358.44,79.91c.56.49.78,1.21.8,1.95.03.73-.16,1.48-.46,2.15-.04.13-.12.24-.17.36l-.13.27c-.09.17-.18.34-.3.49-.1.13-.33.4-.51.59-.19.2-.4.37-.6.52-.52.3-1.14.29-1.73.11-.29-.09-.57-.17-.84-.33-.25-.12-.4-.23-.59-.34-.46-.3-.9-.59-1.31-.9-.28-.19-.52-.42-.73-.67-.2-.27-.42-.51-.46-.9-.03-.24.16-.35.53-.46.4-.13.92-.25,1.21-.12.53.21.95.47,1.37.7.21.12.42.22.62.32.15.06.06.09.11.13.02.04.05.09.09.14.08.1.22.17.3.1.05-.04.09-.1.13-.16,0-.02.02-.02.03-.04l.07-.11.13-.22c.04-.07.08-.14.12-.2l.07-.1c.04-.06.09-.14.12-.22.07-.16.12-.36.1-.56-.02-.26-.27-.41-.52-.45-.1-.02-.2-.04-.3-.04-.11-.01-.19,0-.39,0-.35.03-.7.09-1.05.2-.54.17-1,.54-1.47.85-.1.07-.19.16-.3.22-.39.21-.58.1-1.01-.52-.1-.14-.2-.27-.29-.41-.3-.46-.34-1.01-.05-1.34.85-.99,2.01-1.48,3.33-1.77.27-.05.45-.09.83-.12.41-.05.83-.02,1.23,0,.81.07,1.54.36,2.08.87l-.05.05Z"/><path class="cls-1" d="M337.12,71.69l-.7-1.2c-.11-.19-.31-.34-.52-.4-.12-.04-.23-.04-.35-.02-.12,0-.22.04-.33.1-.19.12-.35.3-.4.52s-.03.47.09.67l.7,1.2c.11.19.31.34.52.4.12.04.23.04.35.02.12,0,.22-.04.33-.1.19-.12.35-.3.4-.52s.03-.47-.09-.67h0Z"/><path class="cls-1" d="M359.15,67.05l-.1-.75c0-.12-.02-.23-.08-.34-.04-.11-.1-.2-.18-.28-.08-.09-.17-.15-.28-.18-.1-.05-.22-.08-.34-.08l-.23.03c-.15.04-.28.12-.39.23l-.14.18c-.08.14-.12.28-.12.44l.1.75c0,.12.02.23.08.34.04.11.1.2.18.28.08.09.17.15.28.18.1.05.22.08.34.08l.23-.03c.15-.04.28-.12.39-.23l.14-.18c.08-.14.12-.28.12-.44h0Z"/><path class="cls-5" d="M364.13,398.3s5.55,5.9,3.43,11.49c0,0-84.01,2.88-84.57,0-.56-2.88-5.74-9.47,5.51-11.54,11.25-2.07,75.63.05,75.63.05Z"/><path class="cls-1" d="M343.82,393.93c5.45.13,10.89.33,16.35.66,2.74.18,5.46.38,8.25.74.69.08,1.42.21,2.13.34l1.15.27c.46.17,1.05.35,1.4.6,1.62.96,2.73,2.59,3.25,4.17.57,1.67.71,3.33.63,4.95-.02.41-.06.81-.11,1.22-.03.2-.06.41-.1.61-.04.22-.06.37-.17.71-.15.61-.38,1.19-.7,1.68-.16.24-.35.49-.6.64l-.76.36c-2.11.32-2.88.3-4.08.39-7.05.46-14.01.64-21,.83-6.99.17-13.97.3-20.95.39-6.2.1-12.43.2-18.58.3-3.95.05-7.91.12-11.88.09-3.97-.05-7.93-.15-11.91-.76-1.23-.33-1.73-.56-1.68-.72.06-.16.69-.29,1.75-.58,2.11-.48,5.92-1.09,10.44-1.09,8.02.05,16.07-.06,24.13-.15,8.06-.11,16.14-.22,24.26-.32,4.66-.06,9.4-.24,14.17-.48,2.38-.13,4.77-.26,7.15-.43,1.18-.1,2.38-.15,3.55-.28l1.75-.21.44-.05.22-.03.1-.02.39-.07c.07,0,.14,0,.2-.02.06-.04.08-.1.11-.16.04-.1.08-.21.1-.32.05-.22.11-.55.15-.83.08-.59.12-1.19.11-1.79-.02-1.19-.24-2.36-.69-3.31-.23-.47-.51-.89-.85-1.22-.32-.32-.8-.62-1.12-.7-.51-.14-1.14-.28-1.78-.37-.63-.12-1.31-.18-1.96-.27-5.34-.6-10.81-.84-16.25-1.06-6.71-.24-13.43-.37-20.15-.38-10.17,0-20.41.1-30.47.79-3.9.28-7.78.67-11.52,1.34-.93.18-1.84.38-2.7.64-.22.06-.39.15-.59.21-.18.07-.41.14-.52.22-.28.16-.54.36-.77.63-.93,1.07-1.35,2.88-1.39,4.59-.02.76.05,1.53.19,2.24.13.68.43,1.49.56,1.56.21.23.29.13,1.14.28.66.1,1.26.18,1.81.26,1.09.17,1.96.32,2.67.46,1.41.27,2.15.54,2.86.89.32.16.75.27.96.4.35.22-.07.61-1.3.99-1.26.4-3.22.36-5.55.17-.89-.08-1.78-.15-2.67-.23-.76-.04-1.51-.29-2.05-.85-.54-.49-.96-1.34-1.13-1.8-.41-1.06-.59-2.06-.69-3.07-.1-1.01-.09-2.02.03-3.05.13-1.03.35-2.08.81-3.13.45-1.04,1.15-2.14,2.27-2.96.27-.21.58-.38.89-.55.29-.14.54-.22.81-.32.56-.23,1.02-.32,1.51-.46.49-.14.96-.23,1.43-.32.47-.09.94-.2,1.4-.26,3.7-.61,7.37-.94,11.06-1.22,3.68-.27,7.38-.45,11.07-.6,10.97-.41,21.98-.44,32.98-.27v.09Z"/><path class="cls-1" d="M137.56,468.33c-.54.02-.95-.38-1.32-.73-.12-.12-.07-.41.09-.46.31-.1.62-.23.93-.34.1-.08.89-.11,1.77-.17.89-.05,1.88-.15,2.38-.17.97-.05,1.93-.04,2.9,0,1.96.06,3.92.09,5.88.1.44,0,.87.05,1.3.11,1.48.23,2.98.26,4.47.23.25,0,.5.01.74-.08.4-.14,4.44-.16,4.97-.1,1.3.16,2.61.24,3.92.34.19.02.38-.03.56.08.4.24.8.2,1.21.22.56.03,1.12.05,1.69.12.28.04.56.18.84.27.25.09.13.4.05.44-.25.11-.04.26,0,.38.01.04.02.1.01.14-.02.09-3.23.96-3.59.99-.09,0-4.81.35-5.37.39-.28.03-.57-.03-.85-.06-.14,0-3.93.2-4.09.21-.79-.03-1.58.06-2.36-.18-.15-.05-.31-.04-.47-.03-1.35.01-2.7-.09-4.05-.22-.69-.06-1.38-.07-2.07-.11-.12,0-.25-.05-.37-.07-.16-.03-.31-.07-.47-.08-1.63-.07-3.26-.3-4.89-.33-.38.02-2.14-.47-2.58-.48-.24-.01-1.01-.43-1.22-.4Z"/><path class="cls-1" d="M219.66,468.21c-.38.02-.71-.21-1-.41-.09-.07-.09-.24.02-.3.21-.09.42-.21.64-.32.05-.02.2-.08.42-.16.23-.08.52-.24.84-.28.63-.13,1.34-.29,1.7-.38.7-.18,1.4-.26,2.1-.3,1.43-.09,2.86-.22,4.29-.26.32,0,.64.03.95.09,1.09.2,2.18.24,3.27.23.18,0,.37.02.55-.06.29-.14,3.25,0,3.62.09.94.24,1.88.37,2.81.63.13.03.28.02.39.13.27.27.56.26.85.31.4.06.8.14,1.2.29.2.07.38.2.57.34.17.12.06.36,0,.39-.19.08-.05.23-.04.34,0,.04,0,.09,0,.12-.01.05-.61.21-1.24.39-.62.14-1.28.29-1.4.28-.02,0-.24.01-.57.02-.33.02-.78.04-1.23.03-.9,0-1.84.02-2.03.03-.2.02-.4-.05-.6-.1-.09-.03-2.79.07-2.9.07-.56-.05-1.11.03-1.66-.2-.11-.05-.22-.04-.33-.04-.96.01-1.91-.06-2.87-.15-.49-.05-.98-.04-1.47-.06-.09,0-.18-.04-.27-.06-.11-.02-.22-.05-.33-.05-1.16-.03-2.32-.11-3.49-.1-.27,0-1.56-.26-1.87-.24-.17.03-.75-.36-.91-.33Z"/><path class="cls-1" d="M208.32,132.48c-.56.14-1.14.3-1.67.55-.2.08-.33.26-.53.35-.36.15-.7.33-1.06.51-.35.19-.74.35-1.07.58-.3.2-.53.46-.77.72-.28.35-.5.73-.98.96-.15.07-.51-.16-.84-.51-.32-.34-.65-.84-.57-1.15.16-.53.35-1.06.64-1.53.32-.44.71-.83,1.2-1.11.61-.3,1-.85,1.54-1.24.6-.41,1.24-.76,1.89-1.06.4-.19.81-.36,1.22-.51.62-.24,1.27-.39,1.86-.67.46-.23.88-.54,1.36-.75.1-.05.2-.11.32-.13.1-.02.2-.01.28,0,.08.03.16.12.23.2.13.17.23.4.34.73.05.15.1.29.14.44.12.46.06.97-.09,1.42-.28.45-.57.82-.86,1.11-.14.18-.3.25-.47.33-.16.08-.33.16-.5.23-.51.21-1.02.4-1.55.6l-.05-.08Z"/><path class="cls-1" d="M227.36,157.69c-2.97,1-6.36-2.17-7.12-2.15-.79.02-.71,2.46.51,4.72,1.03,1.91,2.87,2.53,4.42,2.61s2.03-2.16,2.03-2.16l.16-3.03Z"/><path class="cls-1" d="M146.94,439.74c.81-.16,1.63-.24,2.42-.25.29,0,.57-.05.86-.04,1.01.05,2,.2,2.96.35.43.07.86.09,1.28.16.54.09,1.08.18,1.6.38.16.06.12.19-.04.34-.16.14-.45.34-.77.38-1.13.21-2.19,0-3.27-.14-.65-.11-1.32,0-1.97.04-.72.05-1.42.14-2.11.3-.42.1-.85.22-1.25.38-.61.24-1.22.52-1.72.94-.39.31-.67.74-.91,1.15-.05.09-.1.19-.15.28-.22.31-.39.33-.86.14-.11-.04-.22-.08-.32-.13-.35-.16-.52-.49-.42-.88.36-1.09,1.23-2.03,2.27-2.56.76-.42,1.58-.68,2.39-.88v.04Z"/><path class="cls-1" d="M222.44,443.67c.74-.56,1.62-.94,2.46-1.22.31-.11.59-.25.9-.33,1.1-.27,2.18-.42,3.24-.55.47-.05.94-.12,1.4-.19.59-.09,1.18-.18,1.78-.16.19,0,.19.15.06.33-.13.18-.38.43-.7.55-1.16.39-2.27.78-3.43.98-.7.13-1.34.48-1.97.78-.71.32-1.35.71-1.97,1.12-.39.25-.76.54-1.09.86-.5.49-.98,1.04-1.26,1.67-.23.49-.2,1.05-.27,1.53-.01.11-.03.22-.04.32-.1.39-.23.52-.71.62-.11.02-.21.05-.32.07-.35.06-.66-.14-.82-.57-.55-1.29.02-2.7.72-3.77.54-.82,1.24-1.49,1.98-2.08l.04.04Z"/><path class="cls-1" d="M208.8,272.01s2.83,16.5,3.16,19.89c.33,3.39,1.74,20.33-1.65,25.41-3.39,5.08-7.76,5.97-13.2,5.67s-30.58-3.56-31.12-3.71-8.77-2.76-8.77-2.76c0,0-19.47,51.07-21.45,56.71-1.98,5.65-10.12,34.94-11.01,40.89-.89,5.95-1.99,11.08-.64,12.96,1.35,1.89,8.24,6.48,11.19,7.57s12.59,5.55,20.78,6.79c8.19,1.25,23.34,3.38,26.35,1.32s5.61-21.11,5.61-21.11l9.05-37.97s9.29-39.56,11.24-39.69,1.24,2.14.67,5.24c-.35,1.95-11.5,44.05-11.5,44.05,0,0,4.83,47.08,7.21,48.25s18.02.97,25.63-.09c7.61-1.06,23.59-5.6,25.37-7.88,1.78-2.28-2.56-24.46-2.56-24.46l-15.72-61.29-8.67-39.81-7-30.19-2.29-5.79h-10.68Z"/><path class="cls-1" d="M241.82,304.15c.03-1.04-.12-2.14-.3-3.27-.07-.41-.18-.82-.24-1.23-.22-1.46-.45-2.92-.71-4.38-.12-.64-.27-1.28-.42-1.91-.2-.81-.44-1.61-.46-2.46-.01-.26.14-.27.37-.1.22.17.6.5.77.95.5,1.63.95,3.27,1.24,4.97.17,1.01.51,2.03.77,3.05.27,1.11.56,2.25.71,3.45.1.74.14,1.5.07,2.27-.11,1.17-.56,2.35-1.28,3.29-.55.73-1.17,1.4-1.9,1.9-.16.11-.31.23-.48.32-.63.34-.9.31-1.21-.01-.07-.08-.15-.15-.21-.23-.2-.28-.06-.64.29-.97.53-.48,1.01-.98,1.44-1.45.44-.46.8-.92,1.02-1.44.35-.76.47-1.7.49-2.73h.05Z"/><path class="cls-1" d="M265.9,154.06c-.69-.57-1.36-1.26-1.95-2.03-.21-.28-.46-.55-.63-.86-.64-1.1-.79-2.38-.79-3.54.01-.52.05-1.04.14-1.53.1-.64.32-1.25.65-1.79.1-.17.12-.13.13.04,0,.17.08.5.1.85.08,1.24.5,2.27.69,3.33.17.63.53,1.22.92,1.74.41.59.96,1.14,1.57,1.65.38.32.77.64,1.19.94.64.46,1.27.94,1.95,1.34.53.31,1.11.5,1.64.78.12.06.24.1.36.18.42.26.47.47.29.96-.04.11-.08.23-.13.33-.17.35-.52.52-.9.45-.56-.11-1.13-.26-1.65-.49-.51-.24-1-.53-1.48-.83-.72-.45-1.41-.93-2.15-1.46l.03-.05Z"/><path class="cls-1" d="M208.97,270.15c-.63-1.11-.96-2.27-1.21-3.39-.09-.41-.22-.8-.29-1.2-.24-1.43-.42-2.85-.53-4.27-.06-.63-.15-1.26-.25-1.87-.06-.39-.13-.79-.19-1.19-.02-.4.02-.81.07-1.22.04-.26.21-.25.47-.07.25.18.66.51.87.95.36,1.59.66,3.18.77,4.81.05.98.34,1.95.55,2.92.23,1.06.49,2.08.93,3.01.27.57.6,1.1,1.02,1.57.63.71,1.41,1.33,2.29,1.7.69.3,1.43.33,2.13.39.16,0,.31,0,.46.02.57.05.75.16.91.62.04.1.08.21.11.31.09.34-.16.67-.7.81-1.62.49-3.4-.14-4.8-1.09-1.05-.73-1.97-1.66-2.63-2.77l.04-.03Z"/><path class="cls-1" d="M207.47,242.11c-.69.08-1.38.21-2.1.38-.26.06-.5.18-.77.24-.95.18-1.93.34-2.89.5-.43.06-.85.18-1.26.28-.52.19-1.08.23-1.65.1-.18-.04-.2-.31-.11-.65.09-.33.27-.77.55-.93.24-.16.49-.23.75-.28.26-.06.51-.12.77-.17.52-.1,1.04-.19,1.58-.25.66-.06,1.26-.39,1.91-.58.72-.2,1.47-.39,2.23-.54.47-.09.94-.17,1.41-.23.71-.11,1.43-.14,2.13-.24.54-.07,1.07-.28,1.62-.36.12-.02.24-.05.36-.06.45-.02.59.13.69.66.02.12.05.24.06.36.04.41-.13.76-.44.91-.91.47-1.84.56-2.77.65-.68.09-1.38.13-2.06.27v-.05Z"/><path class="cls-1" d="M177.98,195.33c-.44.5-.74.85-1.07,1.42-.32.54-.61,1.15-.88,1.78-.2.46-.32.96-.52,1.43-.71,1.68-1.39,3.43-2.03,5.21-.28.79-.51,1.6-.78,2.4-.17.52-.33,1.04-.56,1.56-.12.25-.27.51-.51.7-.25.19-.54.36-.73.57-.28.24-.4.08-.51-.32-.07-.21-.09-.43-.28-.77-.08-.16-.21-.36-.26-.52-.03-.15-.05-.29-.04-.43.23-.95.43-1.96.72-2.96.32-1,.67-2.02,1.1-3.02.53-1.21.72-2.57,1.15-3.88.49-1.43,1.09-2.85,2.04-4.26.6-.81,1.23-1.53,1.95-2.19,1.07-1.02,2.32-1.79,3.53-2.54.94-.59,1.84-1.2,2.78-1.71.21-.11.4-.25.61-.34.78-.36,1.1-.22,1.58.4.11.14.23.28.32.43.32.49.19,1.1-.31,1.56-.76.64-1.53,1.18-2.28,1.69-.74.51-1.5.91-2.19,1.39-1.02.71-1.99,1.47-2.77,2.44l-.06-.05Z"/><path class="cls-1" d="M201.42,179.14c2.49.58,7.57,2.94,9.14,6.99,1.95,5.04.24-4.24-.94-5.24s-3.96-3.54-3.96-3.54c0,0-4.65,1.7-4.24,1.79Z"/><path class="cls-1" d="M190.09,112.26s3.44-7.15,9.99-7.59c11.77-.8,21.77,20.93,17.65,22.67-4.12,1.74-15.07,4.89-15.61,4.93s-4.8-4.12-5.56-4,.73,7.96.41,8.36.35,12.43-.77,14.63c-1.11,2.2-3.94,5.73-4.22,4.87-.28-.86-7.78-1.24-7.78-1.24,0,0-2.59,2.22-2.61,3.81-.02,1.58,1.03,4.78,1.87,5.64s3.81,1.87,3.81,1.87c0,0,3.23,2.06,2.76,2.97-.47.9,2.78,10.84,3.1,13.28.32,2.45.3,5.56.3,5.56,0,0-7.48,2.29-11.2,3.09-3.72.79-23.66,3.73-27.62,3.72-3.96,0-8.4-.83-9.09-1.1-4.05-1.59-3.32-15.67-3.32-15.67l4.23-29.94s.47-12.3,5.91-18.44c5.44-6.15,10.04-10.26,12.67-11.97,2.63-1.72,15.55-5.42,15.55-5.42h9.53Z"/><path class="cls-1" d="M234.13,465.54c4.34-.16,8.77-.73,13.03-1.69,1.55-.36,3.06-.88,4.48-1.4.3-.11.59-.23.88-.35l.2-.1.07-.02s.09-.04.13-.06c.16-.09.39-.2.42-.42.01-.17-.08-.32-.2-.44-.06-.06-.13-.12-.2-.17-.1-.06-.09-.07-.36-.2-.85-.41-1.85-.74-2.86-1.01-2.04-.55-4.17-.93-6.32-1.25-2.52-.38-5.07-.55-7.66-.79l-.34-.04-.47-.07c-.16-.02-.31-.05-.46-.09-.15-.04-.3-.08-.42-.16-.07-.03-.13-.07-.2-.11-.04,0-.04-.07-.12-.03l-.08-.08c-.11-.1-.17-.24-.26-.36-.15-.28-.3-.55-.39-.87l-.41-1.36-.34-1.21c-.42-1.62-.77-3.26-.75-5,.05-1.12.38-.92.95-.16.33.44.73.96,1.17,1.53.44.63.86,1.39,1.21,2.24.3.76.62,1.51.94,2.24l.11.24h0s0,0,0,0h0s4.7.52,4.7.52c3.36.41,6.75.89,10.16,1.92,1.04.33,2.1.66,3.19,1.18.3.12.74.41,1.1.61.35.25.7.51.98.81.13.15.27.31.39.47l.29.52c.14.37.23.75.27,1.15-.05.38-.14.75-.27,1.1-.19.32-.38.65-.69.92-.26.29-.61.53-.96.76-.17.12-.34.24-.53.34l-.49.25c-1.02.5-2.02.86-3.03,1.19-4.51,1.37-9.06,2.07-13.66,2.5-2.83.24-5.68.35-8.58.11-1.1-.1-2.21-.26-3.35-.62-.29-.1-.57-.21-.87-.34-.17-.09-.34-.19-.5-.29l-.42-.35c-.5-.48-.84-1.01-1.13-1.54-1.07-2.11-1.49-4.23-1.94-6.33-.65-3.26-1.21-6.44-1.68-9.64-.1-.71-.23-1.39-.32-2.1-.32-2.63-.22-3.45.56-4.13.18-.15.34-.35.52-.46.59-.36,1.36.66,1.76,2.6.61,2.86,1.06,5.78,1.54,8.69.49,2.89.98,5.88,1.86,8.4.31.91.77,1.78,1.06,2.06.03.01.05.03.07.06,0,0,0,0,0,0,.01-.03-.06.11-.08.17h0c.15-.33.04-.08.08-.16h0s0,0,0,0h.02s.03.02.03.02l.06.02.13.05c.09.03.16.07.27.1.4.12.86.23,1.34.3,1.96.31,4.17.32,6.35.22v.08Z"/><path class="cls-1" d="M147.38,465.03c4.07,1.22,8.49,1.85,12.86,2.09,1.6.08,3.2.01,4.76-.05.69-.03,1.37-.07,2.03-.15l.49-.06.38-.06c.12-.01.22-.03.33-.06.11-.03.23-.07.31-.15.1-.08.07-.21.06-.32-.01-.12-.05-.23-.1-.34-.03-.05-.05-.11-.09-.17-.05-.07-.03-.07-.16-.2-.74-.88-1.89-1.67-3.07-2.37-1.19-.7-2.47-1.33-3.77-1.93-1.15-.53-2.34-1.03-3.54-1.53-1.2-.51-2.4-1-3.63-1.71-.31-.19-.63-.38-.96-.66-.39-.3-.69-.72-.9-1.18-.17-.51-.28-.95-.29-1.36-.03-.42,0-.82.05-1.2.1-.77.3-1.47.54-2.14.24-.66.53-1.29.83-1.89l.46-.89c.24-.26.43-.53.65-.79.73-.79.77-.63.95.39.07.5.29,1.27.22,2.03-.03.77-.13,1.62-.29,2.42-.1.5-.17.98-.17,1.39,0,.2.02.38.05.53.01.08.05.14.04.2,0,.05,0,.01,0,.03.02,0-.04-.02.03.03.12.1.33.24.56.38.48.28,1.05.56,1.64.84,1.18.55,2.45,1.09,3.71,1.65,2.53,1.16,5.14,2.33,7.59,4.27.44.37.88.75,1.3,1.21l.31.35.38.51c.28.34.43.74.64,1.11.3.78.44,1.58.33,2.35-.19.78-.8,1.33-1.52,1.68-.36.19-.77.33-1.18.45-.21.06-.42.1-.62.16-.21.05-.3.06-.46.09-.56.11-1.11.18-1.66.24-1.09.12-2.16.17-3.23.19-4.67.02-9.27-.45-13.83-1.42-1.4-.31-2.8-.67-4.18-1.14-1.38-.47-2.75-1.02-4.06-1.86-.96-.65-2-1.47-2.52-2.84-.14-.37-.16-.62-.23-.92-.05-.29-.13-.58-.15-.87-.03-.58-.11-1.16-.06-1.72.06-2.27.55-4.4,1.07-6.47.83-3.22,1.75-6.32,2.68-9.4.2-.68.39-1.34.6-2.03.41-1.25.69-2.06,1.04-2.59.36-.52.76-.76,1.21-.93.2-.07.4-.2.55-.23.26-.06.41.2.57.76.17.56.18,1.37-.06,2.33-.64,2.87-1.52,5.72-2.38,8.55-.43,1.42-.84,2.83-1.2,4.24-.38,1.41-.65,2.81-.79,4.17-.11,1.01-.1,1.98,0,2.86.01.23.09.42.12.63l.06.31c.02.14.03.08.04.14.06.13.21.34.46.58.52.47,1.36.96,2.25,1.37.91.41,1.9.75,2.92,1.05l-.02.08Z"/><path class="cls-1" d="M216.84,274.52c-.7,0-1.4-.06-2.1-.13-.25-.02-.5.05-.75.02-.89-.13-1.76-.34-2.61-.5-.38-.06-.75-.09-1.13-.12-.24-.02-.48,0-.72-.04-.12-.01-.24-.05-.35-.12-.06-.03-.11-.07-.17-.11-.06-.06-.1-.32-.14-.46-.06-.21-.08-.29-.08-.31,0-.02.04-.01.11-.21.07-.14.2-.76.31-.91.12-.21.25-.48.38-.49.46-.13.92-.24,1.37-.28.45.06.89.16,1.35.33.55.21,1.1.02,1.66,0,.61-.01,1.23-.03,1.84-.04.38,0,.77-.02,1.15-.07.58-.07,1.17-.1,1.73-.3.43-.15.79-.52,1.18-.8.08-.06.16-.16.25-.2.34-.17.52.03.87.95l.24.62c.25.71.27,1.35.06,1.64-.63.85-1.48,1.15-2.38,1.35-.66.15-1.37.19-2.06.26l-.02-.08Z"/><path class="cls-1" d="M255.2,427.6c-.55-3.53-1.33-7.13-2.12-10.7-.79-3.58-1.63-7.16-2.49-10.73-1.72-7.15-3.51-14.28-5.33-21.42-1.37-5.2-2.73-10.39-4.1-15.58l-7.09-27.5c-2.33-9.18-4.74-18.32-6.82-27.62-1.54-8.27-3.09-16.59-4.61-24.8-.94-5.28-1.87-10.58-2.61-15.91-.75-5.33-1.28-10.73-1.01-16.15.27-3.39.54-2.87.98-.07.26,1.4.65,3.37,1.14,5.74.21,1.18.55,2.47.77,3.83.22,1.37.47,2.82.66,4.34.76,5.38,1.68,10.74,2.65,16.11.98,5.37,1.96,10.75,2.94,16.13.5,2.68.97,5.44,1.43,8.1.49,2.59,1.13,5.28,1.75,7.93,1.3,5.33,2.61,10.66,3.92,16.01,3.16,12.8,6.9,26.01,10.33,39.06,3.75,14.36,7.52,28.71,10.81,43.22.5,2.23.97,4.48,1.41,6.74.2,1.14.43,2.26.58,3.43.09.58.17,1.16.21,1.77.02.32.07.58.06.94-.02.37-.01.71-.08,1.11-.22.89-.72,1.49-1.18,1.98-.48.48-.98.88-1.49,1.23-1.02.7-2.07,1.26-3.13,1.77-2.13,1.01-4.3,1.82-6.5,2.55-6.65,2.19-13.49,3.69-20.4,4.69-3.46.48-6.94.8-10.46.84-1.76.02-3.52-.03-5.3-.25-1.77-.24-3.58-.54-5.33-1.53-.2-.11-.46-.29-.7-.47-.19-.14-.3-.35-.47-.52l-.34-.61c-.16-.36-.3-.7-.4-1.03-.22-.67-.39-1.31-.55-1.96-.32-1.3-.58-2.58-.82-3.87-.48-2.57-.89-5.14-1.27-7.7-.75-5.13-1.39-10.25-1.92-15.41-.24-2.32-.49-4.59-.67-6.93-.64-8.69-.42-11.51.46-13.4.2-.43.4-.99.6-1.24.68-.82,1.24,2.67,1.8,8.97.62,6.95,1.4,14.04,2.3,21.19.46,3.58.95,7.17,1.53,10.75.29,1.79.61,3.57.98,5.32.19.87.38,1.73.61,2.54.05.21.12.39.18.58.06.2.12.37.18.51l.09.23s0,0,0,.01c0,0,.01,0,0,0,.02.01-.05-.03.06.03l.25.14c.19.09.39.18.61.27.45.16.94.31,1.48.42,1.06.23,2.23.36,3.41.43,2.37.14,4.84.05,7.31-.14,7.17-.61,14.43-1.84,21.46-3.72,3.51-.94,6.99-2.06,10.18-3.53.79-.37,1.56-.76,2.26-1.19.7-.42,1.34-.9,1.73-1.32.18-.2.28-.38.25-.34.02.03-.01-.14,0-.24,0-.11.03-.21,0-.45-.04-.41-.05-.8-.12-1.24l-.19-1.32.08-.03Z"/><path class="cls-1" d="M175.66,445.17c-7.31-.57-14.42-1.79-21.5-3.31-3.53-.77-7.05-1.62-10.54-2.63-3.49-1.01-6.95-2.14-10.34-3.59-2.47-1.07-4.93-2.24-7.23-3.94-.59-.39-1.12-.94-1.68-1.42-.51-.59-1.05-1.12-1.46-1.89l-.32-.54c-.1-.2-.18-.45-.26-.67-.12-.43-.22-.84-.27-1.22-.12-.78-.13-1.49-.13-2.2.03-2.47.36-4.8.73-7.12.38-2.31.83-4.59,1.33-6.86,1-4.53,2.15-9.01,3.38-13.47,2.47-8.9,5.23-17.71,8.16-26.45,2.6-7.76,5.37-15.51,8.22-23.12,3.71-9.74,7.44-19.61,12.9-28.6,1.78-2.76,1.85-2.19,1.08.5-.71,2.73-2.18,7.57-4.39,13.1-4.07,9.74-7.76,19.67-11.25,29.68-3.49,10.02-6.97,20.07-10.1,30.28-1.87,6.1-3.57,12.4-4.94,18.77-.68,3.19-1.28,6.4-1.65,9.59-.17,1.59-.3,3.19-.22,4.66.04.73.14,1.42.37,1.81.18.26.28.54.5.79.23.25.42.53.67.77,1.1,1.11,2.56,2.04,4.06,2.87,1.5.84,3.11,1.55,4.74,2.22,3.27,1.32,6.67,2.4,10.11,3.36,6.88,1.91,13.93,3.32,21.01,4.34,2.61.37,5.24.69,7.86.9,1.31.1,2.62.19,3.91.2.64.01,1.29,0,1.9-.04.62-.04,1.25-.11,1.47-.21.21-.09.33-.26.46-.48.17-.29.34-.67.49-1.05.3-.76.56-1.59.8-2.42.47-1.67.87-3.38,1.25-5.1,1.39-6.53,2.56-13.17,3.77-19.78,1.2-6.62,2.41-13.23,3.69-19.78,1.98-10.2,4.01-20.21,6.94-30.12.65-2.18,1.29-4.32,2.06-6.49,1.42-4.02,2.62-6.6,3.61-8.32.98-1.73,1.76-2.62,2.53-3.24.36-.28.77-.68,1.03-.81.89-.41-.42,2.75-2.46,8.48-3.08,8.49-5.31,17.58-7.32,26.84-2.04,9.26-3.89,18.73-5.61,28.26-1.1,6-2.16,12.02-3.31,18.06-.59,3.02-1.19,6.04-1.9,9.08-.36,1.52-.74,3.04-1.21,4.6-.25.78-.5,1.56-.86,2.39-.2.44-.35.79-.72,1.39-.4.63-.95,1.15-1.59,1.52-.49.16-1.05.39-1.46.42-.36.06-.72.11-1.01.13-.64.06-1.24.07-1.83.07-1.18,0-2.31-.05-3.45-.12v-.08Z"/><path class="cls-1" d="M130.14,289.14c-.04.26.03.69.08,1.07.03.39.13.77.2,1.15.16.77.38,1.52.66,2.26.55,1.48,1.31,2.91,2.23,4.26,1.84,2.69,4.25,5.09,6.94,7.17,5.38,4.18,11.69,7.28,18.19,9.74,4.76,1.79,9.69,3.12,14.65,4.22,4.38.95,8.81,1.75,13.27,2.16,4.45.41,8.95.5,13.32-.08,2.17-.31,4.31-.8,6.22-1.66.94-.44,1.81-.99,2.51-1.65.35-.33.64-.7.89-1.08.21-.43.46-.84.62-1.34.7-1.93.95-4.16,1.06-6.37.1-2.22.06-4.48-.05-6.73-.41-8.01-1.6-16.07-2.73-24.01-1.42-10.2-3.34-20.47-3.12-30.9.18-3.25.42-2.79,1.04-.1.32,1.35.89,3.23,1.32,5.52.45,2.29.96,4.97,1.38,7.89,1.31,10.4,2.99,20.8,4.17,31.35.57,5.28,1.05,10.6.91,16.06-.03,1.36-.14,2.74-.32,4.13-.2,1.39-.45,2.8-1.01,4.24l-.2.54-.27.54c-.18.36-.36.71-.62,1.05-.47.7-1.06,1.26-1.66,1.77-1.23.99-2.58,1.64-3.92,2.16-3.24,1.19-6.56,1.64-9.87,1.87-3.32.21-6.64.15-9.95-.07-6.62-.45-13.19-1.62-19.55-3.37-6.98-1.94-13.81-4.5-20.22-7.98-3.2-1.74-6.29-3.74-9.13-6.08-2.83-2.34-5.44-5.07-7.39-8.3-1.19-1.99-2.13-4.17-2.6-6.48-.12-.58-.23-1.15-.28-1.74-.1-.55-.06-1.25-.05-1.89.07-.63.2-1.22.33-1.82.18-.56.34-1.13.53-1.68,1.67-4.3,4.03-8.05,6.36-11.81,3.57-5.66,7.34-11.16,10.98-16.73,3.66-5.56,7.19-11.18,10.48-16.88,5.1-8.88,9.45-17.95,12.87-27.41.71-2.1,1.4-4.15,2.03-6.28,1.21-3.95,1.85-6.58,2.42-8.41.3-.91.54-1.63.79-2.22.27-.59.55-1.04.83-1.45.26-.37.54-.87.75-1.07.36-.35.51.33.53,1.89.06,1.57-.31,3.97-.96,7.01-2.05,9-5.46,17.9-9.64,26.5-4.18,8.61-9.09,16.96-14.27,25.11-3.82,6.07-7.82,12.03-11.68,18.01-1.92,2.99-3.82,6-5.52,9.04-.85,1.52-1.63,3.06-2.3,4.59-.65,1.51-1.14,3.11-1.15,4.28h-.08Z"/><path class="cls-1" d="M142.69,193.55c-.42-.8-.58-1.46-.74-2.11-.14-.65-.25-1.28-.33-1.91-.16-1.24-.24-2.46-.29-3.67-.09-2.42-.03-4.82.06-7.2.2-4.77.61-9.5,1.14-14.22.39-3.44.76-6.89,1.31-10.31.49-3.02,1.04-6.03,1.69-9.02.66-3,1.4-5.98,2.44-8.94,2.09-5.88,5.45-11.35,9.9-15.73,3.88-3.89,8.7-7.11,13.97-8.79,3.36-1.09,6.91-1.85,10.51-1.7,1.79.05,3.59.28,5.35.76.87.25,1.74.55,2.55,1.01.4.23.82.42,1.2.68l1.12.82c1.66,1.67,1.04,1.61-.6.91-.46-.11-.97-.27-1.56-.41-.63-.07-1.25-.25-2.01-.25-1.43-.19-3.12-.25-4.93-.33-1.62-.04-3.25.08-4.87.29-1.63.18-3.23.55-4.82.96-3.16.91-6.17,2.31-8.87,4.16-2.7,1.85-5.21,4.17-7.37,6.72-2.16,2.57-3.99,5.42-5.47,8.49-1.8,3.66-2.85,7.75-3.74,11.95-.88,4.2-1.54,8.48-2.14,12.74-.66,4.68-1.19,9.38-1.56,14.09-.36,4.71-.61,9.44-.43,14.1.05,1.18.13,2.35.31,3.48.09.56.2,1.11.36,1.6.07.24.18.48.26.62.07.12.17.24.3.29.04.02.26.12.42.18.17.07.36.12.54.18.38.1.77.19,1.17.26.8.14,1.63.22,2.47.28,1.67.11,3.38.1,5.07.02,4.38-.2,8.77-.72,13.13-1.37,4.36-.66,8.69-1.49,12.95-2.51,2.15-.52,4.27-1.09,6.34-1.77,1.03-.34,2.05-.7,3.02-1.11.48-.21.96-.42,1.38-.66.21-.12.25-.15.37-.25.09-.08.19-.18.19-.31,0-.15-.02-.25-.04-.43l-.12-.84-.29-1.7c-.22-1.14-.45-2.27-.73-3.39-.34-1.42-.75-2.79-1.19-4.18-.83-2.58-1.49-4.21-1.94-5.36-.2-.59-.4-1.03-.49-1.45-.08-.42-.15-.76-.18-1.1-.03-.31-.11-.68-.09-.9.03-.37.45-.15,1.26.59.78.75,1.75,2.15,2.62,4.07,1.06,2.31,1.89,4.73,2.56,7.21.33,1.24.64,2.5.9,3.78.12.64.26,1.28.35,1.94.05.33.1.66.14,1.01.02.14.06.53.05.81,0,.3-.01.6-.04.89-.15.38-.32.78-.63,1.09-.3.31-.66.57-1.03.81-.38.22-.53.3-.8.43-.24.12-.48.23-.71.33-.93.41-1.85.74-2.77,1.04-1.84.61-3.68,1.12-5.53,1.59-3.71.94-7.47,1.71-11.25,2.37-4.55.79-9.15,1.42-13.8,1.79-2.33.19-4.67.28-7.04.27-1.19,0-2.39-.04-3.62-.18-.61-.06-1.24-.16-1.88-.3-.32-.07-.65-.15-.98-.26-.16-.05-.34-.12-.51-.18-.08-.03-.17-.06-.26-.1l-.39-.18c-.59-.32-1.07-.85-1.37-1.42l.05-.05Z"/><path class="cls-1" d="M220.61,138.3c.4.69.9,1.33,1.49,1.87.21.21.5.3.72.5.82.62,1.76,1.13,2.82,1.48.48.1.97.16,1.46.14.63.03,1.27.07,1.98.25.22.06.24.26.12.57-.12.3-.39.81-.79,1.07-.35.25-.74.34-1.14.47-.39.17-.8.09-1.2.07-.4-.03-.81-.08-1.2-.21-.39-.13-.79-.22-1.14-.44-.43-.26-.88-.42-1.32-.66l-.66-.32c-.21-.13-.41-.26-.61-.4-.88-.62-1.6-1.41-2.22-2.24l-.54-.79-.47-.82c-.24-.41-.4-.86-.61-1.28-.16-.44-.33-.88-.49-1.31-.11-.34-.26-.67-.41-1-.13-.33-.23-.68-.32-1.03-.05-.15-.09-.3-.11-.46-.04-.59.13-.8.62-.97.11-.04.22-.08.33-.11.37-.08.73.11.99.45.32.52.69,1.01.93,1.51.26.5.48,1,.73,1.48.14.38.35.72.5,1.1.21.34.38.71.62,1.03l-.05.04Z"/><path class="cls-1" d="M197.57,151.03c-.24.8-.48,1.6-.87,2.42-.39.81-.82,1.66-1.65,2.46-.9.9-2.41,1.5-3.69,1.04-.37-.1-.51-.17-.7-.24l-.52-.19c-.33-.12-.67-.24-.99-.33-.95-.29-1.88-.36-2.68-.32-.71.04-1.31.24-1.84.62-.28.17-.51.45-.75.72-.21.29-.43.66-.6.97-.31.63-.44,1.38-.38,2.15.04.77.27,1.57.67,2.28.7,1.29,1.95,2.17,3.37,2.46.91.2,1.89.14,2.81-.08.47-.09.94-.21,1.4-.37.47-.15.89-.4,1.44-.52.37-.06.56-.08.6-.03.04.06-.04.2-.1.59-.09.77-.76,2.09-2.2,2.79-1.27.52-2.69.71-4.12.57-1.41-.16-2.89-.67-4.05-1.65-1.15-.95-1.99-2.18-2.49-3.54-.5-1.35-.66-2.87-.28-4.33.2-.86.59-1.73,1.04-2.4.11-.18.21-.36.33-.54l.42-.51c.26-.35.6-.65.95-.94.7-.59,1.57-.99,2.44-1.22.87-.19,1.75-.25,2.55-.15.89.09,1.73.3,2.51.55.39.12.77.26,1.14.4l.8.3c.14.05.3.02.44-.05.08-.03.14-.07.19-.11.09-.05.18-.14.27-.24.36-.39.7-.95.97-1.58.66-1.56,1.04-3.37,1.3-5.18.38-2.75.56-5.58.48-8.37-.07-2.17-.39-4.29-.73-6.39-.09-.46-.17-.91-.26-1.37-.21-1.72-.14-2.24.53-2.78.15-.12.28-.27.42-.37.44-.32,1.24.3,1.66,1.63.65,1.95.94,3.98,1.16,6.03.21,2.06.28,4.16.24,6.27-.07,3.14-.34,6.3-1.14,9.54h-.08Z"/><path class="cls-1" d="M213.67,187.15c.21,1.93.02,3.76-.46,5.6-.19.65-.33,1.32-.62,1.94-.98,2.18-2.61,3.93-4.33,5.37-.78.63-1.55,1.26-2.38,1.8-1.08.65-2.19,1.35-3.51,1.38-.43-.03-.43-.22-.27-.7.08-.24.2-.52.36-.81.16-.3.34-.6.62-.76.47-.32.93-.66,1.36-1.02.45-.33.89-.66,1.33-1.01.87-.69,1.67-1.46,2.46-2.27.94-.98,1.49-2.31,1.94-3.57.49-1.39.72-2.91.66-4.44-.04-.93-.19-1.86-.49-2.74-.44-1.34-1.17-2.63-2.14-3.75-.75-.87-1.7-1.55-2.62-2.26-.2-.16-.43-.29-.62-.45-.71-.64-.75-1.05-.39-1.75.08-.16.16-.33.25-.48.32-.49.96-.59,1.66-.28,1.98,1.03,3.75,2.65,5.2,4.75.53.78.96,1.67,1.33,2.58.34.93.6,1.89.73,2.86l-.07.02Z"/><path class="cls-1" d="M284.14,119.62c1.4-.37,2.26-.2,2.99.21.19.13.39.25.55.49l.24.34c.07.13.09.26.12.38.1.45.06.83-.08,1.28-.2.63-.56,1.39-1.33,2.2-.65.7-1.42,1.39-2.14,2l-1.33,1.07-2.66,2.08c-.78.61-1.52,1.28-2.22,1.96-.96.82-1.81,1.72-2.93,2.4-.34.22-.4.11-.37-.3.01-.21.04-.5.1-.84.04-.36.16-.72.38-1.03.38-.56.77-1.11,1.18-1.64.42-.52.9-.97,1.37-1.43.94-.92,1.92-1.78,3-2.53.63-.46,1.22-.99,1.78-1.54l.57-.55c.22-.23.56-.48.69-.88.03-.22-.14-.33-.29-.34-.15-.02-.31,0-.47.03-.41.09-.85.26-1.39.54-1.42.73-2.84,1.54-4.15,2.47-1.02.72-1.91,1.59-2.81,2.43-.2.18-.38.38-.58.56-.76.67-1.09.76-1.65.45-.13-.07-.27-.13-.38-.21-.38-.28-.32-.86.18-1.46,1.49-1.79,3.4-3.26,5.35-4.71.73-.53,1.49-1.03,2.28-1.51l.66-.39c.37-.24.76-.44,1.14-.65.77-.39,1.56-.78,2.27-.97l-.03.09Z"/><path class="cls-1" d="M288.47,126.49c.98-.12,1.76,0,2.48.15l.88.37.88.42c.03.19.08.33.1.55.02.23.03.43.02.61-.02.36-.12.68-.31,1.02-.31.61-.91,1.3-1.8,1.93-.4.27-.81.54-1.23.77-.21.12-.42.25-.63.35l-.39.2-1.52.74c-1.01.48-2.03.92-3.04,1.37-.9.4-1.76.85-2.61,1.31-1.09.6-2.2,1.13-3.4,1.51-.37.12-.43-.04-.3-.45.15-.37.41-1.15.99-1.62l.76-.62.38-.31.41-.25c.55-.33,1.1-.65,1.66-.95,1.12-.6,2.24-1.19,3.42-1.67.7-.29,1.38-.66,2.03-1.07l.87-.55c.16-.1.34-.21.52-.37.09-.07.17-.17.22-.27.02-.05.05-.12.02-.16l-.11-.08c-.17-.13-.43-.18-.7-.19-.49,0-.73-.03-1.94.25-1.51.35-3.04.81-4.48,1.44-1.12.49-2.14,1.14-3.15,1.77l-.66.44c-.84.5-1.17.53-1.7.07-.12-.1-.25-.2-.36-.31-.35-.38-.21-.95.38-1.47,1.77-1.49,3.9-2.6,6.16-3.47.84-.33,1.7-.61,2.58-.86.45-.11.89-.23,1.35-.33l1.02-.21c.42-.08.81-.11,1.21-.14l-.02.07Z"/><path class="cls-1" d="M289.23,139.6c-.2.2-.65.39-.99.58-.37.19-.7.38-1.13.55l-1.2.52c-.38.17-.87.36-1.02.41l-2.64,1c-.63.25-1.22.57-1.83.82-.53.23-1.06.46-1.55.71l-.69.38c-.15.13-.44.28-.47.33-.1.06-.14.17-.18.29-.06.24-.12.55-.17.84-.11.59-.22,1.21-.35,1.83-.13.55-.22,1.12-.45,1.71-.11.28-.29.65-.46.89-.16.25-.34.48-.52.71-.47.58-.97,1.13-1.58,1.58-.62.43-1.39.74-2.19.78-.52-.03-.4-.23-.13-.56.29-.34.57-.98.93-1.56.38-.45.74-.94,1.04-1.46.15-.26.29-.52.4-.78.08-.16.04-.14.08-.26.02-.1.05-.21.07-.35.16-.51.29-1.16.43-1.82l.2-1.02.12-.54c.05-.19.07-.35.17-.69.11-.35.22-.71.5-.96l.35-.42c.12-.13.22-.19.33-.28.44-.36.85-.58,1.26-.84.82-.47,1.63-.87,2.45-1.22.9-.38,1.8-.72,2.69-1.05l1.33-.5.65-.22c.51-.2,1.18-.38,1.69-.82.1-.07.15-.23.06-.31-.07-.08-.17-.13-.27-.16-.2-.08-.41-.12-.64-.15-.45-.06-.97-.08-1.47-.04l-.78.08c-.33.04-.66.08-.98.14-.65.11-1.3.24-1.94.37-.28.06-.56.14-.84.2-1.05.21-1.4.14-1.77-.41-.08-.12-.19-.24-.25-.36-.22-.4.13-.95.94-1.25,1.19-.46,2.46-.78,3.75-1,.32-.05.65-.1.98-.14l.5-.05c.3-.05.63-.05.95-.08,1.26-.06,2.64-.08,3.64.15.76.16,1.29.42,1.64.72.18.15.32.3.43.48.13.17.21.35.29.63.1.3.09.62.05.8,0,.23-.12.41-.18.61-.11.2-.29.4-.44.6-.18.2-.48.42-.71.62l-.1-.02Z"/><path class="cls-1" d="M235.34,271.54c1.28,3.82,2.62,7.62,3.99,11.42.5,1.39,1.09,2.74,1.59,4.13,1.73,4.92,3.47,9.81,4.7,15.05.12.6.24,1.19.3,1.84.05.3.03.69.04,1.03-.04.4-.14.93-.29,1.17-.52,1.25-1.33,2.28-2.21,3.15-2.34,2.16-5.12,3.63-8.12,4.22-.99.04-.89-.17-.31-.87.28-.37.7-.78,1.19-1.25.5-.46,1.05-1.01,1.73-1.42,1.19-.75,2.28-1.61,3.19-2.53.43-.48.89-.9,1.21-1.39.19-.23.3-.48.45-.71l.16-.36.04-.09.02-.04h0c1.38.48.37.12.68.23h-.01s-.03-.02-.03-.02l-.12-.05c-.16-.07-.32-.12-.49-.16-.09-.02-.03,0-.05,0,.03-.14-.02-.9-.16-1.53-.12-.66-.3-1.36-.47-2.06-.36-1.4-.79-2.83-1.2-4.27-1.03-3.44-2.48-6.92-3.77-10.39-1.4-3.82-2.79-7.67-4.13-11.53-.81-2.38-1.61-4.77-2.42-7.15-1.2-3.62-2.28-7.3-3.35-10.94-.83-2.83-1.73-5.59-2.41-8.47-.14-.64-.31-1.26-.43-1.9-.35-2.42-.16-3.25.6-3.82.17-.13.33-.3.49-.37.54-.26,1.18.66,1.58,2.31,1.24,4.9,2.66,10.05,4.27,15.22,1.2,3.84,2.45,7.7,3.81,11.52l-.07.03Z"/><path class="cls-1" d="M217.03,109.69c2.79,3.27,4.92,6.91,6.44,10.88.12.37.27.72.38,1.11l.18.57c.02.1.08.17.08.32l.09.46.18.93c0,.3-.03.59-.04.89-.22.24-.2.56-.44.76-.16.24-.45.42-.69.61-.45.32-1.02.64-1.26.75l-.91.46c-.61.29-1.21.56-1.82.82-1.21.52-2.43,1-3.66,1.45-2.46.9-4.94,1.71-7.48,2.37-1.13.29-2.27.57-3.43.8-1.17.22-2.35.41-3.65.35l-.56-.06c-.21-.02-.45-.1-.68-.15-.47-.16-.85-.54-1.15-.92l-.62-.77c-.4-.49-.79-.95-1.19-1.4-.4-.44-.82-.86-1.28-1.24l-.17-.14-.04-.03s-.02-.04-.03-.06l-.08-.09-.31-.36c-.22-.22-.45-.45-.69-.66-.68-.59-.61-.59.27-.65.44-.02,1.09-.05,1.95,0,.8.13,1.61.58,2.33,1.21.29.25.55.51.82.77.24.28.48.56.7.84l.6.77c.05.07.02.01.02.04h.02s.25.03.25.03c.21,0,.41.03.66,0,.47,0,.98-.07,1.5-.14,1.04-.15,2.12-.39,3.19-.65,2.16-.54,4.34-1.2,6.52-1.9,1.68-.54,3.35-1.23,4.97-2.01.81-.39,1.61-.8,2.36-1.23.47-.29.46-.27.61-.38.06-.04.12-.09.16-.15.02-.07,0-.15,0-.22l-.05-.25-.2-.62c-.13-.44-.34-.88-.49-1.33-.35-.89-.74-1.78-1.18-2.64-.88-1.73-1.86-3.42-3.01-4.98-1.42-1.92-3.05-3.68-4.92-5.11l-1.08-.78c-.37-.25-.77-.44-1.15-.67-.75-.49-1.6-.76-2.41-1.1-.4-.19-.85-.23-1.27-.36-.43-.09-.85-.24-1.28-.29-.86-.11-1.73-.16-2.59-.07-2.69.23-5.19,1.5-7.12,3.21-.42.38-.81.77-1.18,1.19-.7.76-1.09,1.28-1.44,1.61-.17.17-.35.29-.54.37-.17.09-.37.15-.6.2-.21.04-.43.13-.63.15-.33.03-.55-.21-.61-.77-.07-.55.12-1.36.59-2.25,1.44-2.64,3.9-4.56,6.69-5.75,1.4-.6,2.93-.97,4.49-1.12,1.54-.13,3.21-.09,4.69.33,2.28.42,4.36,1.48,6.26,2.66,1.88,1.24,3.51,2.74,4.99,4.33l-.06.06Z"/><path class="cls-1" d="M216.17,172.14c1.84-1.26,3.58-2.84,4.96-4.59.51-.65.89-1.38,1.33-2.08,1.51-2.5,2.57-5.37,3.04-8.38.24-1.33.23-2.71.22-4.05,0-.87-.09-1.73-.14-2.6-.02-.43.04-.88.07-1.32,0-.44.25-.92.31-1.38.09-.57.15-.51.49-.09.17.21.5.5.94.86.37.37.66.83.88,1.35.83,3.75.44,7.74-.82,11.44-.78,2.19-1.52,4.52-2.78,6.58-.68,1.13-1.5,2.18-2.37,3.17-.9.94-1.83,1.86-2.85,2.66-1.24,1-2.57,1.9-3.98,2.65-2.11,1.18-4.43,1.94-6.76,2.44-1.8.41-3.61.76-5.46.78-.41.03-.81.03-1.22,0-.76-.04-1.26-.15-1.58-.36-.32-.25-.48-.5-.58-.83-.05-.15-.12-.3-.13-.43-.03-.23.12-.41.41-.59.29-.17.72-.39,1.22-.38,1.51-.13,3-.3,4.48-.58,1.47-.3,2.92-.7,4.33-1.24.52-.19,1.03-.41,1.54-.65.52-.19,1.02-.46,1.52-.69,1-.51,1.97-1.08,2.88-1.75l.05.06Z"/><path class="cls-1" d="M235.54,195.93c1.26-1.55,2.36-3.39,3.4-5.24,1.04-1.86,2-3.8,2.91-5.76.67-1.43,1.22-2.91,1.86-4.36,1.11-2.56,2.17-5.15,3.21-7.75,1.05-2.6,2.05-5.22,2.99-7.86.84-2.34,1.58-4.74,2.26-7.11.45-1.52.89-3.05,1.34-4.57.24-.76.44-1.52.72-2.27.3-.74.56-1.49.9-2.22.58-.88.51-.76.75.16.14.47.21,1.1.3,1.87.03.38.08.8.06,1.23-.03.43-.09.87-.19,1.32-.35,1.6-.7,3.21-1.11,4.79-.45,1.57-.92,3.14-1.43,4.7-1,3.12-2.11,6.21-3.36,9.26-1.49,3.65-2.84,7.53-4.43,11.25-1.79,4.07-3.68,8.11-6.11,11.94-.75,1.18-1.58,2.32-2.54,3.41-.47.53-1.04,1.08-1.62,1.52-.57.41-1.13.84-1.71,1.24-1.78,1.18-3.72,2.12-5.7,2.87-1.99.75-4.05,1.23-6.1,1.62-3.19.58-6.35.96-9.52,1.12-.7.04-1.38.1-2.08.11-2.59,0-3.4-.24-3.95-1.03-.13-.18-.29-.36-.36-.54-.25-.6.81-1.1,2.7-1.31,5.6-.56,11.36-.62,16.65-2.26,1.95-.61,3.83-1.42,5.58-2.45.43-.27.87-.52,1.29-.81l1.23-.9c.73-.57,1.33-1.19,1.96-2.02l.06.04Z"/><path class="cls-1" d="M264.57,128.71c.09-.4.19-.8.31-1.2.11-.41.28-.87.44-1.25.33-.78.69-1.5,1.07-2.2.77-1.4,1.6-2.73,2.49-4.02.65-.94,1.26-1.92,2-2.81.38-.46.77-.92,1.18-1.36l.63-.66.34-.33c.16-.17.35-.33.53-.49.35-.33.73-.61,1.09-.88.37-.23.73-.44,1.09-.6.72-.33,1.32-.37,2.04-.46l.28.18c.09.09.19.19.27.28.16.19.31.39.39.61.17.43.23.88.2,1.39-.05,1.01-.54,2.25-1.09,3.36-.81,1.61-1.6,3.15-2.33,4.7-.96,1.98-1.7,3.98-2.57,5.98-.5.59-.39.54-.72-.13-.18-.34-.27-.8-.35-1.37-.05-.56-.12-1.24.09-1.88.66-2.3,1.57-4.46,2.62-6.46l.74-1.49.18-.37s.02-.02.04-.03c.02-.02.05-.05.08-.08.06-.07.13-.17.2-.31.06-.13.13-.37.04-.49l-.03-.02c-.1-.09-.28-.02-.44.07-.08.05-.17.11-.25.18l-.12.11-.19.19c-.9.92-1.73,1.96-2.54,3.01-1.79,2.36-3.52,4.94-4.67,7.58-.6,1.58-.91,3.48-1.13,5.31-.33,2.81-.58,5.73-1.08,8.57-.38,2.21-.75,4.38-1.32,6.53-.12.47-.23.94-.38,1.41-.56,1.74-.92,2.23-1.56,2.41-.15.04-.3.11-.44.11-.46.02-.53-.79-.26-2.07.4-1.9.79-3.83,1.12-5.78.33-1.96.6-3.94.84-5.93.34-2.95.48-6.08,1.13-9.31h.06Z"/><path class="cls-1" d="M271,195.29c-3.35,7.16-6.99,14.2-11.23,20.94-1.56,2.45-3.14,4.91-5,7.2-.81,1.01-1.68,2-2.62,2.93-.91.97-1.98,1.75-2.98,2.6-.26.21-.5.43-.77.62l-.81.55-1.63,1.09c-1.09.72-2.26,1.29-3.38,1.93-4.61,2.37-9.5,4-14.45,5.23-4.4,1.08-8.86,1.94-13.29,2.55-2.85.4-5.71.7-8.58.92-1.43.09-2.87.2-4.31.2-1.44-.03-2.87-.03-4.31-.14-1.79-.25-1.55-.31-.06-.82.74-.27,1.8-.54,3.07-.89.64-.16,1.32-.35,2.06-.49.73-.13,1.51-.23,2.32-.31,5.75-.55,11.45-1.42,17.08-2.49,5.62-1.12,11.2-2.58,16.45-4.85.78-.35,1.56-.71,2.35-1.06.75-.42,1.5-.84,2.26-1.26.77-.4,1.47-.91,2.18-1.41.7-.5,1.45-.96,2.08-1.56.65-.57,1.32-1.12,1.95-1.7.6-.62,1.2-1.22,1.76-1.9,1.15-1.31,2.2-2.73,3.23-4.15,4.47-6.35,8.21-13.31,11.66-20.37,2.1-4.36,4.1-8.78,5.93-13.26,1.39-3.4,2.71-6.83,3.9-10.29,1.17-3.45,2.3-6.98,2.87-10.46.1-.66.16-1.36.13-1.91,0-.14-.03-.2-.04-.31,0-.1-.05-.19-.1-.27-.14-.17-.22-.24-.5-.45-1.01-.74-2.28-1.39-3.5-2.02-2.52-1.24-5.03-2.47-7.56-3.71-1.11-.57-2.22-1.11-3.32-1.75-4.08-2.39-5.14-3.86-5.24-5.19-.02-.31-.08-.67-.02-.88.26-.7,1.66.26,4.48,1.86,4.19,2.44,8.85,4.52,13.56,7.03,1.19.66,2.34,1.26,3.66,2.28l.27.22.35.34c.24.22.4.5.58.77l.22.43.11.47c.06.3.18.65.18.92.04,1-.05,1.69-.15,2.45-.45,2.86-1.19,5.45-1.99,8.05-2.43,7.66-5.49,15.05-8.78,22.33l-.07-.02Z"/><path class="cls-1" d="M210.73,139.02c-.02-.3-.11-.67-.18-1.04-.04-.19-.09-.38-.14-.56l-.08-.27-.04-.11s0-.03,0-.03h0s0-.01,0-.01c0,0-.02.01.06-.04l.31-.23.11-.09.06-.04.03-.02h.01s-.57.41-.57.41h0s0,0,0,0l.09.08.19.15.14.11h0s-.03-.02-.03-.02l-.06-.02s-.08,0-.11-.03c-.09-.03-.09-.07-.3-.05-.2.01-.45.06-.7.13-.5.13-1.02.34-1.55.53-.47.18-.9.45-1.31.71-.53.36-1.1.65-1.77.83-.21.05-.35-.19-.4-.56-.04-.36-.04-.9.2-1.23.4-.6.93-1.04,1.48-1.44.56-.4,1.16-.77,1.89-.96.44-.13.84-.31,1.34-.5.53-.2,1.33-.37,1.97-.18.18.04.36.12.53.19l.25.13s.15.09.22.16c.09.08.18.18.24.26l.08.12c.18.3.27.5.38.73.2.46.39.91.52,1.41.08.31.16.61.2.96.05.34.1.71,0,1.23-.02.1-.05.21-.08.31-.06.13-.12.25-.2.37-.12.22-.48.48-.66.55-.34.15-.76.2-1.15.14-.79-.15-1.24-.6-1.61-.97-.55-.6-1.06-1.14-1.43-1.82-.08-.15-.18-.29-.24-.46-.23-.62,0-1.01.74-1.16.16-.03.33-.06.48-.06.27,0,.52.06.74.09.21.02.43.07.53.16.35.3.69.66.98.93.15.14.29.26.39.32.05.04.08.03.1.05.04-.07-.12.14-.17.24-.08.16-.12.19-.17.3-.03.06-.06.17-.07.2-.01.03-.02.06-.03.1,0,.14,0,.01-.01.04,0-.02-.04-.19-.09-.24h0s0-.02,0-.02h0s0,0,0,0c-.08-.16.74,1.43.39.76h0s0,0,0,0h0s0,0,0,0c0,0,.02.02,0,0-.03-.03-.06-.05-.09-.06-.06-.02-.38-.16-.64-.15-.13,0-.37-.04-.55-.03-.08,0-.23,0-.24.01,0,0,0,.01,0,0,0-.05,0-.16-.02-.3l.08-.02Z"/><path class="cls-1" d="M381.33,61.09c-.05.19-.26.24-.54.24-.09,0-.28-.13-.29-.19,0-.13-.02-.26-.01-.38,0-.07.31-1.1.37-1.47.07-.35.18-.69.3-1.01.26-.65.57-1.27.86-1.91.07-.14.15-.27.26-.38.36-.4.61-.86.81-1.36.03-.08.09-.16.05-.28-.03-.1.11-.47.28-.84.18-.36.42-.68.5-.75.39-.3.72-.64,1.08-.96.05-.05.06-.12.18-.12.28,0,.34-.12.44-.23.14-.15.29-.29.47-.41.08-.07.27-.06.41-.09.13-.02.32.15.34.19.03.12.18.13.28.18.03.02.08.04.11.06.01.01.03.11.07.26,0,.14,0,.31.01.48,0,.35.02.73,0,.79,0,.01-.17.4-.35.81-.17.41-.35.84-.38.94-.03.1-.13.15-.21.22,0,.05-.63,1.22-.66,1.27-.18.21-.27.48-.6.6-.06.02-.09.08-.12.12-.25.4-.58.75-.89,1.12-.16.19-.28.4-.42.59-.03.04-.07.06-.11.09-.04.04-.1.07-.12.12-.3.49-.76.88-1.06,1.36-.08.11-.6.53-.67.66-.05.07-.38.2-.39.27Z"/><path class="cls-1" d="M386.4,63.28c-.03.15-.23.05-.53-.19-.1-.08-.32-.36-.32-.43,0-.12-.01-.24,0-.34,0-.06.44-.64.58-.85.14-.2.32-.35.5-.49.38-.28.76-.56,1.16-.82.09-.06.19-.1.3-.11.37-.06.69-.23.99-.43.05-.03.11-.05.13-.14.03-.16.92-.59,1.06-.58.39,0,.67,0,1,0,.05,0,.08-.04.15.03.15.17.23.11.33.1.13-.02.27-.02.41,0,.07.02.16.11.25.18.08.07.13.37.12.41-.03.11.05.24.09.36.01.04.03.1.04.13,0,.08-.5.79-.57.81-.02,0-.9.5-.99.56-.05.04-.12.01-.19,0-.03,0-.71.42-.74.43-.16.04-.28.17-.51.08-.04-.02-.07,0-.1.02-.25.14-.53.2-.81.3-.14.05-.26.14-.39.2-.02.01-.06,0-.09,0-.04,0-.08,0-.1.02-.29.18-.64.29-.9.53-.06.05-.48.12-.55.19-.04.04-.33-.07-.34,0Z"/><path class="cls-1" d="M388.97,67.54c-.12.11-.23-.09-.35-.48-.04-.12-.06-.51-.03-.56.07-.11.13-.22.2-.3.04-.05.76-.3,1.02-.39.24-.09.49-.12.73-.12.5-.01,1-.03,1.5-.01.11,0,.22.03.33.08.36.17.73.22,1.12.23.06,0,.13.02.2-.04.12-.12,1.16.05,1.27.14.29.22.59.38.86.61.04.03.1.02.11.12.03.24.13.24.22.29.12.07.24.15.35.26.05.06.07.2.1.31.03.11-.12.4-.15.43-.09.08-.1.24-.14.37-.02.04-.04.1-.05.13-.04.07-.92.38-.99.37-.02,0-1.07-.13-1.19-.13-.06,0-.11-.06-.16-.11-.02-.03-.87-.06-.9-.07-.16-.07-.34-.02-.48-.24-.03-.04-.06-.04-.1-.04-.3-.03-.58-.15-.87-.23-.15-.05-.3-.04-.46-.06-.03,0-.05-.03-.08-.05-.03-.02-.07-.04-.1-.05-.36-.02-.73-.14-1.09-.08-.08,0-.49-.19-.59-.16-.05.01-.25-.26-.29-.21Z"/><path class="cls-1" d="M244.51,171.29c-1.26,2.96-2.54,5.91-3.95,8.81-.51,1.06-.95,2.15-1.5,3.2-.97,1.84-1.99,3.67-3.11,5.45-1.15,1.77-2.3,3.55-4.02,5.07-1.52,1.28-3.23,2.25-5.11,2.82-1.2.37-2.44.56-3.66.51-1.22-.02-2.41-.2-3.55-.55-.71-.22-.59-.38.05-.64.4-.16.84-.34,1.29-.52.52-.19,1.12-.33,1.74-.43.55-.08,1.09-.18,1.6-.31.52-.13,1.02-.22,1.51-.38.97-.31,1.88-.75,2.74-1.31.43-.28.85-.6,1.26-.93l.51-.48.52-.56c.68-.81,1.38-1.7,2.05-2.63,1.61-2.25,2.77-4.97,4-7.58,1.34-2.88,2.66-5.8,3.92-8.74.77-1.81,1.53-3.64,2.25-5.47,1.09-2.78,2.2-5.58,3.14-8.39.73-2.19,1.26-4.4,1.87-6.6.13-.49.23-.97.4-1.45.61-1.78,1.02-2.27,1.87-2.41.19-.03.39-.09.57-.09.6.01.82.9.61,2.28-.29,2.06-.86,4.09-1.45,6.14-.6,2.05-1.3,4.1-2.02,6.15-1.07,3.04-2.27,6.06-3.46,9.08l-.07-.02Z"/><path class="cls-1" d="M328.04,250.92c0,2.59-2.1,4.68-4.68,4.68s-4.68-2.1-4.68-4.68c0-5.87,9.37-6.19,9.37,0Z"/><path class="cls-1" d="M368.78,250.93c0,2.29-1.85,4.14-4.14,4.14s-4.14-1.85-4.14-4.14c0-5.18,8.28-5.47,8.28,0Z"/><path class="cls-1" d="M357.42,269.51c0,2.1-1.7,3.8-3.8,3.8s-3.8-1.7-3.8-3.8c0-4.76,7.61-5.03,7.61,0Z"/><path class="cls-1" d="M128.9,115.14c-.21.02-.2-.26-.08-.73.04-.15.27-.54.35-.57.15-.06.29-.12.43-.14.08-.02,1.05.28,1.39.38.33.09.62.25.89.43.56.36,1.13.72,1.67,1.12.12.09.22.19.31.32.29.44.67.77,1.09,1.07.07.05.12.12.24.11.21-.02,1.22.93,1.29,1.11.19.43.41.83.6,1.25.03.06.1.09.05.2-.11.26,0,.34.08.45.1.16.19.33.23.53.02.1-.04.26-.08.4-.04.13-.38.33-.43.34-.15.01-.26.18-.38.28-.04.04-.1.08-.14.11-.09.05-1.22-.33-1.28-.41,0,0-.07-.07-.17-.17-.1-.1-.24-.22-.38-.35-.29-.25-.59-.52-.66-.56-.07-.05-.09-.15-.12-.24,0-.05-.94-.73-.97-.77-.14-.19-.37-.29-.4-.61,0-.06-.05-.09-.09-.12-.32-.25-.57-.59-.85-.9-.14-.16-.32-.27-.48-.4-.03-.02-.04-.07-.06-.11-.03-.04-.05-.09-.09-.12-.4-.29-.74-.68-1.2-.89-.1-.05-.44-.55-.57-.59-.07-.03-.11-.43-.2-.42Z"/><path class="cls-1" d="M127.47,126.31c-.09.15-.16-.13-.23-.67-.02-.17-.02-.7,0-.77.05-.15.1-.29.15-.39.03-.06.52-.33.69-.44.16-.11.32-.14.48-.15.33-.03.66-.06.99-.09.07,0,.15.02.22.07.25.17.5.17.75.11.04,0,.08,0,.12-.09.07-.15.74-.19.83-.12.22.17.44.27.66.41.03.02.06-.02.09.09.07.26.13.21.2.23.09.03.19.06.28.15.05.04.09.19.14.31.04.11.02.51,0,.55-.04.12,0,.31,0,.48,0,.06,0,.13,0,.17,0,.1-.54.77-.6.76,0,0-.2.05-.42.1-.21.05-.43.11-.47.13-.05.02-.09-.04-.14-.07-.02-.02-.65.17-.68.17-.13-.03-.26.06-.39-.17-.03-.04-.05-.03-.08-.03-.22.03-.45-.06-.67-.12-.11-.03-.23,0-.34,0-.02,0-.04-.03-.06-.05-.03-.02-.05-.05-.08-.05-.27.02-.54-.11-.81-.02-.06.02-.36-.24-.43-.2-.04.02-.17-.35-.21-.29Z"/></svg>