<?xml version="1.0" encoding="UTF-8"?><svg id="Layer_1" xmlns="http://www.w3.org/2000/svg" width="520" height="520" viewBox="0 0 520 520"><defs><style>.cls-1,.cls-2,.cls-3{fill:#231f20;}.cls-2{opacity:.1;}.cls-3{opacity:.35;}</style></defs><path class="cls-1" d="M312.23,249.76l-5.27.76c-.47.07-.89.34-1.15.74l-2.85,4.49-.76-5.27c-.07-.47-.34-.89-.74-1.15l-4.49-2.85,5.27-.76c.47-.07.89-.34,1.15-.74l2.85-4.49.76,5.27c.07.47.34.89.74,1.15l4.49,2.85Z"/><path class="cls-3" d="M242.52,168.28l-2.74,2.58c-.25.23-.38.56-.36.89l.18,3.76-2.58-2.74c-.23-.25-.56-.38-.89-.36l-3.76.18,2.74-2.58c.25-.23.38-.56.36-.89l-.18-3.76,2.58,2.74c.23.25.56.38.89.36l3.76-.18Z"/><path class="cls-3" d="M419.83,77.7l-3.87,3.65c-.35.33-.53.79-.51,1.26l.25,5.31-3.65-3.87c-.33-.35-.79-.53-1.26-.51l-5.31.25,3.87-3.65c.35-.33.53-.79.51-1.26l-.25-5.31,3.65,3.87c.33.35.79.53,1.26.51l5.31-.25Z"/><path class="cls-1" d="M131.79,87.59l-3.87,3.65c-.35.33-.53.79-.51,1.26l.25,5.31-3.65-3.87c-.33-.35-.79-.53-1.26-.51l-5.31.25,3.87-3.65c.35-.33.53-.79.51-1.26l-.25-5.31,3.65,3.87c.33.35.79.53,1.26.51l5.31-.25Z"/><path class="cls-1" d="M332.02,133.57l-3.85,1.81c-.34.16-.6.47-.7.83l-1.13,4.1-1.81-3.85c-.16-.34-.47-.6-.83-.7l-4.1-1.13,3.85-1.81c.34-.16.6-.47.7-.83l1.13-4.1,1.81,3.85c.16.34.47.6.83.7l4.1,1.13Z"/><path class="cls-3" d="M160.06,96.25l-3.85,1.81c-.34.16-.6.47-.7.83l-1.13,4.1-1.81-3.85c-.16-.34-.47-.6-.83-.7l-4.1-1.13,3.85-1.81c.34-.16.6-.47.7-.83l1.13-4.1,1.81,3.85c.16.34.47.6.83.7l4.1,1.13Z"/><path class="cls-2" d="M375.38,199.37c-.28.63-11.3,21.27-11.3,21.27,0,0-10.51,6.07-8.75,8.1s5.65,7.58,5.93,10.74,4.61,15.24,6.89,17.01c2.28,1.77,10.24,8.42,14.38,9.85,4.14,1.43,11.06,1.65,18.75-2.84,7.69-4.49,11.36-26.97,11.36-26.97l-8.19-17.84-13.26-3.44,1.06-18.64-16.88,2.76Z"/><path class="cls-1" d="M363.62,225.94c2.21,1.52,5.18.87,7.18-.68,2.14-1.65,3.12-4.31,4.01-6.77.27-.74-.3-1.67-1.05-1.85-.84-.19-1.56.26-1.85,1.05-.18.51-.37,1.02-.57,1.53-.05.14-.11.28-.17.41.08-.19-.02.05-.05.12-.11.25-.23.49-.35.73-.52,1.02-.89,1.6-1.69,2.32-.09.08-.22.19-.05.06-.1.08-.21.16-.32.23-.18.12-.38.23-.57.33-.04.02-.42.17-.12.06-.1.04-.21.08-.31.11-.23.07-.46.13-.7.18-.29.06.13,0-.05,0-.11,0-.21.02-.32.02-.13,0-.25,0-.38,0-.39,0,.28.08-.1-.01-.21-.05-.4-.11-.6-.17.31.1-.04-.03-.1-.06-.11-.06-.22-.13-.33-.21-.65-.45-1.69-.14-2.05.54-.4.76-.15,1.58.54,2.05h0Z"/><path class="cls-1" d="M365.53,246.56c1.76.31,3.56-.01,5.07-.98s2.64-2.38,3.1-4.09c.21-.76-.26-1.67-1.05-1.85s-1.62.24-1.85,1.05c-.04.15-.09.31-.15.46-.12.32.08-.17.02-.04-.03.06-.06.13-.09.2-.15.29-.33.54-.51.81.26-.39-.04.04-.13.13-.11.12-.22.23-.34.34-.05.05-.11.1-.16.14-.04.03-.28.24-.09.07s-.01,0-.06.04c-.07.05-.14.1-.22.15-.12.08-.25.15-.38.22-.08.04-.15.08-.23.12-.12.06-.33.09.04,0-.31.08-.6.22-.91.29-.14.03-.29.04-.43.08.4-.11.19-.03.05-.01-.07,0-.14,0-.22.01-.16,0-.32,0-.48,0-.08,0-.18-.02-.26-.02l.23.03c-.06,0-.12-.02-.17-.03-.77-.13-1.65.21-1.85,1.05-.17.73.22,1.7,1.05,1.85h0Z"/><path class="cls-1" d="M314,306.71c-.14-.57-.31-1.15-.53-1.7-.08-.2-.21-.38-.29-.58-.29-.71-.6-1.43-.98-2.11-.17-.3-.39-.57-.6-.84-.28-.34-.59-.65-.8-1.05-.07-.13.08-.25.31-.31.23-.06.55-.06.77.1.74.58,1.44,1.25,1.91,2.08.27.5.67.94.99,1.43.34.54.63,1.11.9,1.69.17.36.32.72.47,1.08.22.55.44,1.1.65,1.65.17.42.46.8.68,1.21.05.09.12.17.15.27.1.37-.1.54-.59.75-.11.05-.23.1-.34.14-.38.13-.76.08-1.04-.1-.36-.29-.56-.62-.77-.95-.19-.34-.4-.67-.48-1.05-.15-.55-.28-1.13-.47-1.69l.05-.02Z"/><path class="cls-1" d="M246.49,347.62c-.17-1.69-.11-3.35.02-4.96.05-.59.04-1.17.11-1.75.23-2.04.67-4.02.95-6.03.15-.89.18-1.79.33-2.67.15-1.13.31-2.27.61-3.38.09-.35.25-.28.43.05.17.32.42.91.46,1.57l.08,1.76c0,.29.03.58.02.87l-.08.86c-.11,1.15-.27,2.3-.48,3.46-.27,1.38-.27,2.84-.32,4.24-.06,1.55-.08,3.08.07,4.58.09.92.25,1.85.5,2.7.4,1.32.99,2.64,1.77,3.81.61.91,1.4,1.67,2.19,2.33l.53.41c.32.27.5.44.55.69.07.21.05.44-.04.75-.04.14-.06.29-.11.42-.14.42-.72.58-1.48.28-2.05-1.13-3.46-3.01-4.56-5.02-.41-.75-.76-1.54-1.05-2.37-.14-.42-.28-.85-.38-1.3-.1-.45-.15-.86-.21-1.29h.06Z"/><path class="cls-1" d="M281.83,302.71c-.45-.58-.87-1.2-1.35-1.77-.17-.21-.39-.37-.57-.58-.63-.73-1.31-1.43-2.05-2.05-.33-.28-.69-.51-1.05-.72-.46-.27-.91-.53-1.4-.77-.15-.08-.12-.19.06-.31.17-.12.52-.26.89-.21.32.05.63.12.93.22.28.13.55.27.81.42.51.31.98.65,1.42,1.05.52.48,1.16.85,1.71,1.32.6.52,1.18,1.06,1.7,1.66.32.37.63.75.94,1.12.47.57.89,1.18,1.35,1.74.36.44.81.8,1.21,1.22.09.09.19.17.27.27.29.37.22.59-.22.97-.1.09-.2.18-.31.26-.36.26-.77.3-1.06.11-.81-.6-1.39-1.38-1.98-2.17-.44-.58-.86-1.19-1.33-1.76l.04-.03Z"/><path class="cls-1" d="M294.01,303.2c.33-.66.76-1.27,1.21-1.78.16-.19.28-.4.46-.58.63-.6,1.31-1.09,1.97-1.55.29-.21.57-.42.84-.65.34-.29.66-.6,1.11-.74.14-.04.31.19.41.5.1.31.15.7-.02.9-.58.69-1.16,1.3-1.91,1.74-.44.28-.7.74-1,1.14-.33.44-.63.88-.85,1.36-.14.3-.26.61-.34.92-.12.48-.22.99-.13,1.46.07.37.34.68.57.92.05.06.12.1.17.15.14.21.02.37-.44.79l-.31.29c-.35.31-.77.41-1.12.22-.92-.65-1.24-1.86-1.2-2.9.02-.79.22-1.54.52-2.23l.05.02Z"/><path class="cls-1" d="M292.23,304.9c.13-.2.27-.38.41-.56.05-.07.05-.15.11-.21.21-.21.47-.37.69-.53.1-.07.16-.16.22-.26.08-.12.13-.28.34-.28.12,0,.86.85.84.98-.07.22-.15.39-.4.49-.16.06-.12.24-.2.34-.08.12-.18.25-.25.38-.05.08-.1.17-.13.26-.05.13-.12.27-.1.42.02.11.15.23.25.33.02.02.06.04.07.06.04.08-.08.11-.6.17l-.36.04c-.4.04-.74.02-.86-.07-.35-.27-.37-.6-.31-.91.04-.23.14-.45.24-.66h.04Z"/><path class="cls-1" d="M280.69,302.29c-.14-.48-.38-.97-.7-1.43-.12-.17-.28-.3-.41-.46-.46-.59-.99-1.18-1.58-1.67-.27-.21-.55-.41-.85-.59-.38-.22-.78-.4-1.12-.71-.11-.1-.01-.28.19-.44.2-.16.52-.32.79-.26.48.12.95.27,1.4.48.44.23.82.54,1.18.89.41.43.95.72,1.4,1.14.49.46.93,1,1.31,1.59.23.37.42.76.58,1.17.25.63.33,1.31.38,1.98.04.52.14,1.07.07,1.66-.02.13-.02.27-.06.39-.14.49-.51.47-1.04.21-.13-.06-.25-.12-.37-.19-.39-.24-.64-.58-.77-.83-.15-.62-.14-1.04-.19-1.6-.05-.4-.07-.83-.25-1.29l.05-.03Z"/><path class="cls-1" d="M287.41,307.17c.25,1.3-.4,15.39-.62,17.47s5.13.69,5.13.69c0,0,1.8-17.98.66-18.03s-5.18-.13-5.18-.13Z"/><polygon class="cls-1" points="286.49 330.02 286.42 333.04 290.26 331.61 286.49 330.02"/><path class="cls-1" d="M286.38,337.53c.23.48-.28,3.21-.28,3.21l4.7-3.04-4.42-.17Z"/><path class="cls-1" d="M286.29,345.05c.09.1-1.53,17.95-1.53,17.95l5.42.13,1.48-17.95-5.37-.13Z"/><polygon class="cls-1" points="261.68 331.17 285.34 333.3 285.25 336.99 260.99 335.44 261.68 331.17"/><polygon class="cls-1" points="249.04 324.44 260.19 330.58 259.32 334.92 248.93 329.1 249.04 324.44"/><path class="cls-1" d="M387.04,399.76c.39-1.8.02-19.37,4.16-18.73s8.75.65,8.75.65c0,0,3.73-.3,2.67,3.54-1.06,3.83-7.97,41.24-7.28,48.17s.23,12.78-4.03,10.28-1.68-3.64-5.77-1.37c-4.81,2.67-9.89.29-9.46-1.19s10.97-41.34,10.97-41.34Z"/><path class="cls-1" d="M392.92,434.64c.23-1.81.53-3.52.84-5.27.11-.64.17-1.28.3-1.91.45-2.23.95-4.44,1.58-6.62.27-.97.49-1.95.73-2.92.16-.62.29-1.25.48-1.86.21-.61.44-1.21.69-1.8.16-.37.24-.29.31.07.06.36.18,1.03.15,1.77-.13,1.3-.39,2.56-.59,3.84-.23,1.27-.44,2.55-.77,3.81-.41,1.51-.57,3.13-.81,4.7-.27,1.73-.52,3.47-.73,5.2-.13,1.06-.23,2.11-.19,3.14.04,1.55.4,3.07,1.36,4.23.74.91,1.76,1.52,2.81,2.09l.71.36c.89.46,1.07.8.97,1.43-.02.14-.03.29-.07.42-.12.41-.71.6-1.45.33-1.09-.41-2.19-.99-3.22-1.82-1.02-.82-1.98-1.95-2.54-3.3-.84-2.01-.78-4.07-.61-5.9h.05Z"/><path class="cls-2" d="M331.17,335.53s-10.73-1.5-13.07-4.66c-2.34-3.16-6.94-11.32-9.51-12.28s-4.65-1.85-4.65-.11,3.72,7.33,3.49,8.74-.73,1.47-2.43,1.46c-1.69,0-17.78-3.63-18.43-1.97s1.16,3.56,1.16,3.56l2.5,2.35s-7.6.33-6,2.11c1.6,1.77,6.56,2.98,6.56,2.98,0,0-4.37,2.11-4.6,3.98s1.92,3.18,3.74,2.78c1.83-.4,9.34-1.37,9.34-1.37,0,0-6.89,3.81-5.65,5.54s2.55,1.57,4.73,1.08,14.35-5.52,14.35-5.52c0,0,5.84-1.63,8.12-.51,2.28,1.12,5.11.71,7.21-2.54,2.1-3.25,3.13-5.61,3.13-5.61Z"/><path class="cls-1" d="M330.19,339.22c-.36.58-.73,1.16-1.09,1.74-.13.21-.2.44-.34.65-.47.72-.96,1.42-1.38,2.16-.2.32-.35.66-.49,1-.17.44-.26.9-.71,1.26-.18.1-.29.04-.52-.16-.21-.2-.56-.57-.56-.88.16-1.03.44-2.03,1.11-2.83.37-.49.54-1.1.81-1.64.3-.59.61-1.17.92-1.76.18-.36.37-.72.53-1.09.24-.56.5-1.11.63-1.69.1-.45.04-.94,0-1.39,0-.1-.03-.2-.04-.3.06-.35.25-.44.93-.42h.44c.46.04.91.27,1.02.61.33,1,.04,1.98-.29,2.87-.26.67-.6,1.3-.92,1.91l-.05-.02Z"/><path class="cls-1" d="M319.71,345.18c-.3.68-3.7,11.69-1.44,12.86,2.26,1.18,7.13-6.28,7.13-6.28,0,0,2.55-6.69-2.29-6.98-3.41-.2-3.4.39-3.4.39Z"/><path class="cls-1" d="M422.43,362.21c.57-.5,1.12-1.04,1.68-1.56.53-.56,1.09-1.08,1.63-1.62.39-.41.72-.86,1.12-1.26,1.35-1.45,2.64-2.97,3.84-4.58.54-.71,1-1.47,1.45-2.23.26-.5.53-1,.87-1.46.3-.48.62-.96.96-1.43.22-.29.34-.19.4.17.06.36.14,1.02,0,1.7-.26,1.21-.85,2.27-1.41,3.33-.56,1.07-1.25,2.06-2.07,2.96-.96,1.09-1.77,2.34-2.74,3.45-1.05,1.23-2.2,2.38-3.43,3.44-.73.68-1.53,1.28-2.29,1.92-1.2.92-2.43,1.8-3.71,2.6-.97.65-1.93,1.31-3.03,1.75-.24.1-.47.22-.71.31-.95.27-1.29.23-1.57-.1-.07-.08-.14-.15-.19-.23-.15-.27.15-.63.72-.94.43-.21.83-.51,1.25-.77.42-.24.81-.57,1.22-.85.42-.25.83-.54,1.24-.83.42-.28.83-.57,1.23-.89,1.22-.89,2.38-1.89,3.51-2.93l.04.04Z"/><path class="cls-1" d="M384.26,338.14c-.32.02-.66.07-.98.17-.12.03-.21.12-.33.16-.41.13-.85.3-1.22.56-.18.1-.27.29-.42.42-.17.2-.27.41-.74.44-.14.02-.18-.02-.29-.17-.11-.15-.41-.51-.43-.76.11-.75.71-1.2,1.36-1.44.38-.15.68-.43,1.04-.61.4-.19.82-.32,1.24-.42.26-.06.52-.1.78-.14.39-.07.8-.06,1.19-.11.3-.03.61-.17.93-.2.07,0,.14-.02.21,0,.26.05.32.2.28.65l-.03.3c-.05.33-.19.6-.35.72-.13.09-.24.16-.34.23-.11.05-.21.07-.31.09-.21.05-.41.06-.61.08-.3.03-.62.03-.94.09v-.04Z"/><path class="cls-1" d="M392.52,339.78c-.31.08-.62.18-.91.32-.11.05-.18.15-.28.2-.38.18-.75.41-1.09.68-.17.11-.28.26-.4.41-.14.2-.25.41-.49.57-.08.05-.25-.05-.42-.21-.16-.16-.33-.4-.31-.57.14-.57.32-1.2.89-1.49.31-.19.5-.51.77-.74.3-.25.63-.47.97-.66.21-.12.43-.22.64-.32.33-.16.67-.26.98-.43.24-.13.45-.36.69-.54.05-.04.1-.1.16-.12.22-.1.33.02.5.55l.12.37c.12.42.12.79.03.94-.28.45-.62.61-.99.77-.27.11-.56.21-.83.34l-.03-.04Z"/><path class="cls-1" d="M373.3,324.66c-.31-.01-.63,0-.94.07-.12.02-.21.1-.32.13-.4.11-.81.26-1.21.46-.18.09-.31.24-.45.37-.16.19-.29.39-.52.56-.07.05-.21-.03-.33-.17-.12-.14-.23-.37-.19-.55.2-.61.56-1.2,1.13-1.52.36-.15.65-.42,1.01-.58.39-.17.8-.29,1.21-.36.25-.05.51-.07.77-.09.39-.04.77.01,1.16,0,.3,0,.61-.07.94-.08.07,0,.15-.02.22,0,.25.09.28.24.16.68l-.08.3c-.11.33-.3.57-.46.67-.47.24-.8.18-1.19.19-.28,0-.57-.06-.87-.04v-.04Z"/><path class="cls-1" d="M394.04,272.37c-.76.32-1.51.69-2.2,1.18-.26.16-.46.4-.7.59-.86.65-1.7,1.39-2.36,2.27-.16.19-.29.4-.4.62-.12.21-.27.41-.38.63-.25.57-.56,1.11-1.01,1.64-.14.16-.3.09-.48-.14-.17-.23-.43-.67-.45-1.12.07-.75.3-1.46.65-2.11.4-.62.87-1.2,1.43-1.68.65-.59,1.2-1.3,1.87-1.88.74-.63,1.55-1.16,2.4-1.62l.79-.41.81-.36c.82-.36,1.69-.59,2.53-.87.33-.09.65-.22.98-.35.33-.12.66-.23,1-.34.15-.05.3-.11.45-.13.58-.06.77.07.9.75.03.15.06.28.08.42.05.42-.15.98-.5,1.11-1.02.49-2.04.68-3.08,1.02-.39.1-.77.26-1.16.37-.37.16-.77.29-1.13.48l-.03-.05Z"/><path class="cls-1" d="M392.88,269.67c.33-.12.65-.24.97-.35.12-.04.22-.11.34-.15.42-.12.85-.25,1.26-.38.18-.06.36-.13.53-.21.22-.1.44-.22.69-.23.16,0,.2.65-.03.79-.43.23-.85.43-1.33.56-.29.07-.53.26-.79.4-.29.15-.58.3-.87.45-.18.09-.36.19-.54.28-.27.15-.54.29-.78.47-.18.15-.32.35-.48.53-.03.04-.06.09-.1.12-.14.13-.23.11-.46-.11l-.15-.15c-.16-.18-.22-.38-.15-.52.22-.43.57-.73.96-.99.28-.19.59-.36.89-.52l.02.02Z"/><path class="cls-1" d="M359.72,228.12c.16-.55.31-1.11.47-1.66.06-.2.08-.41.14-.6.24-.7.46-1.39.76-2.06.12-.3.23-.6.33-.91.13-.39.25-.78.47-1.13.07-.11.19-.05.3.09.11.15.23.39.21.62-.11.82-.12,1.64-.46,2.4-.19.46-.22.97-.32,1.46-.11.54-.21,1.08-.32,1.62-.06.33-.12.67-.16,1-.06.51-.17,1.02-.18,1.53,0,.4.09.79.14,1.18.01.09.04.17.02.26-.05.32-.18.42-.52.49-.08.02-.16.04-.23.05-.26.03-.48-.1-.63-.35-.26-.37-.27-.74-.32-1.13-.03-.38-.03-.77,0-1.16.02-.58.15-1.15.27-1.71h.04Z"/><path class="cls-1" d="M388.59,201.65s-18.89,3.15-24.15-2.28c-6-6.19-5.51-16.59.52-23.65,5.97-7,13.84-4.85,15.33-5.41s4.31,3.7,4.31,3.7c0,0,1.83-9.18,9.18-12.08,7.34-2.9,13.16-1.59,17.75,0,4.59,1.59,8.27,10.12,8.27,10.12,0,0,6.46-3.49,13.77-1.75,7.32,1.74,10.69,7.47,11.37,9.75s-.16,9.53-.16,9.53c0,0,12.41-.06,16.83,4.61,4.41,4.67,6.65,14.8,6.52,15.38s-6.93,10.29-6.93,10.29c0,0,2.23.22,5.7,4.62,3.48,4.4,3.99,9.52,5.06,12.89,1.07,3.37-5.06,13.74-5.06,13.74,0,0,.36,6.56-.02,9.25s-3.49,11.75-8.91,13.32c-5.42,1.57-10.03.6-10.51.33s-4.28-4.58-4.28-4.58c0,0-2.46,5.03-7.45,8.59s-9.19,3.18-12.33,2.81c-5.7-.66-8.79-8.58-8.79-8.58,0,0-3.64,3.99-7.86,2.38-4.21-1.61-11.77-5.71-10.6-10.57,1.17-4.86,6.06-9.38,6.06-9.38,0,0-.9-.64-1.76-4.66s.86-8.11.86-8.11c0,0,4.18.44,5.04-3.82s.74-7.98-1.18-9.37-3.38,1.65-8.39,1.56c-5.01-.09-5.73-4.2-5.73-4.2l2.74-8.61s-6.05-1.89-6.69-4.77,1.51-11.08,1.51-11.08Z"/><path class="cls-1" d="M95.22,309.28c-.79,1.34-1.61,2.65-2.42,3.94-.3.47-.52.99-.83,1.45-1.09,1.63-2.19,3.25-3.28,4.88-.51.71-.95,1.45-1.38,2.19-.53.96-1.24,1.83-1.94,2.7-.23.27-.3.18-.34-.16-.03-.34-.11-.99,0-1.65l.19-.86.1-.43.16-.4c.22-.52.44-1.05.68-1.56.25-.51.48-1.03.78-1.51.31-.47.63-.94.97-1.4.81-1.1,1.36-2.4,2.03-3.6.73-1.32,1.48-2.64,2.18-3.97.44-.82.86-1.64,1.26-2.48.61-1.26,1.22-2.53,1.65-3.85.29-1.04.48-2.07.66-3.1l.11-.68c.23-.82.5-1.04,1.14-1.13.15-.02.29-.05.43-.06.47-.01.8.41.91,1.14.1.54.11,1.08.07,1.6-.03.53-.05,1.08-.15,1.6-.15,1.07-.54,2.07-.91,3.07-.28.74-.61,1.46-.93,2.18-.34.71-.72,1.4-1.09,2.09l-.07-.03Z"/><path class="cls-1" d="M155.17,327.06c-.4.43-.82.94-1.17,1.49-.13.2-.2.43-.35.62-.51.68-1.03,1.35-1.51,2.06-.22.31-.34.67-.57.97-.27.4-.48.83-.83,1.2-.11.11-.3,0-.47-.2-.16-.21-.32-.54-.25-.81.14-.48.06-1.06.35-1.48.22-.45.47-.88.78-1.29.37-.48.53-1.1.81-1.65.31-.59.66-1.16,1.07-1.74.25-.35.51-.7.8-1.05.43-.52.95-.99,1.5-1.43.42-.34.82-.77,1.37-1.07.12-.07.23-.15.37-.19.24-.11.44.02.57.12.06.06.12.15.16.25.04.12.08.27.11.41.03.13.05.25.07.35.04.29-.09.92-.23,1.14-.43.59-.86.78-1.37,1.21-.36.29-.77.67-1.13,1.13l-.05-.03Z"/><path class="cls-1" d="M157.31,321.77c-.22.31-.45.62-.67.93-.08.11-.1.24-.19.35-.31.35-.63.73-.94,1.07-.13.16-.22.33-.3.51-.1.23-.16.49-.44.62-.16.08-1.22-.77-1.18-1.03.12-.46.29-.88.65-1.23.22-.21.22-.53.32-.79.12-.29.25-.58.38-.87.08-.18.16-.36.21-.55.09-.28.2-.56.22-.86.01-.23-.13-.48-.21-.71-.02-.05-.06-.1-.05-.15.02-.18.21-.21.87-.19l.45.02c.5.03.92.16,1.09.33.27.26.34.52.4.78.03.25.05.52-.05.75-.12.36-.32.69-.5,1.03l-.06-.02Z"/><path class="cls-1" d="M154.97,327.69c-.28.01-.54.08-.56.03-.24.15-.49.33-.71.57-.17.16-.27.4-.44.58-.62.67-1.16,1.5-1.61,2.38-.21.39-.35.8-.49,1.22-.17.53-.36,1.07-.66,1.58-.1.16-.25.09-.41-.1-.15-.19-.35-.53-.35-.87,0-.61.07-1.2.2-1.79.11-.59.33-1.17.64-1.71.37-.64.56-1.41,1-2.09.24-.37.53-.72.85-1.05.17-.17.32-.3.55-.49.27-.2.52-.31.76-.4.58-.2,1.11-.26,1.62-.33.41-.06,1.05-.12,1.51.11.47.23.88.6,1.16.93.45.54.88,1.05,1.19,1.71.06.15.15.29.19.45.06.62-.2.9-.86.93-.15,0-.3.02-.45,0-.5-.06-.89-.23-1.13-.39-.36-.25-.5-.54-.72-.8-.1-.12-.19-.25-.27-.33-.04-.05-.07-.08-.09-.12-.02,0,0,0,0,0,0,.01,0-.02,0-.03.04,0-.12,0-.19,0h-.25c-.16.02-.32.04-.46.06l-.02-.06Z"/><path class="cls-1" d="M141.2,379.82s-8.5-4.55-9.94,2.86c-1.45,7.41-2.77,55.58-5.19,58.36-2.42,2.78,5.83,3.75,8.42,1.87s4.1-.69,7.49.97,10.33.62,11.11-2.84c.78-3.46-1.62-28.75-1.62-28.75v-24.35s2.72-8.13-1.97-8.13h-8.29Z"/><path class="cls-1" d="M148.46,291.46c-.46-1.23-.58-2.49-.58-3.67,0-.43-.02-.86,0-1.29.13-1.5.38-2.91.54-4.35.07-.64.15-1.28.22-1.91.08-.81.17-1.63.34-2.44.05-.25.15-.21.27.01.11.22.28.63.33,1.1.07.84.14,1.68.17,2.52-.01.84-.12,1.67-.24,2.5-.15,1-.13,2.03-.12,3.02,0,1.09.1,2.15.41,3.14.19.61.46,1.18.83,1.71.56.79,1.27,1.51,2.11,2.06.66.43,1.4.69,2.1,1.04.16.07.32.13.47.21.54.36.66.6.58,1.05-.02.1-.02.21-.05.3-.09.31-.46.44-.99.38-.39-.03-.76-.14-1.13-.27-.36-.13-.75-.24-1.09-.45-.69-.39-1.37-.89-2-1.47-.93-.86-1.74-1.96-2.23-3.19l.04-.02Z"/><path class="cls-1" d="M147.27,292.23c.02-.22.04-.43.09-.64.01-.07-.01-.14.01-.22.09-.26.21-.5.31-.73.04-.1.05-.2.06-.31,0-.13-.04-.28.14-.37.1-.05,1.21.37,1.25.45.03.18.02.34-.15.51-.11.11-.01.23-.01.34,0,.12-.01.25-.02.39,0,.08,0,.17,0,.25.02.12.02.26.11.36.07.07.23.09.35.11.03,0,.07,0,.09,0,.07.03-.02.12-.43.44l-.28.22c-.31.25-.6.41-.74.4-.42-.03-.6-.29-.7-.56-.08-.2-.09-.43-.12-.64h.04Z"/><path class="cls-1" d="M159.55,286.82c-.09-.77-.5-1.75-.8-2.7-.11-.35-.27-.68-.38-1.03-.39-1.23-.78-2.47-1.21-3.68-.18-.54-.43-1.06-.63-1.59-.25-.69-.5-1.37-.68-2.09-.05-.22.06-.24.26-.12.2.12.53.36.78.71.94,1.21,1.49,2.59,1.99,4,.29.85.75,1.67,1.12,2.5.41.93.79,1.82,1.15,2.85.21.63.35,1.36.3,2.08-.05,1.1-.53,2.07-1.02,2.94-.38.68-.76,1.34-1.22,1.93-.1.13-.19.27-.3.39-.46.4-.71.42-1.12.19-.09-.05-.19-.1-.27-.16-.28-.2-.31-.58-.15-1.01.23-.64.6-1.14.87-1.68.31-.5.64-.96.87-1.43.35-.7.51-1.35.39-2.09h.05Z"/><path class="cls-1" d="M133.69,378.01c-.25-.53-.45-1.08-.58-1.64-.06-.2-.14-.39-.17-.6-.12-.73-.05-1.48.08-2.18.03-.31.09-.62.18-.92.07-.19.12-.38.2-.56.09-.18.21-.35.33-.5.08-.1.19-.03.31.11.11.15.29.38.33.58.06.37.18.71.21,1.02-.02.31-.06.63-.1.96-.06.4.09.8.18,1.2.1.44.23.88.41,1.3.11.26.24.52.4.75.23.36.5.71.84.98.27.19.61.28.92.36.07.02.13.05.19.08.22.13.23.29.12.71l-.08.29c-.1.31-.32.51-.61.54-.45.08-.84-.07-1.2-.26-.35-.2-.68-.46-.96-.75-.43-.43-.76-.94-1.05-1.46l.04-.02Z"/><path class="cls-1" d="M151.58,375.34c-.25.59-.6,1.14-.97,1.67-.13.19-.24.4-.4.59-.55.63-1.18,1.18-1.88,1.61-.3.21-.62.38-.94.54-.41.21-.86.38-1.34.35-.15,0-.16-.22-.1-.46.06-.24.17-.53.35-.65.33-.2.62-.44.91-.67.32-.19.64-.4.98-.62.41-.27.66-.72.93-1.12.31-.45.57-.93.81-1.44.15-.31.29-.63.41-.96.18-.5.35-1.02.43-1.55.07-.41.02-.84.07-1.25,0-.09,0-.18.02-.28.06-.34.18-.43.53-.45.08,0,.16-.01.24-.01.27,0,.47.18.54.45.09.4.17.81.16,1.22-.02.41-.08.82-.17,1.23-.13.61-.32,1.22-.55,1.83h-.04Z"/><path class="cls-1" d="M153.26,328.68c-.64,1.74-1.32,3.46-2.02,5.18-.25.63-.45,1.27-.73,1.89-.97,2.17-2.02,4.31-3.06,6.43-.46.94-.89,1.91-1.33,2.85-.27.61-.58,1.21-.89,1.8-.17.29-.3.6-.52.86-.22.26-.44.52-.67.79-.29.32-.26.27-.23-.11,0-.19,0-.47-.02-.82,0-.17-.04-.37-.02-.55.04-.18.08-.36.15-.54l.69-1.91.8-1.86c.54-1.24,1.09-2.47,1.68-3.7.7-1.47,1.2-3.1,1.76-4.66.64-1.72,1.26-3.44,1.84-5.18.35-1.07.7-2.14,1.02-3.22.49-1.65.94-3.27,1.34-4.97.33-1.31.58-2.7,1.35-4.01.16-.29.33-.58.55-.84.41-.5.79-.74,1.12-.8.3-.1.6.05.86.24.12.09.24.15.32.23.23.22.18.96-.14,1.49-.52.79-.81,1.72-1.14,2.74-.35,1.01-.64,2.14-.97,3.34-.49,1.8-1.09,3.58-1.69,5.36h-.06Z"/><path class="cls-1" d="M156.44,314.29c-.09.14-.18.29-.31.43-.04.05-.04.11-.09.17-.16.2-.3.41-.39.62-.04.1-.05.19-.04.29.01.12.06.24-.02.37-.04.08-.72.05-.78-.11-.04-.14-.06-.27-.08-.41-.04-.14-.05-.28-.01-.42.05-.17-.04-.34-.05-.52,0-.19,0-.38.09-.56.04-.11.08-.23.12-.33.05-.17.13-.33.15-.5.02-.13-.06-.29-.09-.44,0-.03-.03-.07-.03-.1,0-.11.13-.12.57,0l.3.08c.33.09.6.22.68.32.24.28.28.49.22.69-.04.15-.13.29-.18.43h-.04Z"/><path class="cls-1" d="M99.25,365.08c-1.32-.39-2.63-.79-3.93-1.27-.48-.16-.96-.29-1.43-.49-1.65-.68-3.26-1.46-4.75-2.44-.68-.4-1.34-.85-2-1.26l-1.24-.87-.29-.25-.24-.31c-.15-.2-.29-.41-.45-.63-.18-.27-.04-.35.31-.36.18,0,.42,0,.69.01.13,0,.28.02.42.04.07,0,.14.03.22.04.06.03.11.07.17.11,1.57,1.11,3.23,2.04,4.93,3.03,1.01.62,2.2.97,3.33,1.38,1.26.44,2.54.85,3.84,1.21.8.22,1.6.43,2.41.62,1.23.29,2.47.56,3.7.81.96.18,1.92.27,2.88.41.21.03.42.07.63.13.77.23.99.41,1.09.78.02.08.06.17.06.25.02.26-.34.41-.94.45-.89.08-1.79.05-2.68-.04-.9-.09-1.82-.15-2.71-.35-1.34-.27-2.68-.61-4.02-.96v-.05Z"/><path class="cls-1" d="M117.89,326.72c-.19.37-.37.73-.56,1.1-.07.13-.09.28-.16.41-.27.45-.57.88-.86,1.32-.13.19-.19.41-.29.62-.14.25-.13.59-.56.69-.16.02-.36-.11-.66-.35-.33-.26-.66-.58-.62-.73.07-.58.4-1.01.85-1.42.27-.25.32-.6.48-.91.17-.34.34-.68.51-1.02.1-.21.2-.43.3-.64.14-.33.29-.66.37-1,.06-.27,0-.55.03-.82,0-.06,0-.12.02-.18.06-.21.18-.26.52-.26h.23c.25.02.45.15.54.34.32.57.26,1.13.19,1.68-.06.41-.16.81-.29,1.2h-.04Z"/><path class="cls-1" d="M113.66,330.87c-.17-.04-.36-.09-.55-.08-.07,0-.12.05-.19.05-.25,0-.53.02-.77.11-.12.02-.21.1-.29.17-.1.1-.16.23-.37.25-.07,0-.28-.15-.47-.34-.19-.2-.37-.46-.33-.58.16-.41.43-.82.92-.86.27-.04.45-.23.69-.32.26-.09.54-.15.81-.17.17-.02.34,0,.51-.01.25,0,.5.05.75.03.19,0,.4-.15.59-.09.04,0,.09,0,.13.02.15.08.17.21.1.56l-.05.24c-.06.26-.18.47-.29.59-.08.09-.15.17-.22.26-.07.09-.13.17-.18.17-.11.05-.21.06-.31.06-.15,0-.31-.02-.47,0v-.05Z"/><path class="cls-1" d="M107.98,330.5c-.31,0-.62,0-.93.05-.12.01-.21.08-.33.1-.41.07-.8.19-1.21.33-.18.06-.33.18-.48.29-.09.08-.17.16-.27.24-.1.06-.23.1-.37.13-.09.02-.19-.09-.28-.27-.08-.17-.18-.46-.13-.65.34-.48.79-.91,1.39-1.04.35-.08.65-.28.99-.38.37-.11.75-.18,1.14-.22.23-.03.47-.04.7-.05.35-.02.71.02,1.06,0,.27-.01.55-.06.83-.05.06,0,.12-.01.18,0,.22.05.27.16.23.52l-.03.24c-.05.27-.19.47-.34.54-.45.21-.84.29-1.24.25-.29,0-.6-.03-.9-.01v-.04Z"/><path class="cls-1" d="M152.86,310.69c.3-1.59.56-3.19.66-4.76.03-.58-.01-1.15-.01-1.71-.03-1.99-.27-4.01-1.2-5.79-.41-.78-.96-1.5-1.61-2.09-.4-.39-.89-.67-1.32-1.02-.22-.17-.46-.32-.7-.48-.25-.12-.44-.42-.71-.57-.31-.26-.29-.16.05-.21.18-.03.44-.11.79-.21.34-.06.7,0,1.07.12.68.2,1.26.59,1.78,1.03.53.44,1.01.93,1.43,1.46.84,1.07,1.45,2.31,1.78,3.61.41,1.54.71,3.15.74,4.73.02,1.74-.17,3.43-.4,5.1-.14,1.03-.32,2.04-.49,3.06-.28,1.54-.67,3.06-.98,4.57-.23,1.18-.42,2.34-.72,3.49-.06.25-.11.5-.19.76-.28.94-.49,1.2-.86,1.32-.08.03-.17.07-.25.08-.26.03-.37-.41-.34-1.13.06-1.09.12-2.17.18-3.26.11-1.09.3-2.17.46-3.26l.36-2.42c.16-.8.31-1.6.43-2.41h.06Z"/><path class="cls-1" d="M155.85,304.71c.06-1.65.14-3.32.37-5,.09-.61.12-1.23.26-1.84.24-1.07.52-2.14.97-3.16.18-.49.49-1.07.85-1.54.37-.46.78-.86,1.22-1.21.77-.63,1.59-1.15,2.41-1.63,1.06-.62,2.21-1.04,3.4-1.32.37-.08.38.11.17.43-.22.31-.63.81-1.19,1.17-.99.67-2,1.22-2.92,1.87-.9.65-1.74,1.38-2.19,2.23-.62,1.21-.91,2.67-1.13,4.09-.25,1.57-.37,3.19-.41,4.83-.03,1.01-.05,2.02-.04,3.03,0,1.54,0,3.09-.01,4.63-.01,1.2.02,2.38-.07,3.57-.02.26-.03.52-.06.79-.22.97-.41,1.26-.76,1.4-.08.03-.16.08-.23.1-.22.05-.4-.38-.46-1.08-.11-1.05-.1-2.09-.17-3.16-.09-1.07-.06-2.15-.06-3.24,0-1.65.02-3.3.02-4.95h.04Z"/><path class="cls-1" d="M142.34,292.56c-.59-.08-1.2-.15-1.8-.25-.22-.04-.44,0-.67-.06-.79-.19-1.58-.44-2.37-.76-.34-.14-.71-.29-1.07-.45-.24-.1-.45-.26-.62-.5-.08-.12-.17-.21-.21-.36-.05-.14-.05-.31-.06-.45,0-.19.1-.19.35-.23.13-.02.3-.06.48-.14.16-.06.3-.12.42-.16.09-.02.18-.05.25-.08.05-.02.09-.03.14-.06h.1c.11.03.28.02.42.05.31,0,.62.21.99.37.44.23.95.11,1.45.14.55.02,1.12.11,1.69.16.36.03.71.07,1.07.08.54.02,1.09.07,1.63,0,.42-.05.83-.26,1.26-.4.09-.03.19-.09.28-.08.18.01.3.05.38.22.08.22.12.46.15.76l.04.39c.01.21-.02.39-.08.62-.06.22-.16.54-.28.6-.34.35-.7.45-1.06.55-.37.1-.74.12-1.13.14-.57.02-1.16-.02-1.76-.03v-.07Z"/><path class="cls-1" d="M168.71,287.81c-.59.02-1.19.03-1.78.05-.21,0-.42.08-.63.08-.77,0-1.55-.02-2.32-.02-.37-.05-.74-.06-1.12-.13-.49-.06-.98-.45-1.2-.9-.06-.15.01-.18.19-.21.17-.02.47-.16.67-.25.09-.03.18-.08.26-.13.04-.03.08-.04.12-.08l.11-.02c.15-.04.3-.08.46-.12.32-.12.68-.07,1.12-.04.52.06,1.02-.15,1.53-.23.56-.08,1.13-.16,1.7-.24.35-.05.7-.09,1.05-.14.53-.09,1.06-.14,1.57-.31.39-.13.74-.4,1.1-.61.08-.05.15-.11.23-.15.32-.09.5.15.72.65l.15.35c.14.39.11.78-.06,1.1-.58.69-1.35.9-2.11,1.11-.57.14-1.16.22-1.74.31v-.06Z"/><path class="cls-1" d="M138.12,286.36c-.16.21-.32.42-.45.64-.05.08-.04.18-.09.26-.25.27-.51.55-.69.86-.08.14-.13.28-.17.43-.04.19-.07.38-.23.56-.05.06-.24.03-.45-.04-.2-.07-.46-.2-.51-.33-.08-.23-.14-.45-.16-.68,0-.22.06-.44.18-.64.15-.23.06-.54.17-.79.12-.28.26-.54.4-.8.09-.16.18-.32.27-.48.13-.24.29-.47.37-.73.06-.2.02-.45.03-.68,0-.05-.02-.11,0-.16.05-.17.2-.15.73.1l.36.17c.4.21.69.44.75.6.18.46.08.77-.07,1.07-.11.22-.26.43-.37.65l-.05-.02Z"/><path class="cls-1" d="M124.06,278.07c-.42.58-.83,1.21-1.23,1.86-.15.24-.24.5-.39.74-.56.83-1.18,1.65-1.85,2.43-.3.35-.57.71-.86,1.07-.19.23-.39.44-.64.62-.25.17-.49.35-.83.38-.21.02-.29-.15-.36-.48-.09-.36-.14-.8,0-1.06.22-.47.53-.83.85-1.2.31-.38.63-.79,1-1.19.44-.49.64-1.15.96-1.75.36-.66.73-1.33,1.12-2,.24-.42.5-.82.76-1.24.4-.64.9-1.23,1.43-1.81.42-.44.8-.99,1.43-1.35.13-.08.26-.18.42-.23.28-.11.5-.1.65,0,.16.14.25.34.32.64.03.14.07.27.08.39.03.22,0,.42-.05.62-.05.2-.11.41-.19.49-.24.27-.41.51-.63.75-.23.23-.49.48-.75.79-.4.44-.79.96-1.18,1.58l-.05-.03Z"/><path class="cls-1" d="M121.72,274.29c.22-.13.43-.27.64-.4.07-.05.1-.14.18-.18.31-.14.63-.24.91-.37.12-.06.21-.15.29-.26.1-.13.15-.33.41-.28.16.03,1.19,1.41,1.13,1.56-.15.26-.35.44-.72.48-.23.02-.25.25-.4.36-.16.12-.33.24-.49.36-.1.08-.2.15-.29.24-.13.13-.29.25-.36.43-.05.14.03.35.06.52,0,.04.03.09.03.12-.01.12-.17.07-.76-.21l-.4-.19c-.45-.23-.8-.47-.88-.63-.23-.47-.1-.78.09-1.05.14-.2.34-.36.52-.53l.05.03Z"/><path class="cls-1" d="M147,272.02s5.09-2.08,6.84,0c1.75,2.08,1.89-6.72,0-7.13-1.89-.42-9.37.32-8.11,3.73l1.27,3.41Z"/><path class="cls-1" d="M146.45,265.86c-.95-.65-1.67-1.5-2.2-2.37-.2-.31-.42-.61-.57-.93-.53-1.16-.85-2.32-1.06-3.49-.1-.51-.24-1.01-.38-1.5-.17-.64-.27-1.3-.34-1.96-.02-.21.03-.19.17-.06.14.14.44.37.68.69.2.28.41.56.59.84.15.29.3.59.44.89.27.6.52,1.21.72,1.81.19.76.64,1.41,1.04,2.04.44.68.94,1.31,1.55,1.76.38.28.79.51,1.25.66.69.22,1.46.36,2.24.32.61-.03,1.19-.3,1.8-.4.13-.03.26-.08.4-.09.26-.03.43-.02.57.08.15.14.25.3.34.53.04.1.1.19.13.28.05.15.04.31-.03.49-.07.18-.17.44-.36.52-.54.33-1.11.71-1.76.83-.65.14-1.34.2-2.07.17-1.08-.04-2.21-.46-3.2-1.06l.03-.05Z"/><path class="cls-1" d="M152.9,265.49c-.71.15-1.42.25-2.16.29-.27.02-.53.08-.79.07-.47-.03-.94-.09-1.4-.19-.46-.12-.9-.28-1.32-.45-.38-.16-.76-.28-1.12-.48-.22-.13-.44-.27-.64-.45-.22-.14-.28-.49-.4-.72-.05-.17-.05-.14.12-.14.08,0,.21-.03.38-.08.1-.04.19-.07.26-.09.05-.02.08-.02.14-.05.04,0,.07,0,.09.01.93.04,1.57.3,2.4.54.49.16,1.03.08,1.55.04.58-.03,1.16-.12,1.75-.26.36-.09.73-.19,1.09-.32.55-.19,1.11-.39,1.61-.7.4-.23.69-.62,1.06-.89.08-.06.15-.13.24-.18.33-.18.52-.1.85.29.07.09.15.17.22.26.22.3.26.67.11.95-.42.92-1.21,1.36-2.04,1.81-.62.32-1.29.59-1.99.77l-.02-.05Z"/><path class="cls-1" d="M175.02,180.47c0,10.18-8.51,19.12-16.91,19.34-8.39.21-16.94-7.22-18.08-9.16l-1.41,8.71s-4.2,5.36-7.64,7.96c-3.43,2.59-11.71,3.37-11.71,3.37,0,0,2.73,10.61,4.04,12.17,1.31,1.55-.88,4.7-5.4,5.88-3.17.83-7.47-4.48-10.59-2.21-3.11,2.26-1.22,5.3-1.33,8.54-.11,3.23,6.52,6.42,6.52,6.42,0,0-5.94,11.13-2.9,12.05,3.04.93,8-1.12,10.07-2.06,2.07-.94-7.17-9.99-7.17-9.99,0,0,4.23,3.41,8.42,6.04,4.19,2.64,1.88,16.79,1.88,16.79l-1.88,10.95s-1.74,6.77-5.89,10.1c-4.14,3.32-5.98,1.2-11.65.89-5.67-.32-3.72,12.9-10.69,19.91-11.75,11.82-28.36,3.99-28.36,3.99-5.33-2.12-12.35-8.79-17.46-15.71-5.11-6.91-4.88-13.05-4.89-21.11,0-8.06,1.71-8.49,8.01-16.85,6.29-8.35,15.16-19.88,16.97-25,1.8-5.12.45-23.49.8-28.2.36-4.72,6.23-17.24,7.17-18.76.93-1.52,11.3-11.92,16.29-16.29,4.99-4.37,17.61-6.03,25.18-5.92,7.57.12,20.65,10.67,20.65,10.67l4.67-6.65s5.76-6.62,15.15-6.86c10.35-.27,18.13,10.83,18.13,21Z"/><path class="cls-1" d="M399.92,330.88c.73-.97,1.45-1.99,2.1-3.06.23-.4.38-.83.61-1.22.79-1.42,1.52-2.89,2.12-4.42.28-.67.49-1.38.69-2.07l.35-1.35c.15-.45.36-.88.57-1.31.14-.27.27-.2.44.08.15.28.43.81.48,1.39-.2,1.95-.52,3.92-1.41,5.71-.51,1.08-.81,2.28-1.32,3.39-.53,1.23-1.18,2.41-1.89,3.56-.47.69-.92,1.38-1.45,2.03l-.58.75-.63.71c-.4.49-.87.92-1.28,1.39-.66.72-1.31,1.46-2.1,2.08-.17.13-.31.31-.51.41-.37.18-.64.27-.87.24-.25-.06-.44-.19-.63-.39-.09-.09-.18-.17-.25-.26-.12-.15-.14-.33-.11-.57.03-.23.08-.56.26-.75.24-.33.5-.62.75-.94.25-.31.52-.58.75-.9.23-.33.53-.56.79-.85l.81-.85c.77-.89,1.58-1.79,2.25-2.81l.06.03Z"/><path class="cls-1" d="M176.62,251.54c-.55,3.14-1.35,6.2-2.45,9.21-.41,1.09-.79,2.17-1.24,3.19-.8,1.8-1.56,3.53-2.01,5.32-.47,1.85-.78,3.72-.84,5.59-.03,1.66.28,3.32.79,4.91.66,2.06,1.75,3.99,2.13,6.27.04.75.05.64-.5.25-.28-.19-.64-.49-1.09-.84-.41-.37-.82-.84-1.17-1.4-1.05-2.05-1.97-4.31-2.4-6.76-.2-1.23-.26-2.48-.21-3.7.04-1.23.31-2.42.56-3.59.33-1.36.7-2.85,1.18-4.22.47-1.38.99-2.71,1.51-4,1.16-2.77,1.94-5.65,2.45-8.64.31-1.83.54-3.68.61-5.52.08-2.77.08-5.66-.82-8.16-.07-.22-.16-.41-.25-.61-.09-.22-.14-.26-.21-.39-.13-.22-.29-.41-.45-.56-.17-.15-.34-.27-.51-.33-.09-.04-.17-.06-.26-.07-.04.01-.1-.06-.11.02l-.05.18-.09.4c-.04.22-.05.44-.07.61-.02.16-.05.27-.09.37-.01.01-.07.22-.12.31-.05.11-.09.21-.14.31-.21.37-.47.57-.83.74-.17.08-.33.18-.49.23-.27.08-.5-.07-.7-.43-.1-.18-.19-.41-.25-.69-.04-.14-.06-.29-.08-.45-.02-.19-.03-.27-.03-.6.08-.94.13-2.08.46-3.04.3-.97.65-1.91,1.03-2.95.22.08.36.09.62.22l.75.35c.48.22.96.46,1.43.72.94.58,1.86,1.55,2.56,2.79.16.3.36.65.49.93l.26.62c.15.41.31.82.41,1.22.25.82.4,1.63.53,2.44.53,3.36.21,6.62-.25,9.8h-.08Z"/><path class="cls-1" d="M158.51,258.31c1.3-1.92,2.58-3.7,3.64-5.56.19-.33.36-.68.48-1,.14-.35.29-.74.45-1.1,1.15-2.58,2.13-5.21,2.68-7.97.24-1.22.41-2.47.45-3.71.03-.8.02-1.6.07-2.4.04-.8.05-1.61.31-2.43.34-.53.23-.46.67-.06.23.2.46.5.75.86.25.36.42.81.51,1.29.59,3.43.15,7.05-1.12,10.33-.73,1.96-1.33,4.03-2.16,5.96-1.01,2.27-2.34,4.09-3.6,6-.81,1.15-1.46,2.27-2.27,3.52-.6.92-1.38,1.86-2.35,2.55-.49.34-1,.63-1.52.87-.51.23-1,.43-1.52.63-1.58.61-3.19,1.18-4.92,1.41-.38.05-.75.12-1.14.1-1.44-.06-1.87-.38-2.06-1.06-.04-.16-.11-.32-.12-.47-.04-.52.54-.83,1.44-1,1.33-.3,2.62-.48,3.91-.87.64-.19,1.28-.4,1.92-.65.62-.24,1.34-.54,1.8-.8.75-.41,1.3-.93,1.87-1.7.56-.76,1.12-1.75,1.74-2.76l.06.03Z"/><path class="cls-1" d="M119.68,253.94c-.42.14-.84.27-1.27.39l-.75.17c-.49.1-.97.19-1.46.27-.97.16-1.94.28-2.93.37l-1.09.12c-.18.02-.37.03-.56.05-.22,0-.55.01-.82,0-1.03-.05-2.01-.26-2.71-.76-.35-.24-.67-.59-.82-1.01-.15-.4-.15-.82-.1-1.27l.14-.69.21-.69c.07-.23.14-.46.22-.68l.17-.44c.23-.57.44-1.14.69-1.69.43-.99.79-2,1.15-3,.51-1.27,1.1-2.52,2.08-3.59.31-.33.59-.12.86.4.24.5.65,1.38.53,2.15-.12.68-.18,1.37-.33,2.03l-.69,1.9c-.24.63-.47,1.26-.75,1.87l-.44.91-.11.23c-.04.08-.08.16-.09.15-.04.03-.08.06-.12.1-.1.1-.18.23-.23.37-.07.15.03.29.16.33.13.05.27.06.4.07h.21s.13,0,.13,0h.29c1.7-.08,3.52-.38,5.25-.79l.4-.1c.13-.03.14-.03.23-.05.13-.03.27-.06.41-.1.14-.04.29-.09.41-.17.12-.09.18-.24.17-.39,0-.22-.09-.43-.19-.64-.05-.1-.11-.21-.17-.31l-.09-.15-.16-.24c-.47-.67-1.02-1.32-1.6-1.94-.91-.96-1.98-1.75-2.98-2.67-.22-.2-.46-.38-.67-.61-.78-.83-.86-1.3-.37-1.97.11-.15.21-.31.33-.44.43-.41,1.08-.4,1.7.04,1.9,1.31,3.85,2.87,5.67,4.9l.51.59.25.32c.14.15.27.37.4.56.54.77.93,1.61,1.06,2.43.12.8-.02,1.65-.48,2.34-.42.64-1.14,1.1-2,1.41l-.05-.07Z"/><path class="cls-1" d="M127.26,241.43c.31-.34.61-.54,1.11-.7.26-.04.61-.18.94-.13.32.07.6.12.84.23.95.46,1.68,1.24,2.33,2.7.47,1.01.9,2.24,1.18,3.56l.17.87.07.43.04.27.13,1.03c.09.68.13,1.37.18,2.05l.26,4.06c.09,1.19.23,2.39.33,3.56.07.76.2,1.51.2,2.27,0,.38,0,.76,0,1.14,0,.38-.15.78-.23,1.17-.22.5-.18.44-.57.08-.27-.24-.55-.5-.82-.73-.29-.31-.51-.69-.66-1.12-.27-.75-.44-1.51-.59-2.27-.15-.76-.34-1.51-.42-2.28-.18-1.53-.32-3.06-.39-4.6-.04-.92-.21-1.84-.38-2.76l-.26-1.24c-.03-.15-.06-.3-.09-.47-.06-.37-.13-.8-.29-1.27-.08-.23-.18-.48-.34-.7-.15-.22-.47-.36-.59-.17-.28.37-.34.91-.4,1.54l-.05.74-.02.39v.58c-.02.97,0,1.94.07,2.9.11,1.5.39,2.95.61,4.42.05.32.13.64.14.96.08,1.22-.06,1.62-.62,1.95-.13.08-.25.17-.38.22-.43.17-.87-.28-1.18-1.16-.89-2.61-1.21-5.45-1.43-8.32l-.05-.81-.02-.4-.02-.3c-.03-.13-.04-.27-.04-.4-.05-1.06-.09-2.16-.03-3.19.03-1.06.18-1.96.37-2.73.25-.65.52-1.17.85-1.47l.04.11Z"/><path class="cls-1" d="M134.48,288.3c.21-.36.38-.75.51-1.17.04-.15.02-.31.06-.47.14-.55.36-1.16.46-1.77.04-.27.03-.54.05-.82,0-.35,0-.7.15-1.07.05-.12.26-.13.52-.06.25.06.61.2.73.39.2.34.43.69.51,1.05.05.37.05.75-.03,1.13-.09.46.01.94-.03,1.42-.05.53-.17,1.06-.31,1.58-.1.32-.21.63-.31.94-.16.47-.41.9-.57,1.35-.12.35-.11.75-.17,1.13-.01.08,0,.18-.05.25-.14.26-.36.26-.97,0l-.41-.18c-.45-.22-.78-.52-.86-.79-.23-.78-.02-1.3.14-1.83.12-.39.37-.72.51-1.1h.06Z"/><path class="cls-1" d="M118.86,317.22c.56-1.54.95-3.14,1.43-4.73.15-.59.22-1.19.38-1.78.55-2.08.99-4.21,1.45-6.35.19-.95.3-1.92.39-2.87.1-1.23.16-2.47.75-3.66.18-.37.39-.3.73.06.17.18.38.43.6.74.2.3.33.64.37,1.01.09.64.06,1.28.02,1.92-.03.63-.08,1.27-.14,1.91-.13,1.27-.3,2.54-.67,3.8-.42,1.5-.52,3.11-.87,4.66-.34,1.71-.86,3.4-1.44,5.06-.38,1.02-.74,2.03-1.18,3.02-.61,1.52-1.41,2.97-2.16,4.41-.61,1.11-1.14,2.24-1.83,3.3-.15.24-.27.49-.45.7-.64.83-1.06.91-1.59.73-.12-.04-.26-.08-.36-.13-.35-.19-.37-.75-.09-1.43.98-1.89,2.01-3.78,2.89-5.78.61-1.5,1.26-3,1.71-4.59l.07.02Z"/><path class="cls-1" d="M54.47,394.21c3.13-7.25,6.39-14.42,9.59-21.61,1.14-2.64,2.28-5.27,3.42-7.9,4.14-9.23,8.28-18.45,12.14-27.78,1.72-4.14,3.31-8.35,4.78-12.54.92-2.7,1.83-5.4,2.71-8.11.43-1.36.97-2.68,1.42-4.03.47-1.34.93-2.69,1.54-4,.84-1.62.81-1.39,1,.21.27,1.62.37,4.58-.4,7.84-1.51,5.73-3.59,11.25-5.75,16.72-2.16,5.47-4.56,10.85-7.06,16.21-2.99,6.4-5.77,13.2-8.72,19.78-3.24,7.24-6.51,14.46-9.68,21.72-1.95,4.47-3.89,8.94-5.7,13.45-1.38,3.41-2.71,6.86-3.89,10.33-.59,1.73-1.12,3.48-1.57,5.23-.39,1.75-.79,3.51-.64,5.16.19,2.61,1.49,5.03,3.25,7,1.77,1.98,3.97,3.57,6.33,4.85,1.04.56,2.11,1.02,3.21,1.45,4.14,1.48,5.37,1.67,6.34,2.45.22.16.53.28.69.42.26.21-.06.52-.98.82-.92.3-2.41.37-4.21.05-2.65-.57-5.18-1.59-7.57-2.96-2.38-1.38-4.64-3.12-6.51-5.37-1.86-2.22-3.35-5.08-3.64-8.27-.07-.79-.07-1.6,0-2.37.1-.73.15-1.52.32-2.19.26-1.41.62-2.75.99-4.08,2.33-7.81,5.46-15.14,8.53-22.5l.08.02Z"/><path class="cls-1" d="M181.65,314.83c-.39-2.12-.7-4.26-1.02-6.38-.12-.77-.32-1.53-.41-2.31-.34-2.74-.58-5.49-.84-8.23-.11-1.22-.25-2.43-.43-3.63-.18-1.54-.57-3.07-.26-4.66.07-.49.47-.47.99-.11.26.18.57.43.86.75.14.16.3.33.4.52.1.19.17.4.21.61.6,3.08,1.16,6.15,1.27,9.33.09,1.9.61,3.81.94,5.71.37,2.09.75,4.18,1.19,6.26.27,1.28.52,2.56.83,3.83.46,1.92.93,3.86,1.57,5.71.52,1.44,1.22,2.77,1.9,4.11.15.3.32.58.44.88.46,1.14.39,1.59-.3,2.17-.15.13-.29.28-.45.38-.51.35-1.26.11-1.83-.67-.44-.57-.85-1.17-1.16-1.81-.33-.64-.66-1.29-.93-1.96-.57-1.34-1.04-2.73-1.47-4.14-.63-2.09-1.13-4.22-1.6-6.34l.08-.02Z"/><path class="cls-1" d="M172.92,418.25c-.89-4.77-1.65-9.58-2.5-14.38-.31-1.75-.71-3.48-1.01-5.23l-1.49-9.28-1.33-9.31c-.38-2.76-.88-5.51-1.23-8.25-.47-3.51-.99-7.06-.75-10.65.09-1.12.16-.97.5-.06.34.91,1.12,2.54,1.57,4.52.64,3.53,1.52,7.02,2.1,10.57.64,3.54,1.27,7.1,1.82,10.69.66,4.3,1.67,8.71,2.54,13.07l2.79,14.42c.54,2.97,1.08,5.94,1.63,8.91.82,4.5,1.6,9.02,2.33,13.54.17,1.06.34,2.12.48,3.2.07.54.13,1.08.17,1.66,0,.14.02.29.02.44,0,.17,0,.38-.02.57-.02.4-.12.78-.27,1.14-.27.45-.63.84-1.04,1.18-.52.37-.8.51-1.21.71-.75.33-1.49.58-2.22.75-.82.19-1.61.37-2.44.44-3.06.23-4.13-.3-4.59-1.27-.11-.23-.24-.47-.27-.68-.05-.73,1.03-.96,2.95-1.17,1.23-.14,2.48-.35,3.64-.7.58-.16,1.11-.38,1.57-.6.56-.3.36-.26.42-.34,0-.02,0-.04-.01-.05,0-.02-.02.02-.02-.21-.02-.37-.05-.76-.1-1.19-.1-.84-.23-1.72-.37-2.61-.29-1.78-.62-3.6-.95-5.42-.89-4.77-1.81-9.59-2.77-14.39l.09-.02Z"/><path class="cls-1" d="M143.97,382.09c-1.06-.02-2.11-.09-3.16-.21-.38-.03-.77,0-1.15-.07-1.35-.25-2.66-.71-3.91-1.21-.56-.21-1.13-.39-1.68-.61-.35-.15-.71-.27-1.05-.44-.33-.19-.65-.41-.91-.73-.12-.27.1-.58.52-.97.42-.39.97-.76,1.34-.68l.98.2c.32.08.65.11.95.25.61.23,1.23.48,1.86.77.76.37,1.64.28,2.48.4.93.11,1.87.19,2.83.21.59.01,1.18,0,1.77-.03.89-.06,1.81-.13,2.68-.35.68-.18,1.3-.55,1.93-.86.14-.07.27-.16.41-.22.26-.13.49,0,.65.12.17.14.31.36.47.7.07.16.15.31.21.46.2.51.1,1.04-.23,1.48-1.08.99-2.44,1.31-3.83,1.58-1.03.18-2.09.25-3.15.3v-.08Z"/><path class="cls-1" d="M355.01,227.33c.44-.74.83-1.13,1.23-1.6l1.2-1.29c.29-.3.51-.66.81-.95,1.05-1.02,2.19-1.94,3.22-2.96.45-.46.88-.92,1.28-1.41.56-.6.81-1.38,1.86-1.62.38-.05.24-.11.34.22.03.15.3.52.3.76.05.27.06.55-.02.8-.38.8-.83,1.53-1.32,2.24-.52.67-1.13,1.26-1.77,1.82-.78.66-1.32,1.57-2.01,2.31-.75.83-1.51,1.65-2.14,2.47l-.26.37c-.09.13-.11.15-.16.24-.09.15-.1.33-.07.51.08.72.59,1.58,1.29,2.23.55.52,1.27.85,1.95,1.24.15.09.32.15.46.25.54.37.58.68.23,1.36-.08.16-.15.32-.24.46-.31.49-.81.71-1.32.58-1.47-.46-2.84-1.35-4.06-2.86-.44-.56-.86-1.26-1.12-2.11-.12-.39-.23-.97-.21-1.53v-.21c.04-.07.03-.13.05-.2l.09-.4c.08-.26.21-.51.31-.76l.07.03Z"/><path class="cls-1" d="M385.69,214.35c-.47-1.19-.67-2.54-.68-3.67-.02-.42-.09-.84-.07-1.26.11-1.47.37-2.91.87-4.28.23-.61.4-1.22.66-1.82.35-.74.84-1.53,1.66-1.94.25-.13.4.16.5.56.08.39.22.9.14,1.23-.09.3-.15.61-.21.93-.07.31-.16.62-.24.94-.16.64-.27,1.31-.52,2-.27.83-.13,1.75-.07,2.61.02.48.07.95.14,1.42.07.45.16.88.32,1.3.18.53.43,1.04.73,1.52.47.71,1.05,1.4,1.79,1.8.58.31,1.26.33,1.83.28.13,0,.25-.05.37-.06.44.03.56.22.73,1.12l.12.6c.12.67-.12,1.26-.73,1.48-1.81.56-3.82-.29-5.14-1.5-1.02-.9-1.75-2.04-2.29-3.22l.07-.04Z"/><path class="cls-1" d="M399.17,251.82c-.5-1.06-.84-2.2-.98-3.33-.06-.41-.18-.8-.18-1.22.02-1.45.32-2.85.88-4.09.23-.55.45-1.1.68-1.65.32-.68.77-1.34,1.49-1.71.22-.12.45.13.67.52.19.38.48.96.44,1.32l-.15.91c-.09.27-.18.54-.26.81-.18.54-.33,1.09-.57,1.65-.3.69-.12,1.45-.03,2.16.09.79.28,1.57.62,2.32.2.46.45.91.76,1.32.47.61.99,1.24,1.68,1.63.53.32,1.18.34,1.75.42.12.03.26.01.38.04.44.13.51.37.42,1.28-.02.21-.03.41-.06.62-.09.68-.44,1.19-.99,1.3-1.62.33-3.19-.44-4.41-1.46-.93-.76-1.62-1.77-2.2-2.81l.07-.05Z"/><path class="cls-1" d="M434.86,280.98c-2.01.92-4.17,1.52-6.37,1.72-.8.06-1.61.19-2.42.12-2.86-.24-5.63-1.43-7.69-3.24-.93-.8-1.79-1.66-2.5-2.64-.94-1.22-1.61-2.72-1.64-4.27-.01-.48.25-.45.66-.15.4.3,1.01.79,1.43,1.39,1.47,2.19,3.5,3.8,5.83,4.96.69.37,1.46.58,2.27.69.81.1,1.63.08,2.44.08,1.79-.02,3.63-.38,5.36-1.07,1.07-.41,2.1-.94,3.06-1.59,1.47-.97,2.84-2.16,3.96-3.54.87-1.08,1.47-2.33,2.06-3.56.13-.27.23-.56.37-.83.5-1,.92-1.18,1.83-.97.21.05.43.08.62.15.66.22.96.93.73,1.83-.78,2.61-2.42,5.07-4.52,7.14-1.56,1.55-3.4,2.86-5.42,3.86l-.04-.07Z"/><path class="cls-1" d="M470.76,240.28c.29-1.74.29-3.6-.02-5.45-.11-.68-.37-1.32-.53-1.98-.61-2.36-1.6-4.63-3.04-6.63-.65-.87-1.47-1.61-2.35-2.2-.57-.38-1.18-.67-1.76-1.02-.61-.27-1.19-.76-1.88-.96-.41-.18-.35-.42.1-.7.22-.13.55-.31.95-.4.2-.05.43-.13.67-.18.12-.04.24-.03.37-.06l.36.05c.44.06.86.19,1.29.31.42.13.8.36,1.18.56.75.44,1.47.93,2.1,1.5,1.29,1.13,2.34,2.48,3.07,3.98.85,1.8,1.81,3.59,2.38,5.51.61,2.11.9,4.32.82,6.53-.04,1.36-.28,2.72-.63,4.04-.54,2.01-1.53,3.87-2.73,5.53-.92,1.29-1.9,2.59-3.22,3.64-.29.22-.57.47-.9.64-1.23.66-1.79.51-2.33-.3-.12-.19-.26-.37-.36-.56-.31-.68-.04-1.37.52-1.89,1.65-1.55,3.16-3.1,4.27-5.11.81-1.47,1.37-3.08,1.57-4.85h.09Z"/><path class="cls-1" d="M441.21,177.58c-1-1.45-2.28-2.76-3.82-3.75-.55-.37-1.18-.61-1.77-.92-2.09-1.04-4.47-1.74-6.93-1.66-.54.01-1.09.06-1.62.17-.54.07-1.07.23-1.59.36-1.33.42-2.62.98-3.95,1.52-.42.15-.56-.16-.41-.67.15-.49.56-1.3,1.34-1.74,1.36-.82,2.86-1.5,4.47-1.82,1.6-.31,3.27-.35,4.89-.07,1.92.34,3.94.7,5.73,1.6,1.97.96,3.73,2.31,5.18,3.93.89,1,1.68,2.09,2.31,3.27.99,1.78,1.53,3.78,1.77,5.79.18,1.56.26,3.17-.05,4.76-.06.36-.1.71-.23,1.05-.2.64-.43,1.02-.73,1.21-.29.2-.62.21-1.08.11-.21-.05-.43-.08-.62-.16-.66-.26-.97-.96-.81-1.71.33-2.28.48-4.39-.01-6.59-.39-1.6-1.06-3.23-2.13-4.64l.06-.05Z"/><path class="cls-1" d="M407.33,161.04c-2.13-.53-4.44-.55-6.71-.12-.83.15-1.62.47-2.43.72-2.86.88-5.67,2.33-8.03,4.35-1.04.89-1.93,1.96-2.67,3.08-.98,1.44-1.54,3.02-2.2,4.64-.2.51-.57.42-.96-.13-.2-.28-.39-.68-.53-1.19-.11-.49-.12-1.07.04-1.65.58-2.03,1.61-3.91,3-5.41,1.36-1.53,2.95-2.8,4.68-3.82,2.08-1.19,4.2-2.53,6.58-3.24,2.59-.79,5.36-1.1,8.08-.8,1.66.18,3.33.6,4.87,1.26,2.35,1,4.4,2.56,6.11,4.39,1.33,1.42,2.57,2.97,3.39,4.83.19.41.34.82.49,1.25.42,1.65.13,2.25-.77,2.61-.21.08-.42.18-.63.23-.73.14-1.32-.42-1.67-1.29-.53-1.31-1.2-2.52-2.02-3.65-.81-1.14-1.78-2.21-2.9-3.13-1.67-1.35-3.62-2.41-5.74-2.84v-.08Z"/><path class="cls-1" d="M390.16,336.07c.25-.12.47-.24.74-.33.28-.09.55-.18.85-.25.32-.05.64-.09.96-.1.35.03.69.06,1.02.13.46.16.99.25,1.32.57.15.13.3.26.44.4l.31.42.29.42c.08.14.13.28.2.42.26.55.47,1.12.59,1.68.1.5.2.97.25,1.44.08.59.14,1.18-.08,1.76-.07.18-.41.19-.81.09-.39-.1-.91-.31-1.09-.58-.27-.5-.61-.92-.78-1.32-.22-.39-.19-.8-.31-1.22-.09-.59-.58-.78-.76-.93-.17-.17-.47-.27-1.03-.09-.16.08-.33.14-.5.22-.17.11-.34.2-.51.32-.5.38-1.02.82-1.4,1.36-.3.43-.43.97-.61,1.47-.04.11-.05.24-.11.34-.21.37-.49.36-1.22,0-.17-.08-.34-.15-.5-.24-.55-.29-.9-.72-.9-1.14.05-1.18.58-2.21,1.38-3.1.6-.66,1.32-1.27,2.22-1.82l.05.07Z"/><path class="cls-1" d="M363.06,336.75c-2.42-.84-4.79-1.77-7.15-2.72-.86-.35-1.74-.63-2.59-.99-2.99-1.3-5.95-2.68-8.85-4.15-1.29-.64-2.62-1.23-3.93-1.8-.84-.37-1.66-.79-2.48-1.21l-.61-.33-.57-.4c-.38-.27-.75-.55-1.13-.83-.46-.36-.34-.44.21-.47.36-.02.75-.03,1.13-.05.23,0,.48,0,.74,0,.13,0,.26.02.4.01.12.04.25.07.38.11.89.29,1.79.56,2.67.88l2.57,1.1c1.7.75,3.41,1.51,5.07,2.39,1.99,1.06,4.21,1.81,6.33,2.66,2.34.94,4.69,1.85,7.06,2.68,1.46.5,2.93,1,4.42,1.42,2.25.65,4.52,1.24,6.81,1.55,1.77.23,3.54.19,5.22,0,.38-.03.72-.13,1.08-.18.33-.05.6-.08.83-.12.23-.02.43.02.6.04.33.05.57.22.82.5.12.13.26.24.36.37.16.22.13.47-.08.76-.21.28-.62.63-1.19.84-1.72.6-3.54.75-5.32.71-1.78-.05-3.56-.27-5.28-.63-2.57-.52-5.06-1.27-7.52-2.06l.02-.07Z"/><path class="cls-1" d="M361.62,324.1c-1.04-.41-2.08-.81-3.14-1.18-.38-.14-.79-.19-1.17-.33-1.35-.49-2.7-.98-4.08-1.39-.61-.21-1.23-.33-1.85-.45-.8-.14-1.6-.2-2.36-.57-.23-.18-.15-.5.14-.9.28-.4.75-.8,1.23-.78,1.69.1,3.38.29,4.96.98.95.39,2,.49,3,.76,1.1.29,2.18.63,3.27.96l2,.62c1.01.3,2.01.68,3.02.91.79.19,1.61.21,2.42.31.18.02.36.01.54.05.65.14.8.38.72,1.17-.02.18-.03.36-.06.54-.11.6-.5,1-1.01,1.03-1.52.11-2.98-.23-4.43-.62-1.08-.28-2.14-.68-3.2-1.04l.02-.07Z"/><path class="cls-1" d="M280.53,361.5l7.67.71c.93.08,1.87.08,2.8.18,3.28.35,6.56.7,9.84,1.05,1.45.16,2.92.25,4.37.33,1.86.06,3.73.19,5.55.85.56.26.48.33-.03.66-.52.38-1.46.92-2.54,1.04-.48.04-.96.14-1.43.12l-1.42-.04c-.95-.04-1.9-.08-2.85-.13-.95-.06-1.9-.13-2.85-.22-.95-.11-1.9-.24-2.85-.38-2.27-.35-4.66-.33-7-.49l-7.71-.56-4.75-.31c-2.4-.13-4.81-.32-7.19-.35-1.85-.02-3.68.14-5.51.23-.4.02-.8.07-1.21.07-1.51.01-1.98-.2-2.28-1.07-.07-.19-.16-.38-.2-.57-.13-.63.5-1.19,1.61-1.34,3.3-.48,6.76-.45,10.23-.33,2.58.08,5.17.29,7.75.46v.08Z"/><path class="cls-1" d="M269.04,297.81c-1.38-.18-2.77-.35-4.17-.48-.51-.05-1.02,0-1.53-.06-1.8-.16-3.6-.33-5.4-.49-.8-.08-1.61-.07-2.4-.06-1.02-.04-2.04.07-3.08-.31-.32-.1-.29-.28-.03-.58.13-.15.32-.34.54-.55.23-.22.49-.4.79-.45l1.57-.3c.52-.08,1.05-.1,1.57-.14,1.05-.06,2.11-.06,3.17.13,1.27.19,2.59.06,3.88.12,1.43.06,2.85.16,4.28.28l2.63.23c1.33.1,2.65.28,3.97.33,1.03.06,2.05-.06,3.08-.08.23,0,.45-.04.68-.03.84.05,1.08.29,1.15,1.12.02.19.04.38.04.57,0,.64-.41,1.11-1.03,1.21-1.82.31-3.68.21-5.55.04-1.39-.14-2.79-.29-4.18-.43v-.07Z"/><path class="cls-1" d="M312.68,303.26l-.58-.68-.26-.29c-.07-.08-.05-.08-.07-.11-.03-.04-.03-.05-.12-.09-.12-.06-.34-.12-.52-.18-.38-.12-.8-.23-1.22-.33-.53-.13-1.08-.15-1.62-.27-1.91-.43-3.85-.84-5.79-1.15-.86-.13-1.74-.25-2.6-.31-.55-.05-1.11-.05-1.67-.14-.55-.1-1.1-.24-1.65-.42-.34-.12-.29-.42.03-.79.31-.36.88-.87,1.54-1.03,1.17-.2,2.32-.17,3.48-.17,1.16.02,2.3.27,3.44.52,1.36.33,2.82.32,4.24.52.62.09,1.25.19,1.88.32.31.06.65.14.97.22l.59.17c.22.09.45.2.66.31.19.15.41.31.54.45.13.13.27.26.37.38.7.75,1.3,1.5,1.93,2.25.94,1.13,1.8,2.31,2.75,3.41.73.86,1.59,1.59,2.38,2.43.17.19.37.35.52.55.59.75.54,1.18-.1,1.79-.15.14-.28.29-.44.41-.52.4-1.21.4-1.71,0-1.52-1.2-2.83-2.73-4.13-4.29-.97-1.15-1.91-2.36-2.89-3.45l.06-.06Z"/><path class="cls-1" d="M257.9,303.81l-.93-.9-.9-.94c-.22-.22-.5-.37-.72-.59-.77-.81-1.53-1.63-2.33-2.37-.41-.33-.84-.8-1.15-1.2-.46-.48-.55-.99-.92-1.52-.1-.17-.02-.28.24-.39.25-.1.78-.26,1.26-.12.2.06.4.14.59.21.19.07.3.19.43.27.25.17.45.27.64.37.1.04.18.11.26.18l.37.29c.24.2.48.42.7.65.53.57,1.29.86,1.93,1.29.7.49,1.4.98,2.05,1.53.41.33.81.67,1.23.99.63.48,1.24,1.01,1.93,1.39.54.3,1.19.41,1.79.6.13.04.28.05.41.11.46.21.43.54-.04,1.44-.11.21-.21.42-.33.62-.4.68-.93,1.11-1.37,1.11-1.27-.05-2.24-.65-3.18-1.32-.69-.5-1.33-1.07-2-1.61l.05-.07Z"/><path class="cls-1" d="M245.53,340.17l.79-10.3c.1-1.25.09-2.51.2-3.76.2-2.2.38-4.4.64-6.6.26-2.2.51-4.39.73-6.59.19-1.95.39-3.91.51-5.85l.11-1.87c.05-.62.12-1.25.18-1.87.09-.62.11-1.25.29-1.86.21-.62.38-1.23.51-1.85.2-.77.31-.67.61,0,.16.34.35.81.66,1.39.14.29.37.61.48.94.09.33.16.68.19,1.05.13,1.29.25,2.58.22,3.86.01,1.29,0,2.57-.03,3.85,0,1.29-.18,2.56-.33,3.84-.16,1.28-.34,2.55-.55,3.83-.46,3.06-.66,6.26-.99,9.39l-1.15,10.33c-.22,2.12-.4,4.24-.56,6.36-.11,1.6-.23,3.22-.26,4.79,0,.2,0,.39,0,.58,0,.22.01.33.02.44,0,.12.05.22.13.31.07.09.15.16.28.32.53.55,1.13,1.08,1.73,1.6,1.88,1.61,3.89,3.01,5.86,4.52.43.33.88.64,1.3.99,1.58,1.31,1.93,1.96,1.64,2.87-.07.21-.11.43-.21.61-.36.59-1.27.39-2.43-.48-1.74-1.28-3.52-2.67-5.27-4.15-.88-.74-1.75-1.5-2.63-2.29l-1.33-1.22c-.23-.22-.45-.42-.7-.68-.09-.1-.37-.37-.5-.59-.16-.24-.33-.47-.4-.75-.07-.2-.1-.41-.14-.62-.03-.19-.09-.48-.08-.56,0-.24-.03-.51-.03-.73,0-.47,0-.92,0-1.36.02-.89.05-1.77.1-2.65l.31-5.23h.07Z"/><path class="cls-1" d="M368.94,371.36c6.24.67,12.5,1.12,18.75,1.16,2.28.02,4.55-.12,6.82-.23,3.98-.23,7.98-.58,11.72-1.62,1.83-.52,3.65-1.3,5.4-2.21,1.77-.87,3.42-1.96,5.04-3.09,2.81-2.1,5.34-4.62,7.54-7.35,1.42-1.76,2.68-3.65,4.02-5.5l1.98-2.81c.65-.95,1.41-1.83,2.12-2.74.95-1.1.92-.89.6.34-.16.62-.4,1.48-.7,2.52-.34,1.02-.83,2.16-1.48,3.34-.58,1.03-1.17,2.09-1.83,3.08-.67,1-1.35,1.99-2.08,2.95-1.45,1.93-3.04,3.79-4.8,5.52-1.77,1.71-3.76,3.2-5.83,4.54-2.09,1.31-4.32,2.4-6.6,3.31-2.86,1.1-5.8,1.69-8.74,2.15-2.95.43-5.91.69-8.84.77-6.45.19-12.86-.13-19.24-.68-3.93-.34-7.84-.78-11.74-1.3-5.91-.78-11.81-1.78-17.62-2.87-4.52-.85-8.97-1.61-13.42-2.69-.98-.25-1.94-.45-2.92-.75-3.62-1.05-4.68-1.75-5.17-2.74-.11-.23-.28-.47-.32-.66-.13-.66,1.45-.59,4.07.03,7.78,1.82,16.06,3.54,24.45,4.93,6.23,1.03,12.51,1.92,18.81,2.53v.08Z"/><path class="cls-1" d="M467.77,370.95c-1.89-7.55-4.03-15.04-6.43-22.45-.89-2.7-1.86-5.37-2.81-8.04-3.28-9.46-6.91-18.81-11.16-27.87-1.85-4.04-4.02-7.95-6.19-11.77-1.41-2.45-2.91-4.84-4.47-7.2-.77-1.18-1.46-2.42-2.24-3.59l-1.14-1.79c-.4-.58-.81-1.16-1.19-1.75-.93-1.51-.6-1.5.72-.63,1.31.86,3.64,2.63,5.77,5.22,6.96,9.59,11.95,20.31,16.27,31.25,2.55,6.57,5.34,13.34,7.69,20.15,2.58,7.48,4.89,15.05,6.96,22.69,1.3,4.69,2.44,9.43,3.55,14.16,1.64,7.19,3,14.47,4.14,21.7.89,5.62,1.75,11.15,2.19,16.79.08,1.24.19,2.46.26,3.72.04,2.34.03,3.88-.24,4.96-.22,1.08-.5,1.69-.89,2.17-.18.22-.35.51-.52.63-.57.41-.95-1.49-1.27-4.81-.55-9.86-2.04-20.22-3.95-30.56-1.46-7.67-3.17-15.34-5.14-22.94l.08-.03Z"/><path class="cls-1" d="M357.48,420.66l4.49-10.69c.55-1.3,1-2.63,1.55-3.92,1.94-4.56,3.9-9.1,5.8-13.66.82-2.03,1.54-4.11,2.26-6.16.43-1.32.87-2.65,1.3-3.98.44-1.32.85-2.65,1.51-3.92.59-.74.52-.65.79.19.15.42.25,1,.36,1.69.06.68.02,1.45-.16,2.25-.66,2.83-1.34,5.65-2.29,8.37-.94,2.73-1.98,5.42-3.16,8.07-1.46,3.15-2.62,6.56-3.95,9.83l-4.43,10.77c-.9,2.21-1.78,4.42-2.61,6.65-1.25,3.36-2.56,6.77-3.26,10.18-.12.66-.23,1.32-.25,1.95-.05.64.03,1.22.18,1.56.13.31.52.65.99.93.46.29,1.04.52,1.61.73.52.17,1.06.3,1.61.45,2.07.52,2.72.78,3.07,1.68.08.2.2.41.24.6.15.65-.89,1.09-2.64.91-1.3-.14-2.63-.39-4.01-.9-.69-.24-1.4-.6-2.11-1.09-.7-.52-1.49-1.3-1.9-2.49-.13-.51-.25-1.09-.24-1.48l-.02-.65.03-.58c.03-.79.16-1.47.27-2.18.25-1.39.59-2.69.95-3.99,1.09-3.84,2.49-7.51,3.92-11.16l.08.03Z"/><path class="cls-1" d="M398.83,384.61c-.94-.03-1.88-.08-2.82-.2-.34-.03-.69-.01-1.03-.1-1.2-.29-2.37-.71-3.48-1.19-.49-.2-.99-.37-1.48-.57-.3-.15-.62-.28-.91-.44-.28-.2-.53-.45-.74-.73-.13-.18.09-.48.44-.76.35-.28.86-.62,1.21-.6,1.22.1,2.18.49,3.28.95.66.31,1.42.18,2.14.22.8.02,1.62.13,2.45.11.51,0,1.03-.01,1.55-.05.78-.07,1.58-.12,2.35-.34.59-.17,1.13-.55,1.68-.85.12-.07.23-.16.36-.21.47-.19.69.03,1.02.92.08.2.16.4.23.61.22.7.17,1.34-.15,1.65-.94.87-2.1,1.21-3.31,1.43-.9.16-1.84.21-2.77.27v-.08Z"/><path class="cls-1" d="M176.79,165.43c1.82,2.76,2.99,5.83,3.61,8.96.62,3.14.71,6.35.25,9.5-.13,1.15-.42,2.29-.67,3.42-.36,1.12-.68,2.24-1.22,3.3-1.68,3.81-4.84,6.98-8.47,8.83-3.66,1.87-7.72,2.65-11.7,2.56-3.54-.09-7.09-.78-10.32-2.23-2.06-.94-4.06-2.15-5.71-3.76-.42-.4-.82-.81-1.18-1.27-.38-.44-.73-.9-1.02-1.4-.29-.5-.55-1.02-.79-1.54-.13-.26-.16-.56-.24-.84-.07-.28-.14-.56-.18-.85-.21-1.42-.1-1.21.77-.36.41.44,1.25.89,1.95,1.5.18.15.37.3.57.46.2.15.43.29.6.48.35.36.77.71,1.14,1.11,2.79,2.78,6.6,4.48,10.58,5.25,3.99.74,8.23.52,12.12-.83,2.31-.82,4.49-2.18,6.16-4.03,1.66-1.85,2.85-4.12,3.61-6.54,1.66-5.32,1.33-11.39-.9-16.58-1.41-3.16-3.59-6.01-6.49-7.84-4.45-2.69-10.2-3.09-15.29-1.54-4,1.12-7.52,3.42-10.46,6.15-.68.58-1.21,1.27-1.82,1.91-2.14,2.49-2.89,3.23-3.98,3.45-.24.05-.51.16-.71.17-.34,0-.42-.34-.3-1.04.14-.68.37-1.8,1.17-2.92,4.46-6.83,12.61-11.66,21.53-12.12,3.31-.16,6.75.42,9.85,1.92l1.14.6c.38.2.76.39,1.1.67.69.52,1.4,1,2.05,1.56.6.6,1.25,1.17,1.79,1.82.51.67,1.11,1.28,1.53,2l-.07.06Z"/><path class="cls-1" d="M41.21,287.21c-1.28-3.93-1.88-8.19-1.51-12.4.37-4.2,1.64-8.27,3.54-11.96.95-1.85,2.05-3.61,3.27-5.27,1.24-1.67,2.57-3.16,3.92-4.64,2.7-2.93,5.48-5.65,7.92-8.55,1.77-2.11,3.38-4.36,4.56-6.73,1.19-2.36,1.97-4.94,2.45-7.61.87-4.71.82-9.66.58-14.63l-.2-3.76-.03-3.94c.08-1.31.23-2.61.35-3.91.19-1.29.47-2.57.71-3.85,2.38-10.17,8-19.34,15.5-26.4,6.62-6.3,15.04-10.95,24.16-12.43,2.92-.42,5.88-.54,8.83-.35,2.95.21,5.87.76,8.71,1.62,5.68,1.65,11.01,4.97,14.66,9.67,2.07,3.1,1.32,2.86-1.11,1.07-.64-.4-1.41-.89-2.28-1.44-.95-.45-1.85-1.11-2.99-1.6-1.07-.58-2.33-1.05-3.58-1.64-.65-.26-1.3-.54-1.96-.84-.68-.26-1.39-.52-2.09-.81-5.09-1.83-10.64-2.6-16.04-2.05-2.7.28-5.36.75-7.92,1.74-1.31.38-2.56.97-3.81,1.52-1.28.5-2.44,1.27-3.66,1.9-4.77,2.77-9.07,6.45-12.67,10.73-3.6,4.28-6.58,9.13-8.64,14.37-.68,1.55-1.1,3.18-1.59,4.81-.25.81-.35,1.66-.53,2.49-.16.84-.36,1.67-.41,2.52l-.24,2.55c-.04.85,0,1.71,0,2.56v1.28s.09,1.34.09,1.34l.16,2.7c.19,3.62.31,7.31.02,11.02-.29,3.71-.99,7.47-2.45,10.99-1.61,3.92-4.08,7.25-6.7,10.3-2.64,3.05-5.46,5.82-8.02,8.72-1.28,1.46-2.51,2.92-3.58,4.47-1.08,1.55-2.03,3.19-2.83,4.9-1.6,3.41-2.59,7.11-2.74,10.87-.18,4.61.93,9.29,2.84,13.56,1.91,4.29,4.71,8.2,8.08,11.52,2.56,2.5,5.46,4.72,8.55,6.47,3.1,1.71,6.57,2.82,10.09,3.34,3.52.5,7.15.4,10.48-.66,3.38-1.08,6.56-2.78,8.93-5.3,1.84-1.95,3.13-4.34,3.97-6.91.88-2.58,1.22-5.28,2.02-8.15.22-.72.47-1.46.91-2.2.22-.37.48-.74.82-1.08.15-.17.37-.32.55-.47.2-.16.35-.22.52-.33,1.33-.84,2.98-1.36,4.6-1.39,1.62-.05,3.11.31,4.43.55,1.33.25,2.51.37,3.49.04.22-.06.44-.13.64-.26.2-.1.42-.2.65-.38.45-.31.91-.6,1.3-.98.85-.68,1.51-1.55,2.15-2.44,1.11-1.72,1.67-3.4,2.05-4.84.39-1.44.58-2.66.77-3.67.18-1.01.33-1.82.51-2.5.2-.68.41-1.22.64-1.71.22-.45.41-1.04.6-1.3.32-.44.62.27.91,1.97.16.85.23,1.96.21,3.3-.01,1.34-.15,2.92-.54,4.7-.55,2.62-1.69,5.3-3.58,7.52-.49.54-.97,1.08-1.54,1.54-.53.5-1.14.9-1.74,1.31-.27.21-.66.4-1.04.59-.37.21-.79.33-1.2.46-.83.25-1.68.31-2.49.31-1.59-.06-2.93-.41-4.1-.6-1.18-.2-2.18-.26-3.08-.07l-.67.19-.65.28c-.4.22-.98.55-1.02.64-.36.32-.79,1.38-1.08,2.52-.61,2.33-1.08,5.08-2.03,7.75-.93,2.68-2.37,5.36-4.4,7.54-1.01,1.09-2.14,2.06-3.34,2.92-1.22.83-2.49,1.55-3.8,2.14-1.32.59-2.63,1.08-4.03,1.48-1.42.43-2.86.65-4.3.81-4.29.39-8.53-.22-12.54-1.5-2-.65-3.96-1.49-5.82-2.54-1.84-1.06-3.53-2.21-5.16-3.5-3.26-2.55-6.18-5.55-8.68-8.87-2.45-3.36-4.48-7.07-5.77-11.08l.07-.05Z"/><path class="cls-1" d="M117.73,230.74c-1.81-.75-2.89-1.68-3.95-2.18-.52-.25-1-.37-1.47-.44-.47,0-.94-.02-1.45.17-.36.07-.75.33-1.09.5-.23.18-.48.35-.7.62-.83.88-1.37,2.47-1.4,3.97-.03.75.1,1.5.32,2.08.26.61.73,1.34,1.26,1.93.97,1.07,2.29,1.86,3.62,2.29.86.3,1.74.41,2.6.41.21-.03.43,0,.65.02h.66c.23,0,.44-.07.67-.08.24,0,.51.04.78.03.7.04.74.13.5.9-.12.38-.28,1.08-.74,1.54-.21.28-.49.5-.8.72-.31.23-.67.4-1.06.5-2.82.5-5.66-.34-7.73-1.96-1.06-.79-1.99-1.74-2.75-2.84-.19-.28-.38-.56-.54-.86-.16-.29-.33-.59-.48-.99-.3-.74-.43-1.46-.47-2.16-.09-1.65.09-3.2.55-4.74.48-1.51,1.32-3.1,2.88-4.13.45-.3.84-.45,1.24-.63.38-.19.83-.3,1.26-.42.42-.14.91-.15,1.36-.22.46.01.94-.02,1.39.08,1.85.28,3.28,1.23,4.49,1.93.75.44,1.44.81,2.06.93.6.12,1.26.03,1.66-.27.62-.43.98-1.6,1.01-2.82.04-1.23-.14-2.53-.41-3.81-.43-1.99-1.23-3.86-2.03-5.72-.18-.41-.37-.81-.55-1.21-.61-1.55-.72-2.06-.02-2.78.13-.15.22-.32.31-.42.22-.3,1.42-.07,2.02,1.09,1.03,1.64,1.91,3.42,2.63,5.32.36.95.68,1.94.94,2.96.27,1.02.47,2.09.54,3.22.05.84.07,1.71-.07,2.67-.14.94-.4,2-1.12,3.06-.71,1.08-2.05,1.91-3.23,2.11-1.17.24-2.44.08-3.37-.28l.02-.08Z"/><path class="cls-1" d="M129.72,205.57c.75-.37,1.39-.91,2.08-1.39.66-.52,1.28-1.1,1.88-1.7.4-.47.75-.99,1.18-1.44,1.4-1.7,2.59-3.63,3.46-5.74.16-.48.3-.96.42-1.45l.18-.73.09-.75c.26-1.27.2-2.54.96-3.84.22-.41.41-.36.81,0,.2.18.48.44.79.78.28.33.51.72.63,1.15.11,1.48.05,3.01-.46,4.43-.38,1.45-1.04,2.82-1.8,4.11-.97,1.51-1.72,3.2-2.88,4.62l-.97,1.15c-.35.36-.72.69-1.08,1.04-.7.72-1.54,1.28-2.32,1.88-.49.37-1.04.65-1.56.97-.51.34-1.06.6-1.62.85-.42.19-.83.41-1.26.57l-1.31.44-.65.22-.67.15-1.34.33c-.69.15-1.39.26-2.09.43-.7.16-1.42.18-2.14.26-.32.03-.64.09-.95.03-.59-.08-.97-.19-1.21-.4-.24-.23-.33-.54-.37-.96-.02-.19-.05-.39-.04-.57.01-.31.16-.58.4-.8.24-.23.57-.44.94-.48,2.2-.38,4.3-.53,6.4-1.18,1.52-.54,3.09-1.08,4.46-2.03l.05.07Z"/><path class="cls-1" d="M158.35,258.01c1.27-1.73,2.37-3.39,3.34-5.23.97-1.82,1.78-3.72,2.44-5.68l.33-1.08.14-.55.07-.27c.02-.09.04-.17.08-.36.13-.68.29-1.3.41-2.02l.35-2.16.17-.97c.06-.32.11-.68.19-.87.15-.44.3-.97.44-1.34.29-.72.57-1.17.87-1.64.31-.45.64-.88,1.13-1.27.23-.2.52-.42.84-.64.16-.11.33-.22.52-.33.04-.03.09-.06.13-.08h.1s.21,0,.21,0c.84,1.43,1.3,2.44,1.67,3.8.11.29.16.72.23,1.09.06.39.15.74.18,1.17l.07,1.35.03.67c0,.23-.01.49-.02.73-.05.92-.03,1.8-.13,2.74l-.14,1.34c-.03.32-.08.63-.12.94-.17,1.25-.38,2.5-.62,3.72-.3,1.58-.72,3.15-1.28,4.67-.55,1.52-1.27,3.02-2.39,4.27-.45.33-.67.44-.74.38-.08-.06-.04-.32-.11-.83-.07-.27-.04-.53-.05-.85,0-.33-.02-.68-.03-1.04-.01-.74.02-1.58.27-2.39.18-.74.37-1.48.51-2.23.13-.76.3-1.5.46-2.24.33-1.49.55-3.01.76-4.52.05-.54.06-.35.08-.41,0-.02.02-.05.04-.1.04-.08.07-.2.12-.36.07-.33.18-.86.15-1.68-.01-.21-.03-.43-.09-.62-.03-.27-.16-.18-.25-.17-.09.03-.17.1-.23.2-.13.19-.19.46-.24.73-.09.57-.14,1.1-.31,1.69l-.34,1.2c-.17.54-.33,1.08-.52,1.61-.36,1.07-.78,2.11-1.23,3.15-.91,2.06-1.98,4.04-3.2,5.92-1.52,2.32-3.21,4.37-4.51,6.59-1,1.68-1.68,3.44-1.94,5.29-.26,1.85,0,3.75.68,5.52,1.08,2.78,2.95,5.15,4.74,7.72.4.56.8,1.13,1.18,1.74,1.36,2.31,1.39,3.39.71,4.16-.15.18-.28.38-.44.5-.27.19-.61.07-1-.25-.21-.16-.38-.38-.56-.65-.21-.27-.43-.59-.63-.95-1.34-2.18-3.1-4.36-4.71-6.91-.81-1.27-1.55-2.67-2.15-4.19-.54-1.54-1.02-3.2-1.03-4.94-.11-2.58.61-5.12,1.68-7.32,1.08-2.15,2.43-4.01,3.66-5.78l.07.04Z"/><path class="cls-1" d="M158.14,336.85c-1-5.65-1.71-11.31-2.3-16.99-.22-2.07-.5-4.13-.65-6.21-.26-3.66-.46-7.33-.51-11.02-.02-1.85-.02-3.69.09-5.57.07-.95.13-1.88.32-2.89.05-.25.08-.49.18-.79.07-.27.17-.61.37-.9.09-.14.15-.33.27-.44l.31-.33.56-.58c1.4-1.24,2.97-2.02,4.52-2.71,1.56-.68,3.14-1.21,4.72-1.64,2.03-.56,4.07-1.05,6.12-1.43,1.03-.18,2.04-.4,3.07-.48,1.04-.08,2.07-.13,3.1-.18,1.28-.05,1.19.21.24.94-.48.36-1.17.88-2.03,1.4-.43.25-.89.56-1.39.78-.51.2-1.05.37-1.63.51-2.03.5-4.03,1.02-5.97,1.61-1.93.62-3.85,1.18-5.56,1.99-.84.4-1.66.83-2.3,1.34l-.49.37c-.12.13-.25.27-.38.39-.12.08-.1.1-.13.11-.02,0-.06.16-.12.31-.21.77-.32,1.81-.43,2.79-.09,1.01-.16,2.04-.21,3.08-.23,5,.29,10.25.69,15.4.45,5.66,1.03,11.33,1.84,16.96.5,3.46,1.08,6.91,1.89,10.28.33,1.26.66,2.54,1.11,3.72.22.58.48,1.14.8,1.72.29.58.61,1.15.96,1.69,1.36,2.21,2.99,4.27,4.81,6.1,1.42,1.42,2.95,2.7,4.61,3.76,1.64,1.07,3.36,2.02,5.17,2.69.78.34,1.6.51,2.4.78,3.03.79,3.99.81,4.66,1.72.15.19.37.37.46.54.16.29-.1.53-.74.76-.32.13-.74.2-1.25.25-.5,0-1.08-.02-1.74-.09-3.87-.51-7.63-2.18-10.87-4.5-3.28-2.3-6.1-5.24-8.46-8.52-.86-1.23-1.67-2.5-2.4-3.83-.18-.34-.37-.65-.54-1.02-.16-.37-.36-.76-.49-1.12-.29-.73-.53-1.46-.75-2.18-.85-2.87-1.45-5.71-2-8.56l.07-.02Z"/><path class="cls-1" d="M145.73,273.43c-.54-1.36-1.1-2.91-1.5-4.37-.42-1.47-.78-2.93-1.15-4.38l-.87-3.13c-.23-.92-.47-1.84-.73-2.74-.13-.45-.27-.9-.41-1.34l-.41-1.18c-.12-.37-.26-.73-.51-1.11-.13-.18-.28-.37-.49-.49-.09-.07-.23-.11-.31-.03-.08.07-.11.17-.14.26-.1.35-.09.77-.06,1.18.02.23.04.37.07.65l.14,1.23c.29,2.12.8,4.2.72,6.41-.27.76-.13.64-.72.19-.57-.45-1.46-1.36-1.86-2.59-.39-1.08-.55-2.21-.78-3.33-.1-.56-.19-1.13-.26-1.71-.13-1.06-.15-2.19-.1-3.16.06-.99.3-1.75.64-2.23.16-.26.36-.43.59-.61.21-.16.59-.33.94-.35.66-.04,1.28.27,1.85.69.57.43,1.11,1.12,1.57,1.94.28.47.53,1.03.75,1.54l.3.73.18.5c.23.66.46,1.33.69,2,.44,1.33.85,2.66,1.21,3.99.79,2.91,1.46,5.84,2.44,8.57.63,1.67,1.4,3.43,1.96,5.25.43,1.35.78,2.85.83,4.36.05,1.5-.2,2.97-.53,4.38-.52,2.19-1.27,4.25-2.08,6.23-.17.43-.34.86-.52,1.29-.68,1.58-.93,1.97-1.6,2.18-.15.05-.31.13-.45.15-.46.11-.72-.79-.37-2.12.52-1.95,1.23-3.76,1.78-5.58.55-1.81.95-3.62,1-5.36-.01-.32,0-.64,0-.96,0-.32-.05-.63-.07-.95-.09-.64-.19-1.21-.39-1.91-.37-1.36-.86-2.69-1.43-4.07l.06-.03Z"/><path class="cls-1" d="M131.83,246.14c.29-.51.59-.89.96-1.18.19-.14.41-.27.68-.37.14-.04.3-.07.46-.09.08-.02.17-.01.24-.05h.24c.62.13,1.04.28,1.45.65.41.33.78.82,1.14,1.44.52.88,1,2.1,1.3,3.39.07.28.14.56.2.85l.09.42.05.26.16,1,.27,1.99c.16,1.32.32,2.64.42,3.96.1,1.17.27,2.33.43,3.48.11.74.23,1.47.28,2.22.01.37.09.74.01,1.12-.09.39-.17.77-.21,1.15-.08.48-.18.43-.49.08-.16-.18-.37-.43-.7-.72-.15-.15-.36-.3-.48-.48-.1-.18-.19-.38-.24-.58-.47-1.46-.68-2.95-.97-4.43-.26-1.48-.49-2.96-.58-4.48-.07-.9-.24-1.81-.45-2.69l-.31-1.2c-.04-.14-.08-.29-.11-.45-.07-.36-.17-.77-.36-1.22-.1-.21-.24-.46-.47-.55-.24-.07-.39.12-.46.28-.19.43-.25.98-.27,1.62v.37s0,.51,0,.51l.04,1.42c.04.95.12,1.89.23,2.83.18,1.46.54,2.86.83,4.29.07.31.16.62.18.94.13,1.2-.12,1.63-.64,1.96-.12.07-.24.16-.36.21-.39.14-.82-.27-1.22-1.1-.56-1.23-.83-2.56-1.12-3.91-.27-1.35-.48-2.74-.64-4.14-.06-.52-.11-1.05-.15-1.58-.04-.58-.06-.85-.11-2.09-.02-.51-.03-1.02-.01-1.52,0-.51.03-.98.08-1.44.08-.93.31-1.66.55-2.26l.06.09Z"/><path class="cls-1" d="M124.5,245.39s-.01.14-.02.24l-.02.34-.02.69v1.41s.02,2.89.02,2.89c.04,1.95.07,3.92.04,5.91-.03,1.45.02,2.85-.01,4.27-.04,2.45-.16,5,.3,7.06.19.9.82,1.92,1.46,2.84.64.96,1.45,1.85,2.29,2.73,1.51,1.55,3.23,2.95,4.94,4.34,1.09.91,2.26,1.74,3.28,2.77,1.03,1.01,2.09,2.03,2.57,3.55.51.74.35.71-.35.35-.75-.34-2.57-.38-3.76-1.4-.57-.42-1.17-.8-1.73-1.25l-1.68-1.33c-1.13-.9-2.27-1.8-3.4-2.77-1.12-.97-2.24-1.99-3.29-3.15-1.04-1.16-2.04-2.46-2.73-4.03-.1-.24-.21-.45-.31-.72-.1-.27-.19-.54-.26-.8-.15-.53-.23-1.03-.31-1.52-.14-.98-.2-1.92-.25-2.86-.08-1.86-.09-3.67-.05-5.46.17-3.92.02-7.73,0-11.74.03-1.27-.04-2.23.26-4.22.15-.86.41-1.61.83-2.17.21-.29.46-.53.79-.71.33-.17.73-.22,1.1-.19l.1.02c1.13.18,1.9,1.11,2.49,2.26.29.55.54,1.25.72,1.8.15.46.27.92.39,1.38.46,1.84.74,3.67,1.01,5.48.42,2.82.85,5.59,1.14,8.4.06.62.15,1.22.18,1.85.11,2.33-.17,3.08-.93,3.57-.18.11-.35.26-.53.32-.59.2-1.05-.72-1.31-2.37-.69-4.88-1.01-10.11-2.03-15.05-.12-.55-.25-1.1-.39-1.63l-.22-.78-.11-.33s0,0,0,0c0-.01.01-.05-.02-.1-.06-.04-.09.02-.11.09h-.08Z"/><path class="cls-1" d="M137.09,355.93c2.06-3.01,3.81-6.35,5.35-9.79,1.54-3.44,2.9-6.99,4.12-10.58.9-2.62,1.63-5.3,2.39-7.97,1.36-4.7,2.54-9.46,3.53-14.25.49-2.4.91-4.8,1.23-7.21.3-2.38.56-4.88.32-7.06l-.14-.6c-.08-.1-.04-.19-.22-.37-.25-.33-.62-.62-1-.9-.79-.54-1.73-.97-2.71-1.33-1.96-.72-4.07-1.18-6.17-1.57-5.43-.99-11.03-1.17-16.55-2.5-1.72-.45-1.39-.84.14-1.19,1.53-.36,4.29-.87,7.51-.6,2.85.29,5.72.61,8.6,1.1,2.88.51,5.79,1.08,8.72,2.35.73.34,1.47.72,2.2,1.22.36.27.72.53,1.07.88.18.16.35.34.51.55l.24.3c.08.11.18.3.26.45.64,1.34.55,2.04.67,2.91.03.79.03,1.58-.01,2.33-.14,3.02-.61,5.89-1.15,8.76-1.31,6.85-2.8,13.91-4.86,20.71-2.29,7.46-4.97,14.84-8.74,21.77-1.16,2.13-2.44,4.21-3.97,6.16-1.5,1.95-3.33,3.76-5.42,5.13-1.58,1.04-3.29,1.9-5.07,2.52-1.79.61-3.63,1.01-5.48,1.25-3.71.45-7.43.24-11.03-.35-5.61-.92-10.96-2.56-16.07-4.93-1.12-.53-2.22-1.05-3.31-1.67-4.05-2.32-4.99-3.67-5.23-4.9-.05-.29-.15-.62-.13-.83.04-.37.5-.34,1.25-.02.78.31,1.89.89,3.27,1.7,4.12,2.37,8.65,4.36,13.37,5.82,4.71,1.45,9.66,2.39,14.54,2.26,3.6-.12,7.15-.84,10.25-2.44,1.54-.8,2.97-1.82,4.23-3.01,1.26-1.16,2.37-2.62,3.4-4.13l.07.04Z"/><path class="cls-1" d="M111.95,326.59c.83-.11,1.7.22,2.27.64.22.15.43.26.59.45.54.65.68,1.38.76,1.99.04.27.1.51.16.76.08.3.15.61.03.93-.04.1-.28.13-.56.11-.28-.02-.62-.08-.73-.21-.37-.46-.71-.78-.8-1.15-.07-.23-.33-.31-.45-.35-.14-.08-.21-.12-.34-.14-.08-.02-.2-.06-.33-.03-.19.04-.45.14-.55.38-.08.19.03.44.07.62.01.04.05.09.04.12-.07.11-.3.11-1.02.05l-.49-.04c-.54-.04-.98-.21-1.18-.51-.3-.44-.29-.91-.24-1.37.13-.44.37-.85.71-1.21.49-.53,1.2-.93,2.02-1.12l.02.08Z"/><path class="cls-1" d="M108.57,330c-.18-.22-.45-.39-.9-.37-.16,0-.3.13-.47.16-.62.16-1.36.56-1.88,1.18-.12.13-.22.29-.28.45-.07.16-.16.32-.2.49-.21.44,0,.86-.68,1.33-.19.15-.33.15-.67,0-.18-.08-.42-.19-.71-.35-.14-.08-.22-.17-.32-.27-.05-.05-.08-.1-.12-.15-.01-.05-.02-.1-.02-.15,0-.36-.01-.73.06-1.08.05-.36.14-.72.33-1.03.34-.64.82-1.19,1.41-1.6.69-.49,1.3-1.13,2.17-1.45.93-.35,2.07-.4,3.06.01.3.11.57.31.83.47.23.2.47.4.66.61.59.63.94,1.4,1.26,2.15.23.58.61,1.16.68,1.83.02.15.07.29.06.44,0,.28-.08.46-.24.56-.2.1-.44.13-.78.12-.15,0-.3,0-.44-.02-.24-.03-.45-.1-.66-.21-.2-.1-.42-.23-.49-.36-.24-.38-.54-.67-.66-.96-.14-.29-.25-.57-.38-.83-.18-.39-.47-.77-.65-.92l.03-.06Z"/><path class="cls-1" d="M190.13,324.36c.55-.1.91.12,1.32.21.25.06.27.12.37.18l.26.19c.31.29.58.63.81.96.2.36.36.7.47,1.09.11.34.22.54.27.83.12.97.14,1.89.21,2.79.03.4.12.78.21,1.16.06.25.08.5.08.76v.2s-.09.21-.09.21c-.06.14-.13.28-.21.42-.11.17-.21.14-.46.03-.13-.06-.29-.12-.5-.2-.12-.05-.23-.09-.31-.12-.06-.02-.09-.04-.16-.06-.02-.03-.05-.05-.07-.08-.13-.2-.3-.4-.41-.61-.08-.22-.16-.44-.23-.66-.14-.45-.23-.91-.26-1.4-.03-.59-.41-1.09-.61-1.58-.16-.37-.13-.41-.18-.59-.05-.12-.11-.25-.22-.36-.01-.03.12,0,.16,0h0s0,0,0,0c0-.29,0,.65,0-.65h0s0,0,0,0h0s0,0,0,0h0s0,.03,0,.03c0,0,0,.02,0,.02.01.03,0-.03.04.09.03.08.08.15.13.21.04.03.16.17.12.14-.02.02-.04-.01-.08.05-.24.25-.57.8-.69,1.37-.1.45.01.96.02,1.48,0,.11.04.24.02.35-.06.42-.36.52-1.26.27-.21-.06-.41-.11-.62-.17-.69-.23-1.2-.58-1.33-.86-.37-.9-.24-1.8.14-2.84.14-.39.33-.8.65-1.29l.28-.39c.1-.13.28-.31.42-.46.12-.13.39-.33.66-.49.14-.08.26-.15.42-.21.18-.06.38-.11.57-.14l.02.08Z"/><path class="cls-1" d="M125.68,422.99c.23-4.46.63-8.92.96-13.38.13-1.63.18-3.26.33-4.89.56-5.74,1.3-11.47,2.25-17.17.42-2.53.91-5.06,1.48-7.55.74-3.17,1.6-6.45,3.48-9.22.62-.83.53-.71.38.16-.08.44-.1,1.08-.22,1.81-.12.73-.25,1.57-.44,2.47-.74,3.15-1.3,6.36-1.73,9.61-.49,3.23-.98,6.49-1.44,9.78-.57,3.93-.68,8.08-.95,12.15-.29,4.47-.53,8.95-.76,13.44-.17,2.77-.34,5.53-.51,8.29-.13,2.1-.28,4.2-.47,6.31-.1,1.05-.2,2.11-.35,3.17-.16,1.07-.26,2.09-.77,3.32-.8,1.64-2.05,2.96-3.56,3.93-1.51.98-3.27,1.44-4.98,1.63-.76.08-1.5.13-2.26.09-1.41-.08-2.31-.28-2.9-.56-.6-.26-.9-.58-1.09-1-.09-.19-.21-.39-.25-.56-.1-.6,1.04-.73,2.85-.7,2.67.11,5.41-.21,7.31-1.54.94-.64,1.74-1.53,2.24-2.55.01-.07.04-.14.07-.2l.1-.42c.08-.25.11-.63.17-.95.1-.68.18-1.39.24-2.12.37-4.34.54-8.87.73-13.36h.08Z"/><path class="cls-1" d="M149.93,409.17c-.1-4.76-.17-9.53-.09-14.29.02-1.74,0-3.48.06-5.21.23-6.12.62-12.23,1.13-18.33.19-2.71.38-5.42.57-8.11.14-1.72.29-3.45.43-5.17l.14-1.29.26-1.28c.16-.85.41-1.7.56-2.55.16-1.07.2-.92.26,0,.03.46.15,1.12.32,1.92.09.4.16.83.25,1.29.05.23.07.46.13.71,0,.24,0,.48,0,.73-.08,7.05-.41,14.05-.83,21.12-.32,4.23-.23,8.64-.25,12.97l-.05,7.15c0,2.38-.02,4.77.02,7.15.03,2.93.09,5.87.21,8.8.17,4.44.38,8.91.76,13.3.32,3.42.77,6.75,1.18,10.12.1.74.19,1.47.29,2.21.27,2.78.09,3.69-.36,4.35-.11.15-.21.34-.32.44-.36.31-.85-.78-1.36-2.79-1.29-5.98-2.13-12.37-2.6-18.81-.39-4.78-.62-9.6-.8-14.4h.07Z"/><path class="cls-1" d="M261.15,311.7l.33-2.5.19-1.27.11-.64.07-.35c.03-.19.07-.37.11-.56l.31-1.09c.18-.3.33-.62.55-.89.27-.22.56-.41.88-.56.34-.12.7-.2,1.08-.24.37-.06.76-.06,1.09-.09l.67-.02h1.3c3.4.05,6.72.27,10.04.53,2.42.19,4.85.29,7.26.53,8.51.83,16.99,1.84,25.47,3.07,1.88.28,3.77.57,5.66.85.95.15,1.89.32,2.84.51.49.11.92.19,1.49.36.69.19,1.36.47,1.8.98.15.41.3.79.3,1.27.05.43,0,1.01,0,1.26-.03.62-.07,1.24-.11,1.85-.1,1.22-.23,2.44-.4,3.65-.32,2.42-.86,4.83-1.76,7.15-.71,1.41-.72,1.14-.79-.18-.05-.72-.11-1.63-.19-2.69-.03-.55-.1-1.15-.11-1.77,0-.62.02-1.28.06-1.96.08-1.2.14-2.41.17-3.61.02-.6.02-1.2.02-1.79l-.02-.87v-.11s0-.01,0-.01c0,0,0,0,0,0h0s0-.01,0-.02h0s.02,0-.06-.02l-.39-.1-.83-.19c-1.14-.25-2.33-.46-3.52-.66-4.79-.8-9.68-1.48-14.57-2.2-5.86-.85-12.02-1.23-18.06-1.71-3.32-.26-6.64-.5-9.95-.68-1.65-.09-3.31-.17-4.94-.18h-1.2c-.24.02-.39.03-.58.05-.08.02-.2.02-.24.1-.05.08-.07.17-.1.25l-.07.27-.08.43c-.68,3.96-1.12,8.08-1.57,12.14-.66,6.18-1.29,12.4-1.79,18.56-.39,4.79-.59,9.49-.9,14.24-.07,1.04-.11,2.07-.19,3.12-.32,3.9-.63,5.12-1.44,5.89-.18.17-.37.41-.55.5-.6.32-.91-1.31-.83-4.17.22-8.49.79-17.42,1.49-26.39.53-6.66,1.12-13.34,1.87-20.04h.08Z"/><path class="cls-1" d="M299.06,289.13c.82.3,1.51.9,1.9,1.63.39.73.46,1.39.46,1.94,0,1.09-.34,1.94-.58,2.58-.53,1.38-1.24,2.65-2.05,3.81-.6.84-1.15,1.71-1.86,2.43-2.52,2.54-5.4,4.41-8.23,6.21-1.27.79-2.5,1.64-3.76,2.41-1.61,1-3.23,2.02-5.05,2.64-.61.1-.68-.2-.48-.87.21-.66.75-1.55,1.62-2.16,3.08-2.13,6.15-4.25,9.27-6.41,1.85-1.27,3.39-3.02,4.74-4.73.75-.94,1.42-1.93,1.95-2.98.49-1.01,1.04-2.33.98-2.95-.01-.2-.04-.21-.03-.22-.02-.02.05-.03-.08-.04-.26,0-.89.38-1.3.84-1.55,1.69-2.95,3.63-4,5.72-.81,1.63-1.33,3.37-1.86,5.1-.12.38-.2.77-.33,1.15-.48,1.41-.82,1.8-1.79,1.81-.21,0-.43.04-.62.01-.64-.06-1.05-.86-.85-1.99.55-3.37,1.83-6.82,3.76-10.04.72-1.19,1.53-2.35,2.43-3.44l.34-.41.17-.2.23-.26c.32-.33.67-.64,1.08-.94.41-.29.89-.57,1.53-.77.63-.19,1.51-.3,2.4.01l-.02.09Z"/><path class="cls-1" d="M280.62,291.44s-.07,0-.11.02c-.02.02-.05.05-.07.08-.01.01-.02.04-.02.05,0,.04,0,.14,0,.23,0,.36.12.91.22,1.37.24.96.62,1.91,1.16,2.82.44.77,1.04,1.45,1.61,2.17.99,1.28,2.2,2.45,3.38,3.67,1.2,1.19,2.47,2.31,3.83,3.33,1.2.91,2.52,1.67,3.81,2.44.83.49,1.71.9,2.55,1.37.85.48,1.69.96,2.55,1.45.53.31.39.47-.19.56-.58.08-1.67.21-2.83-.05-1.03-.21-1.98-.63-2.96-1-.96-.4-1.93-.81-2.81-1.38-1.79-1.08-3.47-2.35-5-3.78-1.83-1.71-3.81-3.39-5.41-5.53-.86-1.17-1.62-2.47-2.16-3.88-.26-.71-.47-1.45-.59-2.2-.11-.73-.26-1.56.06-2.65.11-.36.3-.7.54-.99.69-.86,1.87-1.16,2.93-.96.96.18,1.67.55,2.37,1.03,2.22,1.64,3.85,3.81,5.12,6.09.96,1.78,1.88,3.57,2.47,5.48.11.42.24.84.32,1.27.16.81.19,1.35.13,1.74-.1.4-.24.65-.44.86-.09.1-.17.21-.25.27-.14.1-.3,0-.53-.25-.22-.25-.53-.64-.74-1.18-.33-.79-.72-1.56-1.1-2.33-.33-.78-.65-1.56-1.02-2.32-.72-1.52-1.54-2.99-2.54-4.27-.74-.96-1.57-1.82-2.5-2.55-.5-.41-.82-.62-1.24-.77-.1-.04-.19-.07-.28-.09-.1-.03-.18-.04-.16-.04-.02,0-.03-.01-.05-.01l-.03-.07Z"/><path class="cls-1" d="M301.54,326.94c.98.2,1.96.37,2.89.49.22.02.46.05.68.06l.44.03c.09,0,.18.01.24-.06.07-.07.07-.17.06-.27.02.03-.07-.28-.14-.47-.08-.22-.17-.44-.27-.67-.41-.93-.95-1.89-1.48-2.91-.18-.36-.37-.72-.58-1.09l-.3-.57-.07-.15c-.03-.06-.09-.13-.11-.22l-.19-.48c-.51-1.3-.55-2.68.18-3.63.16-.2.33-.44.55-.57.25-.09.47-.23.73-.29.51-.15,1.07-.19,1.64-.11.28.04.56.07.84.18.28.09.55.15.83.3.32.15.46.22.65.34.17.11.37.21.52.33,1.33.93,2.32,2.03,3.25,3.13,1.83,2.22,3.32,4.6,4.84,6.86.34.5.68.99,1.03,1.42.16.2.37.43.46.49.17.13.46.32.69.47.98.63,2.03,1.18,3.09,1.66,1.37.6,2.76,1.15,4.17,1.52.7.19,1.4.41,2.11.52.35.07.71.12,1.06.14.36.05.71.09,1.08.13.93.09.91.12.19.79-.36.31-.95.79-1.75,1.04-.78.25-1.77.43-2.76.34-1.76-.23-3.42-.73-5-1.38-1.56-.71-3.04-1.54-4.46-2.56-.1-.07-.15-.1-.34-.26l-.23-.2-.16-.16c-.22-.23-.36-.4-.51-.59-.29-.37-.53-.72-.77-1.06-.47-.69-.91-1.36-1.34-2.03-.86-1.34-1.7-2.66-2.58-3.93-1.05-1.5-2.31-2.95-3.68-3.86-.17-.11-.34-.2-.51-.3l-.13-.06s-.07-.03-.11-.04c-.15-.05-.31-.08-.47-.06-.08,0-.16.03-.23.05-.06.05-.1.12-.13.2-.05.15-.02.31.01.47.01.06.03.13.05.19l.11.31c.13.34.27.69.44,1.03l1.1,2.11c.38.73.75,1.48,1.06,2.33.08.24.13.39.22.73.06.31.13.63.12.94.03.62-.16,1.22-.49,1.71-.5.7-1.39.92-2.24.97l-.31.03h-.23s-.46,0-.46,0c-.3-.02-.6-.02-.89-.05-2.75-.25-5.36-.76-7.97-1.24-1.75-.32-3.5-.65-5.23-.88-.86-.12-1.73-.21-2.56-.24-.41,0-.83,0-1.18.05-.19.02-.33.06-.46.1-.06.02-.07.04-.12.05-.04,0,.03.03-.02-.02-.05-.06-.11-.12-.19-.17l.34-.06c.07-.02-.29-.06-.2-.05.02,0-.06,0,.02,0,.06-.01.11-.04.14-.07.07-.03.03,0,.07.04.04.04.06.08.13.13.18.18.5.33.81.48.33.12.67.23,1.03.33.71.19,1.45.35,2.19.5,1.49.29,3,.53,4.53.85.67.14,1.34.26,2.03.45,2.53.71,3.35,1.49,3.4,2.44.01.23.04.46-.01.64-.25.6-1.1.41-2.75,0-2.06-.53-4.34-.88-6.67-1.35-1.18-.24-2.37-.48-3.63-.86-.31-.09-.64-.2-.97-.33-.33-.15-.71-.18-1.11-.38-.39-.16-.87-.39-1.42-.96-.15-.18-.26-.32-.38-.56-.12-.26-.23-.51-.28-.8-.05-.3-.07-.63-.04-.91.04-.27.11-.53.2-.79l.1-.29.19-.22c.14-.16.29-.32.45-.46.17-.15.35-.28.46-.33.24-.13.59-.3.76-.34.2-.06.43-.13.62-.16l.52-.08c.65-.07,1.23-.07,1.77-.04,2.41.12,4.54.53,6.7.92l3.19.61c1.05.23,2.1.44,3.14.64v.07Z"/><path class="cls-1" d="M287.75,334.64c-.12-.03-.31-.07-.56-.03-.29.02-.37.31-.25.44.09.11.33.11.44.18.11.06.25.11.43.17.48.09,1.13.18,1.69.25,1.18.14,2.38.22,3.59.34,1.07.09,2.16.11,3.24.15,1.38.02,2.81.12,4.18.71.43.2.26.44-.16.68-.42.23-1.09.58-1.84.66-1.34.14-2.7.16-4.1.24-1.39.06-2.81.07-4.24-.14-.88-.11-1.7-.15-2.7-.23-1.44-.09-2.98-.36-3.91-.93-.53-.3-.93-.65-1.25-1.08-.31-.42-.52-.98-.51-1.58,0-.64.34-1.1.72-1.4.4-.32.9-.57,1.5-.77.74-.24,1.64-.37,2.52-.45l.66-.05.59-.03.9-.02c1.81-.03,3.61.08,5.39.12,1.38.03,2.75-.07,4.14-.04.31.01.61,0,.92.02,1.15.09,1.5.44,1.58,1.21.02.17.05.35.05.51-.02.53-.55.97-1.33,1.02-2.34.16-4.82.08-7.29.06-.92,0-1.84,0-2.75.02l-1.35.06h-.17s-.02,0-.02,0h-.02s-.04-.02-.04-.02l-.05-.07Z"/><path class="cls-1" d="M288.18,341.72c-.14,0-.42.17-.38.4.06.08.14.15.26.2.06.03.15.03.22.03.02,0,.02,0,.06,0h.21c.14.02.28.02.42.04,2.04.17,4.25.01,6.44-.12.98-.08,1.95-.24,2.91-.42,1.23-.26,2.49-.43,3.81-.3.42.05.37.41.09.85-.29.43-.79,1.01-1.46,1.26-1.19.47-2.44.71-3.7.98-1.27.24-2.55.47-3.89.47-1.59,0-3.22.35-4.96.26-1.67-.05-3.14-.52-4.07-1.41-.41-.89-.41-2.12.19-2.97.39-.62.99-1.14,1.7-1.53.34-.19.73-.39,1.06-.51.27-.11.55-.2.82-.3,1.65-.53,3.3-.75,4.91-1.06,1.25-.23,2.47-.58,3.72-.81.28-.05.54-.13.82-.16,1.04-.11,1.39.08,1.63.88.05.18.12.35.15.52.1.57-.29,1.13-1,1.32-2.09.63-4.32.91-6.45,1.39-.79.19-1.56.38-2.29.62-.36.12-.71.24-1.03.38-.14.06-.06.02-.1.03-.01,0-.03,0-.04,0l-.07-.05Z"/><path class="cls-1" d="M309.69,347.06c-2.33.81-4.7,1.79-7.14,2.67-.89.32-1.76.71-2.7.98-.82.24-1.66.45-2.54.6-.44.07-.89.13-1.35.16-.19,0-.57.05-.9.04-.33-.03-.67-.01-.98-.09-.31-.06-.63-.1-.9-.23-.29-.09-.54-.23-.77-.38-.24-.14-.45-.33-.65-.51-.15-.22-.35-.4-.43-.66-.2-.54-.04-1.07.21-1.52.25-.46.66-.9,1.14-1.29.21-.18.43-.34.66-.5.22-.16.49-.33.61-.41l.95-.6c.63-.4,1.27-.77,1.91-1.11.83-.44,1.63-.91,2.48-1.29.85-.37,1.73-.69,2.59-1.02.53-.2.61.03.37.58-.24.54-.76,1.48-1.58,2.22-.36.33-.74.62-1.13.88l-1.15.81-1.14.79-1.16.71-.56.35-.13.09s-.02,0-.02,0h-.03s-.11.02-.19.05c-.07.03-.2.1-.22.2,0,.08.01.17.08.25.08.09.23.14.41.16.02,0,.35,0,.59-.04.25-.03.51-.08.77-.14,1.05-.23,2.11-.62,3.18-.99,2.35-.83,4.7-1.85,7.1-2.81,1.48-.59,2.98-1.17,4.61-1.6.31-.08.63-.15.96-.2.34-.05.69-.09.97-.11l1.78-.15c1.19-.11,2.4-.22,3.64-.27.96-.03,1.94-.05,2.94.06,1,.1,2.01.36,2.97.75.42.18.84.35,1.23.6,1.43.92,1.63,1.51,1.3,2.32-.07.19-.13.38-.23.54-.33.53-1.15.5-2,.04-1.29-.69-2.56-1.08-3.92-1.23-1.37-.15-2.92-.09-4.59.06l-1.9.16c-.63.06-1.37.09-1.75.15-1,.15-2.19.55-3.33.98l-.03-.07Z"/><path class="cls-1" d="M320.85,356.06c1.47-2.06,2.83-4.54,3.93-7.1.42-.93.72-1.92,1.11-2.87,1.34-3.37,2.68-6.79,3.79-10.29.49-1.55.9-3.14,1.32-4.7.55-2.01.83-4.07,1.89-5.97.34-.59.33-.51.5.09.14.59.71,1.75.57,2.96-.3,2.13-.62,4.26-1.11,6.35-.54,2.08-1.16,4.15-1.92,6.18-.89,2.44-1.58,5.05-2.56,7.53-1.08,2.73-2.27,5.43-3.88,8-.5.78-1.06,1.55-1.7,2.28-.66.71-1.35,1.44-2.37,1.94-.75.35-1.72.61-2.63.32-.45-.1-.8-.33-1.19-.51-.33-.26-.7-.53-.96-.85-1.07-1.35-1.25-2.93-1.31-4.33-.06-2.22.21-4.31.64-6.38.1-.46.18-.9.31-1.36.5-1.66.89-2.12,1.65-2.23.17-.03.34-.08.48-.08.45,0,.71.82.49,2.01-.29,1.78-.61,3.57-.78,5.34-.07.88-.13,1.76-.07,2.57.03.82.18,1.58.43,2.08.15.43.4.54.6.73.08.02.15.04.22.07.07.03.14.08.17.06.04-.01.07.03.11.02.04-.02.08-.02.12-.02.43-.09,1.39-.88,2.08-1.91l.06.04Z"/><path class="cls-1" d="M385.72,337.46c-.13-.18-.33-.35-.55-.5-.11-.08-.26-.13-.38-.22-.11-.07-.1-.07-.16-.09-.09-.02-.08.04-.33.08-.77.14-1.65.61-2.36,1.22-.31.27-.56.62-.72.97-.12.23-.16.47-.25.69-.01.12-.06.22-.16.33-.08.11-.13.23-.21.35-.11.15-.39.18-.75.02-.33-.15-.9-.57-.92-1.07.2-1.63,1.07-3.01,2.35-3.72.77-.43,1.37-1.04,2.36-1.39.33-.1.67-.19,1-.17.17-.01.34.02.5.04.18.02.32.06.43.11.47.16.94.39,1.37.68.54.35,1,.83,1.35,1.36.55.8.78,1.71.97,2.54.16.65.4,1.28.53,1.93.03.14.08.28.09.43-.02.53-.26.68-1.03.72-.18,0-.35.02-.52.02-.58-.01-1.06-.25-1.26-.58-.54-.98-.59-1.85-.81-2.52-.15-.5-.29-.87-.59-1.17l.04-.06Z"/><path class="cls-1" d="M380.35,418.53c.77-3.43,1.59-6.86,2.31-10.31.25-1.26.39-2.54.65-3.8.87-4.45,1.68-8.93,2.48-13.41.32-2,.56-4.01.74-6.01.11-1.28.22-2.57.4-3.85.09-.64.16-1.28.3-1.92.16-.63.31-1.26.47-1.9.22-.79.47-.66.83.05.18.36.4.86.62,1.47.1.3.23.63.3.98.06.34.1.71.11,1.08.04,1.33.03,2.66-.07,3.98-.07,1.32-.18,2.64-.31,3.97-.25,2.64-.6,5.28-1.11,7.91-.7,3.13-1.01,6.45-1.62,9.66-.65,3.54-1.41,7.06-2.25,10.56-.56,2.15-1.1,4.29-1.69,6.42-.85,3.24-1.87,6.45-2.76,9.65-.72,2.48-1.29,4.95-2.01,7.41-.15.54-.28,1.08-.46,1.62-.67,1.99-1.07,2.57-1.88,2.75-.18.04-.38.12-.54.12-.55.01-.73-.95-.39-2.45.98-4.44,2.26-9,3.4-13.63.82-3.44,1.69-6.89,2.39-10.37h.08Z"/><path class="cls-1" d="M392.5,429.91c.56-4.79,1.42-9.48,2.37-14.14.36-1.7.65-3.41,1.05-5.09,1.42-5.94,2.99-11.83,4.63-17.7.77-2.59,1.47-5.22,2.19-7.8.95-3.31,1.67-6.71,3.45-9.77.49-.97.44-.83.41.1-.01.47.01,1.15.1,1.98.04.42.01.85,0,1.31,0,.23-.03.46-.02.71-.05.23-.1.47-.15.71-1.61,6.81-3,13.66-5.08,20.41-1.17,4.06-1.95,8.38-2.82,12.6-.93,4.64-1.92,9.28-2.61,13.95-.42,2.87-.78,5.75-.86,8.6-.01,1.07,0,2.16.15,3.16.04.25.06.51.14.73.07.22.1.49.2.65.12.37.44.78.75,1.13,1.32,1.43,3.37,2.28,5.41,2.76,3.23.76,6.57.75,9.91.7.74-.01,1.46-.07,2.21-.06,2.77-.03,3.69.26,4.26,1.11.13.19.3.39.37.57.22.61-.89,1.13-2.92,1.31-3.03.26-6.2.28-9.46-.04-3.26-.35-6.61-.99-9.94-2.88-1.22-.78-2.39-1.7-3.2-3.34-.24-.45-.3-.79-.42-1.17-.13-.39-.16-.72-.23-1.07-.14-.71-.16-1.34-.22-2-.12-2.57.04-5.02.27-7.45h.08Z"/><path class="cls-1" d="M377.51,323.18c.51-.59,1.01-1.31,1.48-2.04.5-.74.93-1.43,1.36-2.25.31-.58.54-1.21.84-1.8.53-1.04,1.04-2.1,1.53-3.19.51-1.07,1-2.16,1.47-3.27.42-.98.75-2.01,1.15-2.99.5-1.27.92-2.6,1.84-3.69.28-.34.51-.18.74.3.22.48.56,1.32.38,2.07-.14.68-.3,1.34-.47,2.01-.17.67-.33,1.34-.59,1.98-.48,1.3-1.01,2.59-1.65,3.87-.78,1.52-1.33,3.21-2.11,4.78-.85,1.7-1.82,3.48-3.13,4.97-.2.23-.4.47-.62.7-.12.12-.2.22-.34.35l-.47.42c-.65.55-1.37.97-2.13.85-.26,0-.53-.2-.68-.32l-.42-.56c-.07-.26-.14-.52-.24-.75-.05-.11-.11-.23-.16-.33-.03-.06-.07-.12-.11-.18-.15-.24-.32-.45-.51-.62-.39-.35-.86-.52-1.37-.51-.52.01-1.05.23-1.48.55-.43.32-.78.74-1.1,1.22-.14.21-.25.45-.39.67-.51.85-.82,1.09-1.58.9-.17-.04-.35-.07-.51-.13-.54-.21-.73-.82-.4-1.63.5-1.18,1.31-2.51,2.87-3.37.75-.41,1.61-.68,2.58-.67.96-.01,2.03.36,2.78,1,.44.36.78.78,1.05,1.2.06.11.13.22.19.32l.04.08s0-.01,0,0h0s0,.02,0,.02c0,0,0,.05.02.05.03,0,.01.04.12-.07l.05.04Z"/><path class="cls-1" d="M364.67,254.4c-2.54-3.81-4.11-8.24-4.66-12.7-.16-.81-.18-1.63-.26-2.44-.07-.82-.16-1.63-.1-2.44.11-5.75,1.42-11.33,3.34-16.59.8-2.36,1.74-4.68,2.78-6.91.63-1.45,1.34-2.87,2.17-4.23.42-.67.83-1.35,1.29-1.99.49-.63,1-1.24,1.51-1.85.65-.75.8-.49.74.44-.03.47-.09,1.1-.2,1.85-.06.37-.11.77-.2,1.18-.1.4-.23.81-.4,1.22-.31.72-.59,1.45-.85,2.18-.26.73-.64,1.41-.92,2.14l-.88,2.15c-.29.71-.53,1.45-.86,2.15-1.21,2.84-2.33,5.74-3.19,8.73-1.07,3.58-1.38,7.48-1.26,11.24.14,4.13,1.04,8.25,2.96,11.92,1.12,2.28,2.67,4.37,4.46,6.22,2.72,2.79,5.95,5.2,9.48,6.87,2.74,1.32,5.63,2.15,8.54,2.67.64.14,1.28.16,1.92.27,2.4.3,3.14.44,3.66,1.23.12.18.28.36.35.53.12.3-.07.56-.55.76-.48.19-1.25.36-2.22.32-5.79-.1-11.7-2.21-16.83-5.49-1.91-1.22-3.73-2.61-5.39-4.18-.86-.76-1.62-1.62-2.4-2.46-.72-.9-1.48-1.76-2.11-2.74l.06-.05Z"/><path class="cls-1" d="M395.71,228.34c.35-.17.81-.51,1.33-.94.53-.43,1.15-.96,1.99-1.44.2-.12.45-.23.68-.33l.74-.24c.47-.18,1.06-.19,1.6-.23,1.11.05,2.21.39,3.02.98,1.2.84,2.04,1.86,2.6,2.96.49.98.8,1.99.98,3.02.2,1.03.24,2.08.13,3.14-.04.53-.17,1.06-.31,1.59-.2.52-.38,1.07-.69,1.54-.55.98-1.34,1.75-2.18,2.35-1.5,1.07-3.14,1.76-4.83,2.1-1.08.23-2.19.32-3.3.24-1.1-.13-2.19-.5-3.12-1.11-.52-.56-.36-.57.3-.9.65-.27,1.67-.79,2.64-1.03,3.42-.31,7.06-1.57,7.92-4.17.65-1.76-.06-4.25-1.18-5.79-.31-.41-.65-.8-1.01-1-.17-.15-.35-.18-.53-.28-.18,0-.35-.12-.55-.07h-.3c-.1.04-.21.07-.32.1-.22.03-.43.15-.66.28-.47.27-.97.69-1.54,1.14-.69.55-1.52,1.2-2.64,1.55-.56.16-1.17.23-1.75.18-.52-.06-1.01-.15-1.52-.3-.76-.25-1.51-.65-2.11-1.22-.61-.57-1.06-1.28-1.35-2-.59-1.47-.61-2.95-.51-4.35.21-2.17.68-4.28,1.68-6.26.22-.43.43-.87.72-1.28.53-.77,1.04-1.18,1.48-1.36.44-.17.83-.11,1.26.15.2.12.4.22.56.36.52.52.36,1.29-.12,2.15-.74,1.31-1.35,2.78-1.74,4.29-.4,1.49-.58,3.1-.31,4.29.21.9.53,1.38,1.06,1.68.28.16.67.28,1.13.34.22.01.36,0,.69-.17l.04.08Z"/><path class="cls-1" d="M388.14,277.58c-.77,1.58-1.31,3.3-1.48,5.08-.07.65,0,1.3,0,1.96-.03,2.31.39,4.72,1.37,6.92.41.99,1.05,1.87,1.65,2.74.41.55.87,1.05,1.32,1.56.24.24.47.5.67.79.22.27.43.55.65.83.26.36.06.56-.47.62-.51.05-1.49.06-2.25-.46-1.23-1-2.42-2.13-3.24-3.51-.83-1.37-1.45-2.87-1.8-4.43-.4-1.86-.95-3.77-.94-5.74,0-2.15.41-4.29,1.17-6.27.45-1.22,1.04-2.39,1.72-3.48,1.02-1.67,2.3-3.16,3.68-4.51,1.06-1.06,2.13-2.11,3.37-3,.27-.2.53-.41.83-.57,1.1-.63,1.6-.51,2.12.15.12.15.26.3.35.47.32.56.08,1.23-.54,1.71-1.83,1.49-3.67,2.92-5.22,4.74-1.15,1.33-2.17,2.8-2.88,4.43l-.07-.03Z"/><path class="cls-1" d="M401.98,274.82c-2.22-1.05-4.1-2.68-5.41-4.72-.48-.73-.96-1.5-1.25-2.35-.52-1.49-.68-3.14-.43-4.66.24-1.53.78-2.92,1.44-4.2.57-1.14,1.22-2.22,1.99-3.24.5-.65,1.02-1.28,1.66-1.83.65-.52,1.41-.93,2.2-1.17.51-.14.56.19.41.73-.17.53-.42,1.36-.84,2-.89,1.03-1.61,2.21-2.24,3.48-.72,1.23-1.34,2.48-1.74,3.78-.25.78-.27,1.6-.15,2.4.1.8.37,1.59.73,2.34.76,1.66,2.08,3.13,3.69,4.17,1,.63,2.1,1.09,3.27,1.33,1.78.37,3.69.31,5.47-.21,1.39-.41,2.62-1.16,3.76-1.98.26-.18.48-.39.73-.57.92-.69,1.34-.74,2.02-.32.16.1.33.18.46.29.46.36.39,1.08-.28,1.83-2.04,2.13-5.03,3.59-8.26,4.01-2.4.31-4.95,0-7.25-1.03l.03-.07Z"/><path class="cls-1" d="M357.57,195.84c-1.45-2.09-2.42-4.51-2.86-7-.44-2.5-.37-4.98.1-7.43.36-1.79.91-3.59,1.88-5.18,1.68-2.84,4.34-4.95,7.2-6.25,2.9-1.28,6.03-1.75,9.09-1.63,2.71.12,5.43.62,7.9,1.74,1.58.71,3.11,1.6,4.4,2.79.33.29.62.62.91.94.3.32.56.67.81,1.03.52.7.95,1.46,1.21,2.29.34,1.02.09.95-.7.43-.81-.53-2.2-1.34-3.57-2.29-1.24-.84-2.49-1.61-3.89-2.13-1.38-.54-2.83-.87-4.29-1.16-2.93-.52-6.02-.4-8.92.44-3.54.92-6.51,3.66-7.89,7.01-.78,1.84-1.13,3.91-1.13,6,0,2.07.37,4.15,1.23,6.04,1.03,2.34,2.7,4.41,4.76,6.04,3.13,2.46,7.06,4.03,11.05,4.51,3.12.36,6.23,0,9.11-.88.64-.18,1.24-.44,1.86-.67,2.28-.91,3.01-1.13,3.94-.67.21.1.46.18.63.31.29.21.27.56-.04,1.04-.3.49-.91,1.05-1.81,1.61-1.36.76-2.83,1.37-4.36,1.83-1.54.43-3.14.71-4.76.84-3.24.23-6.56-.14-9.74-1.1-4.69-1.43-9.21-4.21-12.19-8.46l.07-.06Z"/><path class="cls-1" d="M465.75,205.35c-.37-2.44-1.25-4.85-2.62-6.97-.49-.78-1.12-1.46-1.73-2.15-2.11-2.45-4.91-4.45-8.12-5.49-1.42-.48-2.92-.67-4.4-.75-1.93-.08-3.75.18-5.4.86-.52.21-.71-.04-.52-.73.15-.7.99-1.77,2.3-2.14,4.48-1.17,9.05-.22,12.87,2.04,2.25,1.35,4.56,2.92,6.28,5.02,1.9,2.28,3.26,4.97,4.04,7.8.49,1.74.73,3.54.77,5.34.02,1.37-.13,2.77-.5,4.13-.37,1.36-1.02,2.66-1.82,3.8-1.25,1.77-2.73,3.27-4.35,4.55-.36.28-.69.58-1.08.81-1.43.86-2.01.89-2.72.37-.16-.12-.34-.22-.47-.36-.44-.45-.13-1.23.73-2.05,1.25-1.25,2.6-2.28,3.7-3.44,1.13-1.14,1.98-2.36,2.51-3.67.79-1.96.87-4.51.43-6.94l.08-.02Z"/><path class="cls-1" d="M466.87,267.89c-1.36,2.2-3.17,4.05-5.23,5.47-.75.53-1.49,1.06-2.31,1.47-1.46.69-2.97,1.21-4.59,1.47-1.6.28-3.33.16-4.86-.31-1.37-.41-2.67-1.01-3.81-1.82-1.49-.99-2.69-2.48-3.21-4.18-.16-.53.17-.57.7-.35.5.24,1.31.6,1.94,1.13,2.24,1.95,5,2.99,7.83,2.82,1.78-.03,3.59-.98,5.19-1.95,1.78-1.09,3.37-2.53,4.63-4.23.78-1.04,1.41-2.2,1.86-3.42.67-1.84,1-3.88.74-5.84-.19-1.53-.86-2.92-1.56-4.2-.17-.27-.34-.54-.52-.81-.61-1.02-.67-1.42-.12-2.19.12-.17.23-.37.37-.53.44-.53,1.28-.45,2.07.36,1.15,1.2,2.09,2.71,2.61,4.38.54,1.67.73,3.47.64,5.24-.13,2.65-.99,5.28-2.31,7.53l-.08-.04Z"/><path class="cls-1" d="M155.98,214.07c1.01,1.62,2.21,3.21,3.45,4.81.45.58,1,1.08,1.45,1.67l2.43,3.15c.41.54.81,1.08,1.21,1.65.2.28.4.57.58.89.19.35.34.58.55,1.09.22.48.36.98.37,1.49-.11.6-.31,1.16-.75,1.62-.23.22-.46.43-.7.63-.11.11-.27.18-.37.26l-.28.19c-.68.45-1.37.81-2.08,1.12-.35.15-.71.29-1.07.4-.36.13-.73.22-1.13.24-.5.03-.54-.21-.38-.77.15-.61.54-1.46,1.21-1.97.65-.48,1.25-.99,1.78-1.43.07-.06.12-.11.18-.17.07-.05.04-.03.05-.04,0,0,.01,0,.02,0,.01,0,.06,0,.07-.02.04-.02.05-.05.07-.08-.01,0,.01-.01,0-.05l-.1-.15-.25-.35c-.34-.49-.68-1.08-1.04-1.65-.95-1.53-2.4-2.81-3.62-4.25-1.35-1.59-2.65-3.24-3.86-5-.75-1.08-1.45-2.2-2.09-3.4-.47-.91-.9-1.88-1.14-2.99-.24-1.12-.21-2.36.22-3.51.7-1.81,2.21-3.09,3.74-3.8.34-.17.67-.33,1.03-.45,1.33-.41,1.84-.09,2.2.79.08.21.18.41.22.62.14.7-.23,1.32-.92,1.74-1.03.53-1.98,1.13-2.48,1.69-.47.58-.56.88-.52,1.6.03.46.28,1.23.66,1.99.37.77.85,1.58,1.39,2.36l-.07.06Z"/><path class="cls-1" d="M138.18,219.6c.74,1.35,1.81,2.58,2.96,3.59,1.4,1.24,3.09,2.35,4.96,2.68s4.08-.1,5.31-1.69c1.05-1.36.95-3.15.53-4.73s-1.18-3.03-1.6-4.59c-.2-.76-1.08-1.3-1.85-1.05s-1.27,1.03-1.05,1.85c.33,1.23.88,2.39,1.3,3.6.11.31.21.63.29.94.04.14.07.28.1.41.02.08.04.17.05.26,0,.05.02.1.03.15.02.13.02.13,0,0-.04,0-.01-.16,0,.05,0,.08.01.16.02.24,0,.13,0,.25,0,.38,0,.08-.02.16-.02.23,0,.19.08-.31.02-.13,0,.03-.1.47-.13.47-.03,0,.19-.35.05-.12-.03.05-.06.1-.08.15-.02.04-.2.25-.03.07.15-.18.01-.02-.03.02-.11.11-.42.29-.09.11-.15.08-.3.18-.46.27-.31.17.2-.04-.02,0-.08.02-.16.06-.24.08-.17.05-.35.08-.53.13.28-.08.15-.01.05,0s-.2.01-.29.02c-.19,0-.4-.03-.59-.02-.22.02.35.08-.01,0-.08-.02-.16-.03-.23-.05-.18-.04-.35-.09-.52-.14s-.35-.12-.52-.19c.05.02.27.13.02,0-.11-.05-.23-.11-.34-.16-.34-.17-.66-.37-.98-.58-.14-.1-.28-.2-.42-.29-.33-.24.14.12-.05-.04-.08-.07-.17-.13-.25-.2-.65-.54-1.25-1.15-1.8-1.8-.07-.08-.42-.53-.17-.21-.1-.14-.2-.27-.3-.41-.18-.26-.35-.53-.51-.82-.38-.69-1.39-.97-2.05-.54-.7.45-.94,1.31-.54,2.05h0Z"/><path class="cls-1" d="M160.94,212.81c.08.32.14.65.2.98.03.16.06.33.08.49,0,.05.06.39.02.12s.01.1.02.17c.09.8.14,1.61.11,2.42,0,.2-.02.39-.03.59,0,.1-.02.19-.03.29-.03.33.05-.3,0,.02-.07.37-.14.73-.26,1.09-.03.08-.06.16-.09.24-.05.14.09-.2.08-.18-.02.03-.04.1-.06.13-.08.14-.15.28-.24.41-.16.25.08-.08.05-.06-.06.05-.1.11-.15.17s-.12.1-.17.15c-.08.09.16-.13.17-.13-.03,0-.1.07-.13.09-.07.04-.16.08-.23.12-.1.07.19-.08.19-.08-.02,0-.13.05-.16.05-.09.02-.18.04-.27.06-.13.04.21-.03.21-.03-.04-.01-.14.01-.19.01-.11,0-.21,0-.32,0-.04,0-.08,0-.12,0-.29,0,.25.06.08.01-.27-.07-.54-.11-.81-.2-.72-.23-1.61.27-1.78,1.01-.18.79.24,1.54,1.01,1.78,1,.31,2.18.46,3.18.07.94-.37,1.71-1.04,2.17-1.95.87-1.71.92-3.75.75-5.63-.09-1-.24-2.01-.47-2.99-.17-.74-1.06-1.25-1.78-1.01-.77.25-1.2.99-1.01,1.78h0Z"/><path class="cls-1" d="M135.34,210.94c.06-.09.12-.18.18-.26.02-.03.18-.26.06-.09-.13.18.09-.11.11-.14.06-.07.11-.13.17-.2.27-.3.55-.57.86-.83,0,0,.32-.25.15-.12-.15.12.08-.05.11-.07.17-.12.34-.23.51-.33.19-.12.39-.23.6-.33.08-.04.16-.08.25-.12.28-.13-.13.04.05-.02.39-.12.77-.26,1.17-.34.09-.02.18-.03.27-.05.2-.04-.28.02.04,0,.21-.01.41-.03.62-.02s.41.02.62.04c-.15-.01-.19-.03-.02,0,.12.02.23.05.35.07.21.05.41.12.62.19.13.04.17.07.02,0,.14.06.27.13.41.2.75.39,1.8.22,2.22-.58.39-.74.22-1.81-.58-2.22-2.05-1.05-4.43-1.24-6.6-.41s-3.79,2.17-4.98,4.02c-.46.71-.17,1.83.58,2.22.81.43,1.73.18,2.22-.58h0Z"/><path class="cls-1" d="M149.95,240c.22,2.09.45,4.26,1.23,6.23.47,1.18,1.07,2.24,2.1,3.01.92.67,2.19.88,3.2.3,1.68-.96,2.43-3.28,2.98-4.99.27-.83.5-1.67.69-2.52.12-.55.31-1.17.23-1.74-.24-1.77-2.11-1.31-3.32-1.21-.34.03-.69.05-1.03.04-.19,0-.38,0-.57-.02-.09,0-.18-.01-.26-.02-.12-.01-.29-.04-.07,0-.46-.07-.91-.17-1.34-.32-.07-.02-.14-.05-.22-.08-.44-.16.21.12-.22-.09-.25-.12-.49-.25-.73-.39-.67-.4-1.68-.17-2.05.54s-.18,1.62.54,2.05c1.41.84,2.99,1.27,4.63,1.32.95.03,1.87-.14,2.81-.2.05,0,.12,0,.17,0,.06-.01.24.05-.11-.02-.17-.03-.33-.07-.48-.16-.24-.14-.7-1.77-.71-1.13,0,0,.08-.51.04-.27,0,.04-.01.08-.02.13-.02.11-.04.23-.07.34-.14.68-.31,1.36-.5,2.03-.12.42-.25.84-.39,1.26-.07.2-.14.4-.21.59-.05.14-.14.58-.26.66-.01,0,.14-.3.07-.16-.02.05-.05.1-.07.16-.04.09-.08.18-.12.27-.09.18-.18.36-.28.54-.09.15-.18.3-.28.45-.04.06-.12.14-.14.2.1-.3.17-.21.03-.05-.05.06-.11.12-.17.18-.05.05-.26.22-.02.03.22-.18.04-.03-.03,0-.27.14.33-.12.13-.05-.08.02-.3.06.01.01s.09-.02.01-.02c.51.03.23.03.09,0-.05-.01-.1-.04-.14-.04-.13-.02.33.18.12.05-.07-.05-.15-.09-.23-.13-.26-.15.19.2.03.03-.14-.14-.28-.29-.42-.43-.13-.13.17.27.08.1-.02-.04-.05-.07-.07-.11-.05-.09-.11-.17-.16-.26-.13-.21-.22-.44-.34-.66-.07-.14.06.13.06.14,0-.02-.08-.2-.09-.23-.05-.12-.09-.25-.13-.37-.09-.27-.18-.55-.25-.82-.15-.54-.26-1.09-.36-1.64-.05-.26-.09-.51-.13-.77-.02-.14-.04-.28-.06-.42,0-.05-.03-.22,0,.02.04.26,0,0,0-.06-.05-.42-.1-.85-.14-1.27-.08-.78-.63-1.54-1.5-1.5-.74.03-1.59.66-1.5,1.5h0Z"/><path class="cls-1" d="M198.1,347.56c-.2,1.43-.44,2.85-.79,4.25-.12.51-.16,1.04-.34,1.55-.54,1.79-1.37,3.5-2.34,5.09-.38.73-.91,1.39-1.35,2.07-.33.41-.64.84-.98,1.24-.09.1-.19.18-.28.27-.17.03-.38.01-.45.11-.21.16-.42.31-.64.46-.27.18-.36.01-.35-.35,0-.18.03-.42.08-.67,0-.14.09-.23.06-.42-.04-.12-.04-.21-.13-.37.03-.06.06-.12.1-.17.26-.4.48-.83.72-1.23.24-.4.42-.84.65-1.25.47-.82.93-1.64,1.41-2.48.59-1.02.76-2.25,1.07-3.41.3-1.3.57-2.61.73-3.96.12-.83.19-1.66.24-2.5.06-1.27.13-2.56.03-3.83-.09-.99-.33-1.94-.48-2.91-.03-.21-.09-.42-.12-.64-.08-.8.09-1.07.76-1.3.15-.05.31-.12.46-.15.52-.12.99.17,1.22.76.34.86.59,1.77.77,2.7.12.93.18,1.89.19,2.85.03,1.43-.08,2.87-.2,4.31h-.07Z"/><path class="cls-1" d="M392.19,280.01c0-.08.1-.6.23-1.1.13-.49.26-.96.26-.98,0-.03.08-.04.23-.05.22,0,.5.03.67.08.11.04.22.07.23.1.05.11.08.22.09.32.01.14,0,.27,0,.4,0,.11-.06.22,0,.33.1.17-.03.33.08.51.1.16.07.32.12.48.07.21.09.42.14.62.02.06.08.13.09.19.01.09-.03.17-.02.26.02.11.07.21.1.32.03.17.05.32.08.49,0,.05.07.09.07.14,0,.06-.04.13-.04.19,0,.09.03.18.05.27,0,0,.03.02.05.02.15.07.17.16.17.25,0,.16.05.31.09.47-.01.11.13,2.31.2,2.37,0,.01,0,.02,0,.03.02.03-.07.09.13.07.07,0,.03.02.02.04,0,.02-.06.05.07.03.06,0,.04.01.01.03-.16.1-.31.2-.09.2.06,0,0,.04.01.05.1.06,0,.18.2.2.08.01-.05.08-.07.13-.01.02-.04.04,0,.04.12.02.12.07.08.13-.06.09.04.13.07.2.03.06.07.11.09.17.03.08.02.17.09.24.02.02.08.03.09.06.04.07.12.12.16.18.02.03-.02.09-.01.12.03.17.08.34.13.51.02.07.09.11.08.19-.02.13-.01.24.09.32.08.05-.01.18-.02.27,0,.1,0,.2,0,.3,0,.16-1.8.82-1.81.77-.02-.11-.98-1.28-.99-1.45-.05-.2-.1-.4-.15-.59-.04-.13-.12-.26-.16-.39-.04-.14-.05-.28-.1-.42-.04-.1-.14-.19-.21-.29-.01-.01,0-.03,0-.05,0-.02,0-.05,0-.06-.01-.03-.04-.05-.06-.08,0-.01-.01-.02-.03-.03,0,0-.06,0-.05-.01.12-.11.09-.17.04-.24-.01-.01.01-.04,0-.05-.12-.14-.32-.26-.22-.45.02-.04.03-.07-.08-.08-.06,0-.07-.02-.04-.05.13-.12-.08-.17-.07-.26,0-.1-.08-.17-.04-.27.04-.11-.09-.18-.09-.28,0-.1-.13-.54-.15-.66-.02-.09,0-.19-.02-.28-.03-.21-.06-.43-.09-.65-.04-.26-.08-.54-.12-.8-.06-.21.43-2.4.43-2.54Z"/><path class="cls-1" d="M398.9,280.19c0-.06.06-.49.16-.88.04-.2.09-.39.13-.54.04-.15.06-.24.06-.25,0-.02.06-.04.16-.04.15,0,.33,0,.44.04.08.03.14.05.15.07.04.09.06.17.07.25.01.11,0,.21,0,.32,0,.09-.03.17.02.26.08.13,0,.26.09.39.09.12.07.25.12.37.06.16.1.32.15.48.02.05.07.1.08.14.01.07-.01.14,0,.2.02.08.07.16.09.24.04.13.07.24.11.37.01.04.06.06.06.1,0,.05-.02.1-.01.15.01.07.04.14.07.21,0,0,.03,0,.04.01.13.04.15.11.16.18.02.12.08.23.12.35,0,.09.38,1.73.44,1.77,0,0,0,.01.01.02.02.02-.05.08.11.03.06-.02.03.01.02.03,0,.01-.04.04.06,0,.05-.02.03,0,.01.02-.12.1-.23.2-.05.17.05,0,0,.03.02.04.09.03.02.13.19.12.06,0-.03.07-.05.11,0,.01-.03.04,0,.03.1,0,.11.03.08.09-.04.08.05.09.09.14.03.04.07.07.1.11.04.05.04.13.11.17.02.01.07,0,.08.02.04.04.11.07.16.11.02.02,0,.07,0,.09.05.12.1.25.17.36.02.05.09.06.09.12,0,.1.02.19.12.22.07.02.01.14.02.21,0,.08.02.16.04.23.03.12-1.44,1.08-1.45,1.04-.03-.09-1-.85-1.03-.99-.07-.15-.13-.31-.19-.46-.05-.1-.12-.19-.17-.29-.05-.1-.07-.22-.12-.32-.05-.08-.14-.13-.21-.2-.01-.01,0-.03,0-.04,0-.02,0-.04,0-.05-.01-.02-.04-.04-.06-.06,0,0-.01-.02-.03-.02,0,0-.05,0-.04,0,.09-.1.05-.15.01-.2,0-.01,0-.03,0-.04-.11-.09-.29-.17-.22-.34.01-.03.02-.06-.07-.05-.05,0-.06-.01-.04-.03.1-.12-.08-.13-.08-.21,0-.08-.08-.13-.06-.22.02-.09-.09-.13-.09-.21,0-.08-.14-.42-.17-.52-.02-.07-.02-.15-.03-.22-.04-.17-.08-.34-.12-.52-.04-.21-.09-.43-.14-.63-.04-.17.19-1.95.21-2.06Z"/><path class="cls-1" d="M381.15,211.02c-1.29-2.75-4.27-4.55-7.28-4.57-.78,0-1.54.69-1.5,1.5s.66,1.5,1.5,1.5c.15,0,.29,0,.44.01.07,0,.15.01.22.02.19.01-.36-.06-.09-.01.29.05.58.11.86.19.14.04.28.09.42.14.1.04.36.17-.03-.02.05.03.11.05.16.07.28.13.55.28.81.44.12.08.24.17.36.25.15.1-.29-.24-.06-.05.06.05.11.09.17.14.22.19.43.4.63.62.05.05.1.11.14.17.04.04.2.25.05.05s0,.01.04.06c.04.06.08.12.12.18.17.26.32.53.45.81.33.71,1.41.95,2.05.54.73-.47.9-1.29.54-2.05h0Z"/></svg>