<?xml version="1.0" encoding="UTF-8"?><svg id="Layer_1" xmlns="http://www.w3.org/2000/svg" width="520" height="520" viewBox="0 0 520 520"><defs><style>.cls-1,.cls-2{fill:#231f20;}.cls-3{fill:#242021;}.cls-4{opacity:.4;}.cls-5{opacity:.35;}.cls-6{opacity:.25;}.cls-2{opacity:.45;}</style></defs><g class="cls-5"><path class="cls-1" d="M371.84,434c-2.66-3.41-4.81-6.86-7.04-10.34-.8-1.27-1.68-2.49-2.45-3.77-2.74-4.52-5.27-9.16-7.85-13.76-1.14-2.04-2.34-4.07-3.5-6.08-1.42-2.62-2.92-5.23-3.91-8.08-.32-.88-.06-.87.61-.34.33.27.78.66,1.29,1.15.52.48,1.06,1.08,1.52,1.8l2.52,3.78c.82,1.27,1.56,2.59,2.35,3.88,1.55,2.6,3.08,5.23,4.57,7.89,1.78,3.19,4,6.29,6.01,9.43,2.23,3.44,4.47,6.89,6.88,10.15.52.7,1.05,1.39,1.59,2.05.27.32.54.66.82.94.29.32.52.51.69.61l.86.31,1.01.21c3.55.53,7.45.23,11.15-.3,2.9-.44,5.7-1.18,8.49-1.94.61-.17,1.21-.37,1.83-.5,2.32-.52,3.1-.44,3.81.16.16.13.36.25.47.38.37.39-.4,1.3-2.08,2.04-2.47,1.11-5.14,1.76-7.85,2.38-2.72.59-5.52,1.03-8.38,1.28-1.68.12-3.36.23-5.12.16-.86,0-1.78-.12-2.68-.23l-1.42-.28c-.24-.06-.51-.16-.76-.24l-.82-.29c-.36-.21-.79-.45-1.02-.68l-.36-.32-.28-.28c-.39-.39-.68-.74-1-1.11l.06-.06Z"/></g><g class="cls-5"><path class="cls-1" d="M388.61,427.57c-.93-.13-1.86-.32-2.79-.49-.95-.21-1.86-.4-2.97-.78-.36-.16-.76-.33-1.06-.55-.26-.23-.51-.47-.75-.72-.39-.45-.64-.82-.97-1.23-.54-.79-1.09-1.57-1.55-2.37-.71-1.16-1.45-2.28-2.11-3.45l-6.77-12.39c-.98-1.84-2.03-3.65-3.07-5.43-.67-1.15-1.37-2.27-2.03-3.42-.65-1.16-1.28-2.33-1.96-3.46-.41-.72-.31-.66.22-.18.52.49,1.52,1.38,2.53,2.55,1.72,2.13,3.27,4.37,4.84,6.6.76,1.13,1.54,2.24,2.25,3.41.69,1.17,1.37,2.35,2.04,3.55,1.58,2.86,3.52,5.66,5.33,8.43.99,1.53,2.01,3.05,3.01,4.45.25.31.54.73.72.87.1.11.19.23.29.23.09.03.16.1.4.15.75.24,1.65.42,2.52.59,2.16.4,4.39.67,6.62.85,3.37.27,6.79.41,10.13.17,2.6-.17,5.1-.76,7.47-1.46.51-.17,1.03-.32,1.53-.5,1.87-.64,2.34-.83,3.25-.25.19.11.41.2.56.3.25.19.26.48.05.95-.09.25-.29.48-.54.73-.25.25-.57.53-.95.72-.56.3-1.14.63-1.74.9-.59.23-1.19.47-1.81.69-.62.21-1.23.32-1.86.48-.63.15-1.25.28-1.88.36-2.53.44-5.07.53-7.62.57-3.78.01-7.54-.29-11.3-.79v-.08Z"/></g><path class="cls-1" d="M105.57,323.44c3.23.15,6.46.28,9.7.34,1.18.02,2.36-.08,3.54-.06,4.16.04,8.34.25,12.51.21,1.85-.03,3.71-.1,5.54-.22,2.35-.23,4.72-.24,7.11.1.75.11.67.37.08.83-.59.45-1.68,1.3-3.02,1.67-4.78,1.09-9.63,1.24-14.52,1.1-2.93-.1-5.96.21-8.95.22-3.29.02-6.57-.03-9.86-.11l-6.07-.18c-3.06-.1-6.14-.28-9.18-.35-2.36-.07-4.7.08-7.05.06-.52,0-1.03.04-1.55,0-.96-.13-1.59-.29-2.01-.55-.42-.29-.65-.63-.81-1.09-.07-.21-.18-.41-.21-.6-.06-.32.12-.6.49-.86.37-.26.94-.54,1.65-.64,1.05-.21,2.1-.25,3.16-.31,1.06-.06,2.12-.07,3.2-.09,2.15-.04,4.32-.01,6.5.07,3.23.12,6.49.27,9.75.35v.1Z"/><path class="cls-1" d="M168.55,166c4.24,2.22,9.76,2.99,13.46-.66,1.38-1.36-.74-3.48-2.12-2.12-1.24,1.22-2.78,1.72-4.51,1.69s-3.67-.64-5.32-1.5c-.72-.38-1.63-.18-2.05.54-.4.68-.18,1.67.54,2.05h0Z"/><path class="cls-1" d="M179.5,188.37c2.79,2.95,8.43,3.66,10.85-.12.42-.66.16-1.68-.54-2.05-.74-.39-1.6-.17-2.05.54-.02.04-.13.24-.17.25.08-.03.2-.22.01-.03-.02.02-.37.39-.39.37,0,0,.28-.2,0,0-.07.04-.13.09-.2.13s-.14.08-.21.11c-.31.16,0-.01,0,0,.03.05-1.04.27-1.04.27,0-.04.38-.03.05-.01-.1,0-.2.01-.3.02-.19,0-.38,0-.56-.01-.09,0-.17-.02-.26-.02-.19,0,.32.06.04,0-.21-.04-.41-.08-.62-.13-.17-.04-.34-.1-.51-.15-.1-.03-.2-.07-.3-.11-.29-.11.26.14-.03-.02-.33-.17-.66-.34-.96-.55-.07-.05-.16-.09-.21-.15.24.27.06.04-.02-.03-.16-.14-.31-.28-.45-.43-.54-.57-1.58-.59-2.12,0s-.58,1.51,0,2.12h0Z"/><path class="cls-1" d="M170.17,160.23c.29-.64.61-1.27.98-1.87.19-.3.38-.59.59-.88.05-.07.1-.14.16-.21s.18-.29-.01.01c.09-.14.22-.28.33-.41.44-.53.92-1.02,1.43-1.48.26-.24.53-.46.8-.68.14-.12-.24.17-.01,0,.07-.05.14-.1.21-.16.16-.11.32-.22.48-.33.65-.44,1-1.34.54-2.05-.42-.65-1.36-1.01-2.05-.54-2.61,1.75-4.75,4.2-6.03,7.08-.32.72-.23,1.65.54,2.05.65.34,1.71.23,2.05-.54h0Z"/><path class="cls-1" d="M95.84,453.78c-.26.06-.47-.15-.65-.44-.06-.09-.04-.36.03-.41.14-.09.29-.18.43-.26.09-.03,1.49-.42,1.97-.61.46-.1.92-.14,1.38-.17.93-.05,1.86-.14,2.79-.22.21-.02.41,0,.62.02.71.11,1.42.06,2.13-.05.12-.02.24-.01.35-.11.18-.15,2.09-.39,2.35-.31.63.13,1.26.18,1.89.26.09.01.18-.03.27.07.21.23.4.16.59.19.27.04.55.08.82.15.14.04.28.15.42.24.13.08.1.37.06.41-.11.11,0,.24.03.35,0,.04.02.09.02.13,0,.04-.37.26-.76.52-.2.14-.4.27-.55.37-.16.08-.29.13-.33.14-.02,0-.59.11-1.2.22-.6.11-1.23.23-1.36.26-.13.04-.27-.01-.41-.04-.06,0-1.88.25-1.95.24-.38-.02-.76.08-1.14-.12-.08-.04-.15-.03-.23-.02-.65.04-1.3-.03-1.95-.08-.33-.02-.66,0-1,0-.06,0-.12-.03-.18-.04-.08-.02-.15-.04-.23-.04-.79.01-1.57-.1-2.35-.04-.18.01-1.04-.34-1.25-.34-.12-.01-.49-.3-.6-.27Z"/><path class="cls-1" d="M168.43,457.61c-.22,0-.41-.28-.58-.49-.05-.07-.05-.24,0-.3.12-.1.24-.24.36-.37.04-.03.12-.1.23-.2.13-.08.3-.11.48-.19.36-.13.77-.29.97-.37.4-.2.8-.22,1.2-.25l2.46-.2c.18-.01.36,0,.55.05.62.15,1.25.15,1.87.07.1-.01.21,0,.31-.1.17-.2,1.87-.12,2.08-.04.54.21,1.08.36,1.62.53.08.02.16,0,.23.11.15.28.32.24.49.27.23.07.46.15.68.27.11.05.21.24.32.37.1.12.02.42-.02.46-.11.1-.04.26-.03.39,0,.05,0,.11,0,.14,0,.02-.09.09-.23.2-.14.08-.32.18-.49.28-.36.23-.73.37-.81.36-.02,0-.51.04-1.02.07-.51.04-1.05.09-1.16.12-.11.02-.23-.04-.34-.08-.05-.01-1.59.18-1.65.14-.32-.05-.64.02-.95-.23-.06-.05-.13-.04-.19-.04-.55,0-1.09-.11-1.64-.19-.28-.04-.56-.02-.84-.03-.05,0-.1-.04-.15-.05-.06-.02-.13-.05-.19-.05-.66-.01-1.33-.09-1.99-.08-.15,0-.89-.3-1.07-.29-.1-.02-.43-.27-.52-.29Z"/><path class="cls-1" d="M340.38,450.27c-.18.04-.34-.12-.49-.31-.05-.06-.05-.23,0-.27.11-.08.22-.17.3-.23.06-.02,1.07-.54,1.41-.63.33-.14.67-.21,1.01-.28l1.03-.2.52-.1.52-.02c.15,0,.31.01.46.06.52.16,1.05.16,1.58.12.09,0,.18,0,.26-.08.14-.14,1.58-.13,1.76-.05.45.18.9.3,1.35.46.06.02.14,0,.19.1.12.26.26.21.4.27.19.03.38.2.56.35.09.08.17.22.26.32.08.09.01.3-.02.33-.09.07-.03.19-.03.29,0,.03,0,.08,0,.1,0,.03-.3.21-.62.5-.31.25-.62.37-.68.36-.01,0-.42.02-.85.03-.43.02-.88.05-.97.07-.1.02-.19-.05-.28-.09-.04-.02-1.33.11-1.38.1-.26-.04-.53.04-.79-.18-.05-.04-.11-.03-.16-.03-.46.02-.91-.08-1.37-.14-.23-.02-.47-.05-.7-.07-.04,0-.08-.04-.13-.06-.05-.02-.11-.05-.16-.06-.55-.05-1.11-.2-1.67-.19-.13,0-.75-.23-.9-.26-.08-.02-.36-.25-.44-.23Z"/><path class="cls-1" d="M361.45,440.84c-.33.02-.6-.29-.84-.56-.08-.09-.06-.33.03-.39.18-.11.37-.24.55-.37.11-.08,1.92-.9,2.53-.99.59-.15,1.19-.21,1.78-.25l1.81-.13c.6-.02,1.21-.02,1.81-.02.27,0,.54.03.8.1.91.23,1.83.25,2.75.2.15,0,.31.01.46-.1.12-.09.81-.13,1.5-.13.69.02,1.4.15,1.56.19.8.28,1.59.47,2.39.67.11.03.24,0,.34.12.24.27.48.27.73.32.34.07.68.16,1.02.26.17.05.33.17.5.26.15.08.06.29,0,.32-.16.07-.03.18-.02.28,0,.03,0,.07,0,.1,0,.03-.51.21-1.04.42-.53.21-1.08.48-1.19.49-.03,0-.76.11-1.53.23-.77.12-1.57.27-1.74.31-.17.05-.34,0-.51-.03-.08.04-2.39.26-2.48.26-.48-.03-.96.08-1.43-.18-.09-.05-.19-.04-.29-.03-.82.05-1.64-.06-2.46-.12-.42-.04-.84.01-1.26,0-.08,0-.15-.05-.23-.07-.09-.03-.19-.07-.28-.07-.99-.02-1.98-.22-2.97-.15-.23.06-1.31-.44-1.58-.46-.15,0-.63-.49-.76-.46Z"/><g class="cls-5"><path class="cls-1" d="M412.43,191.72l-15.26-.2-5.57.02-19.64-.41c-2.91-.06-5.83-.06-8.71-.05-3.7-.1-7.43.02-11.12-.57-1.15-.46-.99-.3,0-.74.49-.24,1.19-.43,2.03-.65.84-.23,1.83-.39,2.89-.41l5.67-.18c1.89-.02,3.78.02,5.67.05,3.78.07,7.57.16,11.38.31,4.56.2,9.3.01,13.97.07l15.39.22c3.16.06,6.32.13,9.48.19,4.78.12,9.59.23,14.34.35,3.69.08,7.32.03,10.97.08.81,0,1.59-.02,2.4.09,3,.31,3.94.58,4.55,1.12.14.12.33.24.4.36.26.37-.98.64-3.18.8-.82.06-1.64.11-2.47.17-.83.05-1.65.02-2.49.02-1.67-.03-3.35-.05-5.04-.08-3.39-.08-6.82-.17-10.26-.25-5.11-.11-10.25-.19-15.38-.23v-.06Z"/></g><g class="cls-5"><path class="cls-1" d="M438.64,211.69l-7.18-.22c-.87-.02-1.75.04-2.62.01-3.08-.15-6.16-.32-9.24-.38-1.37-.07-2.74-.1-4.1-.12-1.74.01-3.5-.26-5.24-.34-.54-.04-.47-.03-.01-.11.46-.08,1.3-.29,2.29-.56,3.54-.89,7.1-1.16,10.69-.94,2.15.12,4.38-.09,6.58-.07l7.25.15,4.46.11c2.25.04,4.51.13,6.75.12,1.74-.01,3.44-.17,5.16-.26.38-.02.75-.06,1.13-.07.71,0,1.17.02,1.5.16.32.17.51.39.66.71.07.15.16.29.19.43.06.23-.05.45-.31.65-.26.2-.67.42-1.18.46-3.07.41-6.3.44-9.54.43-2.41-.04-4.83-.07-7.24-.11v-.06Z"/></g><path class="cls-1" d="M269.06,169.51c-.39-.63-.66-1.33-.81-2.02-.06-.25-.16-.49-.18-.74-.02-.91.24-1.77.54-2.52.13-.34.26-.67.4-.98.17-.41.39-.83.8-1.07.13-.08.33.12.52.39.18.26.37.59.34.78-.13.68-.15,1.27-.37,1.9-.13.39.1.78.15,1.15.07.42.2.82.42,1.21.13.24.29.47.48.68.29.31.62.63,1.03.77.33.1.68.06.98.07.07,0,.14-.02.2,0,.24.1.3.41.36.86l.04.31c.03.32-.11.63-.42.94-.46.32-.97.37-1.5.39-.51-.04-.97-.27-1.41-.52-.64-.39-1.2-.92-1.63-1.53l.05-.04Z"/><path class="cls-1" d="M269.91,159.06c.74-2.13,1.65-4.02,2.55-5.94.33-.7.61-1.42.96-2.11,1.25-2.42,2.61-4.77,4.02-7.09.62-1.03,1.25-2.06,1.87-3.08.75-1.33,1.7-2.56,2.73-3.7.33-.35.46-.18.46.3,0,.48-.09,1.3-.43,2.11-1.26,2.84-2.85,5.42-4.47,8.07-.98,1.58-1.7,3.37-2.47,5.1-.85,1.89-1.7,3.83-2.39,5.74-.42,1.18-.76,2.38-.9,3.57-.23,1.8.03,3.64,1.06,5.07.79,1.12,1.95,1.89,3.16,2.48.27.13.55.23.82.35.51.21.8.47.99.71.17.3.25.56.27.88.01.14.05.29.05.41,0,.2-.14.34-.44.47-.29.13-.75.29-1.25.19-1.48-.26-2.91-1-4.19-2.03-1.29-1.03-2.32-2.55-2.83-4.26-.78-2.56-.29-5.1.37-7.24h.06Z"/><path class="cls-1" d="M271.26,158.33c.44-2.08,1.19-4.03,2.03-5.89.3-.68.55-1.38.91-2.03,1.24-2.29,2.64-4.46,4.17-6.51.69-.91,1.35-1.83,2.01-2.73.84-1.17,1.78-2.27,2.81-3.28.33-.31.43-.16.4.29-.04.44-.17,1.21-.54,1.95-.64,1.33-1.38,2.56-2.11,3.8-.36.62-.73,1.23-1.11,1.85-.39.6-.84,1.17-1.25,1.76-1.01,1.41-1.72,3.06-2.44,4.64-.78,1.75-1.47,3.54-1.94,5.37l-.35,1.71c-.06.57-.15,1.15-.18,1.73-.11,1.73.09,3.54.63,5.1.48,1.17,1.39,2.11,2.36,2.7.22.13.45.21.66.32.81.33.97.66,1.08,1.4.02.17.07.35.08.51.06.53-.55,1-1.66.88-1.58-.33-3.01-1.32-4.01-2.6-.5-.65-.94-1.36-1.23-2.14-.32-.81-.41-1.52-.58-2.27-.37-2.22-.22-4.45.18-6.56h.07Z"/><g class="cls-6"><path class="cls-3" d="M192.24,395.6l-.87.13c-7.83,1.05-15.91,1.01-23.76.05l-2.86-.4c-.95-.18-1.89-.44-2.83-.65l-1.42-.33c-.47-.13-.93-.3-1.39-.44l-2.78-.91c-3.64-1.45-7.26-3.04-10.61-5.19-6.74-4.03-12.84-9.18-18.48-14.77-5.66-5.58-10.74-11.78-15.36-18.28-9.29-13.19-17.88-26.9-25.9-40.92-4.03-7-7.86-14.13-11.62-21.28-3.73-7.18-7.35-14.41-10.92-21.68-7.27-14.48-14.17-29.16-21.24-43.79h0c-.86-1.72-1.65-3.15-1.83-3.35l-2.15-2.32c-1.12-1.41-2.27-2.8-3.33-4.24-.53-.72-1.04-1.45-1.53-2.18-.42-.77-.76-1.58-1.01-2.43-.11-.38-.03.03.14,1.18.14.71.11,1.49.4,2.13l.65,2.01c.44,1.34.81,2.71,1.31,4.01.5,1.39,1.53,3.96,2.71,6.71,3.64,8.21,7.42,16.36,11.16,24.54,3.77,8.16,7.56,16.32,11.51,24.42,4.04,8.05,8.11,16.1,12.42,24.02,2.1,3.99,4.36,7.9,6.54,11.85,2.28,3.89,4.47,7.84,6.84,11.68l3.5,5.8,3.61,5.73,1.81,2.86,1.86,2.83,3.73,5.65,3.84,5.58c1.29,1.86,2.54,3.72,3.91,5.57,1.32,1.87,2.75,3.65,4.14,5.46,1.46,1.76,2.87,3.56,4.41,5.26,5.99,6.92,12.68,13.28,20.14,18.74,3.79,2.66,7.69,5.18,11.9,7.24,1.01.58,2.11,1.01,3.18,1.5,1.08.47,2.13.99,3.26,1.35l3.34,1.19,3.44.92c1.32.4,2.62.52,3.66.68,1.04.14,1.84.21,2.22.21,1.23-.08,2.44-.17,3.66-.31,1.02-.11,1.4-.27,1.14-.48l-.83-.68c-.07-.06.25-.09.89-.08,1.9,0,3.79-.03,5.68-.13,1.55-.07,2.34-.22,2.22-.35-.31-.36,3.08-.59,8.55-1.28l2.33-.34c1.67-.27,2.92-.57,3.46-.76.54-.19.34-.26-.57-.21-.8.05-.49-.11.73-.36,2.6-.57,2.99-.88.96-.66-.7.07-1.4.11-2.1.16-.67.06-.86.02-.51-.1.35-.13,1.2-.29,2.28-.48,2.02-.37,4.03-.79,6.01-1.31,1.61-.43,2.68-.79,2.61-.87-.06-.06-1.24.16-2.88.53-1.22.27-2.44.5-3.67.71-1.85.31-3.77.54-5.68.84"/></g><path class="cls-1" d="M101.42,340.37l3.66.47c.44.05.88.01,1.32.07,1.55.21,3.1.41,4.64.62.69.07,1.38.08,2.06.15.88-.03,1.76.3,2.63.51.27.07.24.18,0,.36-.23.14-.66.53-1.16.77l-.67.29c-.22.09-.45.11-.67.17-.45.08-.89.2-1.34.21-.9.02-1.79,0-2.69-.14-1.08-.18-2.2-.02-3.3-.04-1.21-.02-2.43-.08-3.64-.13-.73-.02-1.44-.07-2.12-.04-1,.05-2.03.24-2.69.79-.55.43-.73,1.17-.81,1.67-.02.12.01.23,0,.32,0,.35-.3.46-.97.79l-.46.23c-.26.12-.52.15-.79.03-.27-.11-.54-.36-.69-.76-.36-1.18-.14-2.55.54-3.53.33-.5.73-.95,1.2-1.33.47-.38,1.04-.71,1.55-.91,1.57-.65,3.1-.68,4.4-.66v.08Z"/><path class="cls-1" d="M100.13,341.07c1.19-.35,2.43-.53,3.6-.59.43-.03.85-.12,1.27-.11,1.5,0,2.95.38,4.35.64.62.14,1.25.15,1.85.32.78.16,1.55.38,2.29.76.23.11.19.15-.03.26-.22.09-.65.41-1.12.54l-1.23.24c-.2.03-.41.08-.6.1l-.59-.02c-.78-.03-1.55-.09-2.32-.21-.46-.07-.93-.05-1.4,0-.47.03-.93.08-1.39.12-1.01.08-2,.21-2.96.49-.59.17-1.18.36-1.74.62-.84.39-1.68.87-2.31,1.53-.49.52-.76,1.19-.99,1.81-.05.14-.08.28-.12.42-.05.12-.11.22-.17.29-.07.07-.19.1-.3.13-.22.05-.46.04-.79,0-.15-.02-.29-.03-.43-.06-.43-.08-.77-.47-.92-1.14.17-1.73,1.31-3.29,2.66-4.35,1.01-.82,2.16-1.39,3.33-1.84l.03.07Z"/><path class="cls-1" d="M139.45,345.06c-3.82.04-7.63.05-11.44-.05-1.39-.02-2.78,0-4.17-.06-4.9-.18-9.79-.47-14.67-.82-2.17-.12-4.34-.33-6.49-.49-1.38-.12-2.76-.24-4.14-.36l-2.07-.24-1.03-.14c-.34-.06-.68-.19-1.02-.28-.84-.29-.73-.18.01-.32.37-.05.91-.29,1.54-.32.63-.07,1.37-.11,2.17-.08,2.82.08,5.63.15,8.45.23,2.81.13,5.63.36,8.46.55,3.39.26,6.92.21,10.39.25,3.82.04,7.64.06,11.46,0,2.35-.03,4.7-.08,7.05-.17,3.56-.13,7.13-.29,10.66-.59,2.74-.24,5.41-.65,8.1-.98.59-.08,1.17-.16,1.77-.23.55-.06,1.02-.11,1.4-.13.39,0,.71.04.97.08.53.08.85.22,1.11.42.12.09.28.18.35.26.25.28-.62.71-2.22,1.19-2.4.48-4.88.9-7.41,1.18-2.53.28-5.1.49-7.69.65-3.83.25-7.69.38-11.54.47v-.05Z"/><path class="cls-1" d="M393.38,438.17c-1.7.45-3.41.83-5.15,1.06-.63.1-1.25.27-1.88.3-2.25.17-4.5,0-6.7-.27-.98-.08-1.96-.26-2.92-.38-1.21-.29-2.54-.27-3.54-1.28-.31-.29-.26-.26.12-.42.19-.08.48-.26.79-.4.16-.07.33-.18.5-.22.16-.02.33-.02.49,0l1.78.14,1.77.08c1.18.08,2.36.17,3.56.26,1.45.13,2.93-.25,4.39-.4,1.61-.23,3.22-.5,4.81-.93.98-.24,1.95-.55,2.9-.89.72-.26,1.43-.56,2.14-.85.69-.33,1.39-.66,2.04-1.04.5-.32.98-.67,1.44-1.02l1.32-1.15c.2-.16.37-.35.56-.52.72-.62,1.08-.63,1.75-.13.15.11.32.22.46.35.47.43.47,1.07-.03,1.68-1.46,1.78-3.48,3.14-5.63,4.18-.78.42-1.63.72-2.44,1.07-.84.31-1.68.6-2.52.87l-.03-.07Z"/><path class="cls-1" d="M412.34,427.9c-.73.36-1.47.67-2.22.93-.27.11-.52.25-.8.33-.98.28-2,.38-2.98.46-.43.06-.87.07-1.29.12-.27.01-.55.04-.82.04-.28-.02-.55-.07-.82-.14-.17-.05-.15-.26-.01-.52.13-.25.37-.58.64-.69.48-.18.95-.35,1.44-.53.48-.14.96-.21,1.47-.28.61-.07,1.15-.43,1.72-.66.62-.26,1.24-.55,1.83-.9.37-.21.73-.43,1.07-.68.52-.37,1.04-.76,1.45-1.26.31-.39.47-.89.64-1.35.04-.1.06-.21.1-.31.17-.35.38-.35,1.09-.01l.45.21c.46.24.85.69.77,1.06-.17,1.12-.86,2.04-1.68,2.79-.6.56-1.29,1.03-2,1.43l-.04-.05Z"/><path class="cls-1" d="M381.07,425.65c-.87-.96-1.53-1.94-2.17-2.88l-1.93-2.86c-.45-.71-.95-1.38-1.38-2.1-1.54-2.52-2.99-5.08-4.4-7.66-.62-1.14-1.25-2.29-1.87-3.42-.78-1.46-1.56-2.93-2.2-4.46-.2-.48-.15-.43.12-.07.26.36.77,1,1.26,1.81,1.75,2.89,3.62,5.68,5.42,8.54,1.07,1.72,2.37,3.38,3.62,5.03,1.37,1.8,2.73,3.66,4.15,5.39.87,1.04,1.8,1.95,2.93,2.42,1.74.7,4.01.82,6.08,1.04,1.63.18,3.25.22,4.86.36.36.03.71.04,1.06.09,1.32.17,1.73.38,1.97.97.05.13.13.27.15.39.09.43-.49.72-1.48.79-1.48.09-2.99.13-4.53.07-.77-.02-1.54-.05-2.31-.11-.77-.1-1.54-.2-2.31-.3-1.12-.15-2.3-.32-3.62-.75-.65-.21-1.33-.53-1.92-.93-.59-.39-1.11-.85-1.56-1.32l.04-.04Z"/><path class="cls-1" d="M346.41,392.68c.68-1.02,1.54-1.73,2.37-2.32.31-.22.58-.47.89-.65,1.11-.64,2.26-1.16,3.44-1.59.52-.18,1.03-.4,1.54-.6.63-.31,1.35-.4,2.07-.38.23.01.25.21.15.51-.1.29-.3.74-.61,1-.52.5-1.14.67-1.71.99-.58.3-1.17.55-1.8.77-.75.27-1.38.83-2.02,1.31-.7.52-1.35,1.07-1.83,1.7-.3.39-.52.81-.67,1.25-.22.67-.26,1.46-.05,2.22.16.59.54,1.11.87,1.66.07.12.16.23.22.36.22.48.14.71-.37,1.08-.12.08-.23.18-.35.25-.4.25-.86.22-1.19-.09-.24-.23-.47-.47-.69-.74-.19-.28-.37-.58-.52-.9-.3-.65-.53-1.38-.61-2.19-.13-1.18.11-2.61.8-3.65l.06.03Z"/><path class="cls-1" d="M232.95,319.6c-1.14.77-62.53,20.36-62.53,20.36,0,0,24.88,38.16,44.39,39.51l30.56-53.07s-5.48,1.47-8.14-1.33c-2.67-2.8-4.27-5.48-4.27-5.48Z"/><path class="cls-1" d="M237.68,323.06c.11.25.33.4.49.64.22.17.41.4.67.54.19.1.4.14.6.23l1.12.59c.41.16.85.32,1.3.37.41.08.81.03,1.21-.03.53-.1.9-.43,1.69,0,.27.16.29.23.31.65.04.44.07,1.3-.25,1.63-.3.2-.62.38-.95.56-.33.16-.68.28-1.03.39-.72.19-1.48.1-2.19-.1-.43-.11-.86-.2-1.31-.23-.44-.09-.89-.18-1.31-.35-.92-.41-1.77-.97-2.47-1.67-.23-.19-.41-.45-.61-.68-.2-.23-.38-.47-.53-.73-.25-.38-.48-.77-.64-1.18l-.27-.6c-.07-.21-.14-.41-.23-.61-.13-.31-.29-.61-.41-.92-.13-.31-.3-.62-.39-.95-.04-.14-.1-.28-.12-.43-.04-.55.25-.74,1.09-.85.2-.03.39-.06.58-.07.65-.04,1.22.14,1.52.41.7.86,1.22,1.43,1.44,2.07.13.21.19.46.34.65l.18.32.24.28-.06.07Z"/><path class="cls-1" d="M255.1,324.32l-31.49,59.56s18.18.75,31.49-1.3c13.31-2.04,34.7-9.52,34.7-9.52l-34.07-48.75h-.62Z"/><path class="cls-1" d="M264.73,322.69l34.46,47.37,18.82-5.75s12.89,21.6,15.07,26.31c2.18,4.71,19.72-1.25,19.72-1.25l26.16-13.12s-22.42-37.12-26.95-42.39-19.53-19.17-24.95-20.92c-12.85-4.16-62.33,9.75-62.33,9.75Z"/><g class="cls-4"><path class="cls-1" d="M196.28,307.3h-.37s-.46.06-.46.06c-.3.03-.63.1-.96.17-.66.13-1.35.33-2.02.54-.5.16-.95.43-1.44.6-1.76.61-3.61,1.13-5.32,1.93-.77.34-1.47.8-2.14,1.27-.42.32-.85.61-1.27.9-.23.14-.42.27-.64.4-.1.07-.24.11-.36.15-.12.04-.24.08-.36.13-.32.09-.62-.11-.82-.67-.1-.27-.17-.7-.19-1.11,0-.39.13-.78.35-1.07.77-1.02,1.73-1.71,2.71-2.34.98-.62,2.02-1.15,3.12-1.55,1.31-.48,2.48-1.32,3.8-1.87,1.45-.59,2.93-1.11,4.57-1.49.49-.12,1.05-.2,1.65-.24.33,0,.72-.01.98.04l.81.16c.82.2,1.64.54,2.39,1.05.75.5,1.4,1.21,1.85,2,.72,1.21,1.16,2.55,1.26,3.9,0,.29.06.58.03.88-.11,1.07-.6,1.29-1.71,1.15-.26-.03-.52-.06-.77-.11-.85-.19-1.44-.74-1.62-1.3-.2-.82-.4-1.5-.61-1.96-.21-.47-.38-.64-.58-.84-.16-.14-.42-.31-.82-.45-.19-.08-.42-.13-.67-.18l-.09-.02h0s0,0,0,0c-.02.18.14-1.57.07-.83h0s0,.03,0,.03v.08s-.04.16-.04.16l-.04.33c-.02.31-.02.21-.03.23h-.02s-.02-.03-.05-.03l-.18.02-.02-.1Z"/></g><path class="cls-1" d="M186.92,303.43c.3-.28.56-.58.81-.89.26-.3.49-.62.66-.96.13-.25.16-.51.23-.76.13-.45.14-.9.06-1.4-.09-.5-.33-1.02-.66-1.51-.29-.44-.66-.84-1.01-1.25-.46-.52-.93-1.09-1.2-1.77-.08-.21.01-.22.21-.13.19.1.52.26.82.5,1.01.89,2.36,1.55,3.17,3.11.47.9.77,2.06.58,3.11-.21,1.15-.72,2.16-1.4,2.97-.41.5-.87.96-1.34,1.38-.69.63-1.43,1.16-2.04,1.78-.47.48-.81,1.06-1.1,1.6-.07.12-.11.24-.18.35-.26.4-.47.43-1.1.21-.14-.05-.29-.09-.43-.15-.46-.19-.72-.61-.59-1.11.37-1.49,1.51-2.51,2.46-3.36.73-.63,1.44-1.17,1.98-1.75l.05.04Z"/><path class="cls-1" d="M202.11,307.96c.42-.75.96-1.51,1.63-2.14.24-.23.46-.48.74-.64.99-.6,2.02-.92,3.02-1.19.44-.13.86-.25,1.3-.37.55-.16,1.09-.33,1.67-.29.18.01.23.28.16.6-.07.32-.24.72-.52.87-.51.25-.99.51-1.48.7-.5.17-.99.33-1.5.47-.61.17-1.08.62-1.51,1.01-.51.4-.95.87-1.32,1.47-.23.36-.44.75-.62,1.17-.27.63-.55,1.3-.76,1.99-.15.54-.23,1.12-.46,1.68-.04.12-.08.25-.15.37-.27.42-.52.46-.94.3-.1-.04-.2-.07-.29-.12-.3-.16-.45-.47-.45-.8-.01-.5.05-.94.11-1.42.11-.45.25-.92.41-1.4.24-.72.53-1.49.92-2.27l.05.02Z"/><path class="cls-1" d="M150.38,242.12c-1.53-1.18-3.16-2.27-4.92-3.14-.64-.32-1.29-.61-1.96-.88-2.31-1.02-4.74-1.79-7.23-2.38-1.1-.29-2.23-.43-3.35-.62-1.44-.18-2.88-.32-4.32-.6-.45-.08-.39-.12,0-.18.39-.05,1.11-.24,1.96-.25,2.99.13,6,.47,8.93,1.31,1.74.52,3.56,1.07,5.29,1.77,1.87.85,3.72,1.76,5.4,2.96.53.34,1.05.71,1.54,1.11.49.4,1.01.76,1.47,1.19,1.43,1.27,2.77,2.65,3.98,4.11.46.58.99,1.09,1.42,1.67.45.57.89,1.16,1.32,1.75.18.27.36.53.52.81.61,1.04.7,1.43.43,1.86-.06.1-.11.21-.18.29-.24.26-.73-.02-1.26-.7-.4-.49-.75-1.02-1.16-1.52-.41-.5-.83-.98-1.2-1.51-.37-.53-.81-1.01-1.21-1.52l-.61-.77-.66-.72-.98-1.08-1.05-1.01c-.68-.7-1.47-1.28-2.22-1.91l.02-.03Z"/><path class="cls-2" d="M175.02,153.91l14.59-17.29s1.04,4.05.33,6.83-10.87,17.3-10.87,17.3l-4.05-6.84Z"/><path class="cls-1" d="M177.35,148.49c.8-1.24,1.7-2.36,2.67-3.39.35-.38.68-.77,1.05-1.12,1.31-1.24,2.68-2.35,4.06-3.47.6-.5,1.18-1.03,1.74-1.56.68-.73,1.52-1.29,2.37-1.83.27-.17.26-.11.15.16-.12.26-.29.79-.59,1.3-.15.21-.26.46-.43.64l-.51.55-1.05,1.08c-.71.71-1.44,1.4-2.22,2.05-.91.8-1.67,1.81-2.44,2.74-.84,1.04-1.69,2.06-2.39,3.17-.44.68-.84,1.39-1.16,2.12-.48,1.11-.87,2.29-.96,3.48-.08.93.08,1.84.31,2.68.04.19.13.36.17.55.18.68.12.93-.45,1.3-.13.08-.25.18-.38.25-.42.24-.96.07-1.28-.54-.94-1.79-1.06-4.05-.51-6.04.38-1.49,1.04-2.89,1.8-4.16l.05.02Z"/><path class="cls-1" d="M143.11,155.11c-2.89,2.09-5.83,4.09-8.82,6.02-1.09.7-2.15,1.46-3.26,2.12-3.93,2.35-7.94,4.54-12.04,6.57-1.81.91-3.63,1.82-5.47,2.65-1.16.57-2.37,1.04-3.59,1.49-1.24.39-2.43.92-3.76,1.02-.82.08-.72.04-.18-.46.52-.56,1.5-1.44,2.78-2.15,1.15-.59,2.24-1.32,3.4-1.87,1.15-.59,2.29-1.2,3.43-1.81,2.31-1.17,4.62-2.35,6.96-3.53,2.79-1.43,5.47-3.3,8.15-5.06,2.94-1.94,5.87-3.91,8.72-6,1.76-1.27,3.49-2.59,5.19-3.94,2.57-2.05,5.12-4.16,7.44-6.45,1.8-1.78,3.37-3.72,4.79-5.69.31-.44.57-.89.86-1.32.24-.4.5-.73.66-.99.17-.25.42-.44.55-.57.16-.14.33-.23.52-.31.19-.05.39-.1.61-.15.19-.05.37-.15.51-.2.24-.07.41.09.64.64.16.31.13.6.09.97-.04.39-.13.75-.3,1.17-1.08,2.31-2.6,4.18-4.2,6.01-1.62,1.8-3.39,3.48-5.2,5.1-2.7,2.39-5.55,4.62-8.42,6.78l-.05-.06Z"/><path class="cls-1" d="M158.52,137.69c-.42.95-.94,1.85-1.51,2.66-.2.3-.37.62-.59.9-.8.98-1.68,1.85-2.55,2.68-.39.37-.77.75-1.14,1.12-.47.48-.95.97-1.53,1.33-.18.11-.3-.05-.33-.34-.03-.28.02-.7.24-1,.83-1.08,1.61-2.14,2.55-3.08.56-.57.92-1.32,1.3-2.01.43-.76.81-1.53,1.1-2.34.18-.5.33-1.01.42-1.52.14-.78.24-1.59.12-2.36-.09-.6-.43-1.14-.75-1.61-.07-.11-.16-.2-.23-.3-.19-.4-.04-.61.63-1.08l.41-.3c.42-.29,1.09-.37,1.49-.02,1.07,1.09,1.35,2.72,1.21,4.18-.09,1.1-.4,2.15-.78,3.12h-.06Z"/><path class="cls-1" d="M142.26,196.89s1.27,6.79-2.33,10.03-8.88,6.42-13.32,6.26-13.01-2.17-15.84-6.36c-2.83-4.19-4.68-10.6-4.68-10.6l.33-6.29,24.64-10.08,18.18-9.91s1.76,1.74-1.37,7.12c-3.13,5.38-3.04,6.4-6.19,6.12-3.15-.27-4.52-2.6-6.75.64s-3.14,4.47-2.08,6.52,4.53,4.98,5.4,5.24,4,1.3,4,1.3Z"/><path class="cls-1" d="M401.5,422.31c-1.99-.07-3.98-.09-5.99-.11-1.01,0-2.01-.04-3.03-.06l-1.54-.05-.79-.04c-.1,0-.31-.02-.55-.04-.22-.02-.44-.04-.66-.05l-.53-.16h-.03s0-.01,0-.01h0s0,0,0,0h0s.04-.08.04-.08h0s0,0,0,0h-.02s-.06-.04-.06-.04l-.12-.07-.24-.14c-.15-.06-.24-.21-.35-.33-.1-.13-.22-.25-.31-.39l-.29-.43-.18-.29-.62-1.04c-.4-.69-.79-1.37-1.14-2.06-2.51-4.91-4.84-9.85-7.25-14.77-1.06-2.19-2.2-4.34-3.29-6.49-1.37-2.78-2.9-5.48-3.89-8.45-.23-.96-.13-.87.55-.3.35.28.77.71,1.28,1.24.52.52,1.04,1.17,1.48,1.95,3.27,5.41,6.14,11.03,8.92,16.74,1.65,3.42,3.68,6.84,5.6,10.17.29.5.59,1,.89,1.47l.22.35s.06.09.1.12c.04.03.1.02.15.03.07.02.13.02.21.02h.55s1.14,0,1.14,0l2.31-.03c1.55-.02,3.11-.02,4.67-.01,2.65.01,5.31.08,7.98.25,1.73.12,3.47.29,5.21.62.87.16,1.75.39,2.64.72.44.17.89.36,1.34.66.44.25.93.75,1.22,1.25.37.69.57,1.47.48,2.29-.14,1.08-.69,1.98-1.3,2.63-.61.67-1.28,1.2-1.97,1.66-1.37.93-2.81,1.64-4.28,2.24-.65.26-1.28.54-1.94.76-2.49.73-3.37.64-4.09-.16-.16-.18-.36-.34-.46-.51-.34-.57.51-1.41,2.16-2.06,2.08-.87,4.24-1.7,6.09-2.77.91-.52,1.76-1.14,2.17-1.68.21-.26.26-.45.27-.5,0-.03,0-.05,0-.09-.01-.03-.03-.06-.03-.09-.03-.05-.06-.1-.04-.09-.02.02,0,0,0,.01.02.03,0-.02-.09-.06-.04-.02-.07-.05-.1-.07l-.17-.08c-.1-.06-.23-.11-.38-.16-.73-.28-1.67-.49-2.63-.66-.97-.17-1.98-.29-3.01-.38-2.05-.19-4.16-.27-6.27-.31v-.08Z"/><path class="cls-1" d="M379.32,437.62c3.88-.21,7.9-.8,11.8-1.66,1.95-.43,3.89-.93,5.78-1.52,1.88-.6,3.73-1.29,5.34-2.15.25-.13.34-.19.5-.32.13-.12.26-.26.29-.44-.01-.2-.23-.27-.38-.34-.17-.06-.34-.11-.51-.15l-.08-.02-.23-.04-.45-.08-.93-.15c-.63-.09-1.26-.17-1.9-.24-1.28-.14-2.58-.25-3.88-.34-2.61-.18-5.24-.3-7.89-.4l-3.98-.16-1-.04-.68-.03-.78-.05-.78-.05h-.1s-.04-.06-.06-.08l-.11-.16-.21-.33c-.29-.42-.55-.9-.81-1.35-1.35-2.35-2.66-4.64-3.93-6.98-2.24-4.14-4.49-8.31-6.72-12.42-1.42-2.64-2.93-5.23-4.31-7.9l-1.99-4.03c-.67-1.34-1.21-2.75-1.83-4.12-.69-1.75-.46-1.6.75-.48.61.56,1.45,1.37,2.47,2.37.97,1.01,1.99,2.28,2.96,3.72.42.64.87,1.28,1.27,1.93l1.15,2,2.26,4c1.48,2.67,2.97,5.35,4.45,8.03,1.5,2.66,2.89,5.38,4.34,8.06l1.09,2.01.55,1,.54.93c.02.07.04.14.08.21.03.08.13.05.2.08-.05.01.45.04.82.06l1.15.06c3.68.2,7.46.26,11.29.43,1.92.09,3.84.19,5.8.42.49.05.98.12,1.48.19l.82.14,1.16.25c.38.09.74.22,1.11.33.35.12.67.28,1.01.42.58.35,1.12.72,1.46,1.22.42.51.62,1.33.44,1.99l-.13.5-.24.47c-.13.32-.39.61-.6.92-.48.59-1.09,1.14-1.79,1.61-.33.26-.69.48-1.07.7-.27.16-.51.29-.76.42-2,1.03-4.03,1.75-6.07,2.4-4.08,1.27-8.21,2.15-12.41,2.78-2.59.37-5.18.64-7.88.59-.67,0-1.36-.05-2.07-.14-.35-.04-.72-.11-1.09-.19-.18-.05-.49-.12-.69-.2-.21-.11-.42-.22-.62-.34l-.56-.44c-.17-.16-.28-.28-.41-.41-.27-.27-.47-.52-.7-.78-.43-.52-.84-1.04-1.23-1.57-2.35-3.18-4.43-6.47-6.51-9.76-2.04-3.3-4.08-6.59-6.11-9.87-3.14-5.09-6.36-10-9.45-15.06-.68-1.11-1.38-2.18-2.04-3.32-2.32-4.29-2.77-5.82-2.44-7.18.08-.31.11-.69.23-.91.4-.74,1.86.72,3.88,3.64,5.9,8.74,11.48,18.33,17.44,27.7,2.22,3.47,4.46,6.94,6.8,10.26.58.83,1.18,1.63,1.78,2.41.3.37.6.77.89,1.08.15.17.29.34.42.46l.17.18h0s.03.03,0,.03c-.13-.03.17.05.32.06.35.06.79.1,1.23.12.89.04,1.85.02,2.83-.05l.02.1Z"/><path class="cls-1" d="M264.23,378.95c2.01-.3,4.02-.69,6.03-1.13.73-.17,1.44-.42,2.17-.58,2.57-.61,5.16-1.25,7.72-1.96,1.14-.32,2.25-.72,3.35-1.12.71-.26,1.41-.54,2.12-.79.36-.11.71-.25,1.09-.31.38-.04.76-.09,1.16-.09.51.06.56.41.37,1.07-.1.34-.27.71-.5,1.1-.12.18-.24.39-.4.54-.16.13-.34.25-.55.32-2.86,1.14-5.82,1.99-8.89,2.61-1.84.37-3.65,1.05-5.49,1.57-2.02.57-4.07,1.06-6.13,1.52-1.27.27-2.54.54-3.82.75-.97.17-1.94.33-2.92.45-.97.15-1.95.26-2.93.39-1.51.2-2.99.52-4.52.66-.34.03-.66.11-1.01.11-.63.02-1.05-.13-1.33-.32-.14-.14-.25-.27-.33-.42-.09-.12-.15-.26-.21-.42-.05-.14-.12-.28-.15-.42-.04-.23.06-.42.29-.63.14-.12.28-.25.43-.38.17-.17.36-.2.58-.28,2.55-.58,5.17-.9,7.85-1.32,1.99-.3,4-.62,6.01-1.01l.02.08Z"/><path class="cls-1" d="M373.02,376.95c.69-.36,1.37-.72,2.04-1.08l.93-.52c.11-.03.08-.14.05-.23.09.17-.33-.81-.64-1.45-1.31-2.77-2.82-5.54-4.36-8.27-3.1-5.47-6.44-10.83-9.95-16.06-2.57-3.82-5.32-7.5-8.09-11.15-4.91-6.41-10.16-12.62-16.21-17.78-1.52-1.28-3.09-2.48-4.74-3.52-1.65-1.04-3.37-1.93-5.15-2.49-1.77-.48-3.68-.73-5.67-.75-.99-.02-1.98-.05-2.98,0-1,.04-2,.05-3,.15-7.13.52-14.29,1.85-21.29,3.3-9.02,1.83-17.92,4.39-27.02,6-2.85.45-2.6-.09-.43-1.42,1.08-.68,2.66-1.49,4.6-2.37.97-.43,2.03-.91,3.18-1.31,1.15-.38,2.38-.76,3.68-1.08,9.19-2.28,18.45-4.38,27.92-5.73,4.74-.66,9.52-1.2,14.47-1.15l1.86.05c.62.03,1.27.12,1.9.18l.95.1c.32.04.66.13.98.2.65.16,1.32.26,1.95.48,2.54.83,4.76,2.11,6.81,3.52,4.89,3.42,9.11,7.58,13.13,11.93,3.99,4.37,7.73,8.97,11.22,13.68,3.83,5.19,7.43,10.52,10.85,15.98,1.71,2.73,3.37,5.49,4.97,8.29,1.59,2.81,3.15,5.62,4.54,8.62l.16.37.22.53c.14.35.29.7.38,1.06.06.18.11.35.13.53.04.18.06.35.04.51-.02.32,0,.7-.24.97-.75,1.06-2.47,1.94-3.13,2.34-1.76.99-3.52,1.89-5.3,2.78-3.55,1.77-7.13,3.44-10.73,5.07-5.46,2.45-10.97,4.81-16.63,6.88-1.42.52-2.84,1.01-4.3,1.45-.73.22-1.47.43-2.23.61-.39.08-.76.18-1.17.24-.41.08-.77.12-1.34.15-1.05.01-2.12-.57-2.77-1.11-.67-.56-1.24-1.17-1.72-1.79-1-1.24-1.81-2.53-2.59-3.83-2.37-4.07-4.33-8.22-6.23-12.38-.94-2.08-1.86-4.17-2.76-6.25l-1.35-3.12-.34-.77-.15-.31c-.1-.2-.19-.4-.32-.56-.01,0-.01-.03-.03-.02-.19.04-.36.14-.53.21l-.25.12-.12.06-.32.14c-.9.38-1.8.76-2.71,1.14-1.73.72-3.19,1.28-4.43,1.68-1.24.41-2.24.74-3.11.91-.87.15-1.57.24-2.17.27-.58.06-1.07.05-1.52,0-.41-.05-.92-.04-1.18-.13-.44-.15.02-.6,1.18-1.34.59-.37,1.34-.84,2.23-1.41.89-.59,2-1.07,3.23-1.68,1.55-.76,3.13-1.47,4.74-2.19.81-.36,1.62-.72,2.45-1.09l1.04-.43c.38-.13.77-.35,1.14-.41.78-.22,1.42-.16,2.09-.15.25.2.44.38.68.58.22.2.47.37.64.7.41.54.69,1.26,1.01,1.94.36.81.72,1.62,1.08,2.43.65,1.49,1.31,2.99,1.97,4.5,1.32,3,2.67,6,4.11,8.95,1.44,2.93,2.95,5.88,4.68,8.43.43.64.88,1.21,1.32,1.74.22.21.45.51.64.65.19.2.41.32.44.35.08-.02-.28.06.61-.09.65-.11,1.41-.31,2.16-.52,2.88-.85,5.84-1.98,8.76-3.13,2.93-1.17,5.86-2.4,8.77-3.68,5.81-2.56,11.62-5.25,17.21-8.13l.06.08Z"/><path class="cls-1" d="M132.43,279.14c5.33,9.64,10.87,19.17,16.73,28.48,1.05,1.71,2.18,3.37,3.29,5.05l3.33,5.01c3.87,5.92,7.94,11.71,12.11,17.42,4.25,5.65,8.59,11.23,13.27,16.52,4.17,4.67,8.56,9.21,13.27,13.23.75.65,1.48,1.33,2.26,1.95l2.35,1.84,2.35,1.83,2.42,1.72c.81.57,1.6,1.17,2.41,1.73l2.49,1.59,1.24.81c.41.28.81.57,1.24.81l1.27.75.64.38.32.19.08.05.04.02h.02s.01.02.01.02h0c-.06.12-.01.04-.02.07l.14.14c.91.95,1.3,1.41,1.21,1.51-.09.11-.67-.07-1.85-.08h-.23c-.11.07-.16,0-.25,0-.16-.02-.32-.04-.49-.07-.34-.05-.7-.11-1.08-.19-.76-.17-1.66-.3-2.54-.64-.9-.31-1.83-.73-2.82-1.19-.98-.47-2.02-.99-2.98-1.69l-2.61-1.79-1.3-.9c-.42-.32-.82-.65-1.23-.98l-2.45-1.98c-.83-.65-1.63-1.32-2.4-2.03-1.54-1.41-3.15-2.77-4.63-4.24-1.48-1.47-2.98-2.93-4.43-4.43-5.77-6.02-11.03-12.49-16-19.18-5.93-8.01-12.09-16.33-17.67-24.83-6.13-9.35-11.87-18.94-17.4-28.64-3.42-5.96-6.68-12.01-9.94-18.05-4.91-9.17-9.59-18.5-14.19-27.73-3.58-7.18-7.2-14.17-10.62-21.33-.75-1.58-1.53-3.11-2.24-4.72-2.67-5.97-3.21-8.02-2.73-9.73.1-.38.16-.86.3-1.12.47-.86,2.15,1.31,4.22,5.59,6.2,12.67,12.72,26.03,19.5,39.34,5.05,9.87,10.24,19.73,15.68,29.42l-.08.06Z"/><path class="cls-1" d="M249.61,382.22c3.35-.23,6.7-.8,10.04-1.42,1.22-.27,2.4-.64,3.62-.89,4.29-.96,8.59-2.05,12.83-3.34,1.88-.58,3.74-1.27,5.56-2.01,1.17-.46,2.31-1,3.51-1.42,1.2-.4,2.35-.92,3.72-.84.52.27.76.43.8.55.04.13-.1.3-.23.91-.29,1.13-1.09,2.48-2.43,3.06-1.17.55-2.39,1-3.6,1.43-1.21.44-2.45.86-3.68,1.25-2.47.8-5,1.49-7.57,2.05-3.08.66-6.15,1.8-9.3,2.52-3.44.85-6.97,1.39-10.49,1.87-2.18.21-4.36.45-6.55.5-3.32.2-6.65-.03-9.94-.21-1.28-.12-2.54-.22-3.82-.29-1.27-.09-2.53-.29-3.81-.44-.56-.07-1.12-.12-1.67-.27-2.05-.52-2.63-.95-2.72-2.11-.02-.26-.08-.51-.06-.75.05-.76,1.08-1.29,2.52-1.1,4.31.48,8.68,1.12,13.18,1.21,3.33.05,6.7.04,10.06-.37l.02.1Z"/><path class="cls-1" d="M155.36,339.33l3.27-.19,3.25-.28c1.09-.08,2.15-.21,3.21-.36,1.06-.14,2.13-.27,3.12-.49l1.51-.3,1.5-.43,3.12-.99,6.29-2.08c3.05-1.07,6.1-2.13,9.14-3.2l32.43-10.78c4.8-1.59,9.58-3.32,14.32-4.97,3.04-1.07,6.08-2.17,9.14-3.21,1.54-.5,3.06-1.03,4.63-1.45.78-.21,1.57-.4,2.36-.59.39-.11.8-.14,1.21-.2.41-.04.8-.16,1.23-.14,1.04-.03,1.52.03,1.54.2.02.17-.39.49-1.07,1.16-.68.65-1.64,1.62-2.9,2.42-.63.41-1.31.87-2.07,1.25-.76.37-1.58.72-2.46,1.02-12.36,4.41-24.82,8.56-37.51,12.45-7.59,2.32-15.3,5.26-22.98,7.89-4.22,1.44-8.45,2.88-12.71,4.27-1.08.34-2.12.69-3.25,1.02l-.84.24-.86.18-1.72.36c-2.28.38-4.53.67-6.78.86-5.53.5-11.05.74-16.56.86-8.35.2-16.72.06-25-.14-6.44-.18-12.76-.2-19.16-.69-1.41-.1-2.79-.22-4.22-.38-1.32-.13-2.41-.36-3.32-.55-.91-.2-1.64-.37-2.23-.61-1.18-.5-1.79-1.02-2.19-1.71-.18-.31-.44-.64-.51-.92-.12-.48.39-.76,1.37-.86.98-.1,2.38.04,4.26.19,11.04,1.05,22.95,1.37,34.85,1.55,8.85.08,17.76.05,26.57-.52l.02.1Z"/><path class="cls-1" d="M192.14,141.88c-.3,2.1-.94,4.06-1.75,5.89-.32.66-.55,1.35-.9,1.98-1.26,2.22-2.76,4.24-4.4,6.11-.74.82-1.47,1.65-2.21,2.44-.49.5-.96,1.03-1.49,1.48-.57.41-1.17.81-1.89,1.01-.45.13-.4.09-.28-.33.09-.46.26-1.26.61-1.98.86-1.03,1.68-2.09,2.49-3.15.77-1.1,1.62-2.12,2.48-3.17,1.05-1.25,1.69-2.83,2.36-4.32.74-1.64,1.38-3.33,1.69-5.06.14-.53.14-1.07.23-1.61.06-.54.02-1.07.03-1.61-.1-.8-.15-1.61-.41-2.34-.24-.75-.61-1.45-1.1-2.05-.77-.94-1.86-1.49-2.94-1.83-.24-.08-.49-.11-.73-.18-.88-.27-1.09-.58-1.12-1.54,0-.22-.03-.44-.02-.66.02-.71.62-1.24,1.61-1.2,1.45.09,2.91.71,4.16,1.68,1.25.97,2.22,2.32,2.88,3.78.5,1.08.75,2.28.84,3.38.09.56.07,1.11.07,1.66.01.55-.03,1.09-.1,1.62h-.08Z"/><path class="cls-1" d="M187.77,163.62c.95.73,1.88,1.49,2.83,2.29.35.28.73.54,1.05.89.28.31.57.64.84,1,.27.4.58.76.81,1.52.05.17.09.54.07.65l-.06.39c-.03.26-.13.5-.2.74-.19.46-.43.88-.71,1.24-.49.63-1.01,1.16-1.54,1.62-.34.29-.68.58-1.03.83-.18.13-.35.24-.53.34l-.27.15c-.09.04-.23.04-.33.06-.29.03-.4-.07-.49-.49-.13-.48-.07-1.16.26-1.52,1.19-1.29,2.05-2.38,2.24-3.18l.03-.1h0s0-.02,0-.02h0s0,0,0,0c-.18,0,1.53-.07.81-.04h0s-.02,0-.02,0h-.09c-.06.01-.12.03-.17.05-.08.04-.37.11-.47.18.02.02,0-.01-.02-.03-.03-.07-.18-.23-.33-.35-.32-.28-.73-.55-1.13-.84-.86-.67-1.76-1.4-2.7-2.08-.58-.42-1.16-.84-1.76-1.24-.91-.6-1.81-1.24-2.77-1.75-.75-.4-1.6-.61-2.39-.96-.18-.08-.37-.13-.54-.22-.63-.36-.7-.71-.29-1.53.09-.19.18-.37.28-.55.37-.58.91-.9,1.42-.82.75.12,1.5.32,2.2.62.7.32,1.38.7,2.05,1.11,1,.61,1.98,1.3,2.97,1.98l-.04.07Z"/><path class="cls-1" d="M116.48,208.46c1.17.71,2.37,1.42,3.7,1.85,1.28.5,2.63.76,4.06.88,1.03.09,2.08-.02,3.12-.07,3.66-.16,7.46-1.21,10.29-3.57,1.22-1.07,2.19-2.4,2.79-3.88.21-.47.34-.97.47-1.46.13-.5.26-1,.35-1.52.06-.26.09-.52.13-.78.07-.26.16-.53.2-.8.11-.54.26-1.1.33-1.67.13-.71.2-.65.6-.09.2.28.53.69.86,1.22.17.27.35.56.5.89.08.16.12.34.22.52.02.18.06.36.07.55.02.66.05,1.34-.03,2.01-.04.68-.25,1.34-.44,2-.41,1.31-1.03,2.59-1.89,3.68-1.71,2.18-4.02,3.73-6.44,4.65-2.88,1.1-5.91,2.01-9.02,2.12-1.7.04-3.41-.08-5.09-.45-.85-.16-1.68-.43-2.47-.73-.81-.26-1.58-.64-2.35-1-1.86-.95-3.57-2.17-5.09-3.58-2.27-2.18-4.01-4.86-5.15-7.74-.91-2.22-1.57-4.55-1.75-6.97-.07-.53-.1-1.06-.04-1.59.1-2,.76-2.54,1.57-2.79.2-.06.39-.14.56-.16.3-.03.53.17.75.54.21.37.45.9.47,1.53.31,1.89.5,3.69,1,5.46.46,1.77,1.21,3.45,2.16,5.01,1.34,2.36,3.32,4.36,5.62,5.86l-.05.08Z"/><path class="cls-1" d="M190.99,180.6c.67,4.26.72,8.71-.3,13-.39,1.55-.8,3.12-1.46,4.58-1.18,2.58-2.8,4.92-4.73,6.94-1.92,2.03-4.17,3.68-6.53,5.05-2.1,1.21-4.29,2.28-6.53,3.1-1.44.54-2.91.98-4.4,1.34-.75.15-1.5.33-2.26.42-.75.13-1.54.07-2.3.06-.96-.04-.87-.38-.16-1,.35-.32.85-.69,1.44-1.14.6-.4,1.31-.7,2.1-.95,5.58-1.76,10.95-4.02,15.33-7.81,2.65-2.24,4.49-5.46,5.64-8.76,1.28-3.66,1.58-7.67,1.16-11.63-.27-2.42-.73-4.93-1.46-7.23-1.18-3.5-2.99-6.89-5.13-10-1.66-2.43-3.6-4.59-5.5-6.83-.42-.49-.86-.95-1.27-1.46-1.53-1.88-1.73-2.71-1.25-3.71.11-.23.2-.49.34-.67.48-.63,1.57-.21,2.83,1.04,3.64,3.8,7.16,8.21,10.05,13.25,1.07,1.88,2.03,3.85,2.81,5.94.39,1.04.71,2.13.99,3.22.25,1.06.47,2.12.67,3.2l-.08.02Z"/><path class="cls-1" d="M138.66,184.96c-1.06,0-1.95.16-2.62.47-.66.3-1.09.81-1.41,1.59l-.15.44c-.02.15-.02.3-.04.45l-.05.45c.02.15.03.3.04.45.03,2.11,1.8,4.5,4.23,5.51,1.08.46,2.26.49,3.37.41l1.04-.24c.33-.14.65-.3,1-.39.64-.34,1.31-.61,2.2-.88.52-.2.65-.04.65.6,0,.32,0,.81-.04,1.46-.01.33-.18.54-.33.8-.16.25-.36.49-.6.71-.86.75-1.96,1.18-3.08,1.48-.28.09-.56.14-.85.17-.29.03-.57.07-.86.08-.58.03-1.13-.11-1.7-.18-2.22-.44-4.18-1.6-5.62-3.21-.82-1-1.66-2.01-2.18-3.28-.32-.59-.45-1.28-.63-1.94-.06-.34-.06-.69-.09-1.04-.02-.35-.04-.69.04-1.03l.2-1.12c.11-.35.24-.7.37-1.05.14-.34.36-.68.54-1.01.21-.32.48-.63.73-.92,1.12-1.15,2.64-1.7,3.97-1.88.8-.11,1.57-.12,2.29-.11h1.03c.25.02.38,0,.56-.09.02-.02.05-.03.08-.05,1.7-1.11,3.29-2.65,4.46-4.39.91-1.37,1.44-2.9,1.82-4.42.08-.34.11-.67.2-1,.27-1.23.51-1.58,1.51-1.72.22-.03.44-.09.65-.1.67-.05,1.27.64,1.2,1.79-.16,3.44-1.95,6.78-4.34,9.38-.56.62-1.17,1.19-1.81,1.74-.32.27-.65.53-1,.79l-.53.37c-.19.11-.33.22-.7.44-.4.17-.8.34-1.23.41-.21.06-.45.06-.62.07l-.4.02c-.49.02-.91.02-1.3.04v-.08Z"/><path class="cls-1" d="M125.48,121.59c-.65.13-1.32.19-1.97.36l-1.93.56c-.32.1-.65.18-.97.28l-.94.39-1.89.78c-2.49,1.09-4.84,2.5-7,4.15l-.6.44c-.19.16-.36.34-.54.51l-1.07,1.03-1.07,1.03c-.34.36-.64.76-.97,1.13-4.73,5.18-7.59,12-8.67,19.08-.15,1.59-.42,3.17-.36,4.77l-.02,2.39c.05.8.11,1.59.16,2.38l.12,1.52.24,1.51c.18,1,.26,2.03.51,3.02.2,1,.3,2.03.43,3.05.17,1.01.4,2.02.52,3.06.01,1.35-.12,1.23-.98.34-.82-.89-2.28-2.64-3.13-5.03-.2-.52-.29-1.07-.43-1.61l-.28-1.64c-.16-1.1-.41-2.19-.46-3.3-.09-1.11-.19-2.22-.25-3.34-.01-1.12.05-2.24.07-3.35.3-4.46,1.23-8.91,2.91-13.09,2.01-4.97,4.79-9.96,8.74-13.84,4.33-4.27,9.72-7.26,15.44-9.02,1.76-.6,3.61-.85,5.44-1.15l2.78-.17c.92-.05,1.85.06,2.77.08.35.02.7.02,1.05.06l1.04.16,2.07.32,2.03.52,1.01.26.98.35,1.96.69,1.9.84.95.42.91.48,1.83.95c3.71,2.08,7.18,4.44,10.36,7.21.69.62,1.38,1.21,2.06,1.86,2.44,2.47,2.95,3.51,2.69,4.67-.06.26-.08.56-.18.77-.34.69-1.7.03-3.45-1.63-2.63-2.45-5.41-4.83-8.39-6.97-2.98-2.14-6.17-4.05-9.58-5.37-5.03-1.95-10.51-2.85-15.79-1.82l-.02-.08Z"/><path class="cls-1" d="M169.51,271.38c-2.53-4.84-5.03-9.66-7.75-14.33-1-1.7-2.12-3.31-3.17-4.96-1.87-2.9-3.86-5.7-6.13-8.2-2.25-2.49-4.91-4.6-7.88-6.22-2.62-1.46-5.54-2.38-8.45-2.89-1.88-.34-3.79-.46-5.69-.45l-2.87.05c-.48.01-.96.05-1.44.07-.49,0-.99-.08-1.49-.07-1.26-.08-1.15-.19-.23-.92.87-.87,2.74-2.17,5.2-2.44,2.16-.19,4.35-.15,6.52.14,2.16.31,4.28.91,6.31,1.68,4.06,1.59,7.78,3.99,10.84,7.07,3.63,3.69,6.83,7.79,9.59,12.06,3,4.7,5.69,9.55,8.28,14.43,1.59,2.99,3.18,5.99,4.77,8.98,2.44,4.5,4.87,9.04,7.67,13.22,2.17,3.25,4.67,6.2,7.44,8.63.31.26.63.48.94.73.31.25.63.47.95.67.29.21.55.4.8.58.25.14.47.28.67.42.4.3.72.45.98.66.52.43.79.76,1.03,1.32.11.25.28.5.36.72.12.38-.15.65-.87.85-.36.1-.84.17-1.36.07-.52-.08-1.17-.18-1.78-.47-.96-.37-1.82-.85-2.67-1.39-.78-.58-1.6-1.16-2.29-1.82-1.47-1.28-2.72-2.72-3.95-4.18-2.38-2.97-4.43-6.15-6.37-9.37-2.87-4.79-5.42-9.71-8.04-14.56l.08-.05Z"/><path class="cls-1" d="M237.91,292.13c5.09-1.87,10.2-3.81,15.82-4.82,2.06-.32,4.22-.65,6.54-.17,1.99.45,3.63,1.19,5.27,1.97,1.62.8,3.17,1.69,4.68,2.64,3,1.93,5.89,4.02,8.34,6.86.26.33.53.66.77,1.03.13.17.24.37.36.57.13.21.21.51.32.77.44,1.05.46,2.25-.17,3.15-.29.46-.78.76-1.25.97-.51.17-1.08.19-1.64.13-.29-.04-.57-.1-.86-.18-.14-.03-.3-.08-.41-.12l-.3-.1c-.4-.14-.77-.3-1.14-.47-1.87-.87-3.56-1.9-5.23-2.92l-2.48-1.53c-.42-.23-.81-.52-1.2-.8-.39-.28-.8-.52-1.21-.77-1.01-.59-.91-.63.22-.67.56,0,1.37.05,2.34.18.94.18,1.95.58,2.97,1.09,1.79.92,3.55,1.87,5.25,2.62.42.18.84.35,1.24.48l.43.13h.01s.07.04.1,0c0-.09.19.15-.39-.72-.46-.64-1.08-1.3-1.74-1.94-1.33-1.28-2.84-2.49-4.38-3.66-1.87-1.39-3.94-2.61-6.09-3.61-1.07-.5-2.17-.94-3.25-1.27-1.09-.34-2.04-.49-3.16-.49-2.42-.04-5.02.56-7.56,1.23-2.55.7-5.1,1.57-7.63,2.49-3.12,1.13-6.23,2.34-9.35,3.55-4.72,1.84-9.52,3.6-14.34,5.16-3.76,1.19-7.47,2.4-11.45,2.98-.87.16-1.74.23-2.63.31-.84.01-1.53.02-2.12-.03-.59-.07-1.06-.15-1.43-.27-.75-.29-1.15-.68-1.42-1.15-.12-.22-.29-.44-.34-.65-.16-.68,1.17-1.03,3.33-1.17,6.47-.44,13.24-2.6,20-5.01,5.02-1.82,10.05-3.85,15.14-5.83l.04.08Z"/><path class="cls-1" d="M279.43,308.07c-.14.38-.41.68-.67.93-.41.29-.81.49-1.3.63-.5.1-1.05.14-1.64.08-.59-.06-1.19-.2-1.77-.36-.43-.14-.72-.25-1.08-.38-.59-.23-1.18-.41-1.74-.68-1.95-.94-3.76-2.03-5.55-3.14-.79-.49-1.63-.9-2.43-1.34-1.02-.59-2.08-1.09-2.99-1.85-.29-.23-.2-.37.2-.51.39-.14,1.14-.34,1.81-.12,2.43.64,4.5,1.83,6.57,3.06,1.21.79,2.61,1.31,3.93,1.85.36.15.73.29,1.09.42l.88.3c.3.1.68.21,1.08.15l.12-.04c.23-.06.39-.28.32-.49-.05-.2-.18-.38-.33-.56-.12-.15-.26-.28-.4-.43l-.11-.11-.19-.17-.43-.35c-.58-.46-1.19-.89-1.82-1.29-.99-.6-2.03-1.1-3.05-1.64-.23-.12-.46-.21-.68-.35-.76-.58-.93-.9-.8-1.5.02-.13.03-.26.06-.36.08-.3.67-.54,1.39-.37,2.12.53,4.11,1.53,5.97,2.91.35.25.69.52,1.04.8l.75.65c.3.27.58.55.83.84.52.57.88,1.17,1.06,1.73.15.56.18,1.1-.03,1.69l-.06-.02Z"/><path class="cls-1" d="M274.66,307.78c.26.31.44.62.58.93.07.15.11.31.16.47,0,.16,0,.31,0,.49-.03.7-.55,1.39-1.1,1.72-.56.31-1.22.48-2.02.46-.44,0-.91-.03-1.38-.1-.23-.03-.47-.06-.7-.11-.18-.04-.3-.06-.45-.11-1.95-.58-3.74-1.36-5.51-2.16-.78-.36-1.58-.67-2.38-.98-.49-.24-.99-.46-1.47-.73-.47-.28-.91-.64-1.35-1-.27-.24-.14-.39.24-.54.38-.14,1.05-.37,1.7-.33.55.09,1.09.22,1.63.33.53.14,1.02.37,1.53.56,1.01.39,2,.85,2.97,1.36.58.3,1.21.52,1.84.7.32.09.64.17.95.24l.47.11.23.05.09.03c.26.07.58.17.94.14.15-.01.31-.09.39-.21.08-.13.05-.28-.02-.39-.09-.16-.23-.31-.38-.45-.18-.16-.28-.25-.61-.47-1.13-.74-2.33-1.46-3.57-2.08-.96-.49-1.98-.83-2.97-1.33-.21-.12-.42-.23-.63-.38-.37-.28-.61-.49-.71-.74-.06-.29-.05-.5.01-.72.03-.1.05-.2.08-.28.06-.13.2-.17.42-.2.13-.02.26-.03.39-.05.16-.03.27.03.43.06.45.13.9.26,1.35.39.44.18.88.37,1.32.57.89.4,1.79.85,2.69,1.33.67.36,1.34.74,2.01,1.16l.5.32.85.58c.56.44,1.14.88,1.51,1.36l-.07.02Z"/><path class="cls-1" d="M263.95,314.85l-.69-.21c-.23-.07-.48-.16-.56-.19l-.73-.27-1.43-.56-2.82-1.14c-.68-.28-1.39-.47-2.06-.75l-1.3-.55-.62-.26-.42-.16c-.17,0-.18-.03-.59.1-.34.11-.72.25-1.11.4-.78.3-1.6.58-2.46.79-1.21.29-2.5.42-3.75.27-1.6-.13-3.18-.79-4.17-2.03-.32-.37-.23-.37.23-.39.23-.01.56-.04.94-.1.36-.02.76-.06,1.14,0,2.68.47,4.7-.1,7.57-1.18l.94-.34c.42-.15.97-.24,1.46-.24.58.06.86.17,1.19.26l.94.28c.61.2,1.2.41,1.79.64,1.89.75,3.74,1.53,5.61,2.22l1.18.44c.3.11.62.21.95.3.32.07.67.16,1.02.15.19,0,.4-.05.51-.2.13-.14.11-.34.04-.5-.15-.32-.43-.57-.74-.8-.35-.26-.77-.47-1.14-.62-.18-.07-.35-.13-.53-.19l-.95-.43c-.28-.13-.57-.22-.84-.38-1-.58-1.25-.89-1.2-1.61,0-.15,0-.31.02-.44.06-.41.73-.7,1.62-.49.67.14,1.34.3,1.97.58l.48.2c.16.07.29.12.6.28.52.27,1.13.6,1.68.94,1.13.68,2.09,1.49,2.64,2.24.53.76.71,1.39.67,2.12-.02.33-.13.75-.34,1.12-.21.38-.48.65-.7.84l-.46.27c-.14.09-.3.17-.5.22-.38.11-.84.17-1.37.16-1.08-.03-2.42-.35-3.72-.72v-.08Z"/><path class="cls-1" d="M191.14,264c-1.88-3.01-3.8-6.02-5.93-8.86-.76-1.05-1.61-2.03-2.42-3.04-2.8-3.61-5.73-7.16-8.97-10.42-.7-.74-1.45-1.44-2.21-2.12-.75-.69-1.5-1.38-2.27-2.04l-3.01-2.49c-1.03-.79-1.97-1.71-2.92-2.63-.58-.58-.29-.8.52-.74.79.09,2.22.32,3.54,1.12,1.12.77,2.21,1.58,3.32,2.38,1.1.81,2.13,1.69,3.19,2.56,2.01,1.85,3.93,3.8,5.69,5.9,2.14,2.48,4.47,4.96,6.57,7.57,2.25,2.91,4.41,5.88,6.39,8.97,1.26,1.88,2.4,3.82,3.59,5.73l2.55,4.44c.82,1.49,1.64,2.98,2.46,4.46.63,1.15,1.3,2.27,1.97,3.39l1.96,3.37c.29.5.59.98.82,1.5.44.97.69,1.64.73,2.17.02.54-.12.91-.41,1.29-.13.17-.24.37-.38.5-.24.22-.57.18-.97-.05-.4-.24-.9-.67-1.32-1.33-1.33-1.91-2.48-3.95-3.62-6.04-1.18-2.06-2.29-4.2-3.48-6.29-1.72-3.14-3.54-6.24-5.43-9.28l.07-.05Z"/><path class="cls-1" d="M119.74,434.44c1.81-2.4,3.63-4.81,5.41-7.24.65-.89,1.21-1.83,1.87-2.72,2.3-3.12,4.63-6.23,6.9-9.38.99-1.41,1.96-2.84,2.91-4.27,1.23-1.82,2.26-3.78,4.04-5.23.78-.3.68-.26.86.56.1.42.11.92.12,1.52-.03.58-.18,1.18-.46,1.75-1.06,1.99-2.27,3.87-3.47,5.77-1.31,1.82-2.68,3.62-4.12,5.37-1.73,2.1-3.17,4.52-4.78,6.78-1.76,2.48-3.57,4.94-5.38,7.39l-3.35,4.52c-1.68,2.29-3.42,4.55-5.03,6.86-1.25,1.79-2.34,3.65-3.51,5.48-.26.4-.49.81-.76,1.21-.51.73-.89,1.18-1.27,1.41-.39.22-.79.23-1.23.14-.2-.04-.4-.05-.56-.1-.27-.09-.39-.35-.44-.79-.06-.45.06-.99.37-1.57,1.81-3.46,4.06-6.85,6.46-10.15,1.79-2.44,3.58-4.9,5.37-7.35l.07.04Z"/><path class="cls-1" d="M117.26,434.31l5.4-7.3c.67-.88,1.28-1.8,1.97-2.67,2.42-3.06,4.92-6.05,7.43-9.04,1.12-1.32,2.17-2.7,3.24-4.04.68-.86,1.34-1.75,2.04-2.6.68-.87,1.46-1.66,2.35-2.34.71-.3.62-.26.59.47,0,.37-.1.83-.22,1.36-.07.26-.13.56-.26.83-.13.26-.29.52-.48.78-2.66,3.59-5.33,7.15-8.21,10.61-1.73,2.06-3.25,4.42-4.85,6.66-1.75,2.47-3.59,4.89-5.36,7.36l-3.28,4.55c-1.64,2.31-3.32,4.61-4.88,6.95-1.21,1.83-2.28,3.69-3.43,5.53-.25.4-.48.81-.75,1.21-1,1.48-1.49,1.82-2.33,1.69-.19-.03-.4-.04-.57-.1-.58-.2-.56-1.08.03-2.25,1.76-3.47,3.94-6.9,6.27-10.26,1.71-2.5,3.49-4.98,5.24-7.48l.06.04Z"/><path class="cls-1" d="M333.13,94.83c6.51-2.59,13.28-4.55,20.17-5.81,6.91-1.23,13.9-1.75,20.93-1.53,5.15.19,10.28.83,15.25,2.08,8.8,2.16,17.07,5.94,24.76,10.52,7.65,4.67,14.69,10.24,21.04,16.49,1.43,1.36,2.78,2.81,4.17,4.22,1.33,1.47,2.7,2.89,3.97,4.41,2.61,2.97,5.06,6.07,7.36,9.24,2.95,4.08,5.77,8.3,8.09,12.8.57,1.13,1.18,2.24,1.69,3.4l.79,1.73.39.86c.08.31.2.6.3.9.86,2.38,1.61,4.8,2.22,7.25.72,3.06.38,2.71-1.05.44-.69-1.14-1.8-2.7-3.08-4.57-.66-.93-1.39-1.91-2.09-2.99-.69-1.08-1.31-2.27-2.02-3.48-9.57-17.37-22.91-32.82-39.36-44.36-9.79-6.97-21.58-11.93-33.62-14-1.66-.23-3.32-.54-4.99-.65-.84-.07-1.67-.18-2.51-.22l-2.51-.09c-1.67-.08-3.38.02-5.07.02-1.69.06-3.38.19-5.07.29-6.75.59-13.44,1.89-19.95,3.85-1.01.29-2,.59-2.99.95l-2.96,1.03c-1.94.77-3.91,1.49-5.81,2.37-3.84,1.66-7.56,3.61-11.17,5.74-10.93,6.46-20.84,14.82-29.05,24.43-6.34,7.51-11.6,15.66-15.91,24.32-.99,1.89-1.79,3.82-2.71,5.76-3.22,7.28-4.11,9.64-5.7,10.91-.35.29-.74.71-1.03.86-.49.24-.62-.46-.41-1.95.1-.75.29-1.69.58-2.8.32-1.1.73-2.37,1.23-3.79,6.11-16.72,16.74-32.9,30.6-45.86,10.29-9.6,22.31-17.56,35.46-22.84l.05.09Z"/><path class="cls-1" d="M413.41,194.69l-17.08-.3-6.23-.02-21.97-.45c-3.25-.05-6.52-.03-9.74,0-2.07.03-4.15.04-6.23.03-2.08-.05-4.16,0-6.24-.49-.64-.31-.91-.48-.88-.57.02-.1.35-.18.91-.52.56-.35,1.33-.58,2.27-.9.94-.27,2.03-.41,3.22-.43l6.33-.09c2.11.02,4.23.03,6.34.05,4.23.05,8.48.16,12.74.33,5.1.21,10.41.05,15.63.09,5.74.03,11.48.11,17.22.2,3.53.05,7.07.1,10.6.15,5.35.06,10.72.19,16.03.19,4.13.01,8.18-.16,12.27-.21.9-.01,1.78-.06,2.69-.05,3.37.08,4.43.41,5.12,1.15.16.17.37.35.46.52.3.56-1.08,1.01-3.54,1.22-7.28.43-14.96.37-22.67.34-5.73-.06-11.48-.11-17.23-.17v-.08Z"/><path class="cls-1" d="M437.69,213.64c-2.81-.11-5.63-.2-8.44-.27-1.03-.02-2.06.04-3.08,0-3.63-.12-7.25-.23-10.88-.35-1.61-.05-3.23-.03-4.82-.01-2.05.08-4.11-.01-6.16-.25-.64-.08-.55-.38-.01-.73.54-.34,1.53-.8,2.71-.94,2.09-.29,4.18-.26,6.27-.33,2.09-.04,4.19-.03,6.3.06,2.52.14,5.15-.03,7.73-.04,2.84,0,5.68.02,8.53.05l5.25.08c2.65.02,5.31.15,7.95.16,2.05.01,4.06-.14,6.09-.09.45,0,.88-.02,1.33,0,1.67.1,2.19.31,2.51.96.07.15.17.3.21.44.13.49-.57.87-1.78,1.01-1.81.18-3.66.39-5.53.46-1.87.04-3.77.05-5.67.04-2.82.02-5.66-.15-8.5-.18v-.07Z"/><path class="cls-1" d="M91.01,189.92c-.06.06-.13.2-.02.25.02.03.05.05.09.07l.05.03.28.07c.45.17,1.02.23,1.58.32,1.17.08,2.44.05,3.73-.11,2.59-.3,5.24-.95,7.87-1.72,5.26-1.57,10.44-3.65,15.54-5.88,4.06-1.79,8.02-3.8,11.99-5.79,3.5-1.76,6.98-3.57,10.41-5.46,3.43-1.85,6.69-3.93,9.98-6.08,6.54-4.32,12.93-8.89,19.02-13.82,2.69-2.2,5.33-4.46,7.79-6.88,1.23-1.21,2.41-2.45,3.51-3.75,1.08-1.29,2.1-2.65,2.81-4.05.33-.67.6-1.35.68-1.97.09-.61-.05-1.12-.28-1.38-.15-.15-.28-.23-.54-.29-.28-.09-.67-.11-1.05-.13-.79-.01-1.64.08-2.49.2-1.71.26-3.46.67-5.19,1.11-1.74.44-3.48.92-5.25,1.33-1.77.41-3.53.91-5.36,1.16-1.43.11-2.07.02-2.06-.15,0-.18.65-.49,1.68-1.16,1.04-.67,2.54-1.43,4.38-2.32.93-.43,1.94-.9,3.04-1.31,1.11-.4,2.3-.78,3.58-1.11,1.66-.42,3.35-.81,5.15-1.05.91-.12,1.84-.21,2.9-.15.52.02,1.1.1,1.76.28.77.23,1.52.69,2.06,1.32,1.22,1.48,1.27,3.27,1.01,4.51-.26,1.29-.74,2.31-1.25,3.25-1.04,1.86-2.28,3.4-3.55,4.89-2.57,2.93-5.35,5.52-8.22,8.01-5.78,4.9-11.87,9.33-18.14,13.54-4.61,3.05-9.28,6.23-14.28,9.04-4.93,2.8-9.95,5.5-15.03,7.98-5.59,2.72-11.27,5.28-17.12,7.48-2.93,1.09-5.9,2.1-8.97,2.9-1.54.39-3.08.76-4.67,1-1.58.26-3.21.42-4.9.36-.9-.02-1.84-.13-2.78-.37-.84-.17-2.2-.8-3.1-1.58-.34-.37-.73-.75-.83-1.29-.08-.52-.06-1.04.14-1.55.17-.5.46-.99.78-1.45.15-.23.33-.47.49-.66.13-.16.26-.32.39-.46,1.06-1.19,2.2-2.21,3.35-3.2,2.31-1.96,4.7-3.77,7.14-5.51,1.19-.84,2.37-1.67,3.63-2.46l.49-.3.3-.16.25-.12.99-.46,1.95-.92,7.8-3.72c5.17-2.51,10.34-5.04,15.32-7.77.97-.53,1.92-1.08,2.85-1.64.91-.56,1.82-1.17,2.73-1.79,1.82-1.23,3.62-2.48,5.4-3.74,3.54-2.55,6.97-5.19,10.17-8.09,1.42-1.27,2.74-2.59,4.1-3.94,4.96-5.11,6.7-6.65,8.37-7.23.38-.13.83-.36,1.11-.39.9-.13-.54,2.52-3.97,6.64-2.61,2.99-5.47,5.9-8.55,8.61-3.1,2.7-6.41,5.2-9.8,7.56-1.69,1.18-3.41,2.34-5.13,3.48-.86.57-1.71,1.14-2.67,1.72-.93.55-1.84,1.09-2.77,1.59-3.68,2.03-7.4,3.9-11.14,5.75-2.78,1.38-5.56,2.72-8.36,4.06l-4.2,2-2.09.99-.51.25c-.15.07-.38.18-.39.19-.23.13-.56.35-.86.54-2.48,1.66-4.95,3.5-7.3,5.38-1.16.96-2.3,1.95-3.36,2.96-.53.51-1.05,1.02-1.51,1.53-.24.26-.45.51-.66.77l-.2.26-.09-.03Z"/><path class="cls-1" d="M199.13,304.96c-.08-.13-.29-.18-.43-.28-.17-.08-.28-.22-.5-.26l-.59-.2c-.2-.08-.39-.15-.61-.15-.42-.04-.83-.16-1.27-.1l-.66.03c-.22.02-.45.09-.68.13-.67.1-1.29.47-1.96.7-2.35.99-4.69,2.53-6.87,4.29-.97.78-1.87,1.66-2.76,2.56-1.2,1.07-2.33,2.29-3.9,3.01-.58.11-.7-.19-.76-.94-.04-.38,0-.8.09-1.22.09-.43.26-.87.55-1.21l1.58-1.87c.55-.6,1.2-1.14,1.81-1.7,1.27-1.1,2.61-2.16,4.11-3.07,1.78-1.08,3.53-2.44,5.66-3.24.29-.1.58-.22.88-.31l.93-.22c.61-.18,1.27-.19,1.91-.24.32-.04.65-.01.97.02l.98.1c.64.12,1.26.34,1.88.53l1.11.57c.37.19.69.52,1.02.78.63.59,1.13,1.35,1.43,2.14.42,1.2.53,2.46.36,3.59-.03.58-.19,1.12-.28,1.68-.16.53-.26,1.08-.44,1.59-.5,1.62-.98,3.22-1.69,4.76-.16.33-.3.68-.48,1.01-.39.58-.69.94-1.06,1.07-.38.12-.77.04-1.19-.11-.19-.07-.37-.11-.51-.18-.24-.12-.36-.35-.49-.74-.15-.41-.15-.83,0-1.26.91-2.51,2.15-5.02,2.6-7.42.11-.45.11-.85.17-1.27-.03-.37,0-.77-.09-1.06l-.04-.24c-.02-.07-.06-.13-.09-.2-.07-.11-.07-.29-.17-.38-.09-.1-.16-.22-.23-.33-.12-.09-.24-.18-.34-.28l.05-.07Z"/><path class="cls-1" d="M111.2,373.74c-6.99-8.55-13.15-17.65-18.98-26.9-5.82-9.27-11.29-18.72-16.66-28.2-3.92-6.92-7.87-13.83-11.64-20.83-13.2-24.74-25.6-49.9-36.31-75.85-1.14-2.76-2.23-5.56-3.31-8.35-1.16-3.07-2.33-6.14-3.49-9.2.13.02.04,0,.07,0h0s0-.02,0-.02v-.02s0-.05,0-.05v-.1s-.03-.19-.03-.19l-.04-.39-.09-.77c-.03-.14,0-.23,0-.33,0-.1.08-.24.17-.33.17-.19.38-.31.59-.45.88-.49,2.14-.64,3.36-.75l1.38-.11,1.23-.07,2.45-.1c3.25-.1,6.48-.12,9.69-.13,7.94,0,15.88.07,23.82.33,3.97.14,7.93.31,11.9.54l5.94.38c.99.05,1.98.2,2.96.31l1.48.18.74.09c.12.03.25-.03.37.08l.37.07c2.45.49,3.5.82,3.41,1.01-.08.2-1.31.33-3.42.74-1.06.25-2.33.38-3.79.61-.37.06-.74.09-1.13.18-.39.04-.79.07-1.19.11-.82.06-1.68.13-2.57.2-3.59.23-7.79.35-12.34.24-7.64-.15-15.28-.46-22.92-.56-3.81-.06-7.63-.1-11.42-.06-1.89.02-3.78.06-5.61.16l-.58.04h-.02s-.04,0-.04,0c-.02,0-.03,0-.05,0-.01,0-.02,0-.03.01h-.01s0,.01,0,.01h0s0,0,0,0h0s0,0,0,0c.05.01-.12-.02.12.02-.24-.05-.07-.01-.12-.02h0s0,0,0,0h0s0,0,0,0h0s.02.02.02.02c.02.03.01-.02.05.07l.44,1.51.96,3.01c.7,1.98,1.5,3.94,2.25,5.92,1.55,3.94,3.17,7.86,4.83,11.77,3.33,7.82,6.84,15.59,10.43,23.35,8.18,17.64,17.68,35.55,27.28,52.99,5.3,9.57,10.69,19.12,16.25,28.53,5.57,9.41,11.36,18.69,17.68,27.57,7.8,10.87,16.36,21.4,26.92,29.48,3.98,3.06,8.31,5.65,12.91,7.58,1.14.51,2.33.87,3.5,1.31,1.2.32,2.37.75,3.6.96l1.82.39,1.87.29c1.25.19,2.49.4,3.75.52,10.04,1.2,20.23.88,30.23-.27,15.58-1.81,30.51-5.8,45.3-10.47,3.26-1.04,6.42-2.12,9.7-3.22,12.11-4.1,16.15-5.18,19.15-4.8.67.05,1.54.08,1.93.2.66.22-.24.69-2.32,1.7-1.04.54-2.41,1.09-4.07,1.76-1.66.66-3.6,1.42-5.81,2.23-13.09,4.8-26.8,9.35-41.11,12.61-7.15,1.64-14.44,2.97-21.84,3.83-7.4.89-14.91,1.29-22.45,1.02-1.4-.03-2.8-.12-4.2-.22l-2.1-.15-2.1-.23-2.1-.23-2.09-.31-2.09-.32c-.7-.11-1.43-.29-2.14-.43-1.44-.26-2.82-.74-4.23-1.12-1.36-.51-2.76-.93-4.07-1.54-2.69-1.09-5.2-2.5-7.67-3.97-9.76-6.07-17.69-14.23-24.79-22.79l.06-.08Z"/><path class="cls-1" d="M207.11,402.47l11.96-21.29,4.24-7.83c5.08-9.14,10.17-18.29,15.07-27.53,2.18-4.1,4.26-8.27,6.32-12.39,2.58-5.33,5.11-10.69,8.41-15.67,1.05-1.54.97-1.31.64.27-.17.78-.32,1.94-.65,3.27-.16.67-.33,1.39-.54,2.16-.1.38-.23.76-.32,1.17-.15.38-.31.77-.47,1.17-1.16,2.8-2.5,5.52-3.83,8.24-1.32,2.73-2.71,5.42-4.08,8.13-2.83,5.37-5.74,10.7-8.78,16-3.62,6.34-7.08,13.1-10.68,19.64-3.99,7.17-7.99,14.34-11.98,21.5-2.46,4.41-4.93,8.81-7.39,13.22-3.71,6.68-7.47,13.38-11.04,20.07-2.77,5.21-5.31,10.4-7.92,15.61-.57,1.15-1.13,2.28-1.7,3.44-2.19,4.27-3.07,5.53-4.31,6.04-.28.12-.58.31-.81.34-.75.13-.37-1.88,1.11-5.07,4.35-9.5,9.48-19.24,14.76-28.94,3.91-7.21,7.93-14.4,11.91-21.58l.07.03Z"/><path class="cls-1" d="M203.95,402.79l11.95-20.12,4.31-7.36,15.54-25.73c2.28-3.82,4.52-7.68,6.71-11.51l2.09-3.7,2.17-3.66,1.09-1.83,1.16-1.79c.76-1.2,1.56-2.38,2.41-3.52,1.07-1.42,1-1.19.55.27-.42,1.48-1.15,4.23-2.58,7.18-5.3,10.32-11.31,20.21-17.49,30.11-3.71,5.91-7.26,12.25-10.9,18.39-3.99,6.76-7.97,13.52-11.96,20.28-2.44,4.17-4.87,8.35-7.26,12.54-3.62,6.35-7.24,12.74-10.66,19.14-1.32,2.5-2.59,4.98-3.84,7.47-1.23,2.5-2.46,4.99-3.69,7.49-.54,1.1-1.06,2.19-1.6,3.3-2.05,4.1-2.88,5.32-4.05,5.83-.26.12-.55.31-.76.35-.69.14-.36-1.79,1.03-4.86,4.07-9.14,8.92-18.51,14.04-27.77,3.78-6.89,7.72-13.73,11.66-20.54l.07.03Z"/><path class="cls-1" d="M314.02,399.58c-4.84-6.64-9.75-13.24-14.68-19.82l-5.48-7.14c-6.32-8.49-12.66-16.96-18.9-25.52-2.77-3.79-5.62-7.56-8.43-11.28l-2.71-3.59-2.63-3.65c-1.73-2.45-3.37-4.97-4.78-7.64-.88-1.67-.68-1.5.59-.47.63.52,1.59,1.21,2.63,2.12.52.46,1.11.94,1.67,1.5.54.57,1.1,1.19,1.64,1.85l2.91,3.54c.97,1.18,1.86,2.42,2.79,3.63,1.84,2.43,3.69,4.87,5.53,7.3,1.83,2.45,3.66,4.9,5.5,7.35,1.83,2.46,3.6,4.97,5.39,7.48,4.26,6.01,9.09,11.97,13.65,17.98,5.01,6.6,9.99,13.24,14.94,19.89,3.03,4.11,6.06,8.23,9.08,12.33,4.58,6.23,9.05,12.59,13.53,18.82,1.72,2.44,3.47,4.82,5.23,7.19,1.73,2.39,3.45,4.78,5.18,7.17.76,1.06,1.52,2.08,2.25,3.17.68,1.01,1.22,1.86,1.66,2.58.43.73.71,1.36.94,1.88.44,1.05.54,1.76.45,2.43-.04.3-.02.67-.1.88-.24.7-1.87-.6-4.1-3.37-6.28-8.44-12.62-17.5-19.16-26.5-4.84-6.7-9.69-13.43-14.66-20.07l.07-.06Z"/><path class="cls-1" d="M317.66,407.98l-11.83-16.82-4.35-6.11c-5.02-7.24-9.92-14.57-14.84-21.88-2.18-3.25-4.37-6.51-6.53-9.73-1.38-2.08-2.76-4.16-4.14-6.24l-1.01-1.57-.93-1.63c-.61-1.09-1.23-2.18-1.87-3.25-.78-1.35-.65-1.18.18-.15.42.51,1.01,1.24,1.78,2.08.39.43.8.89,1.23,1.38.22.24.43.51.68.75.2.28.4.57.61.86,2.94,4.15,5.89,8.29,8.84,12.44,2.95,4.15,5.79,8.39,8.67,12.63,3.42,5.09,7.24,10.2,10.85,15.34l11.97,16.89c2.47,3.46,4.94,6.92,7.4,10.37,3.75,5.23,7.49,10.5,11.26,15.65,2.92,4.02,5.89,7.88,8.81,11.82.65.87,1.29,1.7,1.93,2.59,1.18,1.64,1.93,2.74,2.37,3.58.42.85.56,1.41.59,1.92,0,.23.06.52.03.68-.05.28-.39.13-.96-.36-.57-.49-1.41-1.31-2.31-2.48-5.42-6.9-10.96-14.3-16.38-21.84-4.02-5.61-8.05-11.24-12.07-16.86l.04-.04Z"/><path class="cls-1" d="M329.9,169.66c13.99.1,27.99.14,41.99.12,5.11-.04,10.22-.08,15.32-.12,18.01.03,36.01.11,54.02.27,7.99.08,16.03.04,23.96.04,5.09.01,10.2.02,15.3.03,2.55.05,5.1.06,7.65.19l3.82.22c.64.02,1.27.14,1.91.21l.95.12.48.06h.12s.06,0,.06,0h.03s.01,0,.01,0h0c0,.13,0,.04,0,.07l.24.07c1.58.46,2.26.68,2.21.75-.05.09-.83.13-2.18.58-.68.28-1.49.43-2.43.7-.23.07-.48.11-.73.21-.25.05-.51.1-.77.15-.53.09-1.08.19-1.66.29-1.16.18-2.41.37-3.74.48-1.33.09-2.74.14-4.2.13-20.78-.03-41.54-.29-62.5-.71-12.53-.27-25.58.04-38.41.07-14.1.04-28.22.05-42.33,0-8.69-.05-17.38-.11-26.05-.16-6.58-.08-13.17-.16-19.75-.25-6.58-.11-13.15-.23-19.67-.34-10.15-.13-20.1-.25-30.14-.38-2.21-.04-4.37-.09-6.6-.18-8.25-.36-10.87-.73-12.59-1.84-.39-.23-.92-.44-1.14-.61-.77-.5,2.64-1.35,8.68-1.28,4.48,0,9.02,0,13.61.01,4.59.04,9.22.12,13.88.21,9.33.14,18.78.28,28.26.42,14.08.2,28.22.34,42.34.37l.02.1Z"/><g class="cls-6"><path class="cls-3" d="M288.04,158.73l.18-.34c.38-.78.83-1.51,1.23-2.28.38-.77.78-1.54,1.2-2.3.81-1.53,1.69-3.02,2.57-4.5,1.8-2.95,3.74-5.82,5.81-8.59,2.08-2.71,4.29-5.32,6.62-7.81,2.34-2.48,4.82-4.81,7.4-7,5.13-4.34,11.04-8,17-11.32,1.49-.84,3.03-1.59,4.55-2.37,1.56-.71,3.08-1.49,4.67-2.13,3.12-1.43,6.39-2.42,9.58-3.67,3.23-1.13,6.5-2.18,9.85-2.95l5.03-1.17c.84-.22,1.69-.34,2.54-.51.85-.15,1.7-.34,2.56-.45h0c.41-.03.78-.18,1.06-.28.29-.1.48-.18.54-.22.42-.31.85-.58,1.28-.81,1.5-.69,3.04-.69,4.57-.73.17,0,0-.02-.49-.08l-1.83-.23c-.61-.15-1.22-.36-1.84-.55-.65-.19-1.88-.51-3.23-.76-8.05-.47-16.15.81-23.96,2.89-1.96.53-3.83,1.28-5.75,1.94-1.87.76-3.77,1.45-5.61,2.3-3.71,1.6-7.31,3.45-10.82,5.45-3.5,2.02-6.83,4.3-10.11,6.68-3.3,2.44-6.38,5.13-9.27,7.98-5.78,5.72-10.85,12.09-15.15,18.93-.63.99-1.08,1.92-1.1,2.29l-.14,1.76c-.04.49.08.74.33.75l.81.03c.07,0,.05.15-.05.42-.31.77-.57,1.57-.85,2.36-.23.64-.26,1.02-.11,1.04.39.06.04,1.54-.9,3.75-.14.31-.26.64-.39.95-.27.69-.43,1.23-.44,1.5,0,.27.14.24.4-.07.23-.27.27-.1.09.42-.38,1.1-.25,1.37.3.65l.57-.74c.18-.24.29-.28.28-.1,0,.17-.13.53-.33.97-.19.41-.37.82-.53,1.23-.18.41-.47.77-.73,1.15-.23.3-.45.54-.58.72-.08.08-.08.17-.17.2,0,.06,0,.09.02.09.02,0,.05-.02.09-.07.15,0,.17-.09.3-.17.19-.17.53-.37.74-.68.42-.42.79-.84,1.01-1.34.39-.73.79-1.47,1.19-2.21"/></g><path class="cls-1" d="M434.3,81.13c.06.35-.27.58-.76.77-.16.06-.58-.01-.64-.12-.11-.21-.22-.42-.3-.63-.04-.12-.23-2.08-.34-2.78-.11-.67.03-1.3.13-1.93.24-1.29.51-2.59.87-3.86.08-.28.19-.56.35-.81.53-.88.87-1.81,1.19-2.76.06-.16.15-.3.1-.5-.08-.33,1.11-2.75,1.36-2.99.62-.64,1.08-1.35,1.73-1.96.09-.09.13-.21.31-.24.41-.07.51-.31.67-.51.23-.28.47-.56.74-.82.14-.12.37-.2.56-.29.17-.09.42.15.43.22.02.2.23.16.36.22.05.02.1.04.14.07.05.05-.12,2.29-.16,2.51.07.11-1.05,2.86-1.14,3.18-.05.17-.19.29-.3.43-.07.07-.78,2.28-.8,2.36-.23.42-.32.89-.77,1.21-.09.06-.11.16-.15.25-.27.76-.67,1.48-1.01,2.22-.16.38-.26.79-.39,1.19-.02.07-.08.13-.12.2-.05.09-.11.17-.14.26-.27.95-.6,1.9-.77,2.89-.07.22-.66,1.24-.7,1.51-.03.15-.5.58-.47.72Z"/><path class="cls-1" d="M442.58,83.77c-.1.27-.41.31-.83.25-.14-.02-.41-.25-.41-.34.01-.19.03-.38.07-.56.02-.11.79-1.51,1.07-2,.25-.48.57-.9.9-1.31.69-.83,1.38-1.66,2.14-2.43.17-.18.37-.31.59-.42.74-.39,1.39-.88,2.02-1.41.11-.09.23-.16.28-.32.07-.28,1.94-1.53,2.23-1.6.76-.23,1.4-.44,2.1-.65.1-.03.18-.11.32-.04.32.16.49.02.7-.06.28-.11.58-.18.9-.22.16-.02.36.08.54.14.17.06.27.48.25.55-.07.18.11.32.19.48.03.05.06.13.08.17.02.1-1.15,1.47-1.3,1.53-.05,0-2.03,1.27-2.22,1.47-.1.09-.26.11-.4.14-.08,0-1.53,1.2-1.59,1.24-.34.19-.59.49-1.05.53-.09,0-.15.06-.21.11-.52.42-1.08.79-1.67,1.13-.3.18-.54.42-.82.63-.05.04-.12.05-.18.08-.07.04-.15.07-.21.12-.62.54-1.31,1-1.85,1.63-.13.13-.92.65-1.05.83-.08.09-.56.22-.59.34Z"/><path class="cls-1" d="M449.72,90.57c-.22.18-.42-.13-.64-.71-.07-.19-.11-.76-.05-.85.12-.17.24-.33.38-.46.08-.08,1.4-.47,1.87-.59.45-.14.9-.17,1.35-.17.91,0,1.83,0,2.75.07.2.02.4.06.6.15.66.29,1.34.39,2.04.47.12.01.23.06.36-.03.22-.16,2.08.31,2.28.48.52.39,1.06.68,1.55,1.09.07.05.17.05.19.21.06.36.24.38.4.48.22.13.43.29.62.48.09.1.14.3.2.47.05.15-.18.52-.24.55-.16.08-.16.3-.22.47-.02.06-.05.13-.08.17-.06.07-1.62.31-1.76.29-.01-.02-.52-.07-1.02-.19-.51-.1-1.04-.19-1.15-.19-.12,0-.21-.1-.3-.18-.05-.05-1.59-.18-1.65-.19-.3-.1-.63-.07-.89-.4-.05-.07-.12-.07-.18-.07-.54-.07-1.07-.27-1.61-.42-.28-.08-.56-.07-.84-.11-.05,0-.1-.05-.15-.07-.06-.03-.12-.07-.19-.07-.67-.04-1.34-.23-2.01-.13-.15.01-.9-.28-1.08-.23-.1.02-.45-.38-.54-.3Z"/></svg>