<?xml version="1.0" encoding="UTF-8"?><svg id="Layer_1" xmlns="http://www.w3.org/2000/svg" width="520" height="520" viewBox="0 0 520 520"><defs><style>.cls-1,.cls-2,.cls-3{fill:#231f20;}.cls-4{opacity:.2;}.cls-5{opacity:.25;}.cls-2{opacity:.15;}.cls-3{opacity:.35;}</style></defs><path class="cls-1" d="M123.73,487.89c-.35.06-.63-.14-.88-.41-.08-.09-.07-.34.03-.38.19-.08.39-.17.58-.25.06-.01.57-.14,1.14-.21.57-.07,1.2-.15,1.53-.19.62-.09,1.25-.13,1.88-.15l3.81-.17c.28-.01.56,0,.85.03.97.13,1.93.14,2.9.1.16,0,.33,0,.48-.07.26-.12,2.88-.13,3.22-.07.84.14,1.69.23,2.53.34.12.02.25-.01.36.08.25.2.51.17.77.19.36.02.72.05,1.08.16.18.05.35.17.53.26.16.08.07.35.01.38-.16.09-.03.22-.02.33,0,.04.01.09,0,.12,0,.03-.54.21-1.09.39-.55.14-1.13.26-1.24.26-.03,0-.8.04-1.61.07-.8.04-1.64.09-1.83.1-.18.02-.36-.03-.54-.06-.1,0-2.52.12-2.61.13-.5-.03-1.01.04-1.51-.14-.1-.04-.2-.03-.3-.02-.87.03-1.73-.08-2.59-.15-.44-.04-.88-.03-1.33-.05-.08,0-.16-.03-.24-.04-.1-.02-.2-.04-.3-.04-1.05-.02-2.09-.13-3.14-.1-.24,0-1.39-.2-1.67-.18-.16.02-.66-.27-.8-.24Z"/><path class="cls-1" d="M191.05,488.42c-.3,0-.57-.13-.8-.16-.07,0-.07-.04.02-.07.16-.07.32-.16.48-.25.09-.12,1.72-.73,2.29-.87.54-.17,1.09-.3,1.65-.4l1.69-.31c.56-.06,1.13-.1,1.69-.13.25-.01.5,0,.75.03.86.12,1.72.1,2.57.04.14-.01.29,0,.43-.08.23-.14,2.55-.2,2.85-.13.79.15,1.49.28,2.22.42.11.02.22-.01.31.09.22.24.45.2.68.22.32.03.64.06.95.16.16.04.31.18.47.29.14.1.06.43.01.47-.14.11-.03.27-.01.41,0,.05.01.11,0,.15-.01.09-1.85.72-2.06.71-.05,0-2.7.18-3.03.2-.16.02-.32-.04-.48-.08-.08-.02-2.2.12-2.28.11-.44-.04-.88.04-1.32-.16-.09-.04-.18-.03-.26-.03-.75.02-1.51-.05-2.26-.1-.38-.02-.77.02-1.15,0-.07,0-.14-.04-.21-.05-.09-.02-.18-.05-.26-.05-.91-.03-1.83-.15-2.74-.1-.21,0-1.23-.14-1.47-.16-.14-.02-.6-.16-.72-.16Z"/><path class="cls-1" d="M230.31,483.69c-.18.02-.35-.04-.49-.17-.15-.11-.28-.24-.42-.3-.08-.04-.07-.05.04-.12.21-.14.42-.23.63-.38.13,0,2.14-.4,2.82-.43.66-.08,1.32-.1,1.97-.11l2-.05,2,.04c.3,0,.59.04.88.09,1.01.18,2.02.21,3.04.19.17,0,.34.01.51-.06.27-.12,3.02-.08,3.38-.01.88.16,1.77.26,2.65.39.13.02.26-.01.38.09.27.23.54.2.81.23.38.04.76.09,1.14.17.19.04.37.15.56.24.17.08.08.36.02.39-.17.09-.03.22-.02.34,0,.04.01.09,0,.12-.02.06-2.21.65-2.46.68-.03.02-.85.05-1.7.08-.85.04-1.74.08-1.93.09-.19.02-.38-.04-.57-.07-.1,0-2.66.09-2.76.1-.53-.04-1.07.03-1.59-.17-.1-.04-.21-.03-.32-.03-.91,0-1.82-.1-2.74-.18-.47-.04-.93-.03-1.4-.06-.08,0-.17-.04-.25-.06-.11-.02-.21-.06-.32-.07-1.1-.07-2.2-.26-3.3-.29-.26,0-1.45-.3-1.74-.36-.16-.03-.68-.33-.83-.31Z"/><path class="cls-1" d="M353.44,483.42c-.37,0-.67-.18-.95-.3-.09-.04-.07-.14.03-.17.21-.06.41-.13.62-.2.06,0,.6-.2,1.21-.29.61-.09,1.28-.19,1.63-.24.67-.12,1.33-.19,2-.24l4.07-.37c.3,0,.6.01.9.06,1.03.15,2.07.15,3.1.1.17,0,.35,0,.52-.08.27-.14,3.08-.17,3.44-.11.9.16,1.8.24,2.7.41.13.02.27,0,.38.1.27.24.55.21.83.23.39.03.77.08,1.16.16.19.04.38.17.57.27.17.09.07.42.01.45-.18.1-.04.26-.02.39,0,.05.01.11,0,.14-.02.07-2.25.7-2.49.71-.01,0-.23.02-.55.04-.32.02-.74.08-1.17.09-.87.04-1.77.09-1.95.11-.19.02-.39-.04-.58-.07-.09-.02-2.69.14-2.79.13-.54-.03-1.08.04-1.61-.16-.1-.04-.21-.03-.32-.03-.92,0-1.85-.03-2.77-.16-.47-.06-.94-.07-1.42-.11-.09,0-.17-.04-.26-.06-.11-.02-.21-.05-.32-.06-1.12-.06-2.24-.22-3.35-.24-.26-.01-1.49-.24-1.78-.23-.17.02-.71-.28-.86-.26Z"/><path class="cls-1" d="M310.2,101.09c.31-.61.63-1.22.94-1.83.11-.22.2-.46.32-.69.43-.78.88-1.56,1.4-2.3.22-.33.43-.67.64-1,.15-.21.26-.44.44-.62.18-.18.38-.35.58-.51.13-.1.18-.03.21.16.02.18.05.5-.04.77-.06.26-.17.47-.3.68-.11.21-.23.43-.35.65-.24.43-.47.86-.74,1.28-.35.49-.54,1.1-.8,1.66-.28.62-.56,1.24-.85,1.87-.17.39-.35.78-.52,1.16-.26.59-.55,1.17-.78,1.77-.2.46-.28.96-.47,1.43-.04.1-.07.21-.12.31-.19.37-.34.44-.73.31-.09-.03-.17-.04-.24-.08-.24-.1-.43-.39-.37-.68.12-.9.5-1.68.87-2.51.29-.61.59-1.23.88-1.84h.03Z"/><path class="cls-1" d="M317.44,89.75c-.17,1.05-.51,1.83-.86,2.59-.36.75-.74,1.44-1.13,2.11-.29.49-.51,1.01-.81,1.48-1.07,1.65-2.27,3.18-3.29,4.81-.44.72-.87,1.46-1.2,2.2-.21.48-.4.97-.54,1.44-.07.47-.44.9-.35,1.36.04.28.02.34-.3.16-.15-.09-.38-.29-.57-.58-.11-.15-.19-.32-.26-.5-.04-.09-.07-.19-.11-.29,0-.1,0-.19,0-.28.13-1.32.53-2.44.96-3.52.48-1.06,1.08-2.03,1.71-2.97.77-1.11,1.31-2.41,1.97-3.58.7-1.29,1.42-2.6,1.82-3.87.12-.38.21-.77.2-1.08-.01-.34,0-.42-.24-.78-.63-.96-1.69-1.77-2.87-2.05-.93-.22-1.87-.03-2.76.23-.2.04-.38.15-.58.21-.37.09-.62.14-.84.05-.23-.12-.41-.33-.63-.68-.1-.16-.21-.31-.3-.46-.14-.27-.17-.54-.08-.82.09-.28.28-.59.61-.77.98-.55,2.16-.89,3.44-.9,1.27,0,2.61.38,3.77,1.04.86.5,1.62,1.17,2.24,1.97.16.2.31.42.45.65.14.24.28.46.43.89.16.4.17.72.21,1.06,0,.3.01.63-.03.88h-.07Z"/><g class="cls-5"><path class="cls-1" d="M164.32,358.83c.87-.78,1.82-1.47,2.44-2.11.31-.31.52-.64.55-.76.03-.11.1-.16-.2-.51-.47-.52-1.21-1.13-1.75-1.89-.48-.68-.87-1.45-1.1-2.26-.12-.4-.19-.82-.23-1.23-.05-.41-.05-.75-.08-1.13-.07-1.48-.06-2.95.02-4.42.06-1.3.15-2.61.32-3.89.22-1.64.44-3.3,1.1-4.84.2-.48.37-.36.53.12.15.48.36,1.33.25,2.23-.19,1.62-.27,3.24-.32,4.86-.08,1.62-.08,3.23-.05,4.87.02.49.05.98.11,1.47.05.5.14.88.29,1.3.28.82.8,1.52,1.44,2.2.36.39.75.71,1.22,1.23.24.27.51.66.63,1.1.15.44.13.94.04,1.36-.22.83-.66,1.39-1.07,1.87-.42.47-.86.87-1.28,1.26-.97.89-2.02,1.95-3.09,2.84-1.62,1.4-3.35,2.67-5.02,3.96-1.3,1-2.5,2.08-3.75,3.11-.27.23-.54.46-.83.67-1.08.76-1.54.83-2.2.37-.15-.1-.32-.2-.44-.32-.43-.4-.25-1.1.44-1.81,2.04-2.11,4.55-3.74,6.9-5.54,1.77-1.31,3.47-2.68,5.1-4.14l.05.04Z"/></g><path class="cls-1" d="M152.34,480.08c0,3.8-2.92,6.88-6.51,6.88s-6.49-1.1-7.41-4.79c-.9-3.59,3.71-7.45,7.41-8.97,3.33-1.37,6.51,3.08,6.51,6.88Z"/><path class="cls-1" d="M217.58,480.08c0,3.8-2.92,6.88-6.51,6.88s-6.49-1.1-7.41-4.79c-.9-3.59,3.71-7.45,7.41-8.97,3.33-1.37,6.51,3.08,6.51,6.88Z"/><path class="cls-1" d="M366.58,474.86s3.61,7,9.79,7.39c6.19.39,5.54-9.21,5.54-9.21l-15.33,1.82Z"/><path class="cls-2" d="M319.86,267.45s-18.98-.37-22.96,7.4c-5.72,11.18-4.85,90.18-1.34,89.67s32.27-.27,35.3,8.09c11.33,31.33,5.99,101.32,5.99,101.32,0,0,35.76,5.24,50.33-2.86s13.13-44.72,13.13-44.72v-58.99l-1.21-64.75s-1.11-22.26-5.83-28.5c-5.6-7.39-46.49-6.39-46.49-6.39,0,0,1.12,2.43-1.22,1.24-2.34-1.19-5.36-4.24-5.36-4.24l-3.92,6.43-4.31-4.9-2.87,4.9-3.8-5.64-4.71,4.48-.73-2.53Z"/><path class="cls-1" d="M283.22,312.75c.14,1.81.18,3.61.17,5.41,0,.66.04,1.31.01,1.96-.14,2.31-.37,4.59-.61,6.87-.09,1.01-.18,2.02-.27,3.03-.07.64-.1,1.29-.21,1.93-.12.64-.27,1.27-.4,1.91-.1.4-.13.34-.22,0-.08-.35-.3-.99-.41-1.74-.2-2.65-.01-5.25.21-7.88.16-1.57.04-3.21.03-4.82.01-1.77-.03-3.53-.15-5.29-.08-1.08-.17-2.16-.34-3.23-.22-1.63-.54-3.25-.99-4.81-.2-.6-.43-1.18-.66-1.76-.25-.57-.54-1.12-.8-1.69-.11-.25-.25-.48-.36-.73-.39-.94-.39-1.3-.04-1.71.08-.09.15-.2.24-.28.29-.25.75,0,1.23.65,1.4,1.93,2.18,4.34,2.74,6.75.22.9.36,1.81.52,2.71.11.91.26,1.82.33,2.73h-.05Z"/><path class="cls-1" d="M280.4,306.78c.89,1.03,1.56,2.24,1.91,3.47.14.45.28.88.36,1.33.27,1.58.38,3.13.42,4.68.02.69.03,1.38.02,2.06,0,.88-.07,1.75-.19,2.62-.06.54-.09-.16-.18-1.16-.09-1.77-.34-3.51-.57-5.25-.13-1.05-.42-2.12-.76-3.11-.36-1.1-.87-2.1-1.62-2.93-.46-.5-.98-.96-1.57-1.33-.89-.56-1.87-1.03-2.9-1.36-.8-.25-1.65-.31-2.48-.41-.19-.02-.37-.04-.55-.07-.67-.15-.86-.35-.89-.92,0-.13-.02-.26-.02-.39.02-.43.38-.72.92-.76.81-.08,1.63.02,2.45.21.82.19,1.65.46,2.46.83,1.19.58,2.3,1.42,3.22,2.45l-.03.03Z"/><path class="cls-1" d="M279.32,304.16c.21.18.42.36.62.53.07.06.16.11.23.18.25.24.47.49.7.74.1.11.21.2.32.3.14.12.29.24.37.41.06.1-.34.3-.52.21-.3-.19-.6-.38-.85-.63-.15-.16-.37-.23-.56-.33-.2-.11-.42-.23-.62-.35-.13-.07-.26-.14-.39-.19-.2-.09-.41-.19-.63-.22-.17-.03-.36.03-.54.06-.04,0-.08.02-.11.01-.13-.02-.15-.12-.11-.48l.03-.25c.04-.28.15-.49.28-.55.41-.23.75-.04,1.09.11.25.13.48.29.7.45v.02Z"/><path class="cls-3" d="M277.5,360.67c-3.03,3.29-4.61,13.75-4.61,13.75l6.63.13c-6.75.1-18.77.64-29.39.83-4.41.08-4.8-11.47-6.01-24.56-1.41-15.36-3.2-33.98-3.11-37.49.13-4.8,1.34-6,4.77-7.76,3.44-1.77,25.53-2.78,31.72-2.95s5.84,8.64,5.84,8.64v28.23l.84,19.45c-1.61-1.45-4.05-1.13-6.68,1.73Z"/><g class="cls-4"><path class="cls-1" d="M264.42,431.38l-6.4-.97c-.78-.11-1.57-.14-2.34-.26-2.74-.43-5.48-.9-8.23-1.29-1.22-.19-2.45-.25-3.66-.4-1.56-.16-3.13-.23-4.65-.81-.46-.32-.39-.36.06-.73.23-.19.54-.36.91-.54.19-.09.39-.17.6-.24l.33-.1c.11,0,.22-.02.33-.02,3.22-.08,6.4.31,9.58.91,1.9.37,3.92.41,5.88.64l6.47.79,3.98.49,3.02.35c1,.12,2.05.2,3.13.43.83.18,1.72.44,2.53.89.82.43,1.61,1.11,2.16,1.88.24.33.48.65.66.98.65,1.21.52,1.6-.2,2.24-.17.14-.32.3-.49.42-.56.41-1.38.17-1.92-.62-.39-.58-.74-1.09-1.06-1.44-.32-.35-.61-.57-1.01-.81-.77-.46-1.83-.73-3.22-.9-2.12-.23-4.31-.54-6.46-.81v-.07Z"/></g><g class="cls-4"><path class="cls-1" d="M295.76,427.27l6.16-.17c.75-.03,1.48-.16,2.23-.17,2.64-.02,5.28.01,7.91-.05,1.17.01,2.35-.03,3.5-.1,1.48-.16,2.99-.07,4.5.2.47.09.43.3.07.67-.36.36-1.03,1.04-1.86,1.35-2.96,1.06-5.97,1.45-9.06,1.22-1.85-.11-3.73.26-5.6.35l-6.18.25c-1.27.05-2.52.08-3.7.24-1.8.22-3.5.69-4.92,1.72-1.1.8-1.91,1.89-2.54,3.01-.15.24-.24.51-.38.75-.49.92-.83,1.11-1.78.98-.21-.03-.43-.03-.63-.08-.34-.07-.6-.27-.75-.6-.16-.33-.21-.78-.07-1.27.79-2.98,3.19-5.67,6.28-7.01,2.33-1.06,4.74-1.24,6.83-1.39v.09Z"/></g><path class="cls-1" d="M281.34,430.77c.25.26-.12-.22.03.03.06.1.13.21.18.31.03.06.06.12.09.18.1.2-.1-.28-.02-.04.04.13.09.26.14.39.09.3.17.61.22.92.01.07.05.18.04.26.04-.25-.02-.12,0,.02.02.18.03.36.04.54.01.36,0,.71-.03,1.06-.02.29.02-.07,0,.03-.01.08-.02.15-.04.23-.03.18-.07.36-.12.53s-.11.34-.17.51c.11-.31.01-.04-.02.02-.04.08-.08.16-.12.23s-.09.15-.14.22c-.05.07-.23.26-.01.03-.12.13-.23.26-.36.38-.49.44-.48,1.33,0,1.77.52.48,1.25.47,1.77,0,1.37-1.24,1.83-3.22,1.76-5.01-.06-1.48-.38-3.28-1.46-4.39-.45-.47-1.32-.49-1.77,0s-.49,1.26,0,1.77h0Z"/><path class="cls-1" d="M278.55,428.23c.57-.16,1.18-.25,1.71-.22.2.01.38-.03.57,0,.67.14,1.26.39,1.81.62.25.09.48.2.72.28.31.08.58.29.81.56.07.09.02.21-.12.36-.13.15-.36.39-.55.47-.35.15-.64.17-.92.21-.27,0-.52-.1-.77-.21-.31-.15-.63,0-.92.04-.33.05-.64.04-.95.12-.19.04-.39.11-.56.2-.26.15-.54.31-.69.56-.12.2-.03.48-.02.66,0,.04.03.09.03.12-.03.13-.2.13-.86.11h-.45c-.5-.03-.91-.19-1.05-.5-.17-.43-.23-.94-.08-1.37.14-.43.39-.81.68-1.13.45-.47,1.02-.74,1.58-.97l.03.06Z"/><path class="cls-1" d="M288.2,427.01c1.05-.43,2.08-.47,3.01-.5.34,0,.67-.07,1-.06,1.16.05,2.32.08,3.47.22.51.06,1.02.03,1.52.09.65.09,1.29.17,1.93.34.2.06.17.16,0,.31-.17.14-.49.38-.85.49-1.3.55-2.56.64-3.87.52-.78-.1-1.58.07-2.37.13-.86.06-1.68.13-2.42.33-.46.12-.88.28-1.26.55-.6.42-1.18.96-1.59,1.6-.32.5-.48,1.09-.62,1.65-.03.12-.04.25-.08.37-.15.43-.33.52-.9.48-.13-.01-.26-.01-.38-.03-.42-.06-.71-.37-.72-.83.01-1.34.65-2.6,1.52-3.68.66-.78,1.49-1.53,2.58-2.02l.03.05Z"/><path class="cls-1" d="M268.12,426.81c1.08.23,2.14.49,3.2.8.39.12.78.17,1.17.31,1.36.45,2.72,1.25,3.76,2.37.46.51.84,1.07,1.11,1.68.29.8.33,1.74-.03,2.5-.12.24-.19.16-.26-.06-.07-.23-.23-.59-.38-.95-.12-.32-.3-.61-.51-.86-.19-.26-.34-.53-.56-.76-.41-.47-.92-.86-1.51-1.24-.35-.23-.77-.38-1.2-.51-.43-.14-.88-.25-1.33-.38-.99-.28-2.01-.51-3.04-.71-.63-.12-1.27-.22-1.92-.3-.97-.11-1.96-.24-2.93-.24-.76,0-1.5.14-2.24.25-.16.02-.32.07-.48.08-.61.05-.8-.07-.98-.61-.04-.12-.09-.25-.11-.37-.09-.42.14-.79.61-.95,1.38-.46,2.87-.54,4.35-.49,1.1.04,2.2.23,3.29.4v.05Z"/><path class="cls-1" d="M276.45,428.41c.14.27.26.53.36.79.04.09.11.16.14.26.09.35.16.69.17,1.03.01.15.04.29.07.42.04.17.09.35,0,.54-.03.06-.2.07-.39.05-.19-.02-.41-.05-.47-.12-.18-.25-.4-.43-.38-.74,0-.19-.16-.3-.25-.43-.1-.15-.2-.31-.32-.46-.07-.09-.15-.19-.23-.26-.13-.12-.26-.25-.43-.3-.14-.04-.32.05-.47.1-.03,0-.07.03-.09.03-.1-.01-.08-.16.05-.68l.09-.36c.1-.4.25-.71.42-.8.5-.32.88-.04,1.2.2.24.2.42.45.59.69l-.03.03Z"/><path class="cls-1" d="M189.05,370.56l-5.84,3.94c-.71.48-1.38,1.01-2.1,1.47-2.54,1.63-5.1,3.23-7.7,4.77-1.15.68-2.26,1.45-3.4,2.13-1.47.86-2.92,1.8-4.64,2.22-.54.12-.46.13-.16-.25.3-.38.73-1.26,1.46-1.92,2.65-2.26,5.56-4.08,8.56-5.87,1.82-1.03,3.53-2.37,5.29-3.58l5.79-4.02c1.18-.84,2.36-1.67,3.51-2.53.88-.65,1.75-1.31,2.61-1.98l.63-.51.53-.44c.12-.1.24-.2.34-.32.07-.05.07-.14.04-.21-.02-.07-.05-.15-.08-.22-.05-.11-.1-.22-.16-.33l-.28-.55-.6-1.11c-.4-.74-.83-1.48-1.18-2.27-.15-.35-.31-.68-.44-1.05-.57-1.33-.05-1.99.27-2.36.09-.09.17-.2.26-.26.15-.1.32-.03.56.16.21.2.64.46.91.87.37.63.74,1.26,1.12,1.9.34.67.67,1.35,1.01,2.03l.5,1.06.25.55c.14.34.3.71.42,1.07l.11.54c0,.17.04.35.02.52v.13c-.07.03-.06.08-.08.12l-.11.24c-.06.16-.14.31-.25.46-.11.15-.19.31-.33.44l-.44.4c-.35.32-.44.37-.61.53-1.88,1.54-3.81,2.9-5.74,4.3l-.04-.05Z"/><path class="cls-1" d="M168.48,350.68c-.38-1.09-.33-2.03-.4-2.94-.02-.34-.06-.67-.07-1.01-.02-1.19,0-2.37.03-3.55,0-.53.01-1.04.02-1.56,0-.67.11-1.33.23-1.99.04-.2.06-.18.11,0,.04.18.16.5.23.88.15.67.16,1.34.18,2.01.03.67.05,1.34.06,2.01,0,.81.15,1.64.25,2.46.12.89.2,1.83.41,2.62.14.49.35.91.68,1.28.5.56,1.2.99,1.96,1.2.6.17,1.23.16,1.85.15.14,0,.28-.02.42,0,.52.03.69.14.78.5.02.08.05.16.06.25.04.27-.19.49-.6.57-1.19.22-2.57.11-3.9-.52-.96-.46-1.87-1.26-2.34-2.35l.03-.02Z"/><path class="cls-1" d="M172.65,357.21c-.57.36-1.14.72-1.7,1.08-.2.13-.37.31-.58.44-.72.47-1.5.87-2.22,1.34-.32.2-.62.44-.92.68-.38.29-.71.67-1.23.79-.16.04-.26-.13-.32-.41-.05-.28-.08-.68.12-.87.68-.7,1.37-1.38,2.21-1.91.5-.32.9-.79,1.37-1.17.52-.41,1.04-.83,1.56-1.24l.96-.77c.45-.39,1.04-.8,1.28-1.15.16-.23.1-.53-.07-.67-.01-.01-.03-.02-.05-.04-.01-.01-.03,0-.04-.03-.02-.03-.04-.07-.06-.11-.11-.24-.15-.6.08-.95.22-.37.66-.44.89-.21.12.1.2.22.25.34.12.33.05.13.03.12-.03-.05,0,.1.6.03.08,0,.17-.02.26-.04l.15-.03h.01s.03,0,.05.02c.03.02.08.06.14.21.32.58.32,1.32.02,1.97-.15.32-.35.64-.6.91-.18.2-.36.36-.54.51-.55.44-1.1.79-1.65,1.19l-.04-.04Z"/><path class="cls-1" d="M171.71,356.78c-.43.81-.96,1.41-1.47,2-.19.2-.34.45-.54.64-.71.68-1.46,1.28-2.19,1.87-.33.26-.63.55-.93.83-.42.34-.82.68-1.37.88-.18.06-.24-.12-.26-.38-.01-.25,0-.61.18-.85l.47-.63c.16-.2.36-.37.54-.56.37-.36.75-.71,1.15-1.04.5-.39.82-.96,1.2-1.45.41-.55.79-1.1,1.09-1.67.17-.34.33-.7.35-1.02.07-.48-.03-.96-.39-1.36-.28-.31-.73-.45-1.18-.64-.1-.04-.22-.06-.31-.14-.36-.26-.46-.57-.12-1.07.08-.11.16-.21.25-.3.35-.27.61-.51.9-.52.47-.02.98.21,1.49.54.51.35,1.03.88,1.37,1.61.52,1.11.24,2.46-.16,3.25l-.05-.02Z"/><path class="cls-1" d="M173.63,353.95c-.11.09-.22.18-.31.28-.03.04-.03.09-.07.13-.14.13-.28.27-.38.43-.05.07-.06.15-.08.22-.01.1,0,.2-.1.29-.06.06-.65-.08-.7-.23-.04-.24-.04-.49.1-.7.09-.12.05-.28.11-.42.06-.15.14-.29.22-.42.05-.08.11-.17.15-.25.07-.13.17-.24.22-.38.03-.11.02-.25.03-.38,0-.03,0-.06,0-.09.04-.09.13-.06.44.13l.21.13c.23.15.4.32.44.41.12.28.11.45-.01.57-.08.1-.18.18-.27.28h-.03Z"/><path class="cls-1" d="M327.83,393.62c.66,6.09,1.02,12.18,1.28,18.26.09,2.22.24,4.44.27,6.66.13,7.83.05,15.65-.19,23.47-.11,3.47-.18,6.96-.4,10.39-.28,4.41-.44,8.87-1.52,13.2-.25,1.36-.22,1.17-.19,0,.01-.58-.03-1.42-.15-2.43-.06-.51-.06-1.05-.09-1.63-.02-.29-.02-.59-.05-.89.01-.3.02-.61.03-.93.21-4.49.16-8.98.31-13.48.1-4.5.2-9.01.3-13.54.1-5.42-.15-11.07-.39-16.61-.23-6.09-.56-12.19-1.11-18.25-.35-3.73-.78-7.46-1.45-11.12-.25-1.39-.54-2.77-.9-4.11-.37-1.33-.78-2.7-1.44-3.79-.62-1.02-1.8-1.76-3.01-2.37-1.22-.61-2.53-1.09-3.85-1.5-4.14-1.27-8.41-1.87-12.68-2.39-.94-.1-1.87-.19-2.82-.29-3.53-.35-4.62-.71-5.34-1.35-.16-.15-.39-.3-.48-.44-.33-.46,1.18-.82,3.84-.77,3.93.2,7.94.66,11.99,1.45,2.02.39,4.06.87,6.09,1.5,2.03.65,4.06,1.37,6.05,2.68.73.5,1.48,1.08,2.1,2,.25.41.46.82.68,1.23l.48,1.19c.54,1.57.96,3.11,1.27,4.65.65,3.08,1.07,6.16,1.43,9.23h-.06Z"/><path class="cls-1" d="M230.68,405.76c-.02,4.34.03,8.69.15,13.05l.22,4.76.54,16.82c.09,2.49.24,4.99.39,7.46l.15,2.38.05,2.39c0,.8.03,1.59-.03,2.39-.06.8-.13,1.59-.19,2.39-.09.99-.04.86-.21.03-.09-.42-.25-1-.48-1.71-.11-.35-.26-.74-.36-1.15-.08-.41-.16-.85-.23-1.3l-.34-2.41c-.11-.8-.13-1.61-.2-2.42-.11-1.62-.22-3.23-.33-4.85-.21-3.24-.37-6.49-.47-9.76-.11-3.91-.42-7.97-.6-11.97-.18-4.4-.31-8.8-.35-13.21-.03-2.71,0-5.43.05-8.15.09-4.12.3-8.26,1.06-12.36.31-1.55.56-3.11.96-4.68.39-1.56.95-3.16,1.91-4.6.41-.64.88-1.22,1.43-1.77,1.04-.97,1.86-1.43,2.47-1.64.6-.24,1.03-.18,1.42-.02.18.08.39.14.52.24.45.38-.37,1.12-1.69,2.21-.97.82-1.76,1.77-2.36,2.85-.59,1.09-.99,2.32-1.32,3.65-.33,1.33-.62,2.73-.92,4.17-.23,1.4-.5,2.75-.61,4.2-.44,4.25-.58,8.64-.58,13.01h-.06Z"/><path class="cls-1" d="M237.42,370.35c-.05-1.29-.06-2.58-.05-3.86,0-.47-.03-.93-.02-1.4.05-1.65.13-3.29.23-4.93.05-.73.09-1.45.14-2.18.06-.92.14-1.85.26-2.77.04-.29.05-.25.08,0,.03.25.1.7.14,1.23.1,1.89.33,3.76.28,5.65-.01,1.13.13,2.3.23,3.45l.32,3.79c.08.78.14,1.56.27,2.3.2,1.11.5,2.22,1.17,3.02.51.6,1.31.92,1.99.97.15.01.3,0,.44-.02.5-.04.65.03.99.44.08.09.17.18.24.27.25.29.09.8-.63,1.08-2.22.71-4.54-.94-5.34-2.88-.65-1.42-.7-2.87-.8-4.16h.04Z"/><path class="cls-1" d="M238.39,371.24c-.2-1.28-.31-2.49-.43-3.74-.04-.45-.14-.89-.16-1.34-.09-1.59,0-3.19.02-4.77.02-.7,0-1.4,0-2.1.03-.89.1-1.79.32-2.67.06-.27.11-.24.21,0,.09.24.34.67.47,1.17l.26,1.34c.07.44.09.89.13,1.33.07.89.13,1.78.14,2.68.02,1.08.28,2.17.4,3.26.15,1.2.31,2.4.52,3.58.13.72.28,1.43.5,2.11.33,1.01.8,2,1.55,2.65.59.51,1.35.75,2.02.79.15.01.29-.02.43,0,.5,0,.68.29.93.76.06.11.13.21.17.3.08.17.06.33-.05.54-.11.2-.34.47-.68.57-1.03.35-2.15.05-3.07-.42-.92-.49-1.71-1.25-2.27-2.11-.82-1.27-1.19-2.65-1.45-3.93h.05Z"/><path class="cls-1" d="M349.93,204.32c.2-1.53.29-3.09.31-4.65.02-.57-.06-1.14-.05-1.71-.02-2.02-.11-4.05-.31-6.07-.08-.9-.25-1.79-.35-2.68-.07-.57-.19-1.14-.22-1.72-.02-.58-.02-1.17-.02-1.75,0-.37.04-.32.21-.04.15.28.53.79.82,1.41.82,2.26,1.1,4.62,1.23,7.02.07,1.43.3,2.91.39,4.38.09,1.62.09,3.24.02,4.86-.05,1-.15,2-.28,2.99-.18,1.51-.51,2.99-.82,4.47-.29,1.13-.43,2.29-.84,3.39-.08.25-.14.49-.26.72-.45.86-.7,1.08-1.12,1.11-.09,0-.19.03-.28.02-.28-.03-.35-.49-.25-1.17.27-2.02.88-3.94,1.21-5.99.26-1.51.48-3.04.57-4.59h.05Z"/><path class="cls-1" d="M128.5,295.85c-.77.44-1.57.77-2.37,1.07-.29.12-.57.25-.86.34-1.05.29-2.1.54-3.16.61-.47.05-.93.1-1.39.15-.59.06-1.18.1-1.78,0-.18-.03-.16-.16-.02-.32.15-.16.41-.38.73-.46,1.13-.28,2.18-.72,3.3-.91.68-.1,1.31-.46,1.93-.75.69-.31,1.36-.67,2-1.08.38-.26.78-.51,1.14-.81.55-.44,1.07-.93,1.48-1.5.14-.23.26-.48.36-.72.1-.25.15-.52.25-.76.05-.1.08-.21.12-.32.18-.38.38-.44.9-.34.12.02.24.04.36.07.39.1.62.4.62.81,0,.3-.02.62-.09.91-.1.28-.2.57-.35.83-.15.26-.31.52-.48.77-.19.24-.39.47-.59.7-.62.67-1.33,1.23-2.07,1.72l-.03-.04Z"/><path class="cls-1" d="M130.57,296c-.27.25-.57.46-.88.65-.11.07-.18.18-.3.24-.41.22-.83.41-1.23.58-.18.07-.34.17-.5.27-.2.13-.39.28-.67.27-.09,0-.19-.21-.27-.46-.07-.25-.13-.54-.06-.65.28-.35.49-.72.94-.83.26-.09.38-.35.56-.53.2-.2.39-.41.61-.6.13-.12.26-.25.37-.39.17-.21.36-.42.45-.67.07-.2.01-.45.04-.65,0-.04,0-.09.02-.13.07-.15.22-.15.71-.01l.33.09c.37.11.65.29.74.48.32.6.14,1.09-.12,1.51-.19.32-.44.59-.69.86l-.04-.03Z"/><path class="cls-1" d="M329.2,246.51c.59-.59,1.25-1.1,2-1.49.27-.14.5-.34.79-.43,1.03-.28,2.07-.42,3.06-.2.44.07.86.15,1.28.24.5.29.98.53,1.34.94.11.12.05.18-.13.24-.17.05-.48.18-.75.23-.23,0-.49.13-.71.29-.22.1-.4.07-.59.13-.38.05-.73.16-1.15.07-.5-.05-.94.27-1.36.49-.49.21-.95.5-1.39.89-.26.23-.52.5-.73.79-.32.45-.63.94-.77,1.49-.1.43-.03.89.01,1.32,0,.09.04.19.04.28,0,.17-.1.27-.24.34-.19.07-.41.1-.73.12l-.41.03c-.22,0-.42-.04-.63-.13-.2-.09-.43-.23-.51-.41-.45-1.02-.3-2.16.15-3.17.32-.76.8-1.46,1.36-2.1l.05.04Z"/><path class="cls-1" d="M330.8,247.21c.56-.49,1.15-.92,1.79-1.26.23-.13.43-.29.67-.39.87-.31,1.76-.53,2.65-.54.39,0,.77-.03,1.15-.03.24.02.48.03.72.06.24.06.47.15.69.27.14.08.08.27-.06.5-.14.22-.36.56-.58.67-.39.19-.72.44-1.06.57-.17.06-.33.15-.5.2-.18.01-.36.03-.56.04-.48,0-.84.37-1.23.6-.22.13-.42.29-.65.41-.2.16-.44.29-.63.46-.25.2-.49.43-.7.68-.32.38-.62.79-.76,1.26-.08.38-.02.77,0,1.12,0,.08.03.16.03.23-.06.28-.28.35-.92.4l-.44.04c-.48.03-.89-.14-1.09-.47-.32-.49-.36-1.02-.39-1.56.04-.53.23-1.02.46-1.49.34-.7.84-1.29,1.35-1.83l.05.04Z"/><path class="cls-1" d="M289.65,240.22s-22.11-30.94-31.26-34.93c-9.15-3.99-20.44-5.39-25.08-4.35-4.63,1.04-25.39,14.43-25.8,14.76s-23.55,21.16-23.55,21.16l-7.94,8.04s18.3,1.75,24.85,5.74c3.26,1.98,9.47,1.73,15.09,1.92,5.83.19,11.01.77,11.59.48,1.13-.57,8.11-8.77,11.05-9.17s9.09,6.8,9.09,6.8c0,0,23.38-.35,32.82-4.75,9.44-4.4,9.14-5.7,9.14-5.7Z"/><path class="cls-1" d="M332.47,228.6l-28.13-3.31c-1.26-.15-2.46.57-2.92,1.74-1.94,4.92-7.22,17.4-11.77,19.9-5.41,2.98-32.81,8.27-35.53,8.79-.15.03-.29.04-.45.05l-46.17,1.13c-1.5.04-1.82,18.49-2.13,23.43-.32,5.2-1.68,22.23-.11,22.28,11.14.36,52.9,1.71,58.07,1.13,4.35-.49,12.97-.34,17.39-.21,1.52.04,2.79-1.14,2.86-2.66.29-6.39,1.11-22.13,2.56-27.84,1.83-7.24,7.59-12.4,13.18-11.8,4.53.49,15.2-.37,19.09-.72.87-.08,1.65-.56,2.12-1.3.91-1.48,2.68-3.92,4.77-4.73,3.07-1.19,4.53-6.76,4.95-11.01.26-2.61,2.6-7.46,4.37-10.8.92-1.73-.2-3.84-2.15-4.07Z"/><path class="cls-1" d="M148.46,254.74c-.82,1.45-3.36,15.85-1.95,27.43,1.41,11.58,2.38,20.87.77,21.44-1.61.58-14.88,2.98-14.88,2.98v-35.45s-2.3-11.86,1.69-14.11c4-2.25,14.37-2.3,14.37-2.3Z"/><path class="cls-1" d="M193.01,257.76c-5.27-3.08-31.04-6.18-35.5-.72-3.19,3.92-2.32,18.07-1.68,25.98.83,10.27-.75,20.96-.75,20.96l41.88-.09s-1.21-11.92-1.32-23.56c-.09-10.08,1.99-19.87-2.64-22.57Z"/><path class="cls-1" d="M328.38,241.89c.17-.98.51-1.83.87-2.6.13-.28.2-.58.35-.84.51-.94,1.25-1.74,1.89-2.55.28-.36.58-.71.86-1.06.36-.45.75-.88,1.24-1.2.15-.1.25.01.3.25.04.23.09.61-.02.91-.19.52-.38,1.04-.58,1.58-.22.49-.5.94-.81,1.39-.37.54-.49,1.22-.75,1.82-.27.66-.51,1.32-.63,1.97-.07.4-.12.79-.1,1.18.04.59.18,1.13.59,1.54.31.32.77.4,1.1.38.07,0,.15-.04.21-.04.21.03.26.3.4.93l.1.44c.11.46-.05.96-.6,1.18-.79.25-1.65,0-2.32-.4-.69-.41-1.21-1.01-1.59-1.69-.58-1.07-.67-2.21-.59-3.2h.07Z"/><path class="cls-1" d="M331.07,239.63c.38-.78.78-1.49,1.18-2.22.15-.26.25-.55.4-.81.52-.93,1.17-1.79,1.76-2.66.27-.39.5-.79.74-1.19.3-.51.6-1.03,1.01-1.48.13-.14.24-.04.3.18.06.22.09.57-.04.88-.47,1.11-.91,2.22-1.52,3.25-.35.63-.62,1.32-.93,1.99-.34.73-.7,1.46-1.02,2.19-.19.45-.38.9-.53,1.36-.22.69-.44,1.39-.45,2.09,0,.54.16,1.06.37,1.5.05.09.1.19.15.28.14.36.03.54-.32.84-.08.07-.16.15-.24.21-.26.21-.63.18-.97-.14-.88-1.02-.95-2.51-.76-3.73.13-.93.46-1.77.81-2.57h.04Z"/><path class="cls-1" d="M254.56,81.19c.08-1.49.36-2.99.97-4.37.24-.49.47-.99.74-1.47,1.11-1.6,2.65-2.69,4.19-3.56l1.03-.57,1.06-.48c.92-.37,1.91-.53,2.88-.67.31-.04.28.03.09.26-.19.21-.52.68-.95,1.03-1.45,1.46-3.13,2.02-4.62,3.06-.44.3-.82.7-1.17,1.1-.28.46-.64.87-.84,1.36-.58,1.01-.86,2.18-.95,3.39-.07.75,0,1.51.05,2.28.16,1.16.37,2.36.79,3.48.31.88.81,1.67,1.24,2.48.1.18.22.34.31.53.32.69.23,1-.16,1.37-.09.09-.18.18-.27.25-.32.24-.77.1-1.19-.34-1.16-1.36-1.93-3.06-2.52-4.87-.1-.34-.21-.68-.3-1.02l-.21-1.07c-.17-.7-.19-1.47-.22-2.2h.06Z"/><path class="cls-1" d="M275.78,62.76c-.09.79-.29,1.54-.6,2.25-.11.26-.18.53-.34.78-.27.43-.6.82-.98,1.16-.39.32-.84.58-1.29.76-.39.16-.76.3-1.12.43-.22.09-.45.15-.68.2-.11.02-.23.04-.34.05-.11.02-.26-.07-.39-.09-.18-.06-.18-.11-.14-.34.03-.19.06-.37.08-.51.05-.18.14-.32.25-.41.4-.34.81-.52,1.15-.69.34-.18.59-.33.9-.52.39-.21.57-.67.76-1.09.22-.47.38-1,.45-1.55.04-.33.06-.69.03-1.05-.05-.54-.09-1.11-.28-1.64-.13-.42-.47-.77-.61-1.18-.04-.09-.09-.17-.12-.27-.12-.35.1-.56.46-.78.09-.05.17-.11.25-.15.27-.14.61-.11.95.06.19.15.37.31.55.47.18.16.35.34.44.55.22.41.38.85.51,1.33.21.7.2,1.48.18,2.25h-.06Z"/><path class="cls-1" d="M276.37,63.19c.03.28.05.56.08.83.01.1.05.21.04.33-.05.41-.12.85-.26,1.28-.08.18-.17.38-.25.55-.07.1-.16.21-.23.31-.09.08-.21.15-.32.19-.08.02-.16-.1-.24-.26-.08-.16-.2-.36-.21-.43-.06-.32-.4-.39-.18-.68.08-.18-.07-.36-.13-.56-.06-.22-.05-.49-.09-.76-.02-.17-.05-.34-.07-.51-.04-.26-.08-.52-.12-.81-.04-.22-.17-.44-.17-.75,0-.07,0-.13.02-.19.13-.25.29-.28.61-.14.07.03.15.06.22.1.23.12.42.29.55.36.07.04.21.1.26.12.05.01.12.06.17.09.08.06.19.16.23.27.05.22.09.45.14.67l-.05.02Z"/><path class="cls-1" d="M301.94,159.23l1.02,1.43c.32.5.63,1.01.94,1.53.22.38.5.72.7,1.12.72,1.39,1.3,2.87,1.63,4.4.15.68.36,1.35.41,2.04.1.88.06,1.79-.21,2.64-.08.26-.22.21-.41-.03-.18-.24-.48-.63-.64-1.07-.13-.39-.28-.76-.44-1.13-.07-.18-.18-.36-.24-.54-.05-.18-.11-.37-.17-.55-.25-.74-.49-1.48-.75-2.24-.27-.94-.89-1.78-1.43-2.64-.58-.95-1.24-1.87-1.87-2.85l-1.21-1.77c-.63-.89-1.2-1.84-1.82-2.75-.48-.71-1-1.37-1.44-2.11-.1-.16-.19-.32-.26-.5-.27-.66-.22-.93.03-1.2.06-.06.11-.13.18-.18.21-.16.53,0,.87.37,1.05,1.06,1.94,2.2,2.98,3.33.77.82,1.47,1.73,2.19,2.65l-.05.04Z"/><path class="cls-1" d="M362.25,151.7c.62.14,1.23.37,1.81.61.21.09.43.12.63.23.71.37,1.33.87,1.92,1.35.26.22.54.39.79.61.31.29.61.6.78,1.01.06.13-.06.22-.27.28-.2.06-.52.13-.75.08-.85-.16-1.38-.56-2-1-.36-.28-.84-.33-1.27-.47-.47-.15-.95-.28-1.45-.36-.29-.06-.63-.11-.97-.14-.52-.05-1.07-.14-1.65-.22-.45-.06-.98-.03-1.54-.25-.12-.05-.26-.09-.36-.17-.2-.16-.28-.33-.21-.52.04-.18.18-.36.4-.55.09-.09.18-.17.27-.24.27-.21.75-.39,1-.51.3-.11.4-.14.6-.14.19,0,.43.05.72.1.52.08,1.04.16,1.56.24v.06Z"/><path class="cls-1" d="M331.7,141.93c-.56-.3-1.09-.69-1.59-1.11-.18-.15-.39-.26-.57-.42-.6-.59-1.15-1.21-1.57-1.91-.19-.31-.38-.61-.57-.91-.26-.37-.36-.85-.39-1.3,0-.14.07-.15.22-.09.15.06.43.15.64.3.39.25.61.54.92.8.29.26.57.52.79.86.29.39.76.61,1.17.88.45.3.93.56,1.42.83.3.17.61.33.93.46.49.21.98.43,1.51.54.2.04.42.05.63.05.21.03.41.05.62.09.09.02.18.02.27.05.32.13.38.36.36.75,0,.09,0,.18-.02.27-.04.28-.24.5-.53.65-.43.17-.85.24-1.28.29-.4-.05-.81-.15-1.21-.28-.59-.19-1.18-.46-1.76-.74l.02-.05Z"/><path class="cls-1" d="M322.91,154.64c-.08-.48-.1-.98-.08-1.43,0-.17-.02-.33,0-.49.1-.57.19-1.11.42-1.61.09-.22.14-.45.21-.67.07-.29.15-.57.31-.83.05-.08.14-.05.24.04.1.1.24.26.27.44.07.61.24,1.2.05,1.73-.11.33-.04.67-.02.99.01.36.04.71.12,1.05.04.21.11.42.19.62.12.3.27.6.5.81.18.16.45.21.68.24.05,0,.11,0,.15,0,.14.07.11.27,0,.7l-.07.28c-.08.28-.3.57-.58.64-.79.05-1.41-.52-1.8-1.09-.29-.44-.48-.92-.6-1.41h.04Z"/><path class="cls-1" d="M313.99,53.33c-4.85.31-11.78,4.78-14.15,12.76-2.37,7.98,3.78,12.73,8.8,13.18s12.32-5.89,12.32-5.89c0,0,3.41,8.23,8.26,7.94,4.85-.28,13.11-3.31,13.11-3.31,0,0,.69,3.89.74,7.54s2.21,5.96,5.41,7.31c3.2,1.35,10.31,2.79,10.31,2.79,0,0,2.53.04,3.73,1.65s2.43,5.65.87,8.99,2.64,11.36,11.86,9.75c5.28-.92,10.49-6.38,11.8-9.32,1.31-2.94,3.4-11.19,3.03-14.77-.38-3.58-3.23-11.11-5.57-13.27s-9.26-6.17-9.26-6.17l-7.79.96s-1.26-5.13-2.75-9.38c-1.49-4.25-6.6-13.04-11.61-14.05-5.01-1.01-13.48-.9-15.55-.29s-10.5,6.06-11.11,6.64-7.53-2.3-8.85-2.75c-1.32-.46-3.62-.31-3.62-.31Z"/><path class="cls-1" d="M234.11,302.92c3.85.11,7.71.17,11.57.14,1.41,0,2.81-.1,4.22-.11,4.96-.05,9.94-.06,14.91-.19,2.21-.05,4.42-.2,6.6-.35,1.4-.11,2.81-.2,4.22-.26.7-.03,1.41-.05,2.11-.06.35-.03.71.02,1.06.08l1.07.14c.89.14.77.17.05.51-.36.17-.87.44-1.48.79-.62.29-1.36.46-2.16.58-2.85.43-5.72.66-8.59.86-2.88.19-5.76.33-8.67.36-3.47.04-7.08.31-10.63.43-3.91.11-7.82.15-11.72.14-2.41,0-4.81-.04-7.22-.08-3.64-.05-7.3-.24-10.92-.32-2.81-.09-5.58,0-8.37-.06-.61,0-1.22.01-1.84-.03-2.29-.14-3-.43-3.41-1.33-.09-.21-.22-.42-.26-.62-.15-.69.83-1.16,2.5-1.2,4.95-.14,10.11.09,15.32.22,3.86.1,7.75.23,11.64.28v.08Z"/><path class="cls-1" d="M284.65,437.3c-.5.67-1.12,1.32-2.03,1.79-.89.49-2.21.59-3.18.12-.71-.32-1.26-.74-1.63-1.22-.33-.42-.55-.86-.73-1.29-.19-.43-.33-.87-.45-1.3-.23-.88-.35-1.77-.35-2.64.01-.78.05-1.54.18-2.29.04-.24.09-.48.14-.71.08-.23.16-.46.27-.68.13-.47.67-.77.92-1.15.2-.22.23-.15.27.13.02.14.04.33.09.56.01.11.21.3.25.43.02.12.05.25.05.37,0,.21.02.42.04.63.01.2,0,.4,0,.59,0,.39.01.78.05,1.16.1.76.14,1.51.28,2.28.13.91.86,1.8,1.32,2.26.28.26.44.32.67.33.22.01.58-.15.9-.48.41-.41.73-.91.97-1.56.35-.96.58-2.01.47-3.05-.08-.81-.46-1.54-.85-2.2-.08-.15-.2-.27-.28-.42-.3-.53-.21-.77.5-1.34.16-.13.32-.27.48-.39.56-.41,1.22-.42,1.66.07,1.31,1.45,1.78,3.59,1.58,5.61-.07.76-.23,1.51-.48,2.23-.12.36-.27.71-.42,1.07-.18.39-.39.76-.62,1.12l-.07-.04Z"/><path class="cls-1" d="M261.54,252.64c3.51-.43,7.02-.93,10.49-1.54,3.47-.61,6.93-1.31,10.21-2.32,1.18-.37,2.36-.81,3.33-1.34.49-.23.97-.62,1.46-.93.51-.31.94-.72,1.41-1.08,2.93-2.42,5.15-5.77,7.02-9.33.94-1.78,1.78-3.64,2.64-5.52.43-.94.85-1.89,1.3-2.84.22-.48.45-.95.7-1.43l.37-.73.53-.96.31-.39c.06-.05.07-.17.18-.15.06-.05.12-.12.19-.16.28-.18.61-.25.95-.29.35-.03.68-.06,1.05-.04.29,0,.5.03.75.04,4.19.42,8.18,1.12,12.2,1.68,2.56.4,5.15.67,7.7,1.14l1.91.33,1.9.39,1.9.38c.63.13,1.27.3,1.9.43,1.58.37,1.38.42-.02.73-1.4.32-4.03.93-7.06.81l-2.97-.21c-.99-.1-1.96-.25-2.94-.38l-5.85-.85c-1.93-.28-3.87-.55-5.81-.83-.96-.13-1.92-.24-2.83-.32l-.67-.04c-.14,0-.12-.01-.12-.01h-.04c-.05-.02-.12-.02-.14.03l-.09.14c-.03.05-.05.06-.14.25l-.45.86-.88,1.79c-.59,1.24-1.18,2.48-1.77,3.72-1.41,2.91-2.89,5.93-4.79,8.79-1.87,2.86-4.33,5.52-7.33,7.41-1.75,1.1-3.56,1.66-5.33,2.22-1.78.54-3.55.97-5.33,1.36-3.56.77-7.13,1.38-10.71,1.91-4.4.65-8.82,1.18-13.23,1.63-6.69.69-13.43,1.15-20.09,1.52-5.18.3-10.27.66-15.43.7-1.14,0-2.25.03-3.41-.02-4.27-.19-5.64-.67-6.41-1.7-.18-.23-.41-.48-.5-.7-.27-.75,1.46-1.05,4.48-1.02,8.98-.01,18.54-.44,28.12-1.1,7.11-.51,14.26-1.15,21.34-2.1l.02.08Z"/><path class="cls-1" d="M304.04,124.05c-2.43-3.53-4.22-7.5-5.02-11.72-.15-.77-.3-1.53-.39-2.29-.12-.76-.21-1.52-.23-2.29-.24-5.41.64-10.78,2.42-15.8.78-2.22,1.62-4.45,2.71-6.53.68-1.34,1.4-2.67,2.24-3.92.2-.32.41-.63.64-.93l.76-.84c.5-.57,1.08-1.07,1.63-1.58.71-.62.84-.33.69.55-.07.44-.2,1.04-.38,1.71-.08.35-.17.71-.28,1.09-.05.19-.13.37-.18.57-.1.17-.2.34-.3.52-1.5,2.46-2.65,5.08-3.74,7.73-1.1,2.65-1.96,5.41-2.66,8.24-.8,3.4-.88,7.09-.49,10.61.15,1.96.57,3.83,1.16,5.69.58,1.85,1.38,3.65,2.39,5.33,1.22,2.08,2.69,4.02,4.41,5.73,2.58,2.59,5.69,4.74,9.11,5.97.66.23,1.32.44,2.07.66.72.23,1.42.47,2.12.73,1.4.56,2.78,1.08,4.17,2.14.33.28.57.5.83.75.25.26.5.52.73.85.89,1.19,1.06,2.43.94,3.07-.1.68-.42,1-.85,1.24-.2.11-.39.25-.58.3-.32.09-.57-.13-.81-.54-.25-.42-.39-1-.64-1.48-.18-.37-.45-.71-.82-1.08-.18-.19-.38-.37-.6-.56-.12-.11-.18-.13-.26-.21l-.3-.2c-.89-.55-2.06-1.07-3.22-1.53-.59-.23-1.18-.45-1.78-.65-.54-.17-1.27-.41-1.96-.66-1.39-.49-2.72-1.14-4.01-1.86-1.89-1.1-3.67-2.39-5.27-3.86-1.59-1.49-3.03-3.12-4.31-4.87l.06-.05Z"/><path class="cls-1" d="M346.59,48.01l1.21.2,1.19.28c.8.17,1.56.43,2.34.67.77.22,1.55.6,2.31.9.72.39,1.48.73,2.16,1.16l1.52.91c.49.33.97.67,1.43,1.03,3.17,2.66,5.8,5.89,7.57,9.6.44.79.72,1.68,1.08,2.51.15.43.26.88.39,1.32.13.44.26.87.32,1.33.08.58.24,1.15.27,1.75.02.59.06,1.19.05,1.78-.08.59-.21,1.18-.34,1.75-.05.29-.2.56-.3.84-.13.27-.43.49-.59.73-.5.58-.35.51-.52-.15-.34-.73-.75-1.82-.86-2.93-.03-1.98-.52-3.93-1.26-5.82-.7-1.91-1.73-3.76-2.95-5.53-1.44-2.14-3.57-3.88-5.72-5.37-.57-.45-1.21-.78-1.81-1.19-.63-.34-1.26-.7-1.91-.99-.66-.27-1.3-.57-2.01-.76l-1.05-.33-1.07-.26c-1.75-.42-3.55-.66-5.35-.63-2.73,0-5.5.46-8.02,1.51-1.96.81-3.69,2.01-5.28,3.33-.34.3-.68.59-1.02.91-.62.58-1.11.87-1.49,1.04-.41.15-.76.11-1.16-.02-.18-.06-.37-.09-.52-.16-.24-.12-.31-.37-.25-.79.06-.42.28-.96.72-1.5,2.66-3.19,6.66-5.54,10.99-6.67,3.22-.84,6.62-1.01,9.9-.55v.08Z"/><path class="cls-1" d="M381.72,186c.56,5.96.82,11.97.23,17.98-.06,1.09-.22,2.18-.32,3.27-.09,1.09-.26,2.18-.46,3.25-1.31,7.63-4,14.99-7.71,21.7-1.63,2.99-3.44,5.89-5.35,8.66-.64.87-1.25,1.76-1.91,2.62l-1.99,2.56c-1.39,1.65-2.81,3.28-4.34,4.8-1.04.88-.95.71-.49-.38.22-.55.6-1.28,1.07-2.14.48-.86,1.02-1.87,1.71-2.88,2.46-3.58,4.71-7.26,6.94-10.92l.82-1.39.77-1.41.77-1.41.72-1.44.74-1.43.68-1.46.68-1.46.62-1.49c1.99-4.77,3.16-10.08,3.8-15.34.15-1.45.37-2.89.43-4.35.1-1.46.22-2.91.22-4.37.04-2.92-.08-5.86-.3-8.79-.29-3.6-.71-7.2-1.39-10.75-1.02-5.36-2.43-10.73-4.82-15.54-1.85-3.72-4.44-7-7.66-9.18-.37-.21-.73-.43-1.09-.64-.36-.21-.76-.35-1.13-.55-.34-.19-.67-.33-.98-.44-.3-.12-.58-.24-.82-.35-.51-.18-.93-.33-1.26-.51-.33-.19-.61-.31-.83-.49-.22-.18-.4-.39-.55-.62-.14-.22-.35-.43-.43-.63-.14-.34.14-.59.84-.77.35-.09.8-.17,1.34-.15.53.04,1.16.1,1.85.24,4.12.96,7.75,3.83,10.25,7.2,2.57,3.38,4.33,7.24,5.67,11.15,1.99,5.83,3.07,11.85,3.75,17.86l-.08.02Z"/><path class="cls-1" d="M340.61,224.25c2.31-2.93,4.56-5.91,6.45-9.04.33-.58.64-1.16.95-1.75l.82-1.77c.28-.52.43-1.04.62-1.56.19-.52.38-1.04.5-1.61.15-.55.27-1.12.37-1.7.12-.57.2-1.15.27-1.74.3-2.34.38-4.73.34-7.13-.05-2.13-.2-4.28-.37-6.4-.12-1.37-.24-2.74-.37-4.1-.12-1.37-.16-2.76-.03-4.15.22-.88.15-.75.5-.05.18.35.37.85.62,1.44.11.3.25.62.36.97.1.35.18.72.25,1.11.48,2.76.98,5.53,1.31,8.36.22,2.83.3,5.71.04,8.62-.16,1.73-.31,3.51-.66,5.31-.12.9-.47,1.8-.73,2.69-.29.89-.7,1.69-1.06,2.52-1.76,3.54-3.99,6.69-6.25,9.78-1.4,1.9-2.85,3.75-4.29,5.6-2.18,2.8-4.46,5.55-6.55,8.36-1.62,2.19-3.07,4.44-4.44,6.72-.3.5-.59,1-.87,1.5-1.12,1.85-1.51,2.32-2.53,2.36-.22.01-.47.05-.67.03-.69-.07-.78-1.16-.1-2.77,2.13-4.6,5.24-8.73,8.4-12.74,2.35-2.99,4.78-5.91,7.06-8.91l.06.04Z"/><path class="cls-1" d="M336.94,244.42c.84.04,1.67.05,2.5.16.83.07,1.65.2,2.47.34.6.08,1.2.15,1.78.31,2.06.56,4.02,1.34,5.9,2.22.82.44,1.67.79,2.45,1.25,1.02.56,2.01,1.18,2.93,1.9.29.22.19.3-.16.3-.34,0-.97-.02-1.61-.2-.57-.16-1.14-.31-1.7-.46-.28-.07-.57-.13-.84-.21-.27-.09-.54-.19-.81-.27-1.09-.32-2.12-.79-3.18-1.23-1.26-.54-2.68-.71-4.05-.92-.75-.16-1.51-.22-2.27-.33-.76-.04-1.53-.15-2.3-.14h-1.42s-1.42.07-1.42.07c-1.43.12-2.88.3-4.27.68-1.08.28-2.07.82-3.08,1.27-.22.11-.42.25-.66.32-.85.3-1.2.19-1.65-.46-.1-.15-.22-.29-.3-.44-.29-.51-.1-1.09.49-1.53.86-.69,1.86-1.11,2.91-1.47,1.03-.39,2.14-.59,3.24-.83.83-.12,1.66-.23,2.5-.31.85-.03,1.68-.11,2.53-.1v.07Z"/><path class="cls-1" d="M287.77,76.17c.58,1.19,1.1,2.43,1.72,3.62.22.44.51.83.73,1.27.78,1.55,1.57,3.11,2.36,4.65.35.69.75,1.35,1.15,2,.49.85.87,1.78,1.23,2.71.11.29.08.26-.14.09-.21-.17-.68-.44-1.13-.81-.39-.34-.8-.67-1.16-1.03-.32-.39-.64-.77-.95-1.17-.61-.8-1.22-1.6-1.69-2.5-.55-1.08-1.36-2.06-2.03-3.11-.72-1.16-1.43-2.33-2.09-3.54l-1.18-2.24c-.59-1.14-1.13-2.3-1.74-3.42-.48-.86-1.09-1.65-1.63-2.48-.12-.18-.26-.35-.36-.55-.37-.72-.26-1.05.42-1.52.15-.11.3-.22.46-.32.54-.31,1.15-.21,1.56.23,1.17,1.33,1.94,2.91,2.74,4.49.58,1.18,1.15,2.39,1.77,3.57l-.06.04Z"/><path class="cls-1" d="M269.12,55.78c-.14.47-.97.94-2.26,1.26-1.28.32-2.79.53-4.23.65l-1.44.12c-.31.02-.62.04-.93.03-1.09-.03-2.19-.12-3.29-.33-1.1-.22-2.21-.51-3.26-1.15-.45-.29-.91-.64-1.26-1.12-.36-.47-.59-1.02-.69-1.55-.14-.69-.16-1.41.06-2.06.11-.32.24-.64.43-.93.17-.29.41-.57.76-.74.46-.2.4-.02.4.37.05.44.25,1.03.25,1.55.02.47.03.9.1,1.28.05.18.1.36.18.5.08.13.16.24.26.36.44.46,1.39.9,2.44,1.19,1.27.36,2.74.24,4.15.15l1.16-.04c.36-.02.77-.06,1.21-.12.27-.04.57-.1.87-.18.14-.05.32-.07.42-.18.04-.13-.02-.24-.1-.32-.49-.44-1.25-.61-2.15-.74-.37-.05-.64-.04-1.05-.03-.59-.03-1.19-.05-1.8-.11-.27-.03-.54-.03-.82-.09-1.03-.2-1.35-.63-1.19-1.46.03-.19.05-.37.11-.54.21-.52.72-.93,1.32-.92.95.02,1.89.06,3.04.2,1.88.27,4.33.68,5.73,1.31,1.05.49,1.5,1.01,1.8,1.6.15.3.24.66.27,1.19h0s.06,0-.06,0h0s0,0,0,0h0s0,.03,0,.03l-.02.05-.03.07-.04.12-.08.2-.16.36h-.1Z"/><path class="cls-1" d="M265.95,62.2c-1.79.31-3.36.28-5.01.22-.59-.02-1.19-.01-1.78-.08-1.05-.15-2.09-.33-3.13-.68-1.02-.36-2.09-.79-2.96-1.69-.8-.84-1.11-1.85-1.24-2.82-.07-.62-.11-1.26.05-1.88.16-.61.38-1.24.95-1.74.44-.29.42.04.44.39.03.38.26.89.32,1.42.07.48.11.95.21,1.4.1.45.27.85.4,1.21.07.18.17.34.27.44.05.06.08.13.14.19l.23.19c.13.14.34.25.54.37.18.14.42.23.65.34,1.13.53,2.54.58,3.89.65,1.49.07,3.03.06,4.49-.13.64-.08,1.35-.22,1.55-.36.11-.09.23-.22.31-.32.23-.28.41-.76.13-1.1-.12-.16-.3-.3-.51-.29l-.31-.03-.48-.02c-1.12-.03-2.24.12-3.37.19-.25.02-.5.06-.75.06-.93-.02-1.21-.27-1.33-1.07-.03-.18-.07-.35-.08-.51-.03-.54.39-1.08,1.06-1.2,1-.18,2.01-.2,3.04-.18.52.01,1.03.04,1.56.08l1.12.12c.52.06,1,.15,1.38.44.47.3.85.72,1.13,1.19.26.49.38,1.04.36,1.59-.05,1.1-.79,2.25-1.62,2.96-.29.18-.58.38-.88.5l-.41.13c-.13.04-.23.06-.33.08l-.02-.06Z"/><path class="cls-1" d="M264.01,66.07c-1.19.13-2.37.19-3.56.17-.43,0-.88.03-1.31,0-.78-.1-1.56-.23-2.35-.51-.77-.24-1.56-.68-2.19-1.31-.26-.31-.55-.6-.71-.97-.22-.37-.31-.71-.39-1.04-.1-.44-.2-.89-.18-1.38.03-.48.2-1.02.59-1.42.27-.23.39.03.54.34.14.34.49.64.63.93.08.27.19.58.33.89.07.15.15.31.23.46.1.11.12.18.16.29.18.36.56.74,1.15,1.09.74.41,1.73.38,2.67.41,1.05.03,2.13-.03,3.21-.17.64-.08,1.38-.2,1.91-.33.02,0,.04-.01.06-.01.37-.15.77-.38,1-.62.06-.06.1-.11.12-.14.02,0-.03-.02.04,0,.06.03.12.05.19.06.06.01.09.02.15.02.03,0,.05,0,.07,0h0s0,0,0,0h0s0,0,0,0c.37-.24.1-.06.18-.12h0s-.02.01-.02.01l-.06.04c-.08.06-.14.13-.18.21-.03.06-.24.32-.18.25l-.08-.04c-.09-.04-.19-.08-.3-.12-.71-.26-1.53-.27-2.31-.31-.17,0-.35.01-.52,0-.63-.07-.75-.4-.74-1.14,0-.17,0-.34.01-.5.04-.53.42-.99.97-1.09.8-.09,1.56.08,2.33.3.38.13.77.24,1.19.4.23.1.39.14.79.39.07.05.09.05.21.14.18.14.36.35.46.51.17.29.27.61.29.9.03.56-.12.94-.23,1.17-.43.78-.81,1.01-1.2,1.31-.39.27-.76.46-1.2.63-.11.05-.23.08-.34.11l-.23.05-.41.08-.78.13v-.06Z"/><path class="cls-1" d="M217.66,205.55c3.25-2,6.64-3.85,10.25-5.34.89-.39,1.84-.69,2.76-1.03.96-.27,1.89-.6,2.89-.79.5-.1.98-.23,1.48-.31l1.52-.21c1.02-.07,2.11-.15,3.07-.07,2.87.1,5.75.43,8.5,1.2,2.42.69,4.79,1.56,7.03,2.65,2.24,1.09,4.39,2.34,6.45,3.72,4.08,2.79,7.78,6.04,11.14,9.58,2.98,3.13,5.81,6.43,8.42,9.81,1.69,2.17,3.27,4.42,4.75,6.74l1.08,1.76c.32.61.65,1.21.96,1.83.31.61.62,1.23.91,1.85.29.62.45,1.32.69,1.97.48,1.68.41,1.45-.71.44-1.22-.96-3.39-2.71-5.22-5.18-.78-1.12-1.58-2.22-2.4-3.31-.4-.55-.82-1.09-1.24-1.62l-1.21-1.64c-1.63-2.17-3.33-4.29-5.1-6.34-3.55-4.09-7.37-7.95-11.61-11.32-5.06-4.06-11.33-6.92-17.75-8.03-1.76-.34-3.55-.47-5.34-.54-1.71-.02-3.42.23-5.15.66-3.44.92-6.81,2.43-10.06,4.17-3.98,2.19-7.84,4.69-11.54,7.4-5.62,4.1-11.04,8.57-16.15,13.25-3.97,3.64-7.63,7.47-11.31,11.33-.8.86-1.59,1.69-2.4,2.56-3.05,3.15-4.18,4-5.52,4.02-.3,0-.65.06-.89,0-.81-.2,0-1.91,2.11-4.37,6.26-7.3,13.5-14.43,21.23-21.12,5.76-4.95,11.8-9.66,18.32-13.79l.06.07Z"/><path class="cls-1" d="M234.68,244.1c1.2-.69,2.36-1.43,3.83-1.96.56-.21,1.31-.51,2.17-.39.73.1,1.32.41,1.77.74.46.33.81.69,1.13,1.04.61.68,1.19,1.38,1.71,2.11.47.65.95,1.28,1.39,1.92.69.75.84,1.86,1.05,2.85.06.31.03.28-.21.11-.12-.08-.29-.2-.52-.32-.11-.06-.26-.12-.4-.18-.08-.03-.13-.07-.23-.09-.05-.05-.12-.08-.17-.13l-.63-.44c-.21-.14-.31-.35-.47-.52l-.91-1.06c-.62-.69-1.23-1.38-1.83-2.1-.37-.44-.79-.8-1.18-.99-.41-.2-.64-.19-.88-.14-.29.04-.87.34-1.42.66-.56.28-1.13.6-1.7.94-.7.41-1.4.85-2.08,1.3-1.03.69-2.1,1.37-3.07,2.16-.76.61-1.39,1.35-2.1,2.03-.16.15-.29.32-.46.46-.64.5-1.02.42-1.59-.14-.13-.13-.27-.25-.38-.38-.36-.43-.41-1.08-.08-1.57,1.02-1.42,2.4-2.54,3.85-3.64,1.08-.81,2.22-1.56,3.38-2.33l.05.06Z"/><path class="cls-1" d="M415,366.38c.21-3.06.34-6.14.29-9.21,0-1.12-.16-2.23-.18-3.34-.08-1.48-.16-2.96-.32-4.42-.06-.74-.2-1.45-.3-2.17-.04-.37-.13-.71-.21-1.06l-.12-.53-.06-.26-.02-.15c-.04-.22-.23-.34-.42-.45-.33-.19-.77-.38-1.2-.54-1.58-.59-3.32-.93-5.02-1.18-1.1-.15-2.21-.25-3.31-.32-1.09-.12-2.19-.29-3.25-.32-.65-.05-.69-.28-.15-.82.54-.5,1.72-1.18,3.11-1.34,2.12-.04,4.18.18,6.25.54,1.03.19,2.07.42,3.12.75.53.17,1.06.36,1.64.64.81.38,1.66.99,1.88,1.89.17.57.19.78.27,1.12l.19.96c.43,2.9.9,5.81,1.08,8.71.18,3.18.2,6.36.11,9.52-.06,1.95-.16,3.9-.28,5.84-.1,1.47-.23,2.95-.4,4.43-.1.74-.16,1.48-.3,2.23-.07.38-.1.74-.19,1.13l-.13.58-.06.29c-.03.1-.09.25-.13.37-.08.19-.16.39-.25.58l-.28.4c-.17.27-.38.52-.61.78-.44.51-1,.97-1.64,1.3-1.31.69-2.73.76-3.93.74-.53-.01-1.04,0-1.54-.06-1.81-.18-2.27-.44-2.61-1.43-.07-.22-.18-.45-.22-.67-.16-.74.68-1.34,2.11-1.38,1.05-.03,2.07,0,2.93-.03.89-.02,1.48-.2,1.86-.43.19-.14.38-.27.58-.52.1-.11.2-.23.3-.39l.15-.21h0s0-.01,0-.01c.6.4-1.34-.9,1.35.9l-.04-.03-.08-.06-.31-.23c-.21-.15-.42-.28-.64-.41l-.33-.18s0,0-.01,0h-.01s0,.02,0,.02c0,.02,0,.02.02-.05l.06-.3c.04-.21.1-.37.13-.62.07-.48.15-.94.21-1.44.38-2.96.66-6.07.81-9.15h.08Z"/><path class="cls-1" d="M170.1,334.63l.53-.04.42-.02.81-.03,1.6-.03,3.15.02c2.09.03,4.18.09,6.26.16,1.52.05,3.04.01,4.56.1,1.83.1,3.66.31,5.5.51.92.11,1.84.22,2.77.36.47.07.94.15,1.43.25.25.05.47.1.82.21.17.06.34.12.51.19.15.1.33.16.46.27.22.25.48.47.67.74.19.29.34.52.45.76l.3.71c.08.23.14.46.21.7.24.92.37,1.82.43,2.71.17,2.48.1,4.91-.27,7.32-.06.39-.14.78-.22,1.16l-.15.59c-.04.19-.16.46-.24.69-.42.97-1.39,1.62-2.25,1.87-.88.27-1.71.28-2.51.24-.8-.05-1.56-.15-2.3-.3-.91-.27-.79-.48.04-.89.81-.41,2.39-.76,3.66-1.15.52-.16.83-.42.93-.62.06-.1.08-.23.11-.38.04-.26.1-.59.13-.91.12-1.3.23-2.66.26-4,.02-1.35-.02-2.69-.2-3.96-.08-.63-.21-1.24-.37-1.76-.08-.27-.18-.49-.27-.69-.07-.1-.07-.14-.08-.17l-.06-.09c-.05-.1-.05-.11-.49-.22-1.64-.35-3.56-.45-5.42-.52-1.88-.05-3.78-.06-5.66-.15-4.14-.16-8.3-.3-12.42-.25-.59,0-1.18.02-1.76.05l-.8.04c-.14,0-.29.02-.43.04-.37.04-.47.46-.58.75-.13.47-.27,1.18-.37,1.8-.26,1.77-.38,3.62-.39,5.45,0,.92.02,1.83.1,2.73.04.45.1.89.17,1.31.07.33.1.55.26.78.05.07.13.1.2.13.21.07.41.08.63.1.34.03.7.04,1.06.05.72.01,1.45-.01,2.18-.04,1.46-.07,2.93-.18,4.41-.27.65-.04,1.29-.11,1.95-.13,2.45-.09,3.33.18,3.82.98.11.18.25.38.25.56,0,.15-.08.26-.16.37-.06.11-.2.2-.4.3-.4.18-1.06.34-1.94.44-2.03.23-4.13.47-6.3.62-1.08.07-2.18.13-3.32.14-.57,0-1.15,0-1.78-.05-.13,0-.48-.04-.72-.09-.27-.04-.53-.09-.78-.17-.26-.06-.49-.18-.71-.3l-.61-.47c-.36-.44-.65-.94-.8-1.54-.05-.14-.09-.28-.13-.44l-.08-.38-.1-.53c-.11-.69-.2-1.34-.27-2-.21-2.05-.26-4.06-.18-6.12.05-1.03.12-2.07.31-3.18.06-.29.11-.54.2-.87.13-.43.26-.91.46-1.32.17-.44.44-.81.74-1.14.16-.15.32-.32.53-.42.16-.17.38-.22.57-.34.51-.19,1.08-.25,1.65-.33l.02.09Z"/><path class="cls-1" d="M105.64,264.79c-.32.18-.66,1.04-.8,1.97-.16.95-.17,2.01-.11,3.09.11,2.15.53,4.37,1.04,6.56.39,1.6.91,3.16,1.41,4.73.88,2.77,1.92,5.5,3.2,8.07.64,1.28,1.34,2.54,2.15,3.67l.62.82c.22.24.43.51.66.74.23.21.47.49.67.59l.31.23c.13.07.27.13.41.2.99.46,2.22.75,3.47.88,1.25.16,2.54.18,3.82.23.82.03,1.65,0,2.48,0,.83,0,1.67.05,2.5.07l1.26.03,1.27.17c.85.1,1.71.22,2.57.28,1.07.11.92-.02.06.33-.43.17-1.03.48-1.77.92-.37.22-.77.44-1.2.68-.21.13-.44.21-.67.37-.24.05-.47.14-.72.19-.87.2-1.75.4-2.64.57-.44.11-.89.12-1.34.15-.45.03-.9.06-1.35.07-1.81.1-3.63-.07-5.53-.39-.95-.17-1.92-.4-2.92-.76-.51-.19-1.03-.44-1.55-.72-.54-.35-1.12-.76-1.44-1.13-1.5-1.53-2.44-3.16-3.28-4.81-1.95-3.94-3.73-8-4.91-12.22-.65-2.32-1.13-4.68-1.44-7.09-.26-2.41-.45-4.87.11-7.44.2-.79.47-1.6,1-2.38.54-.77,1.45-1.42,2.43-1.59.23-.03.48-.05.76-.07.27.02.54.05.8.14.52.18.96.45,1.28.72.67.54,1.19,1.14,1.66,1.74,1.43,1.83,2.45,3.81,3.46,5.77.97,1.97,1.94,3.93,2.91,5.89.63,1.24,1.25,2.47,1.91,3.65.33.59.67,1.17,1.02,1.71.33.52.76,1.12.95,1.2.32.22.79.46,1.2.62.55.21,1.13.31,1.71.38,1.09.11,1.76.01,2.27.06.53.08.9.21,1.36.46.2.11.45.17.63.28.3.18.3.55-.09,1.09-.39.53-1.25,1.19-2.49,1.4-2.28.4-4.65,0-6.87-1.5l-.55-.49c-.15-.17-.29-.32-.4-.47-.21-.27-.41-.54-.57-.79-.34-.51-.63-.99-.91-1.48-.56-.97-1.07-1.93-1.57-2.9-.97-1.94-1.85-3.92-2.77-5.84-.97-2.09-2.04-4.11-3.07-6.02-.5-.93-1.09-1.89-1.61-2.43-.12-.14-.25-.24-.26-.26-.01,0-.02,0-.04,0,0,.02-.21,0-.24.05-.08,0-.13.07-.2.11l-.05-.06Z"/><path class="cls-1" d="M286.62,367.47c-.7-2.46-1.59-4.99-3.01-6.73-.52-.63-1.13-1-1.63-1.15-.46-.15-.89-.16-1.43.09-.53.24-1.1.71-1.6,1.28-1.03,1.14-1.84,2.63-2.58,4.14-.65,1.35-1.11,2.81-1.49,4.26-.22.94-.44,1.88-.66,2.81-.22.94-.35,1.87-.84,2.75-.23.51-.29.57-.73.03-.2-.27-.55-.69-.8-1.2-.22-.51-.29-1.08-.25-1.69.15-2.13.65-4.17,1.34-6.18.68-2.01,1.6-3.98,3.02-5.76.86-1.04,1.76-2.18,3.21-2.99.72-.4,1.62-.67,2.52-.64.9,0,1.76.33,2.45.75,1.53.96,2.39,2.29,3.12,3.57.72,1.3,1.25,2.63,1.71,3.97.56,1.65.99,3.32,1.37,5l.25,1.19.23,1.27c.1.57.18,1.13.23,1.68-.01.52-.09.95-.17,1.39-.25.15-.52.15-.79.24-.14.03-.26.07-.42.09l-.49.02c-.32.03-.67,0-1.01,0l-.89-.03c-1.97-.07-3.9.05-5.82.13-.42.02-.83.03-1.25.05-1.55.03-1.98-.21-2.4-.86-.1-.15-.22-.3-.3-.45-.28-.48.39-1.11,1.63-1.42.91-.19,1.82-.32,2.73-.42.91-.06,1.83-.09,2.74-.1.92,0,1.83.02,2.75.04h.34c.06.01.02,0,.03,0h0s0-.01,0-.01h0s0,0,.01,0h0s-.08-.44-.08-.44l-.19-.94c-.27-1.25-.57-2.51-.94-3.72l.07-.03Z"/><path class="cls-1" d="M288.96,429.24l-13.33-.18c-1.62-.02-3.24.04-4.86-.01-5.71-.17-11.41-.41-17.11-.72-2.53-.12-5.07-.18-7.58-.22-1.61-.03-3.23-.06-4.84-.09-1.61-.09-3.23-.23-4.83-.5-.99-.3-.85-.59.02-1.14.87-.54,2.45-1.13,4.31-1.22,6.57.01,13.12.1,19.73.5,3.96.28,8.08.11,12.13.12,4.45.02,8.91.03,13.36,0,2.74-.02,5.48-.05,8.22-.11,4.15-.1,8.32-.19,12.44-.45,3.2-.21,6.32-.65,9.47-1.02.69-.08,1.37-.2,2.07-.26,2.59-.23,3.45.18,4.07,1.01.14.19.32.38.41.56.15.31-.03.62-.49.94-.45.32-1.18.67-2.12.89-5.62,1.13-11.61,1.51-17.63,1.75-4.47.17-8.96.2-13.45.24v-.09Z"/><path class="cls-1" d="M378.44,483.63c-1.81.89-3.78,1.27-5.65,1.2-.68-.02-1.37,0-2.04-.13-1.18-.23-2.29-.65-3.34-1.2-.52-.26-1.03-.58-1.5-.93-.47-.36-.89-.77-1.3-1.19-.7-.76-1.38-1.59-1.82-2.54-.14-.31-.27-.62-.35-.95-.11-.32-.16-.66-.19-1-.04-.34.07-.68.15-1.01.06-.33.23-.63.39-.92.23-.35.2-.29.39.05.09.17.3.4.48.64.23.24.47.49.67.72.43.87,1.01,1.5,1.6,2.17.62.67,1.41,1.18,2.21,1.85.98.79,2.35.98,3.6,1.12,1.39.17,2.82.04,4.13-.45.79-.31,1.58-.71,2.22-1.3.99-.85,1.82-2,2.23-3.31.3-1.03.31-2.11.23-3.18-.01-.24-.06-.47-.05-.7-.04-.88.19-1.14,1.2-1.34.22-.05.44-.11.65-.14.68-.1,1.41.29,1.58,1.06.54,2.25.21,4.9-1.13,7.28-.97,1.76-2.5,3.31-4.31,4.27l-.05-.07Z"/><path class="cls-1" d="M149.79,487.49c-1.59.94-3.25,1.37-4.89,1.6-1.64.2-3.22.2-4.88-.06-1.19-.2-2.46-.48-3.61-1.18-1.01-.6-1.91-1.5-2.52-2.54-.6-1.03-.92-2.17-1.02-3.3-.2-2.25.59-4.54,2-6.14.61-.73,1.31-1.36,2.05-1.9.37-.27.76-.51,1.15-.75.41-.21.82-.39,1.24-.55,1.07-.41,2.18-.69,3.31-.8.56-.05,1.15-.01,1.74.09.59.09,1.16.41,1.63.76.29.22.37.37.33.4-.04.04-.21-.02-.5-.04-.29-.02-.71.06-1.13.31-.43.21-.87.45-1.37.68-3.68,1.4-6.59,3.48-7.31,6.68-.18.97.02,2.05.54,2.87.51.82,1.32,1.4,2.32,1.79,1.1.44,2.41.61,3.75.61,1.34,0,2.67-.17,3.88-.61.75-.27,1.44-.62,2.05-1.08.61-.47,1.16-1.04,1.59-1.68.67-.97,1.08-2.11,1.13-3.24.04-1.13-.33-2.25-1.04-3.14-1.11-1.37-2.95-1.79-4.71-1.71-.39.01-.77.09-1.17.13-.73.09-1.21.13-1.58.04-.38-.11-.65-.35-.96-.78-.14-.19-.31-.37-.42-.57-.39-.63.12-1.54,1.52-1.99,2.04-.61,4.45-.73,6.84.29,1.18.51,2.32,1.34,3.17,2.42.83,1.06,1.42,2.35,1.65,3.71.18,1.01.16,2.04-.03,3-.17.97-.52,1.88-.96,2.71-.88,1.67-2.2,3.03-3.76,4.03l-.05-.07Z"/><path class="cls-1" d="M215.03,487.49c-1.59.94-3.25,1.37-4.89,1.6-1.64.2-3.22.2-4.88-.06-1.19-.2-2.46-.48-3.61-1.18-1.01-.6-1.91-1.5-2.52-2.54-.6-1.03-.92-2.17-1.02-3.3-.2-2.25.59-4.54,2-6.14.61-.73,1.31-1.36,2.05-1.9.37-.27.76-.51,1.15-.75.41-.21.82-.39,1.24-.55,1.07-.41,2.18-.69,3.31-.8.56-.05,1.15-.01,1.74.09.59.09,1.16.41,1.63.76.29.22.37.37.33.4-.04.04-.21-.02-.5-.04-.29-.02-.71.06-1.13.31-.43.21-.87.45-1.37.68-3.68,1.4-6.59,3.48-7.31,6.68-.18.97.02,2.05.54,2.87.51.82,1.32,1.4,2.32,1.79,1.1.44,2.41.61,3.75.61,1.34,0,2.67-.17,3.88-.61.75-.27,1.44-.62,2.05-1.08.61-.47,1.16-1.04,1.59-1.68.67-.97,1.08-2.11,1.13-3.24.04-1.13-.33-2.25-1.04-3.14-1.11-1.37-2.95-1.79-4.71-1.71-.39.01-.77.09-1.17.13-.73.09-1.21.13-1.58.04-.38-.11-.65-.35-.96-.78-.14-.19-.31-.37-.42-.57-.39-.63.12-1.54,1.52-1.99,2.04-.61,4.45-.73,6.84.29,1.18.51,2.32,1.34,3.17,2.42.83,1.06,1.42,2.35,1.65,3.71.18,1.01.16,2.04-.03,3-.17.97-.52,1.88-.96,2.71-.88,1.67-2.2,3.03-3.76,4.03l-.05-.07Z"/><path class="cls-1" d="M239.89,303.56c3.74-.57,7.39-.69,11.03-.83,1.33-.04,2.65-.18,3.97-.19,2.33-.02,4.66-.01,6.99.04l6.97.26c2.06.09,4.13.1,6.17.11h1.97c.66.02,1.31.06,1.97.1,1.31.08,2.63.19,3.94.35.82.15.71.12.03.35-.68.22-1.95.74-3.46,1.01l-2,.34c-.67.11-1.34.13-2,.19l-4.01.28c-2.67.18-5.35.2-8.04.15-3.22-.06-6.56.15-9.83.31-3.6.15-7.2.33-10.74.74-1.08.14-2.17.26-3.22.47-1.05.19-2.11.43-3,.79-.72.31-1.06.5-1.4,1.06-.33.53-.55,1.25-.67,2-.26,1.52-.2,3.17-.02,4.79.29,2.53.99,4.97,1.65,7.45.15.55.32,1.08.45,1.63.46,2.07.29,2.87-.47,3.46-.18.13-.35.29-.53.37-.61.24-1.22-.44-1.81-1.88-.81-2.15-1.5-4.46-2.04-6.88-.52-2.43-.93-4.94-.86-7.72.04-1.03.14-2.11.48-3.28.16-.58.42-1.2.77-1.81.38-.61.88-1.24,1.57-1.72.37-.28.63-.39.91-.54.29-.16.56-.26.81-.36.53-.22,1.02-.36,1.53-.51.98-.27,1.94-.47,2.88-.64l.02.09Z"/><path class="cls-1" d="M391.35,88.09c.46,2.31.63,4.64.59,6.94,0,2.4-.48,4.76-1.18,6.96-.49,1.62-1.07,3.21-1.82,4.71-1.34,2.64-3.01,5.09-5.03,7.26-1.02,1.07-2.11,2.09-3.33,2.96-1.2.89-2.55,1.68-3.99,2.17-.62.26-1.3.39-1.95.58-.67.11-1.33.26-2.01.28-1.35.12-2.71,0-4.02-.28-1.66-.43-3.26-1.12-4.64-2.1-1.37-1-2.55-2.22-3.43-3.61-.54-.87-.31-.86.5-.45.79.43,2.26,1.06,3.75,1.79,1.34.64,2.68,1.17,4.06,1.39,1.36.27,2.73.42,4.09.24,2.75-.31,5.23-1.74,7.54-3.79,2.75-2.44,4.81-5.88,6.28-9.38.82-1.93,1.45-3.94,1.77-5.98.32-2,.26-4.15.07-6.26-.25-2.59-.86-5.14-1.93-7.49-1.59-3.57-4.26-6.66-7.6-8.72-.66-.43-1.25-.74-1.93-.97-.67-.23-1.37-.39-2.08-.47-1.42-.17-2.87-.12-4.27.15-.62.12-1.2.29-1.8.48-1.1.35-1.78.63-2.34.71-.57.07-.97.03-1.4-.11-.19-.06-.42-.09-.58-.17-.26-.13-.25-.43.03-.93.27-.5.83-1.17,1.75-1.73,2.78-1.52,6.09-2.11,9.43-1.59.84.14,1.68.35,2.51.68.82.29,1.7.78,2.32,1.19,1.38.82,2.65,1.85,3.85,2.96,3.57,3.34,5.87,7.93,6.84,12.57l-.08.02Z"/><path class="cls-1" d="M350.48,93.02c1.14.55,2.38.87,3.61,1.04.63.02,1.2.1,1.89.02.69-.05,1.49-.15,2.4-.13,1.37.02,2.8.38,3.94,1.11,1.98,1.34,3.29,3.44,3.59,5.73.3,2.29-.47,4.5-1.75,6.19-1.15,1.5-2.77,2.67-4.55,3.2-1.14.36-2.35.41-3.5.27-.58-.07-1.15-.22-1.69-.4-.27-.1-.54-.2-.8-.33-.26-.13-.48-.34-.69-.54-.47-.62-.45-.39.18-.43.68-.13,1.74-.3,2.8-.36.96-.04,1.87-.28,2.69-.6.84-.26,1.6-.67,2.24-1.21,1.28-1.09,2.22-2.71,2.38-4.41.12-1.02-.23-2.05-.88-2.92-.64-.86-1.56-1.49-2.49-1.87-.53-.2-1.03-.3-1.65-.3-.62,0-1.33.09-2.12.15-1.64.09-3.33-.05-4.87-.54-1.91-.56-3.68-1.49-5.25-2.69-2.34-1.86-4.07-4.47-4.91-7.31-.64-2.21-.77-4.51-.47-6.76.09-.49.16-.97.27-1.46.5-1.79,1.03-2.22,1.79-2.31.18-.02.36-.06.52-.05.51.05.76.91.55,2.08-.04.22-.09.44-.12.66l-.05.66-.13,1.31.03,1.29c0,.21,0,.43.01.64l.09.63c.06.84.32,1.63.48,2.44.15.38.3.76.44,1.15.13.39.38.72.55,1.09.12.28.3.53.49.77.18.25.35.5.53.75.44.44.8.95,1.3,1.32.9.86,2.02,1.51,3.16,2.04l-.03.08Z"/><path class="cls-1" d="M327.88,79.08c1.14.48,2.43.76,3.75.78.48,0,.95-.09,1.43-.15.85-.06,1.68-.24,2.54-.49.86-.22,1.7-.55,2.51-.97.72-.37,1.37-.87,1.99-1.38.41-.32.78-.69,1.17-1.03.35-.38.9-.59,1.35-.9.31-.17.42-.03.47.39.02.21.04.5.03.82,0,.16-.02.34-.05.52-.01.09-.04.17-.05.27-.04.07-.08.14-.13.21-1.34,1.96-3.35,3.48-5.66,4.29-.69.25-1.38.49-2.11.7-.72.23-1.46.4-2.21.5-1.64.17-3.31.04-4.9-.38-.98-.24-1.92-.65-2.83-1.1-1.35-.74-2.55-1.8-3.46-3.05-.2-.23-.36-.48-.52-.73-.16-.25-.34-.5-.5-.76-.25-.54-.6-1.07-.74-1.66-.08-.26-.18-.5-.24-.77-.06-1,.18-1.33.85-1.53.16-.05.31-.1.46-.13.51-.08.99.26,1.28.79.2.4.44.75.6,1.12.17.36.42.67.59,1,.46.61.9,1.17,1.45,1.69.78.78,1.78,1.46,2.95,1.88l-.02.07Z"/><path class="cls-1" d="M300.45,59.71c-2.51,2.57-4.18,6.06-4.27,9.6-.04,1.29.22,2.55.63,3.72,1.28,4.31,6.34,6.51,11.13,5.83,2.14-.25,4.25-.99,6.15-2.01,1.22-.68,2.38-1.45,3.48-2.29.56-.41,1.07-.87,1.65-1.29.52-.46,1.05-.92,1.55-1.42.73-.55.76-.43.64.44-.04.45-.21,1.04-.5,1.71-.14.34-.31.71-.53,1.06-.11.18-.23.36-.35.55-.14.16-.28.35-.45.5-2.23,2.34-5.16,3.84-8.23,4.81-1.55.44-3.16.78-4.82.79-1.64.03-3.33-.14-4.93-.71-.24-.08-.48-.15-.72-.24l-.7-.31c-.47-.2-.93-.41-1.38-.7-.91-.51-1.71-1.21-2.46-1.95-1.44-1.55-2.42-3.5-2.84-5.51-.42-2.21-.31-4.48.26-6.58.56-2.11,1.56-4.04,2.77-5.81,1.52-2.16,3.51-3.92,5.69-5.31.4-.29.83-.52,1.27-.74.44-.22.87-.46,1.31-.67.92-.33,1.81-.78,2.77-.99,1.87-.61,3.84-.76,5.78-.85,3.02-.01,6.03.57,8.77,1.86.63.23,1.19.57,1.76.92.53.33.98.59,1.3.88.32.29.57.54.75.77.36.46.47.83.44,1.26-.01.19,0,.41-.06.57-.19.53-1.22.27-2.58-.62-2.11-1.19-4.36-2.13-6.73-2.6-2.36-.49-4.84-.45-7.21.08-3.52.8-6.89,2.62-9.34,5.31l-.06-.05Z"/><path class="cls-1" d="M332.8,140.47c3.04-.07,6.04.02,9.04.17,1.09.05,2.19.03,3.28.12,1.92.15,3.84.36,5.76.62,1.93.28,3.83.53,5.81,1.16l.52.18c.22.09.44.18.65.3.2.12.4.25.57.43.16.17.25.4.36.6l.2.57.13.45c.08.28.15.55.19.83.09.56.15,1.11.19,1.66.13,2.25.08,4.5-.76,6.59-.32.64-.21.56-.36-.03-.23-.6-.65-1.67-.85-2.87-.14-1.09-.3-2.16-.54-3.18-.12-.51-.26-1-.41-1.47-.1-.22-.14-.47-.21-.69-.03-.09-.08-.27-.08-.29,0-.02,0-.02,0-.03,0-.02,0-.04,0-.05,0,0,0-.02-.01-.03,0,0,0-.02-.13-.06-.38-.13-.86-.25-1.34-.36-1.01-.22-2.02-.44-3.03-.66-2.56-.52-5.31-.54-7.99-.69-2.95-.16-5.92-.26-8.87-.23-1.81.02-3.63.08-5.39.29-.65.09-1.32.19-1.88.35-.26.08-.39.11-.55.25-.07.07-.11.14-.17.22-.09.11-.17.26-.25.4-.66,1.1-1.17,2.37-1.56,3.64-.61,1.99-.84,4.05-.86,6.04,0,.44.04.86.06,1.29.03.8.07,1.3-.04,1.68-.11.38-.3.63-.64.9-.15.12-.29.27-.44.36-.25.16-.53.09-.83-.2-.15-.14-.3-.34-.46-.6-.14-.25-.22-.56-.32-.91-.46-2.08-.39-4.22-.07-6.32.35-2.1.93-4.15,1.83-6.18.18-.38.35-.76.57-1.15.11-.2.21-.38.34-.59l.29-.43c.11-.17.22-.3.36-.43.24-.28.57-.47.9-.64.33-.17.73-.31.92-.36.48-.14.91-.23,1.33-.31,1.66-.28,3.19-.37,4.73-.45v.08Z"/><path class="cls-1" d="M307.09,191.83c1.26-3.27,2.53-6.54,3.89-9.78.48-1.19.91-2.4,1.44-3.56,1.88-4.11,3.86-8.18,6.1-12.11.97-1.75,1.94-3.52,2.91-5.26.67-1.09,1.34-2.18,2.01-3.27l.55-.79.62-.74c.41-.5.83-.98,1.26-1.46.55-.59.58-.44.46.28-.06.36-.14.87-.27,1.47-.06.3-.14.62-.22.95-.04.17-.1.33-.14.51-.08.16-.16.32-.24.48l-1.7,3.46-1.78,3.4c-.62,1.12-1.17,2.28-1.78,3.42-.61,1.13-1.22,2.27-1.84,3.41-1.51,2.71-2.62,5.75-3.85,8.68-1.36,3.22-2.68,6.46-3.93,9.74-.77,2.01-1.53,4.04-2.26,6.07-1.1,3.08-2.24,6.17-3.24,9.26-.79,2.4-1.37,4.82-2.1,7.22-.16.53-.3,1.05-.49,1.57-.67,1.95-1.14,2.48-1.89,2.68-.17.04-.36.12-.51.13-.52.02-.65-.91-.39-2.41.85-4.42,2.33-8.87,3.81-13.37,1.11-3.33,2.31-6.66,3.51-9.99l.07.02Z"/><path class="cls-1" d="M261.6,42.64c.86-.01,1.69,0,2.46-.04l.55-.03c.13,0,.42-.05.35-.03.05,0,.12,0,.16-.06.02-.02.04-.04.05-.06l.02-.04.06-.16c.08-.23.16-.57.23-.89.14-.65.25-1.35.36-2.09.21-1.48.54-3.2,1.28-4.75.21-.44.43-.87.68-1.28.12-.21.24-.41.38-.61l.22-.32c.09-.15.21-.3.34-.43,1.09-1,2.52-1.7,3.76-1.59.37.03.73.13,1.06.3.32.18.63.46.81.72.19.42.37.86.39,1.43.02.57-.01,1.16-.05,1.75l-.18,2.11-.36,4.08c-.22,2.71-.38,5.42-.35,8.12.02,2.62.26,5.24.76,7.76.34,1.61.73,3.23,1.27,4.72.49,1.52,1.13,2.93,2.03,4.35.52.93.4.88-.51.49-.46-.19-1.08-.52-1.81-1.02-.71-.51-1.43-1.29-1.98-2.23-.46-.85-.75-1.75-1.04-2.62-.29-.88-.5-1.75-.68-2.64-.36-1.78-.59-3.57-.71-5.35-.25-3.57-.14-7.11.2-10.63.14-1.53.28-3.08.42-4.64.06-.77.11-1.55.17-2.32l.03-.53c0-.13,0-.25-.01-.38-.06-.19-.3-.23-.46-.19-.18.04-.35.13-.51.23-.07.05-.14.09-.19.16l-.32.46c-.24.38-.46.76-.64,1.16-.37.8-.63,1.64-.8,2.55-.17.91-.27,1.9-.43,2.94-.08.52-.18,1.05-.31,1.59-.08.29-.15.55-.29.9-.15.37-.34.71-.58,1.02-.33.39-.78.67-1.29.8-.23.08-.53.13-.75.16l-.56.06c-1.56.1-2.97.04-4.38.09-1.39.05-2.78.16-3.96.57-.9.31-1.6.8-1.92,1.5-.09.16-.14.4-.18.54-.02.15-.06.3-.03.44.05.3.29.53.55.69.73.44,1.82.73,2.79.91.25.04.51.08.77.11l.68.07c.32.02.62.03.92.03.63,0,1.21-.06,1.69-.19.24-.07.45-.14.63-.26.17-.11.34-.27.3-.53-.03-.28-.37-.47-.67-.53-.3-.07-.59-.1-.86-.12-.36-.02-.73,0-.99-.02-.49-.02-.7-.07-.95-.24-.64-.27-.99-.59-1.19-.99-.09-.18-.21-.38-.22-.54-.01-.27.25-.36.72-.43.24-.04.54-.06.9-.09h.14s.25,0,.25,0c.18,0,.37,0,.56,0,.4,0,.84,0,1.31.02,1.1.04,2.33.08,3.28.22.95.15,1.64.36,2.12.59.5.23.83.47,1.13.79.14.16.28.35.39.63.12.27.15.67.14,1.04-.08.57-.24.96-.47,1.28-.22.32-.49.59-.83.84-.66.5-1.73.92-3.24,1.15-1.47.24-3.37.3-5.19.18l-.52-.04-.39-.04c-.26-.03-.52-.06-.79-.1-.27-.04-.54-.09-.83-.15-.26-.06-.51-.12-.78-.19-.65-.17-1.33-.39-2.08-.78-.16-.09-.44-.25-.67-.43-.24-.17-.45-.37-.65-.58-.38-.43-.68-.94-.81-1.5-.15-.56-.11-1.14-.02-1.72.11-.55.22-.92.44-1.37.4-.87,1.07-1.61,1.78-2.1,1.44-.99,2.87-1.28,4.16-1.49,1.31-.2,2.56-.24,3.76-.27v.08Z"/><path class="cls-1" d="M279.06,126.7l-11.07-18.2c-1.35-2.22-2.77-4.39-4.09-6.62-2.33-3.94-4.63-7.9-6.77-11.99-1.07-2.04-2.09-4.12-2.99-6.29-.45-1.09-.87-2.2-1.15-3.43-.14-.61-.24-1.27-.19-2.04.07-.78.34-1.46.69-2.05.62-1.06,1.45-1.85,2.3-2.53.86-.68,1.76-1.26,2.67-1.79,1.83-1.04,3.73-1.88,5.64-2.63,2.45-.96,4.95-1.79,7.5-2.41,1.27-.32,2.56-.59,3.85-.82,1.29-.24,2.61-.29,3.93-.35,1.66,0,1.45.34.18,1.06-.63.36-1.52.84-2.58,1.39-1.07.51-2.34.96-3.74,1.37-2.48.71-4.93,1.52-7.33,2.38-2.38.88-4.74,1.88-6.79,3.15-1.01.63-1.94,1.34-2.6,2.09-.31.37-.55.73-.69,1.06-.02.08-.05.16-.08.24-.02.07-.02.13-.04.19v.3s.03.36.03.36c.14,1.03.54,2.25.98,3.43.45,1.19.99,2.37,1.54,3.55,2.68,5.67,6.29,11.23,9.66,16.77,3.75,6.09,7.51,12.18,11.27,18.26,2.29,3.77,4.59,7.53,6.88,11.29,3.45,5.72,6.8,11.53,10.07,17.31,2.54,4.49,5.09,8.87,7.4,13.46.51,1.01,1.02,1.99,1.5,3.03,1.74,3.86,1.98,5.24,1.48,6.38-.11.26-.2.58-.35.76-.5.6-1.56-.82-2.88-3.53-3.96-8.06-8.56-16.38-13.33-24.68-3.56-6.16-7.22-12.32-10.96-18.41l.06-.05Z"/><path class="cls-1" d="M130.07,282.37c.13-3.4.27-6.8.46-10.21.07-1.24.04-2.49.13-3.74.18-2.2.39-4.39.72-6.61.16-1.11.36-2.22.65-3.39.09-.3.14-.57.27-.9.12-.31.22-.63.47-1.02.21-.41.47-.59.7-.86l.35-.37.42-.31c.97-.77,2.15-1.15,3.23-1.34,1.1-.22,2.16-.21,3.18-.19,1.31.02,2.56.19,3.75.35,1.18.24,2.31.62,3.4.67.73.13.75.07.25.75-.5.66-1.94,1.59-3.49,1.9-.68.09-1.32.01-1.94.03-.32,0-.62-.01-.91,0-.3-.02-.6-.04-.87-.04-1.14-.04-2.2,0-3.02.22l-.57.18c-.15.09-.32.15-.48.23-.13.1-.28.18-.43.27-.11.12-.27.26-.38.34l-.06.04s-.07.15-.11.22c-.09.15-.17.44-.26.67-.17.52-.33,1.09-.47,1.67-.69,2.83-.69,6.01-.88,9.07-.21,3.38-.38,6.79-.51,10.19-.08,2.1-.15,4.19-.18,6.29-.05,3.18-.14,6.37-.07,9.53.06,2.45.32,4.86.48,7.29.04.54.1,1.06.12,1.6.06,2.01-.23,2.66-1.16,3.07-.2.09-.4.22-.58.27-.58.17-1.3-.64-1.52-2.09-.63-4.31-.81-8.89-.86-13.49-.03-3.42.03-6.85.08-10.28h.09Z"/><path class="cls-1" d="M157.91,249.75c4.01-.9,7.92-1.17,11.83-1.27,3.91-.09,7.79.07,11.67.43,2.83.25,5.67.59,8.47,1.23,2.47.57,4.94,1.28,7.36,2.41,1.2.61,2.41,1.27,3.52,2.34.27.3.53.61.78.92.23.36.43.76.62,1.16.28,1.24.16,1.69.21,2.37-.05,4.99-.3,9.85-.48,14.76-.17,4.35-.26,8.72-.33,13.03-.04,2.77-.11,5.54-.19,8.32-.1,2.77-.15,5.54-.55,8.3-.28.86-.45,1.23-.56,1.21-.12-.02-.23-.45-.59-1.18-.67-1.47-1.43-4.18-1.47-7.38-.04-2.84-.09-5.67-.08-8.5.08-2.83.16-5.66.23-8.49.18-5.66.46-11.34.7-17,.04-.85.06-1.69.07-2.53.01-.43,0-.82-.01-1.22v-.3c-.01-.08-.02-.06-.01-.09,0,0,0-.02.01-.03v-.02s.01,0,.01,0c0,0-.02,0,.02,0l.16-.06.64-.26.32-.14.16-.07c.32-.13-2.44.99-1.28.51h0s-.01-.02-.01-.02l-.02-.04-.05-.08c-.15-.42-.68-.88-1.21-1.3-.32-.19-.61-.4-.95-.58-.35-.17-.69-.35-1.06-.5-1.46-.63-3.09-1.08-4.73-1.46-1.64-.38-3.32-.67-5.01-.91-7.4-1.05-15.07-1.38-22.53-.6-2.28.26-4.56.64-6.64,1.32-1,.35-2.04.78-2.59,1.32-.49.41-.8,1.47-1,2.54-.57,3.33-.56,6.95-.52,10.49.05,3.56.19,7.13.34,10.68.24,5.52.68,10.94.71,16.45,0,1.21.03,2.41-.02,3.63-.16,4.56-.75,6-1.75,6.84-.23.19-.46.45-.67.55-.35.17-.6-.23-.77-1.05-.16-.83-.3-2.1-.27-3.71.03-4.8-.21-9.74-.41-14.79-.21-5.04-.47-10.18-.63-15.37-.12-3.87-.16-7.73.04-11.79.09-1.03.16-2.05.39-3.17.04-.27.12-.57.2-.86.07-.28.15-.58.28-.91l.18-.48c.08-.17.18-.36.27-.53.17-.36.44-.7.73-1.02.14-.16.29-.33.43-.46l.42-.33c.28-.22.58-.45.84-.59l.82-.46.79-.35c1.06-.44,2.09-.72,3.11-.98l.03.09Z"/><path class="cls-1" d="M112.15,401.88c-.03-11.16.28-22.32.94-33.47.68-11.14,1.68-22.28,3.53-33.35.68-4.04,1.48-8.07,2.54-12.08.54-2,1.16-4,1.93-5.98.79-1.97,1.69-3.94,3.13-5.8.32-.4.7-.81,1.08-1.18l1.27-1c.43-.32.87-.51,1.31-.77.44-.25.88-.49,1.32-.66.89-.37,1.78-.76,2.67-1.02.89-.3,1.79-.58,2.68-.79,3.58-.92,7.18-1.51,10.77-1.94,7.19-.85,14.38-1.22,21.56-1.33,7.18-.11,14.36,0,21.53.35,7.17.33,14.33.87,21.47,1.73,3.17.4,6.34.86,9.5,1.48,1.58.32,3.16.67,4.75,1.15.79.24,1.58.49,2.39.87.39.14.82.4,1.23.67.45.25.73.57,1.06.87.68.58,1.17,1.29,1.73,1.95.45.71.97,1.4,1.33,2.15l.59,1.1.5,1.13c.35.75.62,1.52.91,2.28,1.11,3.06,1.88,6.19,2.49,9.32,1.57,8.05,2.21,16.2,2.49,24.34.2,8.14.03,16.3-1.19,24.36-.48,2.51-.84,3.57-.93,3.48-.11-.09,0-1.33-.13-3.48-.13-2.14-.26-5.17-.56-8.82-.23-3.65-.37-7.9-.55-12.52-.23-8.17-.73-16.36-2.08-24.34-.69-3.97-1.54-7.93-2.93-11.58-.68-1.82-1.5-3.58-2.53-5.04-.23-.4-.53-.7-.8-1.04-.26-.36-.57-.61-.87-.89-.31-.35-.56-.4-.8-.58-.34-.16-.77-.32-1.15-.49-3.55-1.18-7.66-1.85-11.67-2.41-4.04-.58-8.12-1.02-12.22-1.38-8.2-.72-16.46-1.15-24.73-1.31-9.89-.17-20.03.09-30.04,1.35-2.49.34-4.99.7-7.43,1.24-2.44.51-4.86,1.16-7.05,2.07-.55.23-1.11.45-1.58.75-.5.28-1.02.54-1.39.88-.89.56-1.48,1.45-2.1,2.43-1.21,1.97-2.08,4.32-2.85,6.66-1.65,5.2-2.72,10.66-3.63,16.14-.88,5.49-1.55,11.02-2.1,16.57-1.07,11.1-1.68,22.27-1.92,33.44-.3,13.75-.14,27.52.77,41.23.35,5.19.81,10.37,1.48,15.52.7,5.13,1.51,10.3,3.09,15.12.41,1.19.89,2.35,1.49,3.36.16.24.3.51.48.7l.26.32c.1.1.22.19.32.29l.65.58c.22.19.5.33.74.5,2.04,1.31,4.46,2.17,6.9,2.88,4.93,1.35,10.04,2.13,15.16,2.66,7.96.82,15.92,1.08,23.84,1.1,7.93.02,15.83-.22,23.76-.62,3.49-.17,6.9-.42,10.42-.65,13.03-.91,17.15-1.26,20.05-.62.66.14,1.52.25,1.92.41,1.35.54-3.9,1.94-13.49,2.92-14.22,1.42-28.9,2.14-43.82,2.01-7.46-.09-14.98-.38-22.55-1.15-3.78-.39-7.57-.89-11.37-1.65-3.79-.79-7.6-1.74-11.37-3.67-.7-.34-1.39-.85-2.07-1.28-.34-.26-.67-.57-1-.86l-.49-.44c-.16-.16-.31-.36-.47-.54-1.18-1.5-1.75-2.94-2.31-4.37-1.06-2.85-1.69-5.67-2.25-8.49-1.09-5.64-1.75-11.27-2.26-16.91-1-11.27-1.38-22.56-1.46-33.82l.08-.03Z"/><path class="cls-1" d="M281.41,306.77c.18-5.98.38-11.96.84-17.95.16-2.19.27-4.38.54-6.57.49-3.85,1.11-7.72,2.36-11.56.68-1.9,1.4-3.87,3.05-5.61.42-.48.84-.75,1.26-1.05.42-.3.83-.62,1.27-.89.91-.47,1.78-1.05,2.73-1.39l1.25-.53c.42-.15.85-.28,1.27-.42.85-.31,1.71-.51,2.57-.72,1.73-.4,3.48-.62,5.2-.78,4.44-.4,8.93-.15,13.13,1.05,1.29.21,1.16.44-.02.78-.58.12-1.44.58-2.43.75-.5.12-1.03.22-1.6.32-.28.06-.57.08-.87.15-.29.02-.59.04-.9.06-2.16.16-4.29.24-6.37.46-2.08.22-4.13.6-6.08,1.09-1.95.51-3.88,1.11-5.55,2.11-.45.2-.83.5-1.24.76-.4.26-.87.54-1.06.77-.55.44-1.06,1.29-1.54,2.13-1.1,2.13-1.74,4.74-2.23,7.34-.47,2.63-.78,5.33-1.09,8.01-.64,5.9-1.01,11.87-1.22,17.85-.13,3.68-.22,7.37-.26,11.05-.06,5.58-.11,11.2-.03,16.75.06,4.31.3,8.54.41,12.82.03.94.07,1.86.07,2.82.01,3.53-.29,4.65-1.1,5.38-.18.17-.37.38-.55.48-.59.31-1.07-1.13-1.22-3.69-.41-7.59-.65-15.61-.73-23.69-.07-6-.03-12.03.05-18.06h.08Z"/><path class="cls-1" d="M399.04,410.29c.54-15.65.73-31.33.63-47.01-.04-5.72-.22-11.44-.32-17.15-.19-10.07-.47-20.15-.94-30.21-.49-10.06-1.1-20.12-2.29-30.08-.55-4.41-1.18-8.85-2.31-13.06-.28-1.05-.62-2.07-1.02-3l-.32-.67-.35-.56c-.28-.34-.58-.67-.96-.97-1.51-1.2-3.53-2.01-5.57-2.62-5.3-1.57-10.99-2.1-16.62-2.56-2.82-.23-5.66-.39-8.49-.52-2.84-.07-5.67-.39-8.52-.49-3.53-.1-3.1-.28-.11-.96,1.5-.31,3.64-.83,6.25-1.26,2.61-.37,5.68-.52,9.02-.45,1.48.05,2.96.1,4.44.21,1.48.12,2.96.27,4.44.45,2.96.38,5.92.84,8.9,1.61,1.49.38,2.97.84,4.46,1.46,1.48.63,2.99,1.37,4.42,2.62.72.6,1.38,1.45,1.87,2.33.19.4.39.8.56,1.2l.43,1.16c.5,1.52.9,3.01,1.21,4.48,1.25,5.9,1.89,11.75,2.46,17.62.54,5.87.91,11.74,1.2,17.63.66,14.08,1.38,28.72,1.62,43.12.26,15.83.22,31.67-.13,47.5-.22,9.74-.56,19.49-1.1,29.22-.41,7.37-.95,14.76-1.83,22.13-.46,3.68-.97,7.36-1.89,11.03-.24.92-.51,1.84-.89,2.77-.1.23-.19.46-.3.7l-.4.71c-.3.44-.65.86-1.01,1.24-1.49,1.47-3.25,2.38-4.99,3.14-2.74,1.14-5.54,1.88-8.34,2.49-2.8.6-5.62,1.04-8.43,1.41-5.63.72-11.26,1.12-16.91,1.3-2.49.08-4.93.16-7.44.14-9.32-.1-12.28-.71-14.19-1.81-.43-.26-1.01-.53-1.25-.77-.8-.82,2.97-1.01,9.69-1,9.97,0,20.25-.35,30.44-1.65,5.06-.69,10.21-1.59,14.71-3.37,1.11-.45,2.16-.97,3.02-1.57.2-.16.45-.29.62-.46l.52-.47c.13-.16.25-.32.39-.48.12-.16.18-.33.29-.49.41-.87.75-2.09,1.05-3.27.28-1.22.54-2.46.75-3.74,1.26-7.59,1.85-15.48,2.39-23.33.51-7.87.85-15.77,1.08-23.66l.09-.02Z"/><path class="cls-1" d="M332.99,268.37c-.29.74-.61,1.48-1.1,2.24-.11.16-.32.46-.54.69-.2.25-.45.45-.71.62-.51.35-1.11.48-1.69.43-.86-.09-1.6-.64-1.98-1.48-.07-.19-.17-.36-.23-.56-.06-.23-.11-.37-.13-.5-.06-.27-.09-.53-.12-.79-.05-.51-.07-1.01-.07-1.5.02-.98.04-1.93.19-2.88.11-.84.18-1.67.3-2.49.17-1.05.27-2.13.84-3.11.17-.31.26-.23.4.09.09.22.19.44.27.63.12.26.21.54.2.84,0,1.05.08,2.11.04,3.14,0,.51-.02,1.03-.03,1.55-.05.51-.09,1.02-.14,1.54-.05.61-.01,1.24.09,1.82.03.14.06.29.1.42.03.11.09.33.1.33.03.09.07.2.13.29.12.25.47.26.68.08.13-.11.17-.13.36-.43.16-.26.3-.55.43-.86.32-.76.58-1.58.78-2.42.3-1.28.57-2.6.68-3.92.08-1.03-.01-2.06-.07-3.08-.01-.23-.05-.45-.05-.67-.02-.84.21-1.09.95-1.24.16-.03.32-.08.47-.1.48-.06,1.04.32,1.15.96.35,1.9.2,3.89-.12,5.89-.25,1.49-.6,2.97-1.12,4.48l-.06-.02Z"/><path class="cls-1" d="M340.25,268.63c-.12.38-.27.77-.44,1.16-.08.19-.19.4-.28.59l-.18.3c-.06.13-.17.26-.26.39-.72,1.09-1.99,1.62-3.14,1.26-.1-.05-.21-.09-.3-.14-.41-.17-.74-.51-1.02-.87-.14-.19-.27-.39-.37-.61-.12-.22-.19-.43-.23-.56-.63-2.13-.58-4.06-.59-6.02-.01-.86-.03-1.72-.04-2.58,0-.55.01-1.1.05-1.64.02-.27.04-.55.07-.82.02-.27.15-.55.21-.82.12-.34.07-.29.19,0,.06.14.18.35.34.59.13.24.22.53.29.84.49,2.19.66,4.36.85,6.51.06.64.13,1.3.3,1.92.08.31.17.61.27.9.05.14.1.28.16.41l.08.19c.05.12.13.26.26.33.18.1.43.05.58-.1.09-.09.14-.13.23-.3.1-.19.2-.41.28-.64.29-.77.47-1.65.6-2.52.19-1.34.34-2.72.32-4.09-.02-1.07-.24-2.11-.41-3.15-.04-.23-.11-.45-.13-.68-.05-.43-.04-.71.1-.92.16-.21.41-.34.79-.46.17-.05.34-.12.51-.16.28-.06.55-.01.8.13.25.15.49.39.58.72.6,1.94.63,4.02.48,6.12-.13,1.57-.4,3.13-.86,4.76h-.06Z"/><path class="cls-1" d="M324.14,253.81c.8-.79,1.74-1.55,2.79-2.07,1.02-.56,2.13-.9,3.23-1.13,2.21-.45,4.44-.37,6.56.04,1.55.3,3.09.71,4.54,1.4.32.16.63.32.94.5l.46.29c.15.07.45.31.57.44.56.53,1.03,1.1,1.43,1.7.8,1.2,1.37,2.47,1.83,3.76.44,1.3.77,2.62.97,3.96.19,1.35.31,2.7.14,4.12-.04.32-.1.63-.19.96-.04.17-.09.32-.17.5-.07.21-.2.38-.3.57-.24.35-.57.65-.98.77-.2.07-.42.04-.63.04-.22-.01-.43,0-.64-.08l-.33-.12-.26-.1-.44-.28c-.31-.18-.51-.42-.77-.63-.23-.23-.42-.47-.63-.7l-.54-.74c-.84-1.31-1.47-2.7-1.94-4.14-.23-.72-.44-1.45-.53-2.2-.08-.76-.11-1.52-.08-2.27.08-.94.08-.8.3-.04.12.38.32.9.64,1.49.14.3.35.61.52.94.14.34.31.7.45,1.07.54,1.33,1.22,2.6,2.02,3.7.4.56.82,1.06,1.26,1.45l.33.26c.11.05.21.11.31.17.05.04.09.03.13.05,0,0-.02,0-.03.01,0,0,.01,0,.02,0,.02,0,.04,0,.05,0,.02-.03,0,.03.04-.08.03-.11.06-.23.08-.37.08-.56.12-1.23.1-1.91-.04-1.37-.26-2.79-.6-4.17-.41-1.65-1.09-3.29-2.07-4.63-.51-.65-1.05-1.3-1.63-1.55-.73-.41-1.52-.76-2.33-1.05-3.54-1.26-7.73-1.51-10.98.3-1.94,1.12-3.45,3.09-4.62,5.2-.45.82-.84,1.61-1.15,2.47-.32.86-.6,1.75-.83,2.64-.23.89-.41,1.79-.5,2.68-.02.22-.04.45-.04.64,0,.14,0,.27,0,.4.02.26.06.54.23.75.29.35.81.2,1.09-.06.16-.13.28-.27.4-.42.19-.24.39-.51.57-.79.73-1.13,1.32-2.41,1.87-3.7.24-.57.44-1.15.67-1.73.84-2.16,1.2-2.78,2.1-3.02.2-.06.41-.15.6-.16.64-.06.84,1.07.33,2.8-.79,2.56-1.76,5.1-3.51,7.59l-.36.47c-.15.17-.21.27-.48.53-.45.49-.97.88-1.52,1.18-.55.27-1.12.4-1.7.37-.57-.05-1.15-.23-1.61-.59-.9-.69-1.28-1.97-1.26-3.35,0-.15,0-.38.01-.47l.02-.3.06-.59c.05-.38.11-.76.18-1.12.44-2.18,1.03-4.15,2.04-6.25.99-1.9,2.13-3.8,3.72-5.46l.05.04Z"/><path class="cls-1" d="M185.69,367.67l4.22-2.59,2.07-1.32.68-.44c.07-.05.16-.07.18-.14-.01-.1-.03-.17-.08-.3-.19-.46-.4-.93-.61-1.4-.43-.93-.88-1.86-1.36-2.77-.9-1.7-1.95-3.34-3.03-4.79-.26-.37-.54-.67-.81-.99l-.4-.38c-.08-.08-.1-.09-.12-.11l-.08-.06c-.09-.04-.21-.07-.31-.04-.1,0-.25.04-.4.08-.14.03-.3.07-.46.13-.63.19-1.3.48-1.95.76-1.32.59-2.64,1.27-3.95,1.98-2.62,1.42-5.2,2.94-7.76,4.5-2.64,1.62-5.25,3.31-7.83,4.98-3.31,2.15-6.57,4.44-10.18,6.14-1.23.36-1.1.24-.48-.72.3-.5.81-1.08,1.43-1.77.31-.34.66-.69,1.04-1.05.19-.18.39-.36.59-.55.22-.16.44-.33.67-.5,3.3-2.31,6.61-4.62,9.99-6.87,3.43-2.17,6.9-4.29,10.55-6.22,1.43-.75,2.86-1.53,4.37-2.27.75-.37,1.53-.72,2.37-1.04.42-.16.86-.31,1.37-.42l.48-.09c.17-.02.34,0,.51,0,.34-.02.67.09.99.18.31.16.67.36.91.55l.61.53c.36.36.69.72,1,1.08.59.73,1.12,1.48,1.6,2.23.93,1.46,1.76,2.96,2.53,4.48.38.76.76,1.53,1.11,2.31l.26.59.13.3c.06.15.13.3.19.46l.31.93c.05.3.09.59.11.9-.04.17-.19.33-.28.48-.1.15-.21.3-.37.44-.15.14-.29.29-.44.42l-.48.34c-.36.26-.54.38-.77.54l-.67.45-2.7,1.76c-2.85,1.82-5.72,3.6-8.59,5.37-4.36,2.67-8.73,5.35-13.05,8-.84.53-1.67,1.05-2.5,1.57l-1.32.83c-.6.39-1.26.71-1.88.87-.67,0-1.22-.47-1.75-.97l-.39-.39-.33-.34-.52-.55c-.68-.73-1.33-1.47-1.97-2.21-.56-.66-1.14-1.28-1.68-1.95-2-2.52-2.38-3.49-2.07-4.59.07-.25.1-.54.21-.74.34-.66,1.65,0,3.27,1.72,1.2,1.27,2.33,2.62,3.48,3.94.57.65,1.14,1.3,1.72,1.96.4.44.28.28.34.33.03,0,.06.02.08-.02.02-.02.04-.05.08-.08l1.13-.69c.77-.47,1.54-.95,2.32-1.42,1.56-.95,3.12-1.91,4.68-2.87,4.65-2.85,9.32-5.72,13.99-8.58l.05.06Z"/><path class="cls-1" d="M310.77,486.06c-5.01.58-9.99.86-14.96,1.03-4.98.17-9.95.21-14.91.16-9.94-.13-19.86-.49-29.81-1.7-1.82-.23-3.63-.49-5.46-.83-1.83-.36-3.65-.73-5.57-1.49-.49-.21-.97-.41-1.52-.78-.26-.16-.53-.42-.79-.64-.22-.23-.42-.46-.61-.69-.71-.93-1.13-1.84-1.53-2.74-.77-1.81-1.28-3.61-1.73-5.41-1.51-6.35-2.27-12.71-2.9-19.08-.6-6.37-.98-12.74-1.22-19.11-.23-6.37-.32-12.75-.24-19.13.08-6.38.31-12.76.87-19.14.25-2.83.57-5.67,1.06-8.51.25-1.42.54-2.84.97-4.27.2-.71.48-1.44.82-2.17l.3-.55c.12-.18.26-.35.39-.53l.4-.52c.15-.15.3-.28.46-.43,1.23-1.12,2.61-1.83,3.99-2.38,1.38-.58,2.78-.98,4.18-1.35,2.81-.7,5.63-1.15,8.44-1.5,7.22-.86,14.47-1.13,21.71-1.11,7.23.04,14.47.25,21.62,1.37,2.23.35,3.18.61,3.1.76-.08.15-1.19.23-3.1.43-1.91.19-4.62.5-7.88.78-3.25.22-7.05.27-11.16.28-7.28-.01-14.57.17-21.74.84-3.57.36-7.14.85-10.5,1.7-1.68.42-3.29.98-4.66,1.68-.17.09-.35.17-.51.27l-.44.3c-.33.18-.52.41-.76.61-.14.1-.2.2-.27.3-.07.1-.16.19-.24.3-.14.25-.29.56-.43.91-.55,1.43-.93,3.18-1.24,4.9-.31,1.74-.56,3.52-.76,5.32-.41,3.59-.67,7.23-.87,10.88-.39,7.3-.49,14.65-.44,22.02.08,8.81.52,17.8,1.43,26.78.46,4.49,1.03,8.98,1.83,13.39.41,2.2.87,4.39,1.46,6.51.3,1.05.63,2.09,1.01,3.07.39.96.84,1.93,1.36,2.56l.21.24c.07.06.13.11.19.17.14.11.32.22.54.33.44.22.96.42,1.5.59,1.09.35,2.26.62,3.44.86,2.37.47,4.81.81,7.25,1.09,4.89.56,9.84.9,14.79,1.13,9.9.45,19.84.49,29.74.06,6.07-.3,12.2-.69,18.08-1.81,1.45-.3,2.92-.65,4.15-1.18.3-.13.58-.28.8-.43.21-.16.32-.26.47-.5.3-.47.58-1.13.81-1.81.91-2.75,1.41-5.78,1.86-8.76,1.3-9.11,1.86-18.39,2.2-27.63.31-9.25.3-18.5-.16-27.66-.37-7.12-1-14.17-2.27-21.03-.65-3.41-1.46-6.83-2.8-9.85-.7-1.47-1.54-2.86-2.64-3.34-1.33-.7-3.02-1.1-4.66-1.46-2.94-.59-5.94-.87-9.03-1.13-5.74-.44-9.57-.57-12.25-.85-1.34-.13-2.4-.28-3.28-.47-.88-.21-1.57-.46-2.19-.71-.56-.23-1.3-.46-1.63-.65-.54-.33.38-.55,2.49-.82,1.06-.17,2.42-.23,4.05-.28,1.63-.05,3.54-.06,5.68-.02,3.18.06,6.4.18,9.65.45,3.26.29,6.53.64,9.93,1.6.86.28,1.71.53,2.6.98l.66.31c.26.16.52.34.78.52.45.37.88.77,1.2,1.18.69.81,1.17,1.65,1.59,2.47.42.83.77,1.66,1.07,2.48,1.21,3.31,1.91,6.62,2.5,9.94,1.14,6.65,1.7,13.34,2.07,20.05.35,6.71.46,13.45.4,20.19-.1,10.01-.56,20.04-1.63,30.08-.28,2.51-.6,5.02-1,7.54-.42,2.53-.88,5.03-1.7,7.65-.23.67-.45,1.32-.81,2.05-.16.35-.4.75-.67,1.15-.18.23-.37.45-.57.66-.21.18-.43.38-.64.53-.82.57-1.51.83-2.21,1.11-.69.26-1.35.45-2,.62-2.61.67-5.14,1.03-7.67,1.35l-.04-.08Z"/><path class="cls-1" d="M330.35,148.76c-.16.32-.31.66-.41,1.01-.04.13.01.26-.04.39-.18.46-.35.96-.38,1.47,0,.22.02.44.03.67.05.28.12.54-.07.93-.05.12-.17.16-.4.16-.21,0-.68.01-.89-.12-.27-.27-.52-.56-.7-.89-.08-.35-.1-.71-.02-1.08.09-.43-.09-.85-.07-1.29.05-.47.15-.94.27-1.39.07-.28.17-.55.25-.82.13-.41.32-.8.42-1.21.1-.31.05-.69.13-1.02.03-.07.04-.14.09-.2.19-.21.39-.21.92.03l.33.15c.33.16.66.46.77.7.1.19.18.36.26.51.03.14.05.27.06.39.03.25-.02.47-.11.67-.11.31-.27.62-.38.95h-.07Z"/><path class="cls-1" d="M336.37,148.7c-.15.28-.26.58-.4.89-.06.11-.03.23-.08.35-.2.41-.36.86-.44,1.32-.04.21,0,.4.02.59.06.24.15.47.06.78-.03.1-.31.2-.64.24-.32.04-.72.04-.85-.11-.39-.51-.76-1.1-.6-1.76.08-.38-.1-.75-.12-1.14-.03-.42.08-.84.19-1.25.07-.25.15-.5.22-.74.1-.37.27-.72.33-1.1.07-.28-.04-.63.04-.92.02-.06.02-.13.06-.19.15-.2.36-.2.91,0l.37.14c.4.17.72.41.87.62.53.67.54,1.04.41,1.42-.08.28-.22.55-.31.84h-.07Z"/><path class="cls-1" d="M342.89,149.36c-.18.28-.32.59-.48.9-.06.11-.04.24-.1.35-.2.41-.4.84-.5,1.29-.06.2,0,.4-.02.6,0,.26.04.5-.12.8-.05.09-.32.14-.64.12-.31-.01-.71-.09-.83-.25-.47-.55-.46-1.21-.23-1.83.14-.37.05-.75.1-1.13.05-.41.19-.81.34-1.2.1-.24.19-.47.28-.7.14-.36.33-.69.43-1.05.04-.14.05-.29.05-.45.03-.15.06-.3.1-.44.02-.06.02-.13.06-.19.12-.21.34-.18.84.05l.33.15c.34.17.65.45.74.66.12.31.23.6.29.85-.02.22-.1.41-.18.6-.12.29-.29.57-.41.86h-.06Z"/><path class="cls-1" d="M237.13,376.87c-.07-.64-.03-1.18,0-1.72,0-.2-.04-.38-.02-.58.08-.69.15-1.36.32-2.02.06-.29.09-.58.13-.87.04-.37.09-.74.26-1.09.05-.11.18-.08.33.04.14.11.33.3.38.51.14.73.35,1.42.26,2.13-.08.43.07.86.13,1.28.06.47.12.95.2,1.38.05.26.11.52.21.73.16.32.31.63.59.74.22.09.5-.03.59-.15.02-.03.03-.08.04-.08.04-.02.1.14.49.62l.28.32c.31.34.43.79.11,1.12-.47.49-1.19.6-1.78.51-.6-.09-1.16-.37-1.61-.82-.66-.62-.82-1.42-.95-2.03l.05-.02Z"/><path class="cls-1" d="M306.75,88.69c-.28.95-.45,1.94-.55,2.93-.1,1.04-.09,2.15.2,3.16.33,1.17,1.1,2.19,2.23,2.67s2.37.2,3.35-.53c1.04-.77,1.82-1.78,2.69-2.72.44-.48.51-1.3,0-1.77-.48-.44-1.3-.52-1.77,0-.64.7-1.22,1.44-1.91,2.08-.08.07-.16.15-.24.22-.03.03-.1.1-.14.12.02-.01.23-.16.04-.03-.17.12-.37.21-.54.33-.11.07.1-.05.12-.04,0,0-.13.05-.15.05-.08.03-.18.04-.26.07-.15.06.26,0,.11-.02-.04,0-.08,0-.11,0-.03,0-.14-.02-.15,0,.05-.03.28.07.1,0-.05-.02-.1-.03-.15-.04-.19-.05.07.03.07.03-.04.02-.25-.15-.27-.16-.12-.06.04.04.06.05-.05-.04-.11-.09-.16-.14-.05-.05-.16-.21-.23-.23.02,0,.17.25.06.08-.02-.03-.04-.06-.06-.09-.05-.07-.09-.15-.13-.23,0-.01-.05-.12-.07-.14,0,0,.09.24.05.12-.03-.11-.08-.22-.11-.34-.05-.19-.09-.38-.12-.57-.04-.22.02.27,0-.05,0-.12-.02-.23-.03-.35-.02-.45,0-.9.03-1.35.01-.12.02-.24.04-.36,0-.04.01-.09.02-.13.03-.3-.03.19,0,.02.04-.24.08-.48.12-.72.08-.42.18-.84.31-1.25.19-.63-.22-1.39-.87-1.54s-1.34.2-1.54.87h0Z"/><path class="cls-1" d="M320.57,92.7c-.82,2.07-.76,4.92.76,6.66.82.94,2.23,1.39,3.45,1.4,1.29.01,2.55-.49,3.61-1.2,1.4-.94,2.57-2.16,3.65-3.44.44-.51.5-1.26,0-1.77-.45-.45-1.33-.52-1.77,0-.98,1.15-2.04,2.33-3.27,3.12-.62.4-.98.58-1.64.73-.05.01-.4.06-.16.03-.16.02-.33.02-.49.02-.04,0-.38-.03-.16,0-.17-.02-.34-.06-.5-.11-.34-.1-.35-.15-.67-.29-.12-.08-.12-.07,0,.02-.05-.04-.1-.09-.15-.14-.03-.03-.25-.28-.08-.06-.09-.11-.16-.23-.23-.36-.03-.06-.07-.13-.1-.19.04.11.05.13.02.04-.1-.27-.16-.55-.23-.84-.08-.36,0,.22-.02-.14-.01-.16-.03-.32-.03-.49,0-.29.01-.57.03-.86.02-.15.02-.16,0-.03.01-.08.02-.16.04-.24.02-.12.04-.23.07-.35.07-.3.16-.58.27-.86.25-.63-.27-1.37-.87-1.54-.71-.2-1.29.24-1.54.87h0Z"/><path class="cls-1" d="M313.03,117.03c1.48,1.04,3.48,1.36,5.22.87,1.63-.46,3.08-1.62,3.86-3.13.36-.7.2-1.66-.54-2.05-.69-.36-1.67-.21-2.05.54-.07.14-.15.28-.24.41-.04.06-.08.12-.12.17-.1.17.17-.2.04-.05-.2.23-.4.44-.63.64-.21.19.16-.11.01,0-.06.04-.11.08-.17.12-.12.08-.24.15-.36.22-.08.04-.16.08-.23.12-.19.1,0-.03.07-.02-.11-.01-.35.12-.45.15-.14.04-.29.06-.43.1-.2.05.27-.02.06,0-.09,0-.19.02-.28.02-.15,0-.3,0-.46,0-.02,0-.23-.02-.23-.02.19.03.23.03.12.02-.04,0-.08-.01-.11-.02-.15-.03-.3-.06-.44-.1-.07-.02-.45-.09-.49-.16.02.04.25.12.05.01-.07-.04-.14-.07-.2-.1-.17-.09-.33-.19-.48-.3-.64-.45-1.7-.14-2.05.54-.41.77-.15,1.57.54,2.05h0Z"/><path class="cls-1" d="M324.83,88.44c.16-.09.32-.18.49-.26.1-.05.25-.11.07-.04.08-.03.15-.06.23-.09.35-.12.7-.22,1.07-.29,0,0,.36-.06.18-.03-.16.02.09,0,.12-.01.18-.02.37-.03.55-.03.21,0,.41,0,.62.02.08,0,.16.01.25.02.27.02-.1-.02.06,0,.37.07.73.14,1.08.25.18.05.35.12.52.18-.25-.09.22.11.29.14.33.17.64.36.94.58.17.12-.15-.13.01,0,.08.07.16.13.23.2.15.14.3.28.44.43.51.54,1.43.51,1.94,0,.54-.54.51-1.4,0-1.94-2.63-2.82-7.16-3.44-10.48-1.52-.64.37-.87,1.24-.49,1.88s1.24.87,1.88.49h0Z"/><path class="cls-1" d="M399.81,80.73c-.17-.07-.24-.24-.27-.46-.01-.07.07-.2.13-.19.11.01.23.03.35.05.07,0,1.08.45,1.41.66.34.17.63.4.92.64.56.51,1.12,1.06,1.56,1.7.09.14.18.3.22.47.17.57.4,1.1.63,1.65.04.09.06.19.16.26.09.06.25.48.36.92.11.45.16.91.15,1.02-.09.54-.17,1.06-.32,1.57-.02.07,0,.16-.1.21-.25.13-.23.28-.27.44-.04.21-.14.42-.26.61-.06.09-.22.16-.36.23-.12.06-.47-.1-.51-.14-.09-.12-.28-.1-.44-.14-.05-.01-.12-.03-.16-.04-.08-.06-.44-1.14-.43-1.22.01-.01.02-.37.02-.73-.03-.37-.06-.75-.09-.83-.02-.08.03-.17.05-.26.04-.05-.27-1.13-.29-1.17-.01-.24-.15-.44-.05-.72.02-.06,0-.1-.02-.15-.14-.38-.25-.78-.37-1.2-.06-.21-.18-.39-.27-.59-.02-.04-.02-.08-.03-.12-.01-.05-.03-.1-.05-.15-.27-.44-.51-.93-.89-1.29-.07-.1-.41-.6-.53-.68-.05-.06-.18-.33-.26-.35Z"/><path class="cls-1" d="M408.79,79.44c-.2.04-.15-.25.01-.77.05-.16.31-.59.39-.62.16-.06.32-.12.46-.14.09-.03,1.12.39,1.46.61.35.17.61.43.85.7.48.57.94,1.17,1.27,1.84.08.15.13.3.15.48.07.58.24,1.1.42,1.63.03.09.04.18.14.26.1.06.21.47.28.9.06.43.06.88.03.98-.18.5-.32.99-.54,1.45-.03.07,0,.15-.13.18-.29.09-.28.24-.33.37-.06.19-.18.37-.32.53-.07.08-.25.12-.39.16-.13.04-.49-.16-.52-.2-.09-.12-.29-.13-.45-.18-.05-.02-.12-.04-.16-.06-.05-.02-.15-.31-.25-.57-.1-.27-.22-.52-.2-.56.01,0,.01-.32,0-.63-.03-.32-.06-.64-.1-.71-.03-.07.03-.14.07-.21.05-.04-.28-.95-.29-.98,0-.2-.14-.36.01-.61.03-.05,0-.09,0-.12-.14-.31-.18-.66-.29-1-.05-.18-.17-.31-.25-.47-.02-.03,0-.07,0-.11,0-.04,0-.09-.03-.13-.25-.34-.42-.76-.79-.99-.07-.06-.26-.55-.38-.6-.05-.03-.02-.44-.11-.42Z"/></svg>