<?xml version="1.0" encoding="UTF-8"?><svg id="Layer_1" xmlns="http://www.w3.org/2000/svg" width="520" height="520" viewBox="0 0 520 520"><defs><style>.cls-1,.cls-2,.cls-3{fill:#231f20;}.cls-4{fill:#242021;}.cls-5,.cls-2{opacity:.3;}.cls-3{opacity:.35;}</style></defs><path class="cls-1" d="M277.99,255.03c-.02.08-.05.16-.08.24-.09.3.13-.26.02-.04-.06.12-.12.24-.19.36-.07.11-.27.31.02-.01-.04.05-.08.1-.13.15-.09.1-.18.19-.28.27-.26.23.22-.14.03-.01-.05.04-.1.07-.16.11-.11.07-.22.14-.33.2-.08.04-.15.08-.23.11-.21.1.32-.12.09-.04-.13.05-.27.1-.4.14-.27.08-.55.14-.82.19-.3.05.33-.03.08-.01-.06,0-.13.01-.19.02-.14.01-.27.02-.41.02-.26,0-.52,0-.77-.02-.06,0-.13-.01-.19-.02-.22-.02.38.06.15.02-.12-.02-.23-.04-.35-.07-.7-.16-1.52.21-1.69.96-.16.7.21,1.52.96,1.69,2.91.66,6.63-.37,7.52-3.53.2-.69-.24-1.53-.96-1.69s-1.48.22-1.69.96h0Z"/><path class="cls-1" d="M166.69,240.17c2.53,5.22,9.02,11.51,15.02,7.32.72-.5,1.05-1.42.58-2.22-.42-.71-1.5-1.09-2.22-.58-.64.45-1,.65-1.65.82-.15.04-.31.07-.47.1.32-.05-.16,0-.19,0-.15,0-.31,0-.46,0-.03,0-.52-.05-.18,0-1.3-.18-2.13-.65-3.22-1.48.2.15-.19-.16-.2-.16-.13-.11-.26-.22-.38-.33-.25-.23-.5-.47-.74-.71s-.47-.5-.69-.75c-.11-.13-.22-.26-.33-.39-.03-.04-.31-.4-.16-.2-.73-.95-1.37-1.98-1.89-3.06-.38-.79-1.51-1-2.22-.58-.81.47-.97,1.43-.58,2.22h0Z"/><path class="cls-1" d="M170.33,277.02c1.54,2.78,4.43,4.54,7.56,4.82.85.08,1.66-.8,1.62-1.62-.04-.95-.72-1.54-1.62-1.62-.08,0-.15-.02-.23-.02-.21-.02.4.07.11.01-.15-.03-.3-.05-.45-.09-.3-.07-.6-.15-.88-.26-.06-.02-.12-.04-.17-.06-.04-.01-.33-.13-.06-.02s0,0-.06-.03c-.07-.03-.14-.07-.21-.1-.28-.14-.54-.29-.8-.46-.12-.08-.23-.15-.34-.24-.03-.02-.28-.21-.06-.04s0,0-.05-.05c-.24-.2-.46-.41-.67-.63-.11-.11-.21-.23-.31-.34-.04-.05-.08-.1-.12-.14.31.34.1.13.03.04-.18-.25-.34-.51-.49-.78-.41-.74-1.5-1.05-2.22-.58s-1.02,1.43-.58,2.22h0Z"/><g class="cls-5"><path class="cls-4" d="M425.12,97.71l-.29.08c-5.21,1.38-10.1,3.96-14.04,7.59-3.92,3.54-7.19,7.93-8.95,13.03l-.63,1.91-.44,1.98-.21.99-.11,1.01-.21,2.02c-.06,2.69.13,5.47.83,8.02.27,1.3.76,2.54,1.19,3.8.55,1.22,1.03,2.47,1.75,3.6.67,1.16,1.51,2.21,2.33,3.26.91.99,1.79,1.98,2.83,2.82,2.03,1.71,4.26,3.2,6.74,4.1,2.47.89,5.06,1.36,7.62,1.38h0c.6,0,1.11-.02,1.19-.06l.94-.47c1.07-.37,2.06-.83,3.05-1.12.11-.03-.01-.05-.34-.06-.82-.04-1.63-.04-2.43-.23-.42-.08-1.2-.15-2.02-.35-2.48-.47-4.82-1.43-6.88-2.75-2.07-1.28-3.94-2.84-5.46-4.7l-1.06-1.44c-.34-.49-.62-1.02-.93-1.52-.33-.49-.53-1.06-.8-1.59-.14-.26-.29-.52-.41-.79l-.34-.83c-.5-1.08-.8-2.24-1.15-3.38-.24-1.18-.53-2.35-.59-3.51-.18-1.16-.08-2.33-.08-3.49.04-.58.15-1.16.22-1.74l.12-.87.22-.85c.48-2.3,1.5-4.46,2.58-6.56,1.13-2.09,2.65-3.96,4.26-5.72l1.32-1.22c.22-.2.43-.41.66-.61l.71-.54c.48-.36.94-.74,1.43-1.09l1.52-.95c.57-.39,1.09-.72,1.2-.94l.55-1.04c.16-.29.17-.52.02-.66l-.49-.45s.02-.13.16-.25c.42-.37.89-.67,1.36-.98.38-.25.56-.46.48-.57-.1-.15.05-.38.42-.68.19-.14.43-.32.72-.47.3-.14.65-.29,1.05-.43l.68-.25c.49-.18.85-.36,1-.51.15-.12.07-.24-.22-.25-.26-.01-.19-.15.19-.3.81-.26.92-.51.23-.56-.24-.02-.47-.04-.71-.03-.22,0-.3-.05-.2-.14.1-.09.37-.23.72-.29l2-.44c.55-.12.91-.26.88-.36-.02-.1-.43-.12-1-.06l-1.26.15c-.64.07-1.29.16-1.92.36"/></g><path class="cls-1" d="M397.37,124.41c.49-4.9,2.25-9.7,5.01-13.7l1.55-2.17c.57-.68,1.14-1.36,1.74-2.01,2.23-2.2,4.74-4.05,7.42-5.58l2.05-1.07c.69-.34,1.41-.61,2.11-.92.7-.32,1.42-.56,2.15-.8.74-.21,1.45-.49,2.2-.64,1.32-.3,2.62-.65,3.96-.83.67-.1,1.32-.25,1.99-.31.67-.06,1.33-.13,1.99-.19.85-.09,1.71-.06,2.56-.06.85,0,1.71-.01,2.56.1.85.09,1.7.2,2.53.34.83.19,1.65.37,2.48.56,1.02.25.87.27-.03.35-.9.08-2.55.25-4.44.53-1.67.06-3.32.32-4.95.55-.81.18-1.62.27-2.43.4-.8.15-1.6.36-2.39.53-.8.15-1.57.44-2.36.66l-1.17.35-1.14.43c-.77.27-1.56.49-2.3.82-.75.33-1.54.56-2.26.95-3.59,1.64-6.75,4.39-9.34,7.42-.38.4-.71.84-1.03,1.29l-.98,1.33-.86,1.41-.43.71-.36.74-.72,1.49c-.21.51-.38,1.03-.58,1.54-.43,1.02-.62,2.11-.91,3.18-.53,2.67-.68,5.44-.44,8.18.43,4.15,1.66,8.28,3.7,11.92,1.61,2.82,3.74,5.23,6.12,7.28.53.45,1.05.89,1.62,1.29.51.39.93.73,1.27,1.03.34.29.64.5.85.73.43.43.59.85.64,1.33.02.22.09.46.08.64-.02.59-1.28.53-3.15-.47-5.42-3.11-9.76-8.58-12.15-14.75-1.82-4.58-2.54-9.62-2.2-14.58h.08Z"/><path class="cls-2" d="M373.93,351.45c-1.4.52-20.72,10.36-20.01,13.03s3.65.48,3.65,3.72c0,2.09-1.94,2.63-.7,4.05,2.2,2.54,29.02-10.97,29.02-10.97v3.68s-29.76,14.36-34.08,12.35c-4.32-2-4.95-7.04-4.95-7.04l1.3-7.2,9.41-4.9,16.35-6.73Z"/><path class="cls-1" d="M348.59,377.93c-.44-.45-.81-1.02-1.04-1.67-.24-.67-.26-1.31-.24-1.73.02-.44.06-.73.06-.92,0-.2-.02-.43-.1-.7-.11-.39-.38-.78-.6-1.28-.19-.44-.41-.91-.6-1.45-.19-.53-.3-1.15-.34-1.73-.07-1.18.17-2.3.56-3.27.34-.87.73-1.68,1.17-2.44.27-.49.59-.95.92-1.4.33-.44.71-.85,1.21-1.15.31-.19.41-.06.49.35.04.21.08.48.13.81.02.31-.04.6-.16.88-.22.48-.42.97-.61,1.44-.22.46-.39.91-.57,1.35-.32.89-.54,1.72-.59,2.54-.08,1.01.59,1.83,1.31,3.13.37.71.76,1.58.87,2.6.07,1.02-.03,1.56.09,1.82.12.41.64.88,1.27,1.06l.18.05s.08,0,.12.02c.14,0,.28.02.44.02.32,0,.66,0,.99,0,.68-.02,1.36-.08,2.03-.17,1.05-.15,2.06-.51,3.07-.8.22-.06.44-.16.66-.21.84-.19,1.13.03,1.45.9.08.2.17.39.23.59.23.67-.08,1.33-.69,1.64-1.83.87-3.82,1.17-5.88,1.33-.39.03-.78.05-1.18.06-.43,0-.78.02-1.43-.03-.44-.05-.68-.12-.97-.21-.28-.09-.55-.2-.82-.33-.53-.26-1.04-.6-1.5-1.05l.05-.06Z"/><path class="cls-1" d="M347,350.55c.29,1.13.51,2.27.65,3.42.07.41.15.82.18,1.24.11,1.48-.02,2.96-.22,4.39-.07.64-.17,1.28-.25,1.91-.07.4-.12.81-.22,1.21-.13.39-.28.78-.45,1.15-.11.23-.23.16-.36-.09-.12-.25-.3-.68-.31-1.14.08-1.6.12-3.14.18-4.72.04-.95-.14-1.93-.29-2.88-.16-1.05-.37-2.1-.66-3.13-.18-.63-.38-1.26-.63-1.87-.37-.93-.79-1.85-1.33-2.68-.45-.63-.99-1.17-1.51-1.72-.11-.12-.24-.23-.35-.35-.43-.44-.36-.76-.06-1.21.07-.11.14-.22.21-.31.25-.31.7-.35,1.18-.11.66.41,1.22.96,1.76,1.54.5.61.9,1.31,1.26,2.02.54,1.06.94,2.18,1.28,3.31l-.05.02Z"/><path class="cls-1" d="M354.73,384.47c.37,1.04.71,2.08,1,3.12.12.38.27.74.36,1.13.32,1.36.57,2.73.73,4.1.07.61.16,1.22.25,1.81.11.77.23,1.54.14,2.32-.03.24-.27.23-.56.06-.28-.18-.63-.5-.73-.92-.37-1.49-.86-2.92-1.02-4.45-.11-.92-.51-1.8-.81-2.68-.34-.97-.69-1.94-1.1-2.89-.25-.59-.51-1.17-.8-1.73-.44-.86-.89-1.72-1.46-2.49-.45-.59-1.02-1.08-1.56-1.59-.11-.11-.25-.21-.36-.32-.43-.42-.36-.71.08-1.26.1-.12.19-.25.3-.36.34-.36.89-.49,1.31-.22.62.39,1.15.91,1.64,1.46.46.58.86,1.21,1.23,1.86.55.97.99,1.99,1.41,3.02l-.05.03Z"/><path class="cls-1" d="M365.59,372.72c1.05-1,2.28-1.71,3.48-2.3.44-.22.85-.48,1.29-.66,1.58-.62,3.15-1.08,4.68-1.57.69-.2,1.35-.47,2.01-.73.43-.16.82-.39,1.29-.46.45-.1.92-.16,1.38-.25.29-.04.29.06.14.32-.16.24-.42.74-.81,1.16-.18.16-.34.38-.54.49l-.6.35c-.4.23-.81.46-1.23.67-.82.45-1.7.77-2.59,1.03-1.07.31-2.03.92-2.98,1.45-1.05.57-2.03,1.21-2.92,1.93-.55.45-1.05.93-1.46,1.49-.62.84-1.14,1.82-1.3,2.85-.12.8.07,1.59.34,2.26.05.15.16.27.21.42.16.54.06.77-.5,1.25-.13.11-.25.23-.38.33-.42.34-1.01.3-1.48-.24-.71-.8-.98-1.89-1.05-2.94-.06-1.06.14-2.12.49-3.09.53-1.44,1.41-2.73,2.47-3.8l.05.05Z"/><path class="cls-1" d="M367.19,373.23c1.1-1.05,2.33-1.89,3.58-2.61.46-.26.88-.57,1.35-.8,1.65-.81,3.33-1.48,5.04-2.04.75-.27,1.5-.54,2.25-.8.94-.37,1.93-.63,2.95-.74.32-.03.33.17.14.47-.19.29-.56.73-1.06,1-1.81.91-3.61,1.72-5.47,2.49-1.14.41-2.19,1.12-3.22,1.75-1.14.69-2.23,1.45-3.22,2.3-.6.53-1.17,1.11-1.65,1.74-.72.95-1.34,2.03-1.61,3.19-.2.9-.16,1.82,0,2.66l.13.55c.16.67.03.92-.51,1.27-.12.08-.23.17-.35.24-.2.11-.41.12-.64.02-.22-.1-.49-.3-.62-.62-.91-1.91-.72-4.31.17-6.26.63-1.48,1.63-2.77,2.7-3.85l.04.04Z"/><path class="cls-1" d="M352.04,356.29c-.81-.54-1.55-1.16-2.2-1.83-.24-.24-.5-.46-.72-.73-.75-.95-1.37-1.94-1.94-2.95-.26-.45-.51-.89-.76-1.33-.32-.56-.62-1.14-.84-1.76-.07-.19.03-.21.2-.11.17.1.44.31.65.61.74,1.08,1.52,2.09,2.27,3.12.45.63,1.06,1.14,1.64,1.65.62.58,1.28,1.11,2,1.55.44.27.9.52,1.38.72.72.3,1.48.56,2.25.62.6.05,1.19-.1,1.74-.24.12-.04.24-.08.36-.12.45-.1.6-.02.84.53.05.12.12.24.16.37.16.42.03.82-.38,1.03-1.21.59-2.68.54-3.98.15-.97-.27-1.88-.72-2.71-1.24l.02-.04Z"/><path class="cls-1" d="M370.19,351.89c-1.47.77-2.98,1.46-4.5,2.1-.55.24-1.07.54-1.64.75-1.97.78-4.05,1.29-6.09,1.8-.9.2-1.79.56-2.79.66-.63.08-1.28.11-1.95-.02-.66-.17-1.27-.61-1.64-1.13-.22-.35-.14-.31.19-.23.33.1.97,0,1.5-.22.46-.05.94-.15,1.42-.32l.74-.27c.25-.07.51-.16.77-.25,1.1-.38,2.22-.73,3.36-1.05,1.36-.4,2.67-1.06,3.99-1.64,1.45-.64,2.9-1.31,4.31-2.05.86-.46,1.73-.93,2.56-1.45,1.26-.78,2.54-1.57,3.68-2.52.9-.72,1.62-1.61,2.4-2.43.17-.18.33-.37.51-.54.68-.63,1.01-.7,1.69-.28.15.09.3.16.42.25.39.28.52.98.1,1.59-1.13,1.9-2.9,3.33-4.72,4.64-1.36.97-2.81,1.83-4.28,2.65l-.04-.06Z"/><path class="cls-1" d="M303.96,294.06c-1.81,1.04-3.7,2.02-5.79,2.79-.78.26-1.55.56-2.4.69-2.99.42-5.9-.45-8.29-1.82-1.06-.63-2.06-1.36-2.97-2.16-1.16-1.01-2.29-2.14-2.84-3.63-.19-.45-.09-.43.3-.23.37.22,1.22.45,1.85.97,1.09.96,2.27,1.78,3.5,2.45.31.16.61.34.93.48.3.17.6.35.91.5.31.16.62.32.94.44.32.15.64.27.97.38,1.58.6,3.36.46,4.95.03,1.79-.51,3.58-1.48,5.34-2.49,1.09-.62,2.19-1.27,3.28-1.93,1.65-1.01,3.36-1.98,5.09-2.9,1.35-.71,2.67-1.48,4.19-1.94.32-.13.66-.21,1.01-.28.64-.14,1.09-.13,1.41-.02.31.1.49.29.63.59.06.14.14.27.18.41.11.46-.36.9-1.12,1.13-1.14.44-2.24.93-3.36,1.55-1.11.63-2.28,1.18-3.43,1.88-1.72,1-3.47,2.08-5.26,3.17l-.04-.06Z"/><path class="cls-1" d="M254.48,260.31c-.96,1.72-31.79-9.87-40.78-6.42-4.26,1.63-1.25-18.96-1.02-20.43s8.91-32.07,13.19-39.01,14.74-22.13,25.38-25.07c10.64-2.94,23.18-3.45,29.43,1.22,6.25,4.66,8.82,8.51,8.82,8.51,0,0,16.56-15.12,27.69-12.93,11.13,2.19,22.93,5.7,29.21,18.76s12.11,34.87,12.11,34.87v34.09l-2.26,18.73s-11.5-7.81-26.72-8.16c-12.04-.28-28.52,4.43-28.52,4.43l18.25-23.05s9.12-.18,11.01-4.07,2.77-11.91,2.77-11.91c0,0-7.05,1.01-10.09-4-3.04-5.01-5.74-15.3-5.74-15.3l3.19-9.95s-5.37,4.57-11.43,5.29c-6.07.72-14.71,2.72-15.97-3.53-1.26-6.25.8-12.19.8-12.19,0,0-15.39,9.02-22.53,11.43s-15.08-1.62-16.95-1.24c-1.87.38-4.97,8-4.97,8,0,0-5.11,17.05-4.58,21.85s4.58,20.23,4.58,20.23c0,0,6.5,7.44,5.14,9.87Z"/><path class="cls-3" d="M272.71,348.34c8.52-.8-2.45,8.71-.89,8.99,6.4,1.15,10.9-7.08,12.16-18.22.68-6.05-.83-14.17-2.07-13.5-5.11,2.76-20.09,9.32-20.09,9.32-.76.42-24.02-4.25-25.01-3.49-2.73,2.11-9.97,7.44-14.49,8.47-6.09,1.39-16.96,0-16.96,0,0,0,2.57,19.14,15.32,18.56,12.75-.58,12.33-9.36,21.71-13.02s15.66-8.2,15.21-5.07-8.27,9.15-8.27,9.15c0,0,6.52,5.13,12.48,2.88,5.95-2.25,10.9-4.07,10.9-4.07Z"/><path class="cls-1" d="M281.26,352c.9-.29,1.78-.66,2.6-1.16.3-.18.54-.44.84-.63,1.06-.66,2.07-1.48,2.9-2.48.38-.43.69-.92.97-1.42.35-.65.62-1.33,1.03-1.97.13-.2.38-.1.6.19.21.28.43.77.32,1.24-.37,1.63-1.1,3.26-2.39,4.41-.75.69-1.38,1.54-2.2,2.19-.91.69-1.92,1.25-2.96,1.7-.64.28-1.29.51-1.95.71-1,.31-2.03.48-3.05.66-.79.15-1.57.39-2.38.46-.18.02-.36.06-.54.06-.67-.03-.86-.33-.93-.95-.01-.15-.04-.29-.04-.43,0-.47.3-.86.73-1.06.64-.25,1.25-.4,1.86-.53.61-.11,1.23-.21,1.85-.32.91-.17,1.84-.38,2.72-.72l.03.06Z"/><path class="cls-1" d="M283.3,353.08c.18-.1.36-.19.53-.27.06-.03.08-.1.15-.13.25-.08.51-.11.74-.16.1-.02.16-.09.22-.16.07-.09.11-.26.32-.15.12.07.96,1.61.95,1.69-.07.14-.18.18-.46.1-.17-.05-.16.1-.25.14-.1.05-.21.1-.32.15-.07.03-.14.07-.19.12-.08.07-.19.13-.21.24-.02.08.09.22.15.32.01.02.05.05.05.07.01.07-.14.03-.71-.15l-.39-.12c-.44-.14-.79-.3-.89-.42-.3-.35-.3-.66-.15-.87.1-.16.26-.29.4-.42l.05.03Z"/><path class="cls-1" d="M221.14,361.7c-1.36-.12-2.69-.52-3.82-1.18-.41-.23-.83-.44-1.2-.73-.63-.52-1.19-1.09-1.69-1.69-.49-.61-.88-1.27-1.28-1.91-.34-.57-.68-1.13-1.02-1.7-.43-.72-.82-1.46-1.12-2.23-.1-.24,0-.26.22-.14.22.13.59.37.9.73,1.09,1.29,2.2,2.5,3.25,3.68.59.75,1.41,1.3,2.21,1.75.87.51,1.83.83,2.82.93.61.05,1.25.06,1.88-.03.96-.15,1.94-.43,2.82-.9.69-.37,1.26-.93,1.83-1.45.13-.12.23-.26.39-.33.56-.3.85-.27,1.32.14.11.09.22.17.32.27.32.32.33.8.06,1.29-.37.79-1.04,1.24-1.7,1.73-.68.46-1.45.85-2.27,1.16-1.21.45-2.56.7-3.94.69v-.06Z"/><path class="cls-1" d="M222.59,360.14c-1.65.08-3.33-.12-4.9-.68-.57-.2-1.16-.39-1.69-.69-.93-.54-1.72-1.22-2.42-1.94-.7-.72-1.25-1.52-1.82-2.28-.5-.69-1.01-1.31-1.54-1.99-.31-.45-.66-.9-.85-1.46-.17-.56-.22-1.16-.16-1.72.06-.35.07-.29.2-.03.12.27.56.66,1.02,1,1.35,1.25,2.96,2.89,4.28,4.34.78.93,1.84,1.55,2.87,1.99,1.15.5,2.45.74,3.77.72.81-.01,1.64-.1,2.44-.31,1.21-.3,2.45-.75,3.54-1.43.86-.52,1.53-1.29,2.27-1.95.16-.15.3-.32.47-.46.65-.5,1.01-.47,1.6-.05.14.1.28.18.4.29.4.35.44.93.1,1.54-1.05,1.74-2.81,2.99-4.79,3.92-1.47.69-3.13,1.12-4.79,1.26v-.07Z"/><path class="cls-1" d="M251.65,348.27c.52-.51,1.04-1.02,1.54-1.55.17-.2.3-.42.5-.6.71-.63,1.42-1.26,2.06-1.94.28-.3.57-.6.82-.92l.25-.3c.11-.08.25-.15.38-.22.22-.17.41-.36.61-.53.13-.11.13-.08.13.08,0,.16.04.48,0,.81,0,.16.08.36.12.54.04.18-.04.29-.06.43-.06.27-.14.54-.22.8-.17.52-.52.92-.87,1.33-.45.47-.64,1.13-.97,1.69-.38.6-.84,1.16-1.26,1.74-.26.35-.55.71-.78,1.05-.33.5-.68.93-.65,1.33,0,.24.36.41.51.35,0,0,.05-.04.03-.02-.03.03-.06.08-.08.1-.08.13-.09.18-.09.2h0s0,.07,0,.1c-.01.14-.01.33,0,.55,0,.2.03.4.05.6.03.34.02.65-.15.9-.16.25-.47.43-.86.39-1.15-.13-1.99-.91-2.41-1.81-.21-.44-.33-1.03-.32-1.54,0-.47.09-.93.21-1.31.36-1.18,1.03-1.77,1.46-2.29l.07.04Z"/><path class="cls-1" d="M248.48,351.1c.23-.21.46-.38.68-.55.08-.06.12-.15.2-.2.3-.19.61-.32.9-.45.12-.06.24-.13.34-.21.14-.1.27-.22.47-.19.12.01.37.84.31.97-.16.21-.29.39-.55.48-.16.05-.19.24-.27.36-.09.14-.18.28-.26.42-.05.09-.1.18-.14.28-.05.15-.13.29-.1.45.03.12.17.25.29.35.02.02.07.04.08.06.05.08-.11.11-.76.18l-.44.05c-.5.05-.91.03-1.06-.09-.43-.35-.5-.82-.29-1.19.13-.28.34-.53.53-.75l.05.02Z"/><path class="cls-1" d="M252.66,350.78c.04-.94.3-1.73.57-2.44.1-.26.14-.53.26-.77.45-.82.95-1.58,1.52-2.28.25-.31.45-.64.66-.96.26-.41.52-.85.99-1.09.15-.08.42.19.65.53.22.34.44.77.35,1-.36.81-.61,1.6-1.2,2.27-.35.41-.4.98-.54,1.47-.16.54-.29,1.06-.32,1.56-.02.31,0,.6.05.87.05.22.1.4.2.57.1.17.25.33.43.43.29.16.66.06.83-.07.04-.03.07-.08.09-.1.08-.06.14.14.52.84l.27.47c.31.51.37,1.12-.1,1.42-.66.45-1.54.51-2.27.32-.74-.19-1.38-.6-1.89-1.16-.37-.39-.7-.95-.87-1.44-.18-.49-.28-.99-.28-1.47h.07Z"/><path class="cls-1" d="M274.71,356.87c-.46-.52-.74-1.18-.78-1.85,0-.14.02-.28.04-.42.01-.14,0-.27.06-.4.03-.17.12-.33.17-.49.05-.16.11-.32.2-.47.11-.11.17-.26.27-.35.06-.08.14-.14.2-.2l.39-.36c.26-.24.5-.49.74-.74.21-.22.37-.47.54-.71.2-.32.44-.62.73-.89.09-.08.16-.04.22.11.06.14.17.4.17.64-.05.82-.13,1.64-.56,2.28-.26.36-.33,1.02-.4,1.01-.06.08-.11.17-.15.29-.03.11-.03.23,0,.35.05.14.14.29.28.39.23.16.51.27.88.17.28-.08.5-.37.74-.6.06-.05.1-.12.17-.16.24-.13.41,0,.77.66l.25.45c.26.51.35,1,.21,1.27-.39.81-1.31,1.23-2.53,1.24-.97,0-1.93-.44-2.66-1.15l.05-.05Z"/><path class="cls-1" d="M260.06,353.42c-.7-.04-1.48-.06-2.29-.15-.3-.04-.6-.04-.91-.13-.53-.16-1.08-.37-1.57-.72-.48-.35-.89-.81-1.13-1.32-.22-.44-.37-.88-.46-1.31-.12-.55-.17-1.1-.08-1.63.03-.17.19-.16.4-.04.2.12.46.34.57.61.18.48.38.91.6,1.23.22.32.44.53.72.75.34.28.89.3,1.44.3.61.03,1.28.06,2,.02.44-.02.89-.04,1.33-.05.67-.04,1.35-.05,2.01-.16.51-.08,1-.31,1.5-.47.11-.04.21-.1.33-.12.42-.03.57.15.73.77.04.14.08.28.1.42.09.47-.04.9-.32,1.13-.85.63-1.81.78-2.77.88-.72.05-1.45.03-2.17.04v-.06Z"/><path class="cls-1" d="M272.32,355.69c.19-.01.38-.03.56-.05.07-.01.1-.06.17-.07.24-.01.51,0,.74-.03.1-.01.19-.06.26-.12.1-.07.17-.18.35-.13.11.03.58.99.5,1.13-.16.21-.36.37-.65.37-.18,0-.25.17-.4.23-.16.07-.32.12-.48.18-.1.04-.2.07-.3.11-.14.07-.31.1-.43.21-.09.08-.12.26-.18.39-.01.03-.02.07-.03.1-.07.08-.16-.01-.45-.44l-.2-.29c-.22-.33-.35-.64-.35-.77,0-.41.17-.57.36-.69.14-.09.34-.1.5-.15l.02.04Z"/><path class="cls-2" d="M143.88,387.67c-6.2,6.09-11.22,7.29-10.78,11.79.15,1.5,3.15,2.64,3.79,3.06,2.99,1.96.02,5.1,1.56,6.48,3.76,3.39,30.21-12.3,32.21-15.21s-10.91,14.01-15.8,15.53c-4.89,1.52-19.67,11.54-24.07,7.46s-3.16-7.3-5.74-9.94-5.09-3.46-1.89-7.67c3.2-4.21,20.72-11.5,20.72-11.5Z"/><path class="cls-1" d="M126.84,411.15c-.02-.56.02-1.14.13-1.69.03-.11.07-.32.08-.35l.03-.04s.04-.07.05-.1c.02-.08,0-.17-.06-.23-.03-.03-.06-.06-.1-.08l-.06-.03s-.15-.05-.23-.08c-.51-.18-1.25-.23-2.08-.69-1.37-.79-2.15-2.11-2.51-3.36-.37-1.27-.32-2.6.06-3.8.31-1.04.77-1.99,1.3-2.85.68-1.11,1.47-2.11,2.41-2.94.29-.26.47-.05.51.39.03.44-.04,1.15-.36,1.76-.59,1.07-1.07,2.14-1.36,3.16-.33,1.05-.32,1.91-.27,2.91.04.59.29,1.15.64,1.57.37.42.77.66,1.27.81.32.1.74.18,1.2.31.56.15,1.31.42,1.77.86.51.43.8,1.07.84,1.72.04.63-.25,1.44-.26,1.63-.14.81-.05,1.71.3,2.51.25.58.68,1.2,1.1,1.54.49.37,1.21.68,1.91.9,1.11.34,2.3.38,3.42.38l.72-.05c.22,0,.39,0,.52.03.14.04.25.13.34.21.19.18.31.42.48.78.09.16.17.32.25.47.13.26.12.53-.07.81-.1.15-.24.29-.4.41-.17.12-.38.26-.59.32-1.32.27-2.54.17-3.77-.05-1.23-.25-2.4-.61-3.71-1.27-.23-.11-.51-.29-.76-.46-.29-.22-.6-.48-.77-.68-.41-.43-.76-.91-1.05-1.42-.58-1.01-.9-2.14-.98-3.29h.07Z"/><path class="cls-1" d="M146.62,413.73c1.77-1.53,3.63-2.65,5.39-3.86.65-.44,1.26-.93,1.91-1.36,2.31-1.52,4.61-3.04,6.92-4.56,1.03-.67,2.02-1.4,2.99-2.13l1.87-1.41.48-.34.52-.28c.35-.18.71-.35,1.07-.52.46-.2.56.06.44.59-.06.27-.17.61-.34.98-.08.19-.18.38-.29.57l-.18.29c-.08.08-.16.15-.25.22-2.5,1.98-5.02,3.94-7.81,5.57-1.66.99-3.21,2.26-4.81,3.39-1.76,1.25-3.6,2.44-5.24,3.72-1.01.8-1.94,1.65-2.68,2.64-.28.37-.55.78-.74,1.16-.18.34-.31.78-.4,1.23-.18.91-.23,1.88-.19,2.84.08,1.49.43,2.95.94,4.28.1.3.25.56.37.84.22.51.38.8.4,1.06-.01.31-.06.49-.17.79-.05.13-.08.27-.13.39-.08.19-.26.26-.59.18-.34-.07-.79-.3-1.11-.76-.95-1.33-1.46-2.81-1.79-4.32-.31-1.52-.46-3.08-.32-4.73.07-.61.16-1.23.37-1.9.08-.32.24-.68.41-1.04.17-.32.32-.57.5-.84.69-1.05,1.53-1.95,2.4-2.74l.04.04Z"/><path class="cls-1" d="M140.54,419.84c.09-.66.25-1.29.52-1.93.09-.23.13-.47.26-.68.57-.69,1.26-1.18,1.94-1.57.3-.18.59-.35.89-.5.38-.19.82-.35,1.27-.23.14.03.13.29.08.58-.06.28-.14.63-.26.73-.46.37-.76.77-1.2,1.15-.3.22-.26.66-.41.96-.18.33-.32.7-.4,1.13-.05.26-.08.53-.07.81.01.42.03.86.21,1.26.11.32.43.55.61.83.04.06.1.11.13.18.11.25-.01.41-.54.75l-.36.23c-.41.24-.82.32-1.1.18-.84-.39-1.32-1.11-1.48-1.95-.15-.62-.17-1.28-.14-1.94h.07Z"/><path class="cls-1" d="M122.5,390.68c-.66-.97-1.23-1.91-1.84-2.85-.22-.34-.48-.66-.69-1.01-.75-1.23-1.42-2.51-2.14-3.74-.31-.56-.67-1.08-.98-1.63-.39-.71-.74-1.44-1.06-2.19-.1-.24-.06-.22.11-.07.17.15.52.38.87.71,1.28,1.12,2.15,2.48,3.05,3.86.52.84,1.21,1.59,1.81,2.4l2,2.64c.41.53.83,1.05,1.28,1.51.68.69,1.42,1.35,2.29,1.66.67.25,1.41.17,2,.04.13-.02.25-.08.38-.11.45-.11.6.01.97.66l.26.44c.28.49.17,1.07-.43,1.37-.87.44-1.91.54-2.83.3-.93-.21-1.79-.67-2.51-1.22-1.09-.79-1.89-1.78-2.59-2.72l.04-.04Z"/><path class="cls-1" d="M117.44,386.77c-.54-1.03-1.11-2.05-1.71-3.06-.21-.38-.48-.7-.7-1.07-.74-1.32-1.56-2.59-2.4-3.86-.37-.57-.8-1.09-1.23-1.6-.27-.33-.57-.64-.83-.99-.25-.35-.49-.72-.72-1.1-.14-.24-.03-.29.25-.25.28.05.79.14,1.25.4.76.51,1.41,1.13,2.07,1.74.65.62,1.26,1.29,1.72,2.08.58.91,1.37,1.72,2.03,2.61.73.97,1.35,2.02,1.98,3.05l1.13,1.93c.59.96,1.04,2.01,1.59,2.98.4.77.99,1.42,1.34,2.21.08.17.18.33.24.51.27.66.15.97-.1,1.26-.06.07-.11.14-.18.2-.2.17-.56.03-1-.32-1.24-1.06-2.12-2.36-3.01-3.66-.7-.94-1.17-2.02-1.78-3.02l.05-.04Z"/><path class="cls-1" d="M159.01,370.8c.07-.84,0-1.76-.16-2.69-.06-.34-.17-.67-.23-1.01-.21-1.2-.46-2.42-.82-3.59-.14-.53-.32-1.05-.5-1.57-.22-.67-.53-1.29-.8-1.94-.18-.4.26,0,.71.68.35.63.87,1.18,1.25,1.81.43.61.69,1.29.92,1.99.26.84.68,1.66.96,2.51.3.94.57,1.91.73,2.93.1.63.13,1.28.1,1.93-.04.99-.32,2.01-.76,2.93-.17.36-.34.72-.55,1.09-.2.37-.46.72-.81,1-.14.13-.29.26-.47.37-.67.37-1.01.2-1.29-.38-.07-.13-.13-.26-.18-.4-.15-.46-.05-.92.12-1.19.28-.39.39-.81.65-1.12.23-.34.47-.71.64-1.13.26-.58.43-1.38.43-2.21h.05Z"/><path class="cls-1" d="M103.99,270.88c-1.01,3.01-19.46,15.99-37.02,5.15-15.68-9.68-7.33-32-.81-36.38,4.13-2.77-1-2.59-.99-9.91.01-7.32,1.78-18.16,5.01-22.18,5.32-6.63,17.74-6.63,17.74-6.63l8.66,1.83s2.06-14.77,7.41-18.79c5.35-4.02,18.31-10.42,24.96-8.02,6.65,2.4,17.81,10.24,17.81,10.24,0,0,10.43-6.74,19.78-3.29,9.35,3.45,16.58,16.71,7.85,26.39-8.17,9.06-7.91,7.55-7.91,7.55,0,0-10.25,10.16-14.84,11.34-4.59,1.18-13.34.03-13.34.03,0,0-.28,17.09-5.64,21.36-5.36,4.26-12.44,7.48-12.44,7.48,0,0-8.18-1.78-11.51.33-3.33,2.11-4.72,13.51-4.72,13.51Z"/><path class="cls-1" d="M346.62,355.8c-.21-.94-.43-1.89-.71-2.81-.1-.34-.26-.66-.35-1-.34-1.2-.71-2.41-1.19-3.58-.2-.52-.49-1-.73-1.5-.32-.64-.76-1.2-.86-1.98-.04-.24.16-.32.5-.31.17,0,.39.03.61.09.24.05.45.15.58.32.46.6.97,1.18,1.3,1.86.34.68.63,1.38.84,2.11.26.87.74,1.69,1.08,2.55.36.95.65,1.93.93,2.9.17.6.32,1.21.48,1.81.24.91.42,1.85.68,2.74.2.7.52,1.36.77,2.05.06.15.14.3.18.45.14.58.04.79-.64,1.03-.14.05-.28.11-.41.15-.41.12-1.02-.02-1.2-.41-.64-1.14-.93-2.39-1.24-3.65-.22-.94-.42-1.89-.67-2.82l.05-.02Z"/><path class="cls-1" d="M288.81,344.16l.45-1.73c.16-.58.23-1.18.34-1.76.1-.59.23-1.18.3-1.78l.18-1.8c.12-.88.01-1.76.05-2.64.14-3.11.05-6.28-.5-9.39l-.16-1.04-.26-1.02c-.18-.68-.36-1.36-.57-2.02l-.47-1.25c-.14-.43-.25-.86-.37-1.3l-.39-1.29c-.14-.43-.14-.92-.22-1.39-.06-.6.07-.58.58-.29.34.2.71.41,1.07.62.41.28.8.66,1.12,1.12,1.15,1.63,1.71,3.52,2.28,5.38.54,1.87.86,3.82.9,5.78.08,1.17.14,2.35.24,3.54.14,1.19.13,2.39.12,3.58,0,1.31-.2,2.62-.3,3.92-.22,1.29-.38,2.59-.68,3.87l-.57,2.35c-.22.77-.49,1.53-.72,2.3l-.28.87-.35.85-.7,1.69c-.48,1.12-1.08,2.18-1.58,3.28-.47.81-.9,1.65-1.34,2.48-.46.81-1.01,1.58-1.53,2.37-.23.35-.45.7-.75,1-1.2,1.03-1.77,1.15-2.43.91-.15-.05-.32-.09-.44-.16-.39-.21-.31-1,.13-2.01,1.41-2.84,3.09-5.41,4.38-8.33.28-.51.46-1.08.69-1.63.21-.55.46-1.09.66-1.65l.54-1.71c.19-.57.36-1.14.48-1.73l.08.02Z"/><path class="cls-1" d="M211.64,357.32c-.57-.8-1.12-1.61-1.62-2.45-.53-.82-.99-1.67-1.47-2.51-.36-.61-.74-1.19-1.07-1.82-1.07-2.24-2.03-4.51-2.72-6.87-.34-1.03-.72-2.05-1.11-3.04-.26-.64-.45-1.3-.63-1.97-.08-.34-.14-.68-.2-1.02-.07-.34,0-.72-.01-1.08.03-.46.21-.45.67-.23.31.16.63.32.92.47.34.21.62.48.83.82l.56.88.28.44.21.46.83,1.85c.53,1.24,1.07,2.47,1.48,3.78.22.8.57,1.55.97,2.28.38.75.82,1.45,1.22,2.18.86,1.61,1.81,3.17,2.83,4.68.65.91,1.3,1.83,2.04,2.67,1.09,1.3,2.28,2.54,3.6,3.59.53.38,1.09.72,1.65,1.03.57.31,1.17.55,1.74.84.25.13.52.22.77.33.24.11.42.22.57.33.14.13.21.29.27.44.06.15.08.31.08.49-.01.19-.05.41-.09.62-.04.19-.05.38-.09.52-.09.42-.89.98-1.79.84-2.52-.68-4.84-2.21-6.81-4.05-.74-.68-1.42-1.41-2.1-2.15-.63-.77-1.31-1.51-1.89-2.32l.07-.06Z"/><path class="cls-1" d="M187.87,252.24c.51,1.02,1.05,2.06,1.47,3.18.15.41.36.79.48,1.22.21.74.42,1.58.38,2.54-.03.96-.49,1.94-1.18,2.55-.6.53-1.26.88-1.9,1.14-.83.3-1.66.64-2.54.43-.27-.06-.27-.4-.12-.82.08-.21.19-.45.33-.68.14-.21.31-.36.51-.43.7-.22,1.35-.5,1.81-.81.45-.32.67-.57.84-1.01.21-.56-.27-1.41-.69-2.26-.46-.93-.92-1.9-1.45-2.86-.33-.59-.66-1.19-1.02-1.78-.54-.9-1.05-1.83-1.62-2.74-.45-.7-.98-1.36-1.43-2.1-.09-.17-.21-.32-.28-.5-.32-.65.16-1.05.64-1.33.12-.07.23-.14.34-.19.18-.08.37-.08.62-.04.24.05.58.12.78.28.99,1,1.71,2.07,2.43,3.32.55.95,1.11,1.91,1.66,2.87l-.06.04Z"/><path class="cls-1" d="M107.52,178.44c1.72-1,3.42-1.89,5.3-2.6,1.87-.7,3.81-1.18,5.75-1.45,1.42-.2,2.84-.42,4.27-.37,5.03.1,9.9,1.39,14.32,3.55,1.94,1.01,3.85,2.1,5.57,3.48,1.1.88,2.19,1.83,3.05,3.02.41.6.78,1.25,1.06,1.93.16.33.23.71.22,1.11.01.39.07.74.07,1.11.02.91-.19.78-.78.24-.29-.27-.75-.63-1.44-.88-.59-.3-1.02-.72-1.5-1.17-1.55-1.7-3.45-3.25-5.64-4.45-2.18-1.2-4.47-2.3-6.92-3.16-2.94-1.05-6.24-1.2-9.37-1.03-3.48.15-6.86.95-10.02,2.56-1.94.98-3.78,2.15-5.43,3.57-2.47,2.16-4.6,4.8-6.01,7.8-1.12,2.32-1.74,4.79-2.24,7.29-.1.55-.19,1.1-.29,1.65-.09.52-.19.94-.29,1.29-.12.35-.26.62-.4.85-.14.22-.28.4-.45.53-.19.13-.4.23-.59.32-.18.08-.34.2-.46.24-.32.16-1.04-.84-1.07-2.5.29-4.84,1.77-10.03,4.71-14.57,2.14-3.39,5.18-6.23,8.52-8.41l.05.07Z"/><path class="cls-1" d="M64.38,213.55c1.25-3.16,3.09-6.05,5.41-8.49l.62-.68.68-.65.68-.65.75-.56c3.57-2.57,7.81-3.89,12.04-4.15,1.88-.14,3.78-.05,5.64.27.6.08,1.2.2,1.78.39.59.15,1.16.39,1.72.64,1.14.46,2.13,1.27,2.92,2.19.51.57.15.81-.66.94-.41.07-.92.11-1.48.15-.29.03-.6.08-.88.07-.28-.01-.54-.1-.82-.15-3.86-.96-7.92-1.16-12.14-.36-2.51.51-4.89,1.91-6.82,3.6-2.14,1.86-3.99,4.24-5.29,6.88-.77,1.64-1.45,3.35-1.78,5.15-.57,2.69-.65,5.55.04,8.19.56,2.05,1.63,3.86,2.92,5.42.29.34.64.62.93.96,1.06,1.26,1.37,1.7.94,2.77-.07.21-.1.43-.17.59-.15.47-1.35.7-2.57-.2-1.73-1.35-3.29-3.16-4.27-5.3-1-2.12-1.67-4.46-1.8-6.81-.28-3.5.33-7,1.52-10.22l.09.03Z"/><path class="cls-1" d="M72.67,285.91c-2.64-.99-5.05-2.35-7.26-4.01-2.2-1.68-4.15-3.7-5.71-5.98-1.13-1.67-2.17-3.41-2.89-5.29-2.5-6.67-2.13-14.05.27-20.48,1.08-2.86,2.49-5.6,4.23-8.09,2.33-3.08,5.15-6.05,8.88-7.36,1.16-.38,1.07-.17.52.78-.55.99-1.43,2.74-2.79,4.2-1.24,1.28-2.38,2.64-3.38,4.09-1.01,1.44-2.01,2.89-2.83,4.46-.81,1.57-1.5,3.21-2.06,4.9-.55,1.7-.94,3.45-1.19,5.24-.6,4.3.35,8.9,2.29,12.83,2.12,4.36,5.71,7.97,10.1,10.24,2.66,1.45,5.64,2.25,8.68,2.57,4.6.46,9.42-.14,13.67-1.93,3.3-1.39,6.18-3.58,8.12-6.3.22-.29.41-.6.59-.92.19-.31.35-.62.52-.94.61-1.19.93-1.99,1.25-2.54.33-.55.7-.85,1.23-1.08.24-.11.48-.27.71-.33.38-.1.66.16.87.81.12.33.16.73.13,1.21,0,.49-.11,1.04-.29,1.65-1.04,3.64-3.68,6.73-6.74,8.89-3.09,2.19-6.66,3.6-10.33,4.39-5.45,1.14-11.22.92-16.58-.94l.02-.08Z"/><path class="cls-1" d="M64,356.02c3.25-5.5,6.72-10.88,10.5-16.06,3.77-5.18,7.91-10.15,12.54-14.69,3.42-3.26,7-6.45,11.18-8.9,1.81-1.11,3.76-2.03,5.74-2.86,2.01-.78,4.1-1.4,6.25-1.78,4.3-.72,8.81-.5,12.96,1.01,4.16,1.43,7.72,3.95,10.87,6.73,3.16,2.8,5.84,6.01,8.31,9.33,4.37,5.91,7.97,12.33,11.17,18.79,2.04,4.16,3.97,8.39,5.69,12.7.86,2.15,1.69,4.32,2.41,6.52.35,1.1.69,2.21,1.02,3.32.18.55.27,1.13.41,1.69l.19.85.1.42c0,.08.09.12.02.22l.03.22c.15,1.46.19,2.1.1,2.09-.1-.01-.38-.66-1.1-1.7-.71-1.04-1.77-2.49-2.78-4.33-.52-.91-1.08-1.9-1.62-2.97-.51-1.08-1.04-2.23-1.54-3.44-3.6-8.57-7.63-16.95-12.47-24.76-2.43-3.9-4.96-7.72-7.91-11.17-2.91-3.47-6.2-6.6-9.95-8.91-2.24-1.37-4.7-2.39-7.27-2.85-2.61-.48-5.31-.45-7.97.03-5.33.97-10.36,3.7-14.83,7.06-4.93,3.71-9.35,8.2-13.37,13.01-4.03,4.82-7.71,9.97-11.13,15.29-4.2,6.56-8.06,13.35-11.62,20.3-5.39,10.53-10.28,21.39-14.5,32.36-3.28,8.53-6.03,17.07-8.52,25.72-.55,1.91-1.03,3.79-1.55,5.71-1.92,7.15-2.44,9.35-3.68,10.75-.27.32-.52.77-.75.97-.37.34-.67-.29-.76-1.72-.1-1.43.15-3.61.7-6.32,1.68-8.03,4.06-16.06,6.75-24.11,2.71-8.04,5.79-16.09,9.16-24.03,5-11.8,10.67-23.4,17.15-34.55l.09.03Z"/><path class="cls-1" d="M118.82,388.43c-.57-1.31-1.15-2.62-1.77-3.9-.23-.47-.53-.89-.75-1.36l-1.19-2.49c-.37-.85-.76-1.68-1.18-2.51-.37-.73-.8-1.42-1.23-2.11-.27-.44-.59-.85-.84-1.32-.23-.47-.44-.96-.63-1.46-.11-.32.08-.39.46-.32.37.08,1.01.26,1.5.65,1.49,1.57,2.75,3.31,3.77,5.22.59,1.15,1.38,2.24,2.07,3.37.73,1.25,1.42,2.53,2.1,3.81l1.25,2.37c.64,1.19,1.22,2.42,1.93,3.56.54.89,1.27,1.66,1.88,2.51.14.18.3.35.42.55.22.37.32.63.24.89-.12.28-.34.52-.71.81-.16.13-.32.27-.48.38-.28.19-.58.27-.91.26-.33,0-.72-.07-.93-.31-.7-.66-1.32-1.39-1.83-2.18-.51-.8-.95-1.65-1.38-2.51-.64-1.27-1.22-2.59-1.85-3.88l.07-.04Z"/><path class="cls-1" d="M207.41,430.21c-2.47,2.83-5.08,5.56-7.86,8.13-2.77,2.58-5.74,4.99-8.97,7.08-2.36,1.52-4.82,2.95-7.52,3.94-2.37.88-4.9,1.43-7.47,1.57-2.65.12-5.25-.43-7.61-1.31-4.75-1.81-8.71-4.85-12.26-8.12-3.14-2.94-6.06-6.11-8.71-9.41-1.68-2.15-3.28-4.36-4.74-6.67-.7-1.17-1.33-2.39-1.84-3.67-.5-1.28-.95-2.58-1.35-3.89-.44-1.65-.44-1.38.33-.18.4.59,1.06,1.39,1.96,2.26.44.44.97.89,1.46,1.39.48.52.97,1.06,1.46,1.65,1.59,2.16,3.17,4.32,4.89,6.38,1.68,2.08,3.38,4.14,5.22,6.08,3.65,3.86,7.63,7.49,12.2,9.96,2.71,1.5,5.79,2.37,8.8,2.19,3.12-.2,6.2-1.25,9.08-2.68,3.17-1.58,6.15-3.66,8.93-5.99,2.79-2.33,5.41-4.9,7.91-7.59,3.08-3.31,5.99-6.81,8.76-10.41,4.2-5.47,8.2-11.15,11.95-16.91,2.92-4.48,5.52-9.04,8.44-13.53.65-.99,1.26-1.97,1.97-2.95,2.63-3.58,4.27-4.55,5.75-4.18.32.07.71.19.9.37.16.15.19.36.16.58-.03.21-.13.46-.3.75-.34.6-.97,1.5-1.85,2.72-2.61,3.67-5.09,7.85-7.73,11.98-2.63,4.15-5.36,8.36-8.21,12.51-4.23,6.17-8.74,12.24-13.67,18.01l-.08-.05Z"/><path class="cls-1" d="M206.87,384.17c4.48-6.12,8.66-12.52,13.03-18.84,1.61-2.3,3.16-4.66,4.93-6.89,1.6-1.99,3.19-3.82,4.93-5.68,1.73-1.83,3.58-3.6,5.65-5.14,2.06-1.53,4.14-2.85,6.29-4.13,2.15-1.27,4.34-2.47,6.64-3.52,1.53-.69,3.08-1.34,4.8-1.77.87-.2,1.76-.37,2.86-.25,1.22.13,2.37.9,2.76,2.08.28.8.31,1.74.11,2.45-.19.74-.53,1.34-.89,1.88-.93,1.33-2.03,2.29-3.11,3.23-1.08.93-2.17,1.79-3.24,2.67l-1.57,1.31c-.53.42-1.04.86-1.54,1.3-.99.9-1.89,1.85-2.84,2.79-1.32,1.12-1.11,1.1-.91-.53.16-1.64,1.47-4.54,3.96-6.76,1.63-1.45,3.32-2.77,4.75-4.1.71-.66,1.35-1.35,1.73-1.95.18-.29.29-.55.32-.72.02-.06,0-.19.02-.12h0s.05-.05-.08-.07c-.44-.02-1.17.11-1.89.3-1.47.4-3.05,1.07-4.58,1.8-3.09,1.48-6.13,3.26-9.1,5.12-1.43.9-2.78,1.82-4.03,2.9-1.27,1.07-2.47,2.27-3.62,3.53-1.16,1.26-2.27,2.59-3.39,3.93-1.08,1.33-2.13,2.69-3.15,4.09-4.49,6.14-8.72,12.61-13.08,18.97-2.69,3.92-5.44,7.81-8.36,11.59-2.21,2.86-4.53,5.66-7.04,8.31-2.51,2.64-5.19,5.16-8.28,7.21-.59.42-1.21.78-1.84,1.14-.61.39-1.29.67-1.95.99-.66.32-1.38.52-2.07.79-.73.16-1.45.39-2.21.46l-1.15.11c-.19.04-.49-.03-.73-.05-.25-.04-.54-.06-.73-.15-.42-.15-.84-.3-1.16-.48-.35-.17-.7-.35-1.01-.55-1.27-.78-2.43-1.61-3.5-2.55-.95-.82-1.84-1.64-2.72-2.55-3.16-3.42-3.56-5.19-3.4-6.41.05-.29.11-.63.21-.77.09-.13.21-.11.37,0,.17.11.31.26.63.53.6.54,1.51,1.35,2.67,2.38,1.76,1.56,3.6,3.13,5.54,4.49.93.71,1.91,1.38,2.8,1.86.42.22.91.42.91.36.04,0-.04.03.09,0l.34-.04.74-.07c2-.36,4.04-1.29,6-2.56,1.96-1.27,3.83-2.83,5.63-4.53,5.29-5.13,9.98-11.2,14.42-17.42l.08.04Z"/><path class="cls-1" d="M274.56,350.83c.52-.81.47-.7.46-.93-.02-.07-.07-.13-.14-.16-.03-.01-.07-.03-.11-.03h-.06s-.13,0-.21,0c-.66.06-1.46.26-2.24.49-.96.29-1.9.72-2.89,1.07-1.74.61-3.52,1.24-5.32,1.81-1.81.56-3.66,1.02-5.53,1.39-1.66.33-3.34.64-5.04.79-1.08.12-2.19.14-3.3.03-1.1-.1-2.2-.41-3.17-.96-.59-.42-.46-.46.17-.72.32-.15.74-.25,1.23-.46.49-.2,1.02-.34,1.58-.34,1.97-.08,3.95-.27,5.94-.67,1.99-.41,3.99-.93,6.03-1.5,2.47-.6,4.89-1.76,7.42-2.67,1.16-.41,2.33-.81,3.62-1.1.69-.12,1.26-.27,2.32-.2.95.08,1.83.55,2.31,1.35.4.67.56,1.46.46,2.23-.02.17-.04.34-.08.51l-.16.48c-.1.28-.24.52-.37.77-.28.46-.59.88-.92,1.26-.66.75-1.38,1.39-2.12,1.97-2.25,1.75-4.71,3.05-7.15,4.32-1.9.98-3.73,2-5.7,2.86-.44.18-.85.39-1.31.55-.84.29-1.43.41-1.87.33-.45-.09-.75-.36-1.02-.73-.12-.17-.26-.32-.34-.47-.13-.26-.05-.54.18-.9.23-.36.61-.72,1.16-.95,3.21-1.5,6.65-3.04,9.91-4.84,1.2-.68,2.38-1.39,3.47-2.16,1.07-.77,2.09-1.63,2.72-2.48l.07.04Z"/><path class="cls-1" d="M280.37,359.6c.89-.67,1.74-1.41,2.3-2.13.12-.15.11-.11.16-.18.03-.04.07-.1.09-.15.05-.12.06-.26,0-.39-.04-.08-.13-.11-.22-.12-.13-.01-.22.01-.4.06l-1.29.37c-3.39,1.01-6.93,2.22-10.48,3.25-1.58.47-3.16.97-4.76,1.34-2.03.52-4.2.97-6.35.44-.66-.15-.56-.21-.03-.51.27-.14.64-.38,1.06-.69.43-.27.92-.53,1.47-.74.48-.19.96-.35,1.45-.47.49-.15.97-.29,1.46-.46.97-.3,1.93-.69,2.91-.99,1.99-.62,3.98-1.25,5.99-1.88,2.45-.73,4.82-1.88,7.5-2.64.6-.15,1.58-.4,2.34-.36.2,0,.4,0,.58.05.19.02.37.07.54.14.35.11.63.38.92.62.39.55.7,1.16.76,1.84.04.33,0,.68-.04,1.02-.11.34-.14.68-.32,1-.17.32-.29.66-.5.95-.21.29-.32.48-.51.68-.33.41-.68.77-1.03,1.12-1.38,1.32-2.88,2.37-4.4,3.36-2.31,1.49-4.75,2.71-7.17,3.93-1.88.93-3.68,1.96-5.67,2.77-.43.18-.87.37-1.33.52-.87.26-1.49.34-1.95.23-.23-.06-.42-.15-.57-.29-.17-.18-.29-.4-.4-.62-.1-.21-.21-.39-.26-.56-.08-.29.06-.57.29-.95.22-.42.6-.57,1.11-.81,1.53-.63,3.15-1.38,4.8-2.15,1.65-.77,3.32-1.57,4.96-2.43,2.43-1.28,4.87-2.64,6.94-4.27l.06.06Z"/><path class="cls-1" d="M278.52,372.91c-1.62,1.21-3.32,2.33-5.17,3.2-.91.45-1.82.88-2.76,1.22-.47.18-.93.37-1.4.54l-1.42.45c-.69.23-1.37.45-2.06.64-.69.2-1.38.42-2.08.55-4.93,1.06-9.82,1.47-14.6,2.24-2.11.37-4.22.83-6.22,1.5-2.58.86-5.03,1.88-7.63,2.75-.82.25-.96-.19-.58-1.03.19-.42.51-.95.95-1.52.43-.61,1.06-1.09,1.81-1.46,2.65-1.36,5.53-2.15,8.36-2.77,2.85-.6,5.7-.98,8.53-1.27,3.4-.33,6.82-1.09,10.09-1.95,3.59-.95,7.07-2.27,10.13-4.28,1.88-1.26,3.7-2.69,5.13-4.36.55-.61,1.06-1.4,1.24-1.7.22-.43.4-.91.41-1.43-.05-.23.02-.57-.24-.68-.24-.09-.49,0-.73.08-.47.18-.92.43-1.35.69-2.32,1.31-4.51,3.02-6.96,4.38-.54.31-1.07.62-1.67.85-1.1.44-1.9.62-2.5.61-.6-.04-.96-.2-1.25-.48-.13-.12-.29-.24-.37-.36-.12-.2.04-.42.37-.68.34-.27.83-.62,1.5-.97,1.95-1.16,3.98-2.44,6.06-3.85,1.05-.69,2.11-1.41,3.21-2.16,1.01-.67,2.24-1.44,3.34-1.75,1.14-.39,1.96-.24,2.73.15.29.14.62.41.83.67.22.27.32.61.49.92l.11.23c.02.09.03.18.05.27l.08.56c.07.37.03.78,0,1.19-.03.41-.04.81-.22,1.24-.15.43-.24.86-.43,1.28l-.66,1.24c-.05.1-.11.22-.16.29l-.12.18-.25.35c-1.34,1.85-2.91,3.21-4.52,4.5l-.06-.06Z"/><path class="cls-1" d="M323.38,222.11c.69,1.27,1.5,2.52,2.35,3.48.21.24.43.45.59.59.11.1.12.09.19.16.13.07.25.15.39.22.53.28,1.16.51,1.87.72.46.13.96.24,1.48.35l.8.18.41.1.62.17c.18.06.36.13.53.22.81.36,1.41,1.06,1.74,1.87.35.77.43,1.82.41,2.35-.02,1.25-.25,2.35-.53,3.43-.61,2.14-1.36,4.13-2.71,6.04-1.3,1.64-2.82,2.85-4.56,3.78-1.11.58-2.31,1.04-3.57,1.25-1.27.16-2.59.01-3.75-.46-.7-.45-.51-.55.17-.91.69-.34,1.72-.88,2.77-1.27,1.93-.41,3.74-1.42,5.18-2.79.36-.34.7-.71,1-1.08.23-.29.49-.71.72-1.15.47-.9.9-1.91,1.27-2.94.39-1.08.61-2.27.61-3.34,0-.27-.02-.52-.05-.75-.01-.12-.04-.21-.07-.31-.07-.2-.22-.37-.44-.4-.01-.01-.45-.11-.73-.17-1.49-.33-3.24-.62-4.98-1.46-.21-.1-.42-.21-.69-.39-.27-.17-.43-.33-.65-.49-.38-.33-.7-.67-1-1-.59-.68-1.1-1.38-1.57-2.08-1.16-1.75-2.09-3.59-2.87-5.49-1.19-2.88-1.94-5.94-2.22-9.06-.19-2.41-.28-4.93.53-7.36.2-.52.33-1.06.61-1.56.54-.9,1.07-1.39,1.49-1.67.49-.24.86-.28,1.25-.24.18.02.36.01.5.06.23.07.3.32.31.74,0,.41-.03.99-.19,1.6-.17.95-.4,1.8-.52,2.69-.12.88-.21,1.77-.26,2.66-.08,1.8.11,3.67.52,5.55.63,2.78,1.68,5.6,3.16,8.13l-.08.05Z"/><path class="cls-1" d="M232.79,187.44c-5.3,7.13-9.28,15.31-12.4,23.77-1.14,3.09-2.06,6.26-2.98,9.43-1.62,5.58-2.95,11.27-3.89,17-.47,2.87-.84,5.75-1.04,8.63-.09,1.43-.15,2.87-.09,4.26.12,1.57.05,2.23.9,2.33,1.13.29,2.46.51,3.72.73l3.87.63c2.59.42,5.18.86,7.74,1.37,3.29.68,6.62,1.36,9.82,2.53.8.28,1.6.58,2.39.92.39.17.79.32,1.18.51l.58.27c.18.13.37.22.55.34,1.48.88,2.89,1.9,4.2,3,1.61,1.42,1.22,1.36-.42.69-.84-.31-2.05-.68-3.55-.93-.74-.14-1.57-.22-2.4-.39-.81-.22-1.66-.46-2.54-.73-1.56-.49-3.16-.86-4.76-1.29-1.6-.42-3.21-.81-4.84-1.16-3.26-.71-6.56-1.3-9.9-1.89-1.67-.3-3.35-.58-5.09-.94-.44-.09-.88-.19-1.36-.32-.35-.09-.76-.24-1.13-.36-.35-.18-.7-.36-1-.6-.56-.54-.9-1.27-1.08-2.05-.08-.38-.16-.8-.18-.99-.03-.26-.05-.5-.07-.74-.12-1.9-.02-3.66.11-5.42.15-1.76.36-3.49.62-5.21,1.25-8.23,2.93-16.69,5.47-24.8,2.81-8.88,6.46-17.56,11.42-25.52,3.05-4.89,6.64-9.49,10.91-13.43,6.51-5.89,14.62-10.21,23.33-11.49,6.72-1.03,13.76-.22,19.92,2.9,1.31.75,2.65,1.36,3.93,2.36,2.31,1.82,3.46,3.38,4.1,4.55.55,1.24.68,2.05.61,2.77-.03.33-.03.73-.11.94-.15.37-.58.11-1.3-.54-.36-.33-.81-.74-1.35-1.23-.56-.47-1.07-1.1-1.73-1.73-.96-.96-2.01-1.82-3.12-2.53-.55-.35-1.21-.68-1.81-1.02-.6-.36-1.24-.65-1.88-.93-2.55-1.15-5.25-2.01-8.06-2.36-5.61-.78-11.51.11-16.93,2.33-4.04,1.61-7.83,3.96-11.25,6.7-3.4,2.78-6.4,6.1-9.05,9.7l-.07-.04Z"/><path class="cls-1" d="M353.65,194.14c3.99,10.02,6.28,20.5,7.62,31.02.24,1.94.47,3.8.67,5.78.18,1.97.26,3.93.26,5.88-.02,6.17-.54,12.26-1.27,18.32-.38,3.03-.79,6.05-1.33,9.06-.27,1.5-.56,3.01-.9,4.51-.17.75-.35,1.51-.56,2.27-.08.31-.29.95-.49,1.48-.25.5-.56.95-1.02,1.19-.46.07-1.01.08-1.49.03l-1.25-.15-2.06-.28c-5.93-.83-11.89-1.53-17.78-1.97-3.79-.29-7.58-.46-11.37-.49-3.78,0-7.56.07-11.22.57-2.24.39-2.17-.18-.32-1.27.94-.52,2.34-1.09,4.08-1.56,1.74-.44,3.82-.71,6.06-.75,5.93-.09,11.79.28,17.62.89,2.91.3,5.82.66,8.72,1.04,2.47.34,4.94.69,7.42,1.03.06,0,.08-.08.11-.13,0-.02.01-.02.02-.06l.08-.31.17-.68c.22-.92.42-1.87.6-2.83.37-1.92.68-3.87,1-5.82.74-4.6,1.23-9.34,1.51-14.11.27-4.76.36-9.58.05-14.25-.43-5.13-1.2-10.38-2.16-15.5-.97-5.14-2.23-10.22-3.83-15.19-2-6.09-4.54-12.03-7.95-17.41-2.62-4.03-5.7-7.81-9.48-10.74-3.71-2.99-8.15-5.05-12.73-5.99-3.58-.68-7.27-.5-10.8.27-3.54.76-6.96,2.06-10.17,3.76-1.41.75-2.74,1.58-4.07,2.47-2.46,1.67-3.99,2.85-5.03,3.69-1.07.82-1.68,1.25-2.28,1.62-.28.17-.53.48-.7.68-.15.16-.28.16-.4-.16-.13-.34-.07-.86.13-1.52.43-1.26,1.52-2.89,3.26-4.53,2.57-2.44,5.58-4.37,8.78-6.03,3.22-1.62,6.68-2.9,10.35-3.62,3.66-.72,7.53-.9,11.36-.25.96.15,1.9.38,2.85.62.92.28,1.82.59,2.74.9.9.34,1.77.75,2.65,1.13.87.41,1.69.91,2.54,1.37,4.91,2.93,8.98,7,12.23,11.5,1.62,2.26,3.1,4.6,4.38,7.03,1.3,2.42,2.46,4.9,3.48,7.42l-.08.05Z"/><path class="cls-1" d="M269.36,285.42c-.38-.95-.89-1.83-1.41-2.48-.11-.2-.32-.42-.61-.34-.19.1-.16.35-.2.54-.05.52-.04,1.24,0,1.9.04.68.12,1.37.19,2.08.15,1.41.38,2.83.62,4.25.22,1.26.46,2.54.72,3.8.37,1.61.55,3.31.27,5.05-.11.55-.39.43-.76.01-.35-.42-.95-1.11-1.29-1.96-1.14-3.04-2.02-6.25-2.34-9.71-.1-1.03-.28-2.07-.4-3.16-.07-.54-.12-1.1-.14-1.68,0-.31-.02-.53.02-1l.07-.64c.04-.21.1-.41.14-.61.24-.87.76-1.62,1.57-1.96.79-.32,1.7-.33,2.5.03.41.15.77.43,1.13.69.17.15.32.31.47.47l.23.23.15.2c.41.52.74,1.06,1.03,1.6.72,1.33,1.24,2.68,1.7,4.04.7,2.05,1.17,4.19,1.73,6.18.45,1.55,1.12,2.96,1.88,4.28.16.29.36.56.53.85.62,1.07.67,1.48.1,2.17-.13.16-.24.33-.39.47-.47.46-1.24.3-1.91-.53-2.02-2.44-2.95-5.78-3.67-8.63-.57-2.1-1.16-4.22-2.01-6.11l.07-.03Z"/><path class="cls-1" d="M350.3,304.22c-4.4-4.95-9.23-9.61-14.72-13.09-1.99-1.29-4.15-2.22-6.3-2.98-.95-.36-1.91-.55-2.88-.77-.97-.11-1.92-.25-2.97-.2-2.06-.05-4.11.23-6.14.64-4.07.87-7.91,2.71-11.88,4.57-1.78.79-3.59,1.62-5.51,2.23-1.92.6-3.93,1.12-5.98,1.09-2.7.11-5.36-.75-7.59-2.08-2.26-1.33-4.13-3.22-5.52-5.35-.82-1.37-.38-1.36.74-.6.58.36,1.34.89,2.28,1.44.93.53,1.98,1.14,3.11,1.79,1.98,1.11,4.2,1.77,6.24,1.71,2.18-.12,4.39-.57,6.57-1.42,4.35-1.72,8.9-4.36,14.06-5.78,3.06-.87,6.31-1.44,9.59-1.49l1.23-.03,1.28.1c.87.03,1.68.23,2.51.4,1.65.36,3.21.94,4.7,1.6,3.28,1.48,6.22,3.46,8.96,5.61,2.74,2.16,5.29,4.53,7.72,6.99,2.98,3.03,5.76,6.25,8.41,9.55,2.01,2.5,3.92,5.08,5.76,7.71,1.84,2.62,3.61,5.29,5.3,7.98,2.64,4.18,5.24,8.29,7.43,12.74.44,1,.95,1.94,1.34,2.99.78,1.9,1.08,3.26,1.07,4.27.06.98-.17,1.61-.48,2.11-.14.23-.25.51-.37.65-.4.43-1.3-1.01-2.61-3.5-3.54-7.56-8.03-15.4-13.09-22.87-3.75-5.55-7.83-10.94-12.31-15.92l.06-.07Z"/><path class="cls-1" d="M345.53,351.58c-.3-.59-.6-1.17-.92-1.75-.29-.6-.6-1.19-.93-1.77-.23-.43-.56-.79-.8-1.22-.87-1.5-1.79-2.98-2.85-4.36-.47-.61-.98-1.2-1.49-1.77-.67-.72-1.37-1.41-1.93-2.25-.17-.26.05-.45.47-.51.41-.05,1.04-.01,1.53.32.85.6,1.68,1.23,2.45,1.92.75.71,1.41,1.52,2.01,2.38.71,1.03,1.67,1.92,2.46,2.92.85,1.11,1.69,2.24,2.39,3.47.44.75.86,1.5,1.28,2.26.64,1.14,1.18,2.34,1.83,3.47.48.89,1.14,1.68,1.69,2.55.12.19.28.36.37.57.34.77.18,1.12-.67,1.61-.19.11-.36.23-.54.32-.58.29-1.39.23-1.8-.21-1.22-1.31-1.95-2.85-2.77-4.41-.6-1.16-1.17-2.34-1.83-3.49l.07-.05Z"/><path class="cls-1" d="M368.6,387.28c.54,1.65,1.06,3.3,1.56,4.96.19.6.46,1.17.63,1.78.62,2.14.97,4.37,1.41,6.54.2.96.43,1.92.69,2.86.11.62.25,1.23.34,1.85.08.62.11,1.26.1,1.9-.02.4-.4.41-.89.18-.48-.24-1.13-.71-1.41-1.36l-.74-1.73c-.22-.58-.37-1.18-.54-1.77-.34-1.19-.64-2.39-.88-3.62-.29-1.48-.98-2.89-1.45-4.35-.55-1.6-1.09-3.21-1.68-4.8-.36-.98-.73-1.96-1.13-2.93-.6-1.47-1.2-2.95-1.9-4.36-.56-1.09-1.31-2.07-1.97-3.08-.15-.22-.32-.43-.45-.66-.27-.42-.28-.79-.23-1.07.03-.15.1-.28.2-.42.13-.15.29-.3.45-.44.15-.13.27-.26.39-.36.33-.27,1.33-.32,1.87.23,1.64,1.63,2.75,3.67,3.78,5.76.71,1.58,1.32,3.22,1.94,4.85l-.08.04Z"/><path class="cls-1" d="M389.35,376.47c.54,1.67,1.07,3.34,1.55,5.03.18.61.43,1.2.59,1.82.55,2.2,1.06,4.4,1.48,6.61.18.99.41,1.96.65,2.92.13.62.34,1.23.4,1.87.07.64.09,1.28.08,1.93-.02.41-.31.41-.74.16-.42-.25-1.06-.73-1.39-1.39-.32-.58-.53-1.18-.72-1.78l-.6-1.8c-.18-.61-.39-1.21-.52-1.83-.12-.63-.23-1.25-.35-1.89-.24-1.53-.91-2.99-1.4-4.48l-1.62-4.93c-.35-1.01-.69-2.02-1.07-3.02-.57-1.51-1.13-3.05-1.82-4.5-.54-1.13-1.25-2.16-1.89-3.22-.14-.24-.31-.45-.44-.7-.25-.45-.33-.78-.25-1.07.07-.29.27-.53.6-.8.15-.12.29-.26.44-.36.5-.33,1.2-.19,1.77.37,1.45,1.78,2.48,3.9,3.41,6.07.69,1.62,1.3,3.28,1.91,4.94l-.07.03Z"/><path class="cls-1" d="M358.23,391.37c.2,1.62.44,3.24.73,4.88.11.59.3,1.17.4,1.77.38,2.11.57,4.29.82,6.44.11.95.27,1.9.36,2.85.06.61.13,1.21.17,1.82.03.61-.03,1.23-.12,1.85-.21.4-.08.33-.33.04-.22-.3-.67-.84-.91-1.49-.34-1.18-.76-2.33-1.05-3.51-.28-1.18-.55-2.36-.76-3.57-.25-1.45-.78-2.9-1.14-4.37-.39-1.62-.77-3.26-1.1-4.92-.22-1.02-.38-2.05-.58-3.07-.25-1.56-.42-3.15-.64-4.71-.19-1.21-.51-2.39-.74-3.6-.05-.27-.12-.53-.14-.8,0-.5.05-.84.24-1.07.24-.23.53-.37.91-.48.17-.05.34-.11.49-.14.27-.05.51.03.79.2.27.17.63.44.73.78.24.51.34,1.02.47,1.54.13.52.23,1.04.31,1.56.2,1.05.31,2.11.48,3.17.23,1.6.45,3.2.68,4.81l-.08.02Z"/><path class="cls-1" d="M260.54,398.89c.1,1.78.21,3.58.28,5.4.04.66.14,1.33.14,2-.05,2.37-.24,4.75-.64,7.09-.22,1.03-.31,2.08-.51,3.1-.13.66-.25,1.32-.44,1.96-.27.62-.65,1.21-.95,1.81-.22.36-.53.2-.84-.25-.16-.23-.32-.52-.46-.86-.15-.34-.33-.73-.37-1.1.05-.64.05-1.28.12-1.9.11-.61.17-1.24.25-1.86.09-.62.18-1.24.24-1.87.1-.63.21-1.26.31-1.89.27-1.53.03-3.14-.06-4.73-.07-1.75-.19-3.53-.32-5.32l-.26-3.32c-.11-1.69-.23-3.39-.34-5.07-.04-.66-.15-1.3-.25-1.96l-.25-1.97c-.04-.29-.08-.58-.08-.87-.01-1.09.31-1.42,1.22-1.58.21-.04.41-.09.6-.1.65-.04,1.26.43,1.46,1.18.47,2.22.61,4.47.8,6.81.13,1.73.26,3.49.43,5.27h-.08Z"/><path class="cls-1" d="M423.16,157.55c-5.64-.82-11.23-2.82-15.89-6.32-2.32-1.74-4.39-3.84-6.07-6.21-1.67-2.4-2.93-5.05-3.8-7.79-1.24-4.01-1.83-8.21-1.47-12.37.29-3.66,1.16-7.28,2.64-10.66.34-.86.78-1.67,1.23-2.48.41-.83.96-1.58,1.47-2.36.49-.79,1.14-1.47,1.71-2.2.6-.7,1.24-1.35,1.89-1.99,5.27-5.08,12.07-8.37,19.17-9.62,6.29-1.14,12.92-.79,18.96,1.27,1.95.62,3.83,1.48,5.65,2.44,1.81.99,3.48,2.2,5.07,3.51.75.7,1.55,1.35,2.23,2.12l.99,1.18.91,1.24c.63.81,1.11,1.72,1.64,2.57.45.91.97,1.78,1.35,2.71.98,2.31.66,2.05-.74.48-.34-.4-.8-.85-1.33-1.35-.26-.25-.54-.52-.83-.79-.31-.26-.64-.53-.98-.81-.65-.58-1.42-1.14-2.19-1.75-.39-.3-.8-.6-1.24-.88-.37-.35-.76-.68-1.18-1.01-2.86-2.41-6.14-4.22-9.6-5.56-1.74-.65-3.54-1.13-5.37-1.49-1.84-.33-3.7-.52-5.57-.58-7.48-.28-15.16,1.83-21.42,6.23-1.86,1.32-3.61,2.88-5.09,4.64-1.51,1.72-2.68,3.75-3.61,5.89-.5,1.06-.83,2.19-1.2,3.31-.28,1.15-.6,2.28-.75,3.46-.38,2.33-.53,4.71-.36,7.05.16,2.58.63,5.14,1.44,7.59.84,2.44,2.06,4.71,3.61,6.76,3.11,4.12,7.62,7.06,12.55,8.78,6.1,2.1,12.84,2.44,19.23,1.29,4.84-.88,9.6-2.64,13.53-5.51,3.85-2.96,6.95-6.96,8.61-11.54,1.39-3.52,1.96-7.3,1.87-11.01-.09-3.71-.84-7.38-2.2-10.79-.33-.74-.65-1.47-.98-2.2-.4-.69-.8-1.38-1.21-2.08-.33-.68-.79-1.19-1.14-1.71-.36-.52-.68-.99-.98-1.41-.67-.79-1.18-1.46-1.58-2.04-.37-.61-.76-1.01-.99-1.44-.24-.43-.39-.83-.5-1.23-.1-.37-.28-.8-.3-1.08-.03-.47.53-.41,1.65.13.56.27,1.27.65,2.02,1.22.72.61,1.55,1.35,2.43,2.23,2.41,2.81,4.31,6.11,5.61,9.69.28.91.57,1.82.86,2.73.19.94.38,1.87.56,2.82.11.47.17.95.2,1.43l.13,1.44c.04.48.1.96.11,1.44l-.02,1.45c.04,7.74-2.9,15.68-8.37,21.58l-1.63,1.54-.82.76c-.28.25-.59.47-.88.7-1.19.92-2.45,1.72-3.75,2.42-2.6,1.41-5.33,2.47-8.14,3.2-5.6,1.5-11.45,1.84-17.18,1.08v-.09Z"/><path class="cls-1" d="M419.76,77.16c.21,1.01.42,2.03.66,3.03.09.36.26.7.34,1.06.28,1.3.54,2.6.87,3.88.15.57.33,1.12.54,1.66.3.68.54,1.39.54,2.18,0,.25-.39.37-.87.35-.48-.02-1.12-.16-1.39-.51-.94-1.26-1.54-2.65-1.76-4.2-.15-.92-.65-1.75-.97-2.62-.35-.97-.66-1.95-.99-2.92l-.59-1.8c-.31-.91-.57-1.84-.98-2.69-.32-.67-.84-1.24-1.28-1.85-.1-.13-.23-.25-.31-.4-.27-.54-.04-.83.83-1.32.2-.11.4-.23.6-.33.69-.33,1.38-.34,1.8-.04,1.14.95,1.65,2.23,2.13,3.53.34.97.62,1.97.9,2.96l-.08.03Z"/><path class="cls-1" d="M452.15,82.58c-.51.79-1.02,1.57-1.5,2.37-.17.29-.25.62-.44.91-.62,1.03-1.37,2-2.01,3.02-.28.45-.49.94-.68,1.42-.25.62-.38,1.29-.96,1.78-.17.15-.6-.05-1.02-.41-.39-.35-.88-.9-.79-1.28.3-1.35.7-2.67,1.48-3.84.45-.71.67-1.55,1-2.32.39-.84.81-1.67,1.23-2.51.25-.51.52-1.02.76-1.54.36-.79.78-1.55,1.04-2.37.2-.64.18-1.35.25-2.03.02-.15,0-.31.03-.46.13-.53.45-.59,1.51-.29.24.07.49.13.72.21.81.27,1.37.74,1.45,1.2.22,1.36-.18,2.54-.67,3.69-.39.84-.88,1.65-1.32,2.47l-.09-.03Z"/><path class="cls-1" d="M380.37,104.78c.81.37,1.63.74,2.44,1.11.3.13.62.16.92.3,1.04.49,2.08,1,3.14,1.43.47.19.96.3,1.45.4.62.15,1.27.21,1.81.66.17.14.01.66-.28,1.17-.3.5-.74,1.02-1.12,1.01-1.34,0-2.59-.41-3.79-1.02-.71-.39-1.55-.41-2.33-.63-.85-.24-1.7-.5-2.54-.79-.52-.17-1.03-.36-1.56-.51-.79-.24-1.57-.53-2.38-.66-.63-.1-1.31.03-1.96.07-.14,0-.3.05-.44.04-.52-.04-.62-.34-.47-1.42.03-.25.06-.49.11-.74.15-.83.52-1.45.95-1.59,1.26-.4,2.42-.15,3.56.18.85.25,1.68.59,2.52.89l-.02.09Z"/><path class="cls-1" d="M382.01,147.52c-.75-.06-1.51-.13-2.26-.17-.27-.01-.54.06-.81.03-.97-.08-1.94-.18-2.9-.25-.43-.03-.85.02-1.27.08-.54.08-1.07.26-1.63.04-.35-.13-.12-2.34.49-2.51,1.09-.22,2.19-.37,3.33-.1.68.15,1.36-.05,2.04-.07.75-.02,1.5-.01,2.26-.02.46,0,.93,0,1.39-.01.7-.03,1.41,0,2.09-.12.53-.09,1.04-.37,1.55-.58.11-.05.22-.12.34-.15.43-.11.59.1.76.98.04.2.09.4.12.6.1.68-.02,1.26-.33,1.48-.9.65-1.89.78-2.9.84-.75.04-1.51,0-2.26,0v-.07Z"/><path class="cls-1" d="M405.97,169.12c-.62.59-1.24,1.18-1.84,1.78-.22.22-.36.5-.58.71-.79.76-1.61,1.51-2.35,2.3-.33.35-.6.75-.85,1.16-.32.52-.54,1.12-1.19,1.41-.2.09-.65-.26-1.05-.73-.39-.47-.79-1.11-.64-1.44.61-1.09,1.35-2.1,2.35-2.93.6-.49.92-1.23,1.39-1.84.52-.67,1.06-1.32,1.6-1.98.33-.4.67-.8.99-1.21.48-.62,1.02-1.21,1.42-1.89.31-.53.42-1.17.62-1.77.04-.13.05-.28.11-.4.25-.43.56-.4,1.45.09.2.11.41.22.61.34.67.41,1.09.95,1.08,1.39-.03,1.29-.68,2.22-1.36,3.13-.51.67-1.11,1.29-1.68,1.93l-.07-.05Z"/><path class="cls-1" d="M441.45,170.32c.1.98.22,1.96.34,2.94.04.36.17.69.21,1.05.14,1.27.28,2.54.52,3.79.11.55.26,1.1.41,1.63.21.68.45,1.36.46,2.11,0,.23-.32.32-.73.25-.4-.06-.92-.25-1.14-.62-.37-.65-.73-1.31-1.02-2-.23-.7-.41-1.43-.51-2.18-.11-.9-.54-1.74-.79-2.61-.28-.96-.48-1.95-.68-2.93l-.37-1.81c-.2-.91-.35-1.84-.63-2.72-.22-.69-.64-1.31-.98-1.97-.08-.14-.18-.28-.23-.43-.18-.56.02-.8.95-1.13.21-.07.42-.16.63-.22.72-.21,1.38-.11,1.69.25.93,1.07,1.2,2.35,1.47,3.65.19.96.3,1.95.47,2.92l-.08.02Z"/><path class="cls-1" d="M475.67,145.37c.56.5,1.13,1.01,1.72,1.48.21.17.47.26.68.45.73.65,1.46,1.32,2.24,1.9.34.26.73.45,1.12.62.49.23,1.01.41,1.37.91.11.16-.14.62-.52,1.05-.37.42-.88.83-1.2.76-.28-.07-.56-.14-.83-.24-.26-.11-.51-.24-.76-.38-.49-.28-.96-.62-1.38-1.03-.51-.5-1.21-.69-1.8-1.05-.65-.41-1.27-.85-1.9-1.3l-1.16-.81c-.59-.39-1.16-.84-1.79-1.15-.49-.24-1.1-.29-1.65-.44-.12-.03-.26-.04-.37-.09-.41-.19-.39-.48.06-1.37.1-.2.2-.41.31-.6.38-.67.87-1.1,1.26-1.13,1.19-.1,2.01.45,2.86.99.62.42,1.19.91,1.8,1.35l-.04.07Z"/><path class="cls-1" d="M478.19,109.12c.88-.14,1.77-.28,2.64-.44.32-.06.61-.21.93-.26,1.13-.19,2.3-.28,3.43-.48.5-.09.98-.26,1.45-.44.59-.28,1.19-.53,1.91-.38.23.05.38.62.41,1.27.03.64-.05,1.41-.37,1.63-.28.21-.59.32-.9.43-.31.11-.63.2-.95.28-.64.16-1.3.26-1.99.28-.82.03-1.56.43-2.35.62-.87.21-1.75.39-2.62.59-.54.12-1.08.23-1.61.37-.81.21-1.63.37-2.4.67-.6.24-1.12.67-1.67,1.02-.12.08-.23.19-.36.25-.48.22-.71.05-1.11-.84-.09-.2-.19-.4-.27-.6-.28-.69-.26-1.34.04-1.66.89-.95,2-1.37,3.15-1.72.85-.26,1.74-.43,2.6-.65l.03.08Z"/><path class="cls-1" d="M127.09,256.87c-1.95,1.21-4.25,2.05-6.63,2.23-.59.05-1.19.02-1.78.01l-.88-.09c-.3-.03-.6-.07-.8-.11-.93-.15-1.86-.25-2.78-.31-1.35-.07-2.68.08-3.91.3-2.19.4-3.95,1.36-4.44,3.24-.2.44-.19.99-.28,1.5-.04.56-.03,1.18.01,1.74.08,1.15.32,2.24.78,3.24.77,1.75,2.37,3.39,4.07,4.34,1.14.6,2.38.98,3.64,1.25,1.28.22,2.56.28,4,.35.52.22.76.28.75.3,0,.03-.21.08-.48.53-.28.46-.78.85-1.46,1.32-.34.2-.74.46-1.18.59-.44.14-.92.22-1.42.24-.89.03-1.78-.05-2.66-.2-.89-.15-1.72-.51-2.54-.88-.82-.38-1.6-.87-2.32-1.44-.73-.57-1.32-1.12-1.93-1.8-.6-.66-1.15-1.41-1.61-2.23-.44-.83-.76-1.72-.97-2.61-.21-.89-.31-1.78-.34-2.65-.02-.43,0-.85,0-1.28.02-.41.05-.83.14-1.31.11-.55.12-1.09.34-1.65.19-.55.32-1.11.65-1.63l.44-.78c.18-.24.38-.47.57-.7.36-.49.84-.83,1.29-1.21,1.89-1.4,4.04-1.86,6.02-2.06,2.2-.19,4.34,0,6.42.34,1.73.29,3.51.07,5.18-.57,1.02-.42,2.01-.98,2.95-1.65.92-.7,1.8-1.46,2.6-2.33,2.43-2.62,4.4-5.8,5.79-9.16,1.07-2.62,1.68-5.36,2.03-8.06.08-.59.09-1.18.16-1.76.21-2.18.33-2.69,1.32-3.31.21-.14.41-.33.62-.44.35-.19.71-.08,1.11.38.4.45.64,1.23.72,2.2.23,2.87-.3,5.65-1.05,8.38-.79,2.72-1.91,5.37-3.32,7.9-2.11,3.73-4.87,7.3-8.77,9.87l-.06-.07Z"/><path class="cls-1" d="M150.32,226.25c1.74-.41,3.47-.96,5.1-1.69.59-.28,1.13-.64,1.68-.95,1.9-.96,3.65-2.52,5.1-4.39.67-.81,1.27-1.69,1.78-2.6.58-1.21,1.36-2.33,2.07-3.53.23-.37.36-.28.51.15.14.42.41,1.25.34,2.13-.4,3.06-1.87,5.86-4.21,7.94-.69.63-1.35,1.3-2.09,1.95-.35.33-.77.64-1.17.92-.4.26-.79.53-1.2.75-1.8.99-3.68,1.72-5.59,2.32-1.18.36-2.37.68-3.58.91-1.83.38-3.7.56-5.57.67-1.46.05-2.93.21-4.49.02-.34-.04-.68-.09-1.01-.21-1.25-.4-1.44-1.05-1.23-1.92.04-.19.06-.37.11-.52.08-.25.28-.42.61-.64.34-.23.7-.36,1.05-.33,1.13-.11,2.09.07,3.2.02,1.08.02,2.21-.04,3.36-.15,1.71-.17,3.48-.45,5.2-.93l.03.08Z"/><path class="cls-1" d="M168.92,180.78c2.33.47,4.46,1.51,6.53,2.65,2.12,1.3,3.88,2.99,5.25,4.91,1.02,1.38,1.92,2.84,2.55,4.42,1.11,2.78,1.62,5.8,1.38,8.79-.28,2.99-1.31,5.91-3.12,8.26-1.56,2.1-3.59,3.86-5.92,5-1.48.76-3.12,1.23-4.77,1.38-1.65.18-3.34.03-4.87-.57-.91-.56-.74-.53.15-.91.44-.2,1.03-.33,1.7-.59.67-.21,1.39-.47,2.17-.57,1.38-.25,2.68-.75,3.89-1.35,1.24-.55,2.37-1.35,3.37-2.26,2.03-1.82,3.41-4.31,4.06-7.05.76-3.32-.28-7.07-2-10.15-.93-1.72-2.16-3.28-3.62-4.53-.72-.65-1.51-1.16-2.35-1.63-.91-.4-1.78-.91-2.74-1.19-2.3-.85-4.77-1.37-7.27-1.36-3.78-.09-7.63.85-11.02,2.54-2.64,1.35-4.84,3.3-6.8,5.39-.44.46-.84.93-1.23,1.44-1.59,1.74-2.19,2.24-3.23,2.18-.23,0-.48.02-.68-.03-.66-.14-.55-1.3.31-3.1,2.91-5.08,8.19-9.14,14.22-11.07,2.25-.66,4.57-1.21,6.96-1.27l.89-.06.89.02c.6.02,1.19.02,1.78.06,1.18.16,2.38.23,3.54.55v.1Z"/><path class="cls-1" d="M183.66,276.45c-1.58,5.09-4.06,9.99-7.66,14-.61.77-1.31,1.45-2,2.15-.35.34-.68.7-1.04,1.03l-1.14.92c-2.71,2.11-5.69,3.84-8.85,5.07-3.15,1.24-6.41,2.09-9.71,2.62-2.93.46-5.89.72-8.83.77l-2.83-.07c-.94-.06-1.88-.15-2.82-.24-1.86-.33-3.72-.71-5.46-1.47-1.09-.46-.88-.62.17-.88.52-.12,1.27-.35,2.11-.44.85-.14,1.83-.29,2.86-.28,7.24.32,14.49-.04,21.44-2.23,4.15-1.31,8.1-3.72,11.26-6.77.86-.85,1.75-1.68,2.49-2.64.8-.91,1.54-1.88,2.19-2.91,1.33-2.04,2.46-4.24,3.33-6.54,1.09-2.83,1.84-5.81,2.29-8.84.68-4.59.71-9.32.16-13.94-.42-3.6-1.35-7.05-2.21-10.53-.19-.77-.42-1.51-.61-2.28-.34-1.44-.53-2.4-.49-3.11.06-.72.32-1.19.68-1.62.16-.19.29-.42.43-.54.24-.21.54-.04,1.02.39.5.43.97,1.2,1.34,2.25,1.11,3.1,2.15,6.34,2.79,9.75.65,3.4,1.06,6.93,1.15,10.51.15,5.31-.48,10.72-1.99,15.9l-.09-.02Z"/><path class="cls-1" d="M162.16,405.23c-3.4,2.51-6.92,4.83-10.54,6.99-1.32.79-2.6,1.64-3.97,2.36-2.41,1.27-4.89,2.42-7.52,3.31-1.3.46-2.66.83-4.06,1.12-1.39.27-2.95.38-4.42.12-1.31-.22-2.61-.66-3.78-1.46-1.17-.77-2.09-2.08-2.42-3.47-.44-1.82,0-3.7.83-5.13.43-.72.95-1.35,1.5-1.93.27-.29.56-.56.86-.83.3-.26.67-.44,1-.65.89-.46.81-.33.54.51-.14.42-.21,1.11-.44,1.74-.21.66-.44,1.39-.7,2.09-.11.31-.21.62-.29.91-.11.28-.21.56-.26.82-.12.54-.14,1.03-.06,1.47.17.94.67,1.54,1.59,2.06.92.49,2.16.74,3.37.72,1.21-.03,2.61-.35,4-.75,3.36-.98,6.64-2.96,9.85-4.79,3.53-2.05,6.99-4.3,10.32-6.72,2.05-1.49,4.06-3.03,5.98-4.68,1.46-1.24,2.88-2.52,4.21-3.87,1.31-1.35,2.6-2.77,3.47-4.28.14-.29.34-.59.41-.86.05-.14.11-.28.14-.41l.05-.31c-.01-.21-.01-.36-.12-.63-.08-.3-.2-.57-.33-.83-.51-1.05-1.33-1.69-2.33-2.03-.45-.15-.92-.21-1.42-.25-.93-.1-1.6-.07-2.09-.27-.51-.21-.86-.54-1.21-1.01-.16-.22-.36-.42-.48-.63-.2-.36-.1-.74.31-1.18.41-.43,1.16-.93,2.23-1.03,1.57-.21,3.36-.07,5.12.77.86.44,1.7,1.04,2.38,1.81.66.77,1.21,1.65,1.53,2.55.19.46.3.9.41,1.36.09.28.11.62.12.97,0,.34.05.67-.03,1.02l-.11.52-.11.46c-.09.26-.18.48-.28.72-.19.5-.41.85-.62,1.25-.88,1.49-1.85,2.66-2.85,3.8-3,3.3-6.32,6-9.7,8.62l-.07-.08Z"/><path class="cls-1" d="M133.48,390.07c1.83-1,3.63-2.04,5.39-3.14,1.74-1.1,3.53-2.31,5.29-3.48,1.29-.86,2.52-1.82,3.82-2.67,2.3-1.5,4.61-2.98,6.98-4.42,1.18-.72,2.39-1.43,3.64-2.08.62-.33,1.28-.65,1.95-.95.37-.14.7-.29,1.1-.42l.65-.18c.24-.05.52-.04.77-.07.09-.01.17-.02.26-.01l1.07.16c.34.08.68.18,1.01.28.67.26,1.35.56,1.96,1.07,1.27.95,1.87,2.66,1.78,4.07-.1,1.87-.81,3.6-2.18,4.88-1.37,1.28-2.99,1.59-4.41,2.1-.89.32-.88.17-.36-.58.26-.37.67-.88,1.14-1.48.24-.3.51-.56.76-.84.13-.14.26-.27.37-.42.13-.12.26-.24.37-.36.55-.54.85-1.14,1.07-1.88.19-.7.19-1.46-.05-1.91-.24-.46-.45-.64-.88-.87-.21-.11-.5-.21-.82-.28-.18-.02-.32-.08-.51-.11l-.46-.07s-.02,0-.03-.02l-.02-.02-.08.02-.21.05c-.08.02-.2.07-.29.11-.4.13-.87.36-1.32.56-.93.46-1.89.95-2.87,1.45-3.32,1.73-6.48,4.15-9.7,6.31l-5.34,3.57c-1.79,1.19-3.65,2.38-5.52,3.46-2.31,1.35-4.68,2.59-7.02,3.81-1.77.92-3.57,1.83-5.18,2.8-.21.12-.39.25-.58.38-.19.13-.37.26-.52.39-.35.27-.53.51-.77.87-.43.68-.63,1.5-.62,2.31,0,1.26.68,2.54,1.62,3.04.82.45,2.27.32,3.6-.03.6-.15,1.18-.37,1.8-.56.29-.09.55-.17.79-.25.25-.05.48-.09.69-.14.43-.07.78-.11,1.08-.11.3,0,.56.04.78.11.23.09.43.23.61.36.17.13.37.23.47.34.33.31-.38,1.33-2.08,2.15-.62.35-1.3.57-1.99.8-.7.23-1.42.43-2.2.57-.78.13-1.61.25-2.54.2-.47-.03-.94-.08-1.48-.25-.56-.17-1.08-.42-1.53-.75-.91-.64-1.57-1.5-2.01-2.4-.46-.9-.75-1.87-.83-2.87-.09-1,.02-2.04.35-3.02.34-.99.8-1.89,1.63-2.76,1.08-1.07,2.05-1.7,3.03-2.31.98-.57,1.95-1.09,2.9-1.59,1.91-1.01,3.78-1.98,5.6-3.03l.05.08Z"/><path class="cls-1" d="M305.26,208.8c-2.6.07-5.3-.25-7.82-1.27-.92-.36-1.85-.74-2.67-1.32-.73-.5-1.39-1.09-1.99-1.73-.32-.3-.56-.67-.84-1-.27-.35-.54-.8-.76-1.2-.85-1.74-.93-3.6-.7-5.24.2-1.47.55-2.88.99-4.22.54-1.73,1.48-3.34,2.86-4.57.42-.39.56-.19.64.39.04.29.08.69.13,1.15.02.24.03.48.05.71,0,.13,0,.24.01.38-.03.11-.05.23-.08.34-.1.41-.22.81-.3,1.21l-.13.6-.19.57c-.26.76-.47,1.52-.64,2.27-.18.75-.26,1.49-.32,2.21,0,.7-.01,1.39.13,2.03.09.37.23.75.45,1.06.08.16.24.34.4.52.16.17.31.36.49.51.68.65,1.47,1.16,2.31,1.6,1.82.98,4,1.43,6.23,1.48,1.38.02,2.78-.09,4.16-.34,2.1-.38,4.22-.93,6.18-1.81,1.53-.68,2.88-1.65,4.19-2.61.29-.21.55-.46.84-.66.53-.4.96-.53,1.31-.55.18,0,.35.02.53.1.19.09.39.22.59.36.18.13.37.23.51.35.43.32.52,1.44-.25,2.25-2.29,2.42-5.4,3.98-8.65,5.1-2.42.83-5,1.29-7.64,1.44v-.09Z"/><path class="cls-1" d="M254.36,256.5c2.26,3.03,4.97,5.74,8.03,7.99,3.07,2.24,6.49,3.98,10.09,5.15,2.64.86,5.37,1.29,8.12,1.47,4.86.31,9.82-.45,14.38-2.26,2.28-.9,4.44-2.09,6.45-3.51.99-.73,1.97-1.51,2.92-2.32.91-.86,1.88-1.66,2.72-2.6,3.12-3.21,5.78-6.92,8.04-10.77,1.44-2.49,2.72-5.07,3.87-7.7.27-.67.59-1.31.87-1.97l.82-1.98c.22-.67.55-1.32.8-1.98l.38-1c.14-.33.14-.67.36-.99.78-1.62.44-1.56.92.09.21.83.27,2.02.26,3.45-.02.71-.13,1.47-.3,2.25-.16.78-.36,1.61-.66,2.42-2.22,5.76-5.25,11.14-8.97,16.09-1.9,2.44-3.91,4.83-6.26,6.93-.56.55-1.17,1.05-1.78,1.54-.62.49-1.2,1.01-1.87,1.47-1.3.95-2.68,1.77-4.12,2.48-6.82,3.4-14.85,4.99-22.54,3.83-4.21-.67-8.27-2.07-11.99-4.08-3.7-2.03-7.06-4.63-9.97-7.64-1.77-1.87-3.42-3.87-4.8-6.05-1.4-2.16-2.62-4.44-3.55-6.84-.75-1.8-1.3-3.69-1.72-5.57-.51-1.87-.74-3.79-1.05-5.69-.42-3.83-.48-7.68-.22-11.49.48-5.9,1.47-11.68,3.51-17.24.41-1.23.92-2.41,1.44-3.63,2.25-4.38,3.72-5.43,4.98-5.7.29-.06.61-.18.81-.17.34.02.27.48-.07,1.25-.18.36-.38.88-.64,1.46-.27.58-.58,1.24-.93,1.99-2.03,4.49-3.67,9.36-4.62,14.44-.97,5.06-1.44,10.31-1.05,15.49.25,3.85,1.02,7.67,2.14,11.3,1.18,3.58,2.94,7.01,5.25,10.03l-.07.06Z"/><path class="cls-1" d="M277.03,200.57c-3.04,1.08-6.17,1.86-9.3,2.56-1.16.21-2.28.55-3.45.71-2.06.28-4.13.47-6.23.47-1.05,0-2.1,0-3.16-.15-1.05-.04-2.12-.34-3.17-.57-.99-.27-1.99-.77-2.78-1.44-.8-.67-1.44-1.5-1.91-2.37-.6-1.12-1.04-2.31-1.15-3.54-.14-1.22-.08-2.45.29-3.6.32-.71.37-.58.72.04.21.37.45.78.69,1.21.26.48.49,1.01.68,1.56.15.5.37.97.54,1.43.16.47.36.9.59,1.3.45.81,1.01,1.46,1.66,1.87.16.1.32.21.5.28.17.09.35.15.54.2.16.07.43.1.68.15l.75.14c.49.12,1.03.15,1.56.22.54.06,1.07.16,1.63.17,2.65.23,5.46-.42,8.18-.95,3.01-.57,5.98-1.44,8.92-2.4.9-.32,1.81-.61,2.7-.94l2.65-1.06c2.63-1.17,5.29-2.38,7.69-3.95.47-.3.93-.61,1.38-.93.43-.34.86-.69,1.28-1.04l1.25-1.05,1.18-1.13c.35-.33.66-.67,1.03-.99,1.23-1.26,1.86-1.4,2.84-.97.22.1.47.18.67.3.67.41.57,1.38-.29,2.55-2.66,3.33-6.34,5.91-10.18,8.02-2.85,1.6-5.88,2.83-8.92,4l-.04-.08Z"/><path class="cls-1" d="M259.61,298.23c1.2-3.49,2.39-6.99,3.53-10.51.42-1.28.74-2.6,1.17-3.87l4.57-13.54c.66-2.01,1.25-4.05,1.82-6.07.35-1.3.74-2.6,1.16-3.88.44-1.28.87-2.56,1.59-3.75.66-.67.72-.53,1.13.34.4.87.76,2.35.39,3.85-.55,2.7-1.39,5.31-2.23,7.92-.84,2.62-1.74,5.22-2.72,7.82-1.17,3.11-1.98,6.47-2.98,9.71-1.12,3.56-2.27,7.11-3.44,10.66l-2.18,6.55c-1.09,3.31-2.28,6.6-3.34,9.89-.83,2.56-1.47,5.13-2.23,7.68-.16.56-.3,1.13-.49,1.68-.73,2.07-1.12,2.67-2.27,2.73-.23.03-.45.09-.62.1-.48.04-1.13-1.16-.66-2.68,1.07-4.63,2.64-9.33,4.2-14.07,1.17-3.52,2.34-7.06,3.52-10.59l.08.02Z"/><path class="cls-1" d="M230.89,283.24c1.24-2.45,3.1-4.6,5.29-6.23,1.16-.89,2.55-1.52,3.85-1.92,1.32-.41,2.64-.65,3.95-.8,1.91-.2,3.8-.33,5.67-.2,3.3.24,6.53.85,9.68,1.91,1.19.36,4.21,1.66,5.49,3.06.71.71,1.2,1.46,1.35,2.38.07.45.04.97-.17,1.42-.2.45-.55.76-.89,1.01-.64.41-1.4.66-2.33.78-.92.13-2,.09-3.05.03-.26-.02-.53-.02-.78-.05l-.53-.04-1.05-.09c-.69-.06-1.38-.12-2.07-.18-3.53-.33-6.91-.69-10.28-.51-1.12-.01-1,.1-.28-.71.37-.4.97-.89,1.77-1.42.81-.47,1.83-.83,2.92-1.01,1.94-.23,3.84-.27,5.69-.22l2.71.26,1.32.12c.16.01.1.01.12.02h.01s.03.03.03.03c.05.03.12.06.23.08.11.03.3.02.37-.08.13-.19.02-.4-.31-.69-.03-.02-.04-.04-.09-.06l-.34-.16-.7-.3c-.48-.19-.97-.37-1.47-.52-1-.31-2.04-.57-3.09-.77-2.11-.4-4.27-.6-6.39-.66-2.33-.06-4.68.11-6.77.77-.52.16-1.02.36-1.49.6-.47.23-.88.51-1.35.87-.92.66-1.72,1.46-2.46,2.32-1.81,2.13-2.96,4.83-3.46,7.65-.19,1.07-.29,2.17-.29,3.25.03,1.08.13,2.14.39,3.21.5,2.13,1.4,4.2,2.41,6.19,1.63,3.08,3.67,5.85,5.76,8.62.46.61.94,1.19,1.4,1.82.84,1.17,1.37,1.99,1.58,2.67.16.74.08,1.24-.15,1.75-.1.22-.17.46-.27.59-.18.23-.51.11-1.01-.12-.54-.24-1.23-.72-1.84-1.55-1.96-2.41-3.93-5.02-5.67-7.87-1.74-2.86-3.37-5.88-4.45-9.29-.19-.64-.4-1.26-.55-1.93-.15-.67-.36-1.3-.43-2.02-.24-1.41-.25-2.78-.15-4.13.19-2.71.87-5.41,2.12-7.9l.08.03Z"/><path class="cls-1" d="M265.77,283.84c.49.53.8,1.05.86,1.78.1.36-.04.76-.11,1.1-.03.18-.09.35-.18.5-.08.16-.16.31-.27.44-.72,1.13-2.43,1.84-4.23,2.2l-.95.2-.6.1c-.4.07-.8.12-1.2.15-2.81.15-5.52.04-8.23-.16-1.2-.08-2.4-.08-3.59-.08-.76.03-1.52-.04-2.28-.13-.38-.04-.76-.1-1.13-.19l-.56-.12c-.18-.04-.38-.15-.56-.21-.43-.2-.44-.19-.04-.53.39-.37,1.15-1.01,2.03-1.23l1.17-.24.58-.12.58-.02,2.31-.06c1.54,0,3.07-.01,4.6.12,1.84.17,3.74-.11,5.53-.33l.73-.1.34-.04c.19-.02.4-.05.62-.11.22-.06.45-.14.65-.27.2-.13.38-.39.28-.6-.29-.45-.88-.65-1.5-.87l-.54-.16-.69-.19c-.46-.12-.93-.24-1.39-.34-.94-.21-1.89-.37-2.84-.47-1.48-.16-2.95-.09-4.39-.03-.32.01-.63.06-.94.06-1.17-.05-1.54-.26-1.87-.81-.07-.12-.17-.24-.22-.36-.18-.37.28-.89,1.23-1.21.69-.26,1.41-.37,2.12-.45.72-.08,1.44-.13,2.16-.15,1.45-.04,2.92.04,4.39.21,1.09.12,2.18.3,3.29.55l.46.11.76.19c.5.15,1.02.27,1.46.48.48.18.87.4,1.28.62.35.24.69.49.94.75l-.09.04Z"/><path class="cls-1" d="M266.12,288.72l.32.52c.11.49.28,1.17.09,1.64-.11.48-.41.86-.7,1.26-.68.76-1.9,1.47-3.36,2-.6.2-1.17.43-1.77.62l-.7.22c-.18.05-.36.1-.54.14-2.55.56-5.08.89-7.6,1.24-1.11.18-2.23.36-3.34.53l-1.06.18c-.36.04-.72.04-1.08.05-.73.02-1.46-.02-2.21-.2-.47-.12-.41-.29-.08-.67.34-.37.92-1.15,1.69-1.47,2.71-1.22,5.58-1.38,8.47-1.65,1.74-.14,3.45-.71,5.11-1.17.33-.07.7-.15,1.12-.29.38-.15.96-.31,1.17-.78.02-.1.02-.23-.05-.29-.28-.28-.72-.33-1.19-.41l-.69-.07-.37-.03-.52-.02c-.91-.04-1.82-.04-2.72,0-1.41.05-2.78.33-4.18.5-.31.04-.61.11-.93.08-1.17-.07-1.56-.28-1.82-.82-.06-.12-.14-.24-.17-.36-.11-.39.34-.76,1.16-1.07,1.21-.55,2.49-.66,3.79-.87,1.31-.15,2.64-.36,4-.46l1.88-.13c1-.03,1.99.04,2.9.15.91.11,1.66.34,2.26.61.56.29.97.61,1.21,1.01l-.09.03Z"/><path class="cls-1" d="M265.07,293.34c.46.26.78.57,1.05,1.05.06.13.11.27.13.42.07.12.05.27.08.41,0,.28-.05.56-.1.81-.26,1.01-.99,1.93-2.19,2.74-.45.28-.88.58-1.39.82-.24.13-.49.26-.74.37l-.3.13-.24.09c-2.23.78-4.44,1.23-6.63,1.71-.98.2-1.92.51-2.88.73-.62.13-1.23.28-1.84.4-.62.09-1.26.1-1.89.14-.39.02-.43-.19-.21-.6.22-.39.68-1.08,1.33-1.5,2.35-1.29,4.88-1.6,7.37-2.1.75-.13,1.49-.36,2.2-.63.36-.13.71-.28,1.06-.43l.52-.22.22-.1.09-.03c.28-.1.59-.23.92-.44.16-.11.33-.24.44-.42.1-.16.24-.42.09-.55-.34-.26-.82-.29-1.36-.32h-.31s-.41-.02-.41-.02l-1.2.02c-.8.02-1.61.07-2.4.16-.62.09-1.23.16-1.85.2-.62.06-1.24.1-1.87.06-.28-.01-.55-.01-.83-.04-1.05-.1-1.4-.28-1.61-.56-.05-.06-.11-.12-.13-.18-.08-.18.33-.33,1.03-.6,1.06-.35,2.12-1,3.23-1.4l.83-.34c.28-.09.57-.12.86-.18.58-.1,1.17-.19,1.76-.28.44-.06.88-.11,1.33-.16l.68-.06h.17s.1-.03.15.01c.05.02.11.01.16.02l.63.04c.42.04.82.02,1.23.04.37.05.75.12,1.09.19.68.16,1.32.29,1.79.56l-.07.06Z"/><path class="cls-1" d="M376.98,370.01c-3.41,1.54-6.84,3.01-10.15,4.58-1.2.58-2.38,1.28-3.63,1.86-2.2,1.02-4.44,2.01-6.79,2.8-1.18.4-2.37.76-3.66,1.01-.31.07-.64.12-.98.16-.33.04-.66.09-1.03.08-.35,0-.7.02-1.11-.06-.38-.04-.79-.13-1.15-.29-1.28-.55-2.21-1.43-2.93-2.48-.35-.53-.65-1.12-.83-1.77-.18-.64-.25-1.37-.06-2.16.26-.98.85-1.72,1.43-2.26.6-.54,1.25-.95,1.9-1.31.33-.17.65-.33.98-.47.34-.11.69-.21,1.03-.3.68-.19,1.37-.31,2.06-.38.85-.08.85.15.36.88-.25.35-.58.9-1.02,1.4-.21.26-.45.53-.69.79-.12.14-.26.25-.37.4-.14.1-.29.19-.43.28-1.03.6-1.94,1.44-2.05,1.76,0,.03,0,.06-.03.08.02.02.01.03,0,.05.02.13.01.27.07.43.08.33.29.71.55,1.05.27.35.61.65.93.86.16.1.31.16.42.21.19,0,.28.09.56.06.96.02,2.26-.25,3.5-.58,3.05-.84,6.07-2.52,9.06-4.06,3.33-1.74,6.79-3.31,10.16-4.9,2.08-.98,4.17-1.95,6.21-2.99,1.55-.77,3.11-1.53,4.6-2.37.74-.42,1.48-.86,2.14-1.33l.5-.36.43-.37.21-.18.13-.17c.09-.1.19-.21.28-.4.3-.51.48-1.05.58-1.58.09-.53.02-1.05-.12-1.52-.16-.47-.43-.89-.77-1.24-.17-.18-.37-.33-.56-.46-.15-.1-.24-.15-.37-.2-.21-.09-.43-.04-.61.07-.08.04-.15.09-.21.13-.1.07-.19.12-.27.18-.26.18-.5.34-.75.43-.5.18-.94.18-1.44.01-.23-.08-.48-.13-.66-.24-.31-.19-.41-.53-.34-1,.08-.47.29-1.12.93-1.83l.19-.2c.08-.08.17-.18.27-.26.19-.17.4-.33.62-.48.43-.29.91-.53,1.43-.65,1.04-.25,2.13.08,3.08.69.21.18.5.31.65.54.16.17.31.31.46.48.28.33.54.68.79,1.05.48.75.82,1.62.97,2.53.29,1.85-.14,3.67-.88,5.1-.11.2-.14.33-.32.57-.16.23-.33.45-.5.67-.19.25-.31.33-.47.49l-.45.42c-.58.48-1.15.93-1.71,1.3-1.67,1.15-3.33,2.11-5.01,3.04-1.69.9-3.42,1.69-5.12,2.51l-.05-.08Z"/><path class="cls-1" d="M355.75,356.45c1.76-.71,3.52-1.38,5.25-2.04l2.56-1.01c.84-.34,1.57-.68,2.35-1.11,1.13-.62,2.2-1.42,3.35-2.13,2.03-1.25,4.08-2.55,6.28-3.72,1.1-.58,2.23-1.15,3.46-1.61,1.23-.44,2.54-.89,4.13-.77.7.06,1.45.24,2.13.63.7.43,1.13.9,1.55,1.42.79,1.04,1.28,2.2,1.49,3.5.12.83.11,1.79-.38,2.76-.22.47-.68.92-1.07,1.18-.29.19-.59.38-.89.56-.6.36-1.21.67-1.8.97l-.88.45c-.3.14-.65.21-.97.33-.84.25-.86.09-.62-.78.13-.42.27-1.13.68-1.69.38-.59.89-1.19,1.48-1.67l.78-.62.38-.31h.01s0-.01,0-.01l.04.06h0s0,0,0,0h0s.02.03.02.03c.01.02.05.05,0,0-.02-.02-.04-.03-.06-.04,0,0-.15-.09-.12-.07,0,.01-.02-.04-.02-.06-.01-.08-.02-.2-.06-.36-.12-.68-.71-1.61-1.2-2.12-.06-.07-.12-.11-.17-.17-.05-.03-.05-.03-.07-.06-.05-.02-.1-.06-.22-.09-.22-.06-.63-.05-1.12,0-1,.11-2.23.53-3.44,1.01-2.94,1.18-5.7,3.33-8.66,5.13-.82.5-1.65.98-2.52,1.45-.87.47-1.81.9-2.69,1.26-1.77.73-3.52,1.4-5.26,2.09-2.14.85-4.26,1.72-6.31,2.7-1.54.75-3.07,1.53-4.42,2.47-.66.47-1.3.98-1.74,1.52-.22.27-.35.52-.43.75-.1.39-.19.78-.25,1.18-.04.21-.06.42-.08.63l-.02.31c0,.1,0,.14,0,.21,0,.25.04.5.11.72.07.22.21.43.44.49.23.06.47-.07.67-.12.18-.09,1.16-.35,1.84-.6.51-.19.99-.41,1.47-.63.88-.39,1.39-.66,1.86-.76.23-.05.45-.05.67-.02.23.06.46.15.7.27.22.11.46.2.63.32.53.36.46,1.63-1.17,2.71-.89.61-1.86,1.06-2.83,1.42-.49.18-.98.34-1.47.47l-.37.1-.46.11c-.46.1-.89.21-1.35.29-.66,0-1.37.12-1.94-.14-.61-.22-1.15-.68-1.52-1.22-.37-.55-.63-1.19-.74-1.91-.09-.35-.07-.74-.11-1.1,0-.19,0-.38,0-.57l.02-.46c.07-.97.2-1.81.45-2.76.5-1.57,1.32-2.36,2.02-3.06,1.75-1.58,3.51-2.5,5.27-3.43,1.76-.9,3.53-1.68,5.29-2.43l.04.08Z"/><path class="cls-1" d="M165.02,231.64c.47-.55.97-1.05,1.53-1.51.06-.05.12-.1.19-.15.25-.21-.2.14-.02.02.15-.1.29-.21.44-.31.3-.2.6-.39.91-.57.29-.17.6-.32.9-.47.07-.03.19-.12.27-.12-.08,0-.31.13-.09.04.17-.07.33-.13.5-.19.7-.25,1.41-.43,2.14-.55.91-.15,1.49-1.32,1.22-2.15-.32-.98-1.18-1.38-2.15-1.22-3.19.53-6.22,2.27-8.31,4.72-.59.7-.73,1.8,0,2.47.65.6,1.84.74,2.47,0h0Z"/><path class="cls-1" d="M205.4,313.27c-2.26-2.81-4.52-5.61-6.84-8.37-.84-1.01-1.77-1.94-2.61-2.96-2.98-3.55-5.84-7.23-8.86-10.75-1.33-1.57-2.74-3.09-4.14-4.58-1.83-1.89-3.49-3.94-5.05-6.08-.48-.67-.18-.8.57-.55.74.25,2.02.81,3.22,1.76l1.53,1.32.76.66.71.72c.94.96,1.87,1.92,2.79,2.9,1.84,1.96,3.64,3.97,5.36,6.06,2.07,2.5,4.49,4.85,6.67,7.34,2.41,2.73,4.77,5.51,7.13,8.29l4.31,5.17c2.18,2.6,4.3,5.28,6.5,7.84,1.7,2,3.54,3.81,5.28,5.75.38.43.78.83,1.14,1.28,1.33,1.67,1.56,2.36,1.07,3.31-.11.21-.19.45-.31.63-.41.58-1.49.31-2.63-.76-.85-.79-1.7-1.61-2.54-2.44-.82-.85-1.61-1.74-2.42-2.62-1.6-1.79-3.16-3.64-4.73-5.5-2.32-2.77-4.66-5.56-6.99-8.34l.07-.06Z"/><path class="cls-1" d="M254.23,327.93c-4.34-.62-8.64-1.3-12.93-1.83-1.56-.19-3.14-.25-4.6-.34l-.83-.02s-.03,0-.04,0c-.05-.1.1.33-.29-.74l-.11-.27-.03-.07-.02-.03c.78,2.16.22.6.39,1.08h0s-.03.02-.03.02l-.07.03s-.09.02-.15.05c-.44.19-.99.53-1.52.89-1.08.74-2.14,1.61-3.26,2.46-2.3,1.85-4.88,3.31-7.57,4.46-2.4.98-4.91,1.78-7.46,2.18-1.64.25-3.31.33-4.96.25-1.65-.15-3.28-.55-4.8-1.16-.92-.54-.76-.52.15-.82.91-.24,2.49-.72,4.2-.99,1.52-.07,3.01-.23,4.47-.52,1.46-.27,2.92-.57,4.33-1.05,1.42-.47,2.8-1.04,4.15-1.7,1.34-.67,2.68-1.48,3.92-2.29.73-.51,1.5-1.14,2.27-1.78.79-.63,1.59-1.28,2.45-1.92.44-.32.88-.64,1.4-.94.53-.28,1.03-.65,2.02-.77,1.43-.13,2.31-.02,3.39.05,4.47.42,8.8,1.1,13.16,1.71,2.67.37,5.36.79,7.99,1.03.49.05,1.02.07,1.39.1.13-.02.28.01.4-.06.07-.03.11-.04.2-.09l.31-.16c.85-.46,1.75-.99,2.63-1.5,1.77-1.05,3.54-2.09,5.3-3.13,2.74-1.62,5.38-3.34,8.27-4.79.64-.32,1.25-.66,1.93-.93,1.23-.53,2.17-.7,2.81-.71.68.04,1.12.29,1.49.75.17.21.38.41.49.64.19.38.05.8-.31,1.19-.36.38-.95.74-1.75,1.13-4.73,2.26-9.71,5.21-14.75,8.17l-2.85,1.67c-.5.29-.96.56-1.53.86l-.48.25c-.25.11-.5.21-.76.3-.49.14-1.12.18-1.56.17l-.97-.05-.86-.08c-.58-.05-1.13-.13-1.69-.19l-3.31-.4v-.09Z"/><path class="cls-1" d="M263.88,227.86c-.81,2.27-.29,4.67,1.22,6.51,1.41,1.72,3.66,2.7,5.86,2.75,1.37.03,2.71-.33,3.91-.98.69-.37.97-1.39.54-2.05-.45-.7-1.31-.94-2.05-.54-.14.07-.28.14-.42.21-.15.07-.14.06.04-.02-.07.03-.14.05-.21.08-.28.1-.57.18-.86.23-.07.01-.14.03-.22.04.22-.03.24-.03.07-.01-.14.01-.29.03-.43.03-.25,0-.5,0-.75-.02-.07,0-.14-.01-.21-.02.22.03.25.03.08,0-.14-.03-.28-.05-.41-.08-.27-.06-.54-.14-.8-.24-.07-.02-.13-.05-.19-.08.2.08.22.09.07.03-.12-.06-.25-.12-.37-.19-.23-.12-.44-.27-.65-.41-.32-.21.16.15-.06-.05-.1-.09-.21-.18-.3-.27-.14-.13-.5-.4-.54-.59.13.17.15.19.05.06-.04-.05-.08-.11-.11-.16-.07-.11-.14-.22-.21-.34s-.12-.24-.18-.36c-.13-.27.09.31-.02-.06-.07-.24-.15-.48-.2-.73-.08-.43,0,.16-.02-.11,0-.14-.02-.28-.02-.42s.01-.28.02-.42c.02-.17.01-.14-.02.08.01-.07.02-.15.04-.22.06-.3.14-.6.25-.89.26-.74-.3-1.67-1.05-1.85-.84-.19-1.56.25-1.85,1.05h0Z"/><path class="cls-1" d="M280.67,233.01c-.25,2.78,1.19,5.44,3.67,6.74,2.61,1.37,5.83,1.34,8.53.23,1.85-.76,3.47-1.9,4.81-3.39.59-.65.64-1.65,0-2.3-.6-.6-1.71-.66-2.3,0-1.12,1.24-2.53,2.28-3.95,2.77-.38.13-.76.24-1.15.32-.16.04-.33.07-.49.09-.2.03-.22.03-.06,0-.11.01-.22.02-.32.03-.34.03-.69.03-1.03.02-.18,0-.36-.02-.54-.04-.31-.03.15.05-.25-.04-.31-.07-.63-.14-.93-.24-.06-.02-.62-.24-.28-.09-.13-.06-.26-.12-.38-.18-.29-.15-.56-.32-.82-.52.29.22-.08-.09-.14-.14-.11-.11-.22-.22-.33-.34-.09-.09-.24-.32-.08-.09-.1-.15-.2-.3-.29-.45-.07-.12-.13-.24-.19-.36.17.34-.06-.18-.08-.25-.04-.13-.08-.27-.11-.41-.02-.09-.04-.19-.05-.28.02.19.03.19,0,0,0-.36-.02-.72.02-1.09.08-.88-.8-1.62-1.62-1.62-.95,0-1.54.75-1.62,1.62h0Z"/><path class="cls-1" d="M267.97,218.47c.22-.12.44-.23.66-.34.43-.22-.32.11.13-.06.12-.04.23-.09.35-.13.49-.17,1-.3,1.52-.4.1-.02.2-.03.29-.05-.42.07.07,0,.13,0,.25-.02.49-.03.74-.04s.49,0,.74.02c.15,0,.29.03.44.04-.24-.02-.15-.02.04.01.47.09.93.21,1.39.36.17.06.27.1.04,0,.13.06.26.12.38.18.21.11.41.22.61.35.1.06.19.14.29.2.17.1-.21-.19.04.03.18.16.35.31.52.48.1.1.19.21.28.32.21.24-.05-.13.03.04.12.24.3.45.42.69.45.83,1.6,1.09,2.39.63s1.08-1.56.63-2.39c-2.68-4.91-9.32-5.47-13.84-2.95-.82.46-1.1,1.59-.63,2.39s1.57,1.09,2.39.63h0Z"/><path class="cls-1" d="M287.54,222.87c.22-.13.45-.24.68-.36.35-.18-.27.09.08-.04.15-.06.3-.11.46-.17.55-.19,1.12-.33,1.69-.43.15-.03.3-.05.44-.07.13-.02.1-.02-.09.01.1-.01.2-.02.3-.03.3-.03.61-.05.91-.06.61-.02,1.22,0,1.82.06.06,0,.55.08.13.01.15.02.29.05.44.07.28.05.56.12.84.2s.53.17.79.26c.38.13-.24-.13.08.04.12.06.24.12.35.18.22.12.44.26.64.41-.36-.25-.05-.04.03.04.09.08.17.17.26.25.05.06.11.12.16.18-.14-.18-.17-.22-.09-.12.05.1.13.2.19.3.03.05.21.42.1.17s.06.2.07.25c.27.91,1.23,1.48,2.15,1.22s1.49-1.24,1.22-2.15c-.91-3.06-3.99-4.38-6.92-4.76s-6.02.05-8.51,1.52c-.81.48-1.11,1.58-.63,2.39s1.58,1.11,2.39.63h0Z"/><path class="cls-1" d="M275.43,236.42c-.55.75-1.1,1.52-1.62,2.32-.19.29-.3.62-.5.91-.68,1.02-1.41,2.03-2.14,3.04-.31.45-.57.94-.82,1.42-.4.58-.65,1.25-1.43,1.6-.22.12-.31.04-.46-.26-.1-.21-.21-.43-.29-.6-.05-.12-.13-.26-.15-.37-.02-.11-.02-.22,0-.32l.24-1.05c.11-.33.27-.64.42-.95.31-.62.66-1.22,1.09-1.8.54-.67.81-1.52,1.22-2.29.46-.84.95-1.68,1.45-2.51l.94-1.53c.46-.78,1.02-1.51,1.46-2.3.35-.61.55-1.31.85-1.96.06-.15.12-.29.21-.42.17-.23.32-.36.54-.37.24.01.49.1.81.28.15.08.3.15.43.23.22.14.39.32.52.55.13.22.25.51.2.71-.07.67-.26,1.25-.53,1.8-.25.56-.55,1.08-.86,1.61-.44.79-1.02,1.52-1.51,2.32l-.07-.03Z"/></svg>