<?xml version="1.0" encoding="UTF-8"?><svg id="Layer_1" xmlns="http://www.w3.org/2000/svg" width="520" height="520" viewBox="0 0 520 520"><defs><style>.cls-1,.cls-2{fill:#231f20;}.cls-2{opacity:.1;}</style></defs><path class="cls-1" d="M249.93,292.79c.47-.01.85.13,1.2.25.11.04.09.14-.04.17-.29.07-.56.14-.78.19-.16.01-2.71.53-3.56.81-.42.12-.83.25-1.24.33-.42.06-.83.12-1.25.18l-2.53.35-2.54.23c-.38.03-.75.04-1.13.02-1.3-.06-2.59.05-3.87.25-.21.03-.43.04-.63.16-.33.18-3.8.64-4.26.63-1.14-.03-2.27.01-3.41.03-.16,0-.33.07-.49-.03-.38-.22-.72-.12-1.07-.09-.48.05-.97.08-1.47.06-.25,0-.5-.13-.76-.22-.23-.08-.18-.51-.12-.56.2-.16-.01-.33-.06-.5-.02-.06-.04-.13-.03-.18,0-.12,2.68-1.29,2.99-1.3.07-.01,4.13-.76,4.61-.85.24-.05.49-.02.74,0,.11,0,3.39-.55,3.52-.54.69-.03,1.36-.18,2.06-.01.14.03.28.01.41,0,1.17-.13,2.35-.12,3.53-.13.6,0,1.2-.07,1.8-.1.11,0,.22.03.33.04.14.02.28.05.41.05.71,0,1.43.03,2.14.06l1.07.03c.35.03.7.06,1.07.08.33.03,1.9.36,2.27.38.21.02.9.24,1.09.22Z"/><path class="cls-1" d="M358.92,327.9c-.57-.05-1.04-.19-1.47-.22-.13-.02-.11-.05.05-.07.32-.04.64-.08.96-.18.1,0,.93-.25,1.86-.43.93-.17,1.97-.39,2.49-.53,1.02-.24,2.03-.51,3.05-.59,1.03-.12,2.07-.25,3.1-.4l3.1-.32c.46-.05.92-.07,1.38-.06,1.59.02,3.16-.15,4.73-.41.26-.04.53-.06.77-.2.39-.19,4.64-.89,5.26-.83,1.44.05,2.91.05,4.38.2.21.02.43-.01.62.11.44.27.89.26,1.34.31.63.08,1.23.32,1.82.56.29.11.55.34.82.5.24.15.04.34-.06.35-.28.02-.1.19-.1.29,0,.04,0,.08-.02.11-.02.03-.9.06-1.78.25-.22.04-.45.11-.65.15-.21.03-.41.05-.58.08-.35.05-.62.09-.71.09-.02,0-.33,0-.79.05-.46.03-1.08.1-1.71.19-1.27.18-2.61.46-2.88.52-.29.07-.59.04-.89.03-.12,0-4.12.73-4.28.73-.84.06-1.66.25-2.52.1-.17-.03-.34,0-.5.02-1.43.17-2.88.21-4.32.25-.74.02-1.47.11-2.2.14-.13,0-.27-.03-.4-.04-.17-.02-.34-.04-.5-.04-1.74.05-3.49,0-5.23-.11-.4-.03-2.32-.34-2.78-.35-.26,0-1.11-.3-1.33-.29Z"/><path class="cls-1" d="M372.5,324.41c.12.08.12.29.13.47,0,.06-.06.15-.12.15-.1,0-.21.03-.32.05-.07.01-1.04.03-1.31-.05-.29-.05-.55-.14-.79-.25-.49-.24-1.05-.4-1.48-.73-.1-.07-.19-.15-.25-.26-.23-.37-.56-.62-.92-.83-.06-.03-.11-.09-.22-.06-.18.05-1.08-.62-1.15-.77-.17-.36-.38-.66-.54-1.02-.02-.05-.09-.06-.05-.18.09-.26-.02-.31-.09-.4-.09-.12-.18-.26-.23-.43-.03-.08.02-.24.04-.37.02-.12.3-.37.34-.38.13-.04.21-.21.31-.32.03-.04.08-.09.11-.12.07-.06,1.15.01,1.22.07.03,0,1.08.66,1.21.73.07.03.09.12.12.2.01.04.88.53.9.56.13.16.35.22.37.51,0,.06.04.08.08.1.29.2.51.49.75.75.13.13.27.23.39.37.02.02.03.07.04.11.02.04.03.09.06.12.31.29.57.67.92.91.09.04.29.58.37.66.05.04.06.41.11.42Z"/><path class="cls-1" d="M446.75,274.51c-.3-.93-.4-1.88-.49-2.79-.03-.33-.09-.66-.1-.99-.04-1.15-.07-2.3-.11-3.45-.03-.51-.06-1.02-.08-1.52-.04-.65-.07-1.3-.04-1.95,0-.2.08-.18.2-.03.11.16.3.46.4.82.17.65.34,1.29.48,1.94.07.66.12,1.32.14,1.99.02.8.17,1.62.28,2.41.11.87.25,1.73.49,2.55.13.51.31,1,.54,1.46.34.7.81,1.35,1.41,1.83.47.37,1.03.58,1.57.68.12.02.24.03.35.05.42.13.55.23.64.6.02.08.05.16.07.24.05.26-.18.51-.65.58-.7.12-1.4-.13-2.03-.44-.63-.33-1.18-.79-1.63-1.31-.69-.77-1.16-1.73-1.48-2.65h.03Z"/><path class="cls-1" d="M435.22,335.37c-.23.03-.39-.18-.5-.48-.04-.09.02-.35.09-.38.13-.06.27-.13.4-.18.04-.02.36-.04.72-.1.36-.02.75-.04.95-.06.39-.04.77-.04,1.16-.03.79.01,1.58-.02,2.38-.06.18,0,.35,0,.53.03.61.08,1.23.06,1.84-.02.1-.01.21,0,.3-.07.16-.11,1.83-.23,2.06-.19.61.09,1.11.16,1.66.23.08.01.16-.01.24.06.17.16.34.14.51.15.24.01.48.05.71.15.12.04.23.15.34.23.1.07.03.28,0,.31-.11.07-.03.18-.03.27,0,.03,0,.07,0,.1,0,.03-.34.16-.69.3-.35.12-.7.22-.77.22-.02,0-.5.05-1.01.1-.5.06-1.03.13-1.15.14-.11.02-.23-.02-.35-.03-.07,0-1.61.18-1.67.18-.33,0-.65.06-.98-.07-.06-.03-.13-.02-.2-.01-.56.04-1.12,0-1.69-.04-.29-.02-.58,0-.87,0-.05,0-.1-.02-.16-.03-.07-.01-.13-.03-.2-.03-.69,0-1.37-.1-2.06-.11-.16,0-.9-.24-1.09-.24-.1-.01-.4-.31-.49-.3Z"/><path class="cls-1" d="M100.38,349.85c-.35,1.05-.81,2.06-1.38,2.99-.2.34-.39.7-.62,1.02-.84,1.12-1.83,2.11-2.94,2.92-.49.36-.98.72-1.48,1.05-.32.21-.64.43-1,.59-.36.15-.73.26-1.12.34-.24.04-.27-.13-.18-.41.1-.27.29-.68.6-.96.57-.45,1.17-.82,1.72-1.28.55-.44,1.1-.89,1.67-1.36.68-.56,1.17-1.33,1.64-2.08.53-.82.97-1.7,1.3-2.63.21-.57.37-1.16.48-1.76.17-.9.28-1.84.2-2.76-.05-.71-.28-1.39-.5-2.05l-.16-.43c-.14-.55-.09-.75.31-1.02.09-.06.18-.13.27-.18.31-.17.66-.02.93.4.72,1.26.92,2.8.87,4.3-.04,1.12-.25,2.23-.57,3.3h-.04Z"/><path class="cls-1" d="M99.97,348.22c-.07-1.17-.07-2.28-.11-3.4-.03-.41-.05-.81-.08-1.22-.04-1.44-.08-2.88-.15-4.32-.03-.64-.09-1.28-.15-1.91-.07-.81-.14-1.62-.13-2.44,0-.25.11-.23.26-.03.14.2.34.58.43,1.04.34,1.63.51,3.29.61,4.96.05,1,.23,2.03.34,3.05l.33,3.35c.08.68.16,1.35.29,2,.21.98.54,1.95,1.14,2.7.46.59,1.1,1,1.73,1.25.14.06.28.1.42.15.51.17.66.29.77.67.02.08.06.16.08.24.06.24-.25.53-.84.51-.43-.02-.87-.11-1.28-.27-.41-.18-.78-.42-1.13-.69-.68-.56-1.23-1.28-1.62-2.07-.57-1.16-.81-2.4-.94-3.56h.04Z"/><path class="cls-2" d="M205.89,315.67s13.69,17.46,15.66,22.73c1.98,5.27,9.07,21.22,7.03,22-2.04.78-12.4,4.72-12.4,4.72l1.71,11.81,5.15,24.98,5.36,22.44,2.96,9.05-19.16-.77-2.85-10-9.17,1.72-3.11-9.72s-13.15-48.53-14.34-55.37-2.38-18.98-2.38-18.98c0,0-.46-7.99,2.77-11.49,3.23-3.5,22.76-13.12,22.76-13.12Z"/><path class="cls-1" d="M209.07,429.98c-.04-.52-.14-1.1-.26-1.66-.05-.2-.13-.4-.18-.6-.15-.73-.37-1.43-.57-2.16-.1-.32-.22-.62-.36-.92-.18-.38-.37-.76-.49-1.17-.04-.13.07-.17.24-.14.17.04.41.14.57.34.53.71,1.05,1.46,1.3,2.33.13.52.4,1.01.58,1.53.19.57.35,1.14.49,1.74.09.37.15.75.18,1.15.05.59,0,1.22-.16,1.82-.12.46-.25.95-.56,1.4-.07.1-.13.2-.22.29-.34.32-.56.28-.81-.06-.06-.08-.12-.16-.17-.24-.15-.29-.16-.58-.08-.74.21-.48.41-.93.49-1.47.06-.42.05-.9-.03-1.42h.04Z"/><path class="cls-1" d="M205.97,420.66c.09-.63.06-1.34,0-2.07-.03-.27-.09-.53-.12-.79-.08-.95-.22-1.88-.35-2.83-.06-.42-.15-.83-.25-1.24-.16-.51-.17-1.07-.24-1.61-.01-.17-.01-.15.08-.03.08.12.3.33.5.6.37.47.53,1,.75,1.52.2.52.37,1.06.42,1.62.09.67.31,1.33.45,2.01.14.74.28,1.5.32,2.3.02.49,0,1-.09,1.5-.12.76-.48,1.54-1,2.15-.4.47-.84.97-1.51,1.27-.14.07-.3.13-.46.17-.63.04-.83-.21-.82-.69,0-.11,0-.22.02-.33.07-.37.29-.62.45-.78.25-.24.44-.33.67-.53.22-.19.46-.41.64-.67.25-.34.46-.94.51-1.56h.04Z"/><path class="cls-1" d="M229.56,357.2c-.24.77-.54,1.51-.94,2.22-.14.26-.27.52-.44.76-.62.82-1.37,1.52-2.21,2.04-.37.23-.77.43-1.16.6-.51.22-1.07.36-1.63.3-.17-.01-.15-.14-.03-.3.13-.15.33-.35.59-.46.91-.37,1.6-1.01,2.35-1.63.45-.39.73-.96.99-1.49.29-.59.5-1.21.65-1.88.09-.41.17-.82.21-1.24.07-.64.11-1.3.03-1.94-.06-.5-.26-.99-.42-1.47-.04-.11-.09-.21-.12-.32-.07-.41.05-.56.57-.73.12-.04.23-.08.35-.11.4-.1.76.02.95.31.52.88.62,1.91.62,2.97-.01.79-.11,1.59-.29,2.38h-.04Z"/><path class="cls-1" d="M261.69,280.84s37.78,3.19,45.8,5.68c8.01,2.49,16.4,4.12,16.4,4.12,0,0,4.34,13.22,4.15,19.23-.19,6.01-1.54,31.63-5.5,35.01-3.96,3.38-30.29,12.66-30.29,12.66l-55.7,4.58-10.67-10.21s-13.67-20.24-9.67-22.06c4-1.81,31.11-8.37,31.11-8.37l14.62-2.49s-.19-.52-1.99-1.25c-3.04-1.22-18.5,1.25-25.65,2.54-6.2,1.12-18.35,6.11-18.35,6.11l-7.26-10.73s-7.29-4.72-2.81-5.42c4.48-.7,41.07-10.98,41.07-10.98l13.29-2.88,1.44-15.54Z"/><path class="cls-2" d="M329.13,209.2s6.18,3.33,10.53,16.57c4.34,13.24,6.22,29.94,6.22,29.94l4.98,26.41s4.8,15.44,8.95,18.07c4.14,2.63,18.9,5.9,19.49,7.22s5.41,7.97,5.41,7.97l1.19,4.25s-.54,2.91-3.6,3.9c-3.06,1-4.41,2.15-4.41,2.15l-6.43-3.33-10.69-5.46,5.33,6.64s-.07,3.27-1.66,3.33-9.9-5.57-10.73-5.39-7.73-8.67-8.36-14.05-5.24-16.91-5.63-17.53-9.43-22.65-9.43-22.65l-5.04-13.49-8.48-12.96s-4.46-11.17-4.61-14.01,1.51-19.04,5.4-21.47c3.89-2.44,11.61,3.89,11.61,3.89Z"/><path class="cls-2" d="M279.06,202.49c-.94.56-8.82,4.46-12.79,11.64-3.97,7.18-15.73,31.83-15.84,32.08s-11.51,22.6-13.88,25.65c-2.37,3.04-12.88,7.62-12.88,7.62h-13.5l-7.38,4.53s1.44,2.56,2.8,1.66,2.5,1.19.9,2.3c-1.59,1.11-2.52,1.88-2.17,2.83s5.91,0,5.91,0l-1.2,2.98,9.61-1.86.42,4.68,9.49-4.04,7.98-3.6,11.08,2.32-1.08-2.68-4.38-4.59,4.98-7.53,12.2-18.27,6.91-24.51,9.41-21.8,3.39-9.41Z"/><path class="cls-2" d="M297.13,185.09s-9.62-1.61-10.74,4.23,8.86,8.94,16.01,7.48c7.15-1.46,13.98-4.57,14.33-6.69.35-2.11,4.77-11.87,4.77-11.87,0,0-6.4,1.85-7.1,2.04s-13.45,4.81-13.45,4.81h-3.82Z"/><path class="cls-1" d="M327.28,285.38c-.24.98-.5,1.95-.88,2.92-.14.36-.25.73-.45,1.08-.34.61-.81,1.26-1.56,1.62-.76.37-1.53.26-2.15.17-.57-.08-1.13-.17-1.69-.27-.36-.07-.71-.14-1.06-.23-.35-.12-.67-.29-.99-.46-.2-.12-.14-.2.09-.28.22-.07.61-.2,1.02-.21.69.11,1.38.22,2.07.29.7.06,1.41.17,1.88.07.59-.11.98-.84,1.24-1.61.3-.84.51-1.8.73-2.73.13-.58.24-1.17.34-1.76.14-.89.28-1.8.31-2.69.03-.7-.1-1.38-.15-2.05-.02-.14-.03-.29-.05-.43-.03-.54.06-.69.48-.88.09-.04.19-.09.28-.13.32-.11.64.09.8.54.22.66.39,1.34.4,2.02.02.68-.04,1.36-.11,2.04-.11,1.01-.3,2-.51,2.99h-.04Z"/><path class="cls-1" d="M318.53,244.08c-.42-.48-.82-.97-1.19-1.46-.14-.18-.3-.33-.43-.52-.45-.66-.86-1.34-1.24-2.01-.17-.3-.37-.58-.53-.88-.2-.39-.36-.8-.46-1.24-.03-.13,0-.14.13-.08.12.06.36.17.56.33.76.54,1.18,1.24,1.67,1.94.27.44.7.77,1.07,1.13.41.4.82.79,1.25,1.16.27.23.53.46.82.66.43.31.85.65,1.32.89.37.18.8.23,1.2.32.08.03.18.03.26.07.28.16.27.45.18.86l-.07.29c-.09.3-.33.51-.68.64-.49.13-.9-.01-1.29-.16-.39-.16-.77-.38-1.12-.62-.54-.34-.99-.82-1.44-1.27l.03-.04Z"/><path class="cls-1" d="M315.13,237.52c-.52-1.08-.98-2.17-1.39-3.28-.16-.4-.33-.79-.46-1.2-.45-1.45-.81-2.92-1.07-4.4-.14-.65-.25-1.31-.34-1.96-.05-.42-.1-.84-.15-1.26,0-.43.06-.86.1-1.28.04-.27.1-.23.25-.03.14.21.45.58.65,1.03.23.81.47,1.61.67,2.42.16.8.32,1.62.49,2.45.18.99.63,1.95,1,2.9.42,1.05.88,2.08,1.4,3.09.32.62.66,1.23,1.03,1.82.56.9,1.15,1.78,1.83,2.58.27.3.57.58.87.85.31.26.63.51.92.79l.4.34c.48.45.51.72.28,1.17-.05.1-.1.22-.16.31-.21.32-.63.36-1.1.11-1.4-.75-2.48-2-3.4-3.33-.7-.98-1.3-2.04-1.85-3.1l.04-.02Z"/><path class="cls-2" d="M290.47,122.93s-6.6.47-11.02,7.8c-4.42,7.34-6.27,17.19-7.18,19.43s.73,17.13,4.04,21.55c3.31,4.42,7.95,10.96,21.86,11.14,13.91.19,28.48-14.87,28.48-14.87,0,0,13.44.47,12.1-4.11-1.34-4.58-2.67-10.98-2.67-10.98,0,0-10.8,5.67-10.85.71s1.83-11.23,1.83-11.23l-3.51-5.02-11.73-7.8-1.57-6.62h-19.78Z"/><path class="cls-1" d="M285.06,190.71c.1-1.17.38-2.32.8-3.41.15-.4.25-.82.46-1.2.73-1.33,1.87-2.55,3.37-3.15.64-.29,1.33-.46,2.01-.48.9-.11,1.75.51,2.32,1.02.19.15.1.22-.13.26-.12.02-.26.01-.45.12-.19.09-.4.24-.58.35-.16.1-.31.21-.44.32-.07.07-.13.11-.19.19l-.17.09c-.23.12-.43.27-.62.41-.42.14-.82.34-1.33.63-.65.32-.96,1.07-1.29,1.76-.37.78-.67,1.63-.81,2.53-.09.55-.14,1.12-.11,1.68.04.85.16,1.74.5,2.53.27.61.73,1.12,1.18,1.58.09.11.22.18.31.29.31.41.25.66-.21,1.22-.11.13-.2.26-.31.38-.37.4-.88.51-1.36.26-1.34-.82-2.17-2.3-2.61-3.83-.34-1.15-.43-2.35-.39-3.54h.07Z"/><path class="cls-1" d="M280.88,201.31c1.24-1.36,2.53-2.8,4.6-3.71.77-.35,1.39-.54,2.07-.69,1.17-.25,2.34-.23,3.48-.3l3.41-.1c1-.02,2-.15,3-.1.64,0,1.28,0,1.92.04.64.06,1.29.18,1.92.21.1,0,.17.02.22.04h.04s.02.02.02.02h0s.01,0,.03.03c.04.02.02.14-.01.14-.07.03-.03,0-.05.01-.02,0-.02-.01-.02-.02,0,0,0-.02.02-.03.03-.11-.02-.04,0-.06,0,0-.02,0-.02,0l-.03.02c-.06.03-.13.06-.19.08-.23.09-.46.19-.67.28-.28.13-.6.33-.95.47-.63.22-1.26.4-1.88.6-.63.19-1.25.41-1.89.45-1.27.16-2.54.28-3.82.34-1.53.06-3.07.56-4.5.84-.4.08-.75.19-1.04.32-.32.08-.63.33-.95.49-.63.45-1.26.95-1.83,1.56-.73.72-1.41,1.53-2.06,2.36-.98,1.27-1.95,2.59-2.82,3.96-.68,1.07-1.25,2.18-1.94,3.25-.15.24-.29.48-.46.71-.62.86-1.03.99-1.6.79-.13-.05-.27-.08-.38-.14-.38-.21-.41-.78-.09-1.43.93-1.97,1.96-4.04,3.27-6.04.95-1.49,1.99-2.97,3.17-4.41l.05.04Z"/><path class="cls-1" d="M349.87,114.7c-.79-.7-1.6-1.38-2.43-2.03-.82-.68-1.68-1.29-2.53-1.92-.62-.47-1.32-.8-1.94-1.26-2.24-1.56-4.55-3.05-7.02-4.24-.54-.29-1.11-.5-1.67-.75-.56-.24-1.11-.5-1.68-.71-1.46-.53-2.93-1.01-4.32-1.88-.44-.26-.37-.27.08-.35.23-.04.55-.12.95-.21.4-.11.87-.19,1.34-.15,1.65.21,3.25.65,4.83,1.15.78.29,1.51.67,2.26,1.04.75.36,1.47.77,2.17,1.21.85.51,1.74.99,2.63,1.48.9.46,1.79.97,2.65,1.51,1.87,1.2,3.64,2.55,5.37,3.93,1.05.87,2.09,1.75,3.1,2.66,1.55,1.36,2.99,2.84,4.48,4.24,1.13,1.11,2.36,2.1,3.49,3.21.25.24.53.45.76.72.88.97.95,1.44.5,2.15-.1.16-.19.33-.31.47-.38.45-1.15.4-1.87-.19-2.13-1.75-4.08-3.79-6.15-5.75-1.54-1.45-3.08-2.92-4.73-4.26l.04-.06Z"/><path class="cls-1" d="M346.92,114.19c-.83-.79-1.67-1.57-2.55-2.32-.32-.28-.67-.49-.99-.77-1.12-.96-2.25-1.92-3.43-2.81-.52-.4-1.06-.78-1.61-1.13-.7-.45-1.43-.88-2.06-1.45-.2-.18-.04-.38.29-.51.33-.12.85-.19,1.3,0,.8.35,1.58.73,2.34,1.15.76.42,1.44.98,2.11,1.54.8.69,1.75,1.21,2.61,1.84.95.69,1.87,1.42,2.78,2.16l1.67,1.38c.84.7,1.65,1.44,2.51,2.1.67.52,1.41.91,2.12,1.37.16.1.32.19.46.31.52.45.57.72.24,1.31-.07.13-.14.27-.22.39-.28.41-.77.54-1.26.34-1.45-.57-2.58-1.59-3.78-2.57-.87-.74-1.73-1.51-2.59-2.28l.03-.05Z"/><path class="cls-1" d="M358.26,119.96c-.6-.45-1.16-.94-1.67-1.42-.19-.17-.4-.31-.59-.49-.64-.63-1.25-1.26-1.92-1.81-.29-.25-.63-.44-.94-.64-.41-.26-.83-.49-1.23-.79-.12-.1-.06-.22.13-.34.18-.11.51-.22.81-.16,1.11.2,1.99.87,2.76,1.57.45.44,1.01.75,1.51,1.12.55.41,1.07.81,1.63,1.16.34.22.69.43,1.05.6.54.26,1.1.51,1.69.58.45.06.9-.07,1.3-.2.09-.02.17-.07.26-.09.32-.06.43.04.65.6l.15.38c.15.43.06.83-.28,1.03-1.01.61-2.26.4-3.26.03-.76-.28-1.43-.69-2.06-1.11l.02-.04Z"/><path class="cls-1" d="M286.39,187.06c.58-.75.95-1.87,2.27-1.97s2.14,1.41,6.66,1.97c4.52.56,11.88-1.37,14.94-2.98s9.19-5.84,9.19-5.84l-1.24-1.92-8.85,5.45-13.36,1.3s-9.71-2.91-10.69-3.23c-.98-.31-2.86,1.93-2.86,1.93l3.94,5.29Z"/><path class="cls-1" d="M261.21,243.93c.68-2.22,1.34-4.44,2.09-6.63l1.1-3.3,1.19-3.26c.56-1.59,1.1-3.2,1.74-4.76,1.08-2.78,2.34-5.48,3.54-8.2,1.31-2.68,2.57-5.37,4-7.98,1.19-2.35,2.57-4.63,3.82-6.93.89-1.43,1.74-2.89,2.67-4.3.97-1.38,2.06-2.69,3.22-3.92.72-.77.73-.58.47.31-.15.53-.33,1.16-.53,1.85-.25.74-.61,1.56-1.07,2.39-3.36,5.85-6.39,11.85-9.43,17.95-1.83,3.65-3.22,7.68-4.65,11.61-.79,2.16-1.5,4.35-2.26,6.52-.69,2.2-1.43,4.38-2.07,6.59l-1.19,4.08-1.09,4.11c-1.07,4.16-2.05,8.37-2.83,12.57-.57,3.27-.91,6.51-1.25,9.77-.07.72-.15,1.42-.22,2.14-.34,2.67-.7,3.49-1.65,3.95-.22.1-.44.25-.65.3-.7.17-1.11-1-1.05-3.01.19-5.95,1.24-12.13,2.56-18.27.49-2.28,1.05-4.55,1.61-6.82.62-2.26,1.17-4.53,1.84-6.77h.08Z"/><path class="cls-1" d="M312.07,236.26c-.59-2.3-1.07-4.62-1.22-6.95-.04-.42-.09-.85-.15-1.27-.04-.42-.06-.85-.06-1.27-.04-2.99.26-5.95.85-8.82.21-1.28.46-2.56.73-3.82.4-1.6.68-3.24,1.52-4.71.24-.46.43-.34.63.16.11.25.2.59.35,1.01.11.4.13.85.07,1.31l-.26,2.44c-.09.81-.11,1.62-.27,2.42-.23,1.59-.47,3.19-.7,4.8-.35,1.93-.15,3.96-.05,5.93.19,2.16.44,4.33,1.03,6.42.29,1.31.79,2.55,1.25,3.81.46.9.82,1.86,1.34,2.74.54.86,1,1.78,1.67,2.54.51.6.99,1.21,1.57,1.73l1.75,1.52c.25.22.56.38.82.6.99.79,1.11,1.25.75,2.11-.08.2-.15.41-.25.58-.33.59-1.12.69-2,.15-2.64-1.55-4.82-4.05-6.5-6.82-1.31-2.04-2.17-4.33-2.95-6.59l.07-.03Z"/><path class="cls-1" d="M279.45,130.74c-1.07-.34-4.39-4.98-2.64-7.8,1.75-2.83,5.34-6.09,8.5-6.02,3.16.06,16.22,1.24,16.22,1.24l14.29,4.78s11.05,9.46,14.07,12.7c3.01,3.24,11.04,14,11.04,14l3.27,9.11s.07,4.6-2.32,6.67-7.78,1.35-7.78,1.35c0,0,5.76-6.41,2.87-9.12-2.89-2.71-7.84-4.03-7.84-4.03,0,0-2.52,4.2-3.9,0-1.37-4.2-2.47-4.89-1.45-7.46,1.02-2.57,2.26-7.29,2.26-7.29,0,0-7.26,2.83-10.46-1.31-3.2-4.14-5.13-12.95-5.13-12.95,0,0-8.41.34-10.86.52-2.46.19-12.32-2.19-12.32-2.19l-5.9,5.46-1.92,2.34Z"/><path class="cls-1" d="M272.27,163.9c-.09-.65.07,12.64-3.37,16-3.44,3.36-9.22,14.71-10.16,17.42s-2.78,5.89-1.11,7.6c1.67,1.71,8.71,2.14,11.02-.62,2.32-2.76,8.92-5.91,8.92-5.91,0,0,8.82-1.53,8.82-4.68s-.66-7.72-.66-7.72l-2.25-7.28s-10.52-9.76-11.21-14.82Z"/><path class="cls-1" d="M326.65,167.99s-9.2,12.47-10.75,16.25c-1.56,3.78-2.49,10.75-1.5,13.09.99,2.34,3.31,9.73,6.48,11.87s13.95,6.23,16.37,4.28,9.39-4.92,10.7-4.28,12.87,9.11,12.87,9.11c0,0,6.33.65,9.81-.9,3.48-1.55,9.03-7.2,9.03-7.2l4.16-9.34s-.2-9.02-.81-10.76-5.89-13.86-5.89-13.86l-1.6-2.53s-8.11,2.17-13.2,2.98c-5.9.94-15.88-3.39-15.88-3.39,0,0-6.76-1.71-7.69-5.47s0-3.97,0-3.97c0,0-6.59,4.23-8.2,4.35s-3.9-.24-3.9-.24Z"/><path class="cls-1" d="M98.36,340.39c.08-1.95.15-3.91.17-5.86.01-.71-.07-1.42-.06-2.13.12-2.52.28-5.04.31-7.56,0-1.12,0-2.24-.01-3.35-.07-1.42.22-2.87.23-4.3.02-.45.08-.39.22-.02.09.25.18.52.26.76.12.32.3.68.43,1.08l.36,1.07c.06.18.11.36.18.53l.11.54c.15.72.29,1.44.41,2.16.13,1.45.2,2.91.18,4.38-.05,1.76.31,3.57.34,5.37.05,1.98.07,3.95.08,5.93v3.65c.03,1.84-.02,3.69.04,5.52.06,1.42.3,2.81.45,4.21.03.31.1.61.11.92.08,1.16-.27,1.53-1.08,1.77-.19.06-.37.13-.55.16-.6.11-1.18-.36-1.46-1.2-.61-2.49-.76-5.11-.84-7.75-.06-1.96.04-3.93.04-5.89h.08Z"/><path class="cls-1" d="M224.43,363.65c-1.03.25-2.05.5-3.07.77-.37.1-.71.27-1.08.36-1.3.36-2.63.64-3.92,1.04-.57.17-1.12.42-1.67.62-.7.29-1.39.6-2.16.77-.24.05-.32-.18-.26-.51.06-.33.25-.8.61-1.08.66-.45,1.31-.95,2.03-1.27.72-.33,1.47-.61,2.24-.82.92-.26,1.81-.69,2.72-1.02,1.01-.35,2.02-.67,3.03-.99l1.86-.59c.93-.31,1.88-.6,2.78-.99.69-.31,1.31-.77,1.94-1.18.14-.09.27-.2.41-.28.53-.3.81-.15,1.22.48.09.14.2.28.28.42.27.46.25,1.06-.11,1.41-1.06,1.02-2.42,1.54-3.78,2.01-1.01.34-2.05.62-3.07.92l-.02-.06Z"/><path class="cls-1" d="M197.5,388.79c-1.52-6.08-2.95-12.19-4.13-18.37-.38-2.28-.93-4.51-1.18-6.82-.11-1.02-.29-2.01-.35-3.05l-.2-3.09c-.03-1.04.04-2.11.06-3.17,0-.53.08-1.06.15-1.58.06-.53.15-1.05.26-1.57.79-4.19,2.86-8.16,5.82-11.19,2.62-2.69,5.78-4.79,9.09-6.32,2.13-.97,4.33-1.8,6.58-2.42,2.26-.58,4.59-.8,6.89-.85,1.46.12,1.28.26.19.99-.54.38-1.32.82-2.24,1.36-.92.54-1.99,1.1-3.17,1.54-4.26,1.29-8.33,3-11.85,5.4-1.75,1.21-3.31,2.65-4.63,4.28-1.3,1.65-2.33,3.51-3.06,5.54-1.81,4.9-.83,10.66,0,16.22.98,6.13,2.38,12.25,3.86,18.34.91,3.75,1.88,7.49,2.89,11.21,1.53,5.64,3.11,11.31,4.8,16.87,1.32,4.32,2.79,8.51,4.17,12.77.31.94.62,1.85.9,2.81,1.04,3.54,1.09,4.76.52,5.72-.13.22-.25.5-.41.64-.52.5-1.41-.82-2.31-3.34-2.73-7.49-5.25-15.53-7.65-23.65-1.77-6.03-3.47-12.12-5.07-18.24l.08-.03Z"/><path class="cls-1" d="M222.4,408.23l-1.85-10.02c-.22-1.22-.54-2.42-.74-3.64-.73-4.31-1.43-8.61-2.08-12.93-.3-1.91-.67-3.82-1.05-5.7-.26-1.21-.49-2.42-.69-3.64-.23-1.21-.31-2.46-.3-3.71.08-.8.33-.74.93-.19.31.27.65.68,1.02,1.18.18.25.38.52.53.82.14.3.26.62.35.97.68,2.43,1.18,4.89,1.65,7.36.46,2.47.91,4.95,1.19,7.48.36,3.02,1.15,6.08,1.74,9.12l1.97,10.03,1.26,6.16c.67,3.1,1.32,6.23,2.13,9.28.63,2.37,1.44,4.64,2.19,6.94.17.51.33,1,.48,1.52.53,1.92.5,2.58-.11,3.2-.14.14-.27.31-.42.41-.5.34-1.18-.31-1.79-1.67-1.82-4.01-3.02-8.46-4.18-12.92-.84-3.32-1.59-6.68-2.32-10.02l.08-.02Z"/><path class="cls-1" d="M184.79,377.55c-1.42-6.2-2.72-12.44-3.81-18.74-.39-2.3-.86-4.58-1.15-6.9-.51-4.09-.92-8.21-.82-12.41.05-2.1.19-4.22.76-6.36.12-.53.35-1.07.53-1.6.21-.52.49-.99.73-1.48.13-.24.25-.49.38-.73l.47-.67c.32-.44.6-.91.96-1.32,2.49-2.93,5.61-5.17,8.87-6.87,2.08-1.12,4.24-2.07,6.41-2.92,1.09-.43,2.18-.82,3.27-1.19.54-.2,1.09-.35,1.65-.5.56-.14,1.07-.34,1.64-.44,1.39-.23,1.35-.09.49,1.02-.43.54-1.14,1.18-2,1.87-.88.65-1.97,1.23-3.19,1.73-2.15.88-4.25,1.8-6.25,2.84-1.99,1.05-3.93,2.16-5.62,3.52-1.69,1.35-3.17,2.9-4.24,4.67l-.73,1.37c-.16.48-.37.91-.5,1.43-.27,1.01-.47,2.1-.59,3.22-.57,5.41.35,11.29,1.22,16.95.98,6.26,2.25,12.5,3.65,18.71.86,3.82,1.77,7.64,2.74,11.44,1.46,5.76,2.97,11.54,4.62,17.21,1.28,4.41,2.75,8.67,4.14,12.99.31.95.64,1.87.93,2.84,1.09,3.58,1.21,4.78.61,5.79-.14.23-.26.51-.41.67-.54.53-1.48-.79-2.43-3.36-2.81-7.63-5.33-15.82-7.64-24.11-1.7-6.16-3.29-12.4-4.78-18.64l.08-.03Z"/><path class="cls-1" d="M301.98,198.41c-1.82.19-3.65.28-5.48.24-.67-.04-1.34,0-2.01-.08-2.35-.29-4.74-.84-6.85-2.09-.94-.54-1.8-1.27-2.46-2.16-.86-1.14-1.14-2.62-.98-3.93.04-.41.14-.35.33-.02.12.22.25.44.37.64.18.25.34.53.52.81.65.99,1.36,1.74,2.28,2.31.9.59,1.94,1.11,3.09,1.5,1.38.49,2.97.51,4.5.53,1.7.02,3.42-.03,5.14-.23,1.06-.11,2.11-.28,3.16-.47,1.58-.32,3.18-.68,4.69-1.24,1.17-.44,2.25-1.06,3.31-1.68.24-.13.45-.3.69-.41.9-.43,1.26-.41,1.8.16.12.13.26.25.36.39.35.46.19,1.08-.43,1.61-1.86,1.54-4.22,2.41-6.59,3.09-1.77.5-3.6.83-5.42,1.08v-.07Z"/><path class="cls-1" d="M260.09,196.1c-.92,2.08-1.64,4.33-1.5,6.17.11.89.37,1.6.94,2.12.53.55,1.48.98,2.35,1.15.64.17,1.27.04,1.91-.11.64-.21,1.3-.54,1.96-.96,2.39-1.48,4.52-4.01,7.47-5.82.71-.45,1.61-.89,2.46-1.12.86-.25,1.69-.39,2.49-.51,1.59-.24,3.09-.41,4.31-.97,2.2-.91,3.17-3.63,2.97-6.16-.2-3.37-1.65-6.68-2.06-10.32-.04-1.16-.1-.98.47-.17.3.4.7.97,1.23,1.64.49.69.97,1.53,1.39,2.51.18.43.37.87.53,1.32.14.45.28.91.4,1.38.25.93.45,1.9.57,2.9.26,1.96.11,4.31-1,6.34-.54,1.02-1.38,1.98-2.38,2.64-1,.67-2.07,1.05-3.07,1.3-1.99.49-3.79.58-5.22,1.07-.8.25-1.67.76-2.51,1.36-.84.62-1.66,1.32-2.5,2.07-1.69,1.47-3.37,3.23-5.88,4.26-1.36.56-3.01.73-4.49.37-1.42-.39-2.84-.98-3.92-2.22-.54-.59-.92-1.32-1.19-2.06-.22-.74-.36-1.49-.36-2.21-.03-1.45.25-2.78.64-4.04.98-3.09,2.52-5.82,4.12-8.45,1.2-2,2.56-3.92,3.82-5.82,1.27-1.93,2.54-3.85,3.65-5.8.85-1.52,1.56-3.05,1.85-4.65.32-1.6.35-3.3.4-5.04.02-.76,0-1.53.05-2.3.16-2.89.44-3.81,1.27-4.38.19-.13.38-.3.56-.37.62-.23,1.04.97,1.12,3.1.07,1.58.12,3.17.07,4.81-.05,1.64-.13,3.38-.57,5.21-.44,1.84-1.28,3.52-2.13,5.02-.86,1.51-1.77,2.91-2.68,4.33-.68,1.03-1.35,2.08-2.06,3.12-.7,1.02-1.37,2.03-2.03,3.05-1.32,2.03-2.46,4.15-3.39,6.28l-.07-.03Z"/><path class="cls-1" d="M274.31,162.59c.13.69.41,1.33.61,1.99l.33.99.16.5.22.47c.6,1.25,1.11,2.56,1.91,3.71,1.36,2.47,3.22,4.47,5.42,6.17,1.61,1.22,3.41,2.18,5.28,2.98,6.6,2.89,14.42,3.11,21.35.57,3.08-1.11,5.96-2.81,8.47-4.89,1.63-1.31,3.13-2.79,4.55-4.36.7-.79,1.39-1.59,2.06-2.41.66-.83,1.42-1.58,2.12-2.4.97-.95,1.06-.7.88.56-.08.64-.29,1.48-.62,2.49-.37.97-.97,2.02-1.78,3.02-1.44,1.78-3.04,3.46-4.79,4.99-1.76,1.51-3.71,2.83-5.77,3.93-4.14,2.19-8.75,3.46-13.44,3.66-5.56.2-11.47-.68-16.56-3.4-2.78-1.49-5.31-3.47-7.37-5.88-2.04-2.45-3.48-5.21-4.74-8.05-1.37-3.58-2.1-7.36-2.26-11.14-.18-5.74,1.03-11.46,3.13-16.7,1.68-4.06,3.79-7.88,6.54-11.3.3-.38.59-.76.89-1.14.31-.36.65-.71.99-1.06.63-.65,1.17-1.17,1.63-1.6.49-.39.93-.66,1.3-.87.74-.41,1.27-.52,1.8-.46.24.03.52.02.7.1.6.26-.19,1.55-1.92,3.29-2.5,2.69-4.74,5.69-6.62,8.96-1.9,3.26-3.35,6.83-4.25,10.52-1.45,5.47-1.49,11.29-.12,16.72l-.07.03Z"/><path class="cls-1" d="M327.95,153.35c.07.02.14.05.2.08.02,0,.03.03.08.03.08.02.25,0,.49-.05.47-.1,1.17-.32,1.94-.44.77-.12,1.63-.12,2.41.04.79.17,1.46.37,2.23.81,1.03.61,1.85,1.36,2.45,2.3.51.84.92,1.79.95,2.92,0,.54-.07.9-.11,1.36-.02.43-.12.86-.23,1.29-.37,1.71-1.22,3.37-2.48,4.61-1.11,1.1-2.46,1.94-3.91,2.38-.93.29-1.9.42-2.87.39-.48-.02-.97-.06-1.44-.21-.46-.18-.91-.37-1.3-.68-.48-.37-.37-.35.15-.41.25-.02.62-.13,1.02-.26.19-.05.41-.17.62-.22.21-.04.42-.06.65-.09,1.59-.14,3.04-.81,4.26-1.59,1.2-.86,2.06-2.06,2.62-3.53.19-.43.25-.93.36-1.4.02-.47.07-1.06.06-1.45-.05-.67-.56-1.51-1.16-2.14-.33-.36-.72-.65-1.1-.85-.17-.09-.41-.17-.65-.25-.24-.06-.47-.12-.71-.15-.47-.06-.93-.04-1.43.06-.51.1-1.04.31-1.77.49-2.16.59-4.16-.77-5.06-2.31-.71-1.17-1.04-2.41-1.24-3.63-.2-1.23-.28-2.39-.25-3.67.11-1.95.6-3.83,1.44-5.53.19-.37.36-.74.58-1.1.84-1.29,1.34-1.53,2.08-1.34.17.04.35.07.5.14.5.23.48.97.08,1.89-.61,1.37-1.11,2.76-1.37,4.11-.25,1.37-.24,2.54-.07,4.06.13,1.05.36,2.08.73,2.87.39.81.77,1.23,1.24,1.41l-.02.08Z"/><path class="cls-1" d="M315.73,138.06c-.56-.46-1.1-.94-1.6-1.47-.53-.49-.98-1.08-1.44-1.63-.35-.39-.68-.82-.98-1.26-.97-1.61-1.66-3.4-1.92-5.24-.06-.4-.06-.82-.11-1.22-.05-.4-.1-.8-.07-1.21.03-.51-.07-1.04.09-1.54.15-.5.31-.99.57-1.44.17-.28.35-.19.63.13.28.32.69.84.78,1.35.25.91.12,1.76.35,2.6l.09.63c.05.21.1.41.14.62.08.42.12.86.26,1.28.07.26.15.51.25.76.11.25.27.47.41.71.15.23.29.47.46.68.18.21.36.43.52.65.74.97,1.62,1.85,2.57,2.68.6.49,1.21.98,1.89,1.39,1,.65,2.06,1.24,3.18,1.66.88.3,1.81.4,2.72.5l.6.05c.73.11.91.37.88,1.25,0,.2,0,.4-.02.6-.06.67-.49,1.13-1.13,1.17-1.88.1-3.76-.48-5.5-1.33-1.29-.64-2.52-1.43-3.68-2.32l.04-.06Z"/><path class="cls-1" d="M294.44,123.96c1.31.33,2.69.62,4.12.63.52.04,1.03-.06,1.56-.08,1.85-.02,3.74-.22,5.62-.59.84-.14,1.64-.44,2.44-.71l.76-.31c.26-.09.52-.16.79-.23.26-.07.53-.14.8-.19.26-.07.61.06.91.07.4.08.4.21.27.67-.09.34-.19.68-.27.98-.14.35-.36.61-.63.8-.97.71-2.12.97-3.23,1.32-1.13.3-2.29.54-3.49.59-1.42.09-2.86.43-4.33.51-1.61.05-3.24-.03-4.83-.35-.99-.15-1.95-.48-2.9-.76-.7-.29-1.41-.56-2.08-.92-.65-.4-1.35-.69-1.95-1.14-.47-.34-1.01-.59-1.48-.93l-1.43-1.03c-.2-.16-.39-.32-.57-.51-.55-.8-.55-1.19-.14-1.75.09-.13.17-.26.26-.36.31-.34.93-.36,1.55-.09.22.11.48.18.65.33.19.13.36.27.57.38.39.23.77.48,1.13.74.36.26.77.44,1.13.69.35.27.75.46,1.14.67,1.13.67,2.39,1.13,3.69,1.49v.07Z"/><path class="cls-1" d="M359.04,98.52c-1.8-3.2-4.42-5.94-7.62-7.85-.55-.4-1.22-.61-1.83-.91l-.93-.43c-.31-.14-.63-.23-.94-.35-2.21-.82-4.65-1.24-7.11-1.4-2.47-.15-4.97-.04-7.45.3-2.2.32-4.37.88-6.44,1.63-1.32.49-2.61,1.08-3.84,1.73-.61.35-1.24.63-1.86.95-.64.3-1.22.66-1.97.85-.5.09-.73.12-.76.07-.03-.06.11-.22.25-.67.23-.92.98-2.52,2.52-3.48,5.52-3.11,11.75-4.49,17.98-4.23,1.86.1,3.76.19,5.67.5,1.89.26,3.86.76,5.62,1.58,3.89,1.69,7.34,4.42,9.86,7.81.84,1,1.43,2.17,2.1,3.27.31.57.55,1.17.82,1.75.27.58.54,1.17.73,1.79,1.35,3.66,1.86,7.57,1.89,11.39,0,.75,0,1.49,0,2.23l-.13,2.21c-.02.74-.12,1.47-.22,2.2-.11.73-.17,1.48-.33,2.2-.14.64-.25,1.27-.41,1.91-.14.6-.3,1.08-.48,1.47-.17.39-.34.7-.52.93-.19.23-.38.4-.59.51-.25.1-.51.15-.76.19-.22.03-.43.11-.59.12-.38.08-1.14-1.26-.64-2.81.17-.59.24-1.21.36-1.82.12-.61.23-1.21.35-1.82.08-.61.17-1.23.26-1.85.11-.61.17-1.24.21-1.86.3-2.49.23-5.02.04-7.52-.39-3.7-1.42-7.36-3.31-10.54l.06-.05Z"/><path class="cls-1" d="M352.25,292.68c-1.17-2.88-1.99-5.78-2.71-8.67-.38-1.45-.73-2.9-1.04-4.35-.34-1.45-.62-2.91-.9-4.37-.43-2.13-.87-4.25-1.21-6.38-1.2-7.53-1.87-15.07-2.99-22.54-.5-3.31-1.13-6.62-1.83-9.85-.9-4.17-2.11-8.24-2.89-12.47-.21-1.33-.11-1.18.55-.21.67.97,2.02,2.74,2.84,5.11,1.32,4.22,2.48,8.5,3.26,12.85.8,4.34,1.43,8.7,1.96,13.09.64,5.24,1.62,10.63,2.53,15.9,1.03,5.79,2.26,11.57,3.98,17.15,1.09,3.4,2.45,6.73,4.64,9.4,1.63,2.04,3.74,3.6,6.23,4.48,2.48.93,5.2,1.37,7.92,2.09,1.06.28,2.12.6,3.16,1.02,1.04.43,2.04.93,3,1.52,1.9,1.19,3.62,2.68,5.01,4.47.63.78,1.18,1.59,1.68,2.47.9,1.65,1.22,2.88,1.31,3.75.06.88-.11,1.42-.49,1.88-.16.21-.32.46-.5.58-.63.41-1.29-.88-2.25-2.97-1.46-3.11-3.81-5.87-6.76-7.69-2.87-1.88-6.58-2.36-10.65-3.41-1.51-.41-3.07-.91-4.58-1.68-1.51-.78-2.93-1.8-4.12-2.98-2.4-2.39-4-5.27-5.22-8.15l.07-.04Z"/><path class="cls-1" d="M378.6,314.88c-.81-.84-1.62-1.62-2.57-2.24-.35-.24-.74-.4-1.11-.62-1.3-.79-2.69-1.48-4.12-2.04-.64-.25-1.3-.44-1.95-.58-.85-.14-1.68-.36-2.53-.57-.27-.07-.24-.23,0-.44.24-.21.71-.51,1.27-.58.49-.07.97-.03,1.44.03.47.06.94.13,1.4.23.93.19,1.82.49,2.68.9,1.02.48,2.15.8,3.2,1.3,1.15.53,2.3,1.27,3.29,2.06.62.49,1.21,1,1.77,1.55.86.82,1.64,1.72,2.43,2.62.61.71,1.32,1.35,1.84,2.33.11.21.23.45.31.7.26,1.01-.15,1.49-.92,1.46-.17,0-.34,0-.49-.02-.26-.05-.49-.18-.73-.31-.26-.14-.35-.2-.5-.33-.52-.66-1.39-1.83-2.37-2.93-.73-.84-1.55-1.65-2.38-2.46l.04-.05Z"/><path class="cls-1" d="M377.32,318.43c-.83-.91-1.8-1.73-2.76-2.57-.36-.29-.78-.51-1.14-.8-1.3-1-2.68-1.95-4.15-2.71-.65-.33-1.34-.61-2.03-.81-.9-.24-1.77-.48-2.65-.87-.27-.28-.24-.29.05-.6.27-.28.84-.67,1.45-.69.54-.02,1.09.02,1.59.16.51.12,1.03.23,1.51.41,1,.31,1.92.8,2.79,1.36,1.03.69,2.22,1.16,3.27,1.85,1.17.73,2.25,1.59,3.29,2.51.63.57,1.24,1.17,1.83,1.8.44.48.87.98,1.26,1.52.19.29.39.51.59.86l.62,1.13c.15.61.57,1.25.45,1.9-.08.68-.56,1.19-1.13,1.52-.26.15-.54.28-.86.38-.6.16-1.07.13-1.36,0-.29-.17-.34-.46-.45-.86-.04-.18-.09-.36-.11-.52-.04-.29.03-.55.16-.82.06-.13.17-.28.22-.34.04-.1.07-.16.11-.21.19-.29.11-.48,0-.58-.06-.04-.1-.05-.11-.06-.01-.01-.03-.02-.04-.03l-.15-.2c-.58-.89-1.4-1.83-2.28-2.68l.05-.05Z"/><path class="cls-1" d="M373.92,321.63l1.2.8.29.18.03.04s.06.06.09.09c.14.12.34.28.62.35.07.02.16.02.23,0,.17-.15-.09-.4-.12-.53-.05-.13-.13-.29-.24-.48,0-.01-.27-.37-.49-.64l-.69-.82c-.94-1.08-1.94-2.14-2.99-3.08-.94-.83-2.02-1.52-3.1-2.15-1.38-.84-2.95-1.41-4.19-2.68-.37-.41-.32-.37.19-.41.52-.06,1.5-.26,2.44.04,1.6.61,3.27,1.3,4.73,2.35,1.5,1.01,2.83,2.25,3.99,3.54.79.84,1.58,1.69,2.37,2.55.61.66,1.14,1.37,1.57,2.05.42.69.61,1.3.68,1.84.03.41.03.8-.19,1.23-.22.46-.72.71-1.12.83-.84.19-1.73.09-2.75-.25-.51-.2-1.03-.41-1.55-.69-.49-.22-1.11-.59-1.36-.75-1.23-.78-2.39-1.62-3.56-2.42-1.74-1.21-3.53-2.36-5.39-3.41-1.44-.8-2.94-1.39-4.42-1.98-.33-.13-.65-.24-.97-.38-1.18-.53-1.48-.85-1.48-1.66,0-.18-.02-.37,0-.54.07-.58.78-.84,1.81-.63,3.07.61,5.86,2.21,8.54,3.76l1.49.9c.52.32,1.02.65,1.5.97l2.85,1.9-.04.07Z"/><path class="cls-1" d="M232.65,273.65c.54-.46,1.03-.95,1.47-1.48.46-.56.92-1.24,1.38-1.85.95-1.22,1.77-2.59,2.64-3.9.86-1.32,1.63-2.72,2.45-4.08l2.31-4.19c1.08-2.08,2.09-4.18,3.14-6.27,3.74-7.36,7.35-14.83,11.07-22.26,1.67-3.29,3.25-6.64,5-9.86,2.24-4.12,4.4-8.42,7.77-11.84,1.16-.97.92-.89.53.35-.42,1.23-1.08,3.48-2.38,5.8-4.48,8.31-8.56,16.92-12.91,25.53-2.61,5.15-4.96,10.69-7.62,15.99-2.94,5.82-6,11.62-9.88,17l-.9,1.24c-.34.41-.68.85-1.07,1.22-.75.78-1.57,1.47-2.44,2.08-1.73,1.23-3.62,2.14-5.52,2.9l-2.13.82c-.8.3-1.71.49-2.53.52-1.66.08-3.18-.11-4.67-.21-2.97-.25-5.88-.18-8.62.68-2.06.59-4.15,1.73-5.98,2.85-.22.14-.43.29-.56.4,0,0,0,0,0,0,.04.04-.09-.09-.2-.17-.09-.08-.26-.17-.29-.23-.04-.06-.09-.11-.16-.14-.03-.01-.07-.02-.1-.03h-.06s-.03,0-.03,0h-.01c-.1,0,.84,0,.44,0-.02,0-.04,0-.07,0-.01,0-.03,0-.04.02,0,0,.02,0,.03-.01.02-.01.03-.03.04-.04.11-.09.15-.17.23-.34.16-.29.06-.15.1-.18.03,0,.06.01.09.02.09,0,.18.03.3.03.22.01.48,0,.74,0,1.05-.08,2.17-.31,3.29-.52.99-.2,1.97-.4,2.97-.6,3.76-.7,5.16-.55,6,.2.19.17.43.36.52.53.24.6-1.09.86-3.75,1.46-1.98.42-3.99.93-6.11,1.35-1.08.22-2.13.37-3.43.5-.34.02-.69.03-1.18-.05-.14-.03-.24-.04-.4-.09-.18-.06-.33-.12-.52-.21-.24-.15-.44-.27-.67-.53-.24-.29-.44-.62-.51-.97-.04-.18-.07-.36-.08-.54,0-.33.11-.79.32-1.12.13-.22.14-.2.17-.25l.09-.11.2-.21c.18-.17.35-.32.48-.42.28-.23.52-.4.77-.58.97-.71,1.96-1.24,2.98-1.78,1.02-.51,2.1-1.06,3.32-1.41,2.32-.68,4.78-.97,7.14-.91,1.74.02,3.45.22,4.98.34.78.07,1.49.09,2.13.06.32-.01.61-.06.88-.1.28-.08.4-.09.89-.28,1.56-.55,2.95-1.08,4.29-1.76,1.32-.68,2.58-1.46,3.63-2.4l.06.05Z"/><path class="cls-1" d="M208.16,292.47l-.38.13c-.15.05-.2.08-.44.13l-.66.21-.65.14-.62.07c-.19-.01-.39,0-.56-.04-.36-.06-.63-.23-.94-.43-.33-.37-.67-.81-.71-1.31-.06-.49.04-.99.27-1.5.18-.45.51-.88.81-1.32l.41-.47.36-.36c.89-.79,1.8-1.44,2.85-2.03,1.06-.55,2.08-.9,3.16-1.28.95-.31,1.91-.62,2.89-.8,1.24-.26,2.61-.36,3.81.31.38.09.32.1,0,.16-.16.03-.4.14-.67.35-.14.09-.28.23-.43.32-.15.07-.3.14-.47.19-2.25.68-4.39,1.35-6.66,2.29-1.26.43-2.45,1.51-3.41,2.48-.17.16-.28.27-.38.47-.11.17-.13.45.04.59.21.13.48.05.74,0l.17-.05.33-.13.7-.29c.47-.2.94-.41,1.41-.63,1.44-.68,2.88-1.37,4.31-2.04,1.11-.55,2.19-1.17,3.4-1.63.27-.09.53-.22.82-.28,1.08-.27,1.53-.04,1.75.6.05.15.11.29.14.44.06.49-.3.91-.87,1.14-.87.35-1.8.8-2.75,1.25-.99.44-2,.89-3,1.33-1.53.68-3.08,1.37-4.76,2.02l-.02-.05Z"/><path class="cls-1" d="M212.52,294.98c-1.39.5-2.7.76-3.55.37-.85-.27-1.75-1.42-1.57-2.43.09-.72.32-1.41.96-2.11.26-.3.62-.59.92-.87.35-.25.73-.54,1.05-.75.48-.29.96-.55,1.44-.79.99-.46,1.99-.83,3.04-1.15.84-.23,1.62-.65,2.48-.97.54-.22,1.08-.46,1.65-.65.29-.1.58-.18.88-.25.31-.07.65-.03,1,.03.47.14.3.2.04.43-.13.13-.28.34-.44.62-.17.24-.39.45-.65.63l-1.45.97c-.49.33-.98.68-1.57.92-.28.13-.59.26-.92.37-.27.1-.51.17-.77.28-.51.18-1.03.4-1.55.6-.62.26-1.24.57-1.79.96-.23.16-.37.29-.57.47-.21.18-.47.53-.29.83.18.27.53.21.84.14.2-.05.41-.12.64-.2.34-.15.84-.4,1.25-.61.64-.34,1.32-.72,2.05-1.04.72-.32,1.44-.6,2.16-.87,1.12-.42,2.19-.91,3.33-1.28.25-.08.49-.18.75-.25.96-.24,1.31-.05,1.6.64.07.16.14.31.19.46.14.52-.17,1.05-.79,1.31-1.83.76-3.79,1.29-5.62,2.03-.7.28-1.26.55-2.01.94l-1.12.56-.58.27-1.02.45v-.06Z"/><path class="cls-1" d="M232.33,288.69c.47-.18.94-.35,1.5-.5l.46-.11c.18-.03.37-.07.52-.08.33-.04.63-.04.93-.04,1.18.03,2.2.26,3.18.51,1.94.51,3.7,1.2,5.43,1.74l.47.14.41.11c.08.02.16.03.24.05.16.02.31.04.5.02.13,0,.28-.07.33-.19.03-.12-.05-.22-.13-.32-.08-.1-.17-.19-.28-.29-.13-.12-.12-.13-.61-.51-.76-.61-1.54-1.22-2.3-1.94-.38-.36-.75-.75-1.1-1.23-.09-.11-.17-.24-.26-.38-.09-.15-.18-.33-.26-.5-.15-.35-.24-.72-.25-1.09.07-.69.57-1.47.79-1.8.28-.42.55-.81.84-1.2,1.26-1.74,2.53-3.48,3.78-5.21.83-1.08,1.63-2.18,2.48-3.25.84-1.07,1.68-2.14,2.85-2.97.72-.52.53-.52.31.21-.12.36-.15.96-.35,1.58-.09.31-.17.67-.31,1.01-.15.33-.33.66-.54,1-1.24,1.94-2.43,3.91-3.78,5.76l-1.96,2.8-.94,1.38-.21.33c-.06.1-.16.25-.16.25-.03.03-.06.06-.09.1,0,.04,0,.08,0,.12,0,.02,0,.04.02.07.03.04.06.12.11.19.18.28.45.6.75.91.52.54,1.15,1.07,1.81,1.59.43.37,1.95,1.41,2.8,2.32.43.47.71.93.85,1.38.08.23.11.46.11.72-.02.25-.11.55-.26.78-.29.49-.73.8-1.21,1-.48.2-1.04.31-1.69.29-.71-.01-1.48-.14-2.24-.32-.1-.02-.19-.04-.28-.06l-.18-.05-.36-.09-.7-.19-2.72-.8c-1.76-.5-3.58-1.01-5.12-.93l-.33.04c-.1.02-.17.03-.3.07-.22.06-.48.15-.73.24-.51.18-1.04.39-1.56.61-1.05.43-2.11.91-3.16,1.38l-4.83,2.16c-.81.35-1.63.7-2.46,1.03l-1.26.49-.64.23c-.25.09-.58.18-.87.26-.71.19-1.42.29-2.06.17-.68-.18-1.34-.58-1.77-1.16-.43-.6-.51-1.36-.34-2.04.16-.7.55-1.4,1.09-2.05.63-.73.96-1.02,1.42-1.44.48-.42.96-.82,1.49-1.18.98-.65,1.7-.98,2.26-1.07.58-.07.98.05,1.34.3.17.12.36.22.47.35.19.22.11.51-.14.87-.25.36-.66.84-1.27,1.27-.58.44-1.15.91-1.68,1.4-.27.24-.52.49-.76.74-.12.13-.24.25-.34.38-.11.13-.05.09-.08.13-.06.18.1.24.17.19.02-.01.03-.02.03-.03h0s0-.01,0-.01l.13-.04.28-.1c.75-.27,1.53-.6,2.31-.93,3.38-1.45,6.73-3.11,10.37-4.62l.03.07Z"/><path class="cls-1" d="M239.4,360.2c5.75.31,11.63.16,17.46-.13,5.85-.3,11.69-.8,17.51-1.48,4.25-.51,8.46-1.21,12.66-1.93,7.39-1.3,14.78-2.81,21.79-5.3,3.48-1.25,6.91-2.74,9.85-4.8,1.46-1.04,2.78-2.2,3.75-3.63,1-1.43,1.76-3.07,2.35-4.78,1.03-3.06,1.58-6.34,1.86-9.63.29-3.3.33-6.62.23-9.92-.15-4.25-.61-8.49-1.1-12.72-.26-2.12-.56-4.23-.89-6.33-.17-1.05-.35-2.1-.55-3.15-.18-1.05-.27-2.12-.43-3.18-.31-2.67-.39-2.3.62-.22.48,1.04,1.33,2.51,1.93,4.39.65,1.87,1.3,4.1,1.77,6.56.41,2.18.82,4.37,1.08,6.58.26,2.21.46,4.43.6,6.65.26,4.45.29,8.95-.23,13.47-.26,2.26-.66,4.52-1.29,6.77-.63,2.24-1.46,4.49-2.77,6.58-.34.52-.66,1.04-1.07,1.53-.38.51-.8.97-1.24,1.41-.89.86-1.82,1.64-2.8,2.31-1.95,1.36-4.01,2.42-6.1,3.35-5.01,2.19-10.25,3.78-15.57,5.14-5.31,1.36-10.72,2.4-16.1,3.21-11.84,1.73-23.76,2.69-35.73,2.79-3.69,0-7.37-.05-11.11-.46-.94-.12-1.88-.25-2.86-.49-.24-.05-.5-.14-.76-.23-.29-.11-.63-.25-.9-.45-.28-.19-.52-.45-.71-.72l-.42-.6c-1.06-1.52-2.07-3.06-3.06-4.62-2.62-4.15-5.03-8.42-7.25-12.79-1.11-2.19-2.17-4.4-3.12-6.67-.47-1.14-.93-2.29-1.31-3.5-.18-.64-.35-1.13-.48-2.08-.02-.21-.02-.42-.02-.63.02-.21.04-.41.1-.61l.11-.29c.06-.09.16-.15.18-.25l.47-.38c.4-.22.86-.51,1.19-.67l.96-.42c.64-.3,1.28-.5,1.92-.74,4.11-1.45,8.21-2.51,12.32-3.58,4.11-1.05,8.22-2,12.36-2.88,1.83-.39,3.61-.79,5.46-1.14,3.43-.65,5.71-.99,7.33-1.08,1.63-.07,2.59.06,3.38.33.36.12.83.22,1.05.36.37.23-.13.56-1.34,1-1.21.43-3.11,1-5.6,1.5-6.18,1.3-12.48,2.71-18.83,4.24-3.17.78-6.35,1.58-9.51,2.47-1.57.46-3.14.93-4.67,1.44-.76.26-1.5.54-2.24.82l-1.03.45-.26.11c-.12.05-.04.02-.08.04l-.04.02h0s0-.01,0,.03l.09.36c.08.26.15.53.24.8.36,1.1.83,2.26,1.32,3.4,2.33,5.27,5.17,10.47,8.18,15.5,1.52,2.51,3.1,4.98,4.77,7.37l.32.44.14.2s0,.02.05.03c.43.15,1.1.29,1.77.38,1.34.2,2.79.31,4.23.38v.08Z"/><path class="cls-1" d="M219.77,304.22c4.5-1.24,9.02-2.31,13.54-3.35,1.65-.38,3.28-.84,4.93-1.19,5.83-1.23,11.67-2.4,17.53-3.44l2.17-.41.99-.2c.17-.04.36-.06.5-.13.16-.93.31-1.86.47-2.78.25-1.64.51-3.29.7-4.93.2-1.64.43-3.28.41-4.88-.05-.95.3-.98.88-.13.53.85,1.16,2.59,1.18,4.6,0,1.58-.11,3.14-.25,4.69-.08.77-.21,1.54-.33,2.31l-.22,1.28-.41,2.25-2.58.56-1.4.29-2.8.56c-1.87.38-3.76.7-5.65,1.01-4.08.66-8.24,1.77-12.35,2.72-4.52,1.04-9.04,2.11-13.52,3.31-2.75.74-5.5,1.51-8.19,2.4-1.67.56-3.34,1.14-4.94,1.82-.8.34-1.58.71-2.3,1.12-.18.1-.36.21-.52.32-.08.05-.17.11-.25.17l-.15.11c-.19.16-.39.33-.5.56-.11.21.01.44.12.62.06.09.12.19.18.27l.26.35c2.05,2.51,4.55,4.81,6.47,7.71.43.64.84,1.27,1.2,1.99.33.66.55,1.24.7,1.74.13.51.16.94.15,1.3-.02.72-.21,1.15-.53,1.49-.14.15-.28.34-.42.43-.49.27-.93-.77-1.84-2.31-.99-2.11-2.54-4.09-4.23-6.05-.89-.99-1.78-1.99-2.67-3-.46-.52-.93-1.05-1.41-1.68-.38-.5-.77-1.12-1.01-1.71-.11-.3-.18-.61-.2-.93,0-.16.01-.31.03-.47,0-.08.04-.15.01-.24l.05-.23c.26-.64.58-1.27,1.17-1.76.13-.13.26-.26.41-.38l.44-.33c.2-.15.39-.26.58-.39,2.31-1.39,4.54-2.18,6.8-3,2.26-.79,4.52-1.47,6.78-2.13l.03.07Z"/><path class="cls-1" d="M130.93,288.72c-4.18,0-8.36,0-12.53.07-2.09.03-4.16.09-6.23.18-1.03.04-2.03.13-3.05.2-.93.12-1.8.19-2.69.55-2.64.91-5.39,2.36-8.09,3.67-4.81,2.33-9.59,4.81-14.34,7.32-4.76,2.51-9.5,5.06-14.24,7.63-4.2,2.28-8.38,4.67-12.51,7.01-2.65,1.52-5.3,3.03-8.01,4.47-2.7,1.45-5.41,2.87-8.34,3.89-1.85.58-1.74.17-.6-1.14.57-.67,1.42-1.47,2.46-2.45,1.06-.93,2.4-1.83,3.91-2.71,5.37-3.1,10.8-6.12,16.26-9.12,5.46-3,10.97-5.96,16.56-8.83,6.71-3.41,13.44-7.38,20.47-10.7.96-.46,1.94-.91,2.95-1.31l1.51-.62,1.65-.54c.53-.21,1.14-.25,1.71-.35l.87-.12.81-.06c1.08-.07,2.16-.16,3.22-.19,4.26-.18,8.49-.19,12.72-.23,5.2.02,10.41.04,15.61.06,7.87.07,15.78.14,23.59.21,6.07.02,12.03-.15,18.04-.2,1.32-.01,2.62-.06,3.95-.05,1.24.02,2.26.06,3.12.12.86.07,1.55.22,2.12.33,1.14.25,1.79.54,2.31.92.24.17.55.34.69.5.46.51-1.56,1-5.19,1.4-10.73.5-22.03.35-33.38.3-8.43-.06-16.89-.17-25.33-.12v-.09Z"/><path class="cls-1" d="M400.83,290.79l-9.49-.13c-1.15-.02-2.31.06-3.46.03l-12.22-.35c-1.81-.05-3.62-.02-5.42-.01-2.3-.05-4.63.15-6.92-.46-.71-.29-.61-.45,0-.94.31-.25.74-.51,1.27-.77.26-.12.55-.27.85-.35.3-.07.62-.12.95-.13,4.68-.3,9.35-.17,14.08.08,2.83.17,5.77-.04,8.66-.07,3.18-.04,6.37-.02,9.56-.02h5.89c2.97,0,5.96.06,8.91,0,2.29-.05,4.55-.28,6.82-.4.5-.03.99-.09,1.5-.09,1.87,0,2.46.27,2.85,1.11.09.19.2.39.25.58.16.64-.61,1.17-1.97,1.39-4.04.54-8.28.57-12.55.62-3.18,0-6.37,0-9.55.01v-.08Z"/><path class="cls-1" d="M127.07,354.43c-5.62.11-11.25.26-16.84.61-1.02.06-2.04.15-3.05.26-1.01.1-2.02.2-3,.33-.43.05-.89.09-1.3.16l-1.18.21c-.38.1-.73.25-1.09.37-.38.16-.78.35-1.17.52-1.57.74-3.15,1.6-4.72,2.47-3.14,1.76-6.23,3.64-9.3,5.55-2.72,1.7-5.39,3.52-8,5.36-3.35,2.35-6.62,4.86-10.21,6.84-1.18.53-1.24.2-.73-.94.47-1.19,1.69-2.94,3.58-4.39,1.66-1.3,3.38-2.51,5.12-3.7,1.73-1.19,3.48-2.36,5.25-3.52,3.53-2.3,7.13-4.52,10.86-6.59,2.24-1.23,4.47-2.55,6.87-3.76,1.15-.6,2.64-1.21,4.03-1.41,1.36-.22,2.67-.4,3.97-.5,5.73-.5,11.42-.7,17.11-.87,3.51-.11,7.01-.17,10.51-.22,5.31-.1,10.64-.07,15.9-.12,4.1-.04,8.11-.19,12.18-.2.89-.01,1.77-.01,2.68.01,3.35.09,4.42.46,5.06,1.32.15.2.34.41.42.6.25.67-1.14,1.09-3.54,1.1-7.17.16-14.75.2-22.37.27-5.66.07-11.35.11-17.02.29v-.08Z"/><path class="cls-1" d="M424.43,355.13l-22.08-.53c-2.69-.04-5.37-.07-8.05-.11-9.46-.23-18.92-.55-28.37-.74-4.2-.09-8.42-.06-12.58-.03-2.67.03-5.36.06-8.03.09-2.68,0-5.36.05-8.03-.16-1.67-.13-1.45-.62-.05-1.22,1.4-.64,4-1.31,7.08-1.41,10.94-.33,21.88-.21,32.9.18,6.59.25,13.45.21,20.2.33,7.41.15,14.83.3,22.24.45,4.56.08,9.13.15,13.68.23,6.91.08,13.85.17,20.7.09,5.33-.07,10.55-.35,15.81-.58,1.16-.06,2.29-.11,3.46-.17,4.33-.16,5.71.02,6.67.85.22.19.5.37.63.56.43.64-1.32,1.22-4.5,1.48-9.42.78-19.38.96-29.36.97-7.42.01-14.87-.1-22.3-.21v-.08Z"/><path class="cls-1" d="M448.49,317.19v3.99c-.01.49.06.97.05,1.46-.07,1.72-.13,3.45-.2,5.17-.05.76.06,1.52.01,2.28-.01.49,0,.97-.04,1.46l-.04.36-.13.37c-.09.24-.17.47-.27.73-.13.3-.17.26-.38,0-.11-.13-.27-.31-.47-.52-.12-.13-.22-.24-.31-.35-.06-.06-.09-.13-.17-.19-.02-.07-.04-.13-.06-.2l-.33-1.45c-.05-.24-.11-.48-.14-.72l-.04-.73c-.03-.97-.04-1.94.03-2.93.08-1.18-.18-2.39-.28-3.59-.12-1.32-.16-2.66-.22-3.99l-.11-2.47c-.07-1.25-.08-2.51-.21-3.75-.08-.96-.34-1.91-.48-2.87-.03-.21-.1-.42-.11-.63-.01-.8.22-1.05,1.04-1.22.17-.04.33-.09.47-.11.43-.07,1.17.25,1.36.81.33.82.5,1.66.65,2.52.15.85.24,1.72.27,2.6.07,1.31.08,2.63.14,3.96h-.08Z"/><path class="cls-1" d="M456.68,268.96c-.54-.96-1.25-1.79-2.18-2.47-.35-.23-.71-.43-1.08-.63-1.28-.78-2.79-1.32-4.36-1.45-.7-.08-1.4,0-2.08.13-.44.06-.88.15-1.31.26-.22.05-.45.06-.68.09-.23.04-.45.07-.69.11-.3.03-.35-.12-.23-.45.13-.31.39-.93.9-1.3.46-.29.97-.46,1.48-.67.52-.14,1.06-.22,1.6-.25,1.07-.08,2.16.02,3.19.33,1.23.35,2.53.61,3.71,1.22,1.28.68,2.42,1.65,3.31,2.81.57.72.95,1.43,1.38,2.2.61,1.15,1.05,2.44,1.25,3.76.17,1.03.31,2.1.18,3.17-.04.23-.04.47-.1.7-.25.85-.63.99-1.33.85-.16-.03-.32-.05-.47-.1-.48-.16-.83-.66-.83-1.17.02-1.53.06-2.72-.32-4.07-.27-.99-.75-2.04-1.39-3.05l.05-.04Z"/><path class="cls-1" d="M447.7,272.26c.33-.44.66-.89.98-1.33.12-.16.2-.35.33-.5.45-.54.91-1.1,1.36-1.64.19-.25.35-.52.52-.77.2-.34.37-.7.73-.95.11-.08.36.11.58.36.21.26.4.6.32.82-.15.37-.31.75-.52,1.08-.23.33-.48.64-.77.93-.35.35-.53.83-.79,1.24-.28.46-.61.9-.91,1.35-.19.28-.38.55-.56.84-.27.43-.56.85-.76,1.31-.16.36-.21.76-.35,1.12-.03.08-.04.17-.08.24-.14.28-.3.32-.73.18-.1-.03-.2-.06-.29-.09-.32-.12-.51-.37-.52-.63,0-.39.02-.79.12-1.14.12-.35.28-.68.46-1.01.26-.49.57-.95.86-1.42l.04.02Z"/><path class="cls-1" d="M449.26,273.48c.47-.2.95-.41,1.42-.61.17-.08.33-.18.5-.24.63-.21,1.27-.42,1.88-.65.27-.11.53-.24.78-.37.32-.18.63-.38,1.01-.44.23-.05.34.78.03,1.07-.59.45-1.19.88-1.88,1.16-.42.16-.76.49-1.14.74-.42.27-.87.49-1.3.74-.27.15-.54.3-.8.46-.4.24-.81.47-1.16.77-.27.23-.47.56-.69.86-.05.07-.08.15-.15.18-.25.15-.42.08-.77-.29l-.24-.25c-.25-.29-.35-.62-.28-.89.08-.44.34-.66.58-.91.25-.23.54-.43.83-.61.44-.27.91-.5,1.37-.74l.03.04Z"/><path class="cls-1" d="M196.84,426.52c-1.79.08-3.57.04-5.33-.07-.64-.05-1.28-.02-1.92-.1-2.25-.25-4.45-.64-6.64-1.04-.97-.16-1.94-.33-2.91-.49-.62-.1-1.24-.18-1.86-.3-.61-.14-1.21-.34-1.81-.55-.37-.14-.28-.38.1-.64.37-.25,1.04-.58,1.77-.62,1.28.07,2.54.18,3.8.31,1.25.16,2.49.42,3.74.67,1.49.31,3.07.3,4.61.37,1.69.08,3.38.1,5.07,0,1.04-.06,2.06-.16,3.1-.31,1.61-.21,3.23-.43,4.83-.64,1.24-.18,2.45-.49,3.72-.68.28-.04.56-.1.84-.12,1.07-.06,1.49.2,1.62.97.03.18.07.35.07.52-.03.59-.41.99-1.07,1.15-2.01.47-4.26.86-6.53,1.08-1.7.18-3.34.39-5.2.54v-.06Z"/><path class="cls-1" d="M230.78,435.28c-3.2-.18-6.38-.39-9.56-.52-1.16-.06-2.32,0-3.47-.05-4.08-.14-8.15-.26-12.22-.08-1.81.04-3.6.34-5.38.54-1.13.18-2.27.36-3.41.53l-.85.16-.87.08c-.58.05-1.16.1-1.75.14-.73.04-.67-.09-.14-.48.34-.24.72-.52,1.12-.79.23-.16.49-.33.77-.5.14-.09.28-.16.43-.26.16-.06.31-.11.48-.17,4.63-1.46,9.49-1.95,14.32-1.95,2.9.05,5.89-.09,8.83-.05,3.23.07,6.45.21,9.66.35,1.98.08,3.95.16,5.92.21,2.99.08,5.98.15,8.94,0,1.15-.08,2.28-.19,3.4-.32l3.35-.5c.49-.07.97-.18,1.47-.21.46-.04.85-.05,1.17-.05.33.01.6.08.82.14.45.12.73.3.97.55.11.11.25.22.32.32.24.34-.46.84-1.79,1.44-.5.17-1.01.34-1.52.5-.51.17-1.04.22-1.56.32-1.05.17-2.12.36-3.2.47-1.08.11-2.16.2-3.26.27-1.09.06-2.18.09-3.28.13-1.63.06-3.25.02-4.88.02l-4.86-.16v-.08Z"/><path class="cls-1" d="M328.14,134.61c-1.82-2.02-3.78-3.93-5.86-5.67-2.05-1.73-4.31-3.14-6.74-4.39-.89-.44-1.78-.88-2.72-1.24l-1.38-.58-1.4-.53c-6.56-2.53-13.6-4.23-20.62-4.16l-1.17.02c-.39.02-.77.07-1.16.11l-1.15.12c-.38.05-.75.15-1.13.22l-1.12.23-1.06.34-.53.17c-.17.07-.33.16-.49.23-.32.17-.66.29-.95.48-1.52.95-2.62,2.31-2.82,4-.13.83-.11,1.71,0,2.61.05.45.15.9.28,1.35.09.21.05.48.11.71.02.25.11.47.1.74.1,1.34.42,1.06-.69.44-.52-.33-1.43-.82-1.97-1.76-.32-.45-.57-.99-.81-1.6-.1-.31-.18-.64-.27-.98-.04-.34-.05-.71-.05-1.08.06-1.31.37-2.7,1.08-3.92.7-1.19,1.68-2.23,2.78-2.9,2.18-1.42,4.53-1.93,6.72-2.26,4.45-.58,8.82-.17,13.05.67,5.05,1.03,10.24,2.3,15.1,4.33,2.67,1.1,5.27,2.41,7.73,4.01,2.49,1.62,4.65,3.52,6.73,5.52,2.56,2.46,4.86,5.16,7,7.96,3.22,4.27,5.97,8.92,8.14,13.78.82,1.9,1.67,3.76,2.22,5.84.54,2.06.8,4.35.02,6.67-.35,1-.84,1.93-1.55,2.75-1.33,1.51-2.73,2.06-3.7,2.15-.99.09-1.58-.25-1.93-.71-.16-.23-.34-.46-.39-.68-.08-.37.25-.62.71-.84.47-.24,1.08-.48,1.8-1,1.08-.76,1.92-2.06,2.17-3.33.28-1.4.12-2.94-.31-4.55-.42-1.6-1.13-3.28-1.84-4.95-.75-1.66-1.54-3.31-2.44-4.91-2.63-4.78-5.84-9.32-9.56-13.36l.05-.06Z"/><path class="cls-1" d="M330.48,212.17c1.79.3,3.65.23,5.47-.19.95-.18,1.72-.46,2.61-.86.87-.39,1.75-.86,2.67-1.34.93-.48,1.89-.98,2.96-1.41.99-.41,2.48-.84,3.87-.58,1.41.2,2.58.86,3.52,1.55.96.69,1.75,1.45,2.51,2.18,2.17,2.15,4.23,4.1,6.64,5.07,2.11.9,4.43.89,6.86.25,2.44-.6,4.76-1.56,6.85-2.92,1.05-.68,2.04-1.45,2.97-2.3.47-.43.92-.88,1.3-1.3.38-.46.75-.95,1.08-1.47,1.33-2.09,2.25-4.53,2.82-7,1.07-4.39.4-9.09-1.1-13.37-.48-1.38-1.06-2.73-1.69-4.06l-.98-2.04c-.32-.7-.62-1.4-.92-2.09-1.18-2.78-2.22-5.46-4.12-7.63-1.01-1.57-1.03-1.29.54-.62.79.34,1.77,1.07,2.77,2.15.5.54,1,1.16,1.45,1.86.43.7.83,1.47,1.2,2.27.65,1.41,1.25,2.77,1.94,4.07.73,1.4,1.4,2.85,1.97,4.34,1.15,2.98,1.94,6.17,2.12,9.46.09,1.63,0,3.33-.27,4.96-.27,1.62-.69,3.21-1.24,4.75-.55,1.54-1.26,3.05-2.16,4.48-.46.71-.96,1.41-1.56,2.06-.6.67-1.17,1.17-1.8,1.73-2.94,2.6-6.63,4.52-10.5,5.5-1.91.51-4.11.81-6.23.43-2.13-.36-4.12-1.33-5.74-2.56-1.8-1.34-3.27-2.91-4.74-4.29-1.45-1.37-2.96-2.56-4.44-2.52-.19-.02-.38.03-.57.04-.2.05-.38.08-.59.14-.44.13-.88.31-1.33.49-.9.39-1.8.86-2.73,1.34-.93.48-1.89.96-2.93,1.37-.51.2-1.06.39-1.61.52l-1.61.36c-2.67.49-5.49.33-8.1-.48-2.6-.84-4.96-2.29-6.93-4.07-1.51-1.35-2.82-2.89-3.97-4.52-1.22-1.66-2.02-3.6-2.6-5.5-1.13-3.85-1.55-7.88-.84-11.89.15-.78.36-1.55.64-2.31.31-.72.61-1.44.98-2.13.73-1.37,1.58-2.65,2.5-3.85,1.82-2.42,3.83-4.57,5.45-6.89.67-1.04,1.29-2.07,1.73-3.18.11-.26.21-.5.31-.73.09-.24.14-.47.21-.69.12-.44.27-.84.31-1.22.07-.38.13-.71.2-1.02.06-.31.06-.6.11-.85.18-1.03.3-1.66.63-2.21.14-.25.26-.59.39-.75.23-.28.51.05.86.95.19.45.37,1.04.4,1.78.03.37.07.77.08,1.2-.03.43-.07.89-.12,1.38-.34,2.93-1.83,5.63-3.46,7.91-1.66,2.31-3.51,4.33-5.05,6.44-.79,1.05-1.45,2.13-2.05,3.23-.28.55-.52,1.13-.76,1.68l-.26.81-.2.86c-.44,2.38-.32,5.02.1,7.56.31,1.9.85,3.76,1.59,5.45.19.41.39.83.61,1.2l.34.56.42.59c.55.8,1.16,1.54,1.79,2.27,2.54,2.87,5.81,5.01,9.41,5.57v.07Z"/><path class="cls-1" d="M356.58,124.47c-4.31-4.15-8.98-7.95-13.9-11.43-4.91-3.48-10.06-6.61-15.45-9.27-3.93-1.95-8.02-3.56-12.15-5-3.64-1.28-7.38-2.36-11.12-3.26-3.64-.76-7.58-1.06-11.42-1.2-3.87-.12-7.74.02-11.57.45-3.83.43-7.62,1.19-11.17,2.52-3.13,1.17-6.1,2.93-8.08,5.46-2,2.6-3.36,5.74-3.74,8.94-.51,4.15.68,8.36,2.72,12.05,1.01,1.86,2.24,3.61,3.63,5.23.71.79,1.41,1.59,2.16,2.34.74.77,1.59,1.39,2.38,2.08.97.9,1.48,1.12,1.42,1.25-.06.1-.74.12-1.98-.17-1.24-.27-2.87-1.04-4.66-2.25-1.75-1.24-3.54-3.06-5.04-5.36-.67-1.01-1.26-2.09-1.79-3.19-.5-1.12-.97-2.27-1.31-3.46-.73-2.37-1.04-4.91-.9-7.43.12-2.53.79-5.02,1.83-7.3.26-.57.53-1.13.85-1.67.3-.55.62-1.08.97-1.58.33-.51.69-1.02,1.12-1.53.4-.52.86-.97,1.32-1.43,1.85-1.8,4.04-3.05,6.25-4.05,2.22-.98,4.51-1.68,6.82-2.21,4.61-1.04,9.28-1.42,13.92-1.48,2.78-.03,5.58.05,8.39.22,2.82.2,5.62.43,8.53,1.02,5.54,1.27,11.02,2.87,16.29,4.97,11.6,4.57,22.26,11.24,31.83,19.1,5.88,4.87,11.32,10.31,15.98,16.39,3.54,4.59,6.6,9.61,8.84,15,2.2,5.37,3.68,11.26,2.9,17.21-.33,2.29-1.02,4.57-2.24,6.6-1.2,2.05-3.06,3.75-5.12,4.86-2.06,1.14-4.3,1.8-6.54,2.22-2.24.4-4.53.56-6.81.46-2.01-.09-3.98-.33-5.96-.81-3.67-.91-5.91-2.1-7.36-3.03-1.45-.97-2.13-1.77-2.52-2.58-.18-.37-.44-.81-.48-1.09-.07-.48.57-.39,1.74.11,1.18.49,2.95,1.35,5.3,2.2,3.48,1.27,7.21,1.93,10.95,1.86,3.7-.1,7.59-.79,10.55-2.57.74-.44,1.41-.95,2-1.52.6-.56,1.05-1.24,1.52-1.97.87-1.48,1.43-3.17,1.71-4.97.55-3.6.04-7.5-1.04-11.24-1.62-5.58-4.46-10.89-7.83-15.82-3.39-4.93-7.4-9.47-11.76-13.64l.04-.07Z"/><path class="cls-1" d="M341.79,300.11c-2.45-6.44-5.15-12.89-7.73-19.35-.96-2.36-1.96-4.7-2.89-7.06l-2.39-6.29-2.29-6.33c-.73-2.12-1.43-4.26-2.13-6.39l-1.98-6.44c-.56-1.92-1.11-3.84-1.67-5.75-.51-1.93-1.01-3.86-1.52-5.78l-.82-3.74-.41-1.87c-.12-.63-.2-1.27-.28-1.9-.16-1.27-.33-2.54-.46-3.81-.04-1.28-.04-2.57.02-3.85.26-1.6.1-1.37.57-.06.25.65.51,1.58.84,2.68.25,1.11.68,2.39.97,3.79,1.93,10,5.27,19.73,8.58,29.54.95,2.95,2.09,5.91,3.24,8.88,1.2,2.95,2.41,5.93,3.61,8.87,2.67,6.48,5.33,12.96,8,19.45.82,2,1.61,4.02,2.39,6.05l1.09,3.1c.34,1.06.62,2.13.89,3.18.8,3.18,1.46,6.37,2.83,9.13.36.67.73,1.34,1.2,1.91.44.59.97,1.08,1.57,1.6,1.19,1.01,2.5,1.9,3.86,2.67,1.06.6,2.15,1.13,3.27,1.55.56.21,1.12.39,1.67.53.28.07.55.12.83.17l.27.03h.23c.3.02.59-.02.84-.15.24-.13.43-.39.4-.67-.02-.29-.22-.52-.4-.7-.09-.09-.19-.18-.29-.25l-.5-.4c-.81-.63-1.71-1.22-2.6-1.89-3.35-2.5-4.18-3.79-4.15-5.03,0-.29-.03-.61.04-.83.28-.74,1.67.15,4.03,1.78.88.62,1.8,1.21,2.74,1.83l1.44.97c.25.18.49.33.74.53l.38.29c.18.13.38.32.56.51.36.37.79.72,1.04,1.14.14.2.3.41.43.62l.28.65c.32.87.23,1.8-.06,2.7-.78,1.75-2.77,2.59-5.02,2.35-.28,0-.56-.06-.86-.11-.21-.03-.36-.07-.54-.11-.35-.07-.67-.16-.99-.25-.65-.19-1.26-.41-1.86-.65-1.2-.48-2.32-1.05-3.42-1.67-1.09-.63-2.15-1.31-3.17-2.08-1.03-.79-1.98-1.54-3-2.7-1.37-1.66-2.25-3.49-2.9-5.28-.65-1.79-1.1-3.56-1.52-5.29-.42-1.72-.8-3.4-1.29-4.96-.55-1.6-1.11-3.21-1.76-4.83l.07-.04Z"/><path class="cls-1" d="M293.01,282.12c4.32.92,8.62,1.93,12.9,2.96,1.56.38,3.14.67,4.7,1.07,2.58.66,5.15,1.36,7.7,2.1l3.83,1.08c1.21.33,2.82.78,3.14.79.15-.04.23-.19.3-.32.06-.13.1-.27.14-.42.05-.2.12-.54.16-.81.09-.58.16-1.19.2-1.79.08-1.22.09-2.45.06-3.67-.18-3.12-.24-6.33-.77-9.36-.2-.9.11-.96.76-.25.62.71,1.47,2.21,1.87,4.07.23,1.17.47,2.34.57,3.52.1,1.18.16,2.37.18,3.56.01,1.2-.01,2.4-.14,3.65-.03.31-.07.63-.12.95-.02.16-.06.33-.09.49-.02.12-.08.45-.17.7-.07.27-.16.53-.26.78-.08.27-.23.48-.37.7-.29.43-.7.7-1.14.94-.41.03-.8.12-1.22.09l-.65-.11c-.19-.04-.5-.08-.57-.11l-1.42-.35c-.94-.24-1.86-.5-2.79-.76-1.89-.54-3.84-1-5.81-1.45-1.96-.46-3.93-.92-5.88-1.38-4.29-1.04-8.58-2.06-12.89-2.98-2.65-.57-5.31-1.11-7.98-1.59-4.04-.72-8.11-1.4-12.16-1.78-3.15-.3-6.25-.3-9.35-.25-.68.02-1.35.05-2.03.07-2.53-.02-3.34-.19-3.94-.94-.14-.17-.31-.34-.4-.5-.29-.56.74-1.14,2.67-1.47,2.87-.47,5.83-.48,8.8-.37,2.98.13,5.97.43,8.96.81,4.43.58,8.84,1.39,13.21,2.24v.08Z"/><path class="cls-1" d="M443.82,262.12l-.11-6.22c-.01-.76-.11-1.52-.11-2.28.01-1.36.03-2.7.18-4.13.02-.18.04-.35.07-.55.03-.22.07-.53.15-.76l.11-.38.18-.34c.13-.22.28-.43.5-.57.38-.33.91-.52,1.35-.7.42-.12.79-.2,1.17-.23,1.33-.17,2.57-.15,3.79-.11.78.1,1.55.17,2.31.35.75.19,1.51.39,2.12,1.21.44.2.37.22-.05.28-.2-.01-.58.47-.95.65-.19.12-.4.29-.61.38-.2.06-.41.12-.62.13-.75.08-1.49.07-2.21.14-.71.02-1.41-.07-2.08-.06-.67-.03-1.32-.02-1.8.05-.14.02-.14,0-.18,0-.04,0-.07,0-.12,0-.1,0-.15.06-.22.14-.02.05-.03,0-.06.12-.03.09-.04.2-.06.3-.04.2-.06.42-.08.64-.04.44-.05.9-.05,1.36.02.94.04,1.87.05,2.81l.1,6.24.09,3.85c.06,1.95.07,3.91.15,5.84.07,1.51.28,2.99.35,4.5.02.33.06.66.04,1-.05,1.26-.31,1.66-1.03,1.84-.16.04-.33.1-.49.12-.55.04-.92-.48-1.06-1.35-.39-2.57-.51-5.29-.64-8.07-.08-2.07-.17-4.15-.25-6.22h.07Z"/><path class="cls-1" d="M442.57,308.58c-2.87-1-5.25-3.08-6.82-5.47-1.61-2.39-2.54-5.07-3.15-7.69-.44-1.9-.85-3.81-1.06-5.74-.36-3.4-.45-6.8-.16-10.24l.06-.65.1-.79c.09-.66.21-1.33.47-1.87.14-.26.33-.45.53-.67.13-.05.26-.11.4-.14l.45-.07.45-.07c.15,0,.32.01.47.02l.94.05c1.75.13,3.34.31,5.01.46,2.93.26,5.87.4,8.77.43.93.01,1.86,0,2.79-.02l2.79-.02,1.39-.03c.46,0,.93.04,1.39.03.46-.03.93.05,1.4.13.47.08.94.08,1.41.12,1.19.14,1.04.12.11.62-.47.26-1.14.64-1.96,1.17-.41.26-.88.39-1.37.56-.25.07-.5.14-.76.22-.26.04-.53.08-.81.11-.98.1-1.96.17-2.94.24-.98.05-1.96.05-2.93.04-1.95,0-3.89-.09-5.83-.19-1.93-.11-3.87-.26-5.79-.44l-1.44-.14-1.34-.16-.37-.09c-.15-.06-.18.08-.23.16-.03.06-.05.13-.07.2,0,.03,0,.02-.02.08l-.03.2-.05.41c-.07.55-.11,1.11-.14,1.68-.06,1.13-.06,2.29-.03,3.44.08,2.31.32,4.63.67,6.9.4,2.5.89,4.99,1.83,7.23.45,1.14,1.04,2.19,1.71,3.19.7.97,1.51,1.84,2.44,2.55,1.15.87,2.47,1.53,3.89,1.81,1.43.31,2.89.32,4.21-.13,1.02-.31,1.97-.9,2.83-1.6.87-.7,1.65-1.55,2.32-2.48,1.36-1.85,2.35-4.01,2.89-6.22.37-1.72.52-3.58.62-5.39.1-1.82.13-3.65.15-5.48,0-.81,0-1.6.01-2.41.02-.75.04-1.38.08-1.9.05-.52.16-.94.25-1.29.2-.7.44-1.1.79-1.43.16-.15.31-.35.45-.44.47-.3,1.01.94,1.37,3.2.12,1.68.19,3.38.2,5.1-.01,1.72-.08,3.46-.22,5.21-.15,1.78-.31,3.49-.73,5.42-.45,1.93-1.19,3.7-2.13,5.4-1.41,2.49-3.34,4.86-6.13,6.39-1.38.75-3,1.25-4.63,1.27-1.58.06-3.09-.21-4.54-.72l.02-.07Z"/><path class="cls-1" d="M444.97,336.32c-.64-.09-1.27-.22-1.89-.36-.31-.08-.62-.16-.93-.25l-.25-.07c-.24-.07-.47-.19-.68-.32-.23-.16-.57-.53-.67-1.02-.09-.48.02-.84.13-1.08.59-1.16,1.58-1.32,1.88-1.41,1.61-.36,3.24-.49,4.83-.49.71-.02,1.42.02,2.11.05.45,0,.89.09,1.33.2l.33.09.31.2c.2.14.41.24.61.35.25.15.21.14-.04.24-.12.05-.3.14-.51.27-.11.07-.23.17-.35.27-.06.06-.12.08-.19.16-.06,0-.12.04-.18.05-1.71.48-3.24.41-4.93.44-.5,0-1,.11-1.48.25-.24.07-.48.15-.72.24l-.36.13-.18.06-.09.03-.04.02h-.02s-.01.01-.01.01h0s0,0,0,0h0c-.23-.6-.06-.17-.11-.3h0c.18.4.11.25.11.28-.09-.11-.46-.41-.69-.44-.11-.03-.14,0-.09-.02l.04-.04.03-.03.08-.11.3-.41.07-.1s0,0,0,0h0s-.02-.02-.02-.02l-.04-.03s-.07-.03-.1-.03c-.04,0,.05.02.06.02l.2.06c.54.17,1.09.31,1.64.42.68.14,1.38.24,2.08.28,1.06.07,2.14.05,3.18-.16.4-.08.79-.21,1.17-.37.37-.16.8-.34.91-.47.03-.03.04-.06.03-.08,0,0-.02-.03.01,0l.03.03.27.23-.02-.02c-.26-.13-.05-.02.08-.08.06-.01.11-.04.13-.05.02-.02,0,.02.15-.15.1-.12.16-.26.21-.4.09-.23.27-.43.65-.33.37.09.82.6.79,1.23,0,.23-.04.46-.13.69-.08.22-.24.48-.37.63-.28.34-.61.57-.89.72-.59.31-.93.4-1.35.55-.82.26-1.69.41-2.56.49-1.3.1-2.6.09-3.89-.04v-.06Z"/><path class="cls-1" d="M284.14,196.1c.58-.37,1.36-.67,2.06-.75.7-.1,1.34-.06,1.91.07.41.08.81.1,1.17.2,1.27.37,2.55.71,3.83.99.57.13,1.15.19,1.72.25.74.02,1.47.22,2.18.52.22.1.16.34-.06.62-.23.27-.63.64-1.07.72-.78.2-1.52.05-2.28,0-.75-.08-1.5-.2-2.25-.39-.89-.24-1.86-.19-2.77-.27-.98-.07-1.8-.18-2.45.03-.42.14-.87.44-1.31.83-.67.62-1.38,1.24-1.96,1.96-.45.56-.76,1.2-1.11,1.81-.08.14-.13.28-.22.41-.33.48-.59.53-1.08.38-.11-.04-.23-.06-.34-.11-.35-.14-.51-.53-.44-1.02.31-1.4,1.03-2.7,1.9-3.89.31-.45.7-.84,1.09-1.22.39-.38.84-.81,1.43-1.21l.04.05Z"/><path class="cls-1" d="M436.71,284.3c0,.83.04,18.77,9.32,18.77,9.78,0,9.03-18.77,9.03-18.77h-18.36Z"/><path class="cls-1" d="M282.42,136.64c-.84,1.28-1.11,3.04-.69,4.51.22.77.65,1.51,1.28,2.02.88.71,2,1.04,3.13.99,1.25-.06,2.43-.47,3.58-.94.31-.13.57-.27.75-.57.16-.27.22-.66.13-.96-.19-.58-.89-1.14-1.54-.87-.85.34-1.69.61-2.58.82-.14.03.06,0,.08,0-.07.01-.14.02-.21.02-.1,0-.2.01-.31.02s-.2,0-.31,0c-.05,0-.1-.01-.15-.01-.18,0,.21.04.03,0-.2-.04-.4-.08-.59-.15-.04-.01-.11-.05-.15-.05.18,0,.22.1.1.04-.07-.04-.15-.08-.22-.12-.04-.03-.24-.17-.07-.04s-.02-.02-.06-.05c-.05-.04-.1-.09-.14-.14-.02-.02-.04-.05-.07-.07-.12-.12.05.07.07.1-.06-.12-.16-.23-.23-.36-.03-.06-.06-.12-.09-.18-.06-.11.06.16.06.15,0-.04-.03-.09-.04-.12-.04-.13-.08-.25-.11-.38-.02-.08-.02-.15-.04-.23-.03-.13.02.18.02.17,0-.04,0-.09-.01-.13-.02-.29,0-.57.02-.85.01-.16-.05.29-.02.13,0-.04.01-.09.02-.13.01-.08.03-.16.05-.23.04-.15.08-.3.13-.45.03-.07.06-.14.08-.22.04-.12-.07.16-.06.15.03-.04.05-.1.07-.15.07-.14.15-.28.23-.41.36-.55.13-1.41-.45-1.71-.62-.33-1.33-.14-1.71.45h0Z"/><path class="cls-1" d="M298.98,141.96c-.79,1.27-.67,2.8-.03,4.1s1.92,2.17,3.3,2.62c2.73.9,5.9.06,8.16-1.62.6-.44.9-1.19.49-1.88-.34-.59-1.28-.94-1.88-.49-.43.32-.88.6-1.35.84-.42.21-.77.35-1.33.51-.26.07-.53.13-.8.18-.06.01-.33.04-.15.02-.15.02-.3.03-.44.04-.27.01-.54.01-.81,0-.06,0-.33-.03-.15,0-.15-.02-.29-.05-.44-.08-.59-.13-.87-.23-1.35-.52-.24-.15-.53-.42-.69-.66-.06-.09-.11-.18-.16-.28-.04-.09-.11-.26-.04-.08-.04-.12-.08-.24-.11-.36,0-.04-.06-.37-.04-.18s0-.15,0-.18c0-.12.06-.35,0-.12.03-.12.06-.24.1-.35-.09.22.04-.04.09-.11.39-.63.14-1.51-.49-1.88s-1.49-.14-1.88.49h0Z"/><path class="cls-1" d="M291.18,166.01c1.91.91,4.04.95,5.97.05,1.66-.77,2.89-2.31,3.46-4.02.23-.68-.26-1.53-.96-1.69-.76-.17-1.45.23-1.69.96-.02.07-.05.14-.07.21-.11.33.08-.15-.01.03-.08.15-.15.3-.23.44-.07.13-.16.25-.24.38-.19.29.11-.12-.02.03-.05.06-.09.11-.14.17-.11.13-.23.25-.35.36-.05.05-.11.1-.16.15,0,0-.27.22-.12.1.13-.1-.06.04-.08.06-.08.05-.15.1-.23.15-.14.09-.29.17-.44.24-.03.01-.24.11-.09.05s-.09.03-.12.04c-.17.06-.35.11-.53.16-.1.02-.2.04-.3.06-.2.05.21-.01,0,0-.18.01-.37.03-.55.03s-.37-.02-.55-.03c-.21,0,.2.04,0,0-.08-.02-.16-.03-.24-.05-.18-.04-.36-.09-.54-.14-.1-.03-.19-.07-.29-.1-.21-.07.28.13-.07-.03-.65-.31-1.51-.2-1.88.49-.32.61-.2,1.55.49,1.88h0Z"/><path class="cls-1" d="M288.54,129.21s.46-.21.21-.11c.14-.06.28-.11.42-.15.25-.08.5-.14.75-.19.07-.01.15-.03.22-.04-.15.02-.15.02,0,0,.15,0,.3-.02.44-.03.26,0,.52.01.78.03.15.02.15.02,0,0,.07.01.15.02.22.04.11.02.22.04.33.07.29.07.57.16.85.26s-.12-.07.11.05c.13.07.27.13.39.2s.26.15.38.23c.06.04.12.08.18.13-.09-.07-.1-.08-.03-.03.1.08.19.17.28.26-.08-.11-.08-.11,0,0-.04-.08-.06-.17-.05-.26,0,.14,0,.12.02-.06.03-.12.09-.2.19-.27.11-.15.27-.23.47-.22.15.02.15.02,0-.02-.13-.05-.15-.06-.05-.02-.09-.04-.18-.08-.27-.11-.18-.08-.35-.15-.53-.23-.31-.13-.62-.27-.93-.4-1.33-.57-2.65-1.15-3.98-1.72-.6-.26-1.37-.2-1.71.45-.28.54-.19,1.43.45,1.71,1.3.56,2.61,1.13,3.91,1.69.64.28,1.28.56,1.92.83.83.35,1.81.52,2.49-.24.59-.65.64-1.58.25-2.34-.31-.59-.9-1.02-1.44-1.37-1.05-.68-2.27-1.03-3.5-1.14-1.39-.12-2.79.19-4.03.82-.58.3-.8,1.17-.45,1.71.38.6,1.09.76,1.71.45h0Z"/><path class="cls-1" d="M309.23,131.41c-2.37-1.6-5.33-2.11-8.11-1.51-.49.1-.97.69-.92,1.21.1,1.09.85,1.78,1.9,2,.99.21,2.05.21,3.06.29.43.04.86.07,1.28.12.05,0,.31.05.06,0,.09.02.18.03.28.05.16.03.33.07.49.11.18.05.35.1.52.17-.16-.06-.06-.03.04.02.08.04.15.08.23.13.06.04.12.07.17.11-.21-.15-.02,0,.02.04.08.08.14.16.04.02.06.09.12.18.17.27.33.59,1.14.78,1.71.45s.78-1.12.45-1.71c-.84-1.51-2.52-1.96-4.12-2.15-.87-.1-1.74-.16-2.61-.23-.26-.02-.53-.04-.79-.07-.11,0-.21-.02-.32-.03-.23-.02.12.05-.02,0-.06-.02-.14-.03-.2-.05-.22-.05-.07-.08-.03,0l-.08-.05.1.09c-.1-.11-.09-.08.03.1.08.09.12.2.11.32l-.92,1.21c.15-.03.31-.06.46-.09.07-.01.13-.02.2-.03-.11.02-.09.02.07,0,.27-.02.53-.04.8-.04.31,0,.62.01.93.04,0,0,.4.05.2.02.15.02.31.05.46.08.28.06.57.13.84.21.23.07.6.2.73.25.43.17,1.04.52,1.49.82.54.37,1.41.12,1.71-.45.33-.63.13-1.32-.45-1.71h0Z"/><path class="cls-1" d="M287.57,146.03c-.79.78-1.54,1.59-2.15,2.44-.22.31-.34.66-.51.95-.15.26-.26.51-.32.71-.06.16-.09.26-.06.41.02.23.47.74,1.02,1.07.49.32,1.11.48,1.7.64.38.11.78.19,1.17.29.39.13.78.35,1.18.5.24.11.24.24,0,.49-.23.23-.7.71-1.26.92-.96.13-1.95.15-2.91-.18-.49-.16-.97-.34-1.46-.64-.24-.13-.49-.33-.72-.51-.24-.23-.45-.46-.63-.77-.13-.18-.24-.38-.32-.6-.1-.21-.18-.42-.22-.64-.1-.43-.11-.92-.04-1.31.12-.76.36-1.37.65-1.9.66-1.17,1.47-2.1,2.29-3.01.51-.55,1.04-1.08,1.57-1.6.8-.79,1.65-1.52,2.44-2.3.61-.61,1.12-1.3,1.72-1.94.13-.14.26-.27.41-.39.58-.41.88-.41,1.39.04.11.09.23.17.32.27.29.28.38.87.11,1.31-.35.72-.83,1.29-1.35,1.84-.51.55-1.05,1.08-1.6,1.61-.8.79-1.63,1.56-2.39,2.38l-.05-.04Z"/><path class="cls-1" d="M222.48,85.12c-.26,0-.27-.34-.14-.87.04-.17.31-.59.41-.61.19-.05.37-.09.54-.09.1-.01,1.38.52,1.81.73.43.18.8.45,1.15.73.71.58,1.42,1.17,2.07,1.84.14.15.27.31.37.5.33.64.77,1.17,1.24,1.7.08.09.14.19.28.23.26.04,1.34,1.64,1.39,1.9.1.7.19,1.28.29,1.91.01.09.07.16,0,.28-.16.27-.06.42-.02.61.07.25.1.51.11.77,0,.13-.08.29-.13.44-.05.13-.37.18-.42.16-.14-.07-.25.07-.37.12-.04.02-.1.04-.13.05-.04,0-.33-.25-.63-.52-.3-.26-.63-.52-.66-.58,0,0-.07-.12-.19-.27-.12-.15-.28-.35-.44-.55-.17-.19-.35-.39-.5-.55-.12-.17-.22-.3-.26-.34-.08-.08-.08-.22-.1-.33,0-.07-.98-1.23-1.01-1.27-.14-.28-.41-.47-.41-.87,0-.08-.05-.12-.09-.17-.36-.41-.63-.89-.95-1.33-.16-.23-.38-.41-.57-.62-.03-.04-.05-.1-.07-.14-.03-.06-.06-.12-.1-.17-.49-.45-.9-.99-1.47-1.34-.12-.09-.56-.73-.73-.81-.09-.05-.16-.53-.27-.53Z"/><path class="cls-1" d="M217.22,99.83c-.18.16-.32-.16-.44-.78-.04-.2-.02-.79.03-.87.11-.16.22-.32.33-.43.07-.07,1.12-.33,1.49-.43.35-.11.7-.1,1.05-.08.7.05,1.41.07,2.12.15.16.02.31.06.45.15.5.27,1.02.37,1.56.41.09,0,.18.04.28-.04.18-.15,1.62.15,1.78.29.4.33.78.72,1.16,1.04.05.05.13.05.15.18.05.3.19.32.32.39.17.1.34.23.49.4.07.08.12.24.17.37.05.12-.09.37-.13.39-.11.06-.09.22-.13.33-.01.04-.03.09-.04.12-.03.05-1.31.46-1.42.45,0,0-.11,0-.27,0-.16,0-.37.01-.59.02-.21,0-.44.05-.61.03-.17-.02-.3-.03-.34-.03-.09,0-.16-.09-.24-.15-.04-.04-1.27-.1-1.32-.11-.24-.09-.51-.04-.7-.34-.04-.06-.09-.06-.14-.06-.43-.05-.85-.22-1.27-.35-.22-.07-.44-.06-.66-.1-.04,0-.08-.05-.11-.07-.05-.03-.09-.07-.15-.07-.53-.04-1.05-.24-1.58-.17-.12,0-.69-.31-.84-.28-.08.01-.32-.41-.4-.34Z"/><path class="cls-1" d="M219.21,110.87c-.06.21-.33.08-.72-.24-.13-.1-.4-.48-.4-.56,0-.16.01-.33.04-.47.02-.08.69-.9.93-1.18.22-.28.5-.49.78-.69.58-.39,1.16-.79,1.77-1.13.13-.08.28-.13.44-.15.55-.08,1.02-.3,1.49-.57.08-.04.17-.06.21-.19.05-.27,1.47-.64,1.67-.61.51.07.99.07,1.47.12.07,0,.13-.04.21.05.19.22.32.15.46.14.2-.01.4,0,.6.04.1.02.22.14.33.24.1.08.12.45.1.49-.06.13.03.28.07.43.01.05.03.11.03.15,0,.08-.88.94-.97.98-.04,0-1.38.64-1.51.77-.07.06-.17.03-.27.02-.02,0-.29.16-.55.33-.27.15-.54.28-.56.29-.24.04-.43.21-.75.07-.06-.03-.1,0-.15.02-.38.18-.8.25-1.21.36-.21.06-.39.18-.59.26-.04.02-.09,0-.13,0-.05,0-.11,0-.15.02-.45.24-.96.38-1.36.71-.09.07-.71.16-.81.27-.06.05-.46-.08-.48,0Z"/></svg>