<?xml version="1.0" encoding="UTF-8"?><svg id="Layer_1" xmlns="http://www.w3.org/2000/svg" width="520" height="520" viewBox="0 0 520 520"><defs><style>.cls-1,.cls-2{fill:#231f20;}.cls-3{opacity:.3;}.cls-2{opacity:.15;}</style></defs><path class="cls-1" d="M102.12,482.64c-.39.04-.74,0-1.08-.09-.34-.12-.65-.28-.94-.36-.19-.06-.16-.16.05-.25.42-.15.84-.41,1.28-.49.26-.17,4.5-.56,5.94-.78,1.39-.18,2.79-.3,4.19-.4l8.54-.44c.63-.03,1.27-.04,1.9-.02,2.17.07,4.34-.02,6.51-.16.36-.02.73-.03,1.08-.13.57-.18,6.46-.42,7.22-.37,1.9.1,3.8.13,5.69.2.27,0,.56-.03.81.06.58.22,1.16.16,1.75.15.81,0,1.63,0,2.44.07.4.03.8.15,1.2.25.36.08.17.42.05.46-.36.12-.06.27-.03.4.01.05.03.11.01.15,0,.02-.31.09-.76.18-.46.09-1.06.21-1.66.33-1.23.21-2.52.41-2.77.42-.12,0-6.91.48-7.69.54-.4.04-.81,0-1.22-.02-.2.01-5.63.36-5.84.38-1.13,0-2.26.13-3.38-.04-.22-.03-.45-.01-.68,0-1.94.1-3.88.08-5.82.09-.99,0-1.98.07-2.97.1-.18,0-.36-.02-.54-.03-.23,0-.45-.03-.68-.02-2.34.12-4.7.02-7.04.13-.54.02-3.13-.15-3.75-.11-.35,0-1.5-.21-1.81-.2Z"/><path class="cls-1" d="M175.28,481.79c-.71.03-1.29-.23-1.79-.65-.16-.1-.13-.26.08-.38l.3-.16c.1-.02.2-.05.3-.07.22-.05.42-.1.61-.14.25-.12,4.15-.18,5.48-.26,1.29-.05,2.57-.08,3.84-.03,2.59.08,5.18.1,7.77.09.58,0,1.15.02,1.73.06,1.97.14,3.95.12,5.92.02.33-.02.67,0,.98-.1.52-.14,5.87-.36,6.57-.34,1.73.07,3.46.07,5.19.09.25,0,.51-.05.74.04.54.2,1.06.12,1.6.1.74-.04,1.49-.02,2.23.02.37.02.74.13,1.11.2.33.07.18.38.07.43-.33.12-.05.25,0,.38.01.04.03.1.02.13,0,.02-.28.09-.68.2-.42.1-.96.24-1.51.38-1.12.25-2.29.46-2.53.47-.11,0-6.34.53-7.06.59-.37.04-.75,0-1.12-.02-.17,0-5.18.35-5.38.33-1.04,0-2.08.1-3.12-.09-.2-.04-.41-.02-.62-.02-1.79.05-3.57-.03-5.36-.1-.91-.04-1.82-.02-2.74-.05-.16,0-.33-.04-.49-.05-.21-.02-.41-.05-.62-.05-2.16-.03-4.32-.23-6.46-.31-.49-.02-2.84-.38-3.41-.39-.32-.01-1.35-.35-1.63-.34Z"/><path class="cls-1" d="M258.8,480.34c-.67.04-1.23-.21-1.72-.36-.16-.05-.14-.2.05-.25.37-.09.74-.21,1.11-.33.11-.07,1.08-.21,2.18-.37,1.1-.15,2.32-.4,2.94-.46,1.2-.15,2.41-.24,3.62-.31,2.45-.12,4.91-.34,7.36-.37.55,0,1.09,0,1.64.05,1.87.15,3.74.14,5.61.09.31,0,.63,0,.93-.08.49-.15,5.57-.15,6.23-.08,1.63.18,3.27.28,4.9.47.23.02.48,0,.69.11.49.24.99.22,1.5.25.7.04,1.4.1,2.1.19.35.05.68.18,1.02.28.31.1.13.41.02.45-.32.1-.06.25-.04.39,0,.05.02.1,0,.14-.02.04-1.03.19-2.1.34-1.06.15-2.18.31-2.4.31-.11,0-5.95.21-6.63.23-.35.02-.7-.03-1.05-.07-.16-.02-4.85.18-5.04.18-.97-.02-1.94.07-2.91-.13-.19-.04-.39-.03-.58-.02-1.67.05-3.34-.01-5.01-.04-.85-.03-1.71-.01-2.56-.02-.15,0-.31-.03-.46-.05-.19-.02-.39-.05-.58-.05-2.02,0-4.04-.1-6.06-.02-.46.05-2.69-.27-3.23-.25-.3,0-1.29-.25-1.56-.21Z"/><path class="cls-1" d="M330.61,478.04c-.51-.08-.91-.4-1.28-.59-.12-.06-.08-.16.07-.19.3-.05.6-.13.9-.22.06-.01.27-.06.58-.13.31-.04.72-.04,1.15-.08.43-.03.89-.07,1.29-.1.4,0,.76-.02,1.01-.02.94-.03,1.87,0,2.8.04,1.89.07,3.78.1,5.67.11.42,0,.84.03,1.26.08,1.43.18,2.87.23,4.31.17.24,0,.49,0,.72-.08.38-.13,4.28-.22,4.79-.17,1.26.13,2.52.18,3.78.26.18.02.37-.03.54.08.39.24.78.18,1.17.18.54,0,1.09.03,1.63.09.27.03.54.15.81.24.25.08.14.42.06.46-.24.12-.03.27,0,.4.01.05.03.11.02.15,0,.04-.78.29-1.6.55-.82.25-1.68.46-1.85.48-.02,0-.32.04-.77.08-.45.04-1.05.09-1.66.14-1.22.09-2.49.19-2.76.21-.27.03-.55-.03-.82-.06-.13,0-3.81.2-3.96.18-.76-.03-1.53.04-2.28-.19-.15-.05-.3-.04-.46-.04-1.31,0-2.62-.16-3.92-.3-.67-.07-1.34-.09-2-.14-.12,0-.24-.05-.36-.07-.15-.03-.3-.07-.45-.08-1.58-.11-3.15-.35-4.73-.45-.18-.01-.7-.11-1.22-.22-.52-.15-1.05-.29-1.26-.31-.23-.05-.97-.38-1.17-.44Z"/><path class="cls-2" d="M159.49,121.1c-.53,1.15-7.16,20.01-7.7,27.61-.54,7.6,5.67,21.72,9.06,26.05,3.39,4.33,15.81,8.91,19.95,7.75s16.38-6.62,16.38-6.62l5.04-8.46s-3.19-7.31-1.1-9.6,10.33-3.75,10.33-3.75c0,0,9.11-4.73,6.64-9.06s-8.31-9.44-9.62-8.02-5.72,1.97-8.42-4.23c-2.69-6.2-4.95-13.92-4.95-13.92,0,0-5.11,1.16-11.03,3.97-5.91,2.81-18.15-.18-19.28,0s-5.31-1.72-5.31-1.72Z"/><path class="cls-1" d="M164.61,127.83c1.23-.4,2.36-.68,3.62-.66,1,.02,2.05.22,2.92.85-.15-.11.15.11.13.14-.02.03-.11-.23-.12-.26-.03-.42.39-.52.69-.63-.15,0-.16,0-.02,0-.07-.02-.15-.03-.22-.05-.61-.16-1.2-.41-1.79-.61-1.3-.45-2.65-.7-4.02-.8-.65-.05-1.28.61-1.25,1.25.03.72.55,1.2,1.25,1.25.76.06,1.42.16,2.2.36s1.53.5,2.3.77c.88.3,1.98.6,2.75-.13.71-.67.79-1.75.27-2.56-.48-.76-1.36-1.19-2.16-1.51-.74-.3-1.52-.45-2.32-.53-1.65-.15-3.33.21-4.89.72-.62.2-1.09.87-.87,1.54.2.62.87,1.09,1.54.87h0Z"/><path class="cls-1" d="M294.7,449.55c.42.52.81,1.05,1.17,1.59.14.19.32.35.43.55.43.71.67,1.54.96,2.29.11.34.22.68.35,1,.07.21.16.42.22.63.06.21.04.46.03.7-.02.15-.17.18-.41.16-.23-.03-.65-.08-.85-.24-.32-.31-.63-.59-.91-.89-.32-.27-.41-.67-.57-1.05-.17-.47-.58-.79-.87-1.18-.32-.43-.66-.87-1.02-1.28-.23-.25-.46-.5-.71-.72-.38-.34-.78-.69-1.24-.92-.36-.18-.78-.2-1.17-.27-.08-.02-.18,0-.26-.03-.16-.01-.18-.23-.2-.38,0-.17.03-.38.11-.67l.1-.39c.12-.41.4-.72.79-.91.28-.14.49-.08.73-.08.23.02.46.05.68.11.44.12.85.31,1.22.59.55.39,1.03.87,1.5,1.34l-.04.05Z"/><path class="cls-1" d="M296.21,449.72c.05.27.1.55.15.82.02.1.08.17.09.27.05.35.09.69.15,1.02.03.14.08.27.14.4.08.16.18.31.14.53-.02.13-.85.31-.99.16-.22-.28-.41-.56-.46-.91-.03-.22-.21-.36-.32-.54-.11-.2-.22-.4-.33-.61-.07-.13-.13-.25-.21-.37-.11-.18-.23-.37-.37-.53-.11-.12-.33-.16-.49-.24-.03-.02-.08-.03-.1-.05-.09-.1,0-.22.35-.57l.24-.24c.28-.26.56-.43.74-.44.27-.02.49.03.65.13.15.1.33.2.39.38.12.25.18.52.27.78l-.04.03Z"/><path class="cls-1" d="M341.08,449.62c-.25.11-.53.19-.8.4-.08.09-.11.2-.2.3-.27.37-.55.89-.67,1.46-.07.25-.03.52-.03.77.02.33.1.66.03,1.02-.02.11-.19.14-.4.09-.21-.05-.48-.17-.58-.36-.34-.68-.58-1.47-.44-2.29.1-.48.08-1.03.28-1.56.2-.57.6-1.12,1.09-1.48.3-.23.63-.39.95-.54.49-.21.98-.31,1.44-.47.35-.13.68-.35,1.02-.47.08-.03.15-.08.23-.09.29-.05.4.09.54.65l.09.38c.09.43.02.82-.15,1-.26.27-.51.48-.75.65-.25.14-.5.21-.73.28-.34.11-.64.19-.89.31l-.04-.05Z"/><path class="cls-1" d="M278.01,280.31c.7.69-7.07,38.64-7.07,38.64,0,0-11.27,41.72-12.3,50.19s-4.98,43.39.5,55.09c5.49,11.7,14.25,21.08,18.91,23.03,4.66,1.95,23.01,2,28.96-2.49,5.95-4.49,10.67-11.36,11.14-12.67s3.33-10.38,3.33-10.38c0,0,3.96,14.91,8.53,18.23,4.56,3.32,21.5,12.31,31.95,6.44s17.99-17.03,17.99-17.03l2.65-18.94-4.64-38.78-10.96-45.55-14.9-45.79-16.4,7.5s-16.27-10.81-21.07-8.85-21.38,11.75-21.38,11.75l-15.22-10.41Z"/><path class="cls-1" d="M357.71,235.07c-.32.24-.64.45-.97.65-.12.08-.21.18-.33.24-.44.22-.89.39-1.33.55-.19.07-.37.18-.57.24-.24.09-.49.19-.78.13-.09-.02-.14-.2-.15-.42,0-.22,0-.5.1-.61.17-.17.3-.4.5-.48.2-.09.4-.17.63-.22.28-.06.45-.31.67-.48.24-.19.48-.38.7-.59.14-.13.27-.26.39-.41.18-.22.37-.45.47-.72.07-.21.02-.48,0-.71,0-.05-.03-.11-.04-.16-.01-.18.14-.18.75-.01l.42.12c.48.14.83.35.87.55.13.58-.1,1.11-.44,1.53-.25.32-.55.59-.85.85l-.04-.03Z"/><path class="cls-1" d="M356.27,219.58c-.21-.4-.44-.8-.7-1.21-.09-.15-.22-.25-.31-.41-.25-.6-.47-1.25-.68-1.83-.11-.25-.19-.52-.28-.77-.03-.17-.06-.35-.09-.51,0-.17.01-.35.02-.51.01-.1.05-.09.12,0,.07.08.19.22.26.38.3.56.65,1.02,1.1,1.44.22.29.65.43.93.69.32.3.63.61.95.94.2.21.4.42.59.63.32.31.56.71.87,1.05.23.28.58.49.86.81.06.07.15.12.19.21.16.31.04.47-.6.72-.14.06-.29.12-.44.17-.5.16-.95.19-1.14.13-.55-.2-.76-.46-1.07-.84-.11-.13-.22-.3-.3-.48-.1-.18-.2-.37-.32-.55l.04-.04Z"/><path class="cls-1" d="M268.29,219.66c-.39-.61-.48-1.41-.21-2.05.1-.24.12-.48.31-.7.29-.4.76-.73,1.04-1,.23-.18.46-.35.69-.52.2-.16.35-.35.49-.55.12-.11.21-.23.34-.32.1-.12.34-.11.54-.14.14,0,.28.14.44.39.14.23.44.68.44.9l-.1.48c-.05.14-.15.24-.24.36-.18.22-.4.42-.67.58-.18.14-.22.14-.26.19-.04.05-.06.1-.12.15-.13.1-.32.3-.28.5.02.12.08.22.18.31.06.11.46.46.78.62.27.13.63.12.95.17.07.01.16,0,.22.02.23.09.19.3-.21,1l-.27.48c-.32.53-.69.91-.93.96-.73.15-1.22-.11-1.68-.44-.17-.15-1.12-.78-1.5-1.35l.06-.04Z"/><path class="cls-1" d="M272.12,231.98c-.1-.22-.17-.48-.22-.73-.03-.12-.04-.25-.06-.38-.02-.15-.04-.29-.04-.43,0-.2-.08-.39-.03-.58.21-.68.59-1.2,1-1.61.18-.18.35-.37.54-.53.24-.21.58-.41.93-.28.11.04.12.33.12.65,0,.31.06.67.07.74.02.24.12.34-.1.5-.14.11.05.28.06.38,0,.07-.02.12-.02.19.01.09.02.19.05.29.03.13.06.27.14.4.11.2.24.43.46.56.17.1.47.05.7.07.05.01.11,0,.15.03.14.09.08.3-.3.92l-.26.42c-.3.47-.62.81-.85.9-.17.06-.34.11-.49.13-.14,0-.27-.02-.39-.06-.25-.08-.47-.24-.68-.43-.32-.28-.59-.67-.84-1.1l.06-.04Z"/><path class="cls-1" d="M246.51,242.34c-.36.36-.76.67-1.18.96-.15.11-.28.24-.45.33-.59.3-1.2.51-1.83.59-.28.04-.55.07-.82.1-.35.03-.72.02-1.03-.16-.1-.06-.04-.23.07-.41.12-.17.27-.39.42-.43.54-.12.93-.43,1.49-.49.33-.06.58-.34.84-.55.29-.23.56-.49.82-.79.16-.18.33-.37.47-.57.22-.31.45-.63.58-1,.11-.28.1-.62.13-.93,0-.07,0-.15.02-.21.09-.24.25-.26.75-.1l.34.11c.38.13.64.36.7.59.15.67-.11,1.23-.41,1.8-.23.42-.54.82-.86,1.2l-.04-.03Z"/><path class="cls-1" d="M376.42,243.09c-.27-.44-.47-.88-.63-1.33-.06-.16-.16-.29-.2-.46-.08-.29-.1-.59-.13-.87.01-.3.04-.58.08-.86.02-.24.06-.47.09-.7.03-.14.06-.29.1-.42.06-.14.13-.26.21-.39.05-.08.1-.05.17.04.06.09.19.24.24.39.18.52.48.88.57,1.3.03.27.23.48.38.69.16.24.32.49.52.71.12.14.24.27.39.38.22.16.42.37.69.43.21.03.45-.1.63-.2.04-.02.08-.07.12-.08.13.03.17.24.24.88l.05.43c.05.48-.03.9-.26,1.11-.67.57-1.51.36-2.14.05-.24-.12-.46-.27-.66-.45-.18-.2-.36-.39-.5-.6l.04-.04Z"/><path class="cls-1" d="M239.03,243.36c-.33-.36-.62-.74-.9-1.13-.26-.41-.48-.83-.68-1.26-.15-.31-.33-.59-.45-.91-.4-1.13-.62-2.27-.74-3.39-.04-.5-.07-1-.08-1.48-.02-.62.04-1.25.21-1.85.05-.19.11-.15.2.01.08.17.25.46.34.79.31,1.19.81,2.21,1.05,3.32.17.67.62,1.25,1.01,1.81.42.63.91,1.19,1.4,1.77.31.35.65.68,1.02.97.56.44,1.16.87,1.84,1.1.53.19,1.11.16,1.65.14.12,0,.24-.03.36-.03.42.04.52.24.52,1.03,0,.18,0,.36,0,.54-.02.61-.3,1.07-.73,1.19-1.29.29-2.61-.12-3.75-.77-.86-.48-1.62-1.12-2.3-1.81l.04-.05Z"/><path class="cls-1" d="M381.79,243.42c-.42.23-.84.46-1.26.68-.15.08-.25.22-.41.3-.52.25-1.24.53-2.06.61-.35.02-.77.09-1.11-.06-.41-.18-.88-.61-.73-1.15.05-.15.04-.11.19-.1.07,0,.2,0,.34-.07.15-.07.29-.18.35-.23.26-.19.32-.62.3-.5-.01-.04.12,0,.35-.03.27-.02.5-.37.81-.58.34-.23.69-.47,1.03-.71.21-.15.42-.3.62-.47.29-.26.62-.49.83-.82.16-.26.19-.62.28-.92.02-.07.01-.15.05-.2.14-.2.35-.13.99.3l.44.29c.48.33.81.72.85,1,.14.86-.24,1.39-.71,1.83-.34.33-.74.6-1.13.89l-.05-.05Z"/><path class="cls-1" d="M264.05,210.87c-.23-.65-.39-1.32-.51-1.97-.04-.24-.14-.45-.17-.69-.11-.83-.02-1.67,0-2.46,0-.35,0-.7,0-1.05,0-.44,0-.89.13-1.33.04-.14.17-.13.36-.03.18.1.45.29.58.53.2.43.39.85.55,1.26.07.43.11.85.1,1.29,0,.52.2,1.02.31,1.52.12.55.25,1.09.45,1.61.12.32.25.64.41.94.25.45.52.91.9,1.24.29.27.72.35,1.04.51.07.04.15.06.21.1.24.17.24.35.06.88l-.12.36c-.15.39-.44.64-.8.65-1.12.08-1.91-.7-2.51-1.44-.45-.58-.77-1.22-1.04-1.87l.05-.03Z"/><path class="cls-1" d="M360.54,242.45c.03.78.03,1.55,0,2.31,0,.28.04.55,0,.83-.08.98-.31,1.93-.54,2.86-.08.41-.17.83-.29,1.23-.14.52-.32,1.03-.61,1.5-.09.15-.19.1-.31-.08-.11-.17-.31-.47-.35-.78-.06-.54-.19-1.07-.19-1.57.04-.5.1-1,.2-1.5.12-.6.03-1.24,0-1.86-.02-.68-.05-1.37-.13-2.05-.05-.42-.1-.84-.19-1.26-.13-.63-.26-1.27-.52-1.85-.21-.45-.57-.83-.9-1.21-.07-.09-.16-.15-.23-.24-.11-.16-.15-.29-.07-.43.1-.16.29-.31.58-.52l.39-.27c.22-.14.45-.22.68-.25.23-.03.48-.01.6.11.85.68,1.27,1.68,1.54,2.7.2.76.3,1.55.39,2.32h-.06Z"/><path class="cls-1" d="M284.98,204.98c.97-.3,1.89-.94,2.84-1.7.34-.28.66-.6,1.01-.88,1.24-.98,2.48-1.97,3.72-2.95.55-.43,1.08-.9,1.59-1.37.68-.58,1.47-1.04,2.23-1.54.24-.15.23-.11.12.12-.11.22-.28.68-.55,1.15-.25.4-.47.83-.74,1.21l-.96.98c-.64.65-1.33,1.26-2.08,1.8-.89.66-1.66,1.51-2.5,2.26-.91.81-1.88,1.7-3.07,2.36-.74.4-1.52.69-2.32.87-1.22.29-2.45.28-3.64.27-.93-.02-1.85.03-2.77,0-.2,0-.4-.02-.6-.05-.73-.15-.92-.37-.93-1.01,0-.15-.02-.29,0-.44.04-.48.42-.8.96-.86.81-.11,1.57-.06,2.33,0,.76.06,1.5.13,2.23.15,1.08.02,2.14-.06,3.12-.41l.02.05Z"/><path class="cls-1" d="M325.15,199.6c-.55.21-1.09.43-1.59.67-.47.2-1.04.5-1.6.79-.41.21-.79.46-1.22.65-1.51.66-3.15,1.2-4.86,1.16-.74-.02-1.49-.1-2.19-.32-.9-.27-1.76-.83-2.27-1.62-.16-.25-.04-.27.21-.19.25.09.68.22,1.1.39,1.51.58,3.13.61,4.73.18.98-.24,1.89-.85,2.79-1.43l1.5-1c.53-.36,1.14-.68,1.71-.93.71-.33,1.42-.62,2.12-.91,1.06-.45,2.15-.84,3.16-1.33.8-.37,1.49-.92,2.21-1.35.16-.1.3-.21.46-.3.59-.33.83-.3,1.27.11.1.09.21.18.3.27.31.32.26.81-.16,1.24-1.2,1.3-2.76,1.96-4.28,2.61-1.13.48-2.29.89-3.38,1.36l-.03-.05Z"/><path class="cls-1" d="M349.8,200.98c-.67,0-1.33-.03-1.98-.11-.24-.02-.48-.03-.71-.07-.83-.15-1.64-.34-2.4-.67-.34-.12-.68-.26-1.01-.39-.43-.18-.84-.39-1.22-.64-.12-.07-.1-.07.02-.05.12.03.35.05.6.11.9.22,1.81.29,2.68.48.52.14,1.09.13,1.64.14.6.02,1.21,0,1.81-.05.37-.03.74-.08,1.11-.15.55-.11,1.11-.23,1.63-.45.4-.18.74-.46,1.08-.72.08-.05.16-.11.23-.16.3-.17.45-.11.74.22.06.08.13.15.19.23.2.27.2.58,0,.82-.15.18-.3.35-.48.49-.19.12-.38.24-.59.33-.41.19-.85.32-1.3.42-.67.15-1.35.21-2.02.24v-.03Z"/><path class="cls-2" d="M354.51,164.22s2.65,1.64,2.13,3.93-4.97,9.42-6.38,10.82c-1.41,1.4-1.8-4.02-1.8-4.02,0,0-4.23,5.11-5.91,4.25s-1.65-4.25-1.65-4.25c0,0-3.99,4.2-4.83,2.49s0-7.23,0-7.23c0,0-2.99,5.13-5.3,4.74-2.32-.39-1.92-4.12-1.92-4.12,0,0,5.33-7.48,7.86-9.28s5.23-3.3,7.8-2.47,9.99,5.16,9.99,5.16Z"/><path class="cls-1" d="M331.16,166.74c-.07.18-.17.35-.25.52l-.22.42-.42.84c-.1.2-.15.43-.25.63-.37.71-.76,1.43-1.1,2.15-.15.32-.26.66-.36,1-.06.22-.11.44-.21.65-.09.21-.23.4-.47.57-.27.06-.27.05-.54-.16-.14-.11-.26-.23-.39-.38-.14-.15-.22-.31-.21-.44,0-.5.21-.92.37-1.37.18-.44.39-.87.65-1.28.31-.49.42-1.08.63-1.62.24-.58.49-1.17.73-1.76.14-.31.26-.63.33-.97.11-.51.16-1.04.03-1.52-.1-.37-.39-.65-.66-.82-.06-.04-.13-.06-.18-.09-.19-.12-.12-.28.18-.81l.2-.37c.23-.4.61-.63,1-.47.55.25,1,.75,1.25,1.29.26.55.36,1.13.37,1.69,0,.83-.18,1.6-.46,2.32h-.05Z"/><path class="cls-1" d="M278.01,173.49s3.27-3.39,7.2-3.88c4.8-.6,8.7,2.6,14.3,2.39s9.12-1.82,11.25-3.85c4.11-3.93,7.34-9.3,7.34-9.3,0,0-7.76,6.38-10.45,7.62-2.68,1.24-12.95,1.68-12.95,1.68l-10.2-3.93-5.93,5.39-.56,3.88Z"/><path class="cls-1" d="M269.6,147.26c-.9,1.58-6.45,5.22-10.46,3.52-4.01-1.7-6.09-7.9-6.94-11.32s-1.49-5.99-5.21-10.89c-3.72-4.9-5.4-14.09-4.9-16.75s6.18-16.15,11.89-19.61c5.72-3.46,13.17-7.67,17.89-6.6s16.64,5.96,16.64,5.96l4.95,3.49s7.29-11.12,15.68-12.37,19.66-.81,25.13,4.93c5.48,5.74,10.18,14.25,10.24,18.23.06,3.97-3.67,17.51-3.67,17.51,0,0-5.45,6.53-5.63,7.94s-1.46,12.6-1.46,12.6c0,0-6.52,3.69-8.88-1.31-2.36-5-2.29-9.8-2.29-9.8,0,0,6.96-2.54,7.57-6.39s-.45-7.53-.45-7.53c0,0-5.32-.53-12.41-1.11-7.09-.58-15.74-4.92-18.8-8.05-3.06-3.13-6.03-5.26-6.03-5.26,0,0-1.99,10.97-6.82,12.7s-11.98,6.15-13.76,6.76c-1.77.6-12.83,3.35-12.83,3.35,0,0-2.49,3.38-1.39,6.61,1.1,3.24,4.83,6.56,5.25,6.79s5.35-.02,5.35-.02l1.35,6.63Z"/><path class="cls-1" d="M138.06,448.53c.57.38,1.11.8,1.61,1.24.19.16.4.27.57.46.58.65,1.07,1.35,1.51,2.06.19.32.37.63.56.95.23.4.42.83.5,1.3.03.15-.09.18-.29.16-.19-.03-.51-.09-.71-.24-.36-.28-.73-.52-1.05-.79-.35-.24-.53-.61-.79-.95-.27-.44-.77-.66-1.17-.97-.43-.35-.89-.69-1.37-.99-.3-.18-.6-.36-.92-.5-.48-.22-.98-.43-1.51-.51-.41-.05-.83.06-1.23.15-.09.01-.17.06-.26.07-.32.03-.41-.17-.48-.83l-.05-.45c-.03-.51.12-.92.42-1.08.89-.41,1.87-.28,2.77,0,.67.21,1.3.53,1.9.88l-.02.05Z"/><path class="cls-1" d="M207.08,450.25c.5.32.98.65,1.44,1,.17.12.36.21.52.35.28.24.55.5.81.77.23.29.46.58.69.87.21.25.42.48.64.7.28.29.57.58.72.97.05.12-.12.24-.35.31-.23.07-.55.12-.74,0-.66-.41-1.31-.78-1.84-1.31-.32-.33-.74-.55-1.12-.79-.42-.29-.84-.57-1.29-.82-.27-.16-.55-.31-.84-.43-.44-.19-.88-.39-1.35-.48-.37-.06-.76.02-1.12.07-.08,0-.16.03-.24.03-.29-.01-.36-.18-.36-.78v-.41c.03-.46.2-.82.47-.92.8-.36,1.61-.16,2.36.09.57.19,1.1.47,1.62.74l-.02.05Z"/><path class="cls-1" d="M143.38,269.58l-5.92,32.23-16.8,58.98-13.24,48.7s-3.99,15.47-3.71,19.71,4.15,10.1,6.17,10.91,21.07,9.93,38.05,7.26,18.3-2.87,18.3-2.87l4.72-30.39,4.38-39.08,3.28,35.39,4.71,32.43s9.68,5.64,12.09,6.04c2.42.4,28.71,1.43,34.23-.86s11.56-7.44,11.56-7.44c0,0-3.19-36.19-6.3-42.4-.92-1.84-13-60.66-13-60.66l-7.66-44.47s-1.8-21.05-4.46-21.58-66.4-1.9-66.4-1.9Z"/><path class="cls-1" d="M144.8,214.61c.44.42.89.84,1.38,1.22.17.14.39.22.56.37.61.52,1.24,1.03,1.94,1.44.3.19.65.3.96.47.42.18.85.34,1.22.66.12.1.03.34-.18.58-.2.23-.53.5-.83.49-.51-.05-1.05-.04-1.51-.27-.46-.21-.9-.47-1.3-.8-.48-.39-1.08-.59-1.6-.93-.56-.39-1.09-.81-1.6-1.25-.32-.27-.62-.55-.92-.83-.45-.43-.9-.86-1.35-1.29-.35-.32-.78-.56-1.16-.87-.09-.06-.18-.12-.26-.19-.26-.3-.23-.49.1-.88.07-.09.15-.18.22-.26.27-.27.62-.37.91-.27.83.31,1.46.82,2.09,1.34.45.41.88.84,1.35,1.23l-.03.04Z"/><path class="cls-2" d="M81.08,177.52s-10-4.62-14.6-5.53c-4.6-.91-7.34.6-11.38.24s-8.34-2.71-8.34-2.71l-15.64,1s-6.62-.12-6.75-3.75,4.43-8.92,4.43-8.92c0,0-4.42-2.84-5.75-5.07s9.5-.62,9.5-.62l15.26,6.7,17.51,3.15s15.86,4.57,16.78,6.15-1.01,9.37-1.01,9.37Z"/><path class="cls-1" d="M82.02,166.53c.17.86.15,1.68.09,2.43-.03.27,0,.54-.05.81-.18.94-.44,1.79-.65,2.63-.1.37-.16.75-.2,1.12-.05.48-.07.95-.16,1.43-.03.15-.15.15-.32.03-.16-.12-.39-.35-.46-.65-.22-1.05-.34-2.11-.09-3.08.13-.58.05-1.18.02-1.75-.03-.62-.08-1.22-.23-1.78-.09-.34-.21-.67-.37-.97-.23-.43-.58-.85-1.03-1.06-.36-.16-.78-.09-1.06.04-.06.03-.12.04-.18.05-.21,0-.29-.17-.55-.79l-.18-.41c-.2-.45-.15-.94.26-1.21.3-.18.64-.37,1-.39.35-.02.71,0,1.04.1.67.17,1.26.53,1.74.98.72.65,1.24,1.59,1.43,2.43l-.05.02Z"/><path class="cls-1" d="M82.23,168.63c.5-.82,1.05-1.57,1.78-2.27.26-.25.48-.53.77-.74.52-.35,1.05-.68,1.65-.87.59-.19,1.2-.31,1.8-.38.53-.08,1.07-.09,1.59-.05.67.04,1.36.24,1.87.69.16.14.03.31-.21.48-.24.16-.59.39-.88.44-.52.07-.98.24-1.41.41-.45.12-.91.24-1.39.36-.58.19-1.1.58-1.57,1-.54.43-1.01.97-1.43,1.6-.26.38-.49.79-.69,1.23-.29.66-.58,1.35-.74,2.08-.12.56-.07,1.16-.11,1.74-.02.13-.01.25-.04.38-.11.47-.3.59-.85.6-.12,0-.25.01-.37,0-.4-.02-.71-.27-.84-.65-.08-.28-.17-.57-.22-.86-.03-.29-.04-.58-.03-.87.01-.58.1-1.17.22-1.77.19-.89.59-1.74,1.02-2.59l.06.03Z"/><path class="cls-1" d="M244.08,182.64l4.17-.18c.51-.03,1-.13,1.51-.15,1.8-.05,3.6-.11,5.39-.16.8-.02,1.6-.08,2.38-.16.5-.05,1.01-.11,1.52-.11.25,0,.51.01.77.03.26,0,.52.15.78.22.33.13.29.28.05.62-.17.23-.35.47-.49.68-.21.23-.46.4-.74.49-1.99.6-4,.9-6.1.81-1.25-.04-2.51.28-3.77.41-1.39.15-2.78.28-4.18.39l-2.58.2c-1.3.12-2.62.19-3.9.38-1,.14-1.96.47-2.95.68-.22.05-.43.12-.65.15-.82.11-1.1-.11-1.34-.88-.05-.18-.12-.35-.15-.52-.12-.58.18-1.14.75-1.39,1.69-.76,3.51-.97,5.37-1.2,1.37-.16,2.77-.25,4.15-.38v.07Z"/><path class="cls-1" d="M238.34,153.46s-4.97-18.52-4.9-19.13c.07-.6-2.46-15.52-4.49-19.26-2.03-3.74-4.9-9.68-8.93-12.36-4.02-2.68-7.9-6.05-12.88-5.99s-11.54.76-13.48,2.32-9.36,9.59-9.36,9.59l-2.14-1.94c-.98-.07-12.91-7.34-22.67-3.51-9.75,3.82-21.61,13.55-24.62,20.26s-11.29,30.02-11.29,30.02l-2.24,19.98,16.28,5.16,27.37,7.05s3.71,8.41,8.54,11.18c4.82,2.78,15.08-1.38,15.08-1.38l12.51-9.23s16.81,6.51,26.48,3.55c9.67-2.96,15.92-8.18,16.26-10.37.34-2.19-5.52-25.94-5.52-25.94ZM214.22,157.63l1.03,6.59s-.82,3.93-3.8,4.79c-2.98.86-10.33-2.12-10.33-2.12,0,0-3.76,9-13.89,12.51-5.73,1.98-18.81.63-22.06-1.88-3.26-2.52-8.63-8.81-10.33-12.56-1.71-3.75-3.05-14.84-3.05-14.84l.83-11.77,3.96-10.89,2.91-6.36c.79,1.14,11.78,4.52,17.08,4.53,5.31.01,11.19-1.11,12.89-2.81,1.69-1.71,4.71-3.07,4.71-3.07,0,.12.01,9.64,3.19,13.02,3.2,3.4,9.78,6.68,9.78,6.68,0,0,5.98-1.45,7.7,1.75,1.71,3.2,2.69,8.56-.99,10.95-3.68,2.38.37,5.48.37,5.48Z"/><path class="cls-1" d="M275,477.23c3.79.19,7.81-.2,11.69-.92,1.42-.27,2.8-.69,4.15-1.08,1.19-.33,2.38-.74,3.33-1.21.21-.11.44-.24.55-.33.13-.09.15-.11.26-.32.11-.23.26-.43.36-.69l.29-.8c.7-2.25.88-4.88.96-7.45.07-2.3-.09-4.63-.19-6.94-.05-1.49-.13-2.98-.13-4.48.07-1.5.31-3.03.67-4.52.25-.92.23-.78.4.01.12.8.81,2.22,1.26,3.88.42,2.97.88,5.98.97,9.07.11,3.08.14,6.22-.48,9.47-.11.49-.22.98-.34,1.48-.16.51-.32,1.01-.48,1.52l-.36.78c-.12.24-.25.59-.52.9-.22.34-.51.56-.77.79-.25.18-.5.36-.74.51-.96.59-1.89.98-2.83,1.33-.94.35-1.87.64-2.81.89-4.13,1.07-8.29,1.68-12.54,1.85-1.31.04-2.63.04-3.96-.06-.67-.06-1.34-.14-2.02-.26-.34-.08-.68-.15-1.03-.25l-.52-.17c-.18-.05-.41-.18-.62-.26-1.16-.49-2.08-1.38-2.39-2.53-.47-2.11,2.1-3.85,3.17-4.46,1.35-.82,2.74-1.46,4.11-2.09,2.76-1.23,5.47-2.41,8.32-3.36.63-.21,1.24-.44,1.89-.61,2.41-.62,3.37-.47,3.98.46.14.21.3.4.37.59.17.63-.58,1.34-2.17,1.83-2.37.78-4.85,1.69-7.3,2.64-2.43.97-4.96,1.95-7.05,3.27-.29.19-.59.38-.85.58-.13.09-.29.22-.34.27,0-.01,0,0,0,0,0,0-.01,0-.04.01,0,0,0,.02,0,.04,0,0,0,.01.01.02l.55.14c.94.19,2.06.35,3.2.38v.09Z"/><path class="cls-1" d="M284.76,460.26c.1-.97.15-1.97.17-2.97,0-.37-.08-.72-.07-1.09.03-1.3.07-2.62.05-3.94-.02-.58-.06-1.17-.13-1.75-.03-.37-.13-.74-.09-1.12.02-.38.1-.76.21-1.15.08-.24.41-.23.82-.07.4.17.96.47,1.16.87.2.35.28.71.36,1.08.08.36.16.73.22,1.1.09.74.07,1.5.02,2.28-.08.93.19,1.86.26,2.8.09,1.03.11,2.08.12,3.13l-.04,1.95c-.01.99-.15,1.98-.18,2.97-.04.77.09,1.57.07,2.39,0,.18.04.37,0,.54-.06.33-.18.53-.38.62-.1.05-.23.07-.39.07-.19-.01-.42-.05-.63-.09-.2-.04-.38-.06-.53-.09-.41-.09-1.31-.65-1.31-1.04-.26-1.25-.11-2.38,0-3.63.07-.93.2-1.87.22-2.85h.08Z"/><path class="cls-1" d="M345.77,474.51c4.09,1.14,8.73,1.36,13.14.98.81-.07,1.6-.21,2.38-.36.39-.08.77-.16,1.14-.26.35-.08.84-.23.84-.21.18-.04.39-.09.58-.21.22-.11.21-.39.09-.56-.11-.18-.28-.34-.48-.49l-.34-.23-.44-.27c-.3-.17-.6-.35-.92-.51-2.54-1.33-5.36-2.39-8.16-3.51-.91-.36-1.83-.72-2.76-1.11-.47-.2-.94-.41-1.43-.67-.22-.12-.59-.35-.86-.57-.27-.25-.5-.54-.64-.87-.08-.27-.18-.54-.24-.8l-.12-.67c-.05-.42-.08-.84-.08-1.24.08-3.78,1.36-7.02,2.14-10.13.33-.92.73-.87,1.33.13.57,1,.86,2.91.49,4.82-.24,1.28-.49,2.53-.61,3.69-.07.59-.07,1.13-.06,1.64.04.23.03.5.09.69.02.1.05.22.05.24h0s0,.02,0,.03c0,0,0,0,.01.02.03.02.12.08.22.12.36.19.83.4,1.28.59.94.39,1.93.77,2.94,1.16,2.01.78,4.06,1.59,6.1,2.57.98.47,1.98.95,2.99,1.52.26.14.5.28.77.46.39.22.74.5,1.1.76.68.55,1.31,1.17,1.64,1.87.17.35.3.71.35,1.1.04.19.02.39.04.58-.06.19-.07.39-.13.57-.1.38-.31.7-.56.99-.14.14-.26.28-.41.42l-.49.36c-.34.23-.74.43-1.12.62-.42.15-.84.32-1.25.46-.66.2-1.17.31-1.75.43-2.48.47-4.91.61-7.35.63-2.44-.01-4.87-.18-7.29-.6-1.49-.26-2.98-.61-4.44-1.14-1.45-.54-2.92-1.21-4.19-2.33-.24-.25-.46-.38-.72-.74-.13-.16-.24-.32-.32-.48-.09-.16-.18-.32-.24-.47-.28-.61-.43-1.19-.58-1.77-.27-1.15-.42-2.28-.55-3.4-.23-2.24-.32-4.46-.41-6.66-.12-3.42-.3-6.77-.28-10.17,0-.75-.02-1.48.02-2.24.15-2.8.51-3.69,1.52-4.16.23-.11.46-.26.68-.3.73-.15,1.19,1.01,1.21,2.99.04,2.96.09,5.99.14,9.06.06,3.07.11,6.18.39,9.22.1,1.12.23,2.24.41,3.3.17,1.04.44,2.12.72,2.69.03.04.06.1.07.13.02,0-.02-.01.02.03.14.12.26.26.43.38.32.25.69.5,1.11.71.83.44,1.8.8,2.82,1.07l-.02.09Z"/><path class="cls-1" d="M292.75,450.38c-2.09-.06-4.15-.29-6.17-.62-2.01-.34-4.04-.77-6.04-1.39-3.98-1.21-7.74-3.02-11.2-5.24-1.78-1.15-3.49-2.59-4.91-4.19-1.44-1.6-2.61-3.38-3.62-5.22-1.01-1.84-1.84-3.75-2.51-5.69-.69-1.94-1.23-3.91-1.68-5.88-1.31-5.78-1.94-11.62-2.1-17.43-.26-10.26.61-20.44,1.89-30.52,1.31-10.08,3.1-20.08,5.15-30.01,1.82-8.81,3.79-17.64,5.88-26.31,1.33-5.57,2.72-11.15,4.25-16.68.76-2.77,1.55-5.53,2.37-8.28.81-2.75,1.79-5.45,2.75-8.15,1.31-3.33,1.51-2.77,1.33.32-.08,1.55-.31,3.71-.64,6.31-.38,2.58-1,5.55-1.82,8.74-5.83,22.55-11.4,45.17-15.09,68.32-1.09,6.92-1.89,14.03-2.3,21.19-.4,7.16-.43,14.37.21,21.43.37,3.87.92,7.73,1.87,11.46.94,3.73,2.27,7.35,4.22,10.56.96,1.61,2.11,3.08,3.42,4.37,1.32,1.3,2.77,2.34,4.45,3.34,3.29,1.96,6.84,3.5,10.53,4.46,4.58,1.14,9.37,1.73,14.03,1.29,1.16-.11,2.32-.29,3.45-.53,1.1-.23,2.19-.61,3.26-1.05,2.13-.88,4.15-2.1,6.01-3.52,1.4-1.08,2.69-2.29,3.82-3.62,1.14-1.32,1.98-2.8,2.73-4.42,1.45-3.23,2.4-6.77,3.11-10.33,1.41-7.16,2.01-14.5,2.36-21.78.52-11.34.19-22.5-.13-33.75-.08-2.48-.16-4.9-.25-7.4-.24-9.27,0-12.24,1.01-14.24.23-.46.45-1.05.68-1.32.78-.89,1.44,2.87,1.8,9.65.52,10.05.95,20.41.99,30.96,0,10.54-.24,21.27-1.66,32.06-.54,4-1.24,8.02-2.37,12.02-.6,2-1.25,4-2.18,5.97-.91,1.95-2.17,3.98-3.65,5.6-2.97,3.25-6.51,5.76-10.51,7.51-1,.44-2.05.8-3.12,1.11-1.11.29-2.15.5-3.21.66-2.12.31-4.26.42-6.36.37l-.02-.09Z"/><path class="cls-1" d="M379.54,420.34c.82-5.68.82-11.59.5-17.48-.33-5.9-1.05-11.8-1.94-17.68-.64-4.3-1.54-8.56-2.35-12.83-2.94-15.06-6.62-30.02-10.68-44.89-1.8-6.6-3.76-13.19-5.72-19.69-1.27-4.17-2.52-8.37-3.7-12.58l-.86-3.17-.68-3.22c-.42-2.16-.88-4.31-1.13-6.5-.06-1.39-.06-1.99.02-1.96.08.02.28.67.77,1.74.51,1.06,1.14,2.58,1.98,4.39.41.91.85,1.9,1.31,2.94.24.52.44,1.07.7,1.62.18.57.37,1.15.57,1.75,1.29,4.25,2.71,8.47,3.95,12.74,1.26,4.28,2.52,8.55,3.78,12.84,2.47,8.58,4.84,17.23,6.94,25.99,2.53,10.47,5.32,21.34,7.38,32.19,1.11,5.97,2.06,11.98,2.74,18.04.67,6.06,1.09,12.16.93,18.31-.1,1.89-.13,3.78-.38,5.68-.14,1.89-.51,3.78-.84,5.66-.82,3.75-2.11,7.47-4.17,10.79-3.02,5.08-7.8,9.05-13.18,11.38-2.71,1.14-5.55,1.92-8.43,2.34-2.89.36-5.8.39-8.68.13-4.46-.47-8.8-1.59-12.87-3.51-4.08-1.87-7.71-4.82-10.47-8.49-1.15-1.66-2.22-3.34-2.97-5.24-1.42-3.51-1.75-6.01-1.76-7.72,0-.86.03-1.54.18-2.11.15-.56.35-1.01.6-1.4.22-.36.44-.82.67-1.01.38-.33.76.22,1.1,1.45.08.31.17.66.25,1.04.1.38.2.81.32,1.27.12.46.19.96.33,1.48.15.52.3,1.08.45,1.66.93,3.48,2.65,6.69,4.97,9.39,2.29,2.73,5.3,4.83,8.63,6.35,3.32,1.51,7.03,2.47,10.75,2.86,3.72.4,7.5.14,11.08-.78,5.35-1.27,10.17-4.29,13.67-8.46,1.76-2.09,3.08-4.53,4.1-7.09,1.05-2.55,1.57-5.38,2.05-8.21h.1Z"/><path class="cls-1" d="M187.16,477.39c-.31.24-.61.49-.86.74-.14.12-.25.24-.36.36-.11.11-.23.28-.2.21-.07.05-.15.2-.11.33.04.1.14.18.26.22.35.1,1.03.17,1.64.17,1.27,0,2.65-.17,4.01-.41,1.62-.29,3.22-.79,4.82-1.23,1.41-.37,2.87-.78,4.2-1.25,1.33-.47,2.61-1.09,3.83-1.82,2.42-1.47,4.59-3.45,5.91-5.91l.22-.41.14-.37c.11-.23.15-.54.22-.83.11-.59.16-1.22.17-1.86.04-1.28-.09-2.59-.18-3.9-.12-1.69-.33-3.38-.5-5.09-.09-.85-.16-1.72-.19-2.59-.02-.43-.03-.87-.04-1.31,0-.44.08-.89.12-1.32.2-1.1.17-.93.46-.04.36.88,1.16,2.42,1.66,4.34.77,3.43,1.77,6.85,1.55,10.74-.06.51-.05.98-.17,1.52l-.16.79-.29.86c-.42,1-.89,1.83-1.47,2.65-1.14,1.62-2.54,2.99-4.07,4.12-1.83,1.36-3.82,2.52-5.95,3.45-2.12.88-4.19,1.62-6.36,2.15-1.99.5-4,.91-6.12,1.1-1.06.09-2.14.13-3.3,0-.3-.04-.57-.08-.91-.16-.37-.1-.76-.21-1.11-.39-.71-.32-1.29-.85-1.67-1.5-.56-1.04-.46-2.32.14-3.34.11-.26.29-.48.48-.72.17-.23.3-.35.45-.52.29-.32.61-.58.91-.85.62-.5,1.25-.95,1.89-1.37,1.28-.82,2.56-1.57,3.86-2.29,1.94-1.06,3.89-2.12,5.84-3.18.95-.54,1.89-1.09,2.77-1.68.86-.58,1.74-1.26,2.17-1.91.15-.24.19-.39.22-.76.04-.35.03-.75.03-1.14-.03-.8-.1-1.61-.21-2.43-.22-1.63-.54-3.25-.91-4.84-.16-.7-.38-1.37-.55-2.07-.71-2.57-.81-3.16-.17-4.12.13-.22.22-.49.35-.7.22-.35.61-.39,1.22.03.55.39,1.11,1.19,1.51,2.21,1.18,3.05,1.79,6.18,2.1,9.48.07.83.12,1.67.12,2.56-.01.46-.01.9-.08,1.46-.02.15-.02.23-.06.43-.04.19-.09.37-.14.56-.08.38-.3.72-.48,1.07-.8,1.19-1.54,1.73-2.28,2.32-.73.54-1.46,1.01-2.18,1.45-2.14,1.29-4.27,2.37-6.35,3.48-2.06,1.1-4.15,2.21-5.79,3.56l-.06-.06Z"/><path class="cls-1" d="M114.52,476.08c-.51.27-1.01.55-1.44.84l-.61.44c-.16.1-.16.38.04.47.04.03.09.05.15.08.22.07.47.14.73.19.52.11,1.09.18,1.67.23,1.16.1,2.38.1,3.6.07,1.79-.06,3.58-.33,5.37-.55,1.58-.18,3.17-.4,4.68-.72,1.48-.33,2.95-.8,4.35-1.45,2.78-1.27,5.35-3.17,6.96-5.71.57-.94.82-2.4.98-3.77.16-1.4.16-2.83.24-4.26.07-1.83.07-3.68.11-5.54.01-.93.05-1.86.12-2.8l.12-1.4c.04-.47.18-.94.27-1.4.33-1.16.27-.98.46,0,.26.99.88,2.75,1.14,4.88.35,3.78.89,7.58.32,11.63-.13,1.02-.32,2.06-.76,3.22-.13.3-.27.61-.42.89l-.44.69c-.31.44-.62.89-.97,1.29-1.38,1.64-3.04,2.96-4.83,3.99-2.13,1.23-4.42,2.23-6.84,2.9-2.38.64-4.74,1.09-7.13,1.33-2.63.26-5.26.4-8,.14-.69-.07-1.38-.17-2.1-.34-.18-.05-.36-.08-.54-.15-.22-.06-.49-.15-.71-.25-.47-.19-.92-.42-1.29-.73-.77-.58-1.22-1.52-1.21-2.46,0-.95.49-1.83,1.17-2.54.22-.2.42-.45.67-.61l.57-.42c.37-.23.74-.47,1.11-.67.74-.41,1.49-.75,2.24-1.08,1.5-.63,2.99-1.22,4.48-1.78,2.26-.85,4.53-1.62,6.73-2.48,1.1-.43,2.19-.88,3.2-1.39.5-.26,1-.53,1.42-.83.23-.14.4-.31.57-.46.15-.15.25-.26.32-.42.07-.2.17-.63.22-1.04.05-.43.1-.86.12-1.3.06-.88.06-1.78.05-2.67-.04-1.79-.16-3.58-.33-5.35-.07-.78-.21-1.54-.29-2.31-.38-2.89-.42-3.55.33-4.45.16-.2.27-.48.43-.68.25-.33.65-.32,1.24.24.24.25.49.61.7,1.05.19.43.4.96.52,1.52.79,3.41,1,6.83.95,10.36-.01.89-.05,1.77-.13,2.7-.03.45-.1.94-.16,1.42-.02.23-.1.53-.15.79-.04.15-.04.24-.11.44-.06.2-.13.4-.21.59-.07.2-.18.38-.3.56-.12.18-.23.36-.36.53-.29.31-.54.59-.78.76-.48.41-.93.69-1.38.96-.88.52-1.73.92-2.57,1.28-2.49,1.08-4.94,1.9-7.35,2.76-2.39.86-4.81,1.69-6.87,2.84l-.04-.07Z"/><path class="cls-1" d="M213.25,459.96c.12,1.64.24,3.29.33,4.95.04.6.15,1.19.18,1.8l.11,3.2v3.21c.01.94.06,1.89.11,2.83.01.6.09,1.2.06,1.81-.03.3-.08.61-.13.91-.02.3-.26.61-.3.91-.03.37-.04.32-.12.01-.03-.16-.2-.38-.44-.64-.2-.26-.35-.57-.48-.91-.05-.15-.12-.3-.16-.45l-.07-.45-.13-.9-.25-1.8c-.15-1.2-.27-2.41-.33-3.63-.06-1.46-.35-2.96-.54-4.45-.2-1.64-.39-3.28-.55-4.92l-.33-3.04c-.19-1.53-.32-3.08-.58-4.6-.2-1.18-.57-2.31-.86-3.47-.07-.25-.16-.5-.2-.76-.08-.48-.09-.8.04-1.05.16-.24.42-.4.81-.55.17-.07.33-.15.49-.19.27-.08.53-.03.82.12.29.14.56.39.67.73.77,2.01,1.1,4.18,1.39,6.37.21,1.63.36,3.29.54,4.94h-.07Z"/><path class="cls-1" d="M143.83,460.64c-.07,1.75-.15,3.5-.25,5.25-.03.64.01,1.28-.03,1.92l-.26,3.38-.37,3.38c-.09,1-.16,2-.2,2.99-.05.64-.04,1.28-.14,1.91-.06.32-.15.63-.23.95-.05.32-.32.62-.4.93-.07.39-.08.34-.12,0-.02-.17-.16-.42-.37-.72-.17-.3-.28-.64-.37-1.01-.03-.16-.08-.33-.11-.49l-.02-.48-.03-.96-.05-1.93c-.02-1.29,0-2.57.08-3.87.11-1.55,0-3.17-.02-4.76,0-1.75,0-3.5.03-5.26l.03-3.24c0-1.64.03-3.29-.05-4.91-.07-1.26-.31-2.5-.47-3.76-.04-.28-.1-.55-.12-.82-.03-.52,0-.86.16-1.1.18-.24.47-.38.86-.49.18-.05.35-.12.51-.15.28-.05.53.03.8.22.27.19.51.48.59.85.55,2.21.64,4.55.68,6.91.03,1.75-.02,3.51-.03,5.28h-.07Z"/><path class="cls-1" d="M26.6,167.34c.61,1.11,1.37,2.1,2.38,2.32h.27s.09.02.12,0l.21-.05c.15,0,.31-.11.31-.27,0-.16-.09-.26-.21-.45l-.18-.23c-.09-.11-.18-.23-.27-.36-.18-.25-.35-.53-.49-.82-.29-.59-.44-1.29-.39-1.94v-.24c.11-.71.35-1.09.54-1.53.22-.41.41-.83.66-1.2.33-.52.66-1.04,1.04-1.53.4-.47.87-.89,1.43-1.26.4-.24.48.06.51.51.03.45.08,1.17-.15,1.8-.34.65-.7,1.29-1.01,1.93-.18.31-.36.61-.51.89-.16.27-.27.6-.28.55-.05.51,0,.98.39,1.62l.13.2.07.1.14.17c.19.21.38.45.58.69.35.49.59.98.61,1.51.02.53-.2,1.11-.6,1.47-.47.28-.86.64-1.49.75-2.54.78-4.49-.66-5.6-2.14-.69-.95-1.16-1.99-1.45-3.1-.11-.42-.19-.86-.22-1.31-.02-.49.02-.91.07-1.33.11-.84.35-1.68.7-2.46.53-1.22,1.27-2.34,2.19-3.26.2-.2.39-.42.61-.59.41-.33.72-.49.99-.5.29.02.53.14.79.38.12.11.25.2.35.31.17.19.22.42.19.69-.03.27-.13.6-.36.83-1.34,1.51-2.36,2.82-2.63,4.4-.06.3-.09.61-.11.92-.02.17.01.23,0,.35l.06.4c.11.57.34,1.2.66,1.75l-.06.04Z"/><path class="cls-1" d="M34.75,163.2c-.12.24-.24.51-.3.78-.03.1.02.19,0,.29-.07.35-.22.75-.2,1.13,0,.17.06.32.13.45.1.17.23.27.24.53,0,.09-.17.33-.42.53-.24.2-.62.37-.81.27-.64-.38-1.1-.98-1.06-1.63,0-.38-.18-.71-.2-1.08-.01-.4.02-.79.09-1.17.04-.24.09-.47.15-.7.07-.35.21-.69.28-1.05.07-.28,0-.62.07-.97.01-.08,0-.16.04-.24.14-.27.35-.24.92.18l.38.29c.42.35.72.7.82.84.28.42.32.61.22.89-.07.2-.2.42-.27.66h-.06Z"/><path class="cls-1" d="M154.35,157.27c.98,4.64,2.98,9.12,5.99,12.78,1.11,1.33,2.38,2.5,3.73,3.55.57.51,1.22.89,1.82,1.35.65.38,1.27.82,1.96,1.15,1.36.77,2.65,1.18,4.14,1.53,2.97.57,6.14.54,9.24.07,2.75-.44,5.45-1.3,7.95-2.45.82-.34,1.56-.82,2.33-1.24.75-.46,1.47-.96,2.18-1.47.66-.56,1.44-1,2.07-1.61.32-.3.68-.55,1.06-.8.35-.28.64-.6,1.04-.86.52-.31.78-.43.84-.37.07.07-.03.33-.11.89-.02.3-.11.6-.19,1-.08.39-.21.82-.38,1.26-.17.45-.44.87-.72,1.34-.3.45-.68.85-1.09,1.26-3.08,2.73-6.79,4.56-10.64,5.67-3.88,1.05-7.94,1.39-11.98.88-1.21-.18-2.43-.39-3.66-.73-.61-.12-1.22-.41-1.84-.61-.62-.22-1.14-.52-1.71-.77-2.23-1.1-4.32-2.51-6.12-4.2-3.96-3.71-6.72-8.49-8.32-13.53-.99-3.11-1.5-6.36-1.65-9.58-.1-2.45.03-4.9.33-7.31.33-2.41.82-4.79,1.41-7.12.94-3.61,2-7.13,3.38-10.56.3-.76.6-1.49.93-2.24,1.28-2.76,2.06-3.44,3.07-3.62.24-.04.49-.12.69-.1.69.06.57,1.37-.18,3.41-2.35,5.94-4.67,12.19-5.72,18.66-.77,4.79-.82,9.69.22,14.36l-.08.03Z"/><path class="cls-1" d="M198.88,135.54c-1.12-1.23-2.22-2.48-3.03-3.94-.31-.51-.68-.99-.92-1.56-.9-1.93-1.46-4.02-1.6-6.11l-.05-.69v-.7c.01-.46-.03-.92,0-1.38.07-.58.06-1.18.23-1.74.11-.28.2-.56.36-.82.15-.25.31-.5.47-.77.21-.31.2-.25.32.08.06.17.16.41.31.69.16.29.3.59.32.9,0,.27.15.55.14.8l.02.77c0,.51.13,1.02.16,1.52.18,1,.25,2.01.45,3.05.19,1.26.94,2.39,1.57,3.51.78,1.19,1.58,2.41,2.58,3.47.58.69,1.26,1.29,1.94,1.89.54.43,1.09.84,1.65,1.24.59.35,1.17.74,1.79,1.01.49.21.99.38,1.49.53.52.11,1.03.2,1.53.35.22.07.45.08.67.13.82.21,1.03.47,1.04,1.25,0,.17.02.35.01.51-.03.55-.51.96-1.24.96-1.09.04-2.19-.12-3.25-.46-1.04-.38-2.08-.83-3.04-1.42-1.46-.83-2.76-1.92-3.99-3.05l.05-.06Z"/><path class="cls-1" d="M130.79,129.45c2.47-5.24,5.31-10.4,9.19-14.94l2.19-2.44c.76-.76,1.54-1.5,2.36-2.19,2.9-2.44,6.1-4.54,9.55-6.16,1.73-.79,3.52-1.47,5.37-1.99,1.85-.5,3.75-.82,5.67-.94,3.43-.21,6.85.29,10.04,1.21,2.05.61,4.12,1.32,6.01,2.46.46.32.93.59,1.36.95.42.37.92.64,1.23,1.15.69.89,1.42,1.76,1.82,2.83.15.72.17,1.01.1,1.03-.08.02-.3-.24-.81-.54-.53-.28-1.19-.68-2.06-1.01-.4-.19-.98-.22-1.42-.41-.47-.17-.9-.42-1.39-.64-.41-.22-.85-.41-1.28-.6-.41-.23-.86-.41-1.3-.61-.88-.38-1.8-.71-2.73-1-1.86-.57-3.79-.98-5.7-1.23-3.76-.45-7.68.11-11.47,1.47-4.57,1.59-8.74,4.76-12.37,8.19-3.97,3.72-6.94,8.56-9.51,13.55-1.54,3.11-2.99,6.28-4.21,9.54-1.89,4.93-3.57,9.99-4.87,15.09-.99,3.97-1.65,7.93-2.28,11.92-.13.88-.25,1.74-.41,2.62-.56,3.26-1,4.24-2,4.83-.22.13-.45.32-.66.39-.35.11-.62-.18-.8-.83-.18-.64-.3-1.65-.2-2.89.2-3.7.77-7.44,1.56-11.19.76-3.76,1.74-7.52,2.86-11.26,1.66-5.55,3.67-11.04,6.07-16.39l.09.03Z"/><path class="cls-1" d="M110.19,199.64c3.66,1.22,7.31,2.48,10.93,3.83,1.32.49,2.67.9,3.98,1.41,4.62,1.83,9.2,3.77,13.68,5.94,1.98.97,3.98,1.94,5.93,2.96,2.51,1.27,5,2.8,6.9,5,.6.67.36.74-.43.54-.4-.09-.91-.27-1.57-.42-.65-.15-1.34-.39-2.05-.73l-.93-.45c-.32-.14-.64-.27-.94-.44-.6-.33-1.22-.65-1.85-.95-1.24-.63-2.51-1.22-3.78-1.81-2.56-1.16-5.11-2.36-7.69-3.6-3.08-1.47-6.48-2.56-9.77-3.75-3.62-1.3-7.26-2.57-10.92-3.79-2.25-.75-4.51-1.47-6.78-2.16-3.44-1.04-6.9-2.08-10.37-2.92-2.7-.65-5.39-1.08-8.08-1.53-.59-.1-1.18-.16-1.77-.27-1.1-.2-1.81-.37-2.29-.63-.47-.29-.71-.6-.89-1.04-.08-.2-.2-.4-.23-.58-.06-.31.15-.55.61-.74.46-.18,1.15-.32,2-.23,5,.43,10.09,1.62,15.14,2.97,3.75,1.01,7.48,2.15,11.2,3.31l-.02.08Z"/><path class="cls-1" d="M28.2,152.74c-.42-.13-.85-.26-1.27-.37l-.63-.16-.3-.07h-.03c-.1-.04-.22-.07-.36-.08-.07,0-.14,0-.21.03-.08.03-.06.11-.03.16.06.1.16.2.27.3-.16-.09.9.67,1.6,1.14l2.31,1.53c1.56,1.01,3.14,2.02,4.72,3.08,1.15.78,2.31,1.54,3.47,2.53l.22.19.11.1.15.16c.2.22.43.41.59.66.18.23.35.47.44.73.12.25.22.52.23.8.13,1.15-.57,2.21-1.53,2.92-.23.19-.37.27-.52.37l-.44.27c-.29.17-.58.33-.87.47-.57.29-1.13.55-1.69.8l-1.62.74-.39.19c-.08.04-.16.08-.24.13-.15.1-.35.22-.35.43.02.2.2.32.38.38.18.06.38.09.59.11.15.01.52.03.77.03.28,0,.57,0,.85-.01,2.3-.09,4.67-.43,7.02-.82,1.18-.19,2.34-.46,3.53-.68l1.01-.19c.43-.04.94-.2,1.3.11.2.09.38.24.55.39l.38.3c.22.16.43.33.66.47,1.59,1.05,3.58,1.47,5.57,1.43,2.02-.06,3.97-.49,6.01-1.09,0-.07.02-.02.02-.04.25-.03.53-.09.77-.06.22.02.41.03.59.05.36.05.71.1,1.05.16.69.12,1.37.26,2.04.41,1.35.3,2.68.63,4.01,1.02.66.18,1.32.4,1.98.6.65.24,1.3.47,1.94.74,1.28.51,2.52,1.16,3.7,1.91.71.51.98.78.93.8-.05.04-.43-.17-1.12-.37-1.39-.44-4.06-.63-7.05-1.34-1.46-.35-2.93-.67-4.4-.94-.74-.13-1.47-.26-2.2-.36-.36-.05-.72-.1-1.06-.13-.18-.02-.32-.02-.45-.03-.08-.03,0,.05-.05-.06.04.11.03.02.05.04.02,0,0,0,0,0l-.05.02-.09.03-.19.06-.38.13-.76.25c-.5.18-1.04.28-1.57.42-1.05.26-2.15.42-3.27.45-2.23.1-4.62-.29-6.73-1.44-.52-.28-1.03-.62-1.49-.99l-.33-.28s-.03-.03-.04-.05c-.02-.02-.04-.04-.07-.04h-.05s-.04,0-.04,0l-.16.02-.73.11-1.5.24c-2.01.31-4.03.7-6.1.92-.85.09-1.72.18-2.6.23-.44.03-.89.04-1.34.05-.49,0-.79.01-1.62-.06-1.44-.13-2.71-.58-3.33-1.51-.16-.24-.25-.51-.34-.8-.04-.29-.07-.6.01-.87.14-.54.47-1,.93-1.43.46-.44,1.06-.82,1.7-1.17.36-.21.52-.28.72-.39l.59-.3c.78-.39,1.55-.76,2.27-1.14.36-.19.7-.39,1.02-.6.15-.09.34-.23.41-.28.06-.04.11-.09.16-.13.1-.1.19-.22.2-.36.01-.14-.08-.27-.17-.37-.02-.03-.06-.06-.08-.09-.03-.03-.04-.04-.14-.13-.16-.14-.31-.27-.48-.41-.33-.27-.7-.54-1.06-.81-.73-.53-1.5-1.05-2.28-1.56l-4.74-3.06c-.8-.52-1.59-1.04-2.38-1.58l-1.28-.9c-.6-.44-1.18-.9-1.71-1.37-.25-.23-.46-.47-.69-.71-.16-.23-.38-.47-.5-.7-.28-.47-.43-.9-.43-1.43.11-.59.47-1,.96-1.22.49-.24,1.01-.4,1.63-.48.76-.09,1.62-.06,2.49.07l.66.1.58.12.88.21c1.17.3,2.3.67,3.41,1.06,2.22.79,4.39,1.71,6.51,2.63,3.12,1.27,6.57,2.2,9.91,3.16,3.37.94,6.76,1.83,10.14,2.63,1.33.33,2.58.57,3.92.78,1.33.22,2.65.43,3.97.64,2.65.43,5.29.88,7.94,1.42,1.17.24,2.31.46,3.49.76,2.17.54,3.59,1.09,4.53,1.59.47.27.82.53,1.09.78.25.28.41.61.55.88.12.25.31.5.36.66.09.27-.32.27-1.15.27-.42.04-.93-.05-1.5-.19-.59-.12-1.26-.27-2.02-.46-4.53-1.11-9.35-1.92-14.23-2.76-1.23-.21-2.46-.42-3.7-.63-1.22-.2-2.6-.48-3.81-.78-2.47-.58-4.94-1.2-7.4-1.85-3.66-.98-7.3-1.97-10.99-3.21-.9-.31-1.94-.71-2.78-1.08l-2.57-1.09c-1.71-.7-3.43-1.35-5.14-1.87v-.08Z"/><path class="cls-1" d="M140.01,247.45c.65-2.23,1.33-4.46,1.97-6.71.23-.82.37-1.66.61-2.48.83-2.89,1.66-5.79,2.42-8.7.33-1.29.61-2.61.91-3.9.4-1.66.62-3.36,1.43-4.92.23-.49.47-.36.73.16.13.26.28.62.41,1.04.06.21.14.44.17.67.02.23.01.47-.02.71-.24,1.72-.45,3.45-.8,5.15-.38,1.7-.81,3.39-1.31,5.07-.61,2.01-.91,4.18-1.38,6.28-.53,2.3-1.08,4.6-1.72,6.89l-1.18,4.21c-.59,2.13-1.27,4.24-1.83,6.36-.45,1.65-.72,3.31-1.11,4.97-.08.37-.15.73-.27,1.09-.43,1.33-.8,1.67-1.69,1.66-.2,0-.41.02-.61-.01-.66-.1-.98-.81-.86-1.82.33-3.01,1.27-5.97,2.11-8.99.64-2.23,1.32-4.48,1.93-6.74l.08.02Z"/><path class="cls-1" d="M211.44,245.61c-.21-3.24-.4-6.48-.56-9.73-.07-1.18-.22-2.36-.23-3.55-.08-4.18-.07-8.37,0-12.54,0-1.85,0-3.71.01-5.55,0-1.18.01-2.37.09-3.55.04-.59.1-1.18.17-1.77.05-.59.25-1.17.37-1.75.19-.73.29-.62.56.02.17.4.36.85.56,1.31.19.54.3,1.16.34,1.83.08,1.19.17,2.38.16,3.57l.08,3.57c.06,2.38.09,4.77.1,7.18-.02,2.88.39,5.86.63,8.8.22,3.23.46,6.47.74,9.71.17,1.99.34,3.99.54,5.98.32,3.01.55,6.06.94,9.04.3,2.32.78,4.58,1.16,6.87.09.5.2.99.24,1.51.1.95.08,1.58-.06,2.04-.13.46-.35.74-.69.98-.15.11-.3.25-.45.32-.49.23-1.06-.49-1.55-1.83-.63-2.01-.99-4.1-1.36-6.22-.36-2.12-.66-4.29-.93-6.46-.44-3.23-.65-6.5-.94-9.76h.08Z"/><path class="cls-1" d="M223.9,208.41c1.17-.03,2.35-.02,3.54-.03.43,0,.86-.09,1.29-.1,1.54,0,3.07-.04,4.62,0,.68,0,1.37-.05,2.04-.1.43-.02.86-.1,1.3-.07.44.06.88.16,1.32.26.27.07.24.14.03.33-.22.17-.6.59-1.07.86-.1.05-.21.12-.31.16l-.32.08-.64.14c-.43.09-.85.19-1.28.26-.86.15-1.72.3-2.61.27-1.06,0-2.14.29-3.21.43-1.19.14-2.38.3-3.58.35l-2.22.13c-1.12.07-2.25.08-3.36.2-.86.08-1.7.38-2.57.49-.19.03-.37.08-.57.09-.71,0-.94-.29-1.09-.99-.03-.16-.08-.32-.1-.48-.07-.53.22-1,.71-1.29,1.47-.73,3.01-.79,4.57-.9,1.17-.06,2.34-.11,3.51-.17v.07Z"/><path class="cls-1" d="M135.97,449.89c-4.36-.38-8.7-1.06-13-2.12-1.08-.24-2.14-.59-3.2-.88-1.05-.36-2.12-.66-3.16-1.09-2.1-.76-4.15-1.75-6.12-2.91-1.98-1.15-3.85-2.61-5.45-4.39l-.6-.67c-.19-.23-.36-.49-.54-.73-.34-.5-.73-.97-.99-1.53l-.43-.81c-.14-.27-.28-.5-.44-.99-.25-.82-.3-1.47-.32-2.09-.07-2.45.26-4.59.58-6.77.34-2.16.75-4.29,1.19-6.41,1.3-6.17,2.72-12.28,4.33-18.33,5.75-21.31,12.25-42.35,18.55-63.45,2.81-9.35,5.5-18.8,8.07-28.13,3.25-11.99,5.81-24.19,7.8-36.39.7-3.8.98-3.28,1.33.07.16,1.67.23,4.05.11,6.91-.14,2.86-.53,6.18-1.2,9.73-2.4,12.6-5.78,24.96-9.41,37.16-3.6,12.23-7.33,24.44-11.09,36.69-4.49,14.65-8.69,30.05-12.49,45.22-1.04,4.17-2.03,8.35-2.88,12.53-.42,2.09-.81,4.19-1.1,6.28-.15,1.04-.26,2.08-.32,3.1-.06,1-.06,2.05.11,2.75.02.06.04.12.06.18.03.08.11.2.16.31l.33.64c.2.44.49.83.77,1.22l.42.6.49.55c.34.36.64.75,1.03,1.06,1.43,1.38,3.17,2.5,4.98,3.46,3.64,1.95,7.72,3.18,11.83,4.13,5.09,1.11,10.32,1.72,15.56,1.94,5.24.22,10.52.05,15.66-.68,1.94-.29,3.88-.66,5.64-1.28.88-.28,1.72-.74,2.11-1.13.44-.54.85-1.42,1.16-2.3,1.24-3.63,1.89-7.63,2.5-11.56,1.16-7.91,1.89-15.9,2.49-23.84.93-12.35,1.35-24.5,1.85-36.75.1-2.7.2-5.34.3-8.06.48-10.08.9-13.29,2.07-15.39.26-.48.52-1.12.75-1.39.75-.92,1.26,3.22,1.06,10.61-.24,10.96-.61,22.22-1.2,33.65-.59,11.43-1.38,23.01-2.75,34.63-.52,4.32-1.1,8.64-1.98,12.99-.46,2.19-.94,4.36-1.79,6.64-.21.57-.47,1.16-.8,1.78-.35.61-.76,1.33-1.61,2.02-.33.23-.68.47-1.02.67l-.93.45c-.61.26-1.2.46-1.78.65-4.59,1.31-8.98,1.64-13.43,1.86-4.43.17-8.85.08-13.25-.3v-.09Z"/><path class="cls-1" d="M217.79,447.24c3.99-.31,7.96-.89,11.74-1.9,1.89-.5,3.72-1.14,5.39-1.95,1.64-.81,3.17-1.84,3.97-3.02.13-.28.39-.63.41-.8.04-.11.07-.32.11-.48l.07-.61c.07-.87.05-1.84.01-2.81-.1-1.96-.32-3.97-.59-5.97-.53-4.02-1.24-8.06-1.98-12.09-1.09-5.89-2.39-11.74-3.6-17.62-4.26-20.73-8.68-41.46-12.64-62.28-1.73-9.24-3.47-18.54-5-27.75-1.94-11.83-3.75-23.79-4-35.82.08-3.76.1-3.25.77-.13.35,1.56.83,3.76,1.37,6.43.27,1.33.56,2.78.86,4.31.15.77.29,1.56.46,2.37.12.81.25,1.65.38,2.5,3.65,24.1,8.59,47.99,13.32,72.18,2.84,14.46,6.44,29.39,9.48,44.19,1.64,8.15,3.3,16.29,4.37,24.63.25,2.09.48,4.19.49,6.38,0,1.11,0,2.2-.33,3.5-.44,1.42-1.19,2.36-2.02,3.26-1.71,1.7-3.71,2.76-5.71,3.64-2.01.87-4.07,1.49-6.14,2-5.1,1.25-10.28,1.82-15.45,2.03-5.18.22-10.37-.03-15.52-.76-3.89-.61-7.82-1.41-11.52-3.3-.46-.24-.92-.49-1.36-.8l-.66-.45-.63-.54c-.41-.3-.85-.89-1.16-1.37-.26-.49-.55-.99-.71-1.47-.78-1.94-1.23-3.86-1.66-5.78-1.56-7.69-2.34-15.39-3.12-23.05-1.17-11.9-2.17-23.57-3.02-35.34-.19-2.59-.4-5.13-.56-7.74-.25-4.85-.36-8.05-.28-10.3.13-2.26.36-3.57.7-4.63.16-.48.29-1.12.44-1.4.25-.48.55.26.93,2,.38,1.74.89,4.49,1.2,8.03,1.04,10.5,1.8,21.29,2.76,32.22.95,10.91,1.87,22.01,3.51,32.89.32,2.01.66,4.02,1.07,5.98.42,1.94.9,3.91,1.54,5.52.08.19.16.42.24.57l.25.46c.04.1.08.13.1.15.03.03.05.06.07.1,0,.06.2.2.32.31.14.11.26.24.42.35l.51.33c.31.24.74.42,1.11.62,1.59.78,3.44,1.36,5.32,1.82,1.89.46,3.86.79,5.84,1.03,1.98.26,3.99.4,6,.49,4.03.15,8.09.14,12.11-.21l.03.1Z"/><path class="cls-1" d="M276.67,123.78c-3.05,1.51-6.27,2.62-9.54,3.44-1.2.28-2.38.63-3.59.81-.77.13-1.55.22-2.32.31l-.57.07-.28.03h-.15c-.19.04-.3-.01-.39.11-.09.04-.43.6-.59,1.1-.18.52-.33,1.07-.39,1.65-.14,1.16-.07,2.38.22,3.52.22.8.51,1.49.99,2.14.48.64,1.08,1.21,1.73,1.66.41.3.88.52,1.33.72.47.14.92.35,1.38.48.93.26,1.91.38,3.03.35.78.18.76.19.35.96-.2.41-.59.83-1.17,1.27-.58.45-1.4.78-2.29.76-.78-.03-1.61-.07-2.33-.38-.73-.28-1.4-.67-2.03-1.09-1.24-.88-2.28-1.96-3.07-3.27-.84-1.39-1.18-2.87-1.3-4.29-.11-1.43,0-2.84.41-4.23.16-.56.37-1.13.62-1.69.15-.28.27-.56.45-.83.07-.11.21-.36.34-.51l.4-.5.22-.19c.05-.01.04-.11.14-.05l.13-.07c.17-.1.36-.16.54-.24.34-.12.78-.14,1.07-.19.49-.06.96-.12,1.44-.21.95-.17,1.89-.35,2.82-.55,3.11-.66,6.16-1.62,9.06-2.94,1.8-.79,3.51-1.76,5.19-2.79,2.52-1.62,4.96-3.41,6.98-5.55,1.55-1.68,2.77-3.58,3.71-5.56.22-.43.38-.88.58-1.32.38-.81.61-1.35.95-1.67.35-.31.73-.43,1.2-.48.21-.02.43-.08.61-.07.31,0,.51.23.67.67.16.44.24,1.1-.01,1.81-1.23,4.36-4.34,8.27-7.9,11.22-2.65,2.23-5.54,4.05-8.6,5.65l-.04-.07Z"/><path class="cls-1" d="M311.79,115.04c2.65.89,5.63,1.3,8.6,1.43,1.09.05,2.18-.06,3.26-.07.65-.01,1.29-.03,1.93-.07.32-.01.64-.04.96-.06l.51-.04.76-.09c2.28-.43,3.79,2.46,4.04,3.72.43,1.57.37,3.14.11,4.59-.2.99-.46,1.87-.86,2.84-.41.95-.95,1.78-1.55,2.54-.78.97-1.68,1.84-2.73,2.54-.53.33-1.09.66-1.71.84-.31.1-.63.16-.95.21-.33.04-.68-.03-1-.08-.83-.25-.64-.35-.15-.92.52-.66.99-1.76,1.81-2.36,1.46-1.13,2.71-2.9,3.14-4.37.11-.47.25-.93.32-1.39.11-.45.2-.9.23-1.35.1-.89.04-1.77-.16-2.53-.02-.09-.05-.17-.08-.24,0-.03,0-.06-.02-.1-.02-.07-.06-.15-.1-.21-.09-.15-.26-.22-.43-.17l-1.06.13c-.46.06-.92.1-1.38.15-.92.09-1.84.15-2.76.16-3.23.04-6.48-.22-9.69-.93-1.97-.45-3.93-1.09-5.77-2.09-.72-.39-1.32-.78-1.95-1.18l-1.85-1.23c-1.23-.83-2.44-1.69-3.64-2.57-1.85-1.38-3.72-2.73-5.36-4.51-.35-.41-.69-.81-.97-1.27-.54-.86-.75-1.54-.77-2.04-.01-.25.03-.48.11-.67.09-.2.23-.38.36-.53.12-.14.22-.3.32-.39.18-.15.42-.07.84.1.23.08.4.21.58.37.2.16.43.34.63.55.3.33.64.63.97.94.37.29.68.59,1.03.9.66.62,1.41,1.21,2.15,1.8.76.59,1.54,1.16,2.34,1.73.79.59,1.61,1.16,2.44,1.73,1.24.84,2.51,1.67,3.82,2.49,1.1.69,2.32,1.22,3.68,1.63l-.02.09Z"/><path class="cls-1" d="M239.94,118c-.44-3.44,0-6.89.94-10.11.95-3.22,2.45-6.23,4.31-8.96,1.38-1.97,2.88-3.87,4.63-5.53,6.23-5.84,14.59-9.04,22.95-9.13,3.71-.05,7.49.49,10.99,1.81l1.66.71.83.36.78.45,1.57.91c.52.3.97.72,1.46,1.07.47.38.96.73,1.41,1.14l1.15,1.4c.37.47.77.92,1.03,1.47l.43.79.21.39.11.19s.08.03.02.12l.03.11c.18.77.23,1.1.14,1.13-.09.04-.37-.2-1.03-.45-.68-.24-1.42-.71-2.38-1.15-.5-.2-.98-.45-1.48-.72-.25-.13-.48-.29-.74-.43-.2-.2-.47-.33-.69-.52-3.24-2.62-7.16-4.3-11.36-4.9-4.2-.59-8.62-.3-12.89.87-5.13,1.42-9.9,4.57-13.5,8.65-3.97,4.44-6.82,10.09-7.27,16.02-.12,1.82,0,3.64.34,5.43.42,1.76.99,3.5,1.91,5.1,1.32,2.45,3.24,4.69,4.82,7.31.79,1.31,1.46,2.71,1.97,4.16.51,1.53.75,2.96,1.09,4.37.5,2.18,1.14,4.27,2.11,6.12.95,1.8,2.31,3.3,3.99,3.92.74.28,1.51.38,2.31.41,1.51,0,2.55-.28,3.32-.33.77-.11,1.32.04,1.87.31.25.12.55.21.73.34.31.22.18.6-.33,1.2-.51.61-1.54,1.19-3.03,1.6-2.19.62-4.91.52-7.24-.73-2.33-1.26-3.93-3.41-4.93-5.57-.97-2.09-1.58-4.3-2.05-6.41-.24-1.05-.44-2.1-.68-3.02-.12-.48-.23-.85-.4-1.28-.17-.43-.34-.87-.54-1.29-1.13-2.52-3.07-4.79-4.95-7.62-.93-1.4-1.77-2.96-2.41-4.6-.64-1.64-1.05-3.37-1.31-5.1l.08-.02Z"/><path class="cls-1" d="M342.27,110.03c.14-1.48.19-2.85.09-4.26-.13-1.39-.32-2.79-.71-4.15-.37-1.36-.86-2.7-1.49-3.98-.61-1.29-1.36-2.52-2.2-3.69-1.23-1.71-2.74-3.21-4.32-4.62-5.51-5.03-13.3-7.5-20.81-6.35-3.32.51-6.52,1.81-9.31,3.65-.93.54-1.74,1.25-2.57,1.93-.87.63-1.55,1.49-2.36,2.19-1.54,1.51-2.9,3.17-4.43,4.78-1.18.86-1.14.7-1.04-.66.04-.69.25-1.59.56-2.67.4-1.02,1.07-2.11,1.91-3.2,3.21-3.67,7.49-6.46,12.16-8.04,2.33-.84,4.8-1.21,7.25-1.4h1.85s.92,0,.92,0l.92.09,1.83.2c.6.11,1.2.25,1.8.38,2.84.68,5.7,1.61,8.31,3.08,2.62,1.46,5.05,3.22,7.13,5.33,4.61,4.58,7.74,10.84,8.14,17.41.15,2.03,0,4-.2,5.95-.22,1.96-.56,3.91-1.09,5.82-.77,2.91-2.14,5.69-3.77,8.17-.81,1.25-1.69,2.42-2.43,3.58l-.52.87c-.14.29-.29.58-.41.86-.21.55-.39,1.19-.5,1.86-.36,2.07-.34,4.29-.61,6.59-.14,1.15-.35,2.33-.76,3.51-.43,1.19-1.04,2.33-1.91,3.35-.77.89-1.74,1.65-2.79,2.14-1.97.88-3.21.99-4.07,1.03-.43,0-.78-.05-1.08-.16-.3-.13-.57-.31-.81-.51-.22-.19-.5-.35-.65-.53-.25-.3-.05-.68.53-1.19.56-.53,1.59-.86,2.75-1.28.86-.29,1.64-.62,2.26-1.02.63-.4,1.1-.88,1.52-1.49.86-1.22,1.21-2.81,1.43-4.69.22-1.87.24-3.94.6-6.25.1-.58.22-1.17.39-1.79l.35-1c.13-.31.28-.6.42-.89.58-1.12,1.23-2.08,1.81-2.93,1.77-2.53,3.16-4.87,4.11-7.55.96-2.65,1.49-5.52,1.71-8.45h.09Z"/><path class="cls-1" d="M248.15,210.55c-3.55,6.39-6.55,13.1-8.64,20.09-.75,2.55-1.34,5.15-1.83,7.75-.46,2.29-.82,4.6-1.02,6.92-.22,2.32-.3,4.64-.19,6.95.11,2.3.41,4.6,1,6.77.58,2.16,1.52,4.28,2.98,5.65l.5.42.53.32c.37.15.71.3,1.22.36.47.07.95.19,1.42.22h1.42c1.89-.18,3.68-.95,5.21-2.12,1.97-1.5,3.52-3.61,4.73-5.87.27-.58.61-1.13.89-1.72.26-.59.58-1.16.79-1.77.49-1.2.98-2.41,1.31-3.68.33-1.56.53-1.43.9.07.07.37.13.83.2,1.37.06.54.07,1.14.1,1.82-.06,1.32-.3,2.88-.93,4.44-1.2,2.72-2.91,5.29-5.28,7.37-1.22,1-2.56,1.94-4.12,2.5l-1.16.43-1.22.25c-.81.21-1.64.19-2.47.2-.84.06-1.62-.16-2.43-.27l-.6-.1c-.21-.04-.47-.15-.7-.23-.49-.16-.91-.4-1.32-.65-1.62-1.04-2.62-2.46-3.39-3.85-.77-1.41-1.27-2.86-1.63-4.31-.39-1.45-.6-2.91-.76-4.36-.66-6.93-.02-14.04,1.56-20.8,1.76-7.42,4.52-14.53,7.87-21.31,2.07-4.17,4.37-8.22,6.86-12.13,3.77-5.93,8.02-11.58,12.53-16.91,3.51-4.14,7.17-8.05,11.24-11.61.9-.78,1.77-1.55,2.71-2.29,1.75-1.36,2.93-2.19,3.8-2.66.44-.22.8-.38,1.14-.47.3-.1.6-.14.91-.16.25-.03.55-.15.77-.17.19-.02.28.06.29.29,0,.2-.1.63-.32,1.01-.44.86-1.33,1.84-2.56,2.87-7.27,6.04-14.05,13.04-20.1,20.91-4.44,5.86-8.62,12-12.12,18.49l-.07-.03Z"/><path class="cls-1" d="M272.24,202.35c2.66,1.08,5.29,2.2,7.92,3.24.96.38,1.96.66,2.88,1l.53.2c.06.02.11.05.18.07.06,0,.13-.01.18-.04l.09-.04s.04-.01.15-.09c.7-.43,1.42-.96,2.13-1.51,1.43-1.1,2.82-2.28,4.21-3.47,1.23-1.06,2.4-2.2,3.56-3.32.74-.72,1.47-1.47,2.23-2.18.77-.7,1.59-1.36,2.46-1.96.55-.37.72-.03.61.65-.13.67-.48,1.73-1.24,2.66-2.85,3.11-5.7,6.26-9.08,8.99-1.02.82-1.97,1.7-3.12,2.59-.77.52-1.87,1.26-2.94.85l-.62-.15c-.17-.04-.33-.1-.5-.15l-.96-.31c-2.75-.96-5.41-2.02-8.1-3.03-1.65-.63-3.3-1.25-4.95-1.84l-1.87-.65c-.34-.12-.69-.24-1.07-.34-.18-.04-.38-.12-.56-.05-.03.18-.02.37-.02.55,0,.38,0,.75.02,1.15.05,2.05.32,4.05.57,6.05.05.44.14.87.18,1.32.14,1.65-.08,2.2-.76,2.63-.16.1-.31.22-.47.29-.53.22-1.09-.41-1.47-1.63-.51-1.81-.77-3.71-.98-5.64-.1-.96-.17-1.93-.23-2.91l-.03-.63-.02-.73c0-.47-.07-1.01,0-1.42.06-.42.08-.91.17-1.28l.55-.69c.34-.37.81-.57,1.34-.64.54-.09,1.2.05,1.86.14.32.06.67.04,1.01.14l.98.29,1.06.35c1.4.47,2.76.96,4.12,1.48l-.03.09Z"/><path class="cls-1" d="M325.17,197.11l3.29-2.25,1.71-1.11.46-.28.23-.14.11-.07.19-.09c.52-.25,1.03-.5,1.6-.64l.8.1.76.23.38.11c.13.04.17.07.25.11l.46.21c.61.28,1.16.58,1.71.88,1.27.69,2.54,1.33,3.76,2.06l6.36,3.9,1.45.89c.1.06.21.15.33.17.12-.05.2-.1.35-.19l.21-.13.36-.24.76-.52,1.52-1.06c1.79-1.27,3.53-2.63,5.25-3.97,1.09-.88,2.18-1.76,3.27-2.64.55-.43,1.13-.82,1.71-1.22l.87-.59c.3-.18.62-.34.96-.48.92-.27.74-.3.46.5-.23.86-.88,2.23-2,3.43-2.13,1.95-4.33,3.83-6.61,5.59-1.15.87-2.33,1.72-3.53,2.54l-2.13,1.43c-.23.18-.53.29-.81.42-.14.07-.28.13-.42.13-.07-.02-.14.08-.21-.03l-.22-.05c-.29-.05-.58-.18-.87-.27-.14-.05-.29-.1-.43-.16-.14-.07-.28-.15-.34-.19-3.02-1.86-6.15-3.53-9.23-5.23-.91-.5-1.81-1-2.72-1.47-.45-.23-.9-.47-1.33-.67l-.32-.15-.15-.06c-.1-.05-.2-.08-.31-.09-.08.02-.17.05-.26.1-.09.05-.14.06-.36.2-.36.21-.73.44-1.1.68-.74.47-1.48.97-2.21,1.47l-5.9,4.09c-1.52,1.04-2.95,2.06-4.69,3.03-.3.16-.59.3-.9.36-.3.14-.63.05-.94,0-.3-.1-.64-.19-.89-.3l-.66-.31c-.84-.43-1.64-.87-2.43-1.32-2.46-1.38-4.92-2.59-7.35-3.79-.54-.25-1.07-.5-1.61-.75-.99-.49-1.62-.79-2.01-1.15-.36-.44-.53-.77-.65-1.19-.05-.19-.14-.39-.16-.55-.03-.27.2-.43.7-.53.24-.04.58-.1.93-.1.37-.03.75.11,1.17.23,2.47.82,4.85,1.9,7.11,3.15,1.12.63,2.24,1.26,3.37,1.9l1.65.92c.26.13.54.29.79.41l.37.17.07.04h0s0,0,0,0c0,0,.01,0-.01,0,0,0-.02,0,0,0l.11-.06.28-.17.56-.35c.77-.51,1.56-1.04,2.34-1.59l4.73-3.38.05.06Z"/><path class="cls-1" d="M367.94,198.84c-.22,1.01-.43,2.02-.67,3.03-.08.37-.09.74-.18,1.11-.33,1.29-.66,2.59-.96,3.89-.15.57-.22,1.16-.28,1.74-.03.37-.09.74-.18,1.11-.04.18-.1.37-.16.55,0,.09-.11.18-.22.26-.09.08-.11.18-.17.26-.14.22-.24.18-.45-.04-.13-.11-.2-.26-.55-.46-.23-.19-.31-.4-.37-.62-.19-.79-.16-1.55-.1-2.31.03-.76.2-1.52.44-2.27.28-.9.25-1.86.37-2.79.14-1.03.32-2.05.51-3.07.11-.63.24-1.26.34-1.89.15-.95.34-1.91.4-2.86.03-.74-.06-1.49-.06-2.23,0-.16-.03-.32-.01-.49,0-.3.21-.48.35-.61.17-.12.39-.18.69-.22.14-.02.27-.04.4-.05.43-.02.79.27,1.07.74.31.69.36,1.38.45,2.07.04.69-.05,1.38-.12,2.07-.12,1.03-.31,2.05-.47,3.08h-.07Z"/><path class="cls-1" d="M285.63,286.41c-3.93-2.06-7.99-3.98-12.06-5.95l-2.25-1.05-1.14-.55c-.26-.14-1.1-.5-1.55-.97-.11-.1-.18-.23-.31-.32l-.13-.42c-.1-.28-.09-.57-.14-.85l-.05-.43-.03-.21v-.14s-.03-.55-.03-.55l-.07-2.18-.13-4.34c-.1-2.89-.23-5.78-.42-8.66-.16-2.56-.46-5.11-.79-7.63-.43-3.23-.94-6.44-1.24-9.71.1-1.07-.03-.9.48-.14.49.77,1.41,2.22,1.96,4.07.39,1.65.77,3.31,1.06,4.97.24,1.67.46,3.35.63,5.02.36,3.36.59,6.72.7,10.11.07,2.02.2,4.08.36,6.14l.24,2.93c.02.25.01.43.2.48l.11.06.28.14.68.32c4.07,1.87,8.28,3.67,12.37,5.67,2.53,1.24,5.04,2.48,7.51,4.01.26.17.52.33.78.52.13.09.26.17.39.28l.27.21c.08.09.18.16.26.26.04.04.07.1.13.13.06.02.12.02.18,0,.12-.02.24-.06.35-.09.13-.04.2-.07.43-.17.79-.34,1.6-.74,2.4-1.14,1.61-.82,3.2-1.69,4.79-2.56,2.87-1.57,5.6-3.3,8.55-4.79.65-.33,1.28-.67,1.97-.96,2.56-1.06,3.66-.98,4.42-.11.18.2.39.4.49.62.32.76-.51,1.46-2.13,2.25-4.9,2.42-10.06,5.56-15.54,8.33-.97.49-1.94.98-3,1.45l-.41.18-.21.09-.11.04c-.05.02-.11.06-.18.06-.5.2-1.02.26-1.51.35-.25.03-.49.01-.74,0-.12,0-.25-.02-.37-.04l-.31-.12c-.4-.08-.82-.51-1.21-.89-.07-.18-.2-.23-.32-.33l-.16-.13c-.08-.07-.2-.15-.3-.22-.2-.15-.43-.3-.66-.45-.46-.3-.95-.59-1.44-.87-1-.57-2.03-1.12-3.08-1.66l.03-.07Z"/><path class="cls-1" d="M359.98,270.45c-.05.65-.13,1.33-.19,1.99l-.13,1.04-.04.26c0,.08-.02.18-.06.35l-.18.88-.18.44-.05.11h0s0,.02,0,.02c.01,0-.13-.07-.07-.04h0s-.02.03-.02.03l-.03.05-.13.2c-.14.29-.44.47-.69.69l-.42.29-.27.18-.48.3-1.9,1.15-3.79,2.21c-1.33.77-2.62,1.62-3.96,2.37-2.36,1.32-4.74,2.62-7.13,3.91l-1.79.96-.9.48-.6.31c-.23.13-.47.22-.71.31-.47.28-.96,0-1.44-.14-.24-.07-.48-.22-.71-.33l-.47-.25-1.79-.97c-2.09-1.19-4.23-2.31-6.34-3.42-2.67-1.5-5.39-2.92-7.87-4.78-.78-.57-.54-.73.35-.68.44.02,1.06.09,1.78.2.73.1,1.55.29,2.36.63l4.33,1.81c1.43.63,2.81,1.35,4.21,2.04,1.39.71,2.79,1.39,4.13,2.17.31.18.8.43.71.42.04.04.1.12.17.09-.09.11.93-.42,1.57-.72,3.37-1.65,6.66-3.79,9.98-5.72l4.97-2.92,2.46-1.48,1.19-.75.28-.18s.09-.06.12-.1l.04-.15.05-.24.06-.52c.28-2.48.39-5.12.53-7.71.2-3.95.47-7.92.78-11.85.25-3.06.36-6.08.77-9.12.07-.67.17-1.33.31-2,.24-1.24.5-2.04.81-2.57.29-.53.66-.78,1.13-.94.21-.07.42-.18.6-.2.56-.09.99,1.06.78,2.82-.16,2.66-.41,5.34-.63,8.08-.2,2.75-.4,5.54-.6,8.33-.27,4.21-.53,8.44-.8,12.67h-.08Z"/><path class="cls-1" d="M287.98,253.91l-1.29-10.49c-.17-1.28-.4-2.54-.56-3.82-.53-4.51-1.06-9.02-1.48-13.54-.2-2-.44-4.01-.68-6-.15-1.27-.3-2.55-.45-3.83-.05-.64-.06-1.29-.07-1.93-.03-.64.11-1.3.15-1.95.1-.81.1-.7.39-.05.15.32.39.78.72,1.33.27.55.49,1.21.66,1.93.77,5.16,1.57,10.31,2.1,15.55.28,3.14.92,6.36,1.4,9.55l1.55,10.54c.31,2.17.61,4.33.92,6.5.45,3.28.89,6.58,1.34,9.84.37,2.53.88,5,1.3,7.5.1.55.21,1.09.28,1.65.14,1.03.16,1.72.02,2.22-.12.5-.34.8-.69,1.05-.16.12-.31.27-.46.34-.5.25-1.11-.55-1.54-2.02-.98-4.41-1.62-9.09-2.29-13.8-.5-3.5-.88-7.03-1.37-10.55l.07-.02Z"/><path class="cls-1" d="M315.03,246.74c.01-3.19.01-6.39-.03-9.58-.01-1.17-.1-2.33-.11-3.49-.04-4.11-.07-8.22-.2-12.32-.05-1.82-.17-3.65-.3-5.45-.07-1.16-.23-2.32-.22-3.48-.06-1.16.1-2.34.16-3.51.07-.73.2-.64.49-.05.15.3.35.72.58,1.23.11.26.23.53.35.83.06.15.1.3.18.46.03.16.06.32.1.49.24,1.17.33,2.36.41,3.54l.24,3.56c.13,2.38.22,4.76.24,7.15.02,2.87.31,5.84.44,8.76.15,3.22.25,6.44.35,9.66l.17,5.94c.08,3,.1,6.02.24,8.99.1,2.31.41,4.58.55,6.86.03.5.08,1,.09,1.5.05,1.88-.19,2.49-.83,2.91-.15.1-.29.22-.44.28-.49.19-.94-.56-1.22-1.93-.83-4.07-.93-8.37-1.11-12.69-.11-3.21-.18-6.44-.2-9.66h.07Z"/><path class="cls-1" d="M339.83,247.11l1.06-9.64c.12-1.17.18-2.35.31-3.52l1.68-12.37c.24-1.83.44-3.67.62-5.49.11-1.17.25-2.34.42-3.51.17-1.17.38-2.33.74-3.47.22-.71.38-.59.62.06.12.33.27.79.44,1.34.13.55.19,1.18.18,1.86-.03,2.4-.27,4.78-.51,7.16-.24,2.38-.52,4.77-.86,7.16-.43,2.86-.48,5.87-.77,8.81l-.92,9.7-.54,5.98c-.26,3.02-.53,6.05-.72,9.05-.15,2.33-.12,4.63-.19,6.95-.01.51,0,1.01-.06,1.52-.11.95-.22,1.57-.41,2-.2.43-.44.66-.75.84-.14.08-.28.19-.41.24-.22.07-.4-.09-.58-.45-.17-.36-.35-.92-.41-1.62-.27-2.09-.2-4.21-.18-6.36.06-2.15.11-4.34.3-6.51.25-3.24.57-6.49.86-9.74h.07Z"/><path class="cls-1" d="M327.7,163.01c-.38-.37-.79-.72-1.24-1.02-.16-.12-.36-.14-.53-.25-.6-.36-1.21-.79-1.9-1.04-.3-.13-.62-.15-.93-.19-.41-.03-.81,0-1.22-.2-.13-.07-.13-.42-.03-.8.1-.37.32-.8.59-.87.96-.23,1.97-.18,2.87.24.54.23,1.14.3,1.69.51.6.24,1.17.55,1.72.89.34.21.66.44.98.66.49.34.94.74,1.41,1.09.37.27.85.41,1.26.66.09.06.19.1.26.17.27.28.2.51-.31,1.06-.12.13-.23.25-.35.37-.41.4-.86.61-1.17.59-.23-.02-.43-.05-.63-.08-.18-.05-.34-.12-.5-.19-.32-.15-.6-.32-.87-.52-.37-.33-.73-.71-1.14-1.02l.03-.06Z"/><path class="cls-1" d="M384.35,247.81c-.38,3.85-.98,7.7-1.97,11.5-.39,1.38-.71,2.79-1.27,4.14-.24.6-.48,1.19-.78,1.77-.27.59-.59,1.16-.94,1.72-.32.57-.77,1.09-1.15,1.64-.48.5-.88,1.04-1.44,1.47-1.02.93-2.34,1.63-3.74,1.9-.66.17-1.48.22-2.22.07-.75-.14-1.43-.44-2.02-.82-2.08-1.4-3.36-3.34-4.43-5.28-.66-1.26-1.24-2.56-1.72-3.89-.22-.67-.48-1.33-.6-2.03-.1-.71-.18-1.41-.25-2.12-.04-.89-.01-.76.38-.12.2.32.53.76.96,1.27.2.26.48.52.68.82.18.31.36.64.53.99,1.18,2.46,2.6,4.82,4.14,6.74.8.92,1.71,1.66,2.57,1.88.45.11.82.14,1.39,0l.4-.07.38-.15c.26-.1.53-.18.77-.34,1.21-.66,2.22-1.89,2.99-3.29.79-1.4,1.39-2.97,1.9-4.56,1.13-3.5,1.8-7.24,2.23-10.98.27-2.31.46-4.64.54-6.97.14-3.53.15-7.1-.09-10.6-.19-2.73-.67-5.37-1.13-8.01-.11-.58-.22-1.15-.33-1.73-.36-2.16-.33-2.86.33-3.5.15-.14.29-.32.45-.43.52-.35,1.24.44,1.74,2.07,1.52,4.8,1.94,10.03,2.11,15.25.09,3.88-.03,7.79-.36,11.69h-.07Z"/><path class="cls-1" d="M214.53,147.33c.23-.58.31-1.18.33-1.81l-.07-.98c-.09-.3-.14-.62-.24-.92-.1-.2-.21-.4-.31-.6-.12-.19-.28-.34-.39-.54-.46-.62-1.08-1.19-1.88-1.52-.79-.33-1.69-.46-2.61-.39-.8.12-1.62.36-2.28.86-.23.13-.42.31-.61.49-.2.17-.38.36-.58.54-.2.18-.42.34-.64.52-.19.2-.4.39-.67.57-.34.22-.48.12-.64-.34-.17-.46-.41-1.38,0-2.15,1.55-2.58,5.08-3.96,8.04-2.97,1.73.52,3.55,1.43,4.64,3.01.28.43.52.89.74,1.34.16.47.33.95.45,1.43.07.48.16.96.21,1.44,0,.49.04.99-.04,1.48-.12,1.2-.51,2.34-1.04,3.36-.39.79-.92,1.49-1.47,2.15-.6.63-1.22,1.23-1.92,1.73-1.06.8-2.2,1.6-3.6,2-.31.07-.61.21-.94.22-.61.03-1.02,0-1.28-.23-.25-.24-.36-.55-.39-.98-.01-.2-.04-.39-.03-.58.02-.31.16-.58.36-.83.2-.25.44-.47.7-.54,1.54-.56,2.89-1.42,4.09-2.65.87-.9,1.68-1.95,2-3.14l.08.02Z"/><path class="cls-1" d="M211.9,170.26c-1.39.79-2.99,1.17-4.52,1.07-1.53-.08-3-.55-4.26-1.32-.45-.3-.92-.57-1.31-.94-.2-.18-.41-.35-.61-.54-.17-.21-.35-.41-.51-.63-1.15-1.51-1.75-3.36-1.82-5.15-.11-1.78.28-3.63,1.19-5.17.78-1.39,1.92-2.59,3.31-3.39.89-.49,1.88-.95,2.92-.97.26-.04.51,0,.77,0,.26.05.51.09.75.18l.71.25c.23.11.44.28.65.41.51.39.4.39-.14.67-.55.27-1.45,1.07-2.17,1.4-.34.09-.66.21-.96.31-.32.07-.62.21-.92.32-.58.28-1.12.67-1.59,1.14-.96.94-1.6,2.29-1.84,3.79-.05.45-.05.93-.02,1.4.1.45.13.94.34,1.36.29.9.89,1.64,1.54,2.27,1.44,1.43,3.7,1.98,5.65,1.43,1.2-.35,2.26-1.13,3-2.21,1.13-1.63,1.46-3.8.86-5.77-.49-1.52-1.51-2.8-2.71-3.71-.26-.21-.54-.37-.8-.57-.96-.73-1.19-1.08-1.12-1.97.01-.2,0-.41.03-.59.05-.31.26-.53.62-.63.36-.1.91-.13,1.49.11,1.81.6,3.31,2,4.37,3.67,1.06,1.68,1.71,3.71,1.66,5.83,0,3.17-1.71,6.34-4.54,7.98l-.04-.06Z"/><path class="cls-1" d="M173.18,124.38c1.85.19,3.73.2,5.6.06.69-.04,1.35-.21,2.03-.3,2.39-.3,4.77-.89,6.96-1.93.97-.47,1.83-1.12,2.6-1.83l.69-.73c.22-.26.42-.52.65-.76.42-.52.81-1.05,1.38-1.54.44-.27.46-.22.65.29.1.26.19.62.27,1.07.03.42-.08.86-.27,1.3-.76,1.5-1.99,2.69-3.27,3.69-1.31.98-2.76,1.73-4.28,2.21-1.83.53-3.65,1.22-5.54,1.55-2.07.37-4.17.45-6.24.37-1.28-.05-2.55-.18-3.82-.37-1.92-.28-3.8-.77-5.65-1.37-1.43-.48-2.92-.9-4.29-1.77-.3-.2-.6-.39-.88-.62-1.02-.93-1.05-1.53-.52-2.21.12-.16.23-.32.37-.45.47-.43,1.18-.38,1.81-.05,1.92.93,3.96,1.83,6.34,2.41,1.73.45,3.57.77,5.43.89v.09Z"/><path class="cls-1" d="M116.64,170.61l23.04,6.71c2.81.78,5.62,1.56,8.43,2.34,5.25,1.48,10.48,3.19,15.72,4.41.47.12.95.27,1.32.59.19.14.38.32.54.48.14.16.28.31.38.46.45.61.75,1.18,1.04,1.73.57,1.11,1.07,2.16,1.64,3.15,1.12,1.98,2.56,3.68,4.41,4.8.87.54,1.84.93,2.84,1.21l.77.18.77.1.77.1c.26,0,.52,0,.79,0,2.1,0,4.22-.51,6.24-1.28,2.61-.99,5.04-2.47,7.43-3.99.6-.38,1.18-.8,1.77-1.19.58-.41,1.14-.85,1.75-1.24,1.21-.78,2.31-1.69,3.52-2.5.81-.45,1.18-.63,1.21-.57.04.07-.23.42-.58,1.18-.35.75-.98,1.7-1.77,2.84-.42.54-.85,1.18-1.4,1.75-.55.56-1.17,1.13-1.86,1.66-1.21.95-2.47,1.86-3.81,2.66-1.36.78-2.75,1.52-4.22,2.12-.74.3-1.48.61-2.26.83-.76.27-1.56.46-2.37.63-.79.21-1.65.24-2.48.36-.42.03-.85.02-1.28.02-.43,0-.85.02-1.29-.06-1.75-.15-3.4-.58-4.99-1.36-1.58-.76-3-1.85-4.16-3.11-1.16-1.26-2.07-2.68-2.8-4.08-.74-1.38-1.34-2.85-1.95-3.89-.35-.55-.39-.59-.6-.67-3.22-.72-6.4-1.6-9.61-2.43-3.21-.83-6.42-1.71-9.59-2.61-7.74-2.24-15.48-4.48-23.21-6.72-4.76-1.37-9.53-2.75-14.3-4.07-3.61-1-7.24-2-10.86-2.95-1.81-.47-3.63-.93-5.44-1.35-.91-.21-1.81-.41-2.71-.59-.44-.09-.91-.17-1.32-.24-.26-.03-.53-.08-.79-.06-.21.04-.29.28-.39.44-.1.21-.15.32-.24.62-.2.62-.37,1.29-.51,1.98-.28,1.37-.49,2.77-.7,4.18-.4,2.82-.78,5.67-1.31,8.52-.23,1.26-.46,2.49-.77,3.75-.58,2.34-1.16,3.85-1.69,4.86-.53,1.01-1.05,1.49-1.64,1.79-.26.14-.55.34-.75.39-.68.15-.35-1.76.5-4.97,1.21-4.83,1.78-9.96,2.53-15.27.2-1.33.39-2.68.69-4.08.14-.7.31-1.41.56-2.18.04-.14.16-.49.3-.79.13-.31.26-.61.44-.88.16-.29.34-.55.56-.77.1-.13.21-.23.34-.31l.18-.14.09-.07.02-.02h.01c.08.13.03.03.05.05l.05-.03c.51-.34,1.13-.42,1.79-.38l1,.11.63.1c.71.12,1.4.26,2.08.4,1.36.29,2.69.6,4.02.92,7.88,1.92,15.65,4.14,23.44,6.3v.08Z"/><path class="cls-1" d="M241.72,173.87c-.64-4.52-1.99-9.17-3.33-13.76-1.37-4.61-2.87-9.2-4.23-13.9-.48-1.72-1-3.46-1.36-5.27-.37-1.77-.68-3.53-.93-5.29-.89-6.18-1.54-12.29-3.46-18.02-.95-2.85-2.21-5.59-3.84-8.09-.43-.61-.85-1.23-1.29-1.83l-1.43-1.73c-.97-1.1-2.08-2.08-3.27-2.98-4.24-3.13-9.56-5.13-14.74-5.2-3.32,0-6.67.92-9.74,2.26-1.54.69-3.01,1.53-4.39,2.5-.68.5-1.37.99-2.04,1.52-.67.52-1.28,1.12-1.93,1.68-1.65,1.4-1.51,1.23-.75-.59.39-.9,1.1-2.1,2.15-3.45,1.08-1.31,2.62-2.63,4.51-3.7,3.35-1.91,7.12-3.02,11.04-3.24,4-.17,7.81.75,11.34,2.21,3.51,1.5,6.81,3.56,9.55,6.4,2.62,2.81,4.73,6.04,6.23,9.52,3.65,8.34,4.49,17.61,6.03,26.15.22,1.19.44,2.32.75,3.47.3,1.15.63,2.31.97,3.46.69,2.31,1.42,4.63,2.16,6.95,1.46,4.65,2.95,9.31,4.16,14.09.73,2.95,1.42,5.92,1.57,9.11.01.81.02,1.62-.13,2.5-.05.41-.2.91-.35,1.31-.18.39-.33.8-.54,1.17-.81,1.5-1.94,2.74-3.18,3.76-1.87,1.57-3.98,2.7-6.13,3.64-2.16.93-4.39,1.64-6.65,2.19-4.52,1.08-9.15,1.58-13.78,1.41-1.8-.08-3.6-.26-5.38-.6-1.78-.35-3.56-.85-5.26-1.71-.42-.22-.85-.44-1.25-.72l-.61-.41-.57-.48c-.39-.3-.73-.7-1.07-1.08-.28-.39-.62-.78-.85-1.18-1.03-1.61-1.74-3.34-2.23-5.14-.42-1.59-.71-3.19-.7-4.86,0-1.55.19-2.85.46-3.9.16-.52.28-1,.45-1.41.18-.41.35-.78.52-1.09.75-1.25,1.42-1.81,2.11-2.11.31-.14.64-.36.86-.4.78-.11-.38,1.99-.92,5.67-.18,1.38-.19,2.78,0,4.18.2,1.4.56,2.78,1.05,4.1.49,1.31,1.16,2.59,1.93,3.58.69.92,1.7,1.59,2.93,2.15,2.47,1.09,5.48,1.6,8.51,1.75,3.05.14,6.16-.06,9.23-.55,4.54-.73,9.08-2.06,12.88-4.28,1.85-1.13,3.53-2.51,4.42-4.09.47-.87.64-1.35.68-2.4.04-.99-.07-2.12-.23-3.24l.09-.02Z"/><path class="cls-1" d="M169.64,270.04c3.97.27,7.96.45,11.96.47,1.46.02,2.92-.06,4.38-.07,5.15.03,10.32.02,15.49-.13,2.29-.07,4.6-.14,6.88-.26,1.46-.07,2.93-.14,4.4-.22.73-.02,1.47.01,2.21.04.74.02,1.47.07,2.21.17.92.13.8.33.05.75-.75.45-2.14,1.11-3.81,1.42-2.97.37-5.94.68-8.92.95-2.99.26-6,.24-9.02.23-1.81-.02-3.65.03-5.51.13-1.85.08-3.72.14-5.57.17-4.08,0-8.15-.07-12.23-.28l-3.76-.21-3.76-.31c-1.9-.11-3.79-.42-5.68-.61-1.89-.22-3.77-.57-5.65-.8-1.45-.24-2.89-.48-4.34-.68-1.45-.19-2.87-.55-4.32-.83-.63-.14-1.27-.21-1.89-.43-2.33-.72-2.96-1.26-3.15-2.2-.04-.22-.12-.45-.11-.65.02-.67,1.13-.88,2.8-.57,4.93,1.03,10.09,2.07,15.41,2.73,1.97.26,3.96.45,5.94.67,2,.14,3.99.35,6,.43v.08Z"/><path class="cls-1" d="M312.35,165.25c-2.52,1.84-5.43,3.15-8.43,3.82-3.01.67-5.98.89-9.02.65-2.2-.16-4.4-.55-6.5-1.26-3.7-1.27-7.04-3.41-9.81-6.04-1.41-1.3-2.66-2.74-3.8-4.25-1.16-1.5-2.16-3.11-3.06-4.75-1.62-2.92-2.95-5.99-3.98-9.13-1.32-4-2.25-8.29-1.64-12.55.42-1.31.39-1.11.93-.03.27.54.58,1.29.93,2.18.38.88.73,1.9.96,3.02,1.65,7.92,4.84,15.63,10.12,21.81,3.16,3.7,7.67,6.36,12.46,7.45,2.63.64,5.38.76,8.11.52,2.75-.23,5.4-.88,7.82-2.11,1.5-.72,2.88-1.67,4.14-2.77,1.28-1.08,2.39-2.36,3.38-3.73,3-4.17,4.82-9.23,5.71-14.34.72-3.98.76-7.99.53-11.96-.06-.87-.13-1.72-.19-2.6-.1-1.63-.21-2.68-.13-3.45.13-.78.34-1.26.6-1.68.12-.19.22-.44.33-.56.19-.21.45-.01.86.55.4.56.94,1.48,1.17,2.74.4,1.85.74,3.75.85,5.68.12,1.93.13,3.89.03,5.86-.19,3.94-.87,7.94-2.13,11.81-.92,2.88-2.2,5.69-3.86,8.31-1.66,2.62-3.78,5.01-6.33,6.89l-.05-.06Z"/><path class="cls-1" d="M339.05,162.01c-2.15,1.44-4.21,3.34-6.01,5.36-.66.74-1.22,1.56-1.79,2.34-.51.69-.98,1.4-1.34,2.11-.17.34-.36.77-.38.83-.06.14-.11.31-.09.48.01.17.11.34.27.42.16.08.35.06.52.01.09-.03.18-.06.27-.1l.14-.07c.09-.04.18-.1.27-.15.36-.21.71-.45,1.07-.71,1.25-.93,2.46-2.02,3.67-3.08.78-.68,1.53-1.4,2.38-2.02.43-.3.87-.59,1.32-.87l.69-.4c.24-.12.5-.21.75-.31.64-.21.58-.13.31.41-.25.58-.71,1.59-1.46,2.5-.32.41-.68.79-1.05,1.15l-1.09,1.11c-.73.75-1.47,1.5-2.26,2.24-.82.71-1.66,1.41-2.66,2.06l-.39.24-.54.3c-.44.22-.88.39-1.33.51-.88.2-1.75.07-2.43-.43-.8-.6-1.26-1.58-1.19-2.62.01-.52.15-1.06.29-1.57.15-.45.28-.73.44-1.09.63-1.31,1.37-2.48,2.2-3.55,1.83-2.35,3.91-4.42,6.22-6.28.72-.57,1.46-1.11,2.26-1.6.8-.47,1.66-.98,2.72-1.17,1.54-.3,3-.08,4.36.24,1.37.33,2.66.84,3.92,1.38,1.94.86,3.84,1.76,5.61,3.03.38.3.78.54,1.14.89,1.33,1.27,1.43,2.06,1,2.75-.1.16-.19.34-.32.46-.21.21-.51.23-.85.12-.17-.05-.34-.14-.52-.25-.2-.11-.41-.24-.62-.41-1.26-1-2.7-1.96-4.22-2.81-1.52-.85-3.13-1.61-4.77-2.11-1.21-.36-2.45-.6-3.49-.54-.28,0-.48.07-.72.09-.12.02-.2.06-.31.08l-.35.15c-.5.22-1.04.56-1.57.93l-.04-.06Z"/><path class="cls-1" d="M337.17,175.25c-.06.06-.13.2-.08.33.06.13.21.17.38.14.03,0,.06-.02.09-.03l.19-.11.57-.34c1.44-.8,2.9-1.98,4.18-3.26.59-.56,1.12-1.19,1.61-1.82.6-.84,1.28-1.63,1.99-2.4.22-.24.35-.14.42.22.06.35.12,1-.09,1.62-.17.55-.43,1.05-.71,1.53-.27.49-.56.97-.87,1.43-.6.94-1.38,1.76-2.23,2.51-1.04.87-1.92,2-3.23,2.81-.3.18-.88.52-1.44.69-.56.19-1.13.28-1.67.19-.52-.1-1.06-.29-1.42-.69-.38-.39-.59-.89-.68-1.43-.11-.66-.02-1.37.13-2.01.13-.51.3-.98.49-1.43.58-1.37,1.41-2.56,2.24-3.71.65-.89,1.25-1.82,2.01-2.65.17-.18.32-.38.51-.54.35-.31.62-.46.88-.46.27.02.51.15.79.4.13.11.26.22.37.33.18.2.26.44.26.71,0,.27-.05.58-.23.81-1.02,1.42-2.1,2.74-3,4.19-.33.54-.63,1.09-.88,1.63-.13.27-.23.55-.33.82-.08.25-.17.61-.16.52h-.08Z"/><path class="cls-1" d="M343.26,176.52c-.09.07-.27.34-.14.48.04.08.12.09.2.09.1,0,.19-.13.28-.16.04-.01.09-.03.14-.05.03,0,.05-.01.09-.04l.24-.16c.31-.22.62-.45.93-.7.61-.49,1.2-1.04,1.76-1.62.49-.52.94-1.07,1.36-1.64.53-.74,1.01-1.51,1.63-2.18.19-.21.46-.04.64.34.18.38.28.99.05,1.5-.42.89-.89,1.75-1.44,2.57-.56.8-1.22,1.54-1.96,2.22-.45.4-.87.84-1.31,1.29-.17.17-.56.57-.94.89-.38.32-.79.56-1.19.78-.98.44-1.85.54-2.7.19-.33-.17-.65-.42-.81-.77-.17-.33-.24-.68-.27-1.04-.08-1,.43-2.18.95-3.21.63-1.18,1.33-2.13,2-3.17.51-.79.91-1.65,1.43-2.46.11-.18.21-.37.34-.54.48-.63.84-.66,1.49-.25.14.08.27.14.36.21.17.12.26.29.38.58.13.31.11.56,0,.81-.63,1.47-1.51,2.83-2.34,4.21-.3.51-.6,1.02-.87,1.52-.19.36-.12.2-.16.25-.02,0-.04.02-.05.04l-.09.02Z"/><path class="cls-1" d="M349.88,176.47c-.05.09-.07.19-.08.33.02.19.12.27.21.25.06-.01.12-.17.18-.19.1-.04.24-.13.42-.29.03-.03.03-.02.09-.09l.16-.19.33-.39.65-.79c.38-.47.71-.98,1.04-1.49.4-.66.89-1.3,1.59-1.76.22-.14.37.05.46.39.08.33.17.84.03,1.24-.59,1.38-1.28,2.75-2.25,4.03-.74,1-1.75,2.98-2.71,3.57-.22.16-.43.24-.63.34-.21.1-.41.17-.62.2-.21.02-.44.06-.69,0-.25-.06-.53-.18-.73-.36-.14-.14-.29-.27-.4-.42-.5-.61-.61-1.41-.59-2.19.05-1.22.64-2.59,1.2-3.81.33-.72.53-1.5.83-2.24.07-.16.11-.33.19-.49.32-.56.59-.64,1.35-.27.16.08.33.14.47.22.46.26.85.82.73,1.26-.13.68-.34,1.31-.57,1.91l-.37.89c-.05.1-.02.07-.02.07,0,0,0,0,0,0h0s-.1.04-.15.17l-.1.11Z"/><path class="cls-1" d="M264.17,216.31c-2.98,1.19-5.89,2.95-8.25,5.13-.42.4-.82.83-1.17,1.27-.18.22-.34.45-.5.67-.11.21-.24.4-.37.62-.89,1.77-1.67,3.89-2.37,5.95-.71,2.08-1.35,4.21-1.96,6.34-.55,1.89-.97,3.83-1.42,5.73-.29,1.22-.58,2.45-.87,3.68-.28,1.23-.69,2.43-1.23,3.6-.46.7-.5.58-.77-.17-.15-.38-.26-.88-.38-1.5-.05-.3-.12-.64-.13-.98,0-.34.03-.69.09-1.05.76-5.1,2.03-10.11,3.69-15.08.52-1.48.96-3.02,1.48-4.57.24-.78.54-1.56.86-2.34.19-.4.33-.78.57-1.2.25-.42.5-.84.78-1.16,2.43-2.94,5.48-4.96,8.69-6.61,2-.98,4.08-1.81,6.38-2.17.89-.11,1.69-.23,2.96.05,1.11.28,2.11.92,2.41,1.94.15.52,0,1.05-.27,1.49-.27.45-.65.85-1.08,1.22-.21.19-.45.36-.67.52l-.53.36c-.36.23-.72.44-1.07.65-2.22,1.27-4.37,2.49-6.44,3.77-.45.29-.88.57-1.33.86-1.66,1.04-2.18,1.25-3.03.87-.19-.08-.41-.14-.57-.24-.55-.31-.24-1.36,1.01-2.38,1.83-1.5,3.86-2.67,5.87-3.79.98-.55,1.98-1.1,2.97-1.65l1.36-.82c.15-.09.12-.08.13-.08,0,0,0,0,0,0h0s0,0,.01,0c0,0,0,0,0-.01-.02,0,.04,0-.05,0-.11,0-.19-.01-.38,0-1.35.06-2.93.53-4.4,1.14l-.03-.06Z"/><path class="cls-1" d="M271.75,222.07c.1.01.26,0,.46-.07.1-.04.23-.09.27-.19.02-.09-.03-.16-.09-.22-.11-.08-.32-.05-.44-.09-.06-.02-.13-.03-.2-.04-.05,0-.06-.02-.14-.02h-.4c-.54,0-1.09.01-1.64.05-1.11.07-2.22.21-3.33.39-.98.16-1.97.36-2.94.6l-1.85.5c-.61.2-1.27.2-1.91.3-.4.04-.42-.14-.19-.51.12-.18.29-.42.52-.68.11-.13.24-.26.38-.39.07-.07.15-.12.22-.19.08-.04.17-.09.25-.12,1.24-.52,2.51-.97,3.8-1.35,1.3-.37,2.65-.53,4.02-.63.82-.05,1.65-.15,2.5-.23l.74-.06c.34,0,.69-.02,1.02,0,.33.02.68.01.98.07l.46.07.41.12c.58.18,1.05.42,1.42.74.38.31.7.75.71,1.33-.06.55-.32.92-.7,1.29-.39.36-.85.71-1.44,1.02-.35.19-.75.36-1.13.51-.38.15-.84.33-1.05.39l-1.59.52c-1.6.52-3.22.94-4.78,1.49-1.21.43-2.34,1-3.47,1.54-.25.12-.48.26-.73.37-.92.42-1.3.29-1.79-.26-.11-.12-.23-.23-.31-.34-.27-.34-.11-1.07.56-1.56,2.02-1.32,4.31-2.11,6.58-2.86l2.53-.8,1.24-.4,1.03-.36.03.06Z"/><path class="cls-1" d="M272.28,227.04l.52-.16.25-.08.08-.02c.1-.02.14-.02.23-.05.16-.04.34-.26.23-.42-.09-.1-.28-.08-.39-.11-.07-.01-.09-.03-.22-.04-.24,0-.47,0-.72,0-.49.01-.98.05-1.48.11-1,.11-2,.28-3,.49-.88.19-1.75.46-2.6.77-.54.21-1.08.39-1.62.58-.54.19-1.08.36-1.66.48-.35.08-.42-.09-.28-.49.14-.39.47-1.1,1.09-1.44,1.06-.69,2.22-1.11,3.4-1.48,1.18-.37,2.38-.65,3.63-.78.76-.1,1.51-.2,2.28-.3l.59-.06.3-.02.47-.02c.62,0,1.24.04,1.75.22.56.19.99.48,1.3.91.3.44.37,1.06.25,1.58-.15.53-.44.98-.86,1.38-.44.37-.98.74-1.53.95-.6.26-1.03.39-1.55.55-.5.15-.99.28-1.48.42-1.49.39-2.98.68-4.4,1.12-1.1.34-2.14.84-3.08,1.35-.21.11-.39.26-.59.34-.73.36-.92.32-1.52-.05-.13-.08-.27-.14-.39-.22-.2-.13-.3-.32-.28-.63,0-.16.06-.32.15-.47.09-.16.22-.32.37-.47.91-.91,1.99-1.36,3.03-1.78,1.05-.41,2.12-.7,3.18-.98,1.56-.41,3.14-.74,4.55-1.21l.02.06Z"/><path class="cls-1" d="M274.98,231.25c.73.34,1.25.73,1.57,1.14.34.42.52.79.56,1.49-.09.38-.18.68-.36.89-.3.37-.57.67-1.12.92-.48.22-1.09.39-1.82.49-.7.11-1.45.17-2.17.21-.84.05-1.15-.02-1.61-.01l-1.31-.03c-.77,0-1.53.04-2.28.07l-1.43.11c-.47.01-.96-.03-1.41.01-.27.02-.34-.1-.18-.42.16-.3.58-.84,1.15-1.14,1.03-.35,2.03-.59,3.04-.72,1.01-.09,2-.12,3-.1.48.14.81.02,1.27-.05.22-.04.57-.09.69-.33.06-.3-.22-.41-.44-.56-.27-.15-.62-.28-1.03-.39l-.24-.06-.41-.08-.91-.15c-.61-.08-1.22-.14-1.83-.16-.95-.03-1.88.15-2.78.31-.2.03-.39.1-.59.13-.37.02-.61,0-.8-.13-.19-.15-.33-.35-.46-.64-.06-.13-.13-.25-.18-.37-.08-.2-.05-.4.06-.63.11-.23.32-.51.62-.63.89-.45,1.84-.58,2.8-.68.96-.08,1.92-.08,2.88.03.36.04.71.09,1.07.15l.53.09c.2.05.28.04.67.14,1.31.26,2.56.6,3.53,1.05l-.07.04Z"/><path class="cls-1" d="M360.23,212.64c1.27.55,2.65,1.34,3.92,2.14l.83.54.51.35,1.01.73c1.34.99,2.62,2.01,3.88,3.16.95.87,1.82,1.84,2.54,2.88,2.46,3.78,3.36,8.09,3.78,12.25.1.93.15,1.86.21,2.79,0,.93.06,1.86.03,2.78,0,1.18-.07,2.37-.19,3.54-.09,1.18-.44,2.33-.72,3.47-.2.71-.27.6-.41-.04-.09-.4-.19-.85-.3-1.31-.06-.29-.13-.57-.19-.87-.04-.15-.06-.31-.1-.47,0-.16-.01-.32-.02-.49-.09-2.34-.18-4.66-.42-6.95-.16-2.29-.47-4.57-.97-6.8-.28-1.35-.8-2.64-1.4-3.89-.64-1.22-1.41-2.37-2.26-3.4-.51-.55-.97-1.08-1.56-1.56-.58-.5-1.2-.99-1.82-1.46-.63-.47-1.27-.93-1.92-1.37l-1.65-1.08c-.75-.5-1.69-1.06-2.76-1.44-.4-.14-.83-.27-1.29-.33-.23-.04-.46-.04-.69-.03-.11.02-.23.02-.34.05-.11.02-.25.05-.26.16-.01.2.15.34.28.48.14.13.3.26.46.39.33.25.7.49,1.08.73.6.38,1.28.75,1.85,1.06l.79.41.2.11c.08.05.1.05.25.15l.74.48c.43.29.87.56,1.29.88.78.6,1.25,1.07,1.48,1.5.2.46.22.81.12,1.19-.04.17-.07.35-.13.48-.11.22-.37.24-.75.16-.38-.09-.91-.25-1.43-.65-.8-.55-1.64-1.09-2.51-1.62-.67-.43-1.34-.85-2.02-1.28-.86-.56-1.83-1.11-2.8-1.7l-1.45-.89-.71-.45c-.22-.15-.48-.3-.77-.47l-.85-.48c-.21-.15-.28-.26-.42-.39-.3-.27-.38-.45-.55-.67-.47-.77-.48-1.19-.44-1.65.02-.19.04-.33.17-.68.21-.44.42-.73.69-.97.14-.1.21-.26.42-.31l.52-.18c.33-.12.67-.19,1.03-.25.72-.11,1.54-.08,2.52.09.99.18,2.16.54,3.46,1.09l.05.11Z"/><path class="cls-1" d="M351.85,226.05c-.85-.39-1.37-.86-1.6-1.31-.15-.23-.23-.45-.28-.74-.04-.15-.01-.32.02-.5-.02-.18.08-.34.12-.48.33-.53.6-.97,1.24-1.27l.47-.3.58-.24c.41-.15.84-.3,1.33-.36,2-.33,2.73-.2,3.85-.13,1.05.09,2.09.23,3.12.38.91.14,1.83.28,2.74.44.59.09,1.16.26,1.73.48.56.22,1.12.51,1.58.99.28.3.14.37-.24.49-.19.06-.46.15-.75.27-.29.1-.6.17-.91.18l-.83.02-.42.03-.41-.04-1.65-.12c-1.1-.08-2.21-.27-3.33-.42-.67-.1-1.36-.09-2.04-.04l-.48.03-.17.02-.36.04c-.3.03-.68.06-1.02.28-.06.05-.13.12-.14.19,0,.07.03.13.07.18.08.1.19.17.31.25.16.1.35.19.55.28l.32.13.17.07.25.09c1.38.45,2.8.89,4.22,1.22,1.11.26,2.24.36,3.37.56.25.04.5.06.75.13.23.05.42.12.57.18.15.08.25.21.33.31.16.23.22.46.22.75,0,.13.02.26,0,.37-.02.19-.15.33-.36.46-.21.12-.53.26-.88.29-1.98-.14-4.05-.58-6.13-1.13-.77-.2-1.55-.42-2.33-.66l-.58-.18-.5-.16-.55-.19c-.74-.24-1.43-.52-2.05-.82l.07-.04Z"/><path class="cls-1" d="M354.26,232.57c-1.37-.15-2.63-.43-3.35-.91l-.46-.39c-.16-.13-.22-.3-.36-.47-.07-.08-.08-.2-.13-.3-.03-.12-.11-.22-.09-.35,0-.12,0-.24.01-.36,0-.06.03-.12,0-.17l.05-.17.1-.4c.22-.24.28-.46.43-.69.16-.21.37-.4.57-.59.25-.2.59-.35.88-.52.31-.16.71-.25,1.06-.37.34-.15.77-.12,1.15-.18l.57-.06h.38c1.02,0,1.99.12,2.95.28.85.12,1.69.24,2.53.36.53.1,1.06.19,1.59.33.53.11,1.03.37,1.54.57.31.14.26.18-.04.28-.3.07-.87.37-1.49.46l-1.62.11c-.54.03-1.06.02-1.59.04-1.05,0-2.08.06-3.1-.05-.29-.02-.63,0-.88,0-.11,0-.24,0-.34.03-.22.04-.4.13-.62.24l-.1.07s-.13.04-.03.09c-.37.14-.3.48-.11.57.18.11.4.17.66.23l.29.06c.13.02.15.03.38.05l1.34.1c1.38.09,2.77.18,4.14.28,1.08.06,2.17.02,3.31.19.25.03.51.07.76.13.95.3,1.07.9.96,1.43-.02.13-.04.26-.08.36-.07.18-.22.29-.44.4-.21.09-.5.22-.79.23-1.62-.06-3.42-.3-5.34-.43l-2.17-.17-1.11-.09-1.38-.13v-.06Z"/><path class="cls-1" d="M357.24,236.73c-.1,0-.26.02-.43.1-.08.04-.17.11-.18.19.02.04.05.08.1.11.08.06.25.03.34.08l.14.06.27.06c.05.02.29.04.5.06.21.02.42.04.63.05.85.05,1.72.04,2.59,0,.77-.05,1.55-.1,2.32-.21l1.49-.2c.5-.03,1.02-.01,1.54.03.32.03.3.2.07.46-.23.25-.64.7-1.18.97-.97.34-1.97.64-2.99.88-1.02.23-2.09.25-3.17.22-.32-.02-.64,0-.98-.01h-.5s-.26.01-.26.01h-.37c-.5,0-.96.02-1.53-.04l-.82-.06c-.27-.02-.45-.13-.68-.2-.22-.09-.5-.15-.67-.26l-.51-.32c-.21-.1-.25-.24-.35-.37l-.13-.19-.07-.1c.02-.05-.02-.11-.03-.16-.07-.21-.02-.45,0-.65.08-.2.16-.38.25-.54.26-.32.46-.64.85-.91.45-.34.96-.67,1.55-.93.28-.14.58-.26.88-.39l.44-.18.31-.12c1.25-.45,2.53-.79,3.77-1.19.96-.31,1.87-.75,2.84-1.09.21-.07.42-.17.65-.23.83-.2,1.26.1,1.47.74.06.15.1.3.09.44-.03.23-.09.45-.14.66-.08.21-.24.44-.48.59-1.49.81-3.24,1.3-4.94,1.84l-1.88.6-.46.16-.19.07s-.01,0-.02,0c-.02,0-.04,0-.07,0l-.07-.04Z"/><g class="cls-3"><path class="cls-1" d="M379.04,98.33c-.32,3.71-.63,7.42-.9,11.13l-.21,4.06c-.34,4.77-.67,9.54-.93,14.32-.11,2.12-.13,4.25-.14,6.36-.01,1.35.06,2.71-.03,4.06-.02,1.35-.17,2.71-.43,4.07-.16.85-.11.73-.3.02-.09-.36-.3-.86-.5-1.47-.1-.31-.24-.64-.33-.99-.07-.35-.14-.73-.18-1.12-.19-1.39-.21-2.77-.24-4.16-.04-1.39-.03-2.77-.04-4.16.01-2.78.08-5.56.28-8.35.26-3.33.26-6.81.43-10.22.19-3.75.43-7.5.67-11.24.15-2.3.3-4.61.45-6.91.2-3.49.48-6.99.61-10.46.1-2.69.03-5.34.02-8.01,0-.59-.03-1.16-.02-1.75.04-2.19.25-2.88,1.04-3.32.17-.1.35-.24.51-.29.55-.19,1.06.72,1.15,2.34.32,4.79.17,9.83-.07,14.87-.17,3.75-.51,7.5-.76,11.25h-.07Z"/></g><g class="cls-3"><path class="cls-1" d="M416.67,102.89c.34-5.65.65-11.3.72-16.93.02-2.06-.05-4.11-.1-6.14-.04-1.79-.12-3.59-.37-5.27-.08-.39-.14-.83-.24-1.17l-.15-.49c-.07-.07-.06-.16-.13-.24-.29-.34-1.08-.75-1.85-1.02-3.22-1.13-6.9-1.58-10.46-2-3.19-.36-6.44-.52-9.63-.62-2.06-.04-4.12-.07-6.18-.11l-3.09-.08c-1.03-.02-2.06-.17-3.09-.26-1.29-.17-1.12-.24-.04-.6.54-.18,1.31-.43,2.24-.71.93-.24,2.04-.39,3.23-.46,4.24-.24,8.48-.14,12.74.04,4.26.21,8.52.61,12.82,1.69,1.29.35,2.58.69,3.96,1.42.17.08.35.2.52.32.17.11.35.24.53.42.37.28.66.84.86,1.24.31.78.46,1.47.61,2.17.47,2.73.61,5.37.69,8,.11,5.77-.14,11.5-.41,17.23-.2,3.52-.4,7.04-.59,10.56-.35,5.32-.69,10.67-1.04,15.95-.24,4.11-.3,8.15-.46,12.21-.04.9-.04,1.77-.09,2.68-.22,3.34-.49,4.39-1.41,5.04-.2.15-.39.35-.57.43-.57.28-1.12-1.14-1.09-3.59,0-7.28.49-14.91.96-22.58.36-5.69.76-11.4,1.04-17.11h.08Z"/></g><g class="cls-3"><path class="cls-1" d="M452.36,111.71c.26-4.5.46-9.01.45-13.49-.01-1.63-.14-3.26-.22-4.87-.07-1.15-.14-2.31-.29-3.42-.06-.57-.16-1.1-.26-1.64-.11-.49-.28-1.08-.39-1.38-.04-.06-.06-.14-.12-.19-.04-.06-.11-.09-.23-.19-.26-.16-.57-.33-.93-.48-.7-.3-1.48-.56-2.28-.77-1.6-.43-3.28-.76-4.96-1.03-2.52-.41-5.1-.6-7.64-.84-3.27-.29-6.56-.34-9.83-.88-1.02-.22-.89-.34-.02-.72.44-.19,1.06-.41,1.82-.64.38-.11.79-.24,1.23-.31.44-.07.9-.12,1.38-.13,6.82-.27,13.59,0,20.51,2.24.57.2,1.17.46,1.79.78.33.18.6.35,1,.66.18.16.35.34.51.52.14.2.27.41.39.62l.27.7c.09.22.14.41.2.62.12.41.23.81.3,1.2.18.79.3,1.57.41,2.35.22,1.55.33,3.09.41,4.62.2,4.64.07,9.23-.09,13.81-.11,2.82-.26,5.64-.41,8.45-.24,4.26-.57,8.53-.78,12.75-.16,3.28-.14,6.51-.22,9.76-.02.72,0,1.42-.03,2.14-.06,1.33-.15,2.21-.36,2.82-.23.6-.53.94-.94,1.2-.19.12-.38.28-.56.35-.31.11-.56-.11-.79-.61-.22-.5-.43-1.28-.45-2.26-.22-5.83.06-11.94.35-18.06.23-4.54.46-9.1.69-13.65h.08Z"/></g><g class="cls-3"><path class="cls-1" d="M485.11,117.04c.13-3.73.24-7.49-.13-11.09-.1-.63-.2-1.28-.35-1.88l-.24-.81c-.03-.16-.07-.17-.13-.25l-.09-.07-.28-.15c-.21-.1-.44-.2-.7-.29-.5-.18-1.05-.34-1.61-.48-1.12-.28-2.29-.5-3.47-.69-2.37-.37-4.78-.63-7.19-.83-2.15-.18-4.31-.23-6.45-.26-2.75-.08-5.51-.03-8.26-.49-.86-.34-.74-.36-.01-.83.36-.25.88-.47,1.51-.7.63-.24,1.36-.42,2.16-.47,1.41-.09,2.83-.19,4.25-.22,1.42.02,2.84.05,4.26.12,2.84.13,5.69.36,8.55.8,1.71.28,3.46.49,5.25.85.9.19,1.8.39,2.77.77.26.12.47.2.78.38.32.19.61.41.85.68.14.12.23.28.32.43.09.15.21.31.24.47l.23.77c.56,2.05.74,4,.85,5.95.07.98.1,1.95.11,2.92.03.97.02,1.94,0,2.9-.03,2.38-.15,4.74-.27,7.1-.2,3.58-.54,7.15-.82,10.69-.21,2.75-.3,5.47-.52,8.2-.05.6-.09,1.19-.17,1.8-.14,1.12-.3,1.85-.56,2.34-.29.48-.61.73-1.04.9-.19.08-.39.19-.56.22-.3.05-.52-.16-.7-.61-.18-.44-.36-1.11-.29-1.92.13-4.83.63-9.86,1.01-14.94.28-3.77.54-7.56.63-11.33h.08Z"/></g><path class="cls-1" d="M477.31,63.36c-2.83-3.87-7.17-6.5-11.92-8.11-.87-.28-1.76-.57-2.64-.72l-1.32-.27-.66-.14-.67-.07c-6.25-1.01-12.89.82-18.02,4.74-2.27,1.74-4.27,3.92-5.71,6.38-.95,1.57-1.71,3.24-2.39,4.95l-.27.64-.2.66-.42,1.32c-.32.87-.54,1.77-.82,2.68-.36,1.12-.58.97-.86-.09-.14-.53-.31-1.29-.47-2.24-.05-.93.07-2,.3-3.15l.96-2.96c.43-.95.9-1.87,1.39-2.79.57-.87,1.11-1.77,1.73-2.6.67-.8,1.29-1.64,2.02-2.39,2.87-3.03,6.47-5.38,10.43-6.71.6-.18,1.18-.4,1.79-.57.61-.14,1.23-.28,1.84-.42l.92-.21.94-.12,1.89-.25c2.54-.12,5.13-.1,7.6.52,1.38.28,2.68.65,3.97,1.11,1.3.43,2.56.98,3.81,1.56,2.47,1.22,4.84,2.73,6.83,4.68,2.5,2.35,4.39,5.3,5.67,8.41,1.02,2.41,1.43,5.04,1.46,7.58.03,2.56-.29,5.09-.87,7.55-.97,3.78-2.38,7.52-5,10.62-.29.34-.57.68-.86,1.02-.31.31-.64.61-.98.92-.32.27-.6.54-.89.74-.3.19-.57.36-.83.51-.52.28-.92.53-1.31.62-.78.19-1.29.13-1.77-.13-.22-.12-.47-.22-.62-.36-.25-.25-.14-.64.23-1.09.37-.46,1.04-.91,1.81-1.6,2.37-1.89,4.25-4.43,5.54-7.36,1.3-2.9,2.16-6.13,2.33-9.39.15-2.41-.03-4.85-.7-7.04l-.26-.81-.35-.84c-.22-.57-.51-1.1-.77-1.65-.56-1.07-1.2-2.09-1.94-3.04l.06-.05Z"/><path class="cls-1" d="M427.29,52.03c.33.41.68.83,1.06,1.25.13.16.31.27.43.44.43.63.87,1.27,1.25,1.96.17.3.36.59.55.86.11.18.25.36.35.55.09.2.15.42.15.66,0,.15-.32.28-.69.36-.37.07-.83.14-.99.03-.3-.21-.59-.4-.86-.61-.12-.11-.27-.21-.38-.34-.1-.14-.2-.3-.28-.48-.2-.42-.68-.6-1.04-.9-.41-.32-.76-.76-1.16-1.15-.24-.25-.49-.5-.73-.75-.38-.37-.72-.81-1.14-1.16-.32-.29-.79-.44-1.14-.75-.08-.06-.18-.11-.24-.2-.23-.31-.12-.53.52-.99.15-.11.29-.21.44-.31.51-.33,1.01-.49,1.28-.45.38.08.75.12.98.29.25.15.45.35.68.56.34.35.68.71,1.02,1.06l-.05.06Z"/><path class="cls-1" d="M445.53,40.93c.09.49.2.96.25,1.46.03.18.11.33.13.51.06.63.12,1.27.17,1.89.03.27.1.53.17.79.1.32.21.64.16,1.02-.02.12-.23.17-.49.17-.26,0-.6-.06-.73-.21-.42-.56-.89-1.09-.95-1.78-.05-.41-.34-.74-.52-1.11-.19-.41-.35-.83-.49-1.26-.09-.26-.18-.53-.29-.79-.17-.39-.3-.8-.55-1.14-.2-.26-.51-.45-.78-.66-.06-.05-.12-.09-.16-.15-.13-.23,0-.41.58-.82l.39-.28c.44-.3.89-.44,1.18-.37.87.19,1.25.73,1.51,1.33.2.44.33.92.48,1.39l-.06.03Z"/><path class="cls-1" d="M470.85,42.06c-.3.42-.6.84-.86,1.28-.1.16-.12.34-.23.5-.37.55-.75,1.11-1.07,1.68-.15.25-.24.53-.32.8-.09.36-.1.73-.49,1-.11.08-.5-.05-.89-.27-.38-.22-.84-.54-.84-.77.08-.77.25-1.53.79-2.16.31-.38.34-.88.52-1.31.2-.48.43-.95.66-1.41.14-.29.29-.57.43-.86.21-.44.46-.86.59-1.32.1-.36.05-.77.06-1.17,0-.09-.02-.18,0-.26.08-.3.34-.29,1.05-.06l.49.16c.54.2.95.5,1.06.78.26.8.04,1.43-.21,2.06-.2.46-.44.91-.69,1.35l-.07-.02Z"/><path class="cls-1" d="M490.5,54.79c-.45.2-.91.4-1.34.64-.16.08-.27.23-.43.31-.57.29-1.16.57-1.69.91-.24.15-.43.36-.63.54-.27.23-.41.59-.9.6-.18-.02-.38-.23-.61-.59-.26-.39-.49-.86-.38-1.05.2-.33.39-.67.67-.93.29-.24.62-.45.99-.61.45-.18.71-.59,1.07-.88.4-.31.83-.6,1.25-.89.26-.17.52-.35.78-.52.4-.26.82-.49,1.17-.81.27-.25.43-.63.67-.92.05-.07.08-.15.15-.21.23-.2.42-.09.89.47l.32.39c.35.45.53.9.46,1.18-.1.39-.23.74-.44,1-.21.25-.46.46-.71.65-.38.29-.8.53-1.23.76l-.04-.05Z"/><path class="cls-1" d="M494.44,81.67c-.52-.13-1.03-.26-1.55-.37-.19-.04-.38,0-.57-.04-.66-.16-1.33-.4-1.99-.54-.29-.06-.59-.06-.88-.04-.38.04-.76.09-1.13-.18-.12-.08-.1-.53,0-.99.1-.46.29-.98.51-1.05.77-.19,1.54-.13,2.31.13.46.17.95.04,1.42.08.52.05,1.04.12,1.56.19.32.04.64.09.96.12.49.04.97.12,1.46.08.38-.04.75-.25,1.12-.4.08-.03.16-.09.24-.1.31-.03.4.18.46.98l.04.55c.02.62-.11,1.13-.33,1.33-.67.57-1.37.56-2.07.53-.52-.03-1.04-.14-1.57-.21v-.07Z"/><g class="cls-3"><path class="cls-1" d="M392.86,86.13c.15-2.63.31-5.27.46-7.9.05-.85-.78-1.66-1.62-1.62-.92.04-1.57.71-1.62,1.62-.15,2.63-.31,5.27-.46,7.9-.05.85.78,1.66,1.62,1.62.92-.04,1.57-.71,1.62-1.62h0Z"/></g><g class="cls-3"><path class="cls-1" d="M406.88,86.88v-7.53c0-.85-.75-1.66-1.62-1.62s-1.62.71-1.62,1.62v7.53c0,.85.75,1.66,1.62,1.62s1.62-.71,1.62-1.62h0Z"/></g><g class="cls-3"><path class="cls-1" d="M391.73,118.12l.66-7.16c.08-.85-.8-1.66-1.62-1.62-.95.04-1.54.72-1.62,1.62l-.66,7.16c-.08.85.8,1.66,1.62,1.62.95-.04,1.54-.72,1.62-1.62h0Z"/></g><g class="cls-3"><path class="cls-1" d="M405.79,117.91c-.11-2.06.11-4.12,0-6.18-.05-.85-.72-1.67-1.62-1.62-.84.04-1.67.72-1.62,1.62.11,2.06-.11,4.12,0,6.18.05.85.72,1.67,1.62,1.62.84-.04,1.67-.72,1.62-1.62h0Z"/></g><g class="cls-3"><path class="cls-1" d="M431.47,96.3v-4.14c0-.45-.2-.92-.51-1.24s-.8-.53-1.24-.51c-.95.04-1.75.77-1.75,1.75v4.14c0,.45.2.92.51,1.24s.8.53,1.24.51c.95-.04,1.75-.77,1.75-1.75h0Z"/></g><g class="cls-3"><path class="cls-1" d="M446.16,97.8v-4.14c0-.45-.2-.92-.51-1.24s-.8-.53-1.24-.51c-.95.04-1.75.77-1.75,1.75v4.14c0,.45.2.92.51,1.24s.8.53,1.24.51c.95-.04,1.75-.77,1.75-1.75h0Z"/></g><g class="cls-3"><path class="cls-1" d="M430.02,119.51c-.15-.49-.26-1-.33-1.51l.06.47c-.1-.8-.1-1.6,0-2.39l-.06.47c.01-.08.02-.15.03-.23.08-.48.08-.91-.18-1.35-.21-.36-.63-.71-1.05-.8-.45-.1-.95-.08-1.35.18-.36.23-.73.61-.8,1.05-.13.85-.22,1.69-.16,2.55s.2,1.7.45,2.51c.13.43.41.82.8,1.05s.93.31,1.35.18.83-.4,1.05-.8.32-.89.18-1.35h0Z"/></g><g class="cls-3"><path class="cls-1" d="M443.9,121.14c0-1.38,0-2.76,0-4.14,0-.45-.2-.92-.51-1.24s-.8-.53-1.24-.51c-.95.04-1.75.77-1.75,1.75,0,1.38,0,2.76,0,4.14,0,.45.2.92.51,1.24s.8.53,1.24.51c.95-.04,1.75-.77,1.75-1.75h0Z"/></g><g class="cls-3"><path class="cls-1" d="M465.68,116.55v-.1c0,.14.02.29.04.43-.19-1.42-.19-2.85,0-4.27l-.06.43c.04-.3.09-.6.15-.9.08-.43.07-.86-.16-1.25-.2-.34-.58-.66-.97-.75-.8-.18-1.83.24-2,1.13-.19,1.01-.32,2.04-.35,3.06s.07,2.05.21,3.07c.05.37.44.79.75.97.35.2.86.29,1.25.16s.77-.37.97-.75c.22-.41.23-.79.16-1.25h0Z"/></g><g class="cls-3"><path class="cls-1" d="M478.34,118.12c.15-1.5.3-3.01.45-4.51.04-.39-.21-.88-.48-1.15-.28-.28-.74-.49-1.15-.48s-.86.16-1.15.48c-.31.33-.43.7-.48,1.15-.15,1.5-.3,3.01-.45,4.51-.04.39.21.88.48,1.15.28.28.74.49,1.15.48s.86-.16,1.15-.48c.31-.33.43-.7.48-1.15h0Z"/></g><g class="cls-3"><path class="cls-1" d="M448.93,149.19l-18.13-.49-6.61-.09-23.31-.65c-3.45-.09-6.91-.11-10.33-.12-4.4-.03-8.81.14-13.2-.32-.68-.22-.98-.36-.96-.44.02-.09.36-.18.94-.46.58-.29,1.41-.49,2.4-.7,1-.19,2.16-.39,3.43-.38,8.98-.07,17.95-.06,27,.31,5.41.23,11.05.14,16.58.21,6.09.1,12.18.19,18.27.29,3.75.06,7.5.12,11.24.18,5.67.07,11.37.19,17.01.17,4.38-.01,8.67-.21,13-.34.95-.03,1.89-.08,2.85-.1,3.56-.06,4.7.19,5.45,1.04.17.19.4.39.5.58.34.64-1.12,1.2-3.73,1.37-7.74.48-15.9.44-24.09.33-6.08-.11-12.2-.22-18.29-.34v-.07Z"/></g><path class="cls-1" d="M161.61,140.03c.02-1.36.38-2.35.9-3.41.21-.38.34-.8.68-1.17.28-.31.68-.63,1.14-.86.45-.2.91-.32,1.33-.34.85-.06,1.55.15,2.17.38.56.19,1.07.4,1.57.63.67.19,1.16.79,1.69,1.21.17.13.07.31-.18.45-.23.1-.7.37-1.14.46l-.56.09c-.18.03-.34-.02-.5-.02-.3-.02-.61-.05-.92-.07-.55-.15-1.05-.23-1.44-.4-.24-.09-.45-.06-.55.02-.08.05-.21.24-.39.44-.4.47-.75,1.24-.91,1.95-.04.21-.08.44-.07.6,0,.1,0,.15,0,.19,0,.02,0,.01,0,0,.01-.01-.1.05-.15.09-.14.13-.15.09-.2.18l-.02.04h0s0,.01,0,.01h0c-.14.24.19-.33.15-.27h0s0,0,0,0h0s-.01.01-.02.02c0,.01-.02.05-.02.06.03-.09-.03-.16,0-.2.02.01.13-.02.25-.1.24-.16.49-.45.68-.77.31-.5.4-1.13.49-1.7.01-.12,0-.25.03-.37.08-.43.24-.42.98-.46l.5-.04c.28-.02.54.03.73.19.2.17.31.4.33.67.05.78-.09,1.47-.35,2.15-.28.67-.6,1.33-1.21,2.02-.1.12-.24.26-.39.39-.13.12-.32.26-.54.39-.38.25-1.13.53-1.97.38-.42-.11-.79-.22-1.2-.6-.1-.09-.19-.18-.27-.27l-.16-.23c-.09-.15-.2-.34-.25-.46-.2-.52-.25-.94-.27-1.29h.07Z"/><path class="cls-1" d="M176.34,141.98c.02-1.36.38-2.35.9-3.41.21-.38.34-.8.68-1.17.28-.31.68-.63,1.14-.86.45-.2.91-.32,1.33-.34.85-.06,1.55.15,2.17.38.56.19,1.07.4,1.57.63.67.19,1.16.79,1.69,1.21.17.13.07.31-.18.45-.23.1-.7.37-1.14.46l-.56.09c-.18.03-.34-.02-.5-.02-.3-.02-.61-.05-.92-.07-.55-.15-1.05-.23-1.44-.4-.24-.09-.45-.06-.55.02-.08.05-.21.24-.39.44-.4.47-.75,1.24-.9,1.95-.04.21-.08.44-.07.6,0,.1,0,.15,0,.19,0,.02,0,.01,0,0,.01-.01-.1.05-.15.09-.14.13-.15.09-.2.18l-.02.04h0s0,.01,0,.01h0c-.14.24.19-.33.15-.27h0s0,0,0,0h0s-.01.01-.02.02c0,.01-.02.05-.02.06.03-.09-.03-.16,0-.2.02.01.13-.02.25-.1.24-.16.49-.45.68-.77.31-.5.4-1.13.49-1.7.01-.12,0-.25.03-.37.08-.43.24-.42.98-.46l.5-.04c.28-.02.54.03.73.19.2.17.31.4.33.67.05.78-.09,1.47-.35,2.15-.28.67-.6,1.33-1.21,2.02-.1.12-.24.26-.39.39-.13.12-.32.26-.54.39-.38.25-1.13.53-1.97.38-.42-.11-.79-.22-1.2-.6-.1-.09-.19-.18-.27-.27l-.16-.23c-.09-.15-.2-.34-.25-.46-.2-.52-.25-.94-.27-1.29h.07Z"/><path class="cls-1" d="M171.17,162.34c1.47,1.05,3.47,1.3,5.16.72,1.83-.63,3.21-1.99,3.89-3.8.25-.68-.28-1.54-.96-1.69-.78-.18-1.42.24-1.69.96-.02.04-.03.09-.05.13-.04.1-.02.06.05-.12,0,0-.11.23-.12.24-.08.14-.16.28-.25.42,0,.01-.12.18-.13.18.12-.15.14-.18.08-.11-.03.03-.06.07-.09.1-.11.12-.22.24-.33.35-.05.05-.11.1-.16.15-.26.22-.02-.02,0,0,0,0-.4.27-.44.28-.13.07-.25.13-.38.2-.25.13.26-.09.01,0-.08.03-.16.06-.24.09-.15.05-.3.09-.46.12-.07.02-.14.03-.21.04-.3.06.33-.02.02,0-.16,0-.31.02-.47.02-.12,0-.36-.06-.47-.03.21.03.26.04.15.02-.04,0-.09-.01-.13-.02-.09-.02-.17-.04-.26-.06-.14-.04-.28-.09-.42-.13-.27-.09.24.12,0,0-.08-.04-.16-.08-.24-.12-.16-.09-.32-.19-.47-.3-.59-.42-1.56-.12-1.88.49-.37.71-.13,1.43.49,1.88h0Z"/><path class="cls-1" d="M180.38,130.83c1.35-.47,2.62-.76,3.97-.76.7,0,1.02.02,1.68.22.13.04.26.08.38.13-.13-.05.26.13.31.16.12.06.23.13.34.21-.2-.14.25.28.09.08-.03-.12-.03-.11,0,.03-.02-.05-.03-.11-.02-.16,0-.12.06-.23.16-.32.3-.14.35-.18.14-.11.13-.02.12-.03-.03-.03.11.02.11.02.03,0-.16-.03-.32-.07-.48-.11-.66-.16-1.29-.38-1.93-.62-1.39-.51-2.73-.99-4.2-1.16-.65-.08-1.28.63-1.25,1.25.03.74.55,1.17,1.25,1.25-.03,0-.12-.02.02,0,.09.01.19.03.28.05.14.03.28.06.42.09.33.08.65.17.97.27.64.21,1.27.45,1.91.68,1.2.43,2.8,1.13,4.05.58.88-.39,1.26-1.31,1.11-2.23-.13-.79-.73-1.38-1.37-1.79-1.14-.73-2.54-.99-3.87-.98-1.57,0-3.16.34-4.63.85-.64.22-1.06.86-.87,1.54.17.62.9,1.1,1.54.87h0Z"/><path class="cls-1" d="M169.88,142.11c-.4.56-.78,1.12-1.14,1.71-.13.21-.2.46-.34.67-.46.76-1.04,1.47-1.5,2.25-.21.34-.37.71-.52,1.07-.23.45-.46.9-.84,1.29-.12.12-.3.02-.47-.2-.17-.22-.38-.57-.36-.88l.07-.8c.04-.26.15-.49.23-.74.18-.48.4-.95.68-1.4.33-.54.48-1.18.77-1.76.31-.63.66-1.26,1.01-1.87.22-.38.44-.76.66-1.14.33-.58.69-1.13.98-1.72.22-.46.33-.98.49-1.48.04-.11.05-.23.1-.33.19-.38.41-.4,1.04-.1.14.07.29.13.43.21.47.26.76.64.74.97-.07.97-.43,1.79-.9,2.56-.36.57-.72,1.14-1.09,1.72l-.06-.03Z"/><path class="cls-1" d="M287.62,134.57c.3-.16.59-.34.9-.57.31-.22.64-.49.92-.63.57-.28.97-.25,1.18-.15.23.11.38.16.52.19l.11.02h.06s.04.03.04.03h.03s.02.02.02.02h0s0,0,0,0h0c-.05.07.06-.09.05-.07h0c.08.11.12.18.16.32.1.34.18.84.24,1.38-.09.65-.2,1.33-.46,2.09-.23.74-.43,1.45-.68,2.12-.35.84-.62,1.62-.92,2.44-.26.72-.42,1.46-.61,2.19-.13.47-.23.94-.37,1.4-.09.48-.46.88-.64,1.34-.14.28-.41.17-.68-.15-.14-.16-.25-.38-.4-.64-.07-.13-.14-.27-.2-.41-.03-.07-.05-.14-.08-.22,0-.07,0-.14,0-.21.09-2.02.61-3.94,1.32-5.81l.15-.42c.04-.11.06-.1.08-.16.04-.09.08-.19.1-.28.05-.2.08-.37.16-.6l.15-.42c0-.06.09-.2.03-.2-.04.01-.07.04-.11.06-.15.1-.34.21-.59.31-.15.06-.33.12-.52.16l-.55.14c-.23.05-.46.1-.69.13-.72.1-1.39.12-2.16,0-.75-.12-1.48-.4-2.12-.81-.99-.62-1.82-1.42-2.47-2.27-.14-.19-.3-.36-.42-.56-.37-.76-.22-.98.38-1.49l.4-.38c.43-.45,1.14-.27,1.59.16.68.62,1.09,1.2,1.54,1.61.45.41.79.66,1.2.78.15.05.33.07.51.09.22.02.48.02.72,0,.24-.02.48-.05.72-.09l.18-.04.09-.02h.04s.13-.06.13-.06c.31-.12.61-.24.92-.42v.08Z"/><path class="cls-1" d="M297.31,135.23c1.39,1.53,3.52,2.45,5.59,2.32,2.22-.13,4.15-1.26,5.47-3.02.43-.58.11-1.56-.49-1.88-.72-.38-1.42-.12-1.88.49.1-.14-.17.2-.22.25-.14.15-.29.29-.45.43-.02.02-.21.17-.13.11s-.12.08-.14.09c-.15.1-.31.2-.47.28-.08.04-.16.09-.25.13-.06.03-.29.12-.11.05-.17.06-.35.12-.52.17s-.36.09-.54.12c-.09.02-.19.02-.04,0-.11.01-.23.02-.34.02-.18,0-.37,0-.55,0-.02,0-.29-.02-.16-.01s-.13-.02-.16-.03c-.18-.03-.36-.08-.54-.13-.11-.03-.22-.07-.33-.11-.07-.02-.19-.07-.06-.01-.34-.14-.65-.34-.96-.53l-.11-.08c.08.06.08.06,0,0-.07-.06-.14-.12-.21-.18-.15-.14-.3-.29-.44-.44-.5-.55-1.44-.51-1.94,0-.55.55-.5,1.39,0,1.94h0Z"/><path class="cls-1" d="M292.8,155.29c3.04.92,6.62-.57,8.07-3.4.33-.64.19-1.52-.49-1.88-.63-.33-1.53-.19-1.88.49-.05.09-.37.77-.47.76.12-.15.14-.18.08-.1-.03.03-.06.07-.09.1-.04.04-.08.09-.12.13-.1.11-.21.21-.31.31-.07.06-.13.12-.2.18-.14.12,0-.01.07-.05-.13.07-.24.18-.37.25s-.25.16-.38.23c-.08.04-.16.08-.24.12-.04.02-.29.12-.08.04s-.06.02-.08.03c-.07.03-.14.05-.21.07-.14.05-.28.09-.43.12s-.29.07-.44.09c-.24.04-.01-.06.06,0-.03-.02-.18.02-.22.02-.3.02-.59.02-.89-.01s.03-.03.06,0c-.02-.03-.19-.03-.22-.04-.16-.03-.32-.07-.48-.12-.69-.21-1.53.25-1.69.96s.22,1.47.96,1.69h0Z"/><path class="cls-1" d="M305.24,120.66c-1.66-.36-3.4-.48-5.07-.19-1.44.25-2.81,1.07-3.26,2.53-.18.6.22,1.43.87,1.54.81.14,1.57.04,2.33-.26.65-.26,1.26-.6,1.91-.87-.11.05.23-.09.28-.11.15-.06.3-.11.46-.16.3-.1.61-.19.93-.25.37-.08.37-.08.74-.1.18,0,.36,0,.54,0,.09,0,.18.01.27.02-.11-.01-.08,0,.07.02.64.12,1.38-.17,1.54-.87.14-.61-.18-1.41-.87-1.54-1.45-.26-2.89-.06-4.26.45-.66.25-1.3.54-1.94.85-.33.16-.43.21-.69.3-.16.05-.34.11-.51.13.28-.03-.39-.05-.11,0l.87,1.54c.05-.13.04-.13-.03.02.03-.06.06-.11.09-.17.08-.11.07-.11-.03.02.03-.04.06-.07.1-.1.06-.05.32-.24.07-.08.11-.07.22-.14.34-.2.06-.03.33-.11.07-.04.13-.04.26-.09.39-.13.1-.03.2-.05.3-.07.06-.01.51-.08.17-.04.62-.07,1.26-.09,1.88-.06.76.03,1.16.09,1.89.25.64.14,1.38-.19,1.54-.87.14-.63-.19-1.39-.87-1.54h0Z"/><path class="cls-1" d="M282.82,123.91c.13-.08.26-.16.4-.23.08-.04.15-.08.23-.11.12-.06.08-.03-.02,0,.29-.11.58-.2.88-.27.08-.02.17-.03.25-.05.18-.04-.21.02-.03,0,.15-.01.3-.03.46-.03.17,0,.34,0,.51,0,.07,0,.14,0,.2.01.04,0,.32.04.14.01-.17-.03.06.01.09.02.08.02.17.03.25.05.15.03.3.08.44.12s.29.1.43.16c-.1-.04-.14-.06-.02,0,.08.04.15.07.23.11.13.07.27.15.39.23.06.04.11.08.17.11.26.18-.1-.1.03.02.05.04.38.3.36.33,0,0-.08-.14-.09-.16-.09-.28.11-.67.35-.81h1.26c-1.82-.84-3.71-1.51-5.67-1.95-.64-.14-1.38.19-1.54.87-.14.63.19,1.38.87,1.54,1.2.27,2.39.62,3.55,1.06.64.24.93.38,1.53.64s1.16.19,1.62-.27c.32-.31.49-.75.51-1.19.06-1.28-1.31-2.24-2.35-2.73s-2.1-.73-3.21-.7c-1.22.03-2.44.37-3.47,1.03-.55.35-.83,1.13-.45,1.71.35.55,1.12.83,1.71.45h0Z"/></svg>