<?xml version="1.0" encoding="UTF-8"?><svg id="Layer_1" xmlns="http://www.w3.org/2000/svg" width="520" height="520" viewBox="0 0 520 520"><defs><style>.cls-1{opacity:.25;}.cls-1,.cls-2,.cls-3{fill:#231f20;stroke-width:0px;}.cls-2{opacity:.45;}.cls-4{opacity:.4;}</style></defs><path class="cls-1" d="M171.19,163.54s3.6,11.91,5.77,24.87c2.17,12.96-1.99,28.26-5.31,35.97-3.32,7.71-14.59,18.7-18.23,19.95s-12.85,4.3-12.85,4.3c0,0-8.88-12.25-10.14-14.8-1.25-2.55-4.77-12.15-8.33-12.72-3.56-.57-4.5,3.27-4.5,3.27,0,0-9.11-5.84-12.05-5.31s-5.6-6.9-5.75-8.85c-.16-1.95-11.01,1.6-12.42-10.82-1.41-12.42,7.78-15.11,11.23-11.77s10.24,16.55,12.24,10.91c1.99-5.64-.03-16.63-.03-16.63,0,0,13.98-7.69,13.63-15.57s4.44-7.44,4.44-7.44c0,0,17.79,5.62,25.98,6.62,8.2,1,16.34-1.98,16.34-1.98Z"/><path class="cls-1" d="M378.4,247.35c0,5.95-5.35,11-11.29,10.62-6.42-.4-11.25-6.99-9.67-13.23,2.99-11.82,20.97-9.54,20.97,2.61Z"/><path class="cls-3" d="M345.81,194.04c.26-2.08-.05-4.29-1.47-5.9-1.24-1.41-3.19-1.85-4.99-1.61-1.19.16-2.3.58-3.35,1.14-.75.4-1.05,1.5-.58,2.22.49.76,1.42,1.01,2.22.58.19-.1.38-.2.58-.29.06-.03.37-.16.11-.05s.09-.03.15-.06c.37-.14.76-.25,1.15-.33.08-.02.17-.03.25-.04.11-.02-.42.04-.11.02.18-.01.37-.03.55-.03.15,0,.3.01.45.02.35.03-.35-.07-.1-.01.08.02.16.03.25.05.15.04.29.09.44.13.24.07-.35-.17-.13-.06.07.04.14.07.22.11.13.07.25.18.38.24-.11-.05-.31-.26-.11-.08.07.06.14.12.2.19.05.05.1.1.14.15.18.2-.04,0-.08-.11.05.14.2.29.28.43.04.07.07.13.11.2.11.23,0,.04-.04-.1.05.18.13.36.18.54.06.21.09.43.14.64.04.17-.03-.22-.03-.2,0,.06.01.13.02.19.01.13.02.26.02.39.02.54-.02,1.08-.08,1.62-.05.38.22.89.48,1.15.28.28.74.49,1.15.48.97-.04,1.51-.72,1.62-1.62h0Z"/><path class="cls-3" d="M333.9,205.32c.15-.36-.16.27-.22.37s-.13.19-.19.29c-.23.37.2-.21-.09.12-.33.38-.68.74-1.07,1.07,0,0-.39.3-.17.14-.11.08-.22.16-.33.24-.25.17-.51.33-.77.48-.25.14-.5.27-.75.39-.36.17-.22.11-.64.26-.57.2-1.15.36-1.74.47-.04,0-.45.07-.29.05s-.26.02-.29.02c-.31.02-.62.03-.93.02-.14,0-.28-.02-.42-.03-.5-.03.25.07-.24-.03-.28-.06-.55-.12-.82-.2-.52-.16-.88-.34-1.45-.73-.73-.49-1.8-.14-2.22.58-.47.8-.14,1.73.58,2.22,4.94,3.37,12.97.5,15.22-4.88.34-.81-.37-1.79-1.13-2-.94-.26-1.66.32-2,1.13h0Z"/><path class="cls-3" d="M314.73,236.45c1.55.58,3.11,1.16,4.66,1.74l-.97-2.39c-.07.1-.13.19-.2.28-.03.05-.07.09-.1.14.17-.21.2-.25.09-.12-.15.18-.3.36-.45.53-.31.34-.65.66-1.01.95-.1.08-.44.28-.01.01-.1.06-.19.14-.28.2-.19.13-.38.26-.58.38-.4.24-.81.45-1.24.63l.39-.16c-.08.03-.16.07-.24.1-.41.16-.74.35-.97.75-.2.35-.29.86-.16,1.25s.37.77.75.97.85.32,1.25.16c1.2-.48,2.25-1.09,3.26-1.89.9-.72,1.66-1.59,2.32-2.55.29-.42.27-1,.08-1.45-.21-.49-.56-.76-1.05-.94-1.55-.58-3.11-1.16-4.66-1.74-.37-.14-.92-.03-1.25.16s-.66.58-.75.97c-.21.92.28,1.68,1.13,2h0Z"/><path class="cls-3" d="M317.19,237.49s.01-.02.02-.03l-.25.33s.05-.06.08-.08l-.33.25s.06-.04.1-.06l-.39.16s.09-.03.13-.03l-.43.06c.05,0,.11,0,.16,0l-.43-.06c.07,0,.14.03.2.06l-.39-.16c.07.03.13.06.18.11l-.33-.25s.09.08.13.13l-.25-.33s.05.08.07.13l-.16-.39s.03.08.03.12l-.06-.43s0,.08,0,.12l.06-.43s-.01.07-.02.1c-.07.22-.08.43-.03.65,0,.22.07.42.19.6.1.19.24.34.42.46.16.14.34.24.55.29l.43.06c.29,0,.57-.07.82-.22l.33-.25c.2-.2.34-.44.42-.72.01-.03.02-.06.02-.09.03-.16.07-.34.06-.51,0-.01,0-.03,0-.04-.01-.12-.04-.32-.06-.44,0,0,0-.01,0-.02,0-.03-.01-.05-.02-.08-.06-.16-.13-.37-.24-.53-.08-.12-.18-.24-.27-.35,0-.01-.02-.02-.03-.03-.02-.02-.04-.04-.07-.06-.12-.1-.25-.21-.39-.3-.03-.02-.05-.03-.08-.05-.15-.08-.3-.13-.45-.2-.03-.01-.06-.02-.09-.03-.03,0-.05-.01-.08-.02-.15-.03-.31-.05-.46-.06-.02,0-.03,0-.05,0-.03,0-.05,0-.08,0-.15.01-.31.04-.46.06-.02,0-.03,0-.05,0-.1.02-.19.07-.28.11s-.19.07-.27.12c-.34.23-.48.37-.71.71-.12.19-.18.39-.19.6-.05.22-.04.43.03.65.05.21.15.4.29.55.11.18.27.32.46.42l.39.16c.29.08.58.08.86,0l.39-.16c.24-.14.44-.34.58-.58h0Z"/><g class="cls-4"><path class="cls-3" d="M299.65,345.46c-.07-.46.02.25.03.4.02.28.02.55,0,.83,0,.25-.03.5-.06.75-.02.24.06-.34,0,.02-.03.15-.05.3-.09.44-.11.49-.25.97-.43,1.44-.02.05-.19.44-.08.2s-.07.14-.09.19c-.12.25-.25.49-.39.73-.13.22-.26.43-.4.64-.07.1-.14.21-.22.31-.28.39.15-.17-.03.04-.35.39-.7.79-1.09,1.14-.09.08-.19.17-.29.25-.14.12-.24.18-.03.03-.2.15-.41.29-.62.42-.23.15-.47.28-.72.41-.11.06-.23.11-.34.16-.36.17.3-.11-.11.04-.91.35-1.64,1.28-1.31,2.31.29.89,1.33,1.69,2.31,1.31,5.27-2.02,8.41-7.5,7.57-13.07-.15-.97-1.42-1.6-2.31-1.31-1.06.34-1.47,1.26-1.31,2.31h0Z"/></g><path class="cls-3" d="M360.76,405.72c.13-.03.29-.04.42-.09-.32.04-.38.05-.18.03.07,0,.14,0,.21-.01.11,0,.21,0,.32,0,.52.03-.3-.08.03,0,.25.05.5.11.74.19.07.02.14.05.21.07.18.07.14.05-.14-.06.07.07.22.1.31.15.28.14.54.3.79.48.35.24-.01,0,0,0,0,0,.34.29.37.31.21.19.41.39.6.61.06.07.31.28.32.38-.17-.22-.19-.25-.07-.08.04.05.07.1.11.15.18.26.34.52.49.79.06.11.12.22.17.33.04.07.07.15.11.23.08.19.07.15-.04-.1.12.06.24.68.28.82.04.16.08.32.12.48.01.07.15.54.05.24-.1-.29,0,.15.01.24,0,.16.01.33,0,.49,0,.12-.02.25-.02.37-.02.21-.01.16.02-.13-.01.08-.03.16-.04.24-.06.29-.15.56-.23.84-.07.19-.06.16.05-.09-.03.08-.07.16-.11.23-.08.16-.17.31-.26.46-.51.84-.21,2.1.67,2.57s2.02.22,2.57-.67c2.82-4.67-.19-10.84-4.93-12.79-1.25-.51-2.65-.61-3.96-.27-.95.25-1.62,1.35-1.31,2.31s1.29,1.57,2.31,1.31h0Z"/><path class="cls-3" d="M350.81,304.09c2.52.87,5.16.18,7.18-1.46,1.63-1.32,2.85-3.41,2.88-5.54.01-.98-.87-1.92-1.88-1.88s-1.86.82-1.88,1.88c0,.09,0,.17-.01.26-.01.39.09-.47.02-.15-.03.16-.06.31-.11.47-.05.19-.33.78-.04.19-.08.16-.15.32-.23.47-.1.19-.21.37-.33.54-.05.07-.11.15-.16.23.28-.47.16-.21.06-.09-.28.33-.59.63-.91.91s.32-.22.03-.03c-.08.05-.16.11-.24.16-.18.12-.36.22-.55.32-.1.05-.22.09-.31.15l.27-.11c-.06.02-.12.05-.18.07-.2.07-.41.13-.62.18-.11.03-.24.03-.35.07l.3-.04c-.07,0-.14.02-.2.02-.22.02-.45.02-.67.01-.12,0-.25-.04-.37-.03l.28.04c-.07-.01-.14-.02-.22-.04-.26-.05-.52-.13-.77-.21-.93-.32-2.09.36-2.31,1.31-.24,1.04.32,1.96,1.31,2.31h0Z"/><path class="cls-3" d="M443.5,362.24c1.83,1.93,4.28,3.39,7,3.42s5.14-1.41,6.85-3.42c.64-.75.79-1.93,0-2.65-.7-.64-1.97-.8-2.65,0-.36.42-.74.8-1.15,1.17s.16-.1-.09.08c-.11.08-.22.16-.34.24-.2.13-.41.25-.62.37-.12.06-.23.11-.35.17.14-.07.21-.08.02-.01-.21.07-.43.14-.65.2-.12.03-.24.05-.36.08-.22.05-.08,0,.06,0-.24.02-.49.04-.73.04-.1,0-.2,0-.29-.01-.06,0-.48-.05-.19-.01.26.03-.07-.02-.12-.03-.12-.03-.24-.05-.37-.08-.22-.06-.44-.13-.66-.2-.08-.03-.4-.19-.06-.02-.1-.05-.19-.09-.29-.14-.24-.12-.48-.26-.71-.4-.09-.06-.19-.12-.28-.19-.03-.02-.4-.29-.23-.16.14.11-.13-.11-.15-.13-.12-.1-.23-.2-.34-.3-.23-.21-.45-.43-.66-.66-.68-.71-1.98-.73-2.65,0s-.72,1.89,0,2.65h0Z"/><path class="cls-3" d="M301.04,296.52c-.82.22-1.66.51-2.47.93-.29.16-.54.37-.84.52-1,.61-2.07,1.21-3.01,1.98-.41.35-.79.74-1.12,1.16-.21.27-.44.53-.68.77-.23.25-.51.47-.92.58-.26.08-.31.02-.44-.29-.06-.15-.17-.41-.23-.66-.03-.12-.07-.27-.07-.39,0-.12.03-.23.08-.33.31-.73.8-1.31,1.35-1.85.53-.54,1.13-1.03,1.78-1.44.78-.5,1.46-1.17,2.27-1.66.45-.26.89-.54,1.37-.75.47-.23.94-.45,1.45-.61.31-.1.6-.23.92-.31l.95-.22c.96-.2,1.96-.25,2.95-.22.39-.03.77-.01,1.15,0,.38.02.79,0,1.18.07.17.04.34.05.51.1.62.19.75.43.57,1.1-.04.15-.08.31-.13.45-.19.49-.59.81-.98.82-.29,0-.57,0-.83-.05-.27,0-.54.01-.8,0-.51-.09-1.04,0-1.57-.05-.39.06-.79.08-1.2.12-.4.1-.81.16-1.22.28l-.02-.06Z"/><path class="cls-3" d="M368.9,416.28c-1.26.55-2.55,1.03-3.84,1.5l-1.97.6-.98.3-1.01.23c-.99.2-1.93.57-2.93.67-3.49.61-7.1.52-10.57-.1-1.56-.2-3.06-.68-4.57-1.03-.91-.41-1.86-.75-2.74-1.22-.84-.56-1.6-1.24-2.39-1.81-.48-.38-.4-.34.12-.23.51.14,1.55.19,2.64.39.23.07.5.05.73.1l.69.18,1.36.36,2.71.7c.91.22,1.85.31,2.77.5.93.16,1.88.17,2.84.29,1.14.11,2.32-.02,3.5-.08,1.17-.2,2.35-.36,3.51-.6,1.26-.31,2.55-.53,3.79-.97l1.88-.59,1.83-.73,1.13-.45,1.1-.52c.73-.36,1.47-.69,2.18-1.08,1.06-.63,2.16-1.19,3.19-1.87,1.01-.7,2.08-1.33,3.01-2.13.74-.6,1.46-1.21,2.15-1.84l2.03-1.95c.31-.27.56-.6.86-.89,1.15-1.03,1.63-1.25,2.23-1.14.14.03.29.03.4.08.37.15.16.83-.51,1.81-.96,1.5-2.26,2.74-3.53,4.06-1.35,1.23-2.8,2.39-4.36,3.42-2.26,1.59-4.73,2.89-7.23,4.09l-.03-.05Z"/><path class="cls-3" d="M384.71,402.81c1.4-1.22,2.74-2.54,4.05-3.89.48-.5.91-1.04,1.39-1.52,1.71-1.73,3.4-3.52,5.03-5.35.74-.8,1.45-1.64,2.15-2.46.9-1.06,1.85-2.09,2.88-3.03.32-.29.38-.17.28.22-.11.39-.32,1.09-.73,1.78-.37.61-.72,1.23-1.1,1.83l-1.19,1.76c-.79,1.18-1.7,2.27-2.67,3.33-1.16,1.27-2.15,2.76-3.28,4.11-1.23,1.49-2.6,2.88-3.97,4.27-.87.83-1.72,1.68-2.64,2.46-1.34,1.24-2.84,2.32-4.32,3.38-1.15.83-2.27,1.7-3.57,2.33-.28.14-.54.33-.84.43-1.12.4-1.55.33-1.96-.15-.09-.11-.2-.21-.27-.32-.22-.37.08-.93.73-1.38l.73-.48.71-.55c.48-.35.95-.69,1.41-1.08.98-.66,1.93-1.41,2.89-2.15,1.39-1.16,2.88-2.26,4.22-3.57l.05.05Z"/><path class="cls-3" d="M303.28,296.78c1.31-.36,2.66-.56,4.01-.71.68-.05,1.34-.1,2.04-.1l1.07.04c.35.02.69.09,1.04.13.51.06.99.16,1.48.25.49.08.97.2,1.43.35,1.65.51,3.21,1.17,4.71,1.93.76.36,1.49.77,2.22,1.18.7.45,1.42.87,2.11,1.35,1.24.8,2.44,1.66,3.62,2.52.74.58,1.49,1.15,2.18,1.79.18.15.35.32.51.49l.44.57c.3.37.55.78.82,1.16.32.49.26.43-.18.19-.23-.12-.55-.28-.96-.44-.23-.08-.45-.17-.67-.25-.12-.04-.23-.1-.37-.13l-.31-.22c-1.5-1.06-3.09-1.98-4.69-2.87-1.59-.91-3.21-1.74-4.81-2.67-1.92-1.09-4.13-1.79-6.26-2.26-1.17-.27-2.34-.41-3.49-.43-1.21.05-2.43.13-3.62.38-1.48.27-2.94.69-4.34,1.28-2.12.87-4.17,2.02-5.91,3.51-.33.3-.66.6-.97.9l-.88.98c-.57.66-1.12,1.34-1.62,2.05-.23.3-.43.62-.65.94-.85,1.14-1.21,1.46-1.89,1.42-.15,0-.32.01-.45-.02-.46-.09-.47-.81-.05-1.91.7-1.57,1.67-3.08,2.83-4.48,1.2-1.36,2.63-2.54,4.15-3.58,2.26-1.55,4.8-2.7,7.45-3.43l.02.06Z"/><path class="cls-3" d="M371.09,276.72c1.48-.12,3.21.05,4.67.94.27.13.5.35.75.52l.36.28c.11.11.2.22.29.34,1.35,1.68,1.6,3.59,1.7,5.31.02.39.05.77.05,1.16.01.38.03.77,0,1.14-.02.97-.14,1.94-.4,2.87-.08.29-.22.23-.38-.03-.16-.27-.37-.74-.45-1.28-.08-.95-.3-1.88-.37-2.78-.12-.9-.24-1.79-.45-2.63-.23-1.03-.9-1.88-1.62-2.39-.79-.57-1.81-.86-2.98-.85l-1.08.1c-.37.05-.73.16-1.1.23-1.14.26-2.36.59-3.46,1.01-.87.34-1.65.84-2.41,1.3-.17.1-.32.23-.5.31-.64.32-.91.27-1.39-.22-.11-.11-.23-.22-.32-.34-.33-.39-.27-.94.19-1.39,1.35-1.32,3.08-2.02,4.77-2.65.64-.23,1.26-.43,1.91-.62.74-.17,1.42-.38,2.22-.42v.07Z"/><path class="cls-3" d="M361.82,318.39c.34-.36.68-.73,1.02-1.09.12-.13.2-.29.33-.42.46-.44.94-.85,1.4-1.27.21-.18.4-.38.58-.58.12-.13.22-.27.35-.39.14-.11.32-.18.5-.24.12-.03.27.13.4.38.12.24.27.61.22.82-.34.61-.71,1.16-1.32,1.54-.35.24-.54.63-.8.96-.28.36-.57.72-.86,1.08-.17.23-.35.45-.5.69-.24.36-.52.7-.7,1.09-.15.3-.14.67-.27.96-.03.07-.04.14-.07.2-.13.23-.29.26-.7.14l-.28-.08c-.3-.1-.5-.32-.55-.57-.18-.77.07-1.4.37-1.99.11-.22.24-.44.37-.65l.45-.6.04.03Z"/><path class="cls-3" d="M346.92,180.92s-22.63-7.49-15.06-26.33c8.21-20.42,29.39-10.82,29.39-10.82,0,0,15.62,4.97,18.96,9.82,3.34,4.84,5.71,17.94,5.71,17.94,0,0,8.39-6.43,18.82-4.96s25.22,4.9,30.77,11.92c5.56,7.02,16.02,17.55,16.17,30.89s-4.27,31.44-3.3,37.41c.97,5.98-.59,11.86,7.1,18.38s20.48,20.01,23.55,24.27,9.18,16.22,8.44,22.48c-.73,6.25-3.81,14.76-5.8,16.98-1.99,2.21-10.22,8.59-14.68,8.83s-14.62-4.94-21.22-5.99c-6.6-1.04-15,2.03-19.96,4.94-4.96,2.91-17.58,10.1-22.16,8.13-4.58-1.97-21.83-7.63-22.51-8.39-.67-.76-9.26-14.27-8.25-22.2,1.02-7.92,6.29-28.19,5.74-31.94s-5.18-14.26-5.81-16.05c-.63-1.79-.77-11.59-.77-11.59,0,0,6.9-3.52,4.76-6.61-2.14-3.09-3.44-9.09-3.44-9.09,0,0,8.68-1.39,10.14-5.02s1.8-11.43.3-11.86-13.68-5.94-15.07-4.61-7.2-2.04-11.16-6.47c-3.96-4.43-10.4-23.1-10.4-23.1l-.29-6.96Z"/><path class="cls-3" d="M141.86,247.78l14.94-4.12s-.97,4.13,0,6.91c.97,2.78-9.49,4.67-9.16,9.69.34,5.02-2.66-8.3-3.27-9.35s-2.51-3.14-2.51-3.14Z"/><path class="cls-1" d="M150.68,292.29s-4.31-9.73-4.06-12.44-.7-14.59,0-17.96-1.77-12.63-4.76-14.12-9.47-10.77-9.47-10.77c0,0-7.95-15.41-10.29-15.88s-4.5,3.27-4.5,3.27c0,0-11.42-9.43-11.05-6.31.76,6.31-8.51,2.52-7.83,3.98s6.06,10.35,6.06,10.35l4.7,7.62s-10.47-9.06-11.86-7.32c-1.39,1.74,3.85,8.28,3.85,8.28l10.05,13,2.6,2.76s-6.72.34-5.95,2.61,8.83,7.15,8.83,7.15c0,0,5.16,1.48,6.8,5.13,1.63,3.65,6.91,18.03,7.15,20.16.24,2.13,2.82,4.25,2.82,4.25l16.91-3.75Z"/><path class="cls-1" d="M167.52,280.82s-1.4-7.23-3.17-9.69c-1.78-2.46-7.35-17.77-7.54-18.57s-.23-7,0-8.91c.23-1.91,7.54-8.04,7.54-8.04,0,0,10.34-9,11.13-10.66s6.71-11.98,6.59-9.26-1.88,13.24-3.35,14.57-4.86,8.52-5.61,11.51,1.3,12.08,2.72,14.97c1.42,2.89,7.61,15.5,7.61,15.5l1,2.85-16.92,5.72Z"/><path class="cls-3" d="M165.17,233.06c.85-.79,1.7-1.6,2.48-2.48.3-.31.51-.69.82-.99,1.08-1.08,2.11-2.24,3.02-3.48.41-.55.77-1.13,1.14-1.7.45-.74.91-1.49,1.39-2.22.15-.23.17-.18.13.06-.05.24-.12.67-.29,1.15-.65,1.68-1.34,3.36-2.34,4.89-.6.9-1.11,1.93-1.73,2.87-.74.98-1.54,1.93-2.38,2.83-.51.56-1.05,1.1-1.58,1.64-.81.82-1.71,1.55-2.54,2.32-.65.6-1.23,1.27-1.87,1.89-.14.14-.27.29-.42.41-.6.42-.89.41-1.36-.01-.11-.1-.22-.19-.32-.29-.32-.35-.31-.85,0-1.28.94-1.24,2.11-2.22,3.24-3.29.84-.79,1.74-1.53,2.57-2.35l.04.04Z"/><path class="cls-3" d="M140.82,245.48c-.96-.51-1.87-1.06-2.71-1.71-.3-.24-.66-.4-.93-.67-1.04-.87-1.82-2-2.57-3.07-.29-.51-.69-.95-.93-1.47-.16-.33-.36-.65-.49-1-.12-.35-.22-.71-.31-1.07-.05-.23.09-.25.34-.15.24.1.62.3.88.6.99,1.04,1.77,2.07,2.65,3.13.27.31.59.58.92.85l1.03.74c.76.52,1.54,1.03,2.38,1.42.51.27,1.05.45,1.59.65.83.23,1.68.47,2.53.43.33,0,.65-.05.96-.16.31-.09.6-.2.87-.34.12-.06.23-.13.36-.16.42-.19.61-.07,1.01.54.09.14.19.27.27.41.28.47.23.97-.2,1.31-1.29.98-3,1.02-4.48.78-1.13-.16-2.17-.59-3.18-1l.02-.05Z"/><path class="cls-3" d="M189.93,397.72c-.39-1.51-.67-3.05-1.05-4.56l-.45-1.65c-.46-1.96-.96-3.9-1.45-5.84-.23-.86-.5-1.71-.79-2.55l-.56-1.6c-.15-.54-.3-1.08-.46-1.65-.09-.35-.02-.33.2-.09.21.24.64.66,1,1.23,1.03,2.11,1.93,4.28,2.55,6.54.34,1.37.87,2.73,1.28,4.1.45,1.51.88,3.03,1.29,4.55l.71,2.82c.37,1.42.7,2.86,1.11,4.26.33,1.09.73,2.13,1.04,3.2.07.24.16.46.22.7.23.89.19,1.21-.15,1.5-.08.07-.15.15-.23.2-.27.16-.62-.13-.91-.75-.43-.92-.84-1.87-1.22-2.85-.33-.99-.63-2-.92-3.01-.42-1.51-.83-3.03-1.25-4.55l.05-.02Z"/><path class="cls-3" d="M199.6,364.29c.98.78,2.05,1.46,3.17,2.07.4.23.86.37,1.27.58,1.49.71,3.03,1.35,4.64,1.84.71.22,1.44.38,2.17.51l1.4.28c.23.06.47.07.69.19.22.13.43.26.66.39.27.18.23.18-.04.31-.14.07-.34.18-.59.33-.12.07-.26.18-.4.22-.13.02-.27.03-.41.02-1.99-.15-3.93-.69-5.81-1.44-1.12-.46-2.33-.79-3.47-1.3-1.25-.54-2.45-1.21-3.6-1.95l-1.04-.72-.99-.78c-.51-.38-.95-.85-1.43-1.27-.44-.46-.89-.91-1.32-1.38-.32-.38-.66-.73-1-1.08l-.95-1.13c-.14-.17-.28-.33-.39-.52-.38-.72-.37-1.02-.03-1.39.08-.08.15-.18.23-.25.28-.23.72-.1,1.13.29.59.59,1.13,1.21,1.66,1.83.56.6,1.12,1.21,1.69,1.82.41.46.89.86,1.32,1.31.49.39.94.83,1.46,1.18l-.03.04Z"/><path class="cls-3" d="M166.45,388.41c1.82-1.14,3.49-2.56,4.79-4.3.49-.63.88-1.34,1.3-2.03,1.48-2.44,2.74-5.12,3.58-7.93.34-1.26.69-2.53.89-3.81.26-1.64.53-3.3.63-4.99.04-.53.1-.46.24-.02.15.44.45,1.26.59,2.27.24,1.78.18,3.59-.04,5.37-.28,1.77-.83,3.49-1.5,5.16-.82,1.99-1.59,4.1-2.79,6-.62,1.06-1.4,2.03-2.21,2.97-.85.9-1.74,1.76-2.73,2.5-1.19.94-2.51,1.69-3.85,2.35-2.04,1-4.23,1.66-6.42,2.11-1.7.34-3.4.69-5.15.72-.38.02-.76.01-1.15,0-1.44-.09-1.87-.4-2.06-1.04-.04-.15-.11-.31-.12-.45-.04-.49.57-.82,1.53-.85,2.86-.23,5.74-.5,8.55-1.35,2.08-.61,4.08-1.52,5.87-2.72l.04.05Z"/><path class="cls-3" d="M86.15,272.58c1.09-1.3,2.22-2.56,3.36-3.83.43-.45.8-.95,1.23-1.4,1.55-1.56,3.24-2.97,4.92-4.36.77-.59,1.48-1.26,2.26-1.82.5-.36.98-.75,1.49-1.1.51-.35,1.1-.58,1.65-.86.35-.16.37-.04.21.3-.17.32-.42.98-.9,1.49-.9.84-1.74,1.73-2.64,2.55-.91.8-1.82,1.61-2.74,2.44-1.12.97-2.05,2.2-3.07,3.31-1.12,1.23-2.2,2.5-3.27,3.79-.65.8-1.31,1.6-1.94,2.42-.96,1.24-1.93,2.48-2.83,3.76-.71.99-1.29,2.04-1.96,3.06-.15.22-.27.46-.43.67-.59.8-.91.96-1.51.75-.14-.05-.28-.08-.4-.14-.42-.21-.47-.77-.14-1.42.98-1.92,2.18-3.81,3.53-5.64,1.01-1.35,2.06-2.69,3.13-4.02l.05.03Z"/><path class="cls-3" d="M93.47,356.46c-1.24-2.01-2.44-4.05-3.6-6.11-.42-.76-.9-1.47-1.31-2.23-1.4-2.7-2.59-5.51-3.74-8.32-.47-1.26-.99-2.51-1.44-3.77-.59-1.61-1.16-3.25-1.2-5.02-.02-.55-.08-.45.17-.06.13.2.35.46.66.76.27.32.51.71.73,1.14,1.59,3.07,3.04,6.12,4.4,9.3.83,1.9,2,3.71,3.04,5.56,1.15,2.02,2.35,4.03,3.61,6,.76,1.22,1.57,2.42,2.37,3.61,1.25,1.79,2.48,3.61,3.82,5.32,1.04,1.33,2.19,2.53,3.31,3.77.25.27.5.53.74.81.87,1.06.99,1.53.66,2.17-.08.15-.14.31-.23.43-.32.42-1,.25-1.77-.43-2.25-2.04-4.28-4.48-6.21-7.02-1.44-1.88-2.73-3.9-4.05-5.88l.05-.04Z"/><path class="cls-3" d="M210.87,307.27s2.87,2,3.93,3.2c.89,1,1,6.08,1,6.08l-4.93-9.28Z"/><path class="cls-3" d="M125.86,338.47c-.38.78-1.92,4.38-2.06,7.57-.15,3.45,2.38,6.35,2.51,7.29.25,1.8-.45-14.85-.45-14.85Z"/><path class="cls-3" d="M143.63,296.73c-1.13.13-2.27.23-3.41.33-.42.03-.82.14-1.24.16-1.48.06-2.98-.03-4.48-.23-.67-.12-1.33-.12-2.02-.25-.85-.11-1.79-.49-2.33-1.33-.17-.24-.01-.37.34-.55.36-.16.9-.53,1.31-.63.35,0,.67-.02,1.03-.04.33.05.67.1,1.04.12.36.04.72.08,1.1.11.38.04.76.09,1.15.14.94.13,1.92-.08,2.9-.19,1.08-.1,2.16-.22,3.25-.38.67-.09,1.34-.2,2.01-.32,1.01-.2,2.04-.37,3.02-.65.77-.23,1.47-.61,2.21-.93.16-.07.31-.16.48-.22.62-.2.88-.07,1.2.63.07.16.16.31.22.47.21.54.07,1.08-.34,1.38-1.22.88-2.63,1.4-4.1,1.81-1.09.28-2.23.45-3.35.65l-.02-.07Z"/><path class="cls-3" d="M173.98,277.51c.87-.17,1.74-.38,2.59-.64.31-.1.59-.26.9-.36,1.08-.38,2.22-.66,3.24-1.19.22-.12.45-.24.65-.39.22-.12.44-.24.65-.38.54-.34,1.05-.76,1.26-1.33.06-.18.13-.17.21.02.1.19.14.63-.04,1.06-.31.73-.65,1.52-1.2,2.04-.58.47-1.21.85-1.88,1.14-.79.35-1.54.85-2.35,1.17-.89.36-1.8.65-2.72.92-.57.16-1.14.3-1.71.44-.87.21-1.75.35-2.63.53-.68.14-1.35.39-2.09.51-.16.02-.33.07-.5.08-.64.02-.85-.25-.83-.93,0-.15,0-.31.01-.46.06-.49.35-.91.67-1.04.97-.35,2.04-.56,3.18-.75.84-.15,1.71-.3,2.57-.51l.02.06Z"/><path class="cls-3" d="M122.83,219.64c2.38,1.49,3.86,3.48,5.31,5.42.51.72,1.06,1.4,1.53,2.14,1.64,2.6,3.06,5.29,4.57,7.91.67,1.16,1.35,2.32,2.07,3.43.94,1.42,1.79,2.89,2.83,4.24.32.42.24.42-.17.18-.41-.24-1.16-.7-1.9-1.41-2.6-2.52-4.47-5.52-6.18-8.58-1.02-1.84-2.33-3.58-3.55-5.31-1.34-1.89-2.77-3.75-4.47-5.15-.53-.41-1.08-.79-1.65-1.05-.57-.25-1.16-.38-1.8-.37-.46,0-.9.08-1.29.26-.2.09-.37.18-.57.33-.31.25-.59.63-.89.84-.15.13-.28.18-.42.27-.13.04-.21.18-.4.14-.32-.1-.59-.29-.87-.55l-1.43-1.4c-1.18-1.11-2.62-1.9-3.93-2.07-.29-.05-.56,0-.83-.01-.5.02-.81.08-1.09,0-.28-.1-.52-.27-.79-.56-.13-.13-.28-.25-.38-.39-.18-.23-.2-.5-.02-.83.17-.33.58-.71,1.22-.89.94-.27,2.01-.3,2.98-.07.98.22,1.86.63,2.64,1.13.78.5,1.48,1.08,2.1,1.68.87.87.53.52.6.59,0,0,0,0,0,.01.06-.06.33-.22.49-.31.19-.1.39-.2.6-.28.41-.16.84-.27,1.26-.32.86-.11,1.57-.05,2.34.12.81.14,1.48.47,2.12.81l-.03.05Z"/><path class="cls-3" d="M181.51,161.4s13.66-11.24,7.56-24.24c-4.05-8.63-12.01-10.16-12.01-10.16,0,0-2.92-14.98-18.94-18.8-9.15-2.18-20.09-.52-28.39,7.8-8.31,8.32-12.72,18.15-12.72,18.15l-.43,3.24s-6.78-9.89-12.71-11.49c-5.93-1.6-21.79-2.18-28.05,2.56-6.26,4.74-13.85,14.57-14.63,19.72s.44,12.17,1.09,17.79c.64,5.62,1.06,9.99-2.41,13.79s-11.02,12.34-10.71,18.69,1.68,13.76,5.74,17.23,9.68,8.01,14.68,7.57,7.7.34,10.77-1.72c8.72-5.86,8.15-16.03,8.15-16.03,0,0-2.85-5.65-1.71-9.88s5.44-7.33,9.24-5.52c3.8,1.82,8.47,7.68,8.97,8.31.51.62,4.46,4.75,5.84,3.13,1.38-1.62,1.99-5.64,1.99-5.64l-2.03-10.99s6.26-3.84,8.83-7.32c2.57-3.48,5.51-10.69,5.51-10.69l.97-6.65s9.45,6.13,18.53,8.19,20.92.9,20.92.9l15.94-7.94Z"/><path class="cls-3" d="M362.27,322.07c-.36.95-.7,1.92-1.02,2.9-.12.36-.15.74-.28,1.09-.48,1.26-.97,2.52-1.45,3.78-.19.57-.38,1.13-.57,1.69-.25.72-.41,1.47-.97,2.08-.16.19-.32.1-.51-.17-.1-.14-.21-.32-.32-.53-.12-.22-.19-.44-.16-.65.08-.76.16-1.51.28-2.25.18-.73.4-1.45.68-2.17.35-.85.37-1.83.6-2.74.25-1.01.54-2.01.83-3.02l.56-1.86c.28-.94.64-1.87.89-2.82.21-.74.26-1.52.41-2.29.03-.17.04-.35.09-.51.19-.61.49-.7,1.29-.47.18.05.37.1.54.16.58.21.99.68.99,1.13-.03,1.35-.45,2.56-.87,3.83-.32.93-.67,1.88-.98,2.85l-.07-.02Z"/><path class="cls-3" d="M356.26,287.84c-2.06,2.32-3.55,5.13-4.28,8.19-.12.56-.26,1.12-.33,1.69-.04.58-.07,1.15-.14,1.73-.22,1.99.02,3.89.79,5.73.76,1.83,2.04,3.48,3.57,4.88,1.36,1.26,3.02,2.2,4.73,2.88.53.27,1.11.42,1.67.63.56.21,1.15.27,1.71.5.57.13,1.16.35,1.75.44.3.04.6.12.9.2.3.07.61.08.92.12.79.1.69.03.05.28-.62.24-1.88,1.04-3.49,1.12-2.84.16-5.57-.85-7.97-2.29l-.9-.56c-.29-.2-.57-.42-.85-.64-.57-.41-1.1-.9-1.6-1.4-1.01-1-1.85-2.19-2.56-3.44-.76-1.54-1.53-3.15-1.83-4.92-.25-.86-.23-1.76-.32-2.65,0-.86.07-1.69.13-2.54.37-3.69,1.76-7.28,3.85-10.3.29-.49.65-.93,1.02-1.35l1.09-1.3,1.21-1.17c.4-.39.8-.79,1.25-1.12,2.6-2.18,5.59-3.79,8.65-5.06,2.38-.97,4.77-1.86,7.29-2.45.56-.11,1.1-.24,1.67-.32,1.05-.18,1.77-.12,2.26.03.5.16.78.45,1.01.92.1.21.24.42.29.64.19.72-.62,1.37-2,1.67-2.05.5-4.12.97-6.14,1.68-1.03.29-2.01.73-3.02,1.1-.5.19-.97.45-1.47.66-.49.22-.98.43-1.44.71-2.8,1.48-5.4,3.38-7.4,5.77l-.07-.05Z"/><path class="cls-3" d="M318.72,205.81c-1.23.55-2.46,1.15-3.59,1.86-.42.25-.78.59-1.17.87-.7.48-1.41.95-2.01,1.49-.32.26-.55.56-.8.84l-.28.43c-.08.14-.12.23-.14.35-.12.4.2,1.02.7,1.52.68.6,1.39,1.34,2.12,2.11.22.25.1.36-.26.43-.36.05-1.01.15-1.65-.03-.28-.09-.56-.19-.84-.31-.28-.12-.51-.31-.77-.5-.49-.39-1.01-.87-1.4-1.6-.2-.36-.35-.81-.4-1.29-.04-.48.05-.97.2-1.41.16-.34.33-.66.51-.97.19-.29.41-.51.61-.76,1.03-1.06,1.94-2.14,3.07-2.94,1.23-.86,2.5-1.63,3.82-2.3.81-.42,1.62-.81,2.45-1.17,1.24-.58,2.55-1.01,3.8-1.54.5-.18.98-.41,1.47-.64.5-.2.99-.45,1.53-.61.24-.07.47-.16.71-.21.93-.16,1.29.09,1.47.89.04.19.1.37.12.56.06.63-.26,1.18-.74,1.41-1.45.76-3.08,1.3-4.76,1.97-1.23.51-2.5.99-3.71,1.61l-.04-.07Z"/><path class="cls-3" d="M168.48,227.23c2.54-3.83,4.52-8.1,5.74-12.6.47-1.64.74-3.33,1.06-5.01,1.12-5.95,1.3-12.13.92-18.28-.18-2.73-.57-5.46-1.07-8.14-.26-1.73-.63-3.44-.95-5.17-.18-.86-.32-1.73-.46-2.6-.16-.87-.31-1.73-.41-2.62-.13-1.1.03-1,.59-.18.57.81,1.58,2.32,2.28,4.27.31.86.54,1.74.8,2.62.26.88.5,1.76.72,2.65.44,1.78.72,3.59,1.01,5.4.53,3.63.85,7.32.71,11.03-.13,4.43-.26,9.06-1.13,13.56-.9,4.95-2.69,9.75-5.11,14.15-.71,1.38-1.59,2.66-2.43,3.95-.93,1.24-1.8,2.52-2.85,3.66-3.05,3.56-6.71,6.6-10.71,8.98-3.1,1.86-6.35,3.41-9.84,4.39-.38.12-.76.23-1.14.35-.39.09-.77.17-1.17.24-.74.13-1.35.23-1.87.28-.52,0-.95-.03-1.3-.09-.7-.13-1.11-.4-1.44-.84-.15-.2-.34-.39-.43-.6-.29-.68.83-1.38,2.77-1.8,2.89-.73,5.73-1.67,8.48-2.92,2.77-1.2,5.4-2.79,7.84-4.65,3.65-2.74,6.81-6.18,9.31-10.08l.08.04Z"/><path class="cls-3" d="M114.39,194.39c.19,1.33.32,2.7.2,4.23-.07.76-.2,1.59-.62,2.52-.46,1.02-1.33,1.92-2.41,2.31-.36.09-.69.19-.98.25-.29.09-.63.05-.95.06-.33,0-.64-.02-.94-.11-.29-.08-.63-.13-.88-.26-1.12-.45-1.84-1.12-2.53-1.75-1.26-1.3-2.16-2.63-3.05-3.9-1.17-1.68-2.37-3.21-3.62-4.52-.95-.94-2.21-1.55-3.62-1.54-.7-.05-1.4.14-2.1.34-.67.28-1.35.58-1.91,1.07-2.39,1.79-3.46,5.26-2.67,8.32.67,2.75,2.69,5.21,5.2,6.51,1.62.84,3.42,1.23,5.19,1.19.44-.05.9-.01,1.34-.12.44-.09.87-.21,1.33-.27.86-.31,1.76-.54,2.7-.88,1.24-.32,1.17-.26.57.8-.3.52-.7,1.42-1.56,2.06-.77.78-1.96,1.37-3.33,1.6-.61.06-1.23.21-1.85.18-.62-.03-1.25-.01-1.87-.1-.61-.11-1.22-.25-1.82-.42l-1.72-.69c-2.21-1.09-4.09-2.75-5.46-4.78-1.36-2.02-2.21-4.45-2.22-6.96.01-2.5.72-5,2.31-6.96,1.81-2.37,4.68-4.02,7.82-4.08,1.56-.03,3.16.37,4.52,1.2.35.19.67.43.97.69l.45.38c.14.13.25.25.37.38.5.5.94,1.02,1.37,1.54,1.43,1.78,2.61,3.63,3.88,5.25.63.79,1.3,1.53,1.96,1.98.66.46,1.24.55,1.77.37.27-.08.46-.27.59-.56.16-.35.27-.86.3-1.4.1-1.49-.14-3.17-.46-4.8-.33-1.64-.77-3.29-1.25-4.92l-.61-2.02c-.13-.46-.29-.93-.34-1.37-.03-.22-.04-.43-.05-.64.01-.1.01-.2.04-.3.13,0,.09-.08.14-.11l.1-.11c.43-.62,1.5-.99,2.26-1.36.57-.27,1.14-.55,1.69-.86,2.21-1.21,4.22-2.76,5.89-4.6,2.61-2.87,4.18-6.42,5-10.11.19-.81.29-1.63.43-2.45.46-3.09.6-4.08,1.64-4.73.22-.15.44-.36.65-.44.35-.15.66.11.93.74.3.63.41,1.61.39,2.88-.13,3.75-.99,7.7-2.89,11.32-1.87,3.62-4.74,6.82-8.16,9.16-1.26.87-2.6,1.64-3.95,2.29l-.13.06s0,0,0,0h0s0,0,0,0h-.02s-.01.01-.01.03l.58,1.97.57,2.1c.36,1.42.69,2.85.92,4.36l-.09.02Z"/><path class="cls-3" d="M112.75,221.96c-1.19-1.21-2.56-2.39-3.84-2.75-.15-.05-.3-.07-.44-.09-.06,0,0-.01-.04-.02h-.06c-.09,0-.18,0-.27.05-.1.04-.11.16-.1.25,0,.05.01.1.03.15,0,.03.01.04.03.09.04.09.07.18.11.27.48,1.09,1.24,2.19,1.92,3.3,2.46,3.95,5.35,7.83,7.55,12.17,1,1.89,1.98,3.81,2.85,5.76.56,1.25,1.04,2.54,1.47,3.84l.3.98.2,1.01c.11.68.25,1.35.29,2.04-.07.89-.09.78-.67.2-.3-.28-.64-.71-1.04-1.21-.2-.25-.41-.53-.62-.82-.11-.15-.19-.31-.32-.46-.08-.17-.16-.33-.23-.51-.51-1.24-1.07-2.45-1.64-3.66-.54-1.22-1.11-2.42-1.72-3.6-.61-1.19-1.25-2.37-1.91-3.54-.66-1.19-1.33-2.29-2.06-3.48-1.72-2.8-3.86-5.52-5.65-8.52-.48-.84-.96-1.68-1.35-2.65-.25-.63-.52-1.43-.46-2.11.03-.35.1-.69.27-1,.2-.3.48-.49.75-.7.62-.35,1.34-.53,2.09-.54.17,0,.41.03.58.05.15.01.29.06.43.09.29.06.55.16.81.25,1.02.41,1.87.99,2.66,1.6,1.92,1.52,3.44,3.32,4.89,5.16,1.08,1.4,2.08,2.86,3.01,4.36.95,1.5,1.76,3.06,2.6,4.56,1.32,2.34,2.69,4.68,3.74,7.16.22.55.45,1.08.64,1.64.36,1.04.54,1.74.58,2.27.02.53-.08.87-.26,1.18-.09.14-.15.31-.25.41-.16.16-.38.06-.69-.25-.3-.31-.7-.83-1.05-1.54-.54-1.05-1.09-2.1-1.65-3.17-.51-1.07-1.02-2.14-1.57-3.19-.55-1.06-1.14-2.11-1.74-3.19-.6-1.06-1.22-2.21-1.81-3.21-1.83-3.05-3.96-6.08-6.41-8.56l.04-.05Z"/><path class="cls-3" d="M104.21,223.58c-.66-.51-1.36-.97-2.04-1.29-.33-.15-.67-.3-.97-.36-.14-.06-.33-.06-.38-.07-.02-.02-.07-.02-.1-.02-.13,0-.4.09-.32.29,0,.04.02.09.04.13l.03.07.13.26c.19.36.4.74.63,1.11.66,1.1,1.47,2.14,2.19,3.24,2.56,3.9,5.2,7.83,7.65,11.88,1.09,1.8,2.2,3.6,3.22,5.43,1.26,2.36,2.59,4.84,2.67,7.66-.01.88-.07.76-.56.17-.52-.59-1.59-1.53-2.32-2.8-.58-1.17-1.24-2.3-1.89-3.44-.62-1.16-1.29-2.31-1.96-3.45-1.36-2.29-2.79-4.57-4.22-6.88-1.7-2.78-3.85-5.41-5.74-8.22-.51-.78-1.02-1.57-1.5-2.4-.24-.41-.48-.84-.7-1.3-.32-.65-.6-1.37-.62-2.04,0-.33.04-.67.22-.97.19-.27.5-.46.74-.69.26-.22.6-.34.91-.49.33-.11.7-.14,1.04-.21.35-.04.76.04,1.02.05.28.05.54.13.81.2.51.17,1,.37,1.43.62,2.17,1.19,3.89,2.76,5.56,4.32,1.24,1.14,2.56,2.44,3.61,3.85,1.08,1.4,2.02,2.89,2.88,4.39,1.34,2.33,2.6,4.64,3.77,7.01.25.52.52,1.02.76,1.56.81,2.01.86,2.73.38,3.42-.11.16-.2.34-.33.46-.41.39-1.16-.26-1.96-1.62-2.33-4.05-4.17-8.59-6.82-12.4-.99-1.41-2.05-2.7-3.32-3.88-1.34-1.28-2.62-2.49-3.98-3.51l.04-.06Z"/><path class="cls-3" d="M108.9,259.04c-.07.33.07.6.31.98.29.36.69.74,1.21,1.08.35.26.8.44,1.19.69,1.43.88,2.97,1.81,4.37,2.92.63.49,1.24,1.01,1.78,1.59.76.69,1.26,1.64,1.58,2.6.1.3-.07.34-.41.25-.34-.1-.88-.28-1.31-.58-.82-.5-1.41-1.12-2.19-1.59-.66-.59-1.42-1.13-2.17-1.72-.92-.69-2.08-1.11-3.19-1.72-.6-.33-1.22-.71-1.82-1.18-.3-.22-.59-.54-.87-.81-.24-.36-.53-.67-.67-1.11-.24-.51-.28-1.04-.3-1.59.04-.6.26-1.27.71-1.68.63-.65,1.4-.9,2.09-1.06.7-.12,1.39-.18,2.06-.17,1.05,0,2.1-.01,3.18.3.24.06.48.14.71.24.86.44,1,.91.67,1.51-.08.14-.14.28-.24.41-.34.4-.82.53-1.26.49-.66-.1-1.37-.15-2.08-.21-.7-.08-1.44-.12-2.09-.06-.48.03-.9.17-1.07.25-.07.02-.07.03-.08.03,0,0-.04-.01-.06-.03,0,0,0,0,0-.01h-.02s-.01-.01-.01-.01l.05.02s0,0,0,.01c-.03-.02-.02.07-.01.15h-.06Z"/><path class="cls-3" d="M134.44,387.96c5.03,2.26,10.36,3.82,15.76,4.57,5.34.81,10.89.48,15.44-2.01,3.29-1.84,5.87-4.76,7.61-8.22,1.57-3.03,2.59-6.42,3.21-9.88l.36-2.62.18-1.31c.05-.44.04-.89.07-1.33l.11-2.67c.01-.45.05-.89.04-1.34l-.05-1.34c-.16-7.17-1.26-14.36-2.75-21.46-1.31-6.31-3.16-12.54-5.01-18.67-2.4-7.88-5.36-15.62-7.15-23.76-.34-2.61-.38-2.21.71-.27.56,1.01,1.31,2.38,2.21,4.01.45.83.96,1.73,1.43,2.71.45.99.91,2.04,1.35,3.15,1.59,3.92,2.88,7.96,4.23,11.99,1.33,4.03,2.55,8.11,3.57,12.25,2.1,8.26,3.78,16.71,4.37,25.36.11,1.29.09,2.6.15,3.91l.07,1.97c.02.66-.04,1.32-.05,1.99-.06,1.33-.05,2.66-.17,3.99-.16,1.34-.33,2.68-.49,4.02-.05.67-.25,1.33-.37,1.99-.15.66-.27,1.33-.44,1.98-.4,1.3-.71,2.63-1.25,3.9-.93,2.58-2.27,5.06-4.02,7.24-1.91,2.41-4.37,4.42-7.14,5.78-2.77,1.37-5.79,2.09-8.79,2.33-2.99.23-6,.09-8.89-.44l-2.18-.33-2.14-.5c-1.42-.35-2.86-.65-4.23-1.15-6.87-2.15-13.34-5.37-19.3-9.29-8.97-6.06-16.74-13.88-22.89-22.64-4.73-6.86-8.56-14.13-11.54-21.83-.58-1.72-1.14-3.41-1.73-5.15-.26-.81-.49-1.55-.7-2.23-.18-.69-.29-1.33-.42-1.91-.23-1.16-.39-2.1-.49-2.88-.19-1.57-.11-2.5.17-3.29.12-.36.22-.82.37-1.04.5-.74,1.7,1.8,2.95,6.46.4,1.75,1.1,3.42,1.68,5.14.3.85.6,1.71.9,2.57.31.85.56,1.73.96,2.56.73,1.67,1.46,3.35,2.2,5.04l.55,1.27c.2.42.43.82.64,1.22l1.3,2.45c.86,1.64,1.68,3.3,2.74,4.84,1.01,1.56,1.96,3.17,3.02,4.7,1.12,1.49,2.24,2.99,3.36,4.48.53.77,1.2,1.43,1.81,2.14l1.86,2.11c.46.52.91,1.06,1.39,1.55l1.5,1.45,3,2.91,3.21,2.67,1.61,1.33,1.7,1.21c4.45,3.36,9.39,6.03,14.46,8.26l-.02.09Z"/><path class="cls-3" d="M123.68,317.49c.4,2.55.77,5.11,1.07,7.68.11.94.32,1.86.39,2.8.29,3.32.35,6.65.36,9.97-.01.74.03,1.47.01,2.21-.02.74-.04,1.47-.05,2.21-.03.94-.07,1.88-.19,2.82-.14.94-.41,1.86-.64,2.77-.16.57-.26.47-.42-.04-.15-.51-.48-1.45-.63-2.51-.03-.24-.08-.47-.11-.71l-.03-.7-.05-1.39c-.07-.93-.13-1.86-.18-2.79-.04-.93-.07-1.86-.08-2.8-.04-.94-.07-1.88-.08-2.82-.02-1.13-.17-2.28-.31-3.43-.18-1.15-.38-2.3-.51-3.45-.35-2.53-.7-5.06-1.15-7.58-.26-1.55-.55-3.1-.87-4.65-.49-2.34-.98-4.69-1.62-6.97-.52-1.77-1.2-3.46-1.82-5.18-.14-.38-.29-.74-.42-1.13-.48-1.42-.33-1.96.33-2.5.15-.12.3-.27.46-.36.54-.31,1.21.13,1.76,1.13.75,1.5,1.37,3.08,1.93,4.71.53,1.64.97,3.32,1.38,5.02.61,2.52,1.09,5.09,1.57,7.65l-.07.02Z"/><path class="cls-3" d="M50.43,341.33c3.11-7.87,6.39-15.68,9.83-23.42,1.24-2.83,2.45-5.67,3.76-8.47,2.35-4.92,4.83-9.78,7.39-14.59,2.6-4.79,5.31-9.53,8.2-14.17,2.58-4.1,5.3-8.16,8.22-12.01.95-1.23,1.88-2.47,2.92-3.64.51-.59,1.01-1.19,1.53-1.78.54-.57,1.09-1.13,1.65-1.68l.84-.83.9-.77,1.81-1.52c.64-.47,1.32-.88,1.99-1.29.66-.43,1.39-.77,2.12-1.07,1.89-.65,1.62-.49.51.8-.26.34-.61.69-.99,1.11-.36.44-.75.97-1.17,1.51-.91,1-1.89,2.26-3.1,3.44-4.14,4.41-7.82,9.35-11.19,14.52-3.36,5.19-6.62,10.5-9.72,15.96-3.74,6.51-6.94,13.67-10.14,20.67-3.52,7.7-6.86,15.5-10.03,23.36-1.95,4.84-3.85,9.71-5.67,14.6-2.75,7.41-5.45,14.89-7.84,22.37-1.87,5.81-3.43,11.59-5.02,17.41-.34,1.28-.68,2.54-1.02,3.83-1.35,4.77-1.97,6.24-3.2,7-.27.18-.56.43-.79.51-.78.28-.88-1.86-.06-5.42,2.41-10.58,5.75-21.52,9.42-32.38,2.73-8.07,5.7-16.1,8.77-24.07l.09.02Z"/><path class="cls-3" d="M183.61,347.02c-1.13-2.54-2.1-5.01-3.06-7.52-.97-2.5-1.89-5.03-2.8-7.55-.65-1.85-1.38-3.66-1.99-5.52-2.19-6.54-4.07-13.16-5.98-19.76-.84-2.93-1.79-5.84-2.68-8.73-.57-1.86-1.14-3.72-1.71-5.57-.47-1.89-.89-3.79-1.2-5.73.05-1.28-.09-1.07.61-.21.67.86,1.83,2.48,2.81,4.51,2.84,7.42,4.98,15.04,7.15,22.72,1.28,4.6,2.96,9.27,4.57,13.86,1.76,5.05,3.63,10.07,5.66,15.03,1.23,3.03,2.64,5.95,4.33,8.73,1.26,2.11,2.72,4.11,4.26,6.02,1.61,1.85,3.27,3.67,5.19,5.16,2.93,2.37,6.26,4.09,9.75,5.08.78.18,1.55.33,2.32.53,2.93.5,3.85.58,4.49,1.51.15.19.35.38.44.56.15.3-.09.55-.69.79-.3.13-.69.21-1.16.27-.47.06-1.02.11-1.62.04-3.63-.2-7.32-1.35-10.63-3.19-3.33-1.83-6.3-4.3-8.88-7.07-3.85-4.12-6.84-8.92-9.24-13.93l.07-.04Z"/><path class="cls-3" d="M203.65,288.66c.98,2.44,2,4.88,3.1,7.3.41.88.9,1.72,1.3,2.6,1.43,3.12,2.96,6.21,4.37,9.37.65,1.39,1.32,2.78,1.99,4.15.42.89.86,1.76,1.2,2.69.18.45.32.93.47,1.4.03.12.09.23.09.36l-.03.41c0,.27.11.48.17.72.16.59.1.53-.23.11-.2-.2-.3-.55-.9-.77-.42-.29-.7-.73-1.01-1.19-.58-.82-1.04-1.68-1.5-2.54l-1.44-2.58c-.49-.86-.96-1.72-1.42-2.6-.48-.87-.93-1.76-1.33-2.67-1-2.18-2.36-4.28-3.51-6.46-1.27-2.39-2.49-4.83-3.59-7.32-.67-1.54-1.32-3.08-1.93-4.64-.94-2.36-1.76-4.78-2.56-7.18-.68-1.85-1.35-3.67-2.02-5.51-.13-.41-.28-.81-.37-1.23-.33-1.58-.19-2.13.61-2.62.18-.11.36-.25.54-.33.63-.27,1.32.26,1.8,1.31.36.78.66,1.58.95,2.38.31.8.58,1.62.85,2.44.25.83.57,1.64.83,2.48.27.83.53,1.67.84,2.49.43,1.23.85,2.48,1.34,3.7.45,1.24.95,2.46,1.47,3.68l-.07.04Z"/><path class="cls-3" d="M220.8,312.78c1.42,4.32,2.73,8.67,3.92,13.06.43,1.6.94,3.18,1.33,4.79,1.34,5.69,2.45,11.46,2.97,17.32.2,2.6.37,5.23.24,7.86-.03.84-.11,1.69-.22,2.54-.14.85-.34,1.69-.61,2.52-.27.83-.65,1.64-1.17,2.38-.49.74-1.14,1.41-1.9,1.86-.99.52-.87.3-.41-.45.21-.4.43-.98.6-1.66.08-.34.16-.7.22-1.09.03-.19.08-.38.08-.59.05-.19.1-.39.14-.6.56-2.93.68-6.14.44-9.37-.23-3.23-.61-6.5-1.05-9.81-.53-3.96-1.68-7.97-2.75-11.93-1.18-4.35-2.48-8.68-3.91-12.97-.88-2.64-1.79-5.27-2.77-7.88-1.48-3.95-3.01-7.9-4.75-11.71-1.36-2.96-2.92-5.75-4.44-8.57-.33-.62-.7-1.21-1.03-1.84-1.24-2.33-1.4-3.19-.89-4.1.12-.21.21-.45.35-.61.44-.53,1.5.14,2.59,1.79,1.6,2.45,3.09,5.06,4.47,7.76,1.35,2.72,2.59,5.54,3.77,8.38,1.75,4.23,3.33,8.55,4.83,12.88l-.07.03Z"/><path class="cls-3" d="M192.18,393.82c.37,2.18.77,4.35,1.18,6.53.15.8.38,1.57.52,2.37.49,2.81.97,5.63,1.52,8.43.26,1.24.54,2.48.83,3.7.44,1.55.63,3.18.67,4.83,0,.51-.2.49-.59.15-.37-.35-1.08-.98-1.51-1.83l-.53-1.14c-.17-.38-.27-.78-.41-1.17-.25-.78-.5-1.57-.73-2.36-.37-1.61-.69-3.23-.93-4.88-.29-1.97-.94-3.94-1.4-5.93-.51-2.18-.93-4.38-1.37-6.58l-.79-4.06c-.41-2.05-.75-4.12-1.2-6.15-.34-1.58-.87-3.09-1.26-4.65-.08-.34-.21-.67-.27-1.03-.23-1.3-.07-1.76.72-2.15.18-.09.36-.2.54-.26.63-.21,1.24.24,1.59,1.14,1.06,2.67,1.62,5.55,2.22,8.47.42,2.18.85,4.36,1.27,6.54l-.08.02Z"/><path class="cls-3" d="M319.23,217.4c-2.38,5.75-3.99,11.85-4.06,18.05-.03,2.26.22,4.51.56,6.73.62,3.91,1.81,7.74,3.73,11.21,1.91,3.39,4.66,6.45,7.68,9.14,2.69,2.39,5.69,4.47,8.83,6.15,4.04,2.22,8.34,3.52,12.73,4.56,1.41.47,1.28.43.02.98-.32.17-.71.28-1.17.45-.46.13-.98.22-1.57.34-1.19.31-2.57.24-3.96-.16l-1.84-.55-1.78-.67c-1.19-.44-2.32-1.01-3.43-1.59-2.21-1.19-4.31-2.55-6.31-4.04-3.96-3.02-7.6-6.49-10.46-10.73-1.73-2.59-3.02-5.37-4.08-8.28-1.05-2.91-1.72-5.97-2.01-9.02-.34-3.36-.23-6.73.19-10.05.24-1.65.5-3.32.94-4.92l.61-2.42c.23-.8.5-1.58.76-2.37,1.3-3.87,2.94-7.62,4.93-11.16,2.97-5.4,6.74-10.32,10.76-14.87,3.14-3.53,6.37-6.88,9.93-9.95.79-.66,1.52-1.38,2.37-1.99,3.06-2.38,4.31-2.74,5.48-2.44.27.07.59.11.79.23.67.38-.27,1.77-2.39,3.48-6.26,5.16-12.42,11.02-17.64,17.72-3.8,5.01-7.19,10.4-9.52,16.23l-.08-.02Z"/><path class="cls-3" d="M453.45,331.91c2.42,1.26,4.59,2.39,6.8,3.01,2.19.64,4.43.66,6.71.21,1.14-.19,2.28-.64,3.43-1.01.59-.16,1.11-.46,1.66-.71.54-.27,1.1-.49,1.62-.8.99-.67,2.07-1.22,2.95-2.05.45-.39.95-.74,1.37-1.17l1.24-1.31c1.55-1.83,2.95-3.84,3.86-6.11l.38-.83c.11-.28.19-.58.29-.87l.57-1.75c.24-1.2.6-2.39.69-3.62.68-4.89-.08-9.97-1.96-14.53-2.92-6.88-7.78-12.74-13.15-18.16-4.72-4.82-9.9-9.37-14.65-14.48-1.2-1.22-2.33-2.71-3.47-4.11l-1.47-2.32-.36-.58-.3-.62-.59-1.25c-1.52-3.35-2.27-7.02-2.39-10.62-.12-3.61.31-7.14.91-10.56.6-3.43,1.33-6.77,1.93-10.11,1.31-6.65,1.71-13.32.42-19.89-2.2-11.63-9.02-22.31-18.23-29.62-5.91-4.7-12.91-8.1-20.3-9.48-3.69-.68-7.47-.87-11.21-.52-.93.13-1.86.24-2.79.38l-2.75.59c-.89.29-1.82.49-2.73.74l-2.68.94c-4.31,1.91-3.99,1.4-.59-1.05.45-.27.94-.57,1.48-.9.54-.33,1.12-.71,1.79-1.02.33-.17.67-.32,1.02-.53.36-.16.73-.32,1.11-.49.79-.27,1.62-.55,2.48-.85,3.5-1.04,7.89-1.73,12.59-1.21,8.32.87,16.23,4.2,22.94,9.01,6.72,4.83,12.34,11.18,16.31,18.47,3.93,7.3,6.17,15.59,6.15,23.95-.01,8.42-2.37,16.27-3.58,23.93-.76,4.58-.92,9.21.16,13.57.11.55.34,1.07.5,1.6.2.52.31,1.08.58,1.58.52,1,.89,2.07,1.57,2.99l.91,1.44c.31.48.71.9,1.06,1.35l1.09,1.34,1.23,1.32c6.59,7.01,14.41,13.19,20.75,20.99,3.44,4.32,6.45,9.02,8.42,14.33.56,1.31.83,2.72,1.22,4.08l.36,2.1c.05.35.13.7.17,1.05l.08,1.06c.3,2.82.07,5.68-.41,8.47-.48,2.81-1.48,5.5-2.71,8.07-1.35,2.52-3.02,4.88-5.07,6.89-2.1,1.94-4.41,3.71-7.03,4.86-1.26.69-2.64,1.07-3.97,1.55-1.36.43-2.79.73-4.25.87-3.61.42-7.33-.56-10.41-2.04-3.12-1.45-5.88-3.2-8.79-4.03l-1.09-.28-1.1-.18c-.75-.09-1.55-.15-2.33-.18-1.56-.05-3.1.08-4.61.35-3.03.58-5.89,1.92-8.72,3.54l-6.49,3.76c-1.12.63-2.18,1.23-3.38,1.82-1.18.57-2.39,1.06-3.61,1.5-4.88,1.71-10.06,2.57-15.26,2.33-5.18-.25-10.4-1.75-14.75-4.71-4.38-2.92-7.66-7.17-9.99-11.72-.88-1.8-1.68-3.57-2.31-5.51-.63-1.94-1-3.94-1.14-5.93-.31-3.99.1-7.93.78-11.75.67-3.83,1.65-7.56,2.63-11.24.98-3.65,1.82-7.26,1.88-10.83.07-3.14-.56-6.12-1.83-8.98-1.23-2.69-2.56-5.03-3.43-7.14-.88-2.11-1.41-3.97-1.6-5.55-.39-3.17.23-5.05,1-6.32.34-.59.82-1.31,1.13-1.58.27-.23.43-.07.5.4.07.47.02,1.25.07,2.31.02,2.12.53,5.27,2.44,9.2.7,1.47,1.51,2.93,2.32,4.47.81,1.52,1.67,3.2,2.27,5.02,1.25,3.6,1.51,7.57,1.08,11.28-.4,3.72-1.4,7.28-2.3,10.64-.9,3.38-1.72,6.74-2.29,10.11-.53,3.36-.86,6.73-.55,9.96.12,1.62.42,3.18.9,4.66.21.72.53,1.5.86,2.28.3.79.68,1.53,1.03,2.28,2.87,6.02,7.66,10.87,13.75,13.01,4.49,1.65,9.55,1.87,14.47,1.11,2.46-.37,4.91-1.01,7.24-1.86,1.17-.42,2.3-.92,3.36-1.47,1.12-.59,2.28-1.24,3.42-1.9,2.29-1.31,4.57-2.74,7.06-4.08,2.47-1.34,5.24-2.57,8.24-3.19.74-.19,1.5-.25,2.25-.38.75-.07,1.51-.13,2.26-.16,1.53-.02,2.93.03,4.49.25l1.18.19,1.14.29c.77.18,1.46.47,2.19.72,1.38.56,2.71,1.18,3.91,1.81l-.02.11Z"/><path class="cls-3" d="M474.77,412.5c-.94-3.12-1.85-6.26-2.88-9.35l-1.52-4.65-1.62-4.62c-.77-2.26-1.72-4.44-2.56-6.67-2.94-7.86-6.01-15.69-9.6-23.29-1.52-3.41-3.36-6.68-5.03-9.98-1.12-2.1-2.23-4.21-3.35-6.31l-1.7-3.14c-.57-1.05-1.04-2.15-1.56-3.23-.62-1.36-.36-1.29.59-.39.48.45,1.14,1.09,1.92,1.89.76.81,1.56,1.82,2.33,2.96,5.53,8.12,9.83,16.98,13.66,26.08,2.28,5.45,4.84,11.03,7,16.68,1.21,3.09,2.28,6.23,3.42,9.35,1.04,3.15,2.15,6.28,3.12,9.45l1.82,5.85,1.71,5.88c.89,2.96,1.63,5.97,2.45,8.95.77,2.99,1.54,5.98,2.3,8.95.57,2.31,1.18,4.59,1.82,6.86.59,2.28,1.18,4.55,1.78,6.84.26,1.01.54,1.99.75,3.01.45,1.89.5,3.19.43,4.11-.06.93-.26,1.49-.6,1.97-.15.22-.28.5-.43.64-.48.47-1.38-.97-2.42-3.64-2.37-8.05-4.34-16.62-6.64-25.15-.8-3.18-1.7-6.34-2.53-9.53-.93-3.16-1.77-6.34-2.76-9.48l.09-.04Z"/><path class="cls-3" d="M347.02,435.95l.79-1.93c.12-.31.24-.63.33-.91l.11-.35v-.04s0,0,.02,0h.11s.22.02.22.02h.39c.5.01.76-.16.7-.14l.03.15c-.02.18.18.48.65.94.08.08.07.07.07.07h0s0-.01-.02,0l-.07.08c-.11.13-.24.33-.36.54-.31.55-.53,1.21-.81,1.85-1,2.26-1.79,4.68-2.57,7.08-.33,1.07-.58,2.18-.79,3.27-.14.7-.23,1.41-.38,2.11-.17.69-.33,1.37-.5,2.09-.1.43-.28.38-.51-.02-.22-.39-.56-1.15-.61-2.02-.02-1.53.22-3.01.44-4.49.27-1.47.56-2.95,1.09-4.37.62-1.7,1-3.54,1.69-5.31.19-.49.41-.98.67-1.49.13-.26.27-.51.48-.79.09-.13.23-.3.39-.46.08-.08.25-.2.38-.29.12-.09.51-.21.76-.21h.14s.13.03.13.03c.18.04.38.14.51.25.12.1.24.24.31.37.1.18.15.38.16.47.04.24.02.35.02.46-.02.22-.05.38-.09.53-.07.3-.15.55-.24.8-.17.5-.35.97-.53,1.44l-1.37,3.44c-.67,1.73-1.36,3.46-1.86,5.22-.38,1.37-.55,2.76-.74,4.11-.04.3-.04.59-.09.89-.16,1.09-.38,1.38-1.12,1.58-.17.05-.33.11-.5.14-.55.1-1.01-.44-1.1-1.39-.21-2.8.54-5.51,1.43-8.09.65-1.93,1.43-3.8,2.15-5.65l.07.02Z"/><path class="cls-3" d="M52.31,184.78c1.62-2.13,3.58-3.79,5.01-5.39,1.47-1.59,2.42-3.32,3.01-5.39.63-2.09.78-4.07.34-6.15-.43-2.09-1.3-4.51-1.71-7.04-.62-3.68-.71-7.46,0-11.12,1.24-6.44,4.41-12.41,8.96-17.04,2.27-2.31,4.91-4.29,7.82-5.74l1.1-.54,1.11-.44,2.22-.87c1.53-.46,3.02-1,4.6-1.3,2.75-.68,5.6-.97,8.44-1.02,2.85-.03,5.69.4,8.45,1.1,3.51.97,6.93,2.63,9.68,5.1.7.59,1.31,1.29,1.96,1.93.63.66,1.11,1.46,1.67,2.18,1.02,1.5,1.92,3.1,2.43,4.83.7,2.13.52,1.84-.72.41-.32-.35-.69-.78-1.14-1.23-.13-.1-.24-.22-.4-.32-.11-.12-.25-.24-.37-.37-.25-.25-.52-.51-.79-.78-1.1-1.08-2.52-2.13-3.91-3.33-9.98-8.7-26.15-7.17-37.05.33-6.45,4.88-10.65,13.2-10.95,21.49-.06.57-.05,1.14-.02,1.71.02.57,0,1.14.06,1.71.14,1.13.22,2.27.46,3.39.42,2.24,1.3,4.46,1.74,7.11.21,1.31.24,2.7.08,4.02-.14,1.33-.48,2.58-.87,3.83-.42,1.25-.99,2.46-1.7,3.59-.71,1.13-1.58,2.12-2.44,3.03-1.07,1.12-2.14,2.12-3.09,3.17-.95,1.05-1.78,2.17-2.48,3.37-1.4,2.44-2.44,5.17-3.02,7.93-.86,4.2-.51,8.65,1.26,12.55,1.75,3.91,4.79,7.23,8.47,9.38,5.75,3.34,12.93,3.71,18.83,1.25,1.3-.55,2.49-1.24,3.65-2.02,2.13-1.5,3.28-2.77,4.16-3.61.46-.41.8-.75,1.16-1,.38-.24.71-.41,1.06-.55.32-.13.67-.34.93-.39.43-.08.48.43.21,1.54-.3,1.08-1.13,2.66-2.67,4.32-2.27,2.47-5.25,4.34-8.5,5.49-3.26,1.14-6.79,1.53-10.29,1.21-3.49-.35-6.95-1.39-10.07-3.15-3.1-1.78-5.88-4.22-7.93-7.19-1.54-2.18-2.77-4.64-3.47-7.26-.72-2.61-.97-5.34-.79-8.02.2-2.67.81-5.28,1.72-7.74.45-1.23,1-2.42,1.57-3.59.64-1.18,1.33-2.36,2.16-3.42l.08.04Z"/><path class="cls-3" d="M135.27,109.87c4.38-2.48,9.19-4.24,14.17-5.04.45-.07.9-.19,1.36-.24l1.37-.14c.92-.08,1.83-.22,2.76-.22,6.54,0,13,1.95,18.3,5.64,2.34,1.64,4.55,3.53,6.3,5.83,1.11,1.49,2.03,3.16,2.57,4.99.45,1.86.34,3.87-.32,5.6-.58,1.04-.48.85-.69-.11-.19-.98-.85-2.58-1.71-4.09-.53-1.42-1.28-2.78-2.26-4.01-.94-1.25-2.04-2.43-3.28-3.49-2.46-2.13-5.38-3.8-8.49-5.15-3.75-1.58-8.09-2.03-12.23-1.61-4.59.33-9.15,1.6-13.37,3.63l-1.94.95-1.86,1.11c-1.27.7-2.4,1.61-3.59,2.44-3.48,2.67-6.65,5.84-9.11,9.45-1.88,2.81-3.33,5.84-4.22,9-.26.68-.35,1.38-.53,2.08-.16.65-.32,1.18-.46,1.63-.1.45-.21.81-.35,1.1-.29.58-.64.9-1.15,1.14-.23.11-.47.27-.69.33-.72.21-1.2-1.02-1.07-3.26.43-3.23,1.44-6.49,2.94-9.53.36-.77.82-1.48,1.23-2.23l.64-1.11c.23-.36.48-.7.72-1.05l1.49-2.09,1.65-1.97c3.34-3.83,7.35-7.08,11.74-9.66l.05.07Z"/><path class="cls-3" d="M190.23,156.32c-4.01,4.82-9.33,8.22-14.89,10.5-2.03.86-4.09,1.62-6.21,2.18-3.74.97-7.57,1.52-11.4,1.65-1.92.09-3.83.03-5.74-.07-1.91-.16-3.81-.37-5.68-.73-3.33-.6-6.64-1.45-9.79-2.63-4-1.57-7.96-3.64-10.89-6.85-.9-1-.72-.92.36-.5,1.09.43,3.14,1.02,5.26,2.01,1.86.92,3.77,1.74,5.72,2.41,1.94.71,3.91,1.34,5.93,1.8,4.03.96,8.19,1.42,12.4,1.55,5.05.15,10.3-.87,15.17-2.49,5.37-1.76,10.48-4.48,14.55-8.34,1.25-1.18,2.4-2.48,3.42-3.87,1.02-1.39,1.96-2.85,2.69-4.41,1.14-2.33,1.84-4.86,1.93-7.39.11-2.54-.62-5.03-1.96-7.15-.48-.85-1.17-1.58-1.79-2.3-.65-.65-1.41-1.19-2.21-1.64-1.64-.84-3.49-1.28-5.36-1.34-.82-.04-1.63.03-2.45.09-1.53.13-2.52.37-3.26.38-.75.01-1.25-.13-1.76-.43-.23-.14-.52-.25-.7-.41-.3-.26-.19-.66.32-1.18.5-.52,1.44-1.12,2.77-1.53,1.97-.58,4.11-.88,6.28-.69,2.16.22,4.39.82,6.41,2.06,1.02.59,1.94,1.39,2.78,2.27.7.87,1.46,1.69,2.02,2.69,1.21,1.91,2.1,4.14,2.39,6.44.5,3.43-.16,6.84-1.33,9.85-1.22,3.01-2.9,5.73-4.89,8.14l-.07-.05Z"/><path class="cls-3" d="M142.66,251.97c-.31-.62-.7-1.2-1.05-1.81-.35-.63-.72-1.12-1.14-1.68-.84-1.08-1.81-2.14-2.82-3.18-1.02-1.05-2.06-2.05-3.15-3.14-.54-.55-1.09-1.12-1.62-1.76-.53-.64-1.05-1.4-1.43-2.2-.54-1.16-.87-2.12-1.3-3.08-.42-.95-.87-1.9-1.33-2.8-1.65-3.22-3.89-6.17-6.59-8.55l-.5-.42c-.08-.07-.15-.11-.22-.17-.14-.11-.3-.22-.47-.33-.17-.1-.34-.22-.53-.3-.18-.1-.46-.04-.49.17-.05.38.11.76.25,1.15l.12.31c.04.11.07.19.19.44l.59,1.28c1.45,3.04,3.09,6.05,4.56,9.12.92,1.98,1.82,3.99,2.54,6.09.36,1.05.61,2.14.83,3.24.12.55.15,1.12.13,1.69.01.56-.04,1.14-.05,1.69-.12,1.4-.24,1.18-.71.1-.25-.54-.69-1.28-1.3-2.1-.53-.84-1-1.83-1.47-2.93-.75-1.97-1.58-3.95-2.52-5.89-.91-1.96-1.84-3.93-2.8-5.91l-1.44-3-.71-1.53-.34-.78-.56-1.33c-.17-.47-.34-.95-.48-1.4-.06-.42-.21-.9-.2-1.26,0-.19-.02-.38,0-.56l.08-.48c.03-.16.09-.29.13-.44.06-.14.16-.25.25-.38.98-1.37,2.28-.93,3.88-.16.24.13.47.24.71.37l.71.48c.45.32,1.03.66,1.23.84.57.43,1.12.9,1.66,1.38,1.07.96,2.07,2,2.96,3.12,1.8,2.22,3.32,4.72,4.44,7.31.64,1.4,1.12,2.96,1.69,4.02.58,1.06,1.59,2.09,2.62,3.12,2.12,2.09,4.36,4.17,6.26,6.7,1.15,1.6,2.06,3.24,2.92,4.96.78,1.74,1.49,3.54,1.92,5.4.71,2.81.95,5.74.82,8.6-.1,2.86-.54,5.67-.86,8.39-.66,4.18.53,8.06,1.99,11.99.33.87.66,1.73,1,2.6.3.83.53,1.53.69,2.13.15.61.2,1.12.24,1.55.04.86-.08,1.39-.34,1.84-.12.21-.22.46-.35.59-.44.42-1.13-.84-2.27-3.09-1.42-3.44-3.22-7.05-3.99-11.32-.2-1.06-.29-2.17-.32-3.28-.02-.56.03-1.13.05-1.69l.15-1.56c.24-2.04.52-3.99.69-5.92.25-2.85.25-5.65-.25-8.37-.48-2.72-1.42-5.35-2.76-7.8l.07-.04Z"/><path class="cls-3" d="M103.88,241.83c1.62,2.05,3.28,4.09,4.96,6.13l2.5,3.08c.82,1.02,1.64,2,2.5,2.97,1.25,1.42,2.65,2.71,3.97,4.23,1.16,1.33,2.28,2.85,3.12,4.45.82,1.56,1.55,3.1,2.27,4.66,1.43,3.12,2.77,6.27,4.02,9.46,1.1,2.83,2.21,5.68,3.16,8.57.62,1.85,1.18,3.74,1.49,5.71.16.98.28,1.99.24,3.02-.05,1.01-.19,2.12-.82,3.05-.46.54-.72.67-.74.64-.05-.05.12-.33.07-.87-.03-.53-.27-1.23-.51-2-.14-.4-.29-.82-.44-1.26-.11-.45-.25-.93-.36-1.43-.91-3.58-2.06-7.26-3.42-10.88-1.36-3.62-2.83-7.24-4.35-10.86-.91-2.16-1.97-4.33-3.13-6.38-.58-.99-1.21-1.9-1.95-2.78-.74-.87-1.57-1.71-2.41-2.58-1.86-1.89-3.74-3.91-5.45-5.97-1.72-2.03-3.41-4.1-5.1-6.16-2.07-2.56-4.14-5.13-6.05-7.88-.36-.52-.71-1.06-1.05-1.62l-.26-.43-.32-.6c-.2-.4-.4-.81-.53-1.21-.28-.81-.39-1.58-.11-2.31.04-.09.07-.19.12-.27l.23-.2c.16-.12.32-.24.49-.32.34-.19.72-.29,1.12-.33.78-.09,1.66.08,2.48.45.92.44,1.35.69,1.94,1.04,1.11.68,2.13,1.44,3.11,2.23,1.53,1.23,2.97,2.5,4.37,3.85,1.4,1.36,2.68,2.83,3.86,4.37.52.68,1.04,1.33,1.52,2.04.9,1.3,1.4,2.22,1.62,2.93.24.7.23,1.2.1,1.67-.06.21-.08.46-.16.61-.23.49-1.39-.3-2.83-2.06-2.01-2.68-4.05-5.38-6.43-7.69-1.21-1.17-2.5-2.31-3.82-3.36-.66-.52-1.33-1.03-2.01-1.48-.34-.23-.68-.44-1.02-.64-.17-.09-.34-.19-.5-.28-.09-.04-.16-.1-.25-.12-.14-.04-.01-.03-.05-.02,0,.01,0,0-.02,0,0,0-.01,0-.01,0,.03.06-.14-.2.31.54,1.31,2.08,2.95,4.17,4.59,6.22l-.06.06Z"/><path class="cls-3" d="M144.5,297.27c-2.17.28-4.35.53-6.54.72-.8.07-1.59.24-2.39.26-2.84.13-5.69.11-8.5-.16-1.25-.1-2.5-.16-3.74-.24-1.58-.15-3.18-.28-4.68-.97-.47-.19-.37-.39.09-.68.23-.15.55-.33.93-.52.19-.09.39-.2.6-.26.21-.05.43-.09.65-.09.79-.01,1.58-.1,2.37-.1.78.05,1.56.04,2.34.07,1.56.06,3.11.08,4.69.19,1.89.16,3.84-.2,5.77-.39,2.12-.25,4.24-.52,6.37-.87,1.31-.21,2.62-.43,3.93-.68,1.98-.37,3.99-.71,5.95-1.19,1.52-.38,2.97-.94,4.45-1.42.33-.1.64-.24.98-.33,1.24-.32,1.69-.16,2.14.74.1.21.23.41.3.62.26.72-.12,1.43-.99,1.82-2.57,1.16-5.38,1.83-8.24,2.43-2.12.45-4.28.82-6.46,1.16l-.02-.08Z"/><path class="cls-3" d="M175.37,277.59c1.47-.53,2.97-1.05,4.43-1.71.53-.24,1.02-.55,1.55-.8,1.88-.85,3.74-1.78,5.54-2.82.8-.46,1.58-.97,2.33-1.5.93-.72,1.9-1.4,3.31-1.48.36-.14.31-.11.14.18-.2.26-.13,1.32-.54,1.93-1.63,1.9-3.73,3.21-5.99,4.28-1.36.63-2.6,1.55-3.94,2.28-1.49.77-3,1.51-4.56,2.13-.96.4-1.94.74-2.91,1.08-.73.27-1.5.47-2.25.71-.76.21-1.52.4-2.27.63-.59.14-1.17.34-1.75.54-.58.19-1.18.35-1.78.51-.27.07-.52.17-.8.19-1.02.13-1.37-.18-1.58-1.02-.05-.2-.11-.39-.14-.58-.09-.65.29-1.23.93-1.53,1.89-.68,3.83-1.07,5.82-1.66.74-.19,1.48-.45,2.22-.66.74-.26,1.48-.5,2.22-.78l.03.07Z"/><path class="cls-3" d="M360.19,211.84c1.49,1.72,3.18,3.28,5,4.23.93.49,1.76.74,2.8.82,1.04.09,2.19.02,3.42-.07,1.77-.12,3.73-.41,5.83-.04,1.83.3,3.71,1.17,5.08,2.46,1.38,1.29,2.35,2.73,3.12,4.37.74,1.63,1.15,3.46,1.05,5.28-.1,1.82-.68,3.57-1.59,5.09-.81,1.35-1.87,2.51-3.08,3.47-1.22.98-2.65,1.66-4.12,2.08-1.89.52-3.89.7-5.81.31-.95-.21-1.89-.51-2.74-.98-.43-.22-.84-.49-1.23-.77-.21-.11-.36-.34-.53-.51-.16-.19-.33-.34-.48-.54-.69-.99-.66-.72.27-.4,1.01.26,2.8.29,4.57.39.8.02,1.58.04,2.36,0,.78-.03,1.54-.19,2.28-.38,1.48-.43,2.76-1.15,3.88-2.13,2.28-1.99,3.52-4.97,2.82-7.96-.2-.89-.54-1.79-1.08-2.61-.23-.43-.57-.81-.86-1.21-.33-.34-.64-.72-1-1.01-1.41-1.23-3.18-1.7-5.25-1.69-2.26-.05-4.76.49-7.59.2-1.43-.14-2.85-.65-4.05-1.31-1.22-.66-2.3-1.47-3.28-2.34-2.43-2.16-4.36-4.69-6.05-7.33-2.55-4.02-4.46-8.39-5.94-12.84-1.13-3.46-2.09-6.96-2.46-10.62-.09-.8-.16-1.6-.18-2.42,0-.76.04-1.4.08-1.92.08-.53.18-.95.3-1.29.24-.68.6-1.04,1.06-1.3.21-.11.43-.27.63-.32.7-.16,1.01,1.07,1.15,3.09.34,6.01,1.99,12.19,4.41,18.09,1.85,4.34,4.2,8.58,7.26,12.05l-.06.06Z"/><path class="cls-3" d="M376.78,242.65c.84,1.37,1.38,3.05,1.36,4.72-.01,1.68-.53,3.26-1.28,4.58-.55,1.01-1.31,2.03-2.29,2.72-1.74,1.23-3.83,1.62-5.75,1.44-1.93-.17-3.76-.88-5.25-2.06-1.34-1.02-2.34-2.5-2.83-4.08-.34-1.02-.34-2.11-.17-3.11.17-1.01.52-1.96.99-2.82.29-.54.37-.41.45.14.04.54.25,1.52.4,2.49.08.43.16.85.29,1.23.05.2.14.38.22.56.03.19.11.36.17.54.26.7.65,1.31,1.14,1.83.93,1.07,2.28,1.91,3.84,2.28,1.89.47,3.97-.24,5.2-1.52.68-.67,1.21-1.73,1.5-2.74.3-1.02.25-2.09-.08-3.11-.43-1.25-1.29-2.44-2.42-3.34-.2-.18-.44-.33-.66-.49-.2-.13-.39-.24-.61-.33-.45-.19-.95-.31-1.44-.34-1-.1-2,.25-2.31.84-.09.1-.09.26-.15.38,0,.16-.05.29-.01.46.02.35.1.59.26.83.3.47.84.82,1.24.83.19.03.29-.11.32,0,.03.06.06.1.07.11h.01s0,.01,0,.01h0c-.25-.21-.07-.06-.12-.1h0s0,0,0,0h0s0,0,0,0c.27.19.43.24.51.25.18,0-.06,0-.17.14-.04.05-.02.02,0,0,.02-.02.02-.04.03-.07.02-.05.02-.11.03-.18,0-.13,0-.27-.03-.44-.02-.15-.09-.3-.12-.43-.06-.21.07-.44.54-.51.23-.03.55-.01.93.2.19.11.4.28.58.56.18.27.31.68.27,1.07-.06.61-.28,1-.55,1.37-.3.38-.69.66-1.09.84-.8.35-1.57.36-2.32.2-1.42-.32-2.68-1.26-3.29-2.66-.16-.35-.27-.72-.34-1.11-.08-.41-.06-.72-.08-1.08,0-.35.08-.76.14-1.14.14-.4.24-.8.48-1.17.42-.78,1.1-1.34,1.77-1.75.67-.37,1.36-.59,2.01-.68.97-.15,1.88-.1,2.77.09.45.09.89.23,1.32.41.41.16.93.45,1.26.69,1.3.9,2.45,2.03,3.34,3.42l-.07.05Z"/><path class="cls-3" d="M361.74,145.12c-5.47-1.38-11.34-1.5-16.89-.34-1,.25-2.02.47-2.97.85l-1.45.51-1.41.61c-3.31,1.43-6.31,3.49-8.67,6.27-2.36,2.75-4.19,6.04-4.98,9.57-.76,3.12-.46,6.45.98,9.19.93,1.76,2.31,3.27,3.98,4.49,1.64,1.25,3.55,2.24,5.57,3.01,1.26.49,1.07.59-.13.6-.61.02-1.46-.03-2.51-.14-.52-.07-1.08-.19-1.69-.32-.59-.18-1.23-.35-1.85-.64-1.12-.5-2.21-1.13-3.16-1.96-.51-.38-.94-.86-1.4-1.31-.41-.49-.86-.97-1.21-1.52-1.58-2.11-2.24-4.79-2.4-7.32-.13-2.56.28-5.08,1.13-7.4.82-2.33,2.03-4.47,3.45-6.42,1.73-2.31,3.73-4.49,6.09-6.29,2.33-1.84,4.99-3.2,7.71-4.21,3-1.1,6.14-1.75,9.28-1.99,3.14-.26,6.3-.17,9.41.24,3.82.53,7.58,1.58,11.1,3.23,2.68,1.24,5.15,2.93,7.33,4.86,2.2,1.93,4.16,4.09,5.85,6.46,2.61,3.66,4.7,7.81,5.28,12.47.07,1.02.25,2.04.14,3.08-.03.48-.07.93-.09,1.33-.06.4-.15.76-.23,1.09-.17.65-.31,1.18-.53,1.58-.47.79-.94,1.17-1.56,1.36-.28.09-.57.22-.83.23-.43.01-.68-.39-.78-1.06-.1-.68,0-1.61.06-2.79.35-3.47-.4-6.96-1.81-10.25-1.5-3.27-3.66-6.37-6.35-9-1.98-1.95-4.21-3.74-6.59-5.04-2.41-1.32-5.08-2.29-7.84-2.94v-.1Z"/><path class="cls-1" d="M232.41,152.14s-9.45-4.67-10,0-.89,7.46,2.51,8.37,14.62,1.48,14.62,1.48c0,0,5.38-16.97,1.08-17.12s-8.2,7.26-8.2,7.26Z"/><path class="cls-3" d="M241.79,148.27c.68,1.31.96,2.66,1.06,3.94.03.47.13.92.1,1.38-.09,1.64-.62,3.11-1.18,4.46-.25.6-.46,1.2-.68,1.79-.14.38-.3.75-.48,1.11-.09.18-.19.35-.3.53-.09.18-.3.31-.43.47-.16.2-.3.11-.44-.17-.11-.21-.22-.41-.31-.58-.1-.23-.13-.46-.11-.69l.15-1.19c.08-.37.15-.75.23-1.13.15-.74.32-1.45.51-2.16.24-.86.13-1.74,0-2.58-.11-.92-.34-1.82-.74-2.61-.24-.48-.55-.94-.93-1.3-.52-.55-1.27-1.01-2.07-1.09-.63-.05-1.22.27-1.6.58-.09.07-.16.17-.23.23-.28.2-.47.04-1.23-.74l-.52-.52c-.58-.58-.78-1.34-.28-1.91.72-.82,1.81-1.34,2.89-1.45,1.09-.13,2.19.07,3.18.48.74.3,1.43.74,2.04,1.28.64.55,1.04,1.18,1.44,1.82l-.07.05Z"/><path class="cls-3" d="M223.94,153.81c-.08.3-.21.58-.26.9-.02.33-.14.64-.1.99.03.33-.02.74.07,1,.05.3.1.62.23.85l.12.29c.06.09.14.15.2.23.13.16.26.32.44.46.55.56,1.44,1.02,2.45,1.35,1,.35,2.08.61,3.2.89.98.26,2,.5,3.01.83.32.12.65.22.97.36.32.15.63.33.92.51.29.22.55.47.81.71.26.24.43.58.63.86.23.38-.02.47-.5.45-.24,0-.53-.03-.82-.07-.3-.03-.66-.02-.94-.12-2.08-.66-4.52-.7-7.2-1.61-.79-.26-1.64-.49-2.51-.8-.44-.18-.88-.38-1.32-.62-.41-.31-.88-.54-1.21-.97l-.57-.66-.42-.76c-.32-.5-.37-1.05-.53-1.58-.13-.53-.11-1.03-.17-1.54-.02-.51.05-1.03.08-1.54.22-1.26.7-2.49,1.47-3.54,1.21-1.55,3.12-2.58,5.09-2.59,1.51-.07,3.07.24,4.4,1.02.28.18.56.35.82.56.97.79.91,1.36.37,2.05-.13.16-.24.33-.39.47-.24.23-.54.35-.86.38-.32.03-.67,0-.93-.18-1.69-.94-3.05-1.23-4.29-.78-.93.29-1.76,1.1-2.19,2.21l-.08-.02Z"/><path class="cls-3" d="M241.09,142.32c1.12.51,2.28,1.42,2.98,2.57.72,1.14,1.01,2.38,1.11,3.5.07.82.16,1.6.05,2.35-.36,2.65-1.35,4.88-2.36,7.04-.45.96-.85,1.93-1.27,2.87-.27.61-.53,1.22-.83,1.81-.33.58-.77,1.1-1.31,1.56-.34.29-.46.15-.62-.32-.1-.32-.2-.65-.3-.95-.09-.37-.12-.77-.06-1.14.86-2.47,1.7-4.88,2.6-7.25.55-1.42.63-3,.58-4.37-.02-.76-.13-1.47-.36-2.06-.24-.59-.58-1.06-1.04-1.48-.29-.25-.69-.43-1.06-.64-.19-.05-.37-.11-.56-.18-.19-.04-.36-.03-.55-.06-.54.02-1.09.19-1.63.54-.52.39-1,.93-1.36,1.57-.56,1-.72,2.21-.82,3.34-.01.25,0,.5-.03.75,0,.46-.24.74-.42.94-.21.2-.52.32-.96.42-.2.05-.4.11-.58.14-.61.11-1.25-.35-1.53-1.28-.32-1.36-.16-2.75.19-4.15.38-1.39,1.03-2.8,2.21-4.1.85-.97,2.18-1.84,3.73-2.12.77-.18,1.54-.12,2.28-.04.69.15,1.4.33,1.96.62l-.04.09Z"/><path class="cls-1" d="M259.92,225.37s-7.41-1.18-7.97,3.37,2.1,5.49,4.89,5.83c2.79.35,11.94,0,11.94,0,0,0,1.37-9.2.17-11.45-1.19-2.26-4.36-3.98-5.9-3.6s-3.13,5.86-3.13,5.86Z"/><path class="cls-3" d="M267.26,220.25c.86.88,1.41,1.89,1.78,2.87.13.36.32.68.39,1.06.27,1.31.23,2.56.02,3.72-.08.51-.16,1-.23,1.51-.12.63-.22,1.26-.48,1.84-.08.18-.28.11-.47-.09-.19-.2-.39-.54-.4-.89-.05-1.25-.33-2.39-.35-3.48,0-.68-.35-1.28-.66-1.83-.32-.62-.72-1.18-1.21-1.62-.3-.27-.62-.51-.98-.65-.49-.24-1.12-.39-1.69-.23-.44.15-.75.55-.89.89-.04.07-.04.17-.08.22-.15.17-.38.03-1.27-.49l-.62-.34c-.69-.38-1.12-.98-.91-1.6.28-.92,1.02-1.62,1.83-2.05.83-.44,1.77-.55,2.68-.49.68.05,1.34.22,1.98.49.65.3,1.14.69,1.61,1.11l-.05.07Z"/><path class="cls-3" d="M253.03,227.78c-.4.99-.08,2.68.78,3.92.31.45.78.85,1.12,1.1,1.18,1.08,3.72.98,6.23.8,1.13-.07,2.29-.23,3.49-.14,1.51,0,3.19.54,4.23,1.73.33.35.19.42-.29.5-.3.06-.62.12-.91.18-.37.12-.75.23-1.08.2-.63.03-1.23.12-1.84.12l-.93.11c-.32.06-.64.1-.97.12-1.33.11-2.77.32-4.39.27-.95,0-2.01-.06-3.1-.29-1.11-.2-2.22-.84-3.03-1.6-1.65-1.66-2.7-3.86-2.65-6.28,0-1.47.68-3.07,1.89-4.05.85-.67,1.87-1.14,2.93-1.34,1.06-.2,2.14-.13,3.15.11,1.56.37,3.07.98,4.34,2.04.29.22.57.45.81.72.89,1.04.86,1.6.14,2.24-.16.14-.31.3-.48.41-.58.37-1.34.26-1.84-.2-.79-.67-1.58-1.27-2.44-1.68-.84-.43-1.74-.68-2.54-.59-.6.04-1.14.21-1.66.54-.29.2-.46.3-.57.47-.14.15-.24.35-.31.6l-.08-.02Z"/><path class="cls-3" d="M265.88,216.17c1.15.3,2.15.8,2.98,1.53.41.38.83.73,1.14,1.21.16.23.34.45.47.69l.36.75c.3.73.56,1.47.6,2.19.08,1.28-.08,2.44-.32,3.52-.22,1.09-.51,2.13-.77,3.15-.22.91-.41,1.82-.54,2.72-.1.58-.13,1.15-.19,1.72,0,.28-.05.57-.13.85-.05.28-.1.57-.15.86-.08.36-.28.35-.59.06-.28-.29-.86-.89-.97-1.63-.1-1.3-.06-2.6.07-3.82.17-1.22.42-2.41.68-3.55.31-1.36.21-2.82-.12-3.91-.12-.28-.17-.6-.35-.84-.08-.12-.13-.26-.22-.38l-.29-.33c-.4-.43-.93-.82-1.5-1.09-.71-.32-1.48-.45-2.17-.28-1.05.25-1.83,1.06-2.14,2.43-.23,1.01.05,1.88.43,2.79.09.2.21.39.29.61.33.79.21,1.19-.46,1.72-.15.12-.3.26-.46.36-.53.35-1.2.23-1.74-.37-.74-.9-1.44-2.1-1.64-3.67-.08-.77-.02-1.56.14-2.28.08-.36.17-.7.28-1.03.13-.35.28-.78.5-1.15.3-.57.74-1.12,1.24-1.59.53-.44,1.12-.83,1.77-1.06,1.28-.52,2.63-.52,3.81-.28v.09Z"/><path class="cls-2" d="M284.05,180.4c-.6.18-6.12-1.65-6.43,1.88s3.68,6.12,5.65,6.46c1.97.34,6.7.93,6.7.93,0,0,3.58-4.09,3.07-7.36-.51-3.27-2.03-6.45-3.98-5.98-1.95.47-5,4.07-5,4.07Z"/><path class="cls-3" d="M279.88,182.37c-.35.42-.59.55-.59,1.1-.01.19.11.36.16.57.16.78.65,1.65,1.3,2.41.3.33.68.56,1.06.79.25.14.5.27.75.41l.19.11c.05.07.11.13.16.19.11.13.23.23.35.36.14.16.07.35-.18.59-.12.12-.3.27-.5.4-.1.07-.22.15-.34.22-.06.04-.12.05-.18.09-.05,0-.11,0-.16,0-1.49-.11-2.88-.92-3.79-2.17-.49-.78-1.2-1.44-1.59-2.41-.22-.51-.33-1.11-.36-1.71-.01-.59.12-1.32.33-1.78.25-.62.61-1.23,1.12-1.74.75-.79,1.89-1.22,2.95-1.29.82-.07,1.65-.11,2.44.07.17.04.35.05.5.14.58.28.54.69.15,1.45-.09.18-.18.36-.28.52-.34.55-.83.93-1.22,1.03-.55.14-.92.12-1.18.19-.26.05-.36.1-.43.12-.05.02-.11.02-.21.07-.09.06-.22.16-.37.31l-.08-.04Z"/><path class="cls-3" d="M278.91,180.93c-.6.46-1.01,1.56-.88,2.62.05.39.23.73.37,1.06.33.99,2.09,2.01,3.79,2.67.78.29,1.6.5,2.4.72.53.12,1.06.24,1.57.46.52.17,1.02.47,1.51.8.3.21.22.32-.12.53-.24.14-.49.28-.7.4-.29.17-.61.32-.94.33-2.31.21-4.59-.34-6.8-1.6-.66-.37-1.35-.79-2.05-1.34-.34-.27-.7-.65-.98-1.03-.26-.37-.47-.77-.62-1.19-.65-1.81-.52-3.82.47-5.48.59-1.02,1.63-1.82,2.72-2.18.85-.28,1.78-.3,2.62-.1.84.2,1.6.59,2.25,1.06,1.03.71,1.96,1.55,2.68,2.62.17.23.31.47.44.73.42.99.25,1.42-.59,1.75-.19.08-.37.16-.55.21-.62.15-1.27-.08-1.55-.5-.46-.64-.92-1.23-1.41-1.75-.48-.53-1.05-.93-1.57-1.1-.39-.13-.71-.17-1.05-.11-.17.02-.35.1-.53.17-.15.09-.3.17-.43.31l-.06-.05Z"/><path class="cls-3" d="M291.51,174.98c1.7,1.13,2.54,2.9,2.84,4.59.09.61.22,1.22.15,1.81-.17,2.09-1.02,3.81-1.89,5.41-.41.7-.8,1.4-1.25,2.06-.28.43-.57.85-.89,1.24-.31.41-.77.7-1.2.99-.28.17-.38,0-.41-.37-.02-.19-.02-.43,0-.7.03-.26-.01-.6.14-.81.46-.83.85-1.69,1.23-2.53.41-.83.78-1.66,1.15-2.5.45-1.01.44-2.17.31-3.15-.12-1.08-.58-2.02-1.29-2.76-.43-.44-.98-.73-1.52-.8-.82-.08-1.61.25-2.18,1.24-.43.73-.39,1.44-.31,2.22.02.18.07.35.09.53.07.69-.16.98-.9,1.24-.17.06-.34.13-.51.18-.57.15-1.13-.09-1.44-.7-.4-.89-.69-2.05-.45-3.4.14-.65.4-1.28.71-1.83.16-.27.32-.52.49-.76.23-.29.46-.57.75-.83.42-.39.93-.73,1.48-.96.57-.23,1.17-.34,1.77-.36,1.19-.02,2.3.34,3.17.89l-.04.07Z"/><path class="cls-3" d="M179.87,222.16c.18-.85.32-1.71.41-2.56.04-.41.08-.88.09-1.22,0-.08.02-.12.02-.19,0-.12,0-.28-.09-.41-.12-.16-.25,0-.33.1-.04.06-.09.12-.13.18l-.07.1-.27.51c-.42.8-.83,1.63-1.24,2.46l-1.24,2.52-.65,1.27c-.22.42-.43.84-.79,1.37-.94,1.33-1.87,2.3-2.83,3.34-.96,1.02-1.92,2-2.93,2.94-1.77,1.66-3.56,3.26-5.36,4.86l-2.69,2.39-1.34,1.19c-.41.38-.79.74-1.12,1.13-.68.77-1.16,1.64-1.46,2.62-.29.98-.41,2.06-.41,3.18,0,1.1.09,2.31.29,3.38l.15.8.24.81c.14.54.35,1.09.55,1.63,1.47,3.88,3.53,7.67,5.29,11.54,1.13,2.49,2.22,5.03,3.06,7.68.39,1.34.7,2.7.92,4.08.21,1.38.39,2.78.17,4.18-.28,1.74-.21,1.47-.75.08-.16-.34-.28-.76-.51-1.22-.29-.45-.43-.98-.67-1.54-.19-.56-.5-1.16-.74-1.8-.25-.64-.52-1.31-.79-2.01-1.7-5.06-4.22-9.88-6.62-14.93-.6-1.26-1.19-2.55-1.75-3.88-.29-.65-.53-1.36-.79-2.04-.22-.73-.47-1.42-.63-2.21l-.23-1.18-.12-1.1c-.06-.74-.11-1.49-.11-2.25,0-1.52.17-3.14.76-4.72.69-1.89,2.07-3.53,3.42-4.66,1.26-1.14,2.53-2.29,3.81-3.44,2.53-2.3,5.04-4.65,7.44-7,.66-.65,1.3-1.3,1.92-1.96.59-.65,1.21-1.36,1.53-1.95.86-1.59,1.65-3.3,2.48-4.99.42-.87.82-1.66,1.31-2.6.69-1.3,1.49-2.68,2.37-3.31.44-.32.85-.56,1.48-.49.61.14,1.11.44,1.47.88.71.86,1.05,2.16,1.12,3.61l.03.66c0,.22-.01.47-.01.6,0,.31-.03.62-.06.92-.05.61-.12,1.21-.22,1.8-.18,1.19-.43,2.36-.75,3.53-.62,2.42-1.92,4.57-3.21,6.51-1.96,2.94-4.14,5.69-4.96,8.83-.66,3.16-.3,6.66.5,9.94,1.26,5.15,3.44,9.96,5.79,14.69.51,1.04,1.08,2.04,1.61,3.09,1,1.94,1.65,3.22,1.98,4.19.31.98.36,1.62.25,2.21-.05.27-.07.6-.15.79-.15.32-.54.14-1.12-.45-.58-.59-1.4-1.58-2.21-2.99-2.48-4.13-4.79-8.55-6.69-13.29-1.84-4.75-3.43-9.82-3.43-15.42.1-1.06.07-2.06.34-3.21.24-1.1.6-2.14,1.05-3.1.88-1.93,1.99-3.6,3.05-5.17,1.06-1.57,2.11-3.07,2.88-4.57.4-.75.73-1.49.97-2.24.25-.79.46-1.66.64-2.51h.08Z"/><path class="cls-3" d="M138,314.12c1.48.11,2.97.16,4.46.05.55-.02,1.07-.17,1.62-.22,1.91-.2,3.86-.39,5.76-.88.43-.09.83-.25,1.25-.38.41-.13.83-.26,1.23-.42,1.02-.44,2.06-.82,3.19-1.09.36-.08.41.11.28.49-.13.37-.41,1.05-.91,1.55-.94.79-1.98,1.42-3.07,1.99-1.13.44-2.3.8-3.51.98-.72.14-1.44.29-2.17.45-.72.18-1.46.31-2.19.42-.81.12-1.62.16-2.43.23-.81.01-1.62.07-2.44.04l-1.5-.03-1.49-.1c-.75-.03-1.5-.16-2.25-.23-.75-.1-1.48-.23-2.23-.31-1.14-.18-2.32-.14-3.45-.4-.25-.04-.5-.07-.75-.15-.91-.29-1.14-.59-1.11-1.33,0-.17,0-.34.03-.5.09-.54.59-.89,1.27-.92,1,0,2.04-.15,3.01-.02.98.08,1.96.2,2.95.29l2.2.26c.74.05,1.48.14,2.22.15v.08Z"/><path class="cls-3" d="M134.57,304.37c.96,1.07,1.02,2.43.56,3.52-.17.39-.38.78-.71,1.06-.59.49-1.36.72-2.07.68-.7-.06-1.3-.3-1.79-.72-.41-.36-.76-.77-.94-1.24-.25-.58-.35-1.28,0-1.85.11-.18.43-.03.78.16.33.2.76.37.86.5.15.26.42.36.48.5.11.12.12.21.32.36.19.2.4.03.54-.09.19-.14.3-.44.21-.75-.06-.18-.11-.25-.29-.33-.25-.1-.75-.03-1.03.28-.24.25-.27.67-.32,1.07-.01.09,0,.19-.02.28-.1.32-.37.33-1.12.11l-.51-.15c-.57-.19-.98-.53-1.04-.93-.07-.57.1-1.15.46-1.73.18-.29.42-.57.71-.82.32-.27.67-.48,1.05-.64.57-.23,1.21-.35,1.92-.27.7.08,1.45.4,1.99.96l-.04.05Z"/><path class="cls-3" d="M195.04,300.12c-1.06.54-2.13,1.03-3.22,1.47-.39.17-.76.38-1.17.52-1.42.49-2.86.92-4.33,1.18-.64.14-1.28.29-1.91.45-.41.08-.81.2-1.22.26-.42.03-.85.02-1.27,0-.27-.02-.26-.19-.08-.45.18-.25.5-.67.92-.89.37-.22.76-.3,1.14-.45l1.14-.41c.76-.26,1.52-.54,2.32-.73.96-.21,1.85-.74,2.74-1.16.99-.47,1.97-.97,2.92-1.52.59-.34,1.17-.69,1.72-1.08.85-.58,1.7-1.17,2.43-1.88.56-.56.99-1.24,1.42-1.9.1-.14.17-.3.29-.43.42-.48.71-.49,1.34-.12.14.08.3.16.43.25.46.31.62.82.43,1.33-.57,1.51-1.77,2.64-3.02,3.65-.46.38-.97.71-1.45,1.06-.51.31-1.02.63-1.55.92l-.04-.05Z"/><path class="cls-3" d="M194.61,289.57c-.21.92-.78,1.48-1.41,1.84-.24.12-.46.29-.74.33-.49.09-1.04,0-1.44-.27-.4-.26-.65-.61-.8-.95-.13-.31-.23-.6-.28-.92-.06-.39-.02-.89.36-1.16.12-.08.33.13.55.36.22.23.5.41.55.45.12.18.3.31.28.46.02.11.06.01.13-.01.1-.02.27-.14.34-.26.04-.07.1-.13.09-.19.02-.09-.08-.29-.28-.32-.16-.02-.33.16-.33.29,0,.03,0,.07.01.09-.02-.03.01,0-.07-.11-.07-.09-.22-.25-.46-.49l-.34-.32c-.4-.34-.61-.77-.37-1.11.35-.48.94-.75,1.5-.78.57-.03,1.13.13,1.64.48.37.26.71.64.92,1.11.21.47.28,1.01.21,1.48h-.06Z"/><path class="cls-3" d="M249.59,257.95c.39,1.12,1.01,2.32,1.66,3.48.68,1.15,1.46,2.27,2.25,3.38,1.55,2.24,3.19,4.47,4.98,6.47.65.72,1.35,1.42,2.01,1.95.18.15.27.21.48.35l.63.4,1.25.81c5.92,3.84,12.57,6.67,18.88,10.62,1.39.91,2.79,1.88,4,3.18.64.66,1.09,1.3,1.61,1.95.46.69.88,1.39,1.29,2.11,1.15,1.76,2.15,3.67,2.79,5.71.65,2.05.76,4.21.73,6.26-.04,1.29-.27,1.12-.65.07-.37-1.06-1.04-2.97-1.83-5.01-.67-1.83-1.66-3.52-2.82-5.11-.54-.83-1.41-1.43-2.08-2.16l-.99-1.12c-.32-.28-.56-.59-.93-.86-1.37-1.12-3.03-2.23-4.79-3.24-1.75-1.02-3.59-2-5.43-3.02-4.4-2.44-9.28-4.62-13.68-7.63-.74-.5-1.3-1.05-1.84-1.58-.54-.53-1.04-1.08-1.52-1.63-.97-1.1-1.88-2.23-2.75-3.39-1.78-2.29-3.31-4.75-4.71-7.31-.43-.79-.85-1.6-1.22-2.45-.18-.43-.36-.86-.51-1.32-.16-.46-.28-.88-.4-1.6-.06-.32-.04-.64-.06-.97.06-.31.06-.63.2-.91.19-.59.66-1.09,1.23-1.31.29-.11.62-.16.92-.24.3-.07.63-.18.92-.17l.77-.04c.25,0,.51.04.76.06,1.55.16,2.95.83,4.12,1.59,1.19.77,2.24,1.62,3.27,2.48,2.04,1.72,4.01,3.44,6.08,5.01.79.59,1.63,1.23,2.43,1.72.39.25.79.48,1.22.66.41.21.85.37,1.29.51,1.76.6,3.65.83,5.57.88.85.03,1.68,0,2.55-.03,3.2-.09,4.43.05,5.12,1.02.16.22.35.44.4.64.08.34-.21.59-.73.82-.54.23-1.45.43-2.66.56-3.59.4-7.67.57-11.73-.93-1.01-.37-2-.87-2.93-1.48-.51-.3-.84-.58-1.25-.87-.39-.29-.79-.57-1.17-.87-1.56-1.17-3.05-2.41-4.52-3.63-1.09-.91-2.16-1.82-3.21-2.62-1.05-.8-2.09-1.5-3.04-1.85-.48-.2-.93-.27-1.4-.31-.11-.02-.23,0-.35,0-.12,0-.26.02-.29,0h-.05s-.06.02-.06.05c0,.02,0,.02,0,.07.07.25.15.51.26.79l-.08.03Z"/><g class="cls-4"><path class="cls-3" d="M374.69,349.58c-.2,2.6,1.02,5.31,3.04,6.95,2.2,1.79,5.08,2.54,7.83,1.66.93-.3,1.63-1.32,1.31-2.31-.3-.94-1.31-1.63-2.31-1.31-.28.09-.56.15-.85.22-.37.08.42-.03.02,0-.12,0-.24.02-.36.03-.26.01-.51,0-.77-.02-.48-.04.35.08-.02,0-.11-.02-.23-.04-.34-.07-.22-.05-.45-.12-.66-.19-.06-.02-.52-.17-.2-.07s-.13-.07-.19-.1c-.2-.1-.4-.22-.59-.34-.1-.06-.19-.13-.28-.19-.31-.21.33.28-.03-.02s-.67-.67-.99-1.03c.34.39.1.12.02.01s-.15-.22-.22-.34c-.13-.21-.24-.43-.35-.66-.18-.36.14.41.01.03-.04-.11-.08-.22-.11-.32-.08-.26-.15-.52-.2-.78-.03-.16,0-.48,0,.04,0-.11-.02-.24-.03-.35-.01-.28,0-.55.01-.83.07-.98-.92-1.92-1.88-1.88-1.08.05-1.8.82-1.88,1.88h0Z"/></g><g class="cls-4"><path class="cls-3" d="M434.23,419.25c-.03-.21-.03-.17.01.12,0-.08-.02-.16-.03-.25-.01-.14-.02-.28-.02-.42,0-.27.03-.55.03-.82.02-.15,0-.08-.03.22.01-.07.02-.15.04-.22.03-.14.06-.29.1-.43.06-.24.18-.47.24-.71-.05.2-.16.35-.01.06.06-.13.13-.25.2-.37.05-.09.11-.18.17-.27.04-.06.08-.12.12-.17.12-.16.08-.11-.1.13.18-.15.33-.38.49-.54.08-.07.15-.15.23-.21.05-.05.11-.09.16-.14.15-.12.11-.09-.13.1.22-.1.42-.29.63-.42.22-.13.45-.24.68-.35.29-.14-.42.16.07-.03.11-.04.21-.08.32-.11.25-.08.51-.16.78-.22.15-.03.31-.07.46-.09.06-.01.12-.02.17-.03.15-.02.08-.01-.2.03.25.04.59-.06.84-.07.29,0,.58,0,.86,0,.17,0,.33.02.5.04.08,0,.17.02.25.03-.29-.04-.33-.04-.12-.01.97.15,2.06-.24,2.31-1.31.2-.9-.27-2.15-1.31-2.31-2.4-.37-4.77-.17-6.98.9-1.96.95-3.49,2.68-4.16,4.75-.43,1.34-.41,2.73-.19,4.11.16.97,1.42,1.6,2.31,1.31,1.05-.34,1.48-1.27,1.31-2.31h0Z"/></g><path class="cls-3" d="M383.82,438.31c-.26,1.29-.31,2.65.16,3.9s1.28,2.22,2.34,3.02c1.59,1.19,3.62,1.75,5.56,2.02.98.14,1.97.24,2.96.24s1.92-.86,1.88-1.88-.82-1.87-1.88-1.88c-.66,0-1.32-.04-1.98-.11-.09-.01-.18-.02-.28-.03-.25-.03.53.08.09.01-.21-.03-.42-.07-.62-.1-.41-.08-.83-.17-1.23-.28-.43-.12-.84-.26-1.26-.42-.29-.11.43.2.09.03-.09-.04-.18-.08-.28-.13-.21-.1-.41-.21-.6-.33-.17-.1-.32-.24-.49-.33.18.1.34.28.09.06-.08-.07-.17-.15-.24-.22-.14-.13-.26-.28-.39-.42-.14-.16.25.37.14.18-.02-.04-.05-.07-.07-.1-.07-.1-.13-.21-.19-.32-.05-.1-.09-.2-.15-.3-.09-.15.11.27.11.25,0-.06-.05-.14-.07-.2-.04-.12-.08-.25-.1-.38,0-.04-.02-.09-.03-.13-.07-.3.02.09.02.18,0-.26-.04-.51-.03-.77,0-.16.03-.31.04-.47.01-.2-.04.24-.03.23.04-.07.05-.25.06-.33.19-.96-.28-2.07-1.31-2.31-.93-.21-2.1.28-2.31,1.31h0Z"/><path class="cls-3" d="M311.07,389.83c-4.37-6.38-8.28-13.05-11.78-19.92-3.48-6.88-6.55-13.98-9.02-21.31-1.79-5.35-3.38-10.8-4.3-16.42-.79-4.95-1.18-10.03-.62-15.14.29-2.55.83-5.1,1.74-7.56.9-2.46,2.24-4.81,4.02-6.81.42-.52.93-.96,1.4-1.44l1.47-1.26c.52-.39,1.03-.79,1.55-1.16.54-.35,1.07-.73,1.63-1.06,2.21-1.34,4.62-2.39,7.15-3.04,2.53-.65,5.2-.89,7.82-.55,2.6.32,5.23,1.22,7.4,2.52,3.96,2.17,7.52,4.94,10.71,8.01,3.2,3.07,6.17,6.35,8.84,9.82,3.43,4.46,6.47,9.23,9.02,14.27.67,1.24,1.2,2.56,1.8,3.83.59,1.28,1.05,2.63,1.57,3.94.96,2.66,1.49,5.48,1.81,8.28.07,1.78.07,2.52-.01,2.49-.09-.04-.3-.87-.84-2.25-.27-.69-.63-1.5-1.07-2.42-.11-.23-.21-.47-.35-.7-.09-.25-.23-.49-.35-.75-.28-.5-.58-1.02-.89-1.56-.36-.53-.56-1.13-.85-1.72-.3-.59-.61-1.21-.94-1.84-.6-1.28-1.32-2.59-2.01-3.99-2.5-4.92-5.5-9.6-8.83-14-3.31-4.42-6.99-8.56-11.08-12.17-1-.93-2.11-1.72-3.15-2.59-1.08-.81-2.2-1.55-3.3-2.33l-1.73-1c-.58-.33-1.16-.7-1.71-.92-1.11-.55-2.31-.88-3.52-1.16-4.9-.96-10.27.49-14.7,3.42-1.32.86-2.65,1.88-3.73,2.97-1.09,1.1-2.02,2.37-2.79,3.76-1.54,2.79-2.33,6.05-2.69,9.37-.66,6.69.38,13.62,1.94,20.29,1.76,7.35,4.32,14.55,7.34,21.54,3.03,6.99,6.54,13.78,10.46,20.32,4.84,8.04,10.28,15.76,16.57,22.69,2.38,2.62,4.91,5.11,7.61,7.38,2.7,2.25,5.58,4.33,8.72,5.78,3.14,1.45,6.55,2.29,10,2.36,3.45.08,6.89-.56,10.15-1.72,2.53-.92,4.95-2.11,7.26-3.47,2.29-1.4,4.48-2.96,6.57-4.64,4.16-3.4,7.94-7.23,11.47-11.31,1.54-1.81,3-3.62,4.46-5.52,5.38-7.07,7.04-9.36,8.87-10.47.41-.26.89-.64,1.2-.75,1.03-.4-.31,3.14-4.01,8.7-5.6,8.13-12.27,15.99-20.55,22.46-2.05,1.63-4.28,3.08-6.57,4.45-2.32,1.32-4.76,2.5-7.32,3.43-2.58.88-5.27,1.57-8.04,1.83-2.77.22-5.6.16-8.35-.41-4.1-.76-7.97-2.57-11.33-4.8-3.38-2.23-6.39-4.85-9.22-7.6-5.63-5.55-10.52-11.7-14.96-18.11l.06-.06Z"/><path class="cls-3" d="M288.86,259.2c1.8,2.87,3.21,5.74,5.16,7.75.35.36.74.66,1.14.9l.71.43.79.5c.46.31.92.6,1.37.92l1.3,1.09c.21.19.44.35.64.55l.59.64c.38.45.81.82,1.1,1.35.68.96,1.21,2.06,1.52,3.21.12.58.29,1.15.31,1.72.06.57.09,1.14.07,1.68-.02,1.94-.22,3.74.14,5.37.06.54.31,1,.47,1.51.07.26.26.46.36.7l.34.72.46.67.38.77c.31.48.66.95,1.02,1.43.44.6.39.54-.21.28-.3-.13-.76-.28-1.36-.46-.31-.08-.62-.2-.94-.38-.17-.08-.32-.18-.51-.25-.14-.12-.28-.25-.43-.37-.27-.22-.49-.49-.7-.78-.22-.28-.44-.56-.62-.88-.33-.63-.59-1.32-.81-2-.37-1.38-.48-2.78-.48-4.02-.04-1.25.08-2.39-.01-3.4-.02-1.05-.31-1.94-.66-2.89-.56-1.07-1.4-2.09-2.5-2.91-1.05-.88-2.33-1.54-3.52-2.29-1.73-.96-2.95-2.36-3.98-3.74-1.02-1.4-1.85-2.85-2.68-4.25-.51-.86-1.02-1.71-1.56-2.5-.27-.4-.55-.77-.84-1.13l-.36-.42c-.09-.09-.18-.19-.28-.27-.3-.26-.65-.5-1.06-.61-.2-.05-.42-.08-.64-.06-.11,0-.22.03-.27.13-.04.1-.05.2-.05.3.02.41.13.82.24,1.24l.51,1.81c.31,1.15.65,2.3.89,3.52.22,1.21.41,2.49.16,3.9-.13.62-.29,1.27-.69,1.86-.16.29-.38.5-.57.71-.2.19-.42.32-.61.45-.39.21-.73.35-1.02.37-.59.05-.94-.12-1.24-.39-.13-.12-.29-.23-.37-.35-.14-.21-.03-.45.2-.75.24-.28.53-.71.81-1.05.18-.29.32-.54.43-.83.09-.31.15-.64.18-1.03.03-.77-.05-1.69-.27-2.62-.22-.94-.51-1.92-.83-2.93l-.24-.76-.13-.39-.2-.65c-.29-.99-.62-2.13-.67-3.06-.07-.72.06-1.27.27-1.72.11-.23.24-.42.42-.63.08-.1.22-.2.34-.27.05-.06.17-.03.17-.15l.19-.09c1.03-.48,2.38-.45,3.66.02.65.21,1.3.62,1.93,1.08.31.24.59.53.89.79.14.13.3.31.39.4l.24.27c.62.73,1.14,1.46,1.62,2.18l-.06.05Z"/><path class="cls-3" d="M149.78,175.95c.37.17.75.31,1.08.4.17.05.32.08.43.1.03,0,.11.02.11.02h0s.07.23.07.23c.02.11.06.22.12.32.08.12.05.13.11.19l.03.04.02.02h0s0,0,0,0c.52.52-.71-.71-.58-.58h0s0,0,0,0h0s.2.18.31.24c.18.08.14.1.24.14.03.02.07.03.11.03.05,0,.08,0,.06.01,0,0,0,0,0,0,0,0-.13.02-.17.05-.03.02-.05.03-.07.06l-.16.1c-.06.04-.11.08-.16.12-.02.02-.06.05-.06.06h0s-.02-.02-.02-.03c-.02-.03-.05-.07-.12-.11-.1-.09-.27-.18-.42-.27-.5-.26-1.12-.41-1.72-.59-1.08-.31-2.25-.58-3.33-.65-1.11-.06-2.26.06-3.38.34-1,.25-1.96.66-2.85,1.16-.57.33-1.13.68-1.65,1.08-.52.4-1.1.73-1.61,1.15-.34.25-.46.08-.4-.36.06-.43.29-1.22.9-1.82,2.25-1.92,5.07-3.28,8.14-3.41.9-.03,1.88-.01,2.76.08.9.08,1.8.2,2.7.43.49.12.99.29,1.5.51.25.11.52.26.79.43.14.11.28.22.42.35.15.19.29.29.42.58.06.13.11.27.15.41.02.16.03.33.02.49-.03.3-.16.58-.28.79-.14.18-.22.33-.45.51-.24.2-.45.28-.67.36-.8.21-1.35.09-1.89.02-1.3-.25-2.44-.69-3.54-1.27l-.3-.16c-.32-.19-1.15-.21-1.89-.12-.76.09-1.54.26-2.3.49-1.27.38-2.44.98-3.6,1.57l-.76.4c-.96.46-1.32.45-1.85-.06-.12-.12-.26-.22-.36-.35-.35-.41-.15-1.05.54-1.57,1.03-.77,2.16-1.41,3.36-1.94,1.2-.54,2.48-.96,3.88-1.24.56-.11,1.16-.19,1.81-.23.36,0,.67-.02,1.09.05.4.03.91.19,1.38.4.7.36,1.38.66,2.07.96l-.02.07Z"/><path class="cls-3" d="M143.1,191.04c.34,1.26,1.16,2.36,2,3.33.99,1.14,2.16,2.12,3.4,2.97,2.22,1.51,5.6,2.96,8.13,1.3,1.73-1.14,2.31-3.13,2.54-5.08.1-.81-.76-1.5-1.5-1.5-.89,0-1.4.69-1.5,1.5.02-.19-.01.07-.01.09-.02.1-.03.21-.05.31-.03.17-.07.34-.12.5-.04.16-.09.31-.14.46-.03.08-.06.16-.09.24.05-.12.07-.16,0-.02s-.14.27-.22.41c-.04.06-.26.36-.13.2.14-.17-.11.11-.15.15-.04.04-.1.09-.14.13-.17.19.18-.11.04-.03-.1.05-.19.12-.28.17-.32.19.12,0-.07.04-.1.02-.21.06-.31.09-.04.01-.09.02-.14.03-.29.09.24-.02.07,0-.25.01-.49.02-.74,0-.07,0-.14-.01-.2-.02,0,0,.31.05.14.02-.16-.03-.31-.06-.47-.09-.25-.06-.5-.14-.75-.22-.15-.05-.29-.11-.43-.16.3.12-.08-.04-.18-.09-.56-.27-1.1-.58-1.61-.92-.26-.18-.52-.36-.78-.55-.14-.1.03.03.05.04-.07-.05-.13-.1-.2-.16-.15-.12-.29-.24-.44-.36-.46-.4-.91-.82-1.32-1.27-.22-.24-.43-.49-.63-.74.21.25-.01-.02-.09-.12-.09-.12-.17-.25-.26-.38-.14-.22-.27-.45-.39-.69-.17-.32.03.15-.02-.02-.03-.12-.08-.24-.12-.36-.5-1.86-3.39-1.07-2.89.8h0Z"/><path class="cls-3" d="M164,186.75c.21.68.39,1.37.52,2.06.03.18.07.36.1.54.01.08.02.15.04.23,0-.03-.03-.2,0-.03.04.34.07.67.09,1.01.01.3.02.59,0,.89,0,.13-.01.26-.02.39,0,.06,0,.13-.02.19,0,.04-.03.31,0,.11s-.04.22-.05.28c-.02.11-.05.23-.08.34s-.06.22-.09.32c-.04.14-.19.44-.04.14-.1.2-.2.39-.32.58,0,0-.08.12-.08.12-.02,0,.21-.23.09-.12-.08.07-.15.16-.23.24-.02.02-.12.12-.14.12-.03,0,.28-.16.12-.09-.08.03-.16.1-.24.15-.04.02-.08.04-.13.07-.16.08,0,0,0,0,0-.05.15-.04-.05,0-.07.02-.14.04-.21.06-.05.01-.11.02-.16.03.01,0,.29-.01.13-.02-.13,0-.26.02-.39.01-.11,0-.22-.02-.34-.02.31.02.03,0-.11-.04-.13-.03-.27-.07-.4-.11-.12-.04-.33-.14-.09-.03-.27-.13-.53-.26-.77-.42-.13-.08-.25-.17-.38-.26-.14-.1.02.02.04.03-.09-.07-.17-.14-.26-.22-.24-.21-.46-.44-.68-.69-.06-.07-.12-.14-.18-.21-.15-.18.12.16-.02-.03-.1-.14-.19-.27-.28-.41-.21-.33-.39-.67-.56-1.02-.33-.71-1.41-.95-2.05-.54-.73.47-.9,1.29-.54,2.05,1.2,2.57,3.96,5.16,7,4.91,1.47-.12,2.68-.84,3.5-2.06.75-1.11.99-2.55,1.03-3.86.06-1.85-.32-3.73-.85-5.5-.23-.75-1.06-1.3-1.85-1.05s-1.29,1.04-1.05,1.85h0Z"/><path class="cls-3" d="M150.86,216.2c.25,1.66,1.43,3.27,2.94,4.02,1.77.89,3.94.84,5.63-.24.72-.46,1.07-1.47.58-2.22-.46-.72-1.46-1.07-2.22-.58-.14.09-.28.16-.43.24-.25.14.26-.09.07-.03-.08.03-.15.06-.23.08-.16.05-.32.08-.48.12-.22.05.07-.02.14-.01-.09,0-.2.02-.29.02-.15,0-.3,0-.44,0-.28-.02-.02-.03.09.02-.07-.03-.17-.03-.24-.04-.16-.03-.32-.08-.47-.13-.03-.01-.06-.02-.09-.03-.12-.04-.06-.02.16.07-.05-.04-.14-.07-.2-.1-.12-.06-.23-.13-.35-.21-.04-.02-.28-.21-.05-.03s0,0-.04-.04c-.11-.1-.22-.2-.32-.32-.05-.06-.1-.11-.15-.17-.12-.14.23.34.07.08-.08-.13-.16-.25-.24-.38-.03-.05-.06-.11-.08-.16-.07-.14-.08-.34.02.06-.08-.29-.18-.56-.22-.87-.06-.37-.44-.79-.75-.97-.35-.2-.86-.29-1.25-.16s-.77.37-.97.75c-.22.41-.23.79-.16,1.25h0Z"/><path class="cls-3" d="M160.65,178.11c-.74.67-1.34,1.76-1.81,2.94-.47,1.18-.83,2.47-1.09,3.77-.09.47-.18.98-.19,1.41-.02.45-.09.9-.06,1.36-.09,3.24,1.3,6.54,3.25,9.4.87,1.28,1.9,2.47,2.95,3.6.68.73,1.41,1.42,2.13,2.11.7.72,1.39,1.46,2.08,2.21.42.47.19.63-.43.54-.62-.09-1.69-.38-2.69-1.06-1.66-1.31-3.26-2.74-4.66-4.4-1.36-1.68-2.56-3.53-3.42-5.59-1.01-2.43-1.94-5.17-1.72-8,.04-.79.14-1.5.27-2.22.13-.72.28-1.43.47-2.14.38-1.42.86-2.84,1.63-4.19.47-.83,1.12-1.64,1.86-2.26.74-.63,1.55-1.13,2.4-1.54,1.29-.61,2.67-1.01,4.15-1.08.73-.03,1.5.02,2.27.26l.58.23c.23.11.44.26.63.43.36.34.69.79.75,1.48.06.54-.28,1.19-.69,1.46-.48.32-.82.37-1.13.45-.61.12-1.11.15-1.64.21-1.02.1-1.99.19-2.89.35-.4.07-.76.16-1.11.24-.66.14-.92.26-1.2.23-.24,0-.53-.14-.94-.28-.19-.07-.41-.09-.6-.14-.32-.09-.5-.33-.43-.85.05-.52.55-1.13,1.28-1.56,2.14-1.16,4.21-1.1,5.97-1.21.43-.02.86-.05,1.09-.09.05,0,.03,0,.04-.01h0s-.02-.09.05.14c.05.15.11.3.17.45.02.09.03.17.06.26.05.17.14.33.26.47l.05.05.02.03h0c-.1-.12.23.3-.22-.28h0s.03.04.03.04c.02.02.04.05.07.07.02.02.08.06.08.06.05.03,0,0-.07,0-.17-.02-.49.11-.64.22-.16.12-.16.16-.1.06l.02-.04h0c.06-.12-.48.97-.26.51h0s0,0,0,0h0s-.02,0-.02,0l-.06-.02s-.07-.05-.13-.05c-.11-.03-.22-.07-.37-.08-.84-.14-2.04.03-3.11.41-1.08.38-2.13.97-2.87,1.71l-.05-.05Z"/><path class="cls-3" d="M144.3,60.26c-.02-.23.08-.42.21-.59.04-.05.15-.04.17.02.05.15.09.28.12.39,0,.08.25,1.33.34,1.76.07.41.12.82.16,1.23.07.83.19,1.66.29,2.48.02.18.02.37,0,.55-.04.64.02,1.27.12,1.89.02.1.02.21.08.31.1.16.34,1.86.33,2.08-.02.56,0,1.12,0,1.68,0,.08.04.16-.02.24-.13.19-.08.35-.06.53.02.24.03.48.01.72,0,.12-.08.25-.13.38-.05.11-.29.09-.32.06-.09-.1-.18,0-.28.03-.03,0-.07.02-.1.02-.06,0-.68-1.31-.68-1.46,0-.03-.37-2-.42-2.26-.03-.12,0-.24,0-.37,0-.06-.28-1.66-.27-1.73-.01-.34-.09-.67.01-1.02.02-.07,0-.14,0-.2-.05-.58-.05-1.16-.03-1.74.02-.3,0-.59,0-.89,0-.05.02-.11.03-.16.01-.07.03-.14.03-.2,0-.7.07-1.4.06-2.1-.02-.16.19-.93.19-1.11,0-.1.16-.44.14-.53Z"/><path class="cls-3" d="M138.87,67.33c-.19.07-.37-.06-.53-.26-.05-.06-.06-.27,0-.31.1-.07.21-.15.32-.21.16-.05,1.12-.39,1.49-.52.35-.11.7-.18,1.06-.24l2.16-.37c.16-.03.32-.02.49,0,.56.06,1.12,0,1.67-.09.09-.02.19-.01.27-.09.14-.12,1.64-.29,1.83-.26.49.07.98.1,1.47.15.07,0,.14-.03.21.05.16.17.31.13.46.13.21,0,.42,0,.63.05.11.02.22.12.32.2.1.07.07.36.04.4-.09.1,0,.23.02.35,0,.04.01.09.01.13,0,.08-1.15.65-1.28.66-.01,0-.45.07-.92.14-.46.07-.94.15-1.04.17-.1.03-.21-.01-.32-.03-.05,0-1.43.23-1.49.23-.29,0-.57.08-.87-.05-.06-.03-.12-.01-.17,0-.49.05-.99.05-1.5.01-.26-.01-.51.02-.76.02-.05,0-.09-.02-.14-.03-.06,0-.12-.03-.18-.02-.6.03-1.21-.02-1.81.06-.14.03-.81-.14-.97-.12-.09,0-.4-.17-.47-.14Z"/><path class="cls-3" d="M140.3,62.49c-.18-.11-.22-.3-.19-.55.01-.08.15-.21.21-.19.12.04.24.08.35.13.13.1.96.7,1.28.93.31.21.59.45.86.69l1.68,1.48c.12.11.23.23.33.37.35.45.76.84,1.19,1.21.07.06.14.13.24.16.17.05,1.3,1.07,1.42,1.23.3.4.62.77.93,1.16.04.05.12.09.12.18,0,.21.14.29.25.4.15.15.29.3.42.48.06.09.08.22.11.34.03.11-.17.26-.21.26-.12,0-.14.13-.19.21-.02.03-.05.06-.07.08-.05.05-1.23-.48-1.33-.58-.02-.02-1.38-1.16-1.56-1.32-.09-.06-.14-.17-.2-.26-.05-.04-1.11-.99-1.15-1.03-.2-.22-.44-.4-.56-.7-.02-.06-.07-.1-.11-.14-.37-.35-.69-.75-1.02-1.14-.17-.2-.35-.38-.53-.58-.03-.03-.05-.08-.08-.12-.03-.05-.06-.1-.1-.15-.42-.45-.8-.94-1.25-1.36-.1-.1-.48-.67-.61-.78-.07-.06-.17-.38-.24-.42Z"/><path class="cls-3" d="M141.52,71.77c-.03.21-.28.28-.56.3-.09,0-.27-.09-.28-.17-.02-.14-.05-.29-.04-.42.01-.07.34-1.21.47-1.6.12-.37.3-.71.49-1.05.39-.68.77-1.36,1.19-2.02.09-.15.2-.29.32-.41.42-.43.77-.91,1.11-1.39.06-.08.13-.15.14-.27,0-.19,1.04-1.44,1.22-1.57.43-.31.83-.65,1.25-.97.06-.05.1-.12.2-.12.23,0,.32-.13.44-.24.16-.15.34-.29.53-.4.1-.06.24-.06.37-.09.12-.02.26.2.26.24-.01.13.13.16.21.23.03.02.06.05.08.08.03.05-.51,1.24-.6,1.34,0,.01-.29.37-.59.74-.29.38-.58.78-.63.87-.05.09-.15.15-.24.21-.05.03-.83,1.22-.86,1.27-.2.22-.32.49-.62.64-.06.03-.09.08-.13.13-.3.41-.65.78-.98,1.17-.17.2-.3.42-.46.63-.03.04-.07.06-.11.1-.04.04-.09.08-.12.13-.34.51-.74.99-1.02,1.54-.06.13-.59.61-.66.76-.05.08-.38.24-.39.33Z"/><path class="cls-3" d="M30.93,150.44c-.01-.16.06-.29.15-.41.03-.04.11-.03.12.02.03.1.06.2.09.27,0,.06.18.92.24,1.22.05.28.08.57.11.85.05.58.14,1.15.21,1.72.01.13.01.25,0,.38-.03.44,0,.88.08,1.31.01.07.01.15.06.21.07.11.24,1.29.23,1.44-.02.39,0,.78,0,1.16,0,.06.02.11-.01.17-.09.13-.06.25-.04.36.02.17.02.33,0,.5,0,.08-.06.17-.1.26-.03.08-.2.07-.23.04-.06-.07-.13,0-.2.02-.02,0-.05.01-.07.01-.05,0-.48-.9-.48-1.01,0-.02-.26-1.37-.29-1.57-.02-.08,0-.17,0-.25,0-.06-.18-1.16-.19-1.2,0-.23-.06-.47.01-.71.01-.05,0-.09,0-.14-.04-.4-.03-.81-.02-1.21.01-.21,0-.41,0-.62,0-.04.01-.07.02-.11,0-.05.02-.09.02-.14,0-.49.05-.97.05-1.46-.01-.11.14-.64.13-.77,0-.07.11-.31.1-.37Z"/><path class="cls-3" d="M27.18,155.35c-.13.05-.26-.04-.37-.19-.04-.05-.04-.19,0-.22.07-.05.14-.11.22-.15.13-.04.77-.28,1.03-.37.24-.08.49-.13.73-.17l1.5-.26c.11-.02.22-.02.34,0,.39.04.77,0,1.15-.06.06-.01.13-.01.19-.06.09-.09,1.13-.2,1.27-.18.34.05.68.07,1.02.11.05,0,.1-.02.15.03.11.12.21.09.32.09.14,0,.29,0,.44.04.07.02.15.09.22.14.07.05.05.26.03.28-.06.07,0,.16.02.25,0,.03.01.07,0,.09,0,.05-.8.46-.89.47,0,0-.31.05-.64.1-.31.05-.63.11-.72.12-.07.02-.15,0-.22-.02-.05,0-.99.16-1.03.16-.2,0-.4.06-.61-.04-.04-.02-.08,0-.12,0-.34.04-.69.03-1.04,0-.18,0-.35.01-.53.01-.03,0-.06-.01-.1-.02-.04,0-.08-.02-.12-.02-.42.02-.84-.01-1.25.04-.09.02-.56-.1-.67-.09-.06,0-.28-.12-.33-.1Z"/><path class="cls-3" d="M28.17,151.99c-.13-.07-.15-.21-.12-.39,0-.06.11-.15.15-.14.08.03.17.05.25.09.11.08.67.48.89.64.21.15.41.31.6.48l1.17,1.02c.08.08.16.16.23.25.24.31.52.59.82.84.05.04.09.09.17.11.12.03.9.74.99.85.2.28.43.54.64.81.03.04.08.06.08.13,0,.15.1.2.17.28.1.1.2.21.29.33.04.06.05.16.07.24.02.08-.12.19-.15.18-.09,0-.1.09-.14.15-.01.02-.03.05-.05.06-.04.03-.86-.33-.93-.4-.02-.01-.94-.79-1.08-.91-.06-.04-.1-.12-.14-.18-.04-.04-.77-.69-.8-.71-.14-.16-.3-.28-.39-.49-.02-.04-.05-.07-.08-.1-.25-.25-.48-.52-.7-.79-.11-.14-.24-.27-.36-.4-.02-.02-.04-.06-.05-.08-.02-.03-.04-.07-.07-.1-.29-.31-.55-.65-.86-.94-.07-.07-.33-.47-.42-.54-.05-.04-.12-.27-.17-.29Z"/><path class="cls-3" d="M29.02,158.42c-.02.15-.19.19-.39.21-.06,0-.19-.07-.2-.12-.01-.1-.04-.2-.03-.29,0-.05.23-.84.32-1.11.09-.26.21-.49.34-.73.27-.47.53-.95.82-1.4.06-.1.14-.2.22-.28.29-.3.54-.63.77-.97.04-.06.09-.11.09-.19,0-.14.72-1,.84-1.09.34-.26.59-.45.87-.67.04-.03.07-.08.14-.08.16,0,.22-.09.31-.16.11-.1.24-.2.37-.28.07-.04.17-.04.26-.06.08-.01.19.14.18.17,0,.09.09.11.15.16.02.02.05.04.06.06.02.04-.35.87-.41.93,0,0-.2.25-.41.52-.2.26-.4.54-.44.6-.04.06-.11.1-.17.15-.03.02-.57.85-.6.88-.14.15-.22.34-.43.44-.04.02-.06.05-.09.09-.2.29-.45.54-.68.81-.12.14-.21.29-.32.44-.02.03-.05.04-.07.07-.03.03-.06.06-.09.09-.23.36-.52.68-.71,1.07-.04.09-.41.42-.46.52-.03.05-.26.17-.27.23Z"/><path class="cls-3" d="M347.04,102.77c-.01-.16.06-.29.15-.41.03-.04.11-.03.12.02.03.1.06.2.09.27,0,.06.18.92.24,1.22.05.28.08.57.11.85.05.58.14,1.15.21,1.72.01.13.01.25,0,.38-.03.44,0,.88.08,1.31.01.07.01.15.06.21.07.11.24,1.29.23,1.44-.02.39,0,.78,0,1.16,0,.06.02.11-.01.17-.09.13-.06.25-.04.36.02.17.02.33,0,.5,0,.08-.06.17-.1.26-.03.08-.2.07-.23.04-.06-.07-.13,0-.2.02-.02,0-.05.01-.07.01-.05,0-.48-.9-.48-1.01,0-.02-.26-1.37-.29-1.57-.02-.08,0-.17,0-.25,0-.06-.18-1.16-.19-1.2,0-.23-.06-.47.01-.71.01-.05,0-.09,0-.14-.04-.4-.03-.81-.02-1.21.01-.21,0-.41,0-.62,0-.04.01-.07.02-.11,0-.05.02-.09.02-.14,0-.49.05-.97.05-1.46-.01-.11.14-.64.13-.77,0-.07.11-.31.1-.37Z"/><path class="cls-3" d="M343.28,107.68c-.13.05-.26-.04-.37-.19-.04-.05-.04-.19,0-.22.07-.05.14-.11.22-.15.13-.04.77-.28,1.03-.37.24-.08.49-.13.73-.17l1.5-.26c.11-.02.22-.02.34,0,.39.04.77,0,1.15-.06.06-.01.13-.01.19-.06.09-.09,1.13-.2,1.27-.18.34.05.68.07,1.02.11.05,0,.1-.02.15.03.11.12.21.09.32.09.14,0,.29,0,.44.04.07.02.15.09.22.14.07.05.05.26.03.28-.06.07,0,.16.02.25,0,.03.01.07,0,.09,0,.05-.8.46-.89.47,0,0-.31.05-.64.1-.31.05-.63.11-.72.12-.07.02-.15,0-.22-.02-.05,0-.99.16-1.03.16-.2,0-.4.06-.61-.04-.04-.02-.08,0-.12,0-.34.04-.69.03-1.04,0-.18,0-.35.01-.53.01-.03,0-.06-.01-.1-.02-.04,0-.08-.02-.12-.02-.42.02-.84-.01-1.25.04-.09.02-.56-.1-.67-.09-.06,0-.28-.12-.33-.1Z"/><path class="cls-3" d="M344.27,104.32c-.13-.07-.15-.21-.12-.39,0-.06.11-.15.15-.14.08.03.17.05.25.09.11.08.67.48.89.64.21.15.41.31.6.48l1.17,1.02c.08.08.16.16.23.25.24.31.52.59.82.84.05.04.09.09.17.11.12.03.91.74.99.85.2.28.43.54.64.81.03.04.08.06.08.13,0,.15.1.2.17.28.1.1.2.21.29.33.04.06.05.16.07.24.02.08-.12.19-.15.18-.09,0-.1.09-.14.15-.01.02-.03.05-.05.06-.04.03-.86-.33-.93-.4-.02-.01-.94-.79-1.08-.91-.06-.04-.1-.12-.14-.18-.04-.04-.77-.69-.8-.71-.14-.16-.3-.28-.39-.49-.02-.04-.05-.07-.08-.1-.25-.25-.48-.52-.7-.79-.11-.14-.24-.27-.36-.4-.02-.02-.04-.06-.05-.08-.02-.03-.04-.07-.07-.1-.29-.31-.55-.65-.86-.94-.07-.07-.33-.47-.42-.54-.05-.04-.12-.27-.17-.29Z"/><path class="cls-3" d="M345.12,110.75c-.02.15-.19.19-.39.21-.06,0-.19-.07-.2-.12-.01-.1-.04-.2-.03-.29,0-.05.23-.84.32-1.11.09-.26.21-.49.34-.73.27-.47.53-.95.82-1.4.06-.1.14-.2.23-.28.29-.3.54-.63.77-.97.04-.06.09-.11.09-.19,0-.14.72-1,.84-1.09.34-.26.59-.45.87-.67.04-.03.07-.08.14-.08.16,0,.22-.09.31-.16.11-.1.24-.2.37-.28.07-.04.17-.04.26-.06.08-.01.19.14.18.17,0,.09.09.11.15.16.02.02.05.04.06.06.02.04-.35.87-.41.93,0,0-.2.25-.41.52-.2.26-.4.54-.44.6-.04.06-.11.1-.17.15-.03.02-.57.85-.6.88-.14.15-.22.34-.43.44-.04.02-.06.05-.09.09-.2.29-.45.54-.68.81-.12.14-.21.29-.32.44-.02.03-.05.04-.07.07-.03.03-.06.06-.09.09-.23.36-.52.68-.71,1.07-.04.09-.41.42-.46.52-.03.05-.26.17-.27.23Z"/><path class="cls-3" d="M489.21,205.21c-.01-.14.06-.25.15-.35.03-.03.11-.03.12.01.03.09.06.17.09.23,0,.05.18.8.24,1.05.05.24.08.49.11.73.05.5.13.99.2,1.48.01.11,0,.22,0,.33-.03.38,0,.76.07,1.13.01.06.01.13.06.18.07.09.22,1.11.21,1.24-.02.34-.02.67-.02,1.01,0,.05.02.1-.02.15-.09.12-.06.21-.05.32.01.14.01.29,0,.43,0,.07-.06.15-.1.23-.04.07-.21.06-.23.04-.06-.06-.13,0-.2.02-.02,0-.05.01-.07.01-.05,0-.47-.77-.47-.87,0-.02-.23-1.17-.27-1.35-.02-.07,0-.15,0-.22,0-.05-.17-1-.17-1.04,0-.2-.06-.4.02-.61.01-.04,0-.08,0-.12-.03-.35-.03-.7,0-1.05.01-.18,0-.36,0-.53,0-.03.01-.06.02-.1,0-.04.02-.08.02-.12,0-.42.06-.84.05-1.26-.01-.1.14-.56.13-.67,0-.06.11-.26.1-.32Z"/><path class="cls-3" d="M485.92,209.48c-.12.05-.23-.05-.33-.19-.03-.05-.04-.19,0-.22.06-.05.13-.11.19-.15.11-.04.68-.27.91-.35.21-.08.43-.12.65-.16l1.32-.25c.1-.02.2-.01.3,0,.34.05.68.02,1.02-.04.06-.01.11,0,.16-.06.08-.08,1-.19,1.12-.17.3.06.6.08.9.12.04,0,.09-.02.13.04.1.12.19.09.28.09.13,0,.26.01.39.04.06.02.13.09.2.14.06.05.05.26.03.28-.05.07,0,.16.02.25,0,.03,0,.07,0,.09,0,.05-.7.45-.78.46,0,0-.27.05-.56.09-.28.05-.58.1-.64.11-.06.02-.13,0-.19-.02-.03,0-.88.15-.91.15-.18,0-.35.05-.54-.04-.04-.02-.07-.01-.11,0-.3.03-.61.02-.92,0-.16-.01-.31,0-.47,0-.03,0-.06-.01-.09-.02-.04,0-.07-.02-.11-.02-.37.02-.74-.02-1.11.02-.08.02-.5-.11-.6-.09-.05,0-.25-.12-.29-.1Z"/><path class="cls-3" d="M486.77,206.57c-.11-.06-.13-.19-.1-.35.01-.05.11-.15.15-.14.08.02.15.04.23.06.1.07.6.4.8.54.19.12.36.26.53.41l1.04.87c.07.07.14.14.2.22.21.28.46.51.73.72.04.04.08.08.15.09.11.02.81.62.88.72.17.25.37.47.55.71.03.03.07.05.07.11,0,.14.08.18.14.25.09.09.18.19.25.29.04.05.04.14.06.22.01.07-.12.18-.15.19-.08,0-.09.1-.14.15-.01.02-.03.05-.05.06-.03.03-.78-.25-.84-.31-.01-.01-.83-.67-.96-.78-.05-.04-.08-.1-.12-.16-.04-.03-.69-.59-.71-.61-.12-.14-.27-.24-.34-.43-.01-.04-.04-.06-.07-.08-.23-.21-.42-.45-.62-.69-.1-.12-.21-.23-.32-.35-.02-.02-.03-.05-.05-.07-.02-.03-.04-.06-.06-.09-.26-.27-.48-.57-.76-.82-.06-.06-.29-.41-.36-.48-.04-.04-.09-.24-.14-.26Z"/><path class="cls-3" d="M487.57,212.12c-.01.13-.18.16-.37.16-.06,0-.19-.07-.2-.12-.02-.09-.05-.18-.04-.27,0-.05.18-.75.26-.99.07-.23.18-.43.29-.64.23-.41.47-.83.72-1.23.06-.09.12-.17.2-.24.26-.25.48-.54.69-.83.03-.05.08-.09.08-.17,0-.12.63-.88.74-.94.27-.18.52-.38.79-.56.04-.03.06-.07.12-.06.15.02.21-.07.28-.13.1-.09.21-.17.33-.23.06-.03.16-.03.24-.03.08,0,.18.15.18.18,0,.08.09.11.15.16.02.02.04.04.06.06.02.04-.28.78-.33.84,0,0-.17.22-.35.45-.17.23-.35.47-.38.52-.03.06-.1.09-.15.12-.03.01-.5.74-.52.76-.12.13-.19.3-.39.37-.04.01-.06.04-.08.07-.18.25-.4.46-.61.69-.11.12-.19.25-.28.38-.02.02-.05.04-.07.06-.03.02-.06.05-.08.08-.21.31-.46.58-.63.92-.03.08-.38.35-.42.44-.03.05-.25.13-.25.19Z"/><path class="cls-3" d="M293.07,419.2c-.01-.16.06-.29.15-.41.03-.04.11-.03.12.02.03.1.06.2.09.27,0,.06.18.92.24,1.22.05.28.08.57.11.85.05.58.14,1.15.21,1.72.01.13.01.25,0,.38-.03.44,0,.88.08,1.31.01.07.01.15.06.21.07.11.24,1.29.23,1.44-.02.39,0,.78,0,1.16,0,.06.02.11-.01.17-.09.13-.06.25-.04.36.02.17.02.33,0,.5,0,.08-.06.17-.1.26-.03.08-.2.06-.23.04-.06-.07-.13,0-.2.02-.02,0-.05.01-.07.01-.05,0-.48-.9-.48-1.01,0-.02-.26-1.37-.29-1.57-.02-.08,0-.17,0-.25,0-.06-.18-1.16-.19-1.2,0-.23-.06-.47.01-.71.01-.05,0-.09,0-.14-.04-.4-.03-.81-.02-1.21.01-.21,0-.41,0-.62,0-.04.01-.07.02-.11,0-.05.02-.09.02-.14,0-.49.05-.97.05-1.46-.01-.11.14-.64.13-.77,0-.07.11-.31.1-.37Z"/><path class="cls-3" d="M289.32,424.11c-.13.05-.26-.04-.37-.19-.04-.05-.04-.19,0-.22.07-.05.14-.11.22-.15.13-.04.77-.28,1.03-.37.24-.08.49-.13.73-.17l1.5-.26c.11-.02.22-.02.34,0,.39.04.77,0,1.15-.06.06-.01.13-.01.19-.06.09-.09,1.13-.2,1.27-.18.34.05.68.07,1.02.11.05,0,.1-.02.15.03.11.12.21.09.32.09.14,0,.29,0,.44.04.07.02.15.09.22.14.07.05.05.26.03.28-.06.07,0,.16.02.25,0,.03.01.07,0,.09,0,.05-.8.46-.89.47,0,0-.31.05-.64.1-.31.05-.63.11-.72.12-.07.02-.15,0-.22-.02-.05,0-.99.16-1.03.16-.2,0-.4.06-.61-.04-.04-.02-.08,0-.12,0-.34.04-.69.03-1.04,0-.18,0-.35.01-.53.01-.03,0-.06-.01-.1-.02-.04,0-.08-.02-.12-.02-.42.02-.84-.01-1.25.04-.09.02-.56-.1-.67-.09-.06,0-.28-.12-.33-.1Z"/><path class="cls-3" d="M290.3,420.76c-.13-.07-.15-.21-.12-.39,0-.06.11-.15.15-.14.08.03.17.05.25.09.11.08.67.48.89.64.21.15.41.31.6.48l1.17,1.02c.08.08.16.16.23.25.24.31.52.59.82.84.05.04.09.09.17.11.12.03.9.74.99.85.2.28.43.54.64.81.03.04.08.06.08.13,0,.15.1.2.17.28.1.1.2.21.29.33.04.06.05.16.07.24.02.08-.12.19-.15.18-.09,0-.1.09-.14.15-.01.02-.03.05-.05.06-.04.03-.86-.33-.93-.4-.02-.01-.94-.79-1.08-.91-.06-.04-.1-.12-.14-.18-.04-.04-.77-.69-.8-.71-.14-.16-.3-.28-.39-.49-.02-.04-.05-.07-.08-.1-.25-.25-.48-.52-.7-.79-.11-.14-.24-.27-.36-.4-.02-.02-.04-.06-.05-.08-.02-.03-.04-.07-.07-.1-.29-.31-.55-.65-.86-.94-.07-.07-.33-.47-.42-.54-.05-.04-.12-.27-.17-.29Z"/><path class="cls-3" d="M291.16,427.18c-.02.15-.19.19-.39.21-.06,0-.19-.07-.2-.12-.01-.1-.04-.2-.03-.29,0-.05.23-.84.32-1.11.09-.26.21-.49.34-.73.27-.47.53-.95.82-1.4.06-.1.14-.2.23-.28.29-.3.54-.63.77-.97.04-.06.09-.11.09-.19,0-.14.72-1,.84-1.09.34-.26.59-.45.87-.67.04-.03.07-.08.14-.08.16,0,.22-.09.31-.16.11-.1.24-.2.37-.28.07-.04.17-.04.26-.06.08-.01.19.14.18.17,0,.09.09.11.15.16.02.02.05.04.06.06.02.04-.35.87-.41.93,0,0-.2.25-.41.52-.2.26-.4.54-.44.6-.04.06-.11.1-.17.15-.03.02-.57.85-.6.88-.14.15-.22.34-.43.44-.04.02-.06.05-.09.09-.2.29-.45.54-.68.81-.12.14-.21.29-.32.44-.02.03-.05.04-.07.07-.03.03-.06.06-.09.09-.23.36-.52.68-.71,1.07-.04.09-.41.42-.46.52-.03.05-.26.17-.27.23Z"/><path class="cls-3" d="M441.18,82.16c-.02-.21.08-.39.21-.54.04-.05.15-.04.17.02.05.13.09.26.12.36,0,.07.25,1.23.34,1.62.07.38.11.76.15,1.13.07.77.19,1.53.28,2.29.02.17.01.34,0,.51-.04.59,0,1.17.11,1.75.02.1.02.2.08.28.1.15.32,1.72.32,1.93-.03.52-.01,1.04-.02,1.56,0,.07.03.15-.02.22-.13.18-.08.33-.07.49.02.22.02.44,0,.67-.01.11-.08.23-.14.35-.05.11-.29.09-.32.06-.09-.09-.18,0-.28.03-.03,0-.07.02-.1.02-.06,0-.67-1.2-.67-1.35,0-.03-.35-1.84-.4-2.09-.03-.11,0-.23,0-.34,0-.05-.26-1.54-.26-1.6-.01-.31-.08-.62.02-.94.02-.06,0-.13,0-.19-.05-.54-.04-1.08-.02-1.62.02-.28,0-.55,0-.82,0-.05.02-.1.03-.15.01-.06.03-.13.03-.19,0-.65.08-1.3.07-1.94-.02-.15.19-.86.19-1.03,0-.1.16-.41.14-.49Z"/><path class="cls-3" d="M436.18,88.73c-.18.07-.34-.06-.5-.27-.05-.06-.06-.27-.01-.31.1-.07.19-.15.29-.21.15-.06,1.03-.38,1.38-.51.32-.11.65-.18.98-.23l2-.36c.15-.03.3-.02.45,0,.52.06,1.03.02,1.54-.07.08-.02.17-.01.25-.09.13-.12,1.51-.28,1.7-.25.46.08.91.11,1.37.16.06,0,.13-.03.2.05.15.17.29.13.43.13.19,0,.39.01.58.06.1.02.2.12.3.2.09.07.07.36.04.4-.08.1,0,.23.02.35,0,.04.01.09.01.13,0,.08-1.06.65-1.18.65-.01,0-.42.07-.85.14-.43.07-.87.14-.96.17-.09.02-.19-.01-.29-.03-.05,0-1.32.22-1.37.22-.27,0-.53.08-.81-.05-.05-.03-.11-.01-.16,0-.46.05-.92.04-1.38,0-.24-.01-.47.01-.71.02-.04,0-.09-.02-.13-.03-.05-.01-.11-.03-.16-.02-.56.03-1.12-.02-1.67.05-.13.03-.76-.15-.9-.13-.08,0-.37-.17-.44-.14Z"/><path class="cls-3" d="M437.49,84.24c-.17-.09-.2-.28-.16-.52.01-.08.15-.21.21-.19.11.03.23.07.33.11.13.09.9.64,1.2.85.29.19.55.41.8.64l1.56,1.36c.11.1.22.22.31.34.32.42.69.78,1.1,1.12.07.06.13.12.22.14.16.04,1.21.98,1.32,1.13.27.37.56.72.85,1.08.04.05.11.08.11.17,0,.2.12.28.22.38.14.14.27.28.38.45.06.08.07.21.09.33.02.11-.17.26-.21.26-.12,0-.14.13-.19.21-.02.03-.05.06-.07.08-.05.05-1.17-.42-1.25-.51-.02-.02-1.28-1.07-1.45-1.21-.08-.06-.13-.15-.18-.24-.05-.04-1.03-.91-1.07-.95-.18-.21-.41-.37-.51-.65-.02-.06-.06-.09-.1-.13-.34-.33-.63-.7-.94-1.06-.15-.19-.32-.36-.48-.54-.03-.03-.05-.08-.07-.11-.03-.05-.06-.1-.09-.14-.39-.41-.74-.87-1.15-1.26-.09-.09-.44-.63-.55-.73-.06-.06-.15-.36-.22-.4Z"/><path class="cls-3" d="M438.66,92.82c-.03.2-.26.25-.54.27-.09,0-.26-.1-.28-.16-.02-.13-.06-.27-.05-.4,0-.07.29-1.13.41-1.5.11-.35.27-.66.45-.97.35-.63.71-1.27,1.09-1.88.09-.14.18-.26.3-.38.39-.4.72-.84,1.04-1.29.05-.08.12-.14.12-.25,0-.18.96-1.34,1.13-1.45.41-.29.78-.6,1.18-.88.06-.04.09-.11.19-.11.22.01.3-.11.41-.21.15-.14.32-.26.5-.37.09-.05.23-.05.35-.07.11-.01.26.2.26.25,0,.12.13.16.21.22.03.02.06.05.08.08.03.05-.44,1.17-.52,1.26,0,.01-.27.34-.54.69-.26.35-.53.72-.58.81-.05.09-.14.13-.23.19-.05.02-.76,1.13-.79,1.18-.18.2-.29.46-.58.58-.06.02-.09.07-.12.12-.27.38-.61.72-.91,1.07-.16.18-.28.39-.42.58-.03.03-.07.06-.1.09-.04.04-.09.07-.12.12-.31.48-.69.91-.95,1.42-.05.12-.56.55-.62.7-.04.07-.36.22-.37.3Z"/><path class="cls-3" d="M320.34,235.11c-.06.09-.13.18-.2.28.22-.32.02-.03-.05.05-.12.14-.24.27-.38.39-.03.03-.06.05-.1.08-.14.12.25-.18.1-.08-.06.04-.13.09-.19.13s-.13.08-.2.11c-.03.02-.07.03-.1.05.31-.17.23-.09.13-.06-.7.25-1.44.32-2.17.43-.26.04-.55.3-.67.52-.14.24-.2.6-.11.87s.26.53.52.67c.29.15.55.16.87.11.76-.11,1.56-.18,2.28-.47.47-.19.86-.43,1.25-.77s.69-.75.98-1.17c.34-.48.1-1.27-.4-1.54-.57-.3-1.18-.11-1.54.4h0Z"/></svg>